<?xml version="1.0" encoding="utf-8" standalone="no"?>
<!DOCTYPE svg PUBLIC "-//W3C//DTD SVG 1.1//EN"
  "http://www.w3.org/Graphics/SVG/1.1/DTD/svg11.dtd">
<!-- Created with matplotlib (http://matplotlib.org/) -->
<svg height="288pt" version="1.1" viewBox="0 0 432 288" width="432pt" xmlns="http://www.w3.org/2000/svg" xmlns:xlink="http://www.w3.org/1999/xlink">
 <defs>
  <style type="text/css">
*{stroke-linecap:butt;stroke-linejoin:round;}
  </style>
 </defs>
 <g id="figure_1">
  <g id="patch_1">
   <path d="M 0 288 
L 432 288 
L 432 0 
L 0 0 
z
" style="fill:#ffffff;"/>
  </g>
  <g id="axes_1">
   <g id="patch_2">
    <path d="M 54 252 
L 388.8 252 
L 388.8 34.56 
L 54 34.56 
z
" style="fill:#ffffff;"/>
   </g>
   <g id="matplotlib.axis_1">
    <g id="xtick_1">
     <g id="line2d_1">
      <defs>
       <path d="M 0 0 
L 0 3.5 
" id="m6d2d76bdf6" style="stroke:#000000;stroke-width:0.8;"/>
      </defs>
      <g>
       <use style="stroke:#000000;stroke-width:0.8;" x="69.218182" xlink:href="#m6d2d76bdf6" y="252"/>
      </g>
     </g>
     <g id="text_1">
      <!-- 0 -->
      <defs>
       <path d="M 31.78125 66.40625 
Q 24.171875 66.40625 20.328125 58.90625 
Q 16.5 51.421875 16.5 36.375 
Q 16.5 21.390625 20.328125 13.890625 
Q 24.171875 6.390625 31.78125 6.390625 
Q 39.453125 6.390625 43.28125 13.890625 
Q 47.125 21.390625 47.125 36.375 
Q 47.125 51.421875 43.28125 58.90625 
Q 39.453125 66.40625 31.78125 66.40625 
M 31.78125 74.21875 
Q 44.046875 74.21875 50.515625 64.515625 
Q 56.984375 54.828125 56.984375 36.375 
Q 56.984375 17.96875 50.515625 8.265625 
Q 44.046875 -1.421875 31.78125 -1.421875 
Q 19.53125 -1.421875 13.0625 8.265625 
Q 6.59375 17.96875 6.59375 36.375 
Q 6.59375 54.828125 13.0625 64.515625 
Q 19.53125 74.21875 31.78125 74.21875 
" id="DejaVuSans-30"/>
      </defs>
      <g transform="translate(66.036932 266.598437)scale(0.1 -0.1)">
       <use xlink:href="#DejaVuSans-30"/>
      </g>
     </g>
    </g>
    <g id="xtick_2">
     <g id="line2d_2">
      <g>
       <use style="stroke:#000000;stroke-width:0.8;" x="109.827073" xlink:href="#m6d2d76bdf6" y="252"/>
      </g>
     </g>
     <g id="text_2">
      <!-- 200 -->
      <defs>
       <path d="M 19.1875 8.296875 
L 53.609375 8.296875 
L 53.609375 0 
L 7.328125 0 
L 7.328125 8.296875 
Q 12.9375 14.109375 22.625 23.890625 
Q 32.328125 33.6875 34.8125 36.53125 
Q 39.546875 41.84375 41.421875 45.53125 
Q 43.3125 49.21875 43.3125 52.78125 
Q 43.3125 58.59375 39.234375 62.25 
Q 35.15625 65.921875 28.609375 65.921875 
Q 23.96875 65.921875 18.8125 64.3125 
Q 13.671875 62.703125 7.8125 59.421875 
L 7.8125 69.390625 
Q 13.765625 71.78125 18.9375 73 
Q 24.125 74.21875 28.421875 74.21875 
Q 39.75 74.21875 46.484375 68.546875 
Q 53.21875 62.890625 53.21875 53.421875 
Q 53.21875 48.921875 51.53125 44.890625 
Q 49.859375 40.875 45.40625 35.40625 
Q 44.1875 33.984375 37.640625 27.21875 
Q 31.109375 20.453125 19.1875 8.296875 
" id="DejaVuSans-32"/>
      </defs>
      <g transform="translate(100.283323 266.598437)scale(0.1 -0.1)">
       <use xlink:href="#DejaVuSans-32"/>
       <use x="63.623047" xlink:href="#DejaVuSans-30"/>
       <use x="127.246094" xlink:href="#DejaVuSans-30"/>
      </g>
     </g>
    </g>
    <g id="xtick_3">
     <g id="line2d_3">
      <g>
       <use style="stroke:#000000;stroke-width:0.8;" x="150.435963" xlink:href="#m6d2d76bdf6" y="252"/>
      </g>
     </g>
     <g id="text_3">
      <!-- 400 -->
      <defs>
       <path d="M 37.796875 64.3125 
L 12.890625 25.390625 
L 37.796875 25.390625 
z
M 35.203125 72.90625 
L 47.609375 72.90625 
L 47.609375 25.390625 
L 58.015625 25.390625 
L 58.015625 17.1875 
L 47.609375 17.1875 
L 47.609375 0 
L 37.796875 0 
L 37.796875 17.1875 
L 4.890625 17.1875 
L 4.890625 26.703125 
z
" id="DejaVuSans-34"/>
      </defs>
      <g transform="translate(140.892213 266.598437)scale(0.1 -0.1)">
       <use xlink:href="#DejaVuSans-34"/>
       <use x="63.623047" xlink:href="#DejaVuSans-30"/>
       <use x="127.246094" xlink:href="#DejaVuSans-30"/>
      </g>
     </g>
    </g>
    <g id="xtick_4">
     <g id="line2d_4">
      <g>
       <use style="stroke:#000000;stroke-width:0.8;" x="191.044854" xlink:href="#m6d2d76bdf6" y="252"/>
      </g>
     </g>
     <g id="text_4">
      <!-- 600 -->
      <defs>
       <path d="M 33.015625 40.375 
Q 26.375 40.375 22.484375 35.828125 
Q 18.609375 31.296875 18.609375 23.390625 
Q 18.609375 15.53125 22.484375 10.953125 
Q 26.375 6.390625 33.015625 6.390625 
Q 39.65625 6.390625 43.53125 10.953125 
Q 47.40625 15.53125 47.40625 23.390625 
Q 47.40625 31.296875 43.53125 35.828125 
Q 39.65625 40.375 33.015625 40.375 
M 52.59375 71.296875 
L 52.59375 62.3125 
Q 48.875 64.0625 45.09375 64.984375 
Q 41.3125 65.921875 37.59375 65.921875 
Q 27.828125 65.921875 22.671875 59.328125 
Q 17.53125 52.734375 16.796875 39.40625 
Q 19.671875 43.65625 24.015625 45.921875 
Q 28.375 48.1875 33.59375 48.1875 
Q 44.578125 48.1875 50.953125 41.515625 
Q 57.328125 34.859375 57.328125 23.390625 
Q 57.328125 12.15625 50.6875 5.359375 
Q 44.046875 -1.421875 33.015625 -1.421875 
Q 20.359375 -1.421875 13.671875 8.265625 
Q 6.984375 17.96875 6.984375 36.375 
Q 6.984375 53.65625 15.1875 63.9375 
Q 23.390625 74.21875 37.203125 74.21875 
Q 40.921875 74.21875 44.703125 73.484375 
Q 48.484375 72.75 52.59375 71.296875 
" id="DejaVuSans-36"/>
      </defs>
      <g transform="translate(181.501104 266.598437)scale(0.1 -0.1)">
       <use xlink:href="#DejaVuSans-36"/>
       <use x="63.623047" xlink:href="#DejaVuSans-30"/>
       <use x="127.246094" xlink:href="#DejaVuSans-30"/>
      </g>
     </g>
    </g>
    <g id="xtick_5">
     <g id="line2d_5">
      <g>
       <use style="stroke:#000000;stroke-width:0.8;" x="231.653745" xlink:href="#m6d2d76bdf6" y="252"/>
      </g>
     </g>
     <g id="text_5">
      <!-- 800 -->
      <defs>
       <path d="M 31.78125 34.625 
Q 24.75 34.625 20.71875 30.859375 
Q 16.703125 27.09375 16.703125 20.515625 
Q 16.703125 13.921875 20.71875 10.15625 
Q 24.75 6.390625 31.78125 6.390625 
Q 38.8125 6.390625 42.859375 10.171875 
Q 46.921875 13.96875 46.921875 20.515625 
Q 46.921875 27.09375 42.890625 30.859375 
Q 38.875 34.625 31.78125 34.625 
M 21.921875 38.8125 
Q 15.578125 40.375 12.03125 44.71875 
Q 8.5 49.078125 8.5 55.328125 
Q 8.5 64.0625 14.71875 69.140625 
Q 20.953125 74.21875 31.78125 74.21875 
Q 42.671875 74.21875 48.875 69.140625 
Q 55.078125 64.0625 55.078125 55.328125 
Q 55.078125 49.078125 51.53125 44.71875 
Q 48 40.375 41.703125 38.8125 
Q 48.828125 37.15625 52.796875 32.3125 
Q 56.78125 27.484375 56.78125 20.515625 
Q 56.78125 9.90625 50.3125 4.234375 
Q 43.84375 -1.421875 31.78125 -1.421875 
Q 19.734375 -1.421875 13.25 4.234375 
Q 6.78125 9.90625 6.78125 20.515625 
Q 6.78125 27.484375 10.78125 32.3125 
Q 14.796875 37.15625 21.921875 38.8125 
M 18.3125 54.390625 
Q 18.3125 48.734375 21.84375 45.5625 
Q 25.390625 42.390625 31.78125 42.390625 
Q 38.140625 42.390625 41.71875 45.5625 
Q 45.3125 48.734375 45.3125 54.390625 
Q 45.3125 60.0625 41.71875 63.234375 
Q 38.140625 66.40625 31.78125 66.40625 
Q 25.390625 66.40625 21.84375 63.234375 
Q 18.3125 60.0625 18.3125 54.390625 
" id="DejaVuSans-38"/>
      </defs>
      <g transform="translate(222.109995 266.598437)scale(0.1 -0.1)">
       <use xlink:href="#DejaVuSans-38"/>
       <use x="63.623047" xlink:href="#DejaVuSans-30"/>
       <use x="127.246094" xlink:href="#DejaVuSans-30"/>
      </g>
     </g>
    </g>
    <g id="xtick_6">
     <g id="line2d_6">
      <g>
       <use style="stroke:#000000;stroke-width:0.8;" x="272.262636" xlink:href="#m6d2d76bdf6" y="252"/>
      </g>
     </g>
     <g id="text_6">
      <!-- 1000 -->
      <defs>
       <path d="M 12.40625 8.296875 
L 28.515625 8.296875 
L 28.515625 63.921875 
L 10.984375 60.40625 
L 10.984375 69.390625 
L 28.421875 72.90625 
L 38.28125 72.90625 
L 38.28125 8.296875 
L 54.390625 8.296875 
L 54.390625 0 
L 12.40625 0 
z
" id="DejaVuSans-31"/>
      </defs>
      <g transform="translate(259.537636 266.598437)scale(0.1 -0.1)">
       <use xlink:href="#DejaVuSans-31"/>
       <use x="63.623047" xlink:href="#DejaVuSans-30"/>
       <use x="127.246094" xlink:href="#DejaVuSans-30"/>
       <use x="190.869141" xlink:href="#DejaVuSans-30"/>
      </g>
     </g>
    </g>
    <g id="xtick_7">
     <g id="line2d_7">
      <g>
       <use style="stroke:#000000;stroke-width:0.8;" x="312.871526" xlink:href="#m6d2d76bdf6" y="252"/>
      </g>
     </g>
     <g id="text_7">
      <!-- 1200 -->
      <g transform="translate(300.146526 266.598437)scale(0.1 -0.1)">
       <use xlink:href="#DejaVuSans-31"/>
       <use x="63.623047" xlink:href="#DejaVuSans-32"/>
       <use x="127.246094" xlink:href="#DejaVuSans-30"/>
       <use x="190.869141" xlink:href="#DejaVuSans-30"/>
      </g>
     </g>
    </g>
    <g id="xtick_8">
     <g id="line2d_8">
      <g>
       <use style="stroke:#000000;stroke-width:0.8;" x="353.480417" xlink:href="#m6d2d76bdf6" y="252"/>
      </g>
     </g>
     <g id="text_8">
      <!-- 1400 -->
      <g transform="translate(340.755417 266.598437)scale(0.1 -0.1)">
       <use xlink:href="#DejaVuSans-31"/>
       <use x="63.623047" xlink:href="#DejaVuSans-34"/>
       <use x="127.246094" xlink:href="#DejaVuSans-30"/>
       <use x="190.869141" xlink:href="#DejaVuSans-30"/>
      </g>
     </g>
    </g>
    <g id="text_9">
     <!-- seconds -->
     <defs>
      <path d="M 44.28125 53.078125 
L 44.28125 44.578125 
Q 40.484375 46.53125 36.375 47.5 
Q 32.28125 48.484375 27.875 48.484375 
Q 21.1875 48.484375 17.84375 46.4375 
Q 14.5 44.390625 14.5 40.28125 
Q 14.5 37.15625 16.890625 35.375 
Q 19.28125 33.59375 26.515625 31.984375 
L 29.59375 31.296875 
Q 39.15625 29.25 43.1875 25.515625 
Q 47.21875 21.78125 47.21875 15.09375 
Q 47.21875 7.46875 41.1875 3.015625 
Q 35.15625 -1.421875 24.609375 -1.421875 
Q 20.21875 -1.421875 15.453125 -0.5625 
Q 10.6875 0.296875 5.421875 2 
L 5.421875 11.28125 
Q 10.40625 8.6875 15.234375 7.390625 
Q 20.0625 6.109375 24.8125 6.109375 
Q 31.15625 6.109375 34.5625 8.28125 
Q 37.984375 10.453125 37.984375 14.40625 
Q 37.984375 18.0625 35.515625 20.015625 
Q 33.0625 21.96875 24.703125 23.78125 
L 21.578125 24.515625 
Q 13.234375 26.265625 9.515625 29.90625 
Q 5.8125 33.546875 5.8125 39.890625 
Q 5.8125 47.609375 11.28125 51.796875 
Q 16.75 56 26.8125 56 
Q 31.78125 56 36.171875 55.265625 
Q 40.578125 54.546875 44.28125 53.078125 
" id="DejaVuSans-73"/>
      <path d="M 56.203125 29.59375 
L 56.203125 25.203125 
L 14.890625 25.203125 
Q 15.484375 15.921875 20.484375 11.0625 
Q 25.484375 6.203125 34.421875 6.203125 
Q 39.59375 6.203125 44.453125 7.46875 
Q 49.3125 8.734375 54.109375 11.28125 
L 54.109375 2.78125 
Q 49.265625 0.734375 44.1875 -0.34375 
Q 39.109375 -1.421875 33.890625 -1.421875 
Q 20.796875 -1.421875 13.15625 6.1875 
Q 5.515625 13.8125 5.515625 26.8125 
Q 5.515625 40.234375 12.765625 48.109375 
Q 20.015625 56 32.328125 56 
Q 43.359375 56 49.78125 48.890625 
Q 56.203125 41.796875 56.203125 29.59375 
M 47.21875 32.234375 
Q 47.125 39.59375 43.09375 43.984375 
Q 39.0625 48.390625 32.421875 48.390625 
Q 24.90625 48.390625 20.390625 44.140625 
Q 15.875 39.890625 15.1875 32.171875 
z
" id="DejaVuSans-65"/>
      <path d="M 48.78125 52.59375 
L 48.78125 44.1875 
Q 44.96875 46.296875 41.140625 47.34375 
Q 37.3125 48.390625 33.40625 48.390625 
Q 24.65625 48.390625 19.8125 42.84375 
Q 14.984375 37.3125 14.984375 27.296875 
Q 14.984375 17.28125 19.8125 11.734375 
Q 24.65625 6.203125 33.40625 6.203125 
Q 37.3125 6.203125 41.140625 7.25 
Q 44.96875 8.296875 48.78125 10.40625 
L 48.78125 2.09375 
Q 45.015625 0.34375 40.984375 -0.53125 
Q 36.96875 -1.421875 32.421875 -1.421875 
Q 20.0625 -1.421875 12.78125 6.34375 
Q 5.515625 14.109375 5.515625 27.296875 
Q 5.515625 40.671875 12.859375 48.328125 
Q 20.21875 56 33.015625 56 
Q 37.15625 56 41.109375 55.140625 
Q 45.0625 54.296875 48.78125 52.59375 
" id="DejaVuSans-63"/>
      <path d="M 30.609375 48.390625 
Q 23.390625 48.390625 19.1875 42.75 
Q 14.984375 37.109375 14.984375 27.296875 
Q 14.984375 17.484375 19.15625 11.84375 
Q 23.34375 6.203125 30.609375 6.203125 
Q 37.796875 6.203125 41.984375 11.859375 
Q 46.1875 17.53125 46.1875 27.296875 
Q 46.1875 37.015625 41.984375 42.703125 
Q 37.796875 48.390625 30.609375 48.390625 
M 30.609375 56 
Q 42.328125 56 49.015625 48.375 
Q 55.71875 40.765625 55.71875 27.296875 
Q 55.71875 13.875 49.015625 6.21875 
Q 42.328125 -1.421875 30.609375 -1.421875 
Q 18.84375 -1.421875 12.171875 6.21875 
Q 5.515625 13.875 5.515625 27.296875 
Q 5.515625 40.765625 12.171875 48.375 
Q 18.84375 56 30.609375 56 
" id="DejaVuSans-6f"/>
      <path d="M 54.890625 33.015625 
L 54.890625 0 
L 45.90625 0 
L 45.90625 32.71875 
Q 45.90625 40.484375 42.875 44.328125 
Q 39.84375 48.1875 33.796875 48.1875 
Q 26.515625 48.1875 22.3125 43.546875 
Q 18.109375 38.921875 18.109375 30.90625 
L 18.109375 0 
L 9.078125 0 
L 9.078125 54.6875 
L 18.109375 54.6875 
L 18.109375 46.1875 
Q 21.34375 51.125 25.703125 53.5625 
Q 30.078125 56 35.796875 56 
Q 45.21875 56 50.046875 50.171875 
Q 54.890625 44.34375 54.890625 33.015625 
" id="DejaVuSans-6e"/>
      <path d="M 45.40625 46.390625 
L 45.40625 75.984375 
L 54.390625 75.984375 
L 54.390625 0 
L 45.40625 0 
L 45.40625 8.203125 
Q 42.578125 3.328125 38.25 0.953125 
Q 33.9375 -1.421875 27.875 -1.421875 
Q 17.96875 -1.421875 11.734375 6.484375 
Q 5.515625 14.40625 5.515625 27.296875 
Q 5.515625 40.1875 11.734375 48.09375 
Q 17.96875 56 27.875 56 
Q 33.9375 56 38.25 53.625 
Q 42.578125 51.265625 45.40625 46.390625 
M 14.796875 27.296875 
Q 14.796875 17.390625 18.875 11.75 
Q 22.953125 6.109375 30.078125 6.109375 
Q 37.203125 6.109375 41.296875 11.75 
Q 45.40625 17.390625 45.40625 27.296875 
Q 45.40625 37.203125 41.296875 42.84375 
Q 37.203125 48.484375 30.078125 48.484375 
Q 22.953125 48.484375 18.875 42.84375 
Q 14.796875 37.203125 14.796875 27.296875 
" id="DejaVuSans-64"/>
     </defs>
     <g transform="translate(200.9625 280.276563)scale(0.1 -0.1)">
      <use xlink:href="#DejaVuSans-73"/>
      <use x="52.099609" xlink:href="#DejaVuSans-65"/>
      <use x="113.623047" xlink:href="#DejaVuSans-63"/>
      <use x="168.603516" xlink:href="#DejaVuSans-6f"/>
      <use x="229.785156" xlink:href="#DejaVuSans-6e"/>
      <use x="293.164062" xlink:href="#DejaVuSans-64"/>
      <use x="356.640625" xlink:href="#DejaVuSans-73"/>
     </g>
    </g>
   </g>
   <g id="matplotlib.axis_2">
    <g id="ytick_1">
     <g id="line2d_9">
      <defs>
       <path d="M 0 0 
L -3.5 0 
" id="m23d7671f1f" style="stroke:#000000;stroke-width:0.8;"/>
      </defs>
      <g>
       <use style="stroke:#000000;stroke-width:0.8;" x="54" xlink:href="#m23d7671f1f" y="238.214464"/>
      </g>
     </g>
     <g id="text_10">
      <!-- 0.90 -->
      <defs>
       <path d="M 10.6875 12.40625 
L 21 12.40625 
L 21 0 
L 10.6875 0 
z
" id="DejaVuSans-2e"/>
       <path d="M 10.984375 1.515625 
L 10.984375 10.5 
Q 14.703125 8.734375 18.5 7.8125 
Q 22.3125 6.890625 25.984375 6.890625 
Q 35.75 6.890625 40.890625 13.453125 
Q 46.046875 20.015625 46.78125 33.40625 
Q 43.953125 29.203125 39.59375 26.953125 
Q 35.25 24.703125 29.984375 24.703125 
Q 19.046875 24.703125 12.671875 31.3125 
Q 6.296875 37.9375 6.296875 49.421875 
Q 6.296875 60.640625 12.9375 67.421875 
Q 19.578125 74.21875 30.609375 74.21875 
Q 43.265625 74.21875 49.921875 64.515625 
Q 56.59375 54.828125 56.59375 36.375 
Q 56.59375 19.140625 48.40625 8.859375 
Q 40.234375 -1.421875 26.421875 -1.421875 
Q 22.703125 -1.421875 18.890625 -0.6875 
Q 15.09375 0.046875 10.984375 1.515625 
M 30.609375 32.421875 
Q 37.25 32.421875 41.125 36.953125 
Q 45.015625 41.5 45.015625 49.421875 
Q 45.015625 57.28125 41.125 61.84375 
Q 37.25 66.40625 30.609375 66.40625 
Q 23.96875 66.40625 20.09375 61.84375 
Q 16.21875 57.28125 16.21875 49.421875 
Q 16.21875 41.5 20.09375 36.953125 
Q 23.96875 32.421875 30.609375 32.421875 
" id="DejaVuSans-39"/>
      </defs>
      <g transform="translate(24.734375 242.013682)scale(0.1 -0.1)">
       <use xlink:href="#DejaVuSans-30"/>
       <use x="63.623047" xlink:href="#DejaVuSans-2e"/>
       <use x="95.410156" xlink:href="#DejaVuSans-39"/>
       <use x="159.033203" xlink:href="#DejaVuSans-30"/>
      </g>
     </g>
    </g>
    <g id="ytick_2">
     <g id="line2d_10">
      <g>
       <use style="stroke:#000000;stroke-width:0.8;" x="54" xlink:href="#m23d7671f1f" y="194.075323"/>
      </g>
     </g>
     <g id="text_11">
      <!-- 0.95 -->
      <defs>
       <path d="M 10.796875 72.90625 
L 49.515625 72.90625 
L 49.515625 64.59375 
L 19.828125 64.59375 
L 19.828125 46.734375 
Q 21.96875 47.46875 24.109375 47.828125 
Q 26.265625 48.1875 28.421875 48.1875 
Q 40.625 48.1875 47.75 41.5 
Q 54.890625 34.8125 54.890625 23.390625 
Q 54.890625 11.625 47.5625 5.09375 
Q 40.234375 -1.421875 26.90625 -1.421875 
Q 22.3125 -1.421875 17.546875 -0.640625 
Q 12.796875 0.140625 7.71875 1.703125 
L 7.71875 11.625 
Q 12.109375 9.234375 16.796875 8.0625 
Q 21.484375 6.890625 26.703125 6.890625 
Q 35.15625 6.890625 40.078125 11.328125 
Q 45.015625 15.765625 45.015625 23.390625 
Q 45.015625 31 40.078125 35.4375 
Q 35.15625 39.890625 26.703125 39.890625 
Q 22.75 39.890625 18.8125 39.015625 
Q 14.890625 38.140625 10.796875 36.28125 
z
" id="DejaVuSans-35"/>
      </defs>
      <g transform="translate(24.734375 197.874542)scale(0.1 -0.1)">
       <use xlink:href="#DejaVuSans-30"/>
       <use x="63.623047" xlink:href="#DejaVuSans-2e"/>
       <use x="95.410156" xlink:href="#DejaVuSans-39"/>
       <use x="159.033203" xlink:href="#DejaVuSans-35"/>
      </g>
     </g>
    </g>
    <g id="ytick_3">
     <g id="line2d_11">
      <g>
       <use style="stroke:#000000;stroke-width:0.8;" x="54" xlink:href="#m23d7671f1f" y="149.936182"/>
      </g>
     </g>
     <g id="text_12">
      <!-- 1.00 -->
      <g transform="translate(24.734375 153.735401)scale(0.1 -0.1)">
       <use xlink:href="#DejaVuSans-31"/>
       <use x="63.623047" xlink:href="#DejaVuSans-2e"/>
       <use x="95.410156" xlink:href="#DejaVuSans-30"/>
       <use x="159.033203" xlink:href="#DejaVuSans-30"/>
      </g>
     </g>
    </g>
    <g id="ytick_4">
     <g id="line2d_12">
      <g>
       <use style="stroke:#000000;stroke-width:0.8;" x="54" xlink:href="#m23d7671f1f" y="105.797042"/>
      </g>
     </g>
     <g id="text_13">
      <!-- 1.05 -->
      <g transform="translate(24.734375 109.596261)scale(0.1 -0.1)">
       <use xlink:href="#DejaVuSans-31"/>
       <use x="63.623047" xlink:href="#DejaVuSans-2e"/>
       <use x="95.410156" xlink:href="#DejaVuSans-30"/>
       <use x="159.033203" xlink:href="#DejaVuSans-35"/>
      </g>
     </g>
    </g>
    <g id="ytick_5">
     <g id="line2d_13">
      <g>
       <use style="stroke:#000000;stroke-width:0.8;" x="54" xlink:href="#m23d7671f1f" y="61.657901"/>
      </g>
     </g>
     <g id="text_14">
      <!-- 1.10 -->
      <g transform="translate(24.734375 65.45712)scale(0.1 -0.1)">
       <use xlink:href="#DejaVuSans-31"/>
       <use x="63.623047" xlink:href="#DejaVuSans-2e"/>
       <use x="95.410156" xlink:href="#DejaVuSans-31"/>
       <use x="159.033203" xlink:href="#DejaVuSans-30"/>
      </g>
     </g>
    </g>
    <g id="text_15">
     <!-- Picoamps  -->
     <defs>
      <path d="M 19.671875 64.796875 
L 19.671875 37.40625 
L 32.078125 37.40625 
Q 38.96875 37.40625 42.71875 40.96875 
Q 46.484375 44.53125 46.484375 51.125 
Q 46.484375 57.671875 42.71875 61.234375 
Q 38.96875 64.796875 32.078125 64.796875 
z
M 9.8125 72.90625 
L 32.078125 72.90625 
Q 44.34375 72.90625 50.609375 67.359375 
Q 56.890625 61.8125 56.890625 51.125 
Q 56.890625 40.328125 50.609375 34.8125 
Q 44.34375 29.296875 32.078125 29.296875 
L 19.671875 29.296875 
L 19.671875 0 
L 9.8125 0 
z
" id="DejaVuSans-50"/>
      <path d="M 9.421875 54.6875 
L 18.40625 54.6875 
L 18.40625 0 
L 9.421875 0 
z
M 9.421875 75.984375 
L 18.40625 75.984375 
L 18.40625 64.59375 
L 9.421875 64.59375 
z
" id="DejaVuSans-69"/>
      <path d="M 34.28125 27.484375 
Q 23.390625 27.484375 19.1875 25 
Q 14.984375 22.515625 14.984375 16.5 
Q 14.984375 11.71875 18.140625 8.90625 
Q 21.296875 6.109375 26.703125 6.109375 
Q 34.1875 6.109375 38.703125 11.40625 
Q 43.21875 16.703125 43.21875 25.484375 
L 43.21875 27.484375 
z
M 52.203125 31.203125 
L 52.203125 0 
L 43.21875 0 
L 43.21875 8.296875 
Q 40.140625 3.328125 35.546875 0.953125 
Q 30.953125 -1.421875 24.3125 -1.421875 
Q 15.921875 -1.421875 10.953125 3.296875 
Q 6 8.015625 6 15.921875 
Q 6 25.140625 12.171875 29.828125 
Q 18.359375 34.515625 30.609375 34.515625 
L 43.21875 34.515625 
L 43.21875 35.40625 
Q 43.21875 41.609375 39.140625 45 
Q 35.0625 48.390625 27.6875 48.390625 
Q 23 48.390625 18.546875 47.265625 
Q 14.109375 46.140625 10.015625 43.890625 
L 10.015625 52.203125 
Q 14.9375 54.109375 19.578125 55.046875 
Q 24.21875 56 28.609375 56 
Q 40.484375 56 46.34375 49.84375 
Q 52.203125 43.703125 52.203125 31.203125 
" id="DejaVuSans-61"/>
      <path d="M 52 44.1875 
Q 55.375 50.25 60.0625 53.125 
Q 64.75 56 71.09375 56 
Q 79.640625 56 84.28125 50.015625 
Q 88.921875 44.046875 88.921875 33.015625 
L 88.921875 0 
L 79.890625 0 
L 79.890625 32.71875 
Q 79.890625 40.578125 77.09375 44.375 
Q 74.3125 48.1875 68.609375 48.1875 
Q 61.625 48.1875 57.5625 43.546875 
Q 53.515625 38.921875 53.515625 30.90625 
L 53.515625 0 
L 44.484375 0 
L 44.484375 32.71875 
Q 44.484375 40.625 41.703125 44.40625 
Q 38.921875 48.1875 33.109375 48.1875 
Q 26.21875 48.1875 22.15625 43.53125 
Q 18.109375 38.875 18.109375 30.90625 
L 18.109375 0 
L 9.078125 0 
L 9.078125 54.6875 
L 18.109375 54.6875 
L 18.109375 46.1875 
Q 21.1875 51.21875 25.484375 53.609375 
Q 29.78125 56 35.6875 56 
Q 41.65625 56 45.828125 52.96875 
Q 50 49.953125 52 44.1875 
" id="DejaVuSans-6d"/>
      <path d="M 18.109375 8.203125 
L 18.109375 -20.796875 
L 9.078125 -20.796875 
L 9.078125 54.6875 
L 18.109375 54.6875 
L 18.109375 46.390625 
Q 20.953125 51.265625 25.265625 53.625 
Q 29.59375 56 35.59375 56 
Q 45.5625 56 51.78125 48.09375 
Q 58.015625 40.1875 58.015625 27.296875 
Q 58.015625 14.40625 51.78125 6.484375 
Q 45.5625 -1.421875 35.59375 -1.421875 
Q 29.59375 -1.421875 25.265625 0.953125 
Q 20.953125 3.328125 18.109375 8.203125 
M 48.6875 27.296875 
Q 48.6875 37.203125 44.609375 42.84375 
Q 40.53125 48.484375 33.40625 48.484375 
Q 26.265625 48.484375 22.1875 42.84375 
Q 18.109375 37.203125 18.109375 27.296875 
Q 18.109375 17.390625 22.1875 11.75 
Q 26.265625 6.109375 33.40625 6.109375 
Q 40.53125 6.109375 44.609375 11.75 
Q 48.6875 17.390625 48.6875 27.296875 
" id="DejaVuSans-70"/>
      <path id="DejaVuSans-20"/>
     </defs>
     <g transform="translate(18.654687 168.793281)rotate(-90)scale(0.1 -0.1)">
      <use xlink:href="#DejaVuSans-50"/>
      <use x="60.271484" xlink:href="#DejaVuSans-69"/>
      <use x="88.054688" xlink:href="#DejaVuSans-63"/>
      <use x="143.035156" xlink:href="#DejaVuSans-6f"/>
      <use x="204.216797" xlink:href="#DejaVuSans-61"/>
      <use x="265.496094" xlink:href="#DejaVuSans-6d"/>
      <use x="362.908203" xlink:href="#DejaVuSans-70"/>
      <use x="426.384766" xlink:href="#DejaVuSans-73"/>
      <use x="478.484375" xlink:href="#DejaVuSans-20"/>
     </g>
    </g>
    <g id="text_16">
     <!-- 1e−9 -->
     <defs>
      <path d="M 10.59375 35.5 
L 73.1875 35.5 
L 73.1875 27.203125 
L 10.59375 27.203125 
z
" id="DejaVuSans-2212"/>
     </defs>
     <g transform="translate(54 31.56)scale(0.1 -0.1)">
      <use xlink:href="#DejaVuSans-31"/>
      <use x="63.623047" xlink:href="#DejaVuSans-65"/>
      <use x="125.146484" xlink:href="#DejaVuSans-2212"/>
      <use x="208.935547" xlink:href="#DejaVuSans-39"/>
     </g>
    </g>
   </g>
   <g id="line2d_14">
    <path clip-path="url(#p40121763a6)" d="M 69.218182 58.391605 
L 69.421226 58.215048 
L 69.624271 58.038492 
L 70.233404 58.215048 
L 71.654715 58.303327 
L 72.669938 58.65644 
L 72.872982 58.479883 
L 73.279071 58.391605 
L 73.482115 58.215048 
L 73.68516 58.215048 
L 73.888204 58.391605 
L 74.294293 58.303327 
L 74.700382 58.215048 
L 74.903427 58.303327 
L 75.106471 57.950213 
L 75.309515 58.038492 
L 75.51256 57.861935 
L 75.715604 57.950213 
L 75.918649 58.215048 
L 76.121693 58.12677 
L 76.324738 58.215048 
L 76.933871 58.038492 
L 77.746049 58.12677 
L 77.949093 58.303327 
L 78.152138 58.215048 
L 78.355182 57.950213 
L 78.558227 58.038492 
L 78.761271 57.950213 
L 78.964316 58.12677 
L 79.16736 58.038492 
L 79.370405 58.215048 
L 79.573449 58.12677 
L 79.776493 58.215048 
L 79.979538 58.038492 
L 80.588671 58.12677 
L 80.791716 58.303327 
L 81.197805 58.215048 
L 81.400849 58.215048 
L 81.603894 58.038492 
L 81.806938 58.215048 
L 83.431294 58.215048 
L 83.634338 57.773657 
L 83.837382 57.861935 
L 84.040427 57.773657 
L 84.243471 57.243987 
L 84.446516 58.215048 
L 84.64956 55.478422 
L 84.852605 59.804057 
L 85.055649 55.125308 
L 85.258694 57.420544 
L 85.461738 55.478422 
L 85.664783 55.654978 
L 85.867827 53.094908 
L 86.070871 57.155709 
L 86.273916 53.712856 
L 86.47696 57.685379 
L 86.680005 58.038492 
L 86.883049 59.892336 
L 87.086094 56.361204 
L 87.289138 60.775118 
L 87.492183 60.775118 
L 87.898272 58.568161 
L 88.101316 59.009553 
L 88.30436 60.68684 
L 88.710449 58.65644 
L 88.913494 59.892336 
L 89.116538 59.539222 
L 89.319583 59.450944 
L 89.522627 58.744718 
L 89.928716 59.274388 
L 90.334805 59.097831 
L 90.537849 58.479883 
L 90.740894 59.715779 
L 90.943938 58.303327 
L 91.146983 58.744718 
L 91.553072 58.391605 
L 91.756116 58.391605 
L 92.162205 58.65644 
L 92.568294 58.038492 
L 92.771338 58.568161 
L 92.974383 58.568161 
L 93.177427 58.391605 
L 93.380472 58.391605 
L 93.786561 58.65644 
L 93.989605 57.685379 
L 94.19265 58.303327 
L 94.395694 58.303327 
L 94.598739 58.65644 
L 94.801783 58.303327 
L 95.004827 58.479883 
L 95.207872 58.12677 
L 95.613961 58.568161 
L 95.817005 57.950213 
L 96.02005 58.12677 
L 96.223094 58.479883 
L 96.426139 58.038492 
L 96.629183 58.568161 
L 96.832228 57.950213 
L 97.035272 58.303327 
L 97.238316 57.773657 
L 97.441361 58.391605 
L 97.644405 57.950213 
L 97.84745 58.12677 
L 98.253539 57.155709 
L 98.456583 57.420544 
L 98.659628 58.038492 
L 98.862672 56.979152 
L 99.065717 57.773657 
L 99.268761 56.537761 
L 99.471805 56.802596 
L 99.67485 55.390143 
L 100.080939 57.067431 
L 100.487028 57.685379 
L 100.690072 55.390143 
L 100.893117 59.980614 
L 101.096161 58.12677 
L 101.50225 60.068892 
L 101.705294 67.572546 
L 101.908339 63.77658 
L 102.111383 62.805519 
L 102.314428 59.715779 
L 102.517472 59.009553 
L 102.720517 58.832996 
L 102.923561 58.921274 
L 103.126606 58.65644 
L 103.32965 58.921274 
L 103.532695 58.832996 
L 104.141828 59.186109 
L 104.344872 59.362666 
L 104.547917 59.186109 
L 104.750961 58.832996 
L 104.954006 58.832996 
L 105.360095 58.391605 
L 105.563139 58.391605 
L 105.766184 57.420544 
L 105.969228 57.950213 
L 106.172272 58.12677 
L 106.375317 57.950213 
L 106.781406 57.950213 
L 106.98445 58.12677 
L 107.187495 57.950213 
L 107.390539 58.12677 
L 107.593584 57.950213 
L 107.796628 58.303327 
L 107.999673 58.12677 
L 108.202717 58.568161 
L 108.405761 58.479883 
L 108.608806 58.65644 
L 108.81185 58.568161 
L 109.014895 58.921274 
L 109.217939 58.921274 
L 109.420984 59.186109 
L 109.624028 59.186109 
L 109.827073 58.921274 
L 110.030117 60.510284 
L 110.233162 60.422005 
L 110.436206 61.657901 
L 110.63925 60.951675 
L 110.842295 60.863397 
L 111.045339 59.274388 
L 111.248384 58.744718 
L 111.857517 50.005168 
L 112.060562 55.213587 
L 112.263606 57.508822 
L 112.46665 57.861935 
L 112.669695 57.950213 
L 112.872739 57.420544 
L 113.278828 57.155709 
L 113.481873 56.979152 
L 114.294051 59.097831 
L 114.497095 58.744718 
L 114.903184 59.450944 
L 115.106228 59.009553 
L 115.512317 59.009553 
L 115.715362 58.744718 
L 115.918406 58.12677 
L 116.121451 58.391605 
L 116.324495 57.5971 
L 116.52754 57.685379 
L 116.730584 55.654978 
L 116.933628 56.537761 
L 117.136673 53.183186 
L 117.339717 54.860474 
L 117.542762 53.624578 
L 117.745806 57.950213 
L 117.948851 68.190494 
L 118.151895 67.837381 
L 118.35494 64.659363 
L 118.557984 59.539222 
L 118.761029 59.362666 
L 118.964073 59.450944 
L 119.370162 60.15717 
L 119.573206 59.804057 
L 119.979295 58.568161 
L 120.18234 57.243987 
L 120.385384 57.950213 
L 120.588429 57.5971 
L 120.791473 57.773657 
L 120.994518 57.508822 
L 121.400606 58.215048 
L 121.806695 59.450944 
L 122.00974 58.568161 
L 122.415829 60.68684 
L 122.618873 60.775118 
L 122.821918 64.571084 
L 123.024962 61.657901 
L 123.228007 63.24691 
L 123.431051 55.478422 
L 123.634095 55.919813 
L 123.83714 45.767811 
L 124.243229 57.067431 
L 124.446273 57.685379 
L 124.649318 57.773657 
L 125.258451 56.979152 
L 125.461496 57.067431 
L 126.070629 59.274388 
L 126.273673 59.097831 
L 126.476718 59.274388 
L 126.679762 59.274388 
L 126.882807 59.097831 
L 127.085851 59.362666 
L 127.288896 59.097831 
L 127.694985 57.773657 
L 127.898029 58.038492 
L 128.101073 57.773657 
L 128.507162 56.361204 
L 128.710207 55.213587 
L 128.913251 53.271464 
L 129.116296 53.624578 
L 129.522385 58.568161 
L 129.725429 69.514668 
L 129.928474 68.367051 
L 130.334562 59.804057 
L 130.537607 59.362666 
L 130.740651 59.362666 
L 131.349785 59.892336 
L 131.552829 59.539222 
L 131.958918 57.773657 
L 132.161963 57.861935 
L 132.365007 57.773657 
L 132.568051 57.508822 
L 132.771096 57.773657 
L 132.97414 57.685379 
L 133.989363 59.274388 
L 134.192407 60.775118 
L 134.395452 60.068892 
L 134.598496 62.893797 
L 134.80154 62.452406 
L 135.004585 64.747641 
L 135.207629 56.979152 
L 135.410674 58.568161 
L 135.613718 44.443636 
L 135.816763 53.712856 
L 136.019807 53.889412 
L 136.222852 57.861935 
L 136.831985 57.243987 
L 137.035029 56.802596 
L 137.238074 57.067431 
L 137.644163 59.539222 
L 137.847207 58.744718 
L 138.050252 59.362666 
L 138.253296 59.539222 
L 138.456341 59.362666 
L 138.659385 59.362666 
L 138.862429 59.097831 
L 139.268518 57.861935 
L 139.471563 57.332265 
L 139.674607 57.332265 
L 140.283741 52.741795 
L 140.486785 56.184648 
L 140.68983 52.830073 
L 140.892874 65.718702 
L 141.095918 69.42639 
L 141.298963 66.601485 
L 141.502007 59.804057 
L 141.705052 59.097831 
L 141.908096 59.715779 
L 142.111141 59.715779 
L 142.314185 60.068892 
L 142.51723 59.804057 
L 143.126363 57.332265 
L 143.329407 57.685379 
L 143.735496 57.5971 
L 144.141585 58.038492 
L 144.953763 59.980614 
L 145.359852 62.893797 
L 145.562896 63.335189 
L 145.765941 62.099293 
L 146.375074 45.149863 
L 146.578119 54.50736 
L 146.781163 57.508822 
L 146.984208 57.420544 
L 147.593341 56.626039 
L 148.202474 59.362666 
L 148.405519 59.186109 
L 148.608563 59.362666 
L 149.014652 59.274388 
L 149.217697 58.921274 
L 149.623786 57.508822 
L 149.82683 57.861935 
L 150.029874 56.096369 
L 150.232919 55.831535 
L 150.435963 51.682455 
L 150.639008 55.831535 
L 150.842052 52.565238 
L 151.451186 72.957521 
L 151.65423 61.304788 
L 151.857275 59.274388 
L 152.263363 59.450944 
L 152.669452 60.068892 
L 152.872497 59.892336 
L 153.48163 57.243987 
L 153.684675 57.773657 
L 153.887719 57.685379 
L 154.090764 57.861935 
L 154.293808 57.773657 
L 154.496852 57.861935 
L 155.715119 60.863397 
L 155.918164 62.893797 
L 156.121208 62.364127 
L 156.324253 63.953137 
L 156.933386 50.534838 
L 157.13643 48.769272 
L 157.339475 56.008091 
L 157.542519 57.685379 
L 157.948608 57.420544 
L 158.354697 56.890874 
L 158.557742 57.067431 
L 158.760786 57.950213 
L 158.96383 59.362666 
L 159.166875 58.832996 
L 159.572964 59.362666 
L 160.182097 58.832996 
L 160.385142 59.097831 
L 160.588186 58.12677 
L 160.791231 58.303327 
L 160.994275 57.685379 
L 161.400364 57.243987 
L 161.806453 54.595639 
L 162.009497 54.50736 
L 162.212542 55.743256 
L 162.415586 57.685379 
L 162.618631 53.271464 
L 163.02472 66.954598 
L 163.227764 67.925659 
L 163.430808 62.187571 
L 163.836897 58.921274 
L 164.242986 59.009553 
L 165.055164 59.274388 
L 165.461253 59.274388 
L 165.664297 59.009553 
L 165.867342 58.391605 
L 166.070386 58.65644 
L 166.273431 57.773657 
L 166.476475 57.773657 
L 166.67952 58.215048 
L 166.882564 57.950213 
L 168.303875 57.861935 
L 168.50692 58.215048 
L 168.709964 58.038492 
L 168.913009 58.215048 
L 169.116053 58.568161 
L 169.319098 58.215048 
L 169.928231 58.65644 
L 170.131275 58.65644 
L 170.33432 58.832996 
L 170.537364 58.303327 
L 170.943453 58.832996 
L 171.349542 58.744718 
L 171.755631 59.450944 
L 171.958675 58.65644 
L 172.16172 58.568161 
L 172.364764 59.804057 
L 172.567809 59.009553 
L 172.770853 59.804057 
L 172.973898 59.009553 
L 173.176942 60.068892 
L 173.379987 59.539222 
L 173.583031 60.598562 
L 173.786076 58.744718 
L 173.98912 59.892336 
L 174.192164 60.245449 
L 174.395209 61.393066 
L 174.598253 57.420544 
L 174.801298 59.980614 
L 175.004342 56.449483 
L 175.207387 57.420544 
L 175.410431 56.272926 
L 175.613476 58.744718 
L 176.019565 54.595639 
L 176.222609 55.390143 
L 176.425653 55.301865 
L 176.628698 56.979152 
L 176.831742 55.743256 
L 177.034787 55.390143 
L 177.237831 59.097831 
L 177.440876 55.831535 
L 177.64392 57.861935 
L 178.050009 58.12677 
L 178.253054 58.303327 
L 178.456098 58.303327 
L 178.659142 58.12677 
L 178.862187 58.303327 
L 179.065231 58.215048 
L 179.268276 58.303327 
L 179.674365 58.215048 
L 179.877409 58.303327 
L 180.080454 58.215048 
L 180.486543 58.391605 
L 180.892631 58.303327 
L 181.095676 58.391605 
L 181.29872 58.303327 
L 181.501765 58.391605 
L 181.704809 58.215048 
L 181.907854 58.391605 
L 182.110898 58.215048 
L 182.313943 58.479883 
L 182.923076 58.303327 
L 183.329165 58.303327 
L 183.532209 58.12677 
L 184.141343 58.303327 
L 184.547432 58.215048 
L 184.953521 58.12677 
L 185.156565 58.391605 
L 185.359609 58.215048 
L 186.374832 58.215048 
L 186.577876 58.038492 
L 186.780921 58.303327 
L 186.983965 58.215048 
L 187.18701 58.303327 
L 187.593098 58.215048 
L 187.796143 58.391605 
L 187.999187 58.12677 
L 188.405276 58.215048 
L 188.811365 57.861935 
L 189.01441 57.773657 
L 190.232676 58.391605 
L 190.435721 58.215048 
L 190.638765 58.568161 
L 190.84181 59.186109 
L 191.044854 58.65644 
L 191.450943 58.568161 
L 191.653988 58.832996 
L 192.060076 58.921274 
L 192.263121 59.009553 
L 192.466165 58.832996 
L 192.66921 59.009553 
L 192.872254 58.479883 
L 193.075299 59.274388 
L 193.481388 58.391605 
L 193.684432 58.215048 
L 193.887476 57.861935 
L 194.090521 58.12677 
L 194.293565 57.155709 
L 194.49661 57.773657 
L 194.699654 56.537761 
L 194.902699 56.979152 
L 195.105743 54.860474 
L 195.308788 55.478422 
L 195.511832 55.213587 
L 195.714877 57.155709 
L 195.917921 55.743256 
L 196.120965 62.364127 
L 196.32401 59.804057 
L 196.527054 70.485729 
L 196.933143 60.333727 
L 197.136188 59.009553 
L 197.542277 59.274388 
L 197.948366 59.539222 
L 198.15141 59.980614 
L 198.354454 59.804057 
L 198.963588 57.420544 
L 199.166632 58.038492 
L 199.775766 57.5971 
L 199.97881 57.773657 
L 200.181855 58.12677 
L 200.384899 58.215048 
L 200.790988 59.362666 
L 200.994032 59.715779 
L 201.197077 61.393066 
L 201.400121 60.245449 
L 201.603166 62.364127 
L 201.80621 62.452406 
L 202.009255 62.275849 
L 202.212299 60.68684 
L 202.618388 46.209202 
L 203.024477 57.067431 
L 203.227521 57.773657 
L 203.836655 57.067431 
L 204.039699 56.979152 
L 204.445788 58.215048 
L 204.648833 59.627501 
L 204.851877 58.921274 
L 205.257966 59.274388 
L 205.664055 59.362666 
L 205.867099 59.450944 
L 206.070144 58.303327 
L 206.273188 58.215048 
L 206.679277 57.773657 
L 207.28841 55.654978 
L 207.491455 53.801134 
L 207.694499 53.889412 
L 208.100588 57.420544 
L 208.506677 69.95606 
L 208.912766 60.333727 
L 209.115811 59.186109 
L 209.521899 59.539222 
L 209.724944 59.715779 
L 209.927988 59.715779 
L 210.131033 59.892336 
L 210.334077 59.539222 
L 210.740166 58.568161 
L 210.943211 57.243987 
L 211.146255 58.038492 
L 211.3493 57.773657 
L 211.552344 57.861935 
L 211.755388 57.685379 
L 212.161477 58.12677 
L 212.364522 58.832996 
L 212.567566 59.097831 
L 212.770611 59.097831 
L 213.582789 62.452406 
L 213.785833 62.628962 
L 214.191922 60.68684 
L 214.394966 48.945829 
L 214.598011 48.327881 
L 215.0041 56.890874 
L 215.207144 57.5971 
L 215.613233 57.332265 
L 215.816278 57.155709 
L 216.019322 56.802596 
L 216.425411 57.685379 
L 216.628455 58.391605 
L 216.8315 59.627501 
L 217.034544 58.921274 
L 217.440633 59.274388 
L 217.643678 58.921274 
L 217.846722 59.274388 
L 218.049767 59.009553 
L 218.252811 58.479883 
L 218.455855 59.186109 
L 218.6589 57.685379 
L 218.861944 57.950213 
L 219.268033 57.508822 
L 219.674122 56.096369 
L 219.877167 55.390143 
L 220.080211 55.390143 
L 220.283256 54.242526 
L 220.4863 57.950213 
L 220.689344 56.626039 
L 220.892389 61.304788 
L 221.095433 61.481345 
L 221.298478 66.160094 
L 221.501522 66.954598 
L 221.704567 60.863397 
L 221.907611 59.274388 
L 222.110656 59.009553 
L 222.922833 59.450944 
L 223.125878 59.627501 
L 223.328922 59.627501 
L 223.938056 58.568161 
L 224.1411 57.420544 
L 224.344145 58.303327 
L 224.547189 57.861935 
L 224.750233 57.773657 
L 224.953278 57.950213 
L 225.359367 57.950213 
L 225.765456 58.215048 
L 225.9685 58.65644 
L 226.374589 58.744718 
L 226.780678 58.832996 
L 227.186767 60.422005 
L 227.389811 60.333727 
L 227.592856 61.657901 
L 227.7959 60.863397 
L 227.998945 62.275849 
L 228.201989 60.422005 
L 228.405034 62.187571 
L 228.608078 56.979152 
L 228.811123 57.861935 
L 229.014167 48.680994 
L 229.217211 50.181725 
L 229.420256 55.03703 
L 229.826345 57.950213 
L 230.029389 58.12677 
L 230.232434 58.12677 
L 230.435478 57.773657 
L 230.638523 57.861935 
L 231.247656 57.332265 
L 231.653745 58.12677 
L 231.856789 58.12677 
L 232.059834 59.450944 
L 232.262878 58.832996 
L 232.465923 58.65644 
L 232.668967 59.097831 
L 233.075056 59.274388 
L 233.278101 59.009553 
L 233.684189 59.274388 
L 233.887234 58.832996 
L 234.090278 58.832996 
L 234.293323 58.568161 
L 234.496367 58.744718 
L 234.699412 58.391605 
L 234.902456 58.65644 
L 235.105501 58.038492 
L 235.51159 58.303327 
L 235.714634 58.12677 
L 235.917678 57.5971 
L 236.120723 57.685379 
L 236.323767 57.508822 
L 236.932901 54.50736 
L 237.135945 57.685379 
L 237.33899 55.831535 
L 237.542034 57.420544 
L 237.745079 55.919813 
L 237.948123 60.15717 
L 238.151167 61.039953 
L 238.354212 63.070354 
L 238.557256 58.744718 
L 238.760301 67.660824 
L 238.963345 59.186109 
L 239.16639 64.217971 
L 239.572479 59.362666 
L 239.978568 58.744718 
L 240.181612 58.832996 
L 240.384656 58.65644 
L 240.587701 58.921274 
L 241.196834 59.009553 
L 241.602923 59.097831 
L 242.009012 59.009553 
L 242.82119 58.921274 
L 243.024234 58.832996 
L 243.227279 59.097831 
L 243.430323 59.009553 
L 243.633368 59.186109 
L 244.039457 58.921274 
L 244.851634 58.832996 
L 245.257723 58.568161 
L 245.460768 58.832996 
L 246.069901 57.950213 
L 246.272946 58.65644 
L 246.47599 58.479883 
L 246.679035 58.479883 
L 246.882079 58.303327 
L 247.085123 58.303327 
L 247.288168 58.038492 
L 247.491212 58.303327 
L 247.694257 58.215048 
L 247.897301 58.303327 
L 248.100346 58.12677 
L 248.30339 58.303327 
L 248.709479 58.215048 
L 248.912524 58.215048 
L 249.115568 58.65644 
L 249.318612 58.215048 
L 249.521657 58.744718 
L 249.724701 58.744718 
L 249.927746 59.009553 
L 250.13079 58.744718 
L 250.536879 58.744718 
L 250.739924 59.892336 
L 250.942968 59.274388 
L 251.146012 59.186109 
L 251.755146 61.21651 
L 251.95819 61.834458 
L 252.161235 60.951675 
L 252.364279 61.657901 
L 252.567324 60.598562 
L 253.176457 54.242526 
L 253.379501 56.272926 
L 253.582546 52.123847 
L 253.78559 51.94729 
L 254.191679 57.685379 
L 254.394724 58.12677 
L 254.800813 58.038492 
L 255.206902 57.773657 
L 255.409946 57.861935 
L 256.019079 57.508822 
L 256.222124 57.685379 
L 256.425168 58.038492 
L 256.628213 58.65644 
L 256.831257 58.568161 
L 257.034302 59.450944 
L 257.237346 58.832996 
L 257.643435 58.832996 
L 257.846479 59.186109 
L 258.252568 58.921274 
L 258.455613 59.186109 
L 258.658657 58.744718 
L 258.861702 58.921274 
L 259.267791 58.479883 
L 259.470835 58.479883 
L 259.67388 58.038492 
L 259.876924 58.568161 
L 260.079968 57.773657 
L 260.486057 58.65644 
L 260.689102 57.861935 
L 260.892146 57.5971 
L 261.095191 57.773657 
L 261.298235 57.067431 
L 261.50128 57.332265 
L 261.704324 55.213587 
L 261.907369 55.831535 
L 262.110413 55.654978 
L 262.313457 57.773657 
L 262.516502 55.125308 
L 262.922591 59.362666 
L 263.125635 57.508822 
L 263.32868 62.364127 
L 263.531724 62.540684 
L 263.734769 65.80698 
L 263.937813 59.892336 
L 264.140858 63.24691 
L 264.343902 62.893797 
L 264.546946 59.450944 
L 264.953035 58.744718 
L 265.359124 58.65644 
L 265.562169 59.009553 
L 265.765213 58.832996 
L 267.389569 58.744718 
L 267.795658 58.568161 
L 268.201747 58.65644 
L 268.404791 58.568161 
L 269.013924 58.744718 
L 269.216969 58.744718 
L 269.420013 58.568161 
L 269.623058 58.744718 
L 269.826102 58.744718 
L 270.029147 58.568161 
L 270.232191 58.744718 
L 270.435236 58.568161 
L 270.841325 58.65644 
L 271.653502 58.568161 
L 271.856547 58.832996 
L 272.059591 58.479883 
L 272.262636 58.568161 
L 272.46568 58.479883 
L 272.668725 58.744718 
L 273.074814 58.65644 
L 273.886991 58.568161 
L 274.090036 58.391605 
L 274.496125 58.65644 
L 274.902214 58.568161 
L 275.105258 58.568161 
L 275.308303 58.744718 
L 275.511347 58.479883 
L 276.323525 58.921274 
L 276.526569 58.744718 
L 276.729614 58.921274 
L 276.932658 58.568161 
L 277.135703 58.744718 
L 277.338747 58.744718 
L 277.744836 58.479883 
L 278.353969 58.744718 
L 278.557014 58.479883 
L 278.760058 58.568161 
L 278.963103 58.391605 
L 279.369192 58.479883 
L 279.77528 58.568161 
L 279.978325 58.65644 
L 280.384414 58.568161 
L 280.587458 58.744718 
L 281.196592 58.568161 
L 281.602681 58.65644 
L 281.805725 58.568161 
L 282.211814 58.744718 
L 282.414858 58.568161 
L 283.023992 58.479883 
L 283.227036 58.744718 
L 283.430081 58.479883 
L 283.83617 58.65644 
L 284.242258 58.568161 
L 284.445303 58.65644 
L 284.851392 58.391605 
L 285.257481 58.479883 
L 285.460525 58.303327 
L 285.66357 58.479883 
L 286.069659 58.479883 
L 286.272703 58.65644 
L 286.678792 58.479883 
L 286.881836 58.65644 
L 287.084881 58.568161 
L 287.287925 58.65644 
L 287.49097 58.479883 
L 287.897059 58.744718 
L 288.100103 58.832996 
L 288.709236 58.479883 
L 289.115325 58.12677 
L 289.521414 58.65644 
L 289.724459 58.479883 
L 289.927503 58.744718 
L 290.130548 58.568161 
L 290.333592 58.744718 
L 290.739681 58.65644 
L 291.14577 58.568161 
L 291.754903 58.65644 
L 291.957948 58.391605 
L 292.567081 58.65644 
L 292.770126 58.303327 
L 292.97317 58.832996 
L 293.176214 58.568161 
L 293.785348 58.479883 
L 293.988392 58.303327 
L 294.191437 58.744718 
L 294.394481 58.391605 
L 294.597526 58.832996 
L 294.80057 58.65644 
L 295.003615 58.303327 
L 295.206659 58.921274 
L 295.815792 58.744718 
L 296.018837 58.921274 
L 296.221881 58.921274 
L 296.424926 58.65644 
L 296.62797 58.65644 
L 296.831015 58.391605 
L 297.034059 58.744718 
L 297.440148 58.921274 
L 297.643192 58.65644 
L 297.846237 59.097831 
L 298.049281 58.921274 
L 298.252326 59.097831 
L 298.45537 58.744718 
L 298.658415 59.539222 
L 299.064504 58.479883 
L 299.267548 59.009553 
L 299.470593 58.921274 
L 299.673637 59.274388 
L 299.876681 58.215048 
L 300.079726 59.715779 
L 300.28277 59.009553 
L 300.688859 58.65644 
L 300.891904 59.980614 
L 301.297993 58.568161 
L 301.501037 59.892336 
L 301.704082 58.921274 
L 301.907126 58.921274 
L 302.11017 60.068892 
L 302.313215 59.274388 
L 302.516259 59.186109 
L 302.719304 60.422005 
L 302.922348 59.539222 
L 303.125393 60.598562 
L 303.328437 58.568161 
L 303.531482 62.893797 
L 303.734526 57.155709 
L 303.937571 59.892336 
L 304.140615 59.186109 
L 304.343659 61.746179 
L 304.546704 56.361204 
L 304.749748 56.714317 
L 304.952793 57.508822 
L 305.155837 56.890874 
L 305.358882 52.565238 
L 305.561926 59.715779 
L 305.764971 52.653517 
L 306.171059 56.361204 
L 306.983237 58.303327 
L 307.389326 58.479883 
L 307.795415 58.391605 
L 307.99846 58.391605 
L 308.201504 58.215048 
L 310.434993 58.215048 
L 310.638037 58.038492 
L 311.450215 58.65644 
L 311.856304 58.303327 
L 312.262393 59.274388 
L 312.465438 58.832996 
L 312.668482 58.921274 
L 313.277615 58.744718 
L 313.48066 59.009553 
L 313.683704 58.921274 
L 313.886749 59.097831 
L 314.698927 58.832996 
L 315.511104 59.274388 
L 315.714149 58.479883 
L 316.323282 59.097831 
L 316.526327 57.861935 
L 316.932416 58.832996 
L 317.13546 58.391605 
L 317.338504 58.568161 
L 317.541549 57.685379 
L 317.744593 58.921274 
L 317.947638 57.420544 
L 318.150682 58.391605 
L 318.556771 57.243987 
L 318.759816 57.420544 
L 319.165905 56.802596 
L 319.368949 55.919813 
L 319.571993 56.272926 
L 319.775038 58.038492 
L 319.978082 55.919813 
L 320.384171 58.391605 
L 320.587216 57.5971 
L 320.79026 64.571084 
L 320.993305 63.158632 
L 321.196349 63.24691 
L 321.602438 64.659363 
L 321.805482 60.245449 
L 322.008527 59.539222 
L 322.61766 59.097831 
L 323.023749 59.450944 
L 323.226794 59.362666 
L 323.429838 59.450944 
L 323.632883 59.715779 
L 323.835927 59.627501 
L 324.038971 59.715779 
L 324.851149 58.744718 
L 325.054194 58.65644 
L 325.257238 57.773657 
L 325.460283 58.568161 
L 325.866372 58.12677 
L 326.069416 58.038492 
L 326.27246 58.303327 
L 326.475505 58.12677 
L 326.678549 58.215048 
L 326.881594 58.038492 
L 327.084638 58.65644 
L 327.287683 58.303327 
L 327.490727 59.274388 
L 327.693772 58.921274 
L 328.099861 58.921274 
L 328.302905 60.068892 
L 328.505949 59.186109 
L 328.708994 60.598562 
L 328.912038 59.892336 
L 329.115083 62.628962 
L 329.521172 61.128232 
L 329.724216 62.099293 
L 329.927261 61.569623 
L 330.130305 56.626039 
L 330.33335 60.510284 
L 330.536394 51.594177 
L 330.739438 49.740333 
L 331.145527 54.948752 
L 331.348572 57.5971 
L 331.551616 58.12677 
L 332.363794 58.038492 
L 332.972927 57.508822 
L 333.175972 57.5971 
L 333.582061 58.215048 
L 333.98815 58.65644 
L 334.191194 59.715779 
L 334.394239 58.744718 
L 335.003372 59.274388 
L 335.206416 59.097831 
L 335.81555 59.362666 
L 336.221639 59.097831 
L 337.236861 58.12677 
L 337.439905 58.479883 
L 337.64295 57.861935 
L 337.845994 58.303327 
L 338.049039 57.5971 
L 338.252083 57.685379 
L 338.455128 56.802596 
L 338.658172 57.155709 
L 338.861217 55.654978 
L 339.064261 56.272926 
L 339.267305 54.065969 
L 339.47035 56.890874 
L 339.673394 57.067431 
L 339.876439 57.773657 
L 340.079483 56.096369 
L 340.282528 61.21651 
L 340.485572 70.397451 
L 340.688617 63.600023 
L 340.891661 65.189032 
L 341.29775 59.539222 
L 341.500794 59.186109 
L 341.906883 59.097831 
L 342.516017 59.539222 
L 343.12515 59.362666 
L 343.531239 59.450944 
L 343.734283 59.097831 
L 343.937328 59.097831 
L 344.140372 58.65644 
L 344.546461 58.65644 
L 344.749506 57.685379 
L 344.95255 58.303327 
L 345.358639 58.391605 
L 345.561684 58.303327 
L 345.764728 58.038492 
L 346.170817 58.391605 
L 346.77995 58.215048 
L 346.982995 58.479883 
L 347.186039 57.861935 
L 347.389084 58.832996 
L 347.592128 58.215048 
L 347.795173 58.832996 
L 348.201261 58.568161 
L 348.810395 59.009553 
L 349.013439 58.568161 
L 349.216484 58.744718 
L 349.419528 59.186109 
L 349.622573 58.479883 
L 349.825617 59.097831 
L 350.028662 58.832996 
L 350.231706 59.450944 
L 350.43475 59.186109 
L 350.637795 59.627501 
L 350.840839 59.274388 
L 351.043884 59.450944 
L 351.246928 60.598562 
L 351.449973 59.097831 
L 351.856062 60.775118 
L 352.059106 59.274388 
L 352.262151 59.627501 
L 352.465195 58.921274 
L 352.668239 60.068892 
L 352.871284 55.919813 
L 353.074328 58.921274 
L 353.480417 61.128232 
L 353.683462 59.804057 
L 354.089551 59.097831 
L 354.292595 61.481345 
L 354.698684 59.274388 
L 354.901728 61.304788 
L 355.104773 58.303327 
L 355.307817 59.892336 
L 355.510862 55.213587 
L 355.713906 62.540684 
L 355.916951 53.712856 
L 356.119995 57.5971 
L 356.32304 52.035569 
L 356.526084 56.626039 
L 356.729129 53.448021 
L 356.932173 54.50736 
L 357.135217 56.890874 
L 357.338262 55.919813 
L 357.541306 57.685379 
L 358.15044 58.568161 
L 358.353484 58.568161 
L 358.556529 58.744718 
L 358.962618 58.65644 
L 359.165662 58.568161 
L 359.368706 58.65644 
L 359.571751 58.479883 
L 359.774795 58.744718 
L 359.97784 58.568161 
L 360.383929 58.65644 
L 360.586973 58.921274 
L 360.790018 58.568161 
L 360.993062 58.744718 
L 361.196106 58.568161 
L 361.602195 58.65644 
L 362.008284 58.568161 
L 362.211329 58.832996 
L 362.414373 58.744718 
L 362.617418 58.832996 
L 362.820462 58.568161 
L 363.226551 58.921274 
L 363.63264 58.744718 
L 363.835684 58.832996 
L 364.241773 58.744718 
L 364.444818 58.832996 
L 364.647862 58.744718 
L 365.053951 58.832996 
L 365.256996 58.832996 
L 365.663084 59.274388 
L 365.866129 59.804057 
L 366.678307 66.954598 
L 366.881351 65.630424 
L 367.084396 55.478422 
L 367.28744 61.657901 
L 367.490485 60.068892 
L 367.693529 56.096369 
L 368.099618 55.125308 
L 368.505707 57.861935 
L 368.708751 55.125308 
L 368.911796 57.5971 
L 369.11484 56.626039 
L 369.317885 58.215048 
L 369.520929 57.067431 
L 369.723974 58.303327 
L 369.927018 57.773657 
L 370.130062 58.215048 
L 370.333107 58.12677 
L 370.536151 58.479883 
L 370.739196 58.479883 
L 370.94224 58.215048 
L 371.145285 58.391605 
L 371.348329 59.009553 
L 371.551374 58.391605 
L 371.754418 58.921274 
L 371.957463 58.303327 
L 372.160507 58.921274 
L 372.363551 59.009553 
L 372.566596 58.744718 
L 372.972685 59.097831 
L 373.175729 59.274388 
L 373.581818 59.186109 
L 373.581818 59.186109 
" style="fill:none;stroke:#ff0000;stroke-linecap:square;stroke-width:1.5;"/>
   </g>
   <g id="line2d_15">
    <path clip-path="url(#p40121763a6)" d="M 69.218182 222.262578 
L 69.624271 221.935949 
L 69.827315 222.156644 
L 70.03036 222.112505 
L 70.233404 222.289062 
L 70.436449 222.244923 
L 70.842537 222.006571 
L 71.045582 222.191956 
L 71.248626 222.041882 
L 71.451671 222.218439 
L 72.060804 222.165472 
L 72.263849 222.271406 
L 72.669938 222.209611 
L 72.872982 222.041882 
L 73.076026 222.094849 
L 73.482115 221.741736 
L 73.68516 221.944776 
L 73.888204 221.953604 
L 74.091249 221.785875 
L 74.294293 221.918293 
L 74.700382 221.830015 
L 74.903427 221.794703 
L 75.309515 221.538696 
L 75.51256 221.415107 
L 76.121693 221.662286 
L 76.324738 221.679942 
L 76.527782 221.865326 
L 76.730827 221.512213 
L 77.136916 221.600491 
L 77.33996 221.777048 
L 78.152138 221.874154 
L 78.355182 221.582835 
L 78.558227 221.750564 
L 78.761271 221.697597 
L 78.964316 221.794703 
L 79.16736 221.485729 
L 79.370405 221.794703 
L 79.573449 221.76822 
L 79.776493 221.891809 
L 79.979538 221.662286 
L 80.182582 221.635802 
L 80.588671 221.785875 
L 80.791716 221.874154 
L 80.99476 221.741736 
L 81.400849 221.97126 
L 81.603894 221.891809 
L 81.806938 222.094849 
L 82.213027 222.015399 
L 82.416071 221.988916 
L 82.619116 221.830015 
L 82.82216 222.059538 
L 83.431294 221.944776 
L 83.634338 221.618147 
L 84.040427 221.503385 
L 84.243471 220.75302 
L 84.446516 221.759392 
L 84.64956 217.778042 
L 84.852605 224.372429 
L 85.055649 217.513207 
L 85.258694 220.903093 
L 85.461738 218.334195 
L 85.664783 218.343023 
L 85.867827 214.705957 
L 86.070871 220.196866 
L 86.273916 215.553429 
L 86.47696 221.176755 
L 86.680005 221.64463 
L 86.883049 224.284151 
L 87.086094 219.384706 
L 87.289138 225.520047 
L 87.492183 225.405285 
L 87.898272 222.492102 
L 88.101316 222.862871 
L 88.30436 225.46708 
L 88.710449 222.492102 
L 88.913494 224.398913 
L 89.522627 222.651003 
L 89.725672 223.092394 
L 89.928716 223.136533 
L 90.131761 222.862871 
L 90.334805 223.11005 
L 90.537849 222.403823 
L 90.740894 223.851587 
L 90.943938 222.121333 
L 91.146983 222.553897 
L 91.350027 222.403823 
L 91.553072 222.465618 
L 91.959161 222.244923 
L 92.162205 222.439135 
L 92.568294 221.582835 
L 92.771338 222.350856 
L 93.177427 222.236095 
L 93.380472 221.935949 
L 93.583516 222.571552 
L 93.786561 222.615691 
L 93.989605 221.23855 
L 94.19265 222.121333 
L 94.395694 221.962432 
L 94.598739 222.571552 
L 94.801783 222.015399 
L 95.004827 222.130161 
L 95.207872 221.891809 
L 95.410916 221.980088 
L 95.613961 222.447963 
L 95.817005 221.741736 
L 96.02005 221.803531 
L 96.223094 222.306717 
L 96.426139 221.415107 
L 96.629183 222.25375 
L 96.832228 221.379795 
L 97.035272 222.059538 
L 97.238316 221.185583 
L 97.441361 222.015399 
L 97.644405 221.485729 
L 97.84745 221.785875 
L 98.050494 221.23855 
L 98.253539 220.346939 
L 98.659628 221.574008 
L 98.862672 220.055621 
L 99.065717 221.194411 
L 99.268761 219.728992 
L 99.471805 219.967343 
L 99.67485 218.034049 
L 100.080939 220.461701 
L 100.283983 220.70888 
L 100.487028 221.229722 
L 100.690072 218.157638 
L 100.893117 224.372429 
L 101.096161 222.015399 
L 101.50225 224.584297 
L 101.705294 234.771611 
L 101.908339 229.377808 
L 102.111383 228.15074 
L 102.314428 223.92221 
L 102.517472 222.959977 
L 102.923561 222.695142 
L 103.126606 222.509757 
L 103.32965 222.854043 
L 103.938783 222.98646 
L 104.141828 222.933493 
L 104.344872 223.136533 
L 104.547917 223.065911 
L 104.750961 222.792248 
L 104.954006 222.739281 
L 105.360095 222.191956 
L 105.563139 222.138989 
L 105.766184 221.123788 
L 106.172272 221.750564 
L 106.375317 221.326828 
L 106.578361 221.503385 
L 106.781406 221.459246 
L 106.98445 221.750564 
L 107.187495 221.36214 
L 107.390539 221.547524 
L 107.593584 221.300345 
L 107.796628 221.882982 
L 107.999673 221.521041 
L 108.202717 222.024227 
L 108.608806 222.350856 
L 108.81185 222.086022 
L 109.014895 222.58038 
L 109.217939 222.589208 
L 109.624028 223.154189 
L 109.827073 222.748109 
L 110.030117 224.981549 
L 110.233162 224.637264 
L 110.436206 226.429313 
L 110.63925 225.54653 
L 110.842295 225.440596 
L 111.045339 223.374885 
L 111.248384 222.642175 
L 111.857517 210.212593 
L 112.060562 217.680935 
L 112.263606 220.973715 
L 112.46665 221.423935 
L 112.669695 221.485729 
L 112.872739 220.726536 
L 113.075784 220.850126 
L 113.481873 220.373423 
L 113.684917 220.779503 
L 114.294051 222.642175 
L 114.497095 222.65983 
L 114.700139 222.933493 
L 114.903184 223.51613 
L 115.106228 222.880526 
L 115.309273 222.854043 
L 115.512317 223.048255 
L 115.918406 221.591663 
L 116.121451 221.64463 
L 116.324495 220.75302 
L 116.52754 220.867781 
L 116.730584 218.378334 
L 116.933628 219.561263 
L 117.136673 214.90017 
L 117.339717 217.248372 
L 117.542762 215.323905 
L 117.745806 221.291517 
L 117.948851 235.416042 
L 118.151895 234.992306 
L 118.35494 230.896194 
L 118.557984 223.445507 
L 118.761029 223.198328 
L 119.370162 224.151733 
L 119.573206 224.107594 
L 119.979295 222.45679 
L 120.18234 220.814814 
L 120.385384 221.291517 
L 120.588429 220.735364 
L 120.791473 221.053166 
L 120.994518 220.726536 
L 121.400606 221.56518 
L 121.806695 223.657375 
L 122.00974 222.138989 
L 122.415829 225.105139 
L 122.618873 225.308179 
L 122.821918 230.172312 
L 123.024962 226.588214 
L 123.228007 228.865794 
L 123.431051 217.94577 
L 123.634095 218.413645 
L 123.83714 204.439193 
L 124.243229 220.735364 
L 124.446273 221.079649 
L 124.649318 221.026682 
L 125.258451 220.055621 
L 125.461496 220.338112 
L 126.070629 222.686314 
L 126.273673 222.801076 
L 126.476718 223.11005 
L 126.679762 223.215984 
L 126.882807 222.836387 
L 127.085851 223.163017 
L 127.288896 222.818731 
L 127.694985 221.026682 
L 127.898029 221.494557 
L 128.101073 221.061994 
L 128.710207 217.689763 
L 128.913251 214.626507 
L 129.116296 215.288594 
L 129.522385 222.094849 
L 129.725429 237.216919 
L 129.928474 235.822122 
L 130.334562 223.524958 
L 130.537607 223.207156 
L 130.740651 223.31309 
L 131.14674 223.816276 
L 131.349785 224.019316 
L 131.552829 223.657375 
L 131.958918 221.344484 
L 132.161963 221.335656 
L 132.568051 220.797159 
L 132.771096 221.070821 
L 132.97414 221.000199 
L 133.989363 223.065911 
L 134.192407 225.272868 
L 134.395452 224.284151 
L 134.598496 228.336124 
L 134.80154 227.647553 
L 135.004585 231.019784 
L 135.207629 220.037966 
L 135.410674 222.509757 
L 135.613718 202.74425 
L 135.816763 215.518118 
L 136.019807 215.668191 
L 136.222852 221.123788 
L 137.035029 219.914376 
L 137.238074 220.311628 
L 137.644163 222.98646 
L 137.847207 222.562724 
L 138.050252 223.286606 
L 138.456341 223.410196 
L 138.659385 223.366057 
L 139.065474 222.138989 
L 139.471563 220.62943 
L 139.674607 220.691225 
L 140.283741 214.158632 
L 140.486785 219.172838 
L 140.68983 214.291049 
L 140.892874 232.026156 
L 141.095918 237.137469 
L 141.298963 233.791722 
L 141.502007 223.851587 
L 141.705052 223.260123 
L 141.908096 223.895726 
L 142.111141 224.045799 
L 142.314185 224.513674 
L 142.51723 224.195873 
L 143.126363 220.95606 
L 143.329407 221.088477 
L 143.532452 220.91192 
L 143.938541 220.964887 
L 144.953763 224.434224 
L 145.359852 228.274329 
L 145.562896 228.936416 
L 145.765941 227.206162 
L 146.375074 204.130219 
L 146.578119 216.868775 
L 146.781163 221.017854 
L 147.593341 219.843753 
L 147.796385 220.576463 
L 148.202474 223.198328 
L 148.405519 223.224811 
L 148.608563 223.577925 
L 149.014652 223.374885 
L 149.217697 222.898182 
L 149.623786 220.761847 
L 149.82683 221.300345 
L 150.029874 218.996282 
L 150.232919 218.660824 
L 150.435963 212.70204 
L 150.639008 218.749103 
L 150.842052 214.379328 
L 151.451186 242.116364 
L 151.65423 225.820193 
L 151.857275 223.251295 
L 152.060319 223.419024 
L 152.466408 224.098766 
L 152.669452 224.266495 
L 152.872497 223.992833 
L 153.48163 220.95606 
L 153.684675 221.220894 
L 153.887719 220.876609 
L 154.090764 221.370968 
L 154.293808 221.097305 
L 154.496852 221.185583 
L 154.699897 221.706425 
L 154.902941 222.827559 
L 155.105986 223.039427 
L 155.30903 223.480818 
L 155.715119 225.166934 
L 155.918164 228.141912 
L 156.121208 227.462169 
L 156.324253 229.624987 
L 156.933386 211.192482 
L 157.13643 208.694206 
L 157.339475 219.119871 
L 157.542519 221.229722 
L 157.745564 221.114961 
L 157.948608 220.602947 
L 158.151653 220.691225 
L 158.354697 220.373423 
L 158.557742 220.50584 
L 158.96383 223.101222 
L 159.166875 222.880526 
L 159.572964 223.586752 
L 159.776008 223.401368 
L 159.979053 223.436679 
L 160.182097 222.98646 
L 160.385142 223.277778 
L 160.588186 221.980088 
L 160.791231 222.103677 
L 160.994275 221.203239 
L 161.400364 220.470529 
L 162.009497 216.533318 
L 162.415586 221.1591 
L 162.618631 215.006103 
L 163.02472 233.985934 
L 163.227764 235.213002 
L 163.430808 227.576931 
L 163.836897 222.818731 
L 164.039942 222.942321 
L 164.649075 223.683859 
L 164.85212 223.507302 
L 165.055164 223.71917 
L 165.461253 223.348401 
L 166.070386 222.350856 
L 166.273431 221.812359 
L 166.476475 221.626975 
L 166.67952 221.988916 
L 166.882564 221.600491 
L 167.085609 221.84767 
L 167.491697 221.76822 
L 168.100831 221.741736 
L 168.303875 221.821187 
L 168.50692 222.077194 
L 168.709964 221.882982 
L 169.116053 222.359684 
L 169.319098 222.033055 
L 169.522142 222.421479 
L 169.725186 222.324373 
L 169.928231 222.536241 
L 170.131275 222.403823 
L 170.33432 222.668658 
L 170.537364 222.094849 
L 170.740409 222.598036 
L 170.943453 222.624519 
L 171.146498 222.474446 
L 171.349542 222.474446 
L 171.755631 223.59558 
L 172.16172 222.306717 
L 172.364764 223.948693 
L 172.567809 223.171844 
L 172.770853 224.240012 
L 172.973898 223.366057 
L 173.176942 224.601953 
L 173.379987 223.895726 
L 173.583031 225.334662 
L 173.786076 222.862871 
L 173.98912 224.222356 
L 174.192164 224.778509 
L 174.395209 226.323379 
L 174.598253 220.770675 
L 174.801298 224.434224 
L 175.004342 219.552435 
L 175.207387 220.91192 
L 175.410431 219.234633 
L 175.613476 222.633347 
L 176.019565 217.05416 
L 176.222609 218.095843 
L 176.425653 218.06936 
L 176.628698 220.311628 
L 176.831742 218.55489 
L 177.034787 218.14881 
L 177.237831 223.277778 
L 177.440876 218.59903 
L 177.64392 221.56518 
L 178.050009 221.874154 
L 178.253054 221.918293 
L 178.456098 222.165472 
L 178.862187 222.006571 
L 179.065231 221.927121 
L 179.268276 222.086022 
L 179.674365 221.891809 
L 179.877409 222.218439 
L 180.080454 221.97126 
L 180.283498 221.918293 
L 181.095676 222.094849 
L 181.29872 221.900637 
L 181.501765 222.147816 
L 181.704809 221.830015 
L 181.907854 222.112505 
L 182.313943 222.094849 
L 183.12612 222.156644 
L 183.329165 221.962432 
L 183.532209 221.997743 
L 183.735254 221.891809 
L 183.938298 222.05071 
L 184.344387 222.024227 
L 184.547432 222.077194 
L 184.750476 221.962432 
L 184.953521 222.041882 
L 185.156565 222.25375 
L 185.359609 221.980088 
L 185.562654 221.97126 
L 185.765698 222.094849 
L 185.968743 221.900637 
L 186.171787 222.130161 
L 186.577876 221.750564 
L 186.780921 221.909465 
L 186.983965 221.777048 
L 187.999187 221.856498 
L 188.405276 221.671114 
L 188.811365 221.494557 
L 189.420499 221.318001 
L 189.623543 221.591663 
L 189.826587 221.468074 
L 190.232676 221.953604 
L 190.435721 221.750564 
L 190.638765 221.997743 
L 190.84181 222.933493 
L 191.044854 222.403823 
L 191.247899 222.280234 
L 191.450943 222.29789 
L 191.653988 222.624519 
L 191.857032 222.474446 
L 192.060076 222.933493 
L 192.466165 222.880526 
L 192.872254 222.50093 
L 193.075299 223.163017 
L 193.278343 222.227267 
L 193.481388 221.865326 
L 193.684432 221.821187 
L 193.887476 221.353312 
L 194.090521 221.724081 
L 194.293565 220.382251 
L 194.49661 221.167928 
L 194.699654 219.331739 
L 194.902699 220.037966 
L 195.105743 217.071815 
L 195.308788 217.451412 
L 195.511832 217.486723 
L 195.714877 219.967343 
L 195.917921 218.104671 
L 196.120965 227.523964 
L 196.32401 223.851587 
L 196.527054 238.850067 
L 196.933143 224.257667 
L 197.136188 222.730453 
L 197.339232 222.871698 
L 197.745321 223.577925 
L 197.948366 223.613236 
L 198.15141 223.957521 
L 198.354454 223.975177 
L 198.760543 222.368512 
L 198.963588 220.973715 
L 199.166632 221.679942 
L 199.572721 221.000199 
L 199.97881 221.097305 
L 200.181855 221.635802 
L 200.384899 221.688769 
L 200.587943 222.862871 
L 200.790988 223.207156 
L 200.994032 223.869243 
L 201.197077 226.235101 
L 201.400121 224.513674 
L 201.603166 227.559275 
L 201.80621 227.832938 
L 202.009255 226.985466 
L 202.212299 225.272868 
L 202.618388 204.889412 
L 203.024477 220.196866 
L 203.227521 221.106133 
L 203.63361 220.170383 
L 204.039699 219.958515 
L 204.445788 221.582835 
L 204.648833 223.127705 
L 204.851877 222.730453 
L 205.054921 223.1895 
L 205.46101 223.118878 
L 205.867099 223.136533 
L 206.070144 221.732909 
L 206.273188 221.556352 
L 206.679277 220.761847 
L 206.882322 220.046793 
L 207.491455 215.571084 
L 207.694499 215.729985 
L 207.897544 219.075732 
L 208.100588 220.514668 
L 208.506677 238.055563 
L 208.912766 224.036972 
L 209.115811 222.933493 
L 209.318855 223.048255 
L 209.521899 223.366057 
L 209.724944 223.374885 
L 209.927988 223.648547 
L 210.131033 223.657375 
L 210.334077 223.357229 
L 210.740166 222.147816 
L 210.943211 220.929576 
L 211.146255 221.432762 
L 211.3493 221.097305 
L 211.552344 221.070821 
L 211.755388 220.885437 
L 211.958433 220.885437 
L 212.161477 221.1591 
L 212.364522 222.315545 
L 212.567566 222.792248 
L 212.770611 222.854043 
L 212.973655 223.957521 
L 213.1767 224.345946 
L 213.582789 227.462169 
L 213.785833 227.779971 
L 214.191922 225.016861 
L 214.394966 208.976697 
L 214.598011 208.085086 
L 215.0041 220.179211 
L 215.207144 221.167928 
L 215.410189 221.053166 
L 216.019322 220.161555 
L 216.222366 220.276317 
L 216.8315 223.1895 
L 217.034544 222.474446 
L 217.237589 223.101222 
L 217.440633 223.207156 
L 217.643678 223.012944 
L 217.846722 223.224811 
L 218.049767 222.959977 
L 218.252811 222.209611 
L 218.455855 222.959977 
L 218.6589 220.903093 
L 218.861944 221.353312 
L 219.268033 220.735364 
L 219.674122 218.740275 
L 219.877167 217.901631 
L 220.080211 217.583829 
L 220.283256 216.250827 
L 220.4863 221.229722 
L 220.689344 219.605402 
L 220.892389 225.767226 
L 221.095433 226.341035 
L 221.298478 232.273335 
L 221.501522 233.447436 
L 221.704567 225.034516 
L 221.907611 222.836387 
L 222.110656 222.730453 
L 222.922833 223.454335 
L 223.328922 223.630892 
L 223.938056 222.403823 
L 224.1411 221.150272 
L 224.344145 221.918293 
L 224.547189 221.150272 
L 224.750233 221.23855 
L 224.953278 221.1591 
L 225.156322 221.326828 
L 225.359367 221.097305 
L 225.765456 221.582835 
L 225.9685 222.306717 
L 226.780678 222.756937 
L 227.186767 224.61078 
L 227.389811 224.822648 
L 227.592856 226.235101 
L 227.7959 225.511219 
L 227.998945 227.188506 
L 228.201989 224.699059 
L 228.405034 226.80891 
L 228.608078 219.834925 
L 228.811123 221.212067 
L 229.014167 208.994353 
L 229.217211 210.636329 
L 229.420256 217.345478 
L 229.6233 219.958515 
L 229.826345 221.079649 
L 230.029389 221.309173 
L 230.232434 221.273861 
L 230.638523 220.823642 
L 231.044612 220.523496 
L 231.247656 220.497013 
L 231.4507 220.850126 
L 231.653745 221.476901 
L 231.856789 221.635802 
L 232.059834 223.048255 
L 232.262878 222.350856 
L 232.872012 222.624519 
L 233.075056 222.968804 
L 233.278101 222.553897 
L 233.481145 222.686314 
L 233.684189 223.021771 
L 233.887234 222.394996 
L 234.090278 222.306717 
L 234.293323 222.015399 
L 234.496367 222.350856 
L 234.699412 221.794703 
L 234.902456 222.041882 
L 235.105501 221.335656 
L 235.308545 221.353312 
L 235.51159 221.503385 
L 235.714634 221.335656 
L 235.917678 220.594119 
L 236.120723 220.576463 
L 236.323767 220.311628 
L 236.932901 216.4009 
L 237.135945 220.514668 
L 237.33899 217.989909 
L 237.542034 220.276317 
L 237.745079 218.210605 
L 237.948123 223.984005 
L 238.151167 225.308179 
L 238.354212 227.90356 
L 238.557256 222.191956 
L 238.760301 234.153663 
L 238.963345 222.536241 
L 239.16639 229.783888 
L 239.572479 222.977632 
L 239.978568 222.280234 
L 240.181612 222.412651 
L 240.384656 222.156644 
L 240.587701 222.37734 
L 240.790745 222.289062 
L 241.196834 222.606863 
L 241.399879 222.677486 
L 242.009012 222.50093 
L 242.82119 222.562724 
L 243.024234 222.421479 
L 243.227279 222.589208 
L 243.430323 222.447963 
L 243.633368 222.553897 
L 243.836412 222.359684 
L 244.039457 222.509757 
L 244.445546 222.218439 
L 244.64859 222.45679 
L 244.851634 222.227267 
L 245.054679 222.29789 
L 245.257723 222.059538 
L 245.460768 222.218439 
L 245.663812 222.086022 
L 245.866857 221.741736 
L 246.069901 221.079649 
L 246.272946 221.882982 
L 246.47599 221.838842 
L 246.679035 221.653458 
L 247.085123 221.750564 
L 247.288168 221.309173 
L 247.491212 221.715253 
L 247.694257 221.556352 
L 247.897301 221.653458 
L 248.100346 221.476901 
L 248.30339 221.688769 
L 248.506435 221.415107 
L 248.709479 221.591663 
L 248.912524 221.450418 
L 249.115568 221.962432 
L 249.318612 221.494557 
L 249.521657 222.086022 
L 249.927746 222.686314 
L 250.13079 222.236095 
L 250.333835 222.412651 
L 250.536879 222.236095 
L 250.739924 223.71917 
L 250.942968 222.915837 
L 251.146012 222.889354 
L 251.95819 226.588214 
L 252.161235 225.334662 
L 252.364279 226.40283 
L 252.567324 225.016861 
L 253.176457 216.542146 
L 253.379501 219.252289 
L 253.582546 213.372955 
L 253.78559 213.646618 
L 254.191679 221.106133 
L 254.394724 221.662286 
L 255.61299 221.044338 
L 255.816035 221.176755 
L 256.019079 221.009027 
L 256.425168 221.353312 
L 256.628213 222.068366 
L 256.831257 222.015399 
L 257.034302 223.127705 
L 257.237346 222.421479 
L 257.643435 222.801076 
L 257.846479 223.030599 
L 258.252568 222.65983 
L 258.455613 223.048255 
L 258.658657 222.58038 
L 258.861702 223.074738 
L 259.267791 222.262578 
L 259.470835 222.236095 
L 259.67388 221.600491 
L 259.876924 222.447963 
L 260.079968 220.947232 
L 260.283013 221.724081 
L 260.486057 221.944776 
L 260.689102 221.106133 
L 261.095191 220.858954 
L 261.298235 220.152727 
L 261.50128 220.408734 
L 261.704324 217.716247 
L 261.907369 218.343023 
L 262.110413 218.378334 
L 262.313457 221.185583 
L 262.516502 217.416101 
L 262.922591 223.286606 
L 263.125635 220.814814 
L 263.32868 227.135539 
L 263.531724 227.29444 
L 263.734769 231.982017 
L 263.937813 223.895726 
L 264.140858 228.503853 
L 264.343902 228.1066 
L 264.546946 223.489646 
L 264.953035 222.606863 
L 265.359124 222.598036 
L 265.562169 222.677486 
L 265.765213 222.518585 
L 266.577391 222.562724 
L 267.186524 222.324373 
L 267.592613 222.183128 
L 268.607836 222.200783 
L 269.013924 222.244923 
L 269.420013 222.130161 
L 269.623058 222.403823 
L 270.029147 222.130161 
L 270.232191 222.359684 
L 270.435236 222.165472 
L 270.63828 222.130161 
L 271.044369 222.368512 
L 271.247413 222.280234 
L 271.450458 222.403823 
L 271.653502 222.05071 
L 271.856547 222.50093 
L 272.059591 222.1743 
L 272.46568 222.262578 
L 272.668725 222.342029 
L 272.871769 222.262578 
L 273.074814 222.50093 
L 273.683947 222.1743 
L 273.886991 222.262578 
L 274.090036 222.183128 
L 274.29308 222.58038 
L 274.496125 222.386168 
L 274.902214 222.527413 
L 275.105258 222.394996 
L 275.308303 222.545069 
L 275.714391 222.474446 
L 275.917436 222.465618 
L 276.12048 222.333201 
L 276.323525 222.562724 
L 276.526569 222.289062 
L 276.729614 222.615691 
L 277.744836 222.280234 
L 277.94788 222.589208 
L 278.150925 222.412651 
L 278.353969 222.615691 
L 278.557014 222.262578 
L 278.760058 222.394996 
L 278.963103 222.227267 
L 279.166147 222.262578 
L 279.572236 222.103677 
L 279.77528 222.447963 
L 279.978325 222.350856 
L 280.181369 222.086022 
L 280.384414 222.421479 
L 281.399636 222.244923 
L 281.602681 222.492102 
L 281.805725 222.1743 
L 282.414858 222.209611 
L 283.023992 222.121333 
L 283.227036 222.271406 
L 283.430081 222.077194 
L 283.633125 222.218439 
L 284.039214 222.094849 
L 284.242258 221.97126 
L 284.445303 222.289062 
L 284.648347 222.262578 
L 284.851392 221.988916 
L 285.054436 222.227267 
L 286.069659 222.244923 
L 286.272703 222.342029 
L 286.475747 222.006571 
L 286.678792 222.041882 
L 286.881836 222.289062 
L 287.084881 222.015399 
L 287.49097 222.191956 
L 287.694014 222.121333 
L 287.897059 222.315545 
L 288.303148 222.077194 
L 288.506192 222.29789 
L 288.912281 221.76822 
L 289.115325 221.529868 
L 289.521414 222.086022 
L 289.724459 221.909465 
L 289.927503 222.280234 
L 290.130548 221.803531 
L 290.536637 222.041882 
L 290.942725 221.882982 
L 291.14577 222.086022 
L 291.348814 221.874154 
L 291.754903 222.1743 
L 292.160992 221.935949 
L 292.567081 222.227267 
L 292.770126 221.56518 
L 292.97317 222.209611 
L 293.176214 222.059538 
L 293.379259 222.191956 
L 293.785348 221.918293 
L 293.988392 221.909465 
L 294.191437 222.1743 
L 294.394481 221.865326 
L 294.597526 222.29789 
L 294.80057 222.191956 
L 295.003615 221.609319 
L 295.206659 222.695142 
L 295.409703 222.236095 
L 295.815792 222.333201 
L 296.018837 222.403823 
L 296.221881 222.642175 
L 296.424926 222.350856 
L 296.62797 222.421479 
L 296.831015 222.138989 
L 297.034059 222.394996 
L 297.237104 222.227267 
L 297.440148 222.403823 
L 297.643192 222.271406 
L 297.846237 222.651003 
L 298.049281 222.403823 
L 298.252326 222.562724 
L 298.45537 222.121333 
L 298.658415 223.136533 
L 299.064504 221.909465 
L 299.267548 222.598036 
L 299.470593 222.536241 
L 299.673637 223.012944 
L 299.876681 221.574008 
L 300.079726 223.489646 
L 300.28277 222.748109 
L 300.688859 222.25375 
L 300.891904 223.975177 
L 301.297993 222.271406 
L 301.501037 223.895726 
L 301.704082 222.606863 
L 301.907126 222.598036 
L 302.11017 224.32829 
L 302.313215 223.065911 
L 302.516259 222.862871 
L 302.719304 224.707887 
L 302.922348 223.569097 
L 303.125393 224.822648 
L 303.328437 222.359684 
L 303.531482 227.921216 
L 303.734526 219.932032 
L 303.937571 223.772137 
L 304.140615 222.959977 
L 304.343659 226.261584 
L 304.546704 219.199322 
L 304.749748 219.790786 
L 304.952793 220.761847 
L 305.155837 219.711336 
L 305.358882 214.105665 
L 305.561926 223.763309 
L 305.764971 214.008559 
L 306.171059 219.013937 
L 306.374104 219.69368 
L 306.780193 221.618147 
L 306.983237 221.609319 
L 307.389326 221.794703 
L 307.592371 221.874154 
L 307.795415 221.759392 
L 307.99846 221.927121 
L 308.201504 221.618147 
L 308.607593 221.679942 
L 308.810637 221.494557 
L 309.013682 221.618147 
L 309.216726 221.503385 
L 309.622815 221.697597 
L 309.82586 221.521041 
L 310.028904 221.626975 
L 310.841082 221.397451 
L 311.247171 221.812359 
L 311.65326 222.059538 
L 311.856304 221.962432 
L 312.262393 222.933493 
L 312.465438 222.165472 
L 312.668482 222.218439 
L 312.871526 222.121333 
L 313.074571 222.25375 
L 313.277615 222.1743 
L 313.48066 222.50093 
L 313.683704 222.368512 
L 313.886749 222.70397 
L 314.292838 222.333201 
L 314.698927 222.624519 
L 315.105015 222.50093 
L 315.511104 223.039427 
L 315.714149 222.006571 
L 316.120238 222.209611 
L 316.323282 222.633347 
L 316.526327 221.009027 
L 316.932416 222.342029 
L 317.13546 221.556352 
L 317.338504 221.821187 
L 317.541549 220.867781 
L 317.744593 222.333201 
L 317.947638 220.3028 
L 318.150682 221.671114 
L 318.353727 221.247378 
L 318.556771 220.037966 
L 318.759816 220.42639 
L 319.165905 219.367051 
L 319.368949 218.290056 
L 319.571993 218.669652 
L 319.775038 220.929576 
L 319.978082 218.157638 
L 320.181127 220.576463 
L 320.384171 221.370968 
L 320.587216 220.488185 
L 320.79026 229.907477 
L 320.993305 227.965355 
L 321.196349 227.841766 
L 321.399394 229.483742 
L 321.602438 230.145829 
L 321.805482 223.975177 
L 322.008527 222.933493 
L 322.211571 222.651003 
L 322.414616 222.712797 
L 322.61766 222.58038 
L 322.820705 222.836387 
L 323.429838 222.977632 
L 323.632883 223.180672 
L 324.038971 223.242467 
L 324.648105 222.394996 
L 325.257238 221.132616 
L 325.460283 221.777048 
L 325.663327 221.415107 
L 326.069416 221.176755 
L 326.27246 221.547524 
L 326.475505 221.326828 
L 326.678549 221.370968 
L 326.881594 221.132616 
L 327.084638 221.988916 
L 327.287683 221.406279 
L 327.490727 222.942321 
L 327.693772 222.562724 
L 327.896816 222.474446 
L 328.099861 222.262578 
L 328.302905 223.860415 
L 328.505949 222.598036 
L 328.708994 224.946238 
L 328.912038 223.789792 
L 329.115083 227.188506 
L 329.521172 225.431768 
L 329.724216 226.711804 
L 329.927261 226.0762 
L 330.130305 219.367051 
L 330.33335 224.522502 
L 330.536394 212.348927 
L 330.739438 210.283215 
L 331.348572 220.982543 
L 331.551616 221.468074 
L 331.957705 221.600491 
L 332.566838 221.061994 
L 333.175972 220.761847 
L 333.582061 221.459246 
L 333.98815 222.041882 
L 334.191194 223.366057 
L 334.394239 222.209611 
L 334.800327 222.624519 
L 335.003372 222.827559 
L 335.612505 222.509757 
L 336.018594 222.801076 
L 336.424683 222.45679 
L 336.627728 222.45679 
L 337.236861 221.450418 
L 337.439905 221.856498 
L 337.64295 221.203239 
L 337.845994 221.679942 
L 338.049039 220.83247 
L 338.252083 220.726536 
L 338.455128 219.578918 
L 338.658172 219.89672 
L 338.861217 218.157638 
L 339.064261 218.952143 
L 339.267305 215.862403 
L 339.47035 219.826098 
L 339.876439 220.973715 
L 340.079483 218.687308 
L 340.282528 225.520047 
L 340.485572 237.517065 
L 340.688617 228.786343 
L 340.891661 230.657843 
L 341.29775 223.31309 
L 341.500794 222.748109 
L 341.906883 222.968804 
L 342.109928 222.827559 
L 342.312972 223.215984 
L 342.516017 223.030599 
L 342.719061 223.180672 
L 342.922106 222.924665 
L 343.531239 223.118878 
L 343.734283 222.765764 
L 343.937328 222.721625 
L 344.343417 222.386168 
L 344.546461 222.412651 
L 344.749506 221.291517 
L 344.95255 221.803531 
L 345.155595 221.856498 
L 345.764728 221.671114 
L 345.967772 221.715253 
L 346.170817 221.900637 
L 346.373861 221.900637 
L 346.77995 221.397451 
L 346.982995 221.918293 
L 347.186039 221.079649 
L 347.389084 222.244923 
L 347.592128 221.574008 
L 347.795173 222.386168 
L 347.998217 222.244923 
L 348.201261 222.29789 
L 348.404306 222.156644 
L 348.60735 222.598036 
L 348.810395 222.615691 
L 349.013439 222.191956 
L 349.216484 222.465618 
L 349.419528 223.286606 
L 349.622573 221.97126 
L 349.825617 222.845215 
L 350.028662 222.633347 
L 350.231706 223.321918 
L 350.43475 222.695142 
L 350.637795 223.586752 
L 350.840839 223.11005 
L 351.043884 223.118878 
L 351.246928 224.584297 
L 351.449973 222.78342 
L 351.856062 224.999205 
L 352.059106 222.695142 
L 352.262151 223.419024 
L 352.465195 222.483274 
L 352.668239 223.886899 
L 352.871284 218.501923 
L 353.074328 222.509757 
L 353.480417 225.255212 
L 353.683462 223.639719 
L 354.089551 222.818731 
L 354.292595 225.776054 
L 354.698684 222.871698 
L 354.901728 225.652464 
L 355.104773 221.529868 
L 355.307817 223.780965 
L 355.510862 217.698591 
L 355.713906 227.356235 
L 355.916951 215.729985 
L 356.119995 220.744192 
L 356.32304 213.408267 
L 356.526084 219.623058 
L 356.729129 215.332733 
L 356.932173 216.64808 
L 357.135217 219.658369 
L 357.338262 218.334195 
L 357.541306 220.920748 
L 357.947395 221.927121 
L 358.15044 222.121333 
L 358.353484 222.103677 
L 358.556529 221.927121 
L 358.759573 222.147816 
L 359.774795 222.112505 
L 360.383929 222.077194 
L 360.586973 222.271406 
L 360.790018 222.306717 
L 361.196106 222.218439 
L 361.602195 222.227267 
L 361.80524 222.306717 
L 362.008284 222.103677 
L 362.211329 222.324373 
L 363.023507 222.209611 
L 363.226551 222.553897 
L 363.429595 222.45679 
L 363.835684 222.412651 
L 364.241773 222.368512 
L 365.46004 222.642175 
L 365.663084 222.871698 
L 365.866129 223.436679 
L 366.678307 233.076668 
L 366.881351 231.39938 
L 367.084396 217.813353 
L 367.28744 225.908471 
L 367.490485 223.92221 
L 367.693529 218.749103 
L 368.099618 217.627968 
L 368.505707 221.000199 
L 368.708751 217.433756 
L 368.911796 220.691225 
L 369.11484 219.552435 
L 369.317885 221.44159 
L 369.520929 219.949687 
L 369.723974 221.326828 
L 369.927018 221.044338 
L 370.130062 221.388623 
L 370.333107 221.450418 
L 370.536151 221.909465 
L 371.145285 221.724081 
L 371.348329 222.50093 
L 371.551374 221.874154 
L 371.754418 222.430307 
L 371.957463 221.635802 
L 372.160507 222.527413 
L 372.566596 222.165472 
L 372.972685 222.527413 
L 373.378774 222.968804 
L 373.581818 222.756937 
L 373.581818 222.756937 
" style="fill:none;stroke:#ffa500;stroke-linecap:square;stroke-width:1.5;"/>
   </g>
   <g id="patch_3">
    <path d="M 54 252 
L 54 34.56 
" style="fill:none;stroke:#000000;stroke-linecap:square;stroke-linejoin:miter;stroke-width:0.8;"/>
   </g>
   <g id="patch_4">
    <path d="M 388.8 252 
L 388.8 34.56 
" style="fill:none;stroke:#000000;stroke-linecap:square;stroke-linejoin:miter;stroke-width:0.8;"/>
   </g>
   <g id="patch_5">
    <path d="M 54 252 
L 388.8 252 
" style="fill:none;stroke:#000000;stroke-linecap:square;stroke-linejoin:miter;stroke-width:0.8;"/>
   </g>
   <g id="patch_6">
    <path d="M 54 34.56 
L 388.8 34.56 
" style="fill:none;stroke:#000000;stroke-linecap:square;stroke-linejoin:miter;stroke-width:0.8;"/>
   </g>
   <g id="text_17">
    <!-- SPGD Detectors Testing Lineup In PicoAmps  -->
    <defs>
     <path d="M 53.515625 70.515625 
L 53.515625 60.890625 
Q 47.90625 63.578125 42.921875 64.890625 
Q 37.9375 66.21875 33.296875 66.21875 
Q 25.25 66.21875 20.875 63.09375 
Q 16.5 59.96875 16.5 54.203125 
Q 16.5 49.359375 19.40625 46.890625 
Q 22.3125 44.4375 30.421875 42.921875 
L 36.375 41.703125 
Q 47.40625 39.59375 52.65625 34.296875 
Q 57.90625 29 57.90625 20.125 
Q 57.90625 9.515625 50.796875 4.046875 
Q 43.703125 -1.421875 29.984375 -1.421875 
Q 24.8125 -1.421875 18.96875 -0.25 
Q 13.140625 0.921875 6.890625 3.21875 
L 6.890625 13.375 
Q 12.890625 10.015625 18.65625 8.296875 
Q 24.421875 6.59375 29.984375 6.59375 
Q 38.421875 6.59375 43.015625 9.90625 
Q 47.609375 13.234375 47.609375 19.390625 
Q 47.609375 24.75 44.3125 27.78125 
Q 41.015625 30.8125 33.5 32.328125 
L 27.484375 33.5 
Q 16.453125 35.6875 11.515625 40.375 
Q 6.59375 45.0625 6.59375 53.421875 
Q 6.59375 63.09375 13.40625 68.65625 
Q 20.21875 74.21875 32.171875 74.21875 
Q 37.3125 74.21875 42.625 73.28125 
Q 47.953125 72.359375 53.515625 70.515625 
" id="DejaVuSans-53"/>
     <path d="M 59.515625 10.40625 
L 59.515625 29.984375 
L 43.40625 29.984375 
L 43.40625 38.09375 
L 69.28125 38.09375 
L 69.28125 6.78125 
Q 63.578125 2.734375 56.6875 0.65625 
Q 49.8125 -1.421875 42 -1.421875 
Q 24.90625 -1.421875 15.25 8.5625 
Q 5.609375 18.5625 5.609375 36.375 
Q 5.609375 54.25 15.25 64.234375 
Q 24.90625 74.21875 42 74.21875 
Q 49.125 74.21875 55.546875 72.453125 
Q 61.96875 70.703125 67.390625 67.28125 
L 67.390625 56.78125 
Q 61.921875 61.421875 55.765625 63.765625 
Q 49.609375 66.109375 42.828125 66.109375 
Q 29.4375 66.109375 22.71875 58.640625 
Q 16.015625 51.171875 16.015625 36.375 
Q 16.015625 21.625 22.71875 14.15625 
Q 29.4375 6.6875 42.828125 6.6875 
Q 48.046875 6.6875 52.140625 7.59375 
Q 56.25 8.5 59.515625 10.40625 
" id="DejaVuSans-47"/>
     <path d="M 19.671875 64.796875 
L 19.671875 8.109375 
L 31.59375 8.109375 
Q 46.6875 8.109375 53.6875 14.9375 
Q 60.6875 21.78125 60.6875 36.53125 
Q 60.6875 51.171875 53.6875 57.984375 
Q 46.6875 64.796875 31.59375 64.796875 
z
M 9.8125 72.90625 
L 30.078125 72.90625 
Q 51.265625 72.90625 61.171875 64.09375 
Q 71.09375 55.28125 71.09375 36.53125 
Q 71.09375 17.671875 61.125 8.828125 
Q 51.171875 0 30.078125 0 
L 9.8125 0 
z
" id="DejaVuSans-44"/>
     <path d="M 18.3125 70.21875 
L 18.3125 54.6875 
L 36.8125 54.6875 
L 36.8125 47.703125 
L 18.3125 47.703125 
L 18.3125 18.015625 
Q 18.3125 11.328125 20.140625 9.421875 
Q 21.96875 7.515625 27.59375 7.515625 
L 36.8125 7.515625 
L 36.8125 0 
L 27.59375 0 
Q 17.1875 0 13.234375 3.875 
Q 9.28125 7.765625 9.28125 18.015625 
L 9.28125 47.703125 
L 2.6875 47.703125 
L 2.6875 54.6875 
L 9.28125 54.6875 
L 9.28125 70.21875 
z
" id="DejaVuSans-74"/>
     <path d="M 41.109375 46.296875 
Q 39.59375 47.171875 37.8125 47.578125 
Q 36.03125 48 33.890625 48 
Q 26.265625 48 22.1875 43.046875 
Q 18.109375 38.09375 18.109375 28.8125 
L 18.109375 0 
L 9.078125 0 
L 9.078125 54.6875 
L 18.109375 54.6875 
L 18.109375 46.1875 
Q 20.953125 51.171875 25.484375 53.578125 
Q 30.03125 56 36.53125 56 
Q 37.453125 56 38.578125 55.875 
Q 39.703125 55.765625 41.0625 55.515625 
z
" id="DejaVuSans-72"/>
     <path d="M -0.296875 72.90625 
L 61.375 72.90625 
L 61.375 64.59375 
L 35.5 64.59375 
L 35.5 0 
L 25.59375 0 
L 25.59375 64.59375 
L -0.296875 64.59375 
z
" id="DejaVuSans-54"/>
     <path d="M 45.40625 27.984375 
Q 45.40625 37.75 41.375 43.109375 
Q 37.359375 48.484375 30.078125 48.484375 
Q 22.859375 48.484375 18.828125 43.109375 
Q 14.796875 37.75 14.796875 27.984375 
Q 14.796875 18.265625 18.828125 12.890625 
Q 22.859375 7.515625 30.078125 7.515625 
Q 37.359375 7.515625 41.375 12.890625 
Q 45.40625 18.265625 45.40625 27.984375 
M 54.390625 6.78125 
Q 54.390625 -7.171875 48.1875 -13.984375 
Q 42 -20.796875 29.203125 -20.796875 
Q 24.46875 -20.796875 20.265625 -20.09375 
Q 16.0625 -19.390625 12.109375 -17.921875 
L 12.109375 -9.1875 
Q 16.0625 -11.328125 19.921875 -12.34375 
Q 23.78125 -13.375 27.78125 -13.375 
Q 36.625 -13.375 41.015625 -8.765625 
Q 45.40625 -4.15625 45.40625 5.171875 
L 45.40625 9.625 
Q 42.625 4.78125 38.28125 2.390625 
Q 33.9375 0 27.875 0 
Q 17.828125 0 11.671875 7.65625 
Q 5.515625 15.328125 5.515625 27.984375 
Q 5.515625 40.671875 11.671875 48.328125 
Q 17.828125 56 27.875 56 
Q 33.9375 56 38.28125 53.609375 
Q 42.625 51.21875 45.40625 46.390625 
L 45.40625 54.6875 
L 54.390625 54.6875 
z
" id="DejaVuSans-67"/>
     <path d="M 9.8125 72.90625 
L 19.671875 72.90625 
L 19.671875 8.296875 
L 55.171875 8.296875 
L 55.171875 0 
L 9.8125 0 
z
" id="DejaVuSans-4c"/>
     <path d="M 8.5 21.578125 
L 8.5 54.6875 
L 17.484375 54.6875 
L 17.484375 21.921875 
Q 17.484375 14.15625 20.5 10.265625 
Q 23.53125 6.390625 29.59375 6.390625 
Q 36.859375 6.390625 41.078125 11.03125 
Q 45.3125 15.671875 45.3125 23.6875 
L 45.3125 54.6875 
L 54.296875 54.6875 
L 54.296875 0 
L 45.3125 0 
L 45.3125 8.40625 
Q 42.046875 3.421875 37.71875 1 
Q 33.40625 -1.421875 27.6875 -1.421875 
Q 18.265625 -1.421875 13.375 4.4375 
Q 8.5 10.296875 8.5 21.578125 
M 31.109375 56 
z
" id="DejaVuSans-75"/>
     <path d="M 9.8125 72.90625 
L 19.671875 72.90625 
L 19.671875 0 
L 9.8125 0 
z
" id="DejaVuSans-49"/>
     <path d="M 34.1875 63.1875 
L 20.796875 26.90625 
L 47.609375 26.90625 
z
M 28.609375 72.90625 
L 39.796875 72.90625 
L 67.578125 0 
L 57.328125 0 
L 50.6875 18.703125 
L 17.828125 18.703125 
L 11.1875 0 
L 0.78125 0 
z
" id="DejaVuSans-41"/>
    </defs>
    <g transform="translate(87.070312 28.56)scale(0.12 -0.12)">
     <use xlink:href="#DejaVuSans-53"/>
     <use x="63.476562" xlink:href="#DejaVuSans-50"/>
     <use x="123.779297" xlink:href="#DejaVuSans-47"/>
     <use x="201.269531" xlink:href="#DejaVuSans-44"/>
     <use x="278.271484" xlink:href="#DejaVuSans-20"/>
     <use x="310.058594" xlink:href="#DejaVuSans-44"/>
     <use x="387.060547" xlink:href="#DejaVuSans-65"/>
     <use x="448.583984" xlink:href="#DejaVuSans-74"/>
     <use x="487.792969" xlink:href="#DejaVuSans-65"/>
     <use x="549.316406" xlink:href="#DejaVuSans-63"/>
     <use x="604.296875" xlink:href="#DejaVuSans-74"/>
     <use x="643.505859" xlink:href="#DejaVuSans-6f"/>
     <use x="704.6875" xlink:href="#DejaVuSans-72"/>
     <use x="745.800781" xlink:href="#DejaVuSans-73"/>
     <use x="797.900391" xlink:href="#DejaVuSans-20"/>
     <use x="829.6875" xlink:href="#DejaVuSans-54"/>
     <use x="890.505859" xlink:href="#DejaVuSans-65"/>
     <use x="952.029297" xlink:href="#DejaVuSans-73"/>
     <use x="1004.128906" xlink:href="#DejaVuSans-74"/>
     <use x="1043.337891" xlink:href="#DejaVuSans-69"/>
     <use x="1071.121094" xlink:href="#DejaVuSans-6e"/>
     <use x="1134.5" xlink:href="#DejaVuSans-67"/>
     <use x="1197.976562" xlink:href="#DejaVuSans-20"/>
     <use x="1229.763672" xlink:href="#DejaVuSans-4c"/>
     <use x="1285.476562" xlink:href="#DejaVuSans-69"/>
     <use x="1313.259766" xlink:href="#DejaVuSans-6e"/>
     <use x="1376.638672" xlink:href="#DejaVuSans-65"/>
     <use x="1438.162109" xlink:href="#DejaVuSans-75"/>
     <use x="1501.541016" xlink:href="#DejaVuSans-70"/>
     <use x="1565.017578" xlink:href="#DejaVuSans-20"/>
     <use x="1596.804688" xlink:href="#DejaVuSans-49"/>
     <use x="1626.296875" xlink:href="#DejaVuSans-6e"/>
     <use x="1689.675781" xlink:href="#DejaVuSans-20"/>
     <use x="1721.462891" xlink:href="#DejaVuSans-50"/>
     <use x="1781.734375" xlink:href="#DejaVuSans-69"/>
     <use x="1809.517578" xlink:href="#DejaVuSans-63"/>
     <use x="1864.498047" xlink:href="#DejaVuSans-6f"/>
     <use x="1925.679688" xlink:href="#DejaVuSans-41"/>
     <use x="1994.087891" xlink:href="#DejaVuSans-6d"/>
     <use x="2091.5" xlink:href="#DejaVuSans-70"/>
     <use x="2154.976562" xlink:href="#DejaVuSans-73"/>
     <use x="2207.076172" xlink:href="#DejaVuSans-20"/>
    </g>
   </g>
  </g>
 </g>
 <defs>
  <clipPath id="p40121763a6">
   <rect height="217.44" width="334.8" x="54" y="34.56"/>
  </clipPath>
 </defs>
</svg>
