<?xml version="1.0" encoding="utf-8" standalone="no"?>
<!DOCTYPE svg PUBLIC "-//W3C//DTD SVG 1.1//EN"
  "http://www.w3.org/Graphics/SVG/1.1/DTD/svg11.dtd">
<!-- Created with matplotlib (http://matplotlib.org/) -->
<svg height="288pt" version="1.1" viewBox="0 0 432 288" width="432pt" xmlns="http://www.w3.org/2000/svg" xmlns:xlink="http://www.w3.org/1999/xlink">
 <defs>
  <style type="text/css">
*{stroke-linecap:butt;stroke-linejoin:round;}
  </style>
 </defs>
 <g id="figure_1">
  <g id="patch_1">
   <path d="M 0 288 
L 432 288 
L 432 0 
L 0 0 
z
" style="fill:#ffffff;"/>
  </g>
  <g id="axes_1">
   <g id="patch_2">
    <path d="M 54 252 
L 388.8 252 
L 388.8 34.56 
L 54 34.56 
z
" style="fill:#ffffff;"/>
   </g>
   <g id="matplotlib.axis_1">
    <g id="xtick_1">
     <g id="line2d_1">
      <path clip-path="url(#p60e25b8021)" d="M 69.218182 252 
L 69.218182 34.56 
" style="fill:none;stroke:#b0b0b0;stroke-linecap:square;stroke-width:0.8;"/>
     </g>
     <g id="line2d_2">
      <defs>
       <path d="M 0 0 
L 0 3.5 
" id="m011c976e9f" style="stroke:#000000;stroke-width:0.8;"/>
      </defs>
      <g>
       <use style="stroke:#000000;stroke-width:0.8;" x="69.218182" xlink:href="#m011c976e9f" y="252"/>
      </g>
     </g>
     <g id="text_1">
      <!-- 0 -->
      <defs>
       <path d="M 31.78125 66.40625 
Q 24.171875 66.40625 20.328125 58.90625 
Q 16.5 51.421875 16.5 36.375 
Q 16.5 21.390625 20.328125 13.890625 
Q 24.171875 6.390625 31.78125 6.390625 
Q 39.453125 6.390625 43.28125 13.890625 
Q 47.125 21.390625 47.125 36.375 
Q 47.125 51.421875 43.28125 58.90625 
Q 39.453125 66.40625 31.78125 66.40625 
M 31.78125 74.21875 
Q 44.046875 74.21875 50.515625 64.515625 
Q 56.984375 54.828125 56.984375 36.375 
Q 56.984375 17.96875 50.515625 8.265625 
Q 44.046875 -1.421875 31.78125 -1.421875 
Q 19.53125 -1.421875 13.0625 8.265625 
Q 6.59375 17.96875 6.59375 36.375 
Q 6.59375 54.828125 13.0625 64.515625 
Q 19.53125 74.21875 31.78125 74.21875 
" id="DejaVuSans-30"/>
      </defs>
      <g transform="translate(66.036932 266.598437)scale(0.1 -0.1)">
       <use xlink:href="#DejaVuSans-30"/>
      </g>
     </g>
    </g>
    <g id="xtick_2">
     <g id="line2d_3">
      <path clip-path="url(#p60e25b8021)" d="M 130.151843 252 
L 130.151843 34.56 
" style="fill:none;stroke:#b0b0b0;stroke-linecap:square;stroke-width:0.8;"/>
     </g>
     <g id="line2d_4">
      <g>
       <use style="stroke:#000000;stroke-width:0.8;" x="130.151843" xlink:href="#m011c976e9f" y="252"/>
      </g>
     </g>
     <g id="text_2">
      <!-- 200 -->
      <defs>
       <path d="M 19.1875 8.296875 
L 53.609375 8.296875 
L 53.609375 0 
L 7.328125 0 
L 7.328125 8.296875 
Q 12.9375 14.109375 22.625 23.890625 
Q 32.328125 33.6875 34.8125 36.53125 
Q 39.546875 41.84375 41.421875 45.53125 
Q 43.3125 49.21875 43.3125 52.78125 
Q 43.3125 58.59375 39.234375 62.25 
Q 35.15625 65.921875 28.609375 65.921875 
Q 23.96875 65.921875 18.8125 64.3125 
Q 13.671875 62.703125 7.8125 59.421875 
L 7.8125 69.390625 
Q 13.765625 71.78125 18.9375 73 
Q 24.125 74.21875 28.421875 74.21875 
Q 39.75 74.21875 46.484375 68.546875 
Q 53.21875 62.890625 53.21875 53.421875 
Q 53.21875 48.921875 51.53125 44.890625 
Q 49.859375 40.875 45.40625 35.40625 
Q 44.1875 33.984375 37.640625 27.21875 
Q 31.109375 20.453125 19.1875 8.296875 
" id="DejaVuSans-32"/>
      </defs>
      <g transform="translate(120.608093 266.598437)scale(0.1 -0.1)">
       <use xlink:href="#DejaVuSans-32"/>
       <use x="63.623047" xlink:href="#DejaVuSans-30"/>
       <use x="127.246094" xlink:href="#DejaVuSans-30"/>
      </g>
     </g>
    </g>
    <g id="xtick_3">
     <g id="line2d_5">
      <path clip-path="url(#p60e25b8021)" d="M 191.085504 252 
L 191.085504 34.56 
" style="fill:none;stroke:#b0b0b0;stroke-linecap:square;stroke-width:0.8;"/>
     </g>
     <g id="line2d_6">
      <g>
       <use style="stroke:#000000;stroke-width:0.8;" x="191.085504" xlink:href="#m011c976e9f" y="252"/>
      </g>
     </g>
     <g id="text_3">
      <!-- 400 -->
      <defs>
       <path d="M 37.796875 64.3125 
L 12.890625 25.390625 
L 37.796875 25.390625 
z
M 35.203125 72.90625 
L 47.609375 72.90625 
L 47.609375 25.390625 
L 58.015625 25.390625 
L 58.015625 17.1875 
L 47.609375 17.1875 
L 47.609375 0 
L 37.796875 0 
L 37.796875 17.1875 
L 4.890625 17.1875 
L 4.890625 26.703125 
z
" id="DejaVuSans-34"/>
      </defs>
      <g transform="translate(181.541754 266.598437)scale(0.1 -0.1)">
       <use xlink:href="#DejaVuSans-34"/>
       <use x="63.623047" xlink:href="#DejaVuSans-30"/>
       <use x="127.246094" xlink:href="#DejaVuSans-30"/>
      </g>
     </g>
    </g>
    <g id="xtick_4">
     <g id="line2d_7">
      <path clip-path="url(#p60e25b8021)" d="M 252.019165 252 
L 252.019165 34.56 
" style="fill:none;stroke:#b0b0b0;stroke-linecap:square;stroke-width:0.8;"/>
     </g>
     <g id="line2d_8">
      <g>
       <use style="stroke:#000000;stroke-width:0.8;" x="252.019165" xlink:href="#m011c976e9f" y="252"/>
      </g>
     </g>
     <g id="text_4">
      <!-- 600 -->
      <defs>
       <path d="M 33.015625 40.375 
Q 26.375 40.375 22.484375 35.828125 
Q 18.609375 31.296875 18.609375 23.390625 
Q 18.609375 15.53125 22.484375 10.953125 
Q 26.375 6.390625 33.015625 6.390625 
Q 39.65625 6.390625 43.53125 10.953125 
Q 47.40625 15.53125 47.40625 23.390625 
Q 47.40625 31.296875 43.53125 35.828125 
Q 39.65625 40.375 33.015625 40.375 
M 52.59375 71.296875 
L 52.59375 62.3125 
Q 48.875 64.0625 45.09375 64.984375 
Q 41.3125 65.921875 37.59375 65.921875 
Q 27.828125 65.921875 22.671875 59.328125 
Q 17.53125 52.734375 16.796875 39.40625 
Q 19.671875 43.65625 24.015625 45.921875 
Q 28.375 48.1875 33.59375 48.1875 
Q 44.578125 48.1875 50.953125 41.515625 
Q 57.328125 34.859375 57.328125 23.390625 
Q 57.328125 12.15625 50.6875 5.359375 
Q 44.046875 -1.421875 33.015625 -1.421875 
Q 20.359375 -1.421875 13.671875 8.265625 
Q 6.984375 17.96875 6.984375 36.375 
Q 6.984375 53.65625 15.1875 63.9375 
Q 23.390625 74.21875 37.203125 74.21875 
Q 40.921875 74.21875 44.703125 73.484375 
Q 48.484375 72.75 52.59375 71.296875 
" id="DejaVuSans-36"/>
      </defs>
      <g transform="translate(242.475415 266.598437)scale(0.1 -0.1)">
       <use xlink:href="#DejaVuSans-36"/>
       <use x="63.623047" xlink:href="#DejaVuSans-30"/>
       <use x="127.246094" xlink:href="#DejaVuSans-30"/>
      </g>
     </g>
    </g>
    <g id="xtick_5">
     <g id="line2d_9">
      <path clip-path="url(#p60e25b8021)" d="M 312.952826 252 
L 312.952826 34.56 
" style="fill:none;stroke:#b0b0b0;stroke-linecap:square;stroke-width:0.8;"/>
     </g>
     <g id="line2d_10">
      <g>
       <use style="stroke:#000000;stroke-width:0.8;" x="312.952826" xlink:href="#m011c976e9f" y="252"/>
      </g>
     </g>
     <g id="text_5">
      <!-- 800 -->
      <defs>
       <path d="M 31.78125 34.625 
Q 24.75 34.625 20.71875 30.859375 
Q 16.703125 27.09375 16.703125 20.515625 
Q 16.703125 13.921875 20.71875 10.15625 
Q 24.75 6.390625 31.78125 6.390625 
Q 38.8125 6.390625 42.859375 10.171875 
Q 46.921875 13.96875 46.921875 20.515625 
Q 46.921875 27.09375 42.890625 30.859375 
Q 38.875 34.625 31.78125 34.625 
M 21.921875 38.8125 
Q 15.578125 40.375 12.03125 44.71875 
Q 8.5 49.078125 8.5 55.328125 
Q 8.5 64.0625 14.71875 69.140625 
Q 20.953125 74.21875 31.78125 74.21875 
Q 42.671875 74.21875 48.875 69.140625 
Q 55.078125 64.0625 55.078125 55.328125 
Q 55.078125 49.078125 51.53125 44.71875 
Q 48 40.375 41.703125 38.8125 
Q 48.828125 37.15625 52.796875 32.3125 
Q 56.78125 27.484375 56.78125 20.515625 
Q 56.78125 9.90625 50.3125 4.234375 
Q 43.84375 -1.421875 31.78125 -1.421875 
Q 19.734375 -1.421875 13.25 4.234375 
Q 6.78125 9.90625 6.78125 20.515625 
Q 6.78125 27.484375 10.78125 32.3125 
Q 14.796875 37.15625 21.921875 38.8125 
M 18.3125 54.390625 
Q 18.3125 48.734375 21.84375 45.5625 
Q 25.390625 42.390625 31.78125 42.390625 
Q 38.140625 42.390625 41.71875 45.5625 
Q 45.3125 48.734375 45.3125 54.390625 
Q 45.3125 60.0625 41.71875 63.234375 
Q 38.140625 66.40625 31.78125 66.40625 
Q 25.390625 66.40625 21.84375 63.234375 
Q 18.3125 60.0625 18.3125 54.390625 
" id="DejaVuSans-38"/>
      </defs>
      <g transform="translate(303.409076 266.598437)scale(0.1 -0.1)">
       <use xlink:href="#DejaVuSans-38"/>
       <use x="63.623047" xlink:href="#DejaVuSans-30"/>
       <use x="127.246094" xlink:href="#DejaVuSans-30"/>
      </g>
     </g>
    </g>
    <g id="xtick_6">
     <g id="line2d_11">
      <path clip-path="url(#p60e25b8021)" d="M 373.886486 252 
L 373.886486 34.56 
" style="fill:none;stroke:#b0b0b0;stroke-linecap:square;stroke-width:0.8;"/>
     </g>
     <g id="line2d_12">
      <g>
       <use style="stroke:#000000;stroke-width:0.8;" x="373.886486" xlink:href="#m011c976e9f" y="252"/>
      </g>
     </g>
     <g id="text_6">
      <!-- 1000 -->
      <defs>
       <path d="M 12.40625 8.296875 
L 28.515625 8.296875 
L 28.515625 63.921875 
L 10.984375 60.40625 
L 10.984375 69.390625 
L 28.421875 72.90625 
L 38.28125 72.90625 
L 38.28125 8.296875 
L 54.390625 8.296875 
L 54.390625 0 
L 12.40625 0 
z
" id="DejaVuSans-31"/>
      </defs>
      <g transform="translate(361.161486 266.598437)scale(0.1 -0.1)">
       <use xlink:href="#DejaVuSans-31"/>
       <use x="63.623047" xlink:href="#DejaVuSans-30"/>
       <use x="127.246094" xlink:href="#DejaVuSans-30"/>
       <use x="190.869141" xlink:href="#DejaVuSans-30"/>
      </g>
     </g>
    </g>
    <g id="text_7">
     <!-- seconds -->
     <defs>
      <path d="M 44.28125 53.078125 
L 44.28125 44.578125 
Q 40.484375 46.53125 36.375 47.5 
Q 32.28125 48.484375 27.875 48.484375 
Q 21.1875 48.484375 17.84375 46.4375 
Q 14.5 44.390625 14.5 40.28125 
Q 14.5 37.15625 16.890625 35.375 
Q 19.28125 33.59375 26.515625 31.984375 
L 29.59375 31.296875 
Q 39.15625 29.25 43.1875 25.515625 
Q 47.21875 21.78125 47.21875 15.09375 
Q 47.21875 7.46875 41.1875 3.015625 
Q 35.15625 -1.421875 24.609375 -1.421875 
Q 20.21875 -1.421875 15.453125 -0.5625 
Q 10.6875 0.296875 5.421875 2 
L 5.421875 11.28125 
Q 10.40625 8.6875 15.234375 7.390625 
Q 20.0625 6.109375 24.8125 6.109375 
Q 31.15625 6.109375 34.5625 8.28125 
Q 37.984375 10.453125 37.984375 14.40625 
Q 37.984375 18.0625 35.515625 20.015625 
Q 33.0625 21.96875 24.703125 23.78125 
L 21.578125 24.515625 
Q 13.234375 26.265625 9.515625 29.90625 
Q 5.8125 33.546875 5.8125 39.890625 
Q 5.8125 47.609375 11.28125 51.796875 
Q 16.75 56 26.8125 56 
Q 31.78125 56 36.171875 55.265625 
Q 40.578125 54.546875 44.28125 53.078125 
" id="DejaVuSans-73"/>
      <path d="M 56.203125 29.59375 
L 56.203125 25.203125 
L 14.890625 25.203125 
Q 15.484375 15.921875 20.484375 11.0625 
Q 25.484375 6.203125 34.421875 6.203125 
Q 39.59375 6.203125 44.453125 7.46875 
Q 49.3125 8.734375 54.109375 11.28125 
L 54.109375 2.78125 
Q 49.265625 0.734375 44.1875 -0.34375 
Q 39.109375 -1.421875 33.890625 -1.421875 
Q 20.796875 -1.421875 13.15625 6.1875 
Q 5.515625 13.8125 5.515625 26.8125 
Q 5.515625 40.234375 12.765625 48.109375 
Q 20.015625 56 32.328125 56 
Q 43.359375 56 49.78125 48.890625 
Q 56.203125 41.796875 56.203125 29.59375 
M 47.21875 32.234375 
Q 47.125 39.59375 43.09375 43.984375 
Q 39.0625 48.390625 32.421875 48.390625 
Q 24.90625 48.390625 20.390625 44.140625 
Q 15.875 39.890625 15.1875 32.171875 
z
" id="DejaVuSans-65"/>
      <path d="M 48.78125 52.59375 
L 48.78125 44.1875 
Q 44.96875 46.296875 41.140625 47.34375 
Q 37.3125 48.390625 33.40625 48.390625 
Q 24.65625 48.390625 19.8125 42.84375 
Q 14.984375 37.3125 14.984375 27.296875 
Q 14.984375 17.28125 19.8125 11.734375 
Q 24.65625 6.203125 33.40625 6.203125 
Q 37.3125 6.203125 41.140625 7.25 
Q 44.96875 8.296875 48.78125 10.40625 
L 48.78125 2.09375 
Q 45.015625 0.34375 40.984375 -0.53125 
Q 36.96875 -1.421875 32.421875 -1.421875 
Q 20.0625 -1.421875 12.78125 6.34375 
Q 5.515625 14.109375 5.515625 27.296875 
Q 5.515625 40.671875 12.859375 48.328125 
Q 20.21875 56 33.015625 56 
Q 37.15625 56 41.109375 55.140625 
Q 45.0625 54.296875 48.78125 52.59375 
" id="DejaVuSans-63"/>
      <path d="M 30.609375 48.390625 
Q 23.390625 48.390625 19.1875 42.75 
Q 14.984375 37.109375 14.984375 27.296875 
Q 14.984375 17.484375 19.15625 11.84375 
Q 23.34375 6.203125 30.609375 6.203125 
Q 37.796875 6.203125 41.984375 11.859375 
Q 46.1875 17.53125 46.1875 27.296875 
Q 46.1875 37.015625 41.984375 42.703125 
Q 37.796875 48.390625 30.609375 48.390625 
M 30.609375 56 
Q 42.328125 56 49.015625 48.375 
Q 55.71875 40.765625 55.71875 27.296875 
Q 55.71875 13.875 49.015625 6.21875 
Q 42.328125 -1.421875 30.609375 -1.421875 
Q 18.84375 -1.421875 12.171875 6.21875 
Q 5.515625 13.875 5.515625 27.296875 
Q 5.515625 40.765625 12.171875 48.375 
Q 18.84375 56 30.609375 56 
" id="DejaVuSans-6f"/>
      <path d="M 54.890625 33.015625 
L 54.890625 0 
L 45.90625 0 
L 45.90625 32.71875 
Q 45.90625 40.484375 42.875 44.328125 
Q 39.84375 48.1875 33.796875 48.1875 
Q 26.515625 48.1875 22.3125 43.546875 
Q 18.109375 38.921875 18.109375 30.90625 
L 18.109375 0 
L 9.078125 0 
L 9.078125 54.6875 
L 18.109375 54.6875 
L 18.109375 46.1875 
Q 21.34375 51.125 25.703125 53.5625 
Q 30.078125 56 35.796875 56 
Q 45.21875 56 50.046875 50.171875 
Q 54.890625 44.34375 54.890625 33.015625 
" id="DejaVuSans-6e"/>
      <path d="M 45.40625 46.390625 
L 45.40625 75.984375 
L 54.390625 75.984375 
L 54.390625 0 
L 45.40625 0 
L 45.40625 8.203125 
Q 42.578125 3.328125 38.25 0.953125 
Q 33.9375 -1.421875 27.875 -1.421875 
Q 17.96875 -1.421875 11.734375 6.484375 
Q 5.515625 14.40625 5.515625 27.296875 
Q 5.515625 40.1875 11.734375 48.09375 
Q 17.96875 56 27.875 56 
Q 33.9375 56 38.25 53.625 
Q 42.578125 51.265625 45.40625 46.390625 
M 14.796875 27.296875 
Q 14.796875 17.390625 18.875 11.75 
Q 22.953125 6.109375 30.078125 6.109375 
Q 37.203125 6.109375 41.296875 11.75 
Q 45.40625 17.390625 45.40625 27.296875 
Q 45.40625 37.203125 41.296875 42.84375 
Q 37.203125 48.484375 30.078125 48.484375 
Q 22.953125 48.484375 18.875 42.84375 
Q 14.796875 37.203125 14.796875 27.296875 
" id="DejaVuSans-64"/>
     </defs>
     <g transform="translate(200.9625 280.276563)scale(0.1 -0.1)">
      <use xlink:href="#DejaVuSans-73"/>
      <use x="52.099609" xlink:href="#DejaVuSans-65"/>
      <use x="113.623047" xlink:href="#DejaVuSans-63"/>
      <use x="168.603516" xlink:href="#DejaVuSans-6f"/>
      <use x="229.785156" xlink:href="#DejaVuSans-6e"/>
      <use x="293.164062" xlink:href="#DejaVuSans-64"/>
      <use x="356.640625" xlink:href="#DejaVuSans-73"/>
     </g>
    </g>
   </g>
   <g id="matplotlib.axis_2">
    <g id="ytick_1">
     <g id="line2d_13">
      <path clip-path="url(#p60e25b8021)" d="M 54 243.398274 
L 388.8 243.398274 
" style="fill:none;stroke:#b0b0b0;stroke-linecap:square;stroke-width:0.8;"/>
     </g>
     <g id="line2d_14">
      <defs>
       <path d="M 0 0 
L -3.5 0 
" id="mebaac37afb" style="stroke:#000000;stroke-width:0.8;"/>
      </defs>
      <g>
       <use style="stroke:#000000;stroke-width:0.8;" x="54" xlink:href="#mebaac37afb" y="243.398274"/>
      </g>
     </g>
     <g id="text_8">
      <!-- −2000 -->
      <defs>
       <path d="M 10.59375 35.5 
L 73.1875 35.5 
L 73.1875 27.203125 
L 10.59375 27.203125 
z
" id="DejaVuSans-2212"/>
      </defs>
      <g transform="translate(13.170313 247.197493)scale(0.1 -0.1)">
       <use xlink:href="#DejaVuSans-2212"/>
       <use x="83.789062" xlink:href="#DejaVuSans-32"/>
       <use x="147.412109" xlink:href="#DejaVuSans-30"/>
       <use x="211.035156" xlink:href="#DejaVuSans-30"/>
       <use x="274.658203" xlink:href="#DejaVuSans-30"/>
      </g>
     </g>
    </g>
    <g id="ytick_2">
     <g id="line2d_15">
      <path clip-path="url(#p60e25b8021)" d="M 54 207.714846 
L 388.8 207.714846 
" style="fill:none;stroke:#b0b0b0;stroke-linecap:square;stroke-width:0.8;"/>
     </g>
     <g id="line2d_16">
      <g>
       <use style="stroke:#000000;stroke-width:0.8;" x="54" xlink:href="#mebaac37afb" y="207.714846"/>
      </g>
     </g>
     <g id="text_9">
      <!-- −1500 -->
      <defs>
       <path d="M 10.796875 72.90625 
L 49.515625 72.90625 
L 49.515625 64.59375 
L 19.828125 64.59375 
L 19.828125 46.734375 
Q 21.96875 47.46875 24.109375 47.828125 
Q 26.265625 48.1875 28.421875 48.1875 
Q 40.625 48.1875 47.75 41.5 
Q 54.890625 34.8125 54.890625 23.390625 
Q 54.890625 11.625 47.5625 5.09375 
Q 40.234375 -1.421875 26.90625 -1.421875 
Q 22.3125 -1.421875 17.546875 -0.640625 
Q 12.796875 0.140625 7.71875 1.703125 
L 7.71875 11.625 
Q 12.109375 9.234375 16.796875 8.0625 
Q 21.484375 6.890625 26.703125 6.890625 
Q 35.15625 6.890625 40.078125 11.328125 
Q 45.015625 15.765625 45.015625 23.390625 
Q 45.015625 31 40.078125 35.4375 
Q 35.15625 39.890625 26.703125 39.890625 
Q 22.75 39.890625 18.8125 39.015625 
Q 14.890625 38.140625 10.796875 36.28125 
z
" id="DejaVuSans-35"/>
      </defs>
      <g transform="translate(13.170313 211.514064)scale(0.1 -0.1)">
       <use xlink:href="#DejaVuSans-2212"/>
       <use x="83.789062" xlink:href="#DejaVuSans-31"/>
       <use x="147.412109" xlink:href="#DejaVuSans-35"/>
       <use x="211.035156" xlink:href="#DejaVuSans-30"/>
       <use x="274.658203" xlink:href="#DejaVuSans-30"/>
      </g>
     </g>
    </g>
    <g id="ytick_3">
     <g id="line2d_17">
      <path clip-path="url(#p60e25b8021)" d="M 54 172.031417 
L 388.8 172.031417 
" style="fill:none;stroke:#b0b0b0;stroke-linecap:square;stroke-width:0.8;"/>
     </g>
     <g id="line2d_18">
      <g>
       <use style="stroke:#000000;stroke-width:0.8;" x="54" xlink:href="#mebaac37afb" y="172.031417"/>
      </g>
     </g>
     <g id="text_10">
      <!-- −1000 -->
      <g transform="translate(13.170313 175.830636)scale(0.1 -0.1)">
       <use xlink:href="#DejaVuSans-2212"/>
       <use x="83.789062" xlink:href="#DejaVuSans-31"/>
       <use x="147.412109" xlink:href="#DejaVuSans-30"/>
       <use x="211.035156" xlink:href="#DejaVuSans-30"/>
       <use x="274.658203" xlink:href="#DejaVuSans-30"/>
      </g>
     </g>
    </g>
    <g id="ytick_4">
     <g id="line2d_19">
      <path clip-path="url(#p60e25b8021)" d="M 54 136.347989 
L 388.8 136.347989 
" style="fill:none;stroke:#b0b0b0;stroke-linecap:square;stroke-width:0.8;"/>
     </g>
     <g id="line2d_20">
      <g>
       <use style="stroke:#000000;stroke-width:0.8;" x="54" xlink:href="#mebaac37afb" y="136.347989"/>
      </g>
     </g>
     <g id="text_11">
      <!-- −500 -->
      <g transform="translate(19.532812 140.147208)scale(0.1 -0.1)">
       <use xlink:href="#DejaVuSans-2212"/>
       <use x="83.789062" xlink:href="#DejaVuSans-35"/>
       <use x="147.412109" xlink:href="#DejaVuSans-30"/>
       <use x="211.035156" xlink:href="#DejaVuSans-30"/>
      </g>
     </g>
    </g>
    <g id="ytick_5">
     <g id="line2d_21">
      <path clip-path="url(#p60e25b8021)" d="M 54 100.664561 
L 388.8 100.664561 
" style="fill:none;stroke:#b0b0b0;stroke-linecap:square;stroke-width:0.8;"/>
     </g>
     <g id="line2d_22">
      <g>
       <use style="stroke:#000000;stroke-width:0.8;" x="54" xlink:href="#mebaac37afb" y="100.664561"/>
      </g>
     </g>
     <g id="text_12">
      <!-- 0 -->
      <g transform="translate(40.6375 104.46378)scale(0.1 -0.1)">
       <use xlink:href="#DejaVuSans-30"/>
      </g>
     </g>
    </g>
    <g id="ytick_6">
     <g id="line2d_23">
      <path clip-path="url(#p60e25b8021)" d="M 54 64.981133 
L 388.8 64.981133 
" style="fill:none;stroke:#b0b0b0;stroke-linecap:square;stroke-width:0.8;"/>
     </g>
     <g id="line2d_24">
      <g>
       <use style="stroke:#000000;stroke-width:0.8;" x="54" xlink:href="#mebaac37afb" y="64.981133"/>
      </g>
     </g>
     <g id="text_13">
      <!-- 500 -->
      <g transform="translate(27.9125 68.780351)scale(0.1 -0.1)">
       <use xlink:href="#DejaVuSans-35"/>
       <use x="63.623047" xlink:href="#DejaVuSans-30"/>
       <use x="127.246094" xlink:href="#DejaVuSans-30"/>
      </g>
     </g>
    </g>
    <g id="text_14">
     <!-- Kilowatts  -->
     <defs>
      <path d="M 9.8125 72.90625 
L 19.671875 72.90625 
L 19.671875 42.09375 
L 52.390625 72.90625 
L 65.09375 72.90625 
L 28.90625 38.921875 
L 67.671875 0 
L 54.6875 0 
L 19.671875 35.109375 
L 19.671875 0 
L 9.8125 0 
z
" id="DejaVuSans-4b"/>
      <path d="M 9.421875 54.6875 
L 18.40625 54.6875 
L 18.40625 0 
L 9.421875 0 
z
M 9.421875 75.984375 
L 18.40625 75.984375 
L 18.40625 64.59375 
L 9.421875 64.59375 
z
" id="DejaVuSans-69"/>
      <path d="M 9.421875 75.984375 
L 18.40625 75.984375 
L 18.40625 0 
L 9.421875 0 
z
" id="DejaVuSans-6c"/>
      <path d="M 4.203125 54.6875 
L 13.1875 54.6875 
L 24.421875 12.015625 
L 35.59375 54.6875 
L 46.1875 54.6875 
L 57.421875 12.015625 
L 68.609375 54.6875 
L 77.59375 54.6875 
L 63.28125 0 
L 52.6875 0 
L 40.921875 44.828125 
L 29.109375 0 
L 18.5 0 
z
" id="DejaVuSans-77"/>
      <path d="M 34.28125 27.484375 
Q 23.390625 27.484375 19.1875 25 
Q 14.984375 22.515625 14.984375 16.5 
Q 14.984375 11.71875 18.140625 8.90625 
Q 21.296875 6.109375 26.703125 6.109375 
Q 34.1875 6.109375 38.703125 11.40625 
Q 43.21875 16.703125 43.21875 25.484375 
L 43.21875 27.484375 
z
M 52.203125 31.203125 
L 52.203125 0 
L 43.21875 0 
L 43.21875 8.296875 
Q 40.140625 3.328125 35.546875 0.953125 
Q 30.953125 -1.421875 24.3125 -1.421875 
Q 15.921875 -1.421875 10.953125 3.296875 
Q 6 8.015625 6 15.921875 
Q 6 25.140625 12.171875 29.828125 
Q 18.359375 34.515625 30.609375 34.515625 
L 43.21875 34.515625 
L 43.21875 35.40625 
Q 43.21875 41.609375 39.140625 45 
Q 35.0625 48.390625 27.6875 48.390625 
Q 23 48.390625 18.546875 47.265625 
Q 14.109375 46.140625 10.015625 43.890625 
L 10.015625 52.203125 
Q 14.9375 54.109375 19.578125 55.046875 
Q 24.21875 56 28.609375 56 
Q 40.484375 56 46.34375 49.84375 
Q 52.203125 43.703125 52.203125 31.203125 
" id="DejaVuSans-61"/>
      <path d="M 18.3125 70.21875 
L 18.3125 54.6875 
L 36.8125 54.6875 
L 36.8125 47.703125 
L 18.3125 47.703125 
L 18.3125 18.015625 
Q 18.3125 11.328125 20.140625 9.421875 
Q 21.96875 7.515625 27.59375 7.515625 
L 36.8125 7.515625 
L 36.8125 0 
L 27.59375 0 
Q 17.1875 0 13.234375 3.875 
Q 9.28125 7.765625 9.28125 18.015625 
L 9.28125 47.703125 
L 2.6875 47.703125 
L 2.6875 54.6875 
L 9.28125 54.6875 
L 9.28125 70.21875 
z
" id="DejaVuSans-74"/>
      <path id="DejaVuSans-20"/>
     </defs>
     <g transform="translate(7.090625 167.663594)rotate(-90)scale(0.1 -0.1)">
      <use xlink:href="#DejaVuSans-4b"/>
      <use x="65.576172" xlink:href="#DejaVuSans-69"/>
      <use x="93.359375" xlink:href="#DejaVuSans-6c"/>
      <use x="121.142578" xlink:href="#DejaVuSans-6f"/>
      <use x="182.324219" xlink:href="#DejaVuSans-77"/>
      <use x="264.111328" xlink:href="#DejaVuSans-61"/>
      <use x="325.390625" xlink:href="#DejaVuSans-74"/>
      <use x="364.599609" xlink:href="#DejaVuSans-74"/>
      <use x="403.808594" xlink:href="#DejaVuSans-73"/>
      <use x="455.908203" xlink:href="#DejaVuSans-20"/>
     </g>
    </g>
   </g>
   <g id="line2d_25">
    <path clip-path="url(#p60e25b8021)" d="M 69.218182 106.923299 
L 69.52285 98.305415 
L 69.827518 95.073708 
L 70.436855 93.996473 
L 70.741523 93.996473 
L 71.046192 95.073708 
L 71.655528 95.073708 
L 71.960197 96.150944 
L 72.264865 96.689562 
L 72.569533 95.612326 
L 72.874201 96.150944 
L 73.17887 96.150944 
L 73.483538 97.228179 
L 73.788206 94.53509 
L 74.092875 95.612326 
L 74.397543 88.071677 
L 75.00688 95.612326 
L 75.311548 95.612326 
L 75.616216 95.073708 
L 75.920885 92.919237 
L 76.225553 95.612326 
L 76.530221 94.53509 
L 76.834889 95.612326 
L 77.139558 95.073708 
L 77.444226 97.766797 
L 77.748894 94.53509 
L 78.053563 100.459886 
L 78.358231 98.305415 
L 78.662899 98.844033 
L 78.967568 98.305415 
L 79.272236 99.38265 
L 79.576904 104.230211 
L 79.881572 99.921268 
L 80.186241 104.230211 
L 80.490909 97.766797 
L 80.795577 109.077771 
L 81.100246 99.921268 
L 81.404914 116.61842 
L 81.709582 106.384682 
L 82.014251 131.1611 
L 82.318919 117.157037 
L 82.623587 68.681437 
L 82.928256 74.067615 
L 83.232924 49.829814 
L 83.537592 62.756641 
L 83.84226 89.148913 
L 84.146929 95.612326 
L 84.451597 96.150944 
L 84.756265 95.073708 
L 85.060934 96.150944 
L 85.365602 95.073708 
L 85.974939 93.996473 
L 86.584275 93.996473 
L 86.888943 92.919237 
L 87.193612 92.919237 
L 87.802948 95.612326 
L 88.107617 95.073708 
L 88.412285 104.230211 
L 88.716953 95.612326 
L 89.021622 95.073708 
L 89.32629 93.996473 
L 89.630958 96.689562 
L 89.935627 95.073708 
L 90.240295 95.612326 
L 90.544963 92.919237 
L 90.849631 95.073708 
L 91.1543 92.380619 
L 91.458968 92.380619 
L 91.763636 91.303384 
L 92.068305 91.842001 
L 92.372973 91.303384 
L 92.677641 90.226148 
L 92.98231 87.533059 
L 93.591646 89.68753 
L 93.896314 87.533059 
L 94.200983 83.762735 
L 94.505651 85.378588 
L 94.810319 69.758672 
L 95.114988 66.526966 
L 95.419656 44.443636 
L 95.724324 134.392807 
L 96.028993 145.165162 
L 96.333661 146.242398 
L 96.638329 100.459886 
L 96.942998 93.457855 
L 97.247666 93.457855 
L 97.857002 95.612326 
L 98.466339 96.689562 
L 98.771007 95.612326 
L 99.075676 97.228179 
L 99.380344 97.228179 
L 99.685012 93.996473 
L 99.989681 94.53509 
L 100.294349 85.917206 
L 100.599017 95.612326 
L 100.903686 96.150944 
L 101.208354 95.612326 
L 101.513022 94.53509 
L 101.81769 96.150944 
L 102.122359 95.612326 
L 102.731695 96.689562 
L 103.036364 96.689562 
L 103.341032 96.150944 
L 103.950369 97.228179 
L 104.559705 99.38265 
L 104.864373 98.305415 
L 105.169042 97.766797 
L 105.47371 100.998504 
L 105.778378 102.614357 
L 106.083047 92.919237 
L 106.387715 104.230211 
L 106.692383 103.691593 
L 106.997052 102.075739 
L 107.30172 103.691593 
L 107.911057 117.695655 
L 108.215725 116.079802 
L 108.520393 98.305415 
L 108.825061 112.309477 
L 109.12973 114.463948 
L 109.739066 48.752579 
L 110.348403 91.842001 
L 110.653071 50.90705 
L 110.95774 78.915175 
L 111.262408 90.226148 
L 111.567076 91.303384 
L 112.176413 95.073708 
L 112.481081 93.996473 
L 113.090418 95.073708 
L 113.395086 95.073708 
L 113.699754 94.53509 
L 114.004423 96.689562 
L 114.309091 94.53509 
L 114.613759 95.073708 
L 114.918428 95.073708 
L 115.223096 95.612326 
L 115.527764 94.53509 
L 115.832432 95.073708 
L 116.137101 93.996473 
L 116.441769 94.53509 
L 116.746437 94.53509 
L 117.051106 95.612326 
L 117.355774 95.073708 
L 117.660442 95.612326 
L 117.965111 95.073708 
L 118.269779 95.073708 
L 118.574447 95.612326 
L 118.879115 95.073708 
L 119.183784 95.612326 
L 119.488452 94.53509 
L 119.79312 94.53509 
L 120.097789 95.073708 
L 120.402457 93.996473 
L 120.707125 95.073708 
L 121.011794 93.996473 
L 121.316462 94.53509 
L 121.62113 94.53509 
L 121.925799 95.073708 
L 122.230467 93.996473 
L 122.535135 94.53509 
L 123.44914 94.53509 
L 123.753808 95.073708 
L 124.363145 95.073708 
L 124.972482 93.996473 
L 125.27715 95.073708 
L 125.581818 97.766797 
L 125.886486 98.844033 
L 126.191155 93.996473 
L 126.495823 94.53509 
L 126.800491 93.457855 
L 127.10516 95.073708 
L 127.714496 95.073708 
L 128.019165 95.612326 
L 128.323833 95.612326 
L 128.628501 93.457855 
L 129.237838 94.53509 
L 129.542506 93.996473 
L 129.847174 95.612326 
L 130.151843 94.53509 
L 130.456511 95.073708 
L 130.761179 93.457855 
L 131.065848 94.53509 
L 131.370516 94.53509 
L 131.675184 95.073708 
L 131.979853 94.53509 
L 132.284521 94.53509 
L 132.589189 95.073708 
L 132.893857 93.996473 
L 133.198526 94.53509 
L 133.503194 94.53509 
L 133.807862 93.996473 
L 134.112531 94.53509 
L 134.417199 92.919237 
L 134.721867 95.073708 
L 135.026536 94.53509 
L 135.331204 96.150944 
L 135.635872 93.996473 
L 135.940541 94.53509 
L 136.245209 94.53509 
L 136.549877 93.996473 
L 137.159214 93.996473 
L 137.463882 93.457855 
L 137.76855 93.996473 
L 138.073219 93.457855 
L 138.682555 89.68753 
L 138.987224 92.919237 
L 139.59656 95.073708 
L 139.901229 92.919237 
L 140.205897 93.996473 
L 140.510565 93.996473 
L 140.815233 94.53509 
L 141.119902 94.53509 
L 141.729238 95.612326 
L 142.033907 95.612326 
L 142.338575 94.53509 
L 142.643243 95.612326 
L 142.947912 94.53509 
L 143.25258 95.073708 
L 143.861916 95.073708 
L 144.166585 94.53509 
L 144.471253 95.073708 
L 144.775921 93.996473 
L 145.08059 94.53509 
L 145.689926 94.53509 
L 145.994595 93.996473 
L 146.299263 93.996473 
L 146.603931 95.073708 
L 146.9086 93.457855 
L 147.213268 93.457855 
L 147.517936 93.996473 
L 147.822604 93.996473 
L 148.127273 92.919237 
L 148.431941 93.996473 
L 148.736609 93.996473 
L 149.041278 94.53509 
L 149.345946 93.457855 
L 149.650614 93.996473 
L 149.955283 93.996473 
L 150.259951 94.53509 
L 150.564619 93.996473 
L 150.869287 95.073708 
L 151.173956 95.073708 
L 151.478624 96.150944 
L 151.783292 93.996473 
L 152.087961 95.073708 
L 152.392629 95.612326 
L 152.697297 94.53509 
L 153.001966 95.612326 
L 153.306634 95.612326 
L 153.611302 93.996473 
L 153.915971 94.53509 
L 154.220639 94.53509 
L 154.525307 93.996473 
L 154.829975 95.612326 
L 155.439312 94.53509 
L 155.74398 93.457855 
L 156.048649 93.457855 
L 156.353317 95.073708 
L 156.657985 92.919237 
L 156.962654 94.53509 
L 157.267322 109.616388 
L 157.57199 79.453792 
L 157.876658 95.612326 
L 158.181327 95.073708 
L 158.485995 93.996473 
L 158.790663 94.53509 
L 159.095332 93.457855 
L 159.4 92.919237 
L 159.704668 93.996473 
L 160.314005 95.073708 
L 160.618673 96.150944 
L 160.923342 95.612326 
L 161.532678 95.612326 
L 161.837346 98.844033 
L 162.142015 93.996473 
L 162.446683 98.844033 
L 162.751351 95.073708 
L 163.05602 99.921268 
L 163.360688 115.002566 
L 163.665356 88.071677 
L 163.970025 90.226148 
L 164.274693 97.766797 
L 164.579361 91.303384 
L 164.884029 92.380619 
L 165.188698 95.073708 
L 165.493366 91.303384 
L 165.798034 113.925331 
L 166.102703 91.303384 
L 166.407371 77.299321 
L 166.712039 106.384682 
L 167.016708 105.307446 
L 167.321376 97.228179 
L 167.626044 95.073708 
L 167.930713 108.539153 
L 168.235381 77.299321 
L 168.540049 141.933456 
L 168.844717 83.224117 
L 169.149386 112.848095 
L 169.454054 108.539153 
L 169.758722 110.693624 
L 170.063391 78.915175 
L 170.368059 111.232242 
L 170.672727 104.768828 
L 170.977396 112.309477 
L 171.282064 62.218023 
L 171.586732 117.157037 
L 171.8914 82.146881 
L 172.196069 88.610295 
L 172.500737 91.842001 
L 172.805405 96.689562 
L 173.110074 86.994441 
L 173.414742 96.689562 
L 173.71941 92.919237 
L 174.024079 109.077771 
L 174.328747 77.837939 
L 174.633415 106.923299 
L 174.938084 79.99241 
L 175.242752 106.923299 
L 175.54742 88.071677 
L 175.852088 88.610295 
L 176.156757 88.071677 
L 176.461425 110.693624 
L 177.070762 85.378588 
L 177.37543 91.842001 
L 177.680098 118.234273 
L 178.289435 82.146881 
L 178.898771 117.695655 
L 179.20344 83.224117 
L 179.508108 88.071677 
L 179.812776 84.301352 
L 180.117445 102.075739 
L 180.422113 97.766797 
L 180.726781 87.533059 
L 181.03145 106.923299 
L 181.336118 96.689562 
L 181.640786 105.307446 
L 181.945455 83.762735 
L 182.250123 102.075739 
L 182.554791 103.152975 
L 182.859459 76.222086 
L 183.164128 106.384682 
L 183.773464 96.689562 
L 184.078133 86.455824 
L 184.382801 83.762735 
L 184.687469 110.693624 
L 184.992138 99.921268 
L 185.296806 73.528997 
L 185.601474 108.000535 
L 186.210811 94.53509 
L 186.515479 70.835908 
L 186.820147 94.53509 
L 187.124816 100.459886 
L 187.429484 90.764766 
L 187.734152 88.071677 
L 188.038821 95.073708 
L 188.343489 96.150944 
L 188.648157 105.307446 
L 188.952826 77.837939 
L 189.257494 98.844033 
L 189.562162 91.303384 
L 189.86683 96.150944 
L 190.171499 83.762735 
L 190.476167 102.075739 
L 190.780835 85.917206 
L 191.085504 92.380619 
L 191.390172 78.915175 
L 191.69484 100.459886 
L 191.999509 85.917206 
L 192.304177 88.610295 
L 192.608845 95.073708 
L 192.913514 98.305415 
L 193.218182 90.764766 
L 193.52285 91.842001 
L 193.827518 88.610295 
L 194.132187 95.073708 
L 194.436855 95.073708 
L 194.741523 93.996473 
L 195.046192 96.150944 
L 195.35086 90.764766 
L 195.655528 95.612326 
L 195.960197 92.380619 
L 196.264865 93.457855 
L 196.569533 95.073708 
L 196.874201 92.380619 
L 197.17887 96.150944 
L 197.483538 91.303384 
L 197.788206 95.612326 
L 198.092875 93.457855 
L 198.397543 96.689562 
L 198.702211 88.071677 
L 199.00688 98.844033 
L 199.311548 91.303384 
L 199.616216 97.766797 
L 199.920885 89.148913 
L 200.225553 97.228179 
L 200.530221 92.380619 
L 200.834889 97.228179 
L 201.139558 90.226148 
L 201.444226 93.457855 
L 201.748894 91.303384 
L 202.053563 97.228179 
L 202.358231 89.68753 
L 202.662899 91.842001 
L 203.576904 95.073708 
L 203.881572 91.842001 
L 204.186241 92.380619 
L 204.490909 95.073708 
L 204.795577 92.380619 
L 205.100246 92.919237 
L 205.404914 91.842001 
L 205.709582 92.919237 
L 206.014251 91.842001 
L 206.623587 92.919237 
L 206.928256 93.996473 
L 207.232924 93.996473 
L 207.537592 95.073708 
L 207.84226 93.996473 
L 208.146929 95.612326 
L 208.451597 94.53509 
L 208.756265 95.073708 
L 209.060934 94.53509 
L 209.67027 94.53509 
L 209.974939 93.996473 
L 210.279607 102.075739 
L 210.584275 95.612326 
L 210.888943 93.457855 
L 211.193612 95.073708 
L 211.49828 92.380619 
L 211.802948 92.380619 
L 212.107617 91.842001 
L 212.412285 93.996473 
L 212.716953 93.457855 
L 213.021622 93.996473 
L 213.32629 93.457855 
L 213.630958 94.53509 
L 213.935627 95.073708 
L 214.544963 95.073708 
L 214.849631 96.150944 
L 215.1543 95.612326 
L 215.458968 96.150944 
L 215.763636 92.380619 
L 216.068305 85.917206 
L 216.372973 71.374526 
L 216.677641 47.136725 
L 216.98231 71.374526 
L 217.286978 70.29729 
L 217.591646 109.616388 
L 217.896314 119.311509 
L 218.200983 122.543215 
L 218.505651 95.073708 
L 218.810319 111.232242 
L 219.114988 105.846064 
L 219.419656 103.691593 
L 219.724324 105.846064 
L 220.028993 96.689562 
L 220.333661 103.691593 
L 220.638329 98.844033 
L 220.942998 98.305415 
L 221.247666 99.38265 
L 221.552334 97.766797 
L 221.857002 100.459886 
L 222.161671 95.612326 
L 222.466339 97.766797 
L 222.771007 98.844033 
L 223.075676 96.689562 
L 223.380344 97.766797 
L 223.685012 96.689562 
L 223.989681 99.38265 
L 224.294349 93.996473 
L 224.599017 96.689562 
L 224.903686 96.689562 
L 225.208354 96.150944 
L 225.513022 94.53509 
L 225.81769 95.612326 
L 226.427027 96.689562 
L 226.731695 95.073708 
L 227.036364 95.612326 
L 227.6457 95.612326 
L 228.255037 94.53509 
L 228.559705 96.150944 
L 228.864373 95.612326 
L 229.169042 95.612326 
L 229.47371 93.996473 
L 229.778378 96.150944 
L 230.083047 95.073708 
L 230.387715 93.457855 
L 230.692383 96.150944 
L 230.997052 96.150944 
L 231.30172 95.612326 
L 231.606388 95.612326 
L 231.911057 95.073708 
L 232.215725 95.612326 
L 232.520393 95.073708 
L 232.825061 95.073708 
L 233.12973 93.457855 
L 233.434398 94.53509 
L 233.739066 94.53509 
L 234.043735 93.457855 
L 234.348403 95.612326 
L 234.653071 93.996473 
L 234.95774 95.612326 
L 235.567076 94.53509 
L 235.871744 94.53509 
L 236.176413 96.150944 
L 236.481081 92.919237 
L 236.785749 91.842001 
L 237.090418 96.689562 
L 237.395086 92.919237 
L 237.699754 94.53509 
L 238.004423 95.073708 
L 238.613759 93.996473 
L 238.918428 91.842001 
L 239.223096 93.996473 
L 239.527764 93.996473 
L 239.832432 94.53509 
L 240.137101 94.53509 
L 240.441769 93.996473 
L 240.746437 96.150944 
L 241.051106 91.842001 
L 241.660442 97.766797 
L 241.965111 93.996473 
L 242.269779 96.689562 
L 242.574447 95.612326 
L 242.879115 93.457855 
L 243.183784 96.150944 
L 243.488452 93.996473 
L 243.79312 98.305415 
L 244.097789 93.457855 
L 244.402457 94.53509 
L 244.707125 94.53509 
L 245.011794 93.996473 
L 245.316462 95.073708 
L 245.62113 95.073708 
L 245.925799 93.996473 
L 246.230467 93.996473 
L 246.535135 96.689562 
L 246.839803 93.996473 
L 247.144472 95.073708 
L 247.44914 92.380619 
L 247.753808 93.996473 
L 248.058477 94.53509 
L 248.363145 93.996473 
L 248.667813 94.53509 
L 248.972482 96.150944 
L 249.27715 95.073708 
L 249.581818 94.53509 
L 249.886486 94.53509 
L 250.191155 95.612326 
L 250.495823 94.53509 
L 250.800491 95.073708 
L 251.10516 94.53509 
L 251.409828 94.53509 
L 251.714496 95.612326 
L 252.019165 93.457855 
L 252.323833 93.457855 
L 252.628501 95.612326 
L 252.93317 94.53509 
L 253.237838 96.150944 
L 253.542506 91.303384 
L 253.847174 94.53509 
L 254.151843 95.073708 
L 254.456511 91.842001 
L 254.761179 93.996473 
L 255.065848 93.457855 
L 255.370516 92.380619 
L 255.675184 93.457855 
L 255.979853 93.457855 
L 256.284521 96.150944 
L 256.589189 91.842001 
L 257.198526 95.073708 
L 257.503194 91.303384 
L 257.807862 95.073708 
L 258.112531 93.457855 
L 258.417199 96.150944 
L 258.721867 92.919237 
L 259.331204 93.996473 
L 259.940541 93.996473 
L 260.245209 94.53509 
L 260.549877 92.919237 
L 260.854545 94.53509 
L 261.159214 92.919237 
L 261.463882 96.150944 
L 261.76855 92.919237 
L 262.073219 95.612326 
L 262.377887 92.919237 
L 262.682555 94.53509 
L 262.987224 94.53509 
L 263.291892 95.612326 
L 263.59656 93.996473 
L 263.901229 95.612326 
L 264.205897 94.53509 
L 264.510565 95.612326 
L 264.815233 92.919237 
L 265.119902 95.073708 
L 265.42457 93.996473 
L 265.729238 95.612326 
L 266.033907 93.457855 
L 266.338575 95.073708 
L 266.643243 95.612326 
L 266.947912 95.073708 
L 267.25258 93.996473 
L 267.861916 95.073708 
L 268.166585 95.073708 
L 268.471253 93.996473 
L 268.775921 96.689562 
L 269.08059 94.53509 
L 269.385258 95.073708 
L 269.689926 93.996473 
L 269.994595 95.612326 
L 270.603931 94.53509 
L 270.9086 94.53509 
L 271.213268 95.073708 
L 271.517936 94.53509 
L 271.822604 95.073708 
L 272.127273 93.996473 
L 272.431941 95.612326 
L 272.736609 94.53509 
L 273.345946 95.612326 
L 273.650614 95.612326 
L 274.259951 93.457855 
L 274.564619 93.996473 
L 274.869287 95.612326 
L 275.173956 96.150944 
L 275.478624 95.612326 
L 275.783292 91.842001 
L 276.087961 96.150944 
L 276.392629 92.380619 
L 276.697297 96.150944 
L 277.001966 92.919237 
L 277.306634 93.996473 
L 277.915971 93.996473 
L 278.220639 91.303384 
L 278.525307 95.612326 
L 278.829975 92.919237 
L 279.134644 91.842001 
L 279.439312 93.457855 
L 279.74398 92.380619 
L 280.048649 89.148913 
L 280.353317 92.380619 
L 280.657985 91.303384 
L 280.962654 95.073708 
L 281.267322 90.764766 
L 281.57199 88.071677 
L 281.876658 93.457855 
L 282.181327 86.455824 
L 282.485995 86.455824 
L 282.790663 87.533059 
L 283.095332 90.764766 
L 283.4 86.455824 
L 283.704668 74.606232 
L 284.009337 83.762735 
L 284.314005 79.99241 
L 284.618673 74.067615 
L 284.923342 59.524934 
L 285.532678 136.547278 
L 285.837346 124.697686 
L 286.142015 130.622482 
L 286.446683 111.232242 
L 286.751351 100.998504 
L 287.05602 95.612326 
L 287.360688 93.457855 
L 287.665356 92.919237 
L 287.970025 93.996473 
L 288.274693 92.919237 
L 288.579361 93.457855 
L 288.884029 95.073708 
L 289.188698 93.996473 
L 289.493366 94.53509 
L 289.798034 93.996473 
L 290.102703 96.150944 
L 290.407371 96.689562 
L 291.016708 94.53509 
L 291.321376 95.073708 
L 291.626044 94.53509 
L 291.930713 85.378588 
L 292.235381 93.996473 
L 292.540049 96.150944 
L 292.844717 94.53509 
L 293.149386 96.150944 
L 293.454054 93.996473 
L 293.758722 96.150944 
L 294.063391 94.53509 
L 294.368059 94.53509 
L 294.672727 96.689562 
L 294.977396 93.996473 
L 295.282064 97.228179 
L 295.586732 97.228179 
L 295.8914 96.150944 
L 296.196069 95.612326 
L 296.500737 97.228179 
L 296.805405 97.228179 
L 297.110074 98.844033 
L 297.414742 96.689562 
L 297.71941 98.844033 
L 298.024079 96.689562 
L 298.328747 100.998504 
L 298.633415 94.53509 
L 298.938084 102.614357 
L 299.242752 96.689562 
L 299.54742 100.459886 
L 299.852088 99.921268 
L 300.156757 105.307446 
L 300.461425 102.614357 
L 301.070762 99.921268 
L 301.37543 129.006629 
L 301.680098 98.305415 
L 301.984767 116.61842 
L 302.289435 97.228179 
L 302.594103 112.309477 
L 302.898771 78.915175 
L 303.20344 65.44973 
L 303.508108 84.301352 
L 303.812776 67.604201 
L 304.117445 61.140788 
L 304.422113 82.685499 
L 304.726781 82.685499 
L 305.03145 90.226148 
L 305.336118 92.919237 
L 305.640786 93.457855 
L 305.945455 94.53509 
L 306.250123 93.457855 
L 306.554791 82.685499 
L 306.859459 105.846064 
L 307.164128 89.68753 
L 307.468796 97.228179 
L 307.773464 95.612326 
L 308.078133 96.150944 
L 308.382801 95.073708 
L 308.687469 94.53509 
L 308.992138 93.457855 
L 309.296806 93.996473 
L 309.906143 93.996473 
L 310.210811 104.230211 
L 310.515479 126.852158 
L 310.820147 92.919237 
L 311.124816 99.921268 
L 311.429484 99.921268 
L 311.734152 96.689562 
L 312.038821 95.612326 
L 312.343489 95.073708 
L 312.952826 95.073708 
L 313.257494 94.53509 
L 313.562162 96.150944 
L 313.86683 95.612326 
L 314.171499 95.612326 
L 314.476167 94.53509 
L 314.780835 95.612326 
L 315.085504 95.073708 
L 315.390172 95.073708 
L 315.69484 94.53509 
L 315.999509 95.073708 
L 316.304177 95.073708 
L 316.608845 95.612326 
L 316.913514 93.457855 
L 317.218182 95.612326 
L 317.52285 95.073708 
L 317.827518 95.073708 
L 318.132187 94.53509 
L 318.436855 93.457855 
L 318.741523 95.612326 
L 319.046192 95.073708 
L 319.35086 95.073708 
L 319.655528 96.689562 
L 319.960197 100.998504 
L 320.264865 101.537122 
L 320.874201 96.689562 
L 321.17887 112.309477 
L 321.483538 96.689562 
L 321.788206 119.850126 
L 322.092875 100.459886 
L 322.397543 110.693624 
L 322.702211 135.470042 
L 323.00688 78.915175 
L 323.311548 110.693624 
L 323.616216 69.220054 
L 323.920885 126.31354 
L 324.530221 67.065583 
L 324.834889 99.921268 
L 325.139558 85.917206 
L 325.444226 110.155006 
L 325.748894 65.44973 
L 326.053563 108.000535 
L 326.358231 105.846064 
L 326.662899 81.608264 
L 326.967568 99.38265 
L 327.272236 71.374526 
L 327.576904 81.608264 
L 327.881572 65.44973 
L 328.186241 85.917206 
L 328.490909 96.150944 
L 328.795577 88.071677 
L 329.100246 91.842001 
L 329.404914 93.457855 
L 329.709582 96.150944 
L 330.014251 95.073708 
L 330.318919 95.612326 
L 330.928256 95.612326 
L 331.232924 94.53509 
L 331.537592 98.844033 
L 331.84226 99.921268 
L 332.146929 93.996473 
L 332.451597 91.842001 
L 332.756265 95.073708 
L 333.060934 96.150944 
L 333.365602 95.073708 
L 333.67027 91.842001 
L 333.974939 94.53509 
L 334.584275 97.766797 
L 335.193612 96.689562 
L 335.49828 93.996473 
L 335.802948 103.152975 
L 336.412285 92.919237 
L 336.716953 93.457855 
L 337.021622 93.457855 
L 337.32629 95.612326 
L 337.630958 95.612326 
L 337.935627 93.457855 
L 338.240295 93.457855 
L 338.544963 94.53509 
L 338.849631 90.226148 
L 339.1543 92.919237 
L 339.458968 90.764766 
L 339.763636 91.303384 
L 340.068305 90.226148 
L 340.372973 90.764766 
L 340.677641 90.226148 
L 340.98231 82.685499 
L 341.286978 87.533059 
L 341.591646 95.612326 
L 341.896314 86.455824 
L 342.200983 71.913143 
L 342.505651 73.528997 
L 342.810319 72.451761 
L 343.114988 62.756641 
L 343.419656 102.614357 
L 343.724324 111.77086 
L 344.028993 157.553371 
L 344.333661 117.157037 
L 344.638329 93.996473 
L 344.942998 91.303384 
L 345.247666 96.150944 
L 345.552334 97.766797 
L 345.857002 94.53509 
L 346.161671 61.679405 
L 346.466339 82.685499 
L 346.771007 90.226148 
L 347.075676 142.472073 
L 347.380344 53.061521 
L 347.685012 78.915175 
L 347.989681 62.218023 
L 348.294349 83.224117 
L 348.599017 93.457855 
L 348.903686 92.919237 
L 349.208354 91.842001 
L 349.513022 95.612326 
L 349.81769 93.996473 
L 350.731695 99.38265 
L 351.036364 98.305415 
L 351.341032 98.305415 
L 351.6457 99.38265 
L 351.950369 103.691593 
L 352.255037 102.614357 
L 352.559705 106.923299 
L 352.864373 132.776953 
L 353.169042 97.766797 
L 353.47371 242.116364 
L 353.778378 45.520872 
L 354.083047 140.85622 
L 354.387715 45.520872 
L 354.692383 47.675343 
L 355.30172 97.228179 
L 355.606388 105.307446 
L 355.911057 102.614357 
L 356.215725 102.075739 
L 356.520393 93.457855 
L 356.825061 94.53509 
L 357.12973 89.148913 
L 357.434398 93.457855 
L 357.739066 92.380619 
L 358.043735 93.457855 
L 358.348403 93.996473 
L 358.653071 96.150944 
L 358.95774 100.998504 
L 359.262408 92.919237 
L 359.871744 92.919237 
L 360.176413 95.073708 
L 360.785749 93.996473 
L 361.090418 95.612326 
L 361.395086 92.919237 
L 361.699754 94.53509 
L 362.004423 94.53509 
L 362.309091 99.921268 
L 362.613759 99.38265 
L 362.918428 106.384682 
L 363.223096 108.539153 
L 363.527764 93.457855 
L 363.832432 93.996473 
L 364.137101 91.303384 
L 364.441769 95.073708 
L 364.746437 92.380619 
L 365.051106 92.919237 
L 365.355774 91.842001 
L 365.660442 91.842001 
L 365.965111 85.378588 
L 366.269779 91.303384 
L 366.574447 84.301352 
L 366.879115 96.689562 
L 367.183784 82.685499 
L 367.488452 92.380619 
L 367.79312 91.303384 
L 368.402457 77.837939 
L 368.707125 85.378588 
L 369.011794 98.844033 
L 369.316462 78.915175 
L 369.62113 85.917206 
L 369.925799 72.990379 
L 370.230467 81.608264 
L 370.535135 102.075739 
L 370.839803 82.685499 
L 371.144472 112.848095 
L 371.44914 123.620451 
L 371.753808 93.996473 
L 372.058477 143.010691 
L 372.363145 92.380619 
L 372.667813 110.693624 
L 373.27715 100.998504 
L 373.581818 97.228179 
L 373.581818 97.228179 
" style="fill:none;stroke:#ff0000;stroke-linecap:square;stroke-width:0.3;"/>
   </g>
   <g id="line2d_26">
    <path clip-path="url(#p60e25b8021)" d="M 69.218182 107.11649 
L 69.52285 98.252696 
L 69.827518 95.513669 
L 70.132187 94.258282 
L 70.741523 94.068072 
L 71.046192 95.285417 
L 71.35086 94.981081 
L 71.655528 95.057165 
L 71.960197 95.323459 
L 72.264865 96.160384 
L 72.569533 95.89409 
L 72.874201 96.921225 
L 73.17887 96.27451 
L 73.483538 97.035351 
L 73.788206 94.296324 
L 74.092875 95.475627 
L 74.397543 90.1117 
L 75.00688 96.122342 
L 75.311548 95.856048 
L 75.616216 96.312552 
L 75.920885 94.144156 
L 76.225553 96.65493 
L 76.530221 95.513669 
L 76.834889 96.692972 
L 77.139558 96.122342 
L 77.444226 98.252696 
L 77.748894 95.209333 
L 78.053563 99.964587 
L 78.358231 99.355915 
L 78.662899 99.127663 
L 78.967568 97.339687 
L 79.272236 99.127663 
L 79.576904 103.19816 
L 79.881572 99.584167 
L 80.186241 103.426413 
L 80.490909 98.13857 
L 80.795577 108.524045 
L 81.100246 101.258017 
L 81.404914 116.018326 
L 81.709582 106.013271 
L 82.014251 127.849399 
L 82.318919 115.752032 
L 82.623587 70.786347 
L 82.928256 75.503559 
L 83.232924 54.504356 
L 83.537592 65.460462 
L 83.84226 90.301911 
L 84.146929 95.057165 
L 84.451597 95.856048 
L 85.060934 95.779964 
L 85.365602 94.981081 
L 85.974939 94.904997 
L 86.584275 93.117021 
L 87.193612 93.535484 
L 87.49828 94.296324 
L 87.802948 96.122342 
L 88.107617 95.818006 
L 88.412285 101.942773 
L 88.716953 94.828913 
L 89.021622 94.752829 
L 89.32629 93.497442 
L 89.630958 96.008216 
L 89.935627 94.638703 
L 90.240295 95.285417 
L 90.544963 93.64961 
L 90.849631 95.856048 
L 91.1543 93.687652 
L 91.458968 93.535484 
L 91.763636 92.013802 
L 92.068305 92.584433 
L 92.372973 91.671424 
L 92.677641 91.747508 
L 92.98231 89.198692 
L 93.286978 90.035616 
L 93.591646 89.883448 
L 93.896314 87.829178 
L 94.200983 84.139101 
L 94.505651 85.698824 
L 94.810319 71.433062 
L 95.114988 69.873338 
L 95.419656 49.673018 
L 95.724324 130.322131 
L 96.028993 140.59348 
L 96.333661 144.70202 
L 96.638329 100.002629 
L 96.942998 94.904997 
L 97.247666 94.790871 
L 97.857002 95.970174 
L 98.161671 95.970174 
L 98.466339 96.959267 
L 98.771007 97.187519 
L 99.075676 99.508083 
L 99.380344 98.937452 
L 99.685012 95.399543 
L 99.989681 95.627795 
L 100.294349 89.883448 
L 100.599017 97.720107 
L 100.903686 96.692972 
L 101.208354 96.616888 
L 101.513022 95.589753 
L 101.81769 96.959267 
L 102.122359 96.27451 
L 102.427027 97.605981 
L 102.731695 97.225561 
L 103.036364 98.252696 
L 103.341032 97.187519 
L 103.6457 98.290738 
L 103.950369 98.024444 
L 104.559705 99.317873 
L 105.169042 97.644023 
L 105.778378 102.703614 
L 106.083047 93.915904 
L 106.387715 104.225295 
L 106.692383 103.464455 
L 106.997052 101.904731 
L 107.30172 103.540539 
L 107.911057 116.512872 
L 108.215725 115.295527 
L 108.520393 98.32878 
L 108.825061 112.214122 
L 109.12973 114.002098 
L 109.739066 54.314146 
L 110.348403 93.64961 
L 110.653071 55.036945 
L 110.95774 80.867486 
L 111.262408 91.291004 
L 111.567076 93.801778 
L 111.871744 94.486534 
L 112.176413 95.589753 
L 112.481081 95.057165 
L 112.785749 96.008216 
L 113.090418 95.818006 
L 113.395086 96.27451 
L 113.699754 95.209333 
L 114.004423 96.540804 
L 114.309091 95.247375 
L 114.613759 96.198426 
L 114.918428 95.856048 
L 115.223096 95.779964 
L 115.527764 95.209333 
L 115.832432 95.513669 
L 116.137101 94.866955 
L 116.441769 95.932132 
L 116.746437 95.209333 
L 117.051106 95.589753 
L 117.355774 94.334366 
L 117.660442 95.209333 
L 117.965111 95.323459 
L 118.269779 95.70388 
L 118.574447 94.866955 
L 118.879115 94.600661 
L 119.183784 95.285417 
L 119.79312 94.486534 
L 120.097789 95.285417 
L 120.402457 94.714787 
L 120.707125 95.70388 
L 121.011794 94.866955 
L 121.316462 94.562618 
L 121.62113 94.790871 
L 121.925799 94.448492 
L 122.535135 95.057165 
L 122.839803 94.904997 
L 123.144472 95.437585 
L 123.44914 95.627795 
L 123.753808 95.247375 
L 124.058477 95.70388 
L 124.363145 96.426678 
L 124.667813 95.285417 
L 124.972482 96.008216 
L 125.27715 95.856048 
L 125.581818 98.32878 
L 125.886486 97.910318 
L 126.191155 94.943039 
L 126.495823 94.943039 
L 126.800491 94.752829 
L 127.10516 95.247375 
L 127.714496 94.638703 
L 128.019165 95.437585 
L 128.323833 95.437585 
L 128.93317 95.285417 
L 129.237838 95.247375 
L 129.542506 94.486534 
L 129.847174 95.475627 
L 130.151843 95.437585 
L 130.456511 95.589753 
L 130.761179 94.182198 
L 131.065848 95.513669 
L 131.370516 95.818006 
L 131.675184 95.627795 
L 131.979853 94.676745 
L 132.589189 95.323459 
L 132.893857 94.981081 
L 133.198526 95.095207 
L 133.503194 95.057165 
L 133.807862 95.171291 
L 134.112531 95.057165 
L 134.417199 94.562618 
L 134.721867 95.70388 
L 135.026536 94.790871 
L 135.331204 96.388636 
L 135.635872 94.22024 
L 135.940541 95.437585 
L 136.245209 95.665837 
L 136.549877 95.741922 
L 136.854545 95.361501 
L 137.159214 94.486534 
L 137.463882 94.486534 
L 137.76855 95.513669 
L 138.073219 94.943039 
L 138.682555 90.796457 
L 138.987224 94.106114 
L 139.291892 94.144156 
L 139.59656 95.399543 
L 139.901229 93.64961 
L 140.205897 94.334366 
L 140.510565 94.638703 
L 140.815233 94.524576 
L 141.119902 95.89409 
L 141.42457 96.502762 
L 141.729238 95.89409 
L 142.033907 96.122342 
L 142.338575 95.818006 
L 142.643243 95.932132 
L 142.947912 95.361501 
L 143.25258 95.970174 
L 143.557248 94.486534 
L 143.861916 95.589753 
L 144.166585 95.399543 
L 144.471253 95.437585 
L 144.775921 94.486534 
L 145.385258 94.714787 
L 145.689926 95.095207 
L 145.994595 94.486534 
L 146.299263 94.828913 
L 146.603931 94.866955 
L 146.9086 95.019123 
L 147.213268 94.562618 
L 147.517936 95.475627 
L 148.127273 94.752829 
L 148.431941 95.323459 
L 148.736609 94.600661 
L 149.041278 94.600661 
L 149.345946 95.019123 
L 149.955283 94.752829 
L 150.259951 95.095207 
L 150.564619 95.095207 
L 150.869287 94.828913 
L 151.173956 95.285417 
L 151.478624 96.008216 
L 151.783292 94.866955 
L 152.087961 95.019123 
L 152.392629 95.70388 
L 152.697297 95.171291 
L 153.001966 95.932132 
L 153.306634 96.046258 
L 153.611302 94.714787 
L 153.915971 95.057165 
L 154.220639 94.334366 
L 154.525307 94.448492 
L 154.829975 95.551711 
L 155.134644 95.856048 
L 155.439312 95.513669 
L 156.048649 94.334366 
L 156.353317 94.676745 
L 156.657985 94.258282 
L 156.962654 95.057165 
L 157.267322 110.920693 
L 157.57199 79.574057 
L 157.876658 95.437585 
L 158.485995 94.828913 
L 158.790663 94.866955 
L 159.095332 94.03003 
L 160.009337 95.475627 
L 160.314005 95.627795 
L 160.923342 95.589753 
L 161.22801 95.779964 
L 161.532678 95.285417 
L 161.837346 98.252696 
L 162.142015 95.057165 
L 162.446683 98.252696 
L 162.751351 94.828913 
L 163.05602 99.584167 
L 163.360688 114.724897 
L 163.665356 88.247641 
L 163.970025 89.312818 
L 164.274693 98.214654 
L 164.579361 91.557298 
L 164.884029 92.546391 
L 165.188698 95.019123 
L 165.493366 90.454079 
L 165.798034 114.458602 
L 166.102703 92.16597 
L 166.407371 78.965384 
L 166.712039 106.317607 
L 167.016708 106.203481 
L 167.321376 97.263603 
L 167.626044 95.513669 
L 167.930713 107.420826 
L 168.235381 77.443703 
L 168.540049 138.691378 
L 168.844717 83.340218 
L 169.149386 110.996777 
L 169.454054 106.92628 
L 169.758722 108.942508 
L 170.063391 80.144687 
L 170.368059 109.969642 
L 170.672727 102.855782 
L 170.977396 110.502231 
L 171.282064 63.938781 
L 171.586732 114.610771 
L 171.8914 81.780495 
L 172.196069 88.361767 
L 172.500737 91.633382 
L 172.805405 96.122342 
L 173.110074 87.258548 
L 173.414742 95.932132 
L 173.71941 93.193105 
L 174.024079 106.393691 
L 174.328747 77.862165 
L 174.633415 105.138304 
L 174.938084 80.487066 
L 175.242752 105.937187 
L 175.54742 88.209599 
L 175.852088 89.046523 
L 176.156757 87.905262 
L 176.461425 109.437054 
L 177.070762 86.041203 
L 177.37543 92.318138 
L 177.680098 116.28462 
L 178.289435 81.818537 
L 178.898771 116.779167 
L 179.20344 84.481479 
L 179.508108 87.030296 
L 179.812776 83.834765 
L 180.117445 100.497176 
L 180.422113 96.27451 
L 180.726781 87.67701 
L 181.03145 105.44264 
L 181.336118 96.616888 
L 181.640786 104.6818 
L 181.945455 84.405395 
L 182.250123 100.497176 
L 182.554791 101.448227 
L 182.859459 75.655727 
L 183.164128 103.426413 
L 183.468796 100.915638 
L 184.382801 83.073924 
L 184.687469 107.68712 
L 184.992138 98.633116 
L 185.296806 73.943836 
L 185.601474 105.632851 
L 186.210811 94.22024 
L 186.515479 72.231944 
L 186.820147 93.991988 
L 187.124816 100.57326 
L 187.429484 90.416037 
L 187.734152 88.475893 
L 188.038821 95.551711 
L 188.343489 95.513669 
L 188.648157 103.616623 
L 188.952826 79.231679 
L 189.257494 98.89941 
L 189.562162 91.214919 
L 189.86683 96.236468 
L 190.171499 84.405395 
L 190.476167 100.57326 
L 190.780835 86.383581 
L 191.085504 91.747508 
L 191.390172 79.459931 
L 191.69484 98.89941 
L 191.999509 86.003161 
L 192.304177 88.704145 
L 192.608845 93.953946 
L 192.913514 96.692972 
L 193.218182 89.464986 
L 193.52285 90.644289 
L 193.827518 88.247641 
L 194.132187 94.372408 
L 194.436855 95.209333 
L 194.741523 92.850727 
L 195.046192 95.741922 
L 195.35086 90.492121 
L 195.655528 94.182198 
L 195.960197 91.633382 
L 196.569533 94.790871 
L 196.874201 91.59534 
L 197.17887 95.209333 
L 197.483538 90.796457 
L 197.788206 94.562618 
L 198.092875 92.35618 
L 198.397543 96.769056 
L 198.702211 88.970439 
L 199.00688 98.404864 
L 199.311548 92.089886 
L 199.616216 97.111435 
L 199.920885 89.464986 
L 200.225553 96.350594 
L 200.530221 91.367088 
L 200.834889 97.682065 
L 201.139558 89.503028 
L 201.444226 92.318138 
L 201.748894 91.709466 
L 202.053563 96.997309 
L 202.358231 89.883448 
L 202.662899 90.720373 
L 202.967568 92.926811 
L 203.272236 93.64961 
L 203.576904 93.573526 
L 203.881572 91.671424 
L 204.186241 92.204012 
L 204.490909 94.866955 
L 204.795577 92.432265 
L 205.100246 93.193105 
L 205.404914 92.242054 
L 205.709582 93.193105 
L 206.014251 93.421357 
L 206.318919 94.068072 
L 206.623587 93.193105 
L 206.928256 94.334366 
L 207.232924 93.915904 
L 207.537592 94.144156 
L 207.84226 93.117021 
L 208.146929 94.943039 
L 208.451597 94.562618 
L 208.756265 94.562618 
L 209.060934 93.573526 
L 209.365602 94.182198 
L 209.67027 93.497442 
L 209.974939 93.991988 
L 210.279607 100.306966 
L 210.584275 96.426678 
L 210.888943 94.144156 
L 211.193612 94.981081 
L 211.49828 92.318138 
L 211.802948 92.888769 
L 212.107617 92.508349 
L 213.021622 93.953946 
L 213.32629 94.258282 
L 213.630958 94.106114 
L 214.240295 95.551711 
L 214.544963 95.247375 
L 214.849631 96.350594 
L 215.1543 94.790871 
L 215.458968 94.943039 
L 215.763636 92.394223 
L 216.068305 86.155329 
L 216.677641 50.814279 
L 216.98231 72.079776 
L 217.286978 72.498239 
L 217.591646 108.295793 
L 217.896314 116.969377 
L 218.200983 119.708403 
L 218.505651 95.475627 
L 218.810319 110.007684 
L 219.114988 104.263337 
L 219.419656 102.665572 
L 219.724324 104.111169 
L 220.028993 96.997309 
L 220.333661 103.38837 
L 220.638329 99.203747 
L 220.942998 98.100528 
L 221.247666 98.89941 
L 221.552334 98.13857 
L 221.857002 100.38305 
L 222.161671 95.513669 
L 222.466339 97.910318 
L 222.771007 98.975494 
L 223.075676 96.122342 
L 223.380344 97.834233 
L 223.685012 96.008216 
L 223.989681 99.660251 
L 224.294349 93.611568 
L 224.599017 95.89409 
L 224.903686 96.312552 
L 225.208354 95.70388 
L 225.513022 94.22024 
L 226.122359 96.122342 
L 226.427027 95.856048 
L 226.731695 94.828913 
L 227.036364 94.562618 
L 227.341032 94.448492 
L 227.6457 95.323459 
L 227.950369 94.714787 
L 228.255037 94.486534 
L 228.559705 95.551711 
L 228.864373 95.209333 
L 229.169042 95.627795 
L 229.47371 94.144156 
L 229.778378 96.236468 
L 230.387715 93.991988 
L 230.692383 95.285417 
L 231.30172 94.714787 
L 231.606388 94.904997 
L 231.911057 93.915904 
L 232.215725 95.285417 
L 232.520393 94.752829 
L 232.825061 95.133249 
L 233.12973 94.600661 
L 233.434398 95.856048 
L 233.739066 95.209333 
L 234.043735 94.068072 
L 234.348403 96.0843 
L 234.653071 94.790871 
L 234.95774 95.741922 
L 235.262408 95.627795 
L 235.567076 94.258282 
L 235.871744 94.296324 
L 236.176413 96.008216 
L 236.481081 93.991988 
L 236.785749 93.117021 
L 237.090418 97.225561 
L 237.395086 93.307231 
L 237.699754 94.334366 
L 238.004423 94.828913 
L 238.613759 95.323459 
L 238.918428 92.812685 
L 239.223096 95.513669 
L 239.527764 95.209333 
L 239.832432 95.095207 
L 240.137101 95.513669 
L 240.441769 93.64961 
L 240.746437 96.616888 
L 241.051106 92.432265 
L 241.660442 97.986402 
L 241.965111 93.611568 
L 242.269779 95.856048 
L 242.574447 95.361501 
L 242.879115 92.812685 
L 243.183784 96.008216 
L 243.488452 93.877862 
L 243.79312 97.644023 
L 244.097789 92.812685 
L 244.402457 94.372408 
L 244.707125 94.448492 
L 245.011794 94.182198 
L 245.316462 95.818006 
L 245.925799 93.83982 
L 246.230467 94.144156 
L 246.535135 96.046258 
L 246.839803 94.904997 
L 247.144472 96.160384 
L 247.44914 93.269189 
L 248.058477 95.551711 
L 248.363145 94.068072 
L 248.667813 94.41045 
L 248.972482 95.513669 
L 249.27715 94.41045 
L 249.581818 94.258282 
L 249.886486 93.915904 
L 250.191155 95.665837 
L 250.495823 94.258282 
L 250.800491 95.209333 
L 251.10516 94.41045 
L 251.409828 94.106114 
L 251.714496 94.562618 
L 252.019165 92.850727 
L 252.323833 93.611568 
L 252.628501 95.171291 
L 252.93317 94.296324 
L 253.237838 96.46472 
L 253.542506 92.16597 
L 253.847174 95.171291 
L 254.151843 96.008216 
L 254.456511 93.040937 
L 254.761179 94.866955 
L 255.065848 94.943039 
L 255.370516 94.372408 
L 255.675184 95.932132 
L 255.979853 94.106114 
L 256.284521 96.578846 
L 256.589189 93.117021 
L 257.198526 96.692972 
L 257.503194 93.459399 
L 257.807862 95.399543 
L 258.112531 94.106114 
L 258.417199 96.198426 
L 258.721867 93.421357 
L 259.026536 93.763736 
L 259.331204 94.981081 
L 259.635872 94.904997 
L 259.940541 95.285417 
L 260.549877 93.687652 
L 260.854545 94.904997 
L 261.159214 94.486534 
L 261.463882 96.616888 
L 261.76855 93.193105 
L 262.073219 96.0843 
L 262.377887 94.486534 
L 262.682555 95.133249 
L 262.987224 94.372408 
L 263.291892 95.475627 
L 263.59656 94.524576 
L 263.901229 95.247375 
L 264.205897 94.296324 
L 264.510565 95.741922 
L 264.815233 92.964853 
L 265.119902 94.676745 
L 265.42457 93.535484 
L 265.729238 95.89409 
L 266.033907 93.535484 
L 266.338575 94.828913 
L 266.643243 95.133249 
L 266.947912 94.258282 
L 267.25258 94.068072 
L 267.557248 94.41045 
L 267.861916 94.981081 
L 268.166585 94.562618 
L 268.471253 93.953946 
L 268.775921 95.89409 
L 269.08059 94.258282 
L 269.385258 95.399543 
L 269.689926 93.231147 
L 269.994595 95.323459 
L 270.299263 94.714787 
L 270.603931 94.600661 
L 270.9086 95.019123 
L 271.517936 94.524576 
L 271.822604 94.562618 
L 272.127273 93.991988 
L 272.431941 96.198426 
L 272.736609 94.790871 
L 273.041278 94.714787 
L 273.345946 93.953946 
L 273.650614 94.790871 
L 274.259951 93.801778 
L 274.564619 94.943039 
L 274.869287 95.057165 
L 275.173956 95.665837 
L 275.478624 95.209333 
L 275.783292 92.622475 
L 276.087961 96.46472 
L 276.392629 92.089886 
L 276.697297 95.818006 
L 277.001966 92.394223 
L 277.306634 94.106114 
L 277.611302 93.307231 
L 277.915971 94.866955 
L 278.220639 90.644289 
L 278.525307 94.943039 
L 278.829975 92.508349 
L 279.134644 92.546391 
L 279.439312 94.182198 
L 279.74398 92.394223 
L 280.048649 89.464986 
L 280.353317 93.269189 
L 280.657985 91.176877 
L 280.962654 94.41045 
L 281.57199 88.856313 
L 281.876658 94.752829 
L 282.181327 87.829178 
L 282.485995 86.649875 
L 283.095332 91.367088 
L 283.4 87.030296 
L 283.704668 76.83503 
L 284.009337 85.470572 
L 284.618673 76.07419 
L 284.923342 62.835562 
L 285.532678 133.175283 
L 285.837346 123.740859 
L 286.142015 128.800449 
L 286.446683 109.322928 
L 286.751351 100.19284 
L 287.05602 95.665837 
L 287.665356 93.763736 
L 288.274693 95.095207 
L 288.579361 94.904997 
L 288.884029 95.856048 
L 289.188698 94.752829 
L 289.493366 96.0843 
L 289.798034 95.779964 
L 290.102703 96.160384 
L 290.407371 97.453813 
L 290.712039 96.959267 
L 291.016708 94.943039 
L 291.321376 95.70388 
L 291.626044 94.638703 
L 291.930713 89.084566 
L 292.235381 94.41045 
L 292.540049 95.970174 
L 292.844717 95.665837 
L 293.149386 97.720107 
L 293.454054 94.144156 
L 293.758722 95.70388 
L 294.063391 95.095207 
L 294.368059 94.752829 
L 294.672727 96.0843 
L 294.977396 94.258282 
L 295.282064 96.731014 
L 295.586732 97.644023 
L 295.8914 96.578846 
L 296.196069 96.008216 
L 296.500737 96.769056 
L 296.805405 96.769056 
L 297.110074 98.214654 
L 297.414742 96.0843 
L 297.71941 98.89941 
L 298.024079 97.111435 
L 298.328747 101.029764 
L 298.633415 95.818006 
L 298.938084 101.904731 
L 299.242752 96.807099 
L 299.54742 100.915638 
L 299.852088 99.203747 
L 300.156757 105.176346 
L 300.461425 102.018857 
L 300.766093 100.611302 
L 301.070762 100.268924 
L 301.37543 126.441843 
L 301.680098 98.747242 
L 301.984767 115.485737 
L 302.289435 98.442906 
L 302.594103 111.60545 
L 302.898771 81.666369 
L 303.20344 70.558095 
L 303.508108 84.785816 
L 303.812776 71.547188 
L 304.117445 64.623537 
L 304.422113 84.443437 
L 304.726781 85.470572 
L 305.03145 92.16597 
L 305.640786 94.904997 
L 306.250123 95.475627 
L 306.554791 94.943039 
L 307.164128 95.247375 
L 307.468796 94.943039 
L 307.773464 94.866955 
L 308.078133 95.247375 
L 308.382801 95.437585 
L 308.687469 94.562618 
L 308.992138 94.676745 
L 309.296806 95.437585 
L 309.601474 94.981081 
L 309.906143 95.437585 
L 310.210811 94.904997 
L 310.515479 95.057165 
L 310.820147 94.524576 
L 311.124816 94.828913 
L 311.734152 94.600661 
L 312.038821 94.943039 
L 312.343489 94.486534 
L 312.648157 94.41045 
L 312.952826 94.714787 
L 313.257494 94.448492 
L 313.562162 95.095207 
L 313.86683 94.981081 
L 314.171499 94.562618 
L 314.476167 93.421357 
L 314.780835 94.524576 
L 315.390172 94.03003 
L 315.999509 94.334366 
L 316.304177 95.437585 
L 316.608845 93.991988 
L 316.913514 94.334366 
L 317.218182 94.106114 
L 317.52285 93.573526 
L 317.827518 93.535484 
L 318.132187 94.448492 
L 318.741523 93.915904 
L 319.046192 93.915904 
L 319.35086 94.981081 
L 319.655528 94.638703 
L 319.960197 96.312552 
L 320.264865 97.111435 
L 320.569533 97.301645 
L 320.874201 96.388636 
L 321.17887 109.17076 
L 321.483538 96.388636 
L 321.788206 117.387839 
L 322.092875 94.562618 
L 322.397543 109.399012 
L 322.702211 131.23514 
L 323.00688 80.182729 
L 323.311548 109.893558 
L 323.616216 72.079776 
L 323.920885 126.175549 
L 324.530221 69.873338 
L 324.834889 96.27451 
L 325.139558 84.8619 
L 325.444226 104.719842 
L 325.748894 67.28648 
L 326.053563 105.25243 
L 326.358231 102.589488 
L 326.662899 80.144687 
L 326.967568 97.605981 
L 327.272236 71.661314 
L 327.576904 82.42721 
L 327.881572 67.324522 
L 328.186241 86.003161 
L 328.490909 94.106114 
L 328.795577 85.318404 
L 329.100246 91.937718 
L 329.709582 94.486534 
L 330.014251 93.573526 
L 330.318919 94.41045 
L 330.623587 93.83982 
L 330.928256 94.41045 
L 331.232924 94.03003 
L 331.537592 94.258282 
L 331.84226 94.334366 
L 332.146929 93.459399 
L 332.451597 93.763736 
L 332.756265 92.926811 
L 333.060934 93.002895 
L 333.67027 92.698559 
L 333.974939 92.127928 
L 334.279607 91.937718 
L 334.584275 94.106114 
L 334.888943 93.83982 
L 335.193612 95.019123 
L 335.49828 93.573526 
L 335.802948 98.51899 
L 336.107617 94.828913 
L 336.412285 93.193105 
L 336.716953 92.508349 
L 337.021622 92.622475 
L 337.32629 94.068072 
L 337.630958 93.497442 
L 337.935627 93.459399 
L 338.240295 93.193105 
L 338.544963 93.078979 
L 338.849631 91.252961 
L 339.1543 92.546391 
L 339.458968 90.454079 
L 339.763636 90.986667 
L 340.068305 90.606247 
L 340.372973 91.937718 
L 340.677641 91.176877 
L 340.98231 86.231413 
L 341.286978 86.954212 
L 341.591646 83.948891 
L 341.896314 87.905262 
L 342.200983 76.758946 
L 342.505651 76.2644 
L 342.810319 73.335163 
L 343.114988 67.781026 
L 343.419656 106.431733 
L 343.724324 106.850196 
L 344.028993 151.587628 
L 344.333661 115.295527 
L 344.638329 97.035351 
L 344.942998 93.383315 
L 345.247666 94.03003 
L 345.552334 94.03003 
L 345.857002 94.943039 
L 346.161671 94.943039 
L 346.466339 95.323459 
L 346.771007 96.0843 
L 347.075676 97.187519 
L 347.380344 96.046258 
L 347.685012 95.361501 
L 347.989681 86.649875 
L 348.294349 95.627795 
L 348.599017 94.866955 
L 348.903686 96.46472 
L 349.208354 92.432265 
L 349.513022 95.970174 
L 349.81769 93.991988 
L 350.122359 96.65493 
L 350.427027 96.997309 
L 350.731695 98.7092 
L 351.341032 97.453813 
L 351.950369 102.43732 
L 352.255037 99.964587 
L 352.559705 105.290472 
L 352.864373 104.643758 
L 353.47371 120.887706 
L 353.778378 112.784753 
L 354.083047 118.376932 
L 354.387715 45.60252 
L 354.692383 52.640297 
L 355.30172 93.117021 
L 355.606388 94.866955 
L 355.911057 94.943039 
L 356.215725 93.991988 
L 356.520393 94.068072 
L 356.825061 93.611568 
L 357.12973 92.394223 
L 357.434398 91.823592 
L 357.739066 92.051844 
L 358.348403 95.589753 
L 358.653071 94.714787 
L 358.95774 98.32878 
L 359.262408 93.078979 
L 359.871744 93.725694 
L 360.176413 94.41045 
L 360.481081 93.117021 
L 360.785749 94.296324 
L 361.090418 94.334366 
L 361.395086 92.394223 
L 361.699754 93.497442 
L 362.004423 93.497442 
L 362.309091 93.078979 
L 362.613759 92.926811 
L 362.918428 88.818271 
L 363.223096 94.486534 
L 363.527764 91.024709 
L 363.832432 92.622475 
L 364.137101 90.1117 
L 364.441769 94.182198 
L 364.746437 90.454079 
L 365.051106 91.40513 
L 365.355774 91.519256 
L 365.660442 91.78555 
L 365.965111 86.117287 
L 366.269779 91.823592 
L 366.574447 86.992254 
L 366.879115 96.008216 
L 367.183784 85.014068 
L 367.488452 91.252961 
L 367.79312 90.149742 
L 368.097789 85.850993 
L 368.402457 78.737132 
L 368.707125 86.003161 
L 369.011794 98.671158 
L 369.316462 84.063017 
L 369.62113 86.193371 
L 369.925799 74.666634 
L 370.230467 83.073924 
L 370.535135 104.795926 
L 370.839803 85.356446 
L 371.144472 111.60545 
L 371.44914 118.453016 
L 371.753808 91.937718 
L 372.058477 135.800184 
L 372.363145 91.367088 
L 372.667813 109.437054 
L 373.581818 96.350594 
L 373.581818 96.350594 
" style="fill:none;stroke:#ffa500;stroke-linecap:square;stroke-width:0.3;"/>
   </g>
   <g id="patch_3">
    <path d="M 54 252 
L 54 34.56 
" style="fill:none;stroke:#000000;stroke-linecap:square;stroke-linejoin:miter;stroke-width:0.8;"/>
   </g>
   <g id="patch_4">
    <path d="M 388.8 252 
L 388.8 34.56 
" style="fill:none;stroke:#000000;stroke-linecap:square;stroke-linejoin:miter;stroke-width:0.8;"/>
   </g>
   <g id="patch_5">
    <path d="M 54 252 
L 388.8 252 
" style="fill:none;stroke:#000000;stroke-linecap:square;stroke-linejoin:miter;stroke-width:0.8;"/>
   </g>
   <g id="patch_6">
    <path d="M 54 34.56 
L 388.8 34.56 
" style="fill:none;stroke:#000000;stroke-linecap:square;stroke-linejoin:miter;stroke-width:0.8;"/>
   </g>
   <g id="text_15">
    <!-- SPGD Detectors TP1 Testing S6 Lineup Post Map  -->
    <defs>
     <path d="M 53.515625 70.515625 
L 53.515625 60.890625 
Q 47.90625 63.578125 42.921875 64.890625 
Q 37.9375 66.21875 33.296875 66.21875 
Q 25.25 66.21875 20.875 63.09375 
Q 16.5 59.96875 16.5 54.203125 
Q 16.5 49.359375 19.40625 46.890625 
Q 22.3125 44.4375 30.421875 42.921875 
L 36.375 41.703125 
Q 47.40625 39.59375 52.65625 34.296875 
Q 57.90625 29 57.90625 20.125 
Q 57.90625 9.515625 50.796875 4.046875 
Q 43.703125 -1.421875 29.984375 -1.421875 
Q 24.8125 -1.421875 18.96875 -0.25 
Q 13.140625 0.921875 6.890625 3.21875 
L 6.890625 13.375 
Q 12.890625 10.015625 18.65625 8.296875 
Q 24.421875 6.59375 29.984375 6.59375 
Q 38.421875 6.59375 43.015625 9.90625 
Q 47.609375 13.234375 47.609375 19.390625 
Q 47.609375 24.75 44.3125 27.78125 
Q 41.015625 30.8125 33.5 32.328125 
L 27.484375 33.5 
Q 16.453125 35.6875 11.515625 40.375 
Q 6.59375 45.0625 6.59375 53.421875 
Q 6.59375 63.09375 13.40625 68.65625 
Q 20.21875 74.21875 32.171875 74.21875 
Q 37.3125 74.21875 42.625 73.28125 
Q 47.953125 72.359375 53.515625 70.515625 
" id="DejaVuSans-53"/>
     <path d="M 19.671875 64.796875 
L 19.671875 37.40625 
L 32.078125 37.40625 
Q 38.96875 37.40625 42.71875 40.96875 
Q 46.484375 44.53125 46.484375 51.125 
Q 46.484375 57.671875 42.71875 61.234375 
Q 38.96875 64.796875 32.078125 64.796875 
z
M 9.8125 72.90625 
L 32.078125 72.90625 
Q 44.34375 72.90625 50.609375 67.359375 
Q 56.890625 61.8125 56.890625 51.125 
Q 56.890625 40.328125 50.609375 34.8125 
Q 44.34375 29.296875 32.078125 29.296875 
L 19.671875 29.296875 
L 19.671875 0 
L 9.8125 0 
z
" id="DejaVuSans-50"/>
     <path d="M 59.515625 10.40625 
L 59.515625 29.984375 
L 43.40625 29.984375 
L 43.40625 38.09375 
L 69.28125 38.09375 
L 69.28125 6.78125 
Q 63.578125 2.734375 56.6875 0.65625 
Q 49.8125 -1.421875 42 -1.421875 
Q 24.90625 -1.421875 15.25 8.5625 
Q 5.609375 18.5625 5.609375 36.375 
Q 5.609375 54.25 15.25 64.234375 
Q 24.90625 74.21875 42 74.21875 
Q 49.125 74.21875 55.546875 72.453125 
Q 61.96875 70.703125 67.390625 67.28125 
L 67.390625 56.78125 
Q 61.921875 61.421875 55.765625 63.765625 
Q 49.609375 66.109375 42.828125 66.109375 
Q 29.4375 66.109375 22.71875 58.640625 
Q 16.015625 51.171875 16.015625 36.375 
Q 16.015625 21.625 22.71875 14.15625 
Q 29.4375 6.6875 42.828125 6.6875 
Q 48.046875 6.6875 52.140625 7.59375 
Q 56.25 8.5 59.515625 10.40625 
" id="DejaVuSans-47"/>
     <path d="M 19.671875 64.796875 
L 19.671875 8.109375 
L 31.59375 8.109375 
Q 46.6875 8.109375 53.6875 14.9375 
Q 60.6875 21.78125 60.6875 36.53125 
Q 60.6875 51.171875 53.6875 57.984375 
Q 46.6875 64.796875 31.59375 64.796875 
z
M 9.8125 72.90625 
L 30.078125 72.90625 
Q 51.265625 72.90625 61.171875 64.09375 
Q 71.09375 55.28125 71.09375 36.53125 
Q 71.09375 17.671875 61.125 8.828125 
Q 51.171875 0 30.078125 0 
L 9.8125 0 
z
" id="DejaVuSans-44"/>
     <path d="M 41.109375 46.296875 
Q 39.59375 47.171875 37.8125 47.578125 
Q 36.03125 48 33.890625 48 
Q 26.265625 48 22.1875 43.046875 
Q 18.109375 38.09375 18.109375 28.8125 
L 18.109375 0 
L 9.078125 0 
L 9.078125 54.6875 
L 18.109375 54.6875 
L 18.109375 46.1875 
Q 20.953125 51.171875 25.484375 53.578125 
Q 30.03125 56 36.53125 56 
Q 37.453125 56 38.578125 55.875 
Q 39.703125 55.765625 41.0625 55.515625 
z
" id="DejaVuSans-72"/>
     <path d="M -0.296875 72.90625 
L 61.375 72.90625 
L 61.375 64.59375 
L 35.5 64.59375 
L 35.5 0 
L 25.59375 0 
L 25.59375 64.59375 
L -0.296875 64.59375 
z
" id="DejaVuSans-54"/>
     <path d="M 45.40625 27.984375 
Q 45.40625 37.75 41.375 43.109375 
Q 37.359375 48.484375 30.078125 48.484375 
Q 22.859375 48.484375 18.828125 43.109375 
Q 14.796875 37.75 14.796875 27.984375 
Q 14.796875 18.265625 18.828125 12.890625 
Q 22.859375 7.515625 30.078125 7.515625 
Q 37.359375 7.515625 41.375 12.890625 
Q 45.40625 18.265625 45.40625 27.984375 
M 54.390625 6.78125 
Q 54.390625 -7.171875 48.1875 -13.984375 
Q 42 -20.796875 29.203125 -20.796875 
Q 24.46875 -20.796875 20.265625 -20.09375 
Q 16.0625 -19.390625 12.109375 -17.921875 
L 12.109375 -9.1875 
Q 16.0625 -11.328125 19.921875 -12.34375 
Q 23.78125 -13.375 27.78125 -13.375 
Q 36.625 -13.375 41.015625 -8.765625 
Q 45.40625 -4.15625 45.40625 5.171875 
L 45.40625 9.625 
Q 42.625 4.78125 38.28125 2.390625 
Q 33.9375 0 27.875 0 
Q 17.828125 0 11.671875 7.65625 
Q 5.515625 15.328125 5.515625 27.984375 
Q 5.515625 40.671875 11.671875 48.328125 
Q 17.828125 56 27.875 56 
Q 33.9375 56 38.28125 53.609375 
Q 42.625 51.21875 45.40625 46.390625 
L 45.40625 54.6875 
L 54.390625 54.6875 
z
" id="DejaVuSans-67"/>
     <path d="M 9.8125 72.90625 
L 19.671875 72.90625 
L 19.671875 8.296875 
L 55.171875 8.296875 
L 55.171875 0 
L 9.8125 0 
z
" id="DejaVuSans-4c"/>
     <path d="M 8.5 21.578125 
L 8.5 54.6875 
L 17.484375 54.6875 
L 17.484375 21.921875 
Q 17.484375 14.15625 20.5 10.265625 
Q 23.53125 6.390625 29.59375 6.390625 
Q 36.859375 6.390625 41.078125 11.03125 
Q 45.3125 15.671875 45.3125 23.6875 
L 45.3125 54.6875 
L 54.296875 54.6875 
L 54.296875 0 
L 45.3125 0 
L 45.3125 8.40625 
Q 42.046875 3.421875 37.71875 1 
Q 33.40625 -1.421875 27.6875 -1.421875 
Q 18.265625 -1.421875 13.375 4.4375 
Q 8.5 10.296875 8.5 21.578125 
M 31.109375 56 
z
" id="DejaVuSans-75"/>
     <path d="M 18.109375 8.203125 
L 18.109375 -20.796875 
L 9.078125 -20.796875 
L 9.078125 54.6875 
L 18.109375 54.6875 
L 18.109375 46.390625 
Q 20.953125 51.265625 25.265625 53.625 
Q 29.59375 56 35.59375 56 
Q 45.5625 56 51.78125 48.09375 
Q 58.015625 40.1875 58.015625 27.296875 
Q 58.015625 14.40625 51.78125 6.484375 
Q 45.5625 -1.421875 35.59375 -1.421875 
Q 29.59375 -1.421875 25.265625 0.953125 
Q 20.953125 3.328125 18.109375 8.203125 
M 48.6875 27.296875 
Q 48.6875 37.203125 44.609375 42.84375 
Q 40.53125 48.484375 33.40625 48.484375 
Q 26.265625 48.484375 22.1875 42.84375 
Q 18.109375 37.203125 18.109375 27.296875 
Q 18.109375 17.390625 22.1875 11.75 
Q 26.265625 6.109375 33.40625 6.109375 
Q 40.53125 6.109375 44.609375 11.75 
Q 48.6875 17.390625 48.6875 27.296875 
" id="DejaVuSans-70"/>
     <path d="M 9.8125 72.90625 
L 24.515625 72.90625 
L 43.109375 23.296875 
L 61.8125 72.90625 
L 76.515625 72.90625 
L 76.515625 0 
L 66.890625 0 
L 66.890625 64.015625 
L 48.09375 14.015625 
L 38.1875 14.015625 
L 19.390625 64.015625 
L 19.390625 0 
L 9.8125 0 
z
" id="DejaVuSans-4d"/>
    </defs>
    <g transform="translate(73.812188 28.56)scale(0.12 -0.12)">
     <use xlink:href="#DejaVuSans-53"/>
     <use x="63.476562" xlink:href="#DejaVuSans-50"/>
     <use x="123.779297" xlink:href="#DejaVuSans-47"/>
     <use x="201.269531" xlink:href="#DejaVuSans-44"/>
     <use x="278.271484" xlink:href="#DejaVuSans-20"/>
     <use x="310.058594" xlink:href="#DejaVuSans-44"/>
     <use x="387.060547" xlink:href="#DejaVuSans-65"/>
     <use x="448.583984" xlink:href="#DejaVuSans-74"/>
     <use x="487.792969" xlink:href="#DejaVuSans-65"/>
     <use x="549.316406" xlink:href="#DejaVuSans-63"/>
     <use x="604.296875" xlink:href="#DejaVuSans-74"/>
     <use x="643.505859" xlink:href="#DejaVuSans-6f"/>
     <use x="704.6875" xlink:href="#DejaVuSans-72"/>
     <use x="745.800781" xlink:href="#DejaVuSans-73"/>
     <use x="797.900391" xlink:href="#DejaVuSans-20"/>
     <use x="829.6875" xlink:href="#DejaVuSans-54"/>
     <use x="890.771484" xlink:href="#DejaVuSans-50"/>
     <use x="951.074219" xlink:href="#DejaVuSans-31"/>
     <use x="1014.697266" xlink:href="#DejaVuSans-20"/>
     <use x="1046.484375" xlink:href="#DejaVuSans-54"/>
     <use x="1107.302734" xlink:href="#DejaVuSans-65"/>
     <use x="1168.826172" xlink:href="#DejaVuSans-73"/>
     <use x="1220.925781" xlink:href="#DejaVuSans-74"/>
     <use x="1260.134766" xlink:href="#DejaVuSans-69"/>
     <use x="1287.917969" xlink:href="#DejaVuSans-6e"/>
     <use x="1351.296875" xlink:href="#DejaVuSans-67"/>
     <use x="1414.773438" xlink:href="#DejaVuSans-20"/>
     <use x="1446.560547" xlink:href="#DejaVuSans-53"/>
     <use x="1510.037109" xlink:href="#DejaVuSans-36"/>
     <use x="1573.660156" xlink:href="#DejaVuSans-20"/>
     <use x="1605.447266" xlink:href="#DejaVuSans-4c"/>
     <use x="1661.160156" xlink:href="#DejaVuSans-69"/>
     <use x="1688.943359" xlink:href="#DejaVuSans-6e"/>
     <use x="1752.322266" xlink:href="#DejaVuSans-65"/>
     <use x="1813.845703" xlink:href="#DejaVuSans-75"/>
     <use x="1877.224609" xlink:href="#DejaVuSans-70"/>
     <use x="1940.701172" xlink:href="#DejaVuSans-20"/>
     <use x="1972.488281" xlink:href="#DejaVuSans-50"/>
     <use x="2032.744141" xlink:href="#DejaVuSans-6f"/>
     <use x="2093.925781" xlink:href="#DejaVuSans-73"/>
     <use x="2146.025391" xlink:href="#DejaVuSans-74"/>
     <use x="2185.234375" xlink:href="#DejaVuSans-20"/>
     <use x="2217.021484" xlink:href="#DejaVuSans-4d"/>
     <use x="2303.300781" xlink:href="#DejaVuSans-61"/>
     <use x="2364.580078" xlink:href="#DejaVuSans-70"/>
     <use x="2428.056641" xlink:href="#DejaVuSans-20"/>
    </g>
   </g>
  </g>
 </g>
 <defs>
  <clipPath id="p60e25b8021">
   <rect height="217.44" width="334.8" x="54" y="34.56"/>
  </clipPath>
 </defs>
</svg>
