<?xml version="1.0" encoding="utf-8" standalone="no"?>
<!DOCTYPE svg PUBLIC "-//W3C//DTD SVG 1.1//EN"
  "http://www.w3.org/Graphics/SVG/1.1/DTD/svg11.dtd">
<!-- Created with matplotlib (http://matplotlib.org/) -->
<svg height="288pt" version="1.1" viewBox="0 0 432 288" width="432pt" xmlns="http://www.w3.org/2000/svg" xmlns:xlink="http://www.w3.org/1999/xlink">
 <defs>
  <style type="text/css">
*{stroke-linecap:butt;stroke-linejoin:round;}
  </style>
 </defs>
 <g id="figure_1">
  <g id="patch_1">
   <path d="M 0 288 
L 432 288 
L 432 0 
L 0 0 
z
" style="fill:#ffffff;"/>
  </g>
  <g id="axes_1">
   <g id="patch_2">
    <path d="M 54 252 
L 388.8 252 
L 388.8 34.56 
L 54 34.56 
z
" style="fill:#ffffff;"/>
   </g>
   <g id="matplotlib.axis_1">
    <g id="xtick_1">
     <g id="line2d_1">
      <path clip-path="url(#pe218eca928)" d="M 69.218182 252 
L 69.218182 34.56 
" style="fill:none;stroke:#b0b0b0;stroke-linecap:square;stroke-width:0.8;"/>
     </g>
     <g id="line2d_2">
      <defs>
       <path d="M 0 0 
L 0 3.5 
" id="med9db7075d" style="stroke:#000000;stroke-width:0.8;"/>
      </defs>
      <g>
       <use style="stroke:#000000;stroke-width:0.8;" x="69.218182" xlink:href="#med9db7075d" y="252"/>
      </g>
     </g>
     <g id="text_1">
      <!-- 0 -->
      <defs>
       <path d="M 31.78125 66.40625 
Q 24.171875 66.40625 20.328125 58.90625 
Q 16.5 51.421875 16.5 36.375 
Q 16.5 21.390625 20.328125 13.890625 
Q 24.171875 6.390625 31.78125 6.390625 
Q 39.453125 6.390625 43.28125 13.890625 
Q 47.125 21.390625 47.125 36.375 
Q 47.125 51.421875 43.28125 58.90625 
Q 39.453125 66.40625 31.78125 66.40625 
M 31.78125 74.21875 
Q 44.046875 74.21875 50.515625 64.515625 
Q 56.984375 54.828125 56.984375 36.375 
Q 56.984375 17.96875 50.515625 8.265625 
Q 44.046875 -1.421875 31.78125 -1.421875 
Q 19.53125 -1.421875 13.0625 8.265625 
Q 6.59375 17.96875 6.59375 36.375 
Q 6.59375 54.828125 13.0625 64.515625 
Q 19.53125 74.21875 31.78125 74.21875 
" id="DejaVuSans-30"/>
      </defs>
      <g transform="translate(66.036932 266.598437)scale(0.1 -0.1)">
       <use xlink:href="#DejaVuSans-30"/>
      </g>
     </g>
    </g>
    <g id="xtick_2">
     <g id="line2d_3">
      <path clip-path="url(#pe218eca928)" d="M 130.151843 252 
L 130.151843 34.56 
" style="fill:none;stroke:#b0b0b0;stroke-linecap:square;stroke-width:0.8;"/>
     </g>
     <g id="line2d_4">
      <g>
       <use style="stroke:#000000;stroke-width:0.8;" x="130.151843" xlink:href="#med9db7075d" y="252"/>
      </g>
     </g>
     <g id="text_2">
      <!-- 200 -->
      <defs>
       <path d="M 19.1875 8.296875 
L 53.609375 8.296875 
L 53.609375 0 
L 7.328125 0 
L 7.328125 8.296875 
Q 12.9375 14.109375 22.625 23.890625 
Q 32.328125 33.6875 34.8125 36.53125 
Q 39.546875 41.84375 41.421875 45.53125 
Q 43.3125 49.21875 43.3125 52.78125 
Q 43.3125 58.59375 39.234375 62.25 
Q 35.15625 65.921875 28.609375 65.921875 
Q 23.96875 65.921875 18.8125 64.3125 
Q 13.671875 62.703125 7.8125 59.421875 
L 7.8125 69.390625 
Q 13.765625 71.78125 18.9375 73 
Q 24.125 74.21875 28.421875 74.21875 
Q 39.75 74.21875 46.484375 68.546875 
Q 53.21875 62.890625 53.21875 53.421875 
Q 53.21875 48.921875 51.53125 44.890625 
Q 49.859375 40.875 45.40625 35.40625 
Q 44.1875 33.984375 37.640625 27.21875 
Q 31.109375 20.453125 19.1875 8.296875 
" id="DejaVuSans-32"/>
      </defs>
      <g transform="translate(120.608093 266.598437)scale(0.1 -0.1)">
       <use xlink:href="#DejaVuSans-32"/>
       <use x="63.623047" xlink:href="#DejaVuSans-30"/>
       <use x="127.246094" xlink:href="#DejaVuSans-30"/>
      </g>
     </g>
    </g>
    <g id="xtick_3">
     <g id="line2d_5">
      <path clip-path="url(#pe218eca928)" d="M 191.085504 252 
L 191.085504 34.56 
" style="fill:none;stroke:#b0b0b0;stroke-linecap:square;stroke-width:0.8;"/>
     </g>
     <g id="line2d_6">
      <g>
       <use style="stroke:#000000;stroke-width:0.8;" x="191.085504" xlink:href="#med9db7075d" y="252"/>
      </g>
     </g>
     <g id="text_3">
      <!-- 400 -->
      <defs>
       <path d="M 37.796875 64.3125 
L 12.890625 25.390625 
L 37.796875 25.390625 
z
M 35.203125 72.90625 
L 47.609375 72.90625 
L 47.609375 25.390625 
L 58.015625 25.390625 
L 58.015625 17.1875 
L 47.609375 17.1875 
L 47.609375 0 
L 37.796875 0 
L 37.796875 17.1875 
L 4.890625 17.1875 
L 4.890625 26.703125 
z
" id="DejaVuSans-34"/>
      </defs>
      <g transform="translate(181.541754 266.598437)scale(0.1 -0.1)">
       <use xlink:href="#DejaVuSans-34"/>
       <use x="63.623047" xlink:href="#DejaVuSans-30"/>
       <use x="127.246094" xlink:href="#DejaVuSans-30"/>
      </g>
     </g>
    </g>
    <g id="xtick_4">
     <g id="line2d_7">
      <path clip-path="url(#pe218eca928)" d="M 252.019165 252 
L 252.019165 34.56 
" style="fill:none;stroke:#b0b0b0;stroke-linecap:square;stroke-width:0.8;"/>
     </g>
     <g id="line2d_8">
      <g>
       <use style="stroke:#000000;stroke-width:0.8;" x="252.019165" xlink:href="#med9db7075d" y="252"/>
      </g>
     </g>
     <g id="text_4">
      <!-- 600 -->
      <defs>
       <path d="M 33.015625 40.375 
Q 26.375 40.375 22.484375 35.828125 
Q 18.609375 31.296875 18.609375 23.390625 
Q 18.609375 15.53125 22.484375 10.953125 
Q 26.375 6.390625 33.015625 6.390625 
Q 39.65625 6.390625 43.53125 10.953125 
Q 47.40625 15.53125 47.40625 23.390625 
Q 47.40625 31.296875 43.53125 35.828125 
Q 39.65625 40.375 33.015625 40.375 
M 52.59375 71.296875 
L 52.59375 62.3125 
Q 48.875 64.0625 45.09375 64.984375 
Q 41.3125 65.921875 37.59375 65.921875 
Q 27.828125 65.921875 22.671875 59.328125 
Q 17.53125 52.734375 16.796875 39.40625 
Q 19.671875 43.65625 24.015625 45.921875 
Q 28.375 48.1875 33.59375 48.1875 
Q 44.578125 48.1875 50.953125 41.515625 
Q 57.328125 34.859375 57.328125 23.390625 
Q 57.328125 12.15625 50.6875 5.359375 
Q 44.046875 -1.421875 33.015625 -1.421875 
Q 20.359375 -1.421875 13.671875 8.265625 
Q 6.984375 17.96875 6.984375 36.375 
Q 6.984375 53.65625 15.1875 63.9375 
Q 23.390625 74.21875 37.203125 74.21875 
Q 40.921875 74.21875 44.703125 73.484375 
Q 48.484375 72.75 52.59375 71.296875 
" id="DejaVuSans-36"/>
      </defs>
      <g transform="translate(242.475415 266.598437)scale(0.1 -0.1)">
       <use xlink:href="#DejaVuSans-36"/>
       <use x="63.623047" xlink:href="#DejaVuSans-30"/>
       <use x="127.246094" xlink:href="#DejaVuSans-30"/>
      </g>
     </g>
    </g>
    <g id="xtick_5">
     <g id="line2d_9">
      <path clip-path="url(#pe218eca928)" d="M 312.952826 252 
L 312.952826 34.56 
" style="fill:none;stroke:#b0b0b0;stroke-linecap:square;stroke-width:0.8;"/>
     </g>
     <g id="line2d_10">
      <g>
       <use style="stroke:#000000;stroke-width:0.8;" x="312.952826" xlink:href="#med9db7075d" y="252"/>
      </g>
     </g>
     <g id="text_5">
      <!-- 800 -->
      <defs>
       <path d="M 31.78125 34.625 
Q 24.75 34.625 20.71875 30.859375 
Q 16.703125 27.09375 16.703125 20.515625 
Q 16.703125 13.921875 20.71875 10.15625 
Q 24.75 6.390625 31.78125 6.390625 
Q 38.8125 6.390625 42.859375 10.171875 
Q 46.921875 13.96875 46.921875 20.515625 
Q 46.921875 27.09375 42.890625 30.859375 
Q 38.875 34.625 31.78125 34.625 
M 21.921875 38.8125 
Q 15.578125 40.375 12.03125 44.71875 
Q 8.5 49.078125 8.5 55.328125 
Q 8.5 64.0625 14.71875 69.140625 
Q 20.953125 74.21875 31.78125 74.21875 
Q 42.671875 74.21875 48.875 69.140625 
Q 55.078125 64.0625 55.078125 55.328125 
Q 55.078125 49.078125 51.53125 44.71875 
Q 48 40.375 41.703125 38.8125 
Q 48.828125 37.15625 52.796875 32.3125 
Q 56.78125 27.484375 56.78125 20.515625 
Q 56.78125 9.90625 50.3125 4.234375 
Q 43.84375 -1.421875 31.78125 -1.421875 
Q 19.734375 -1.421875 13.25 4.234375 
Q 6.78125 9.90625 6.78125 20.515625 
Q 6.78125 27.484375 10.78125 32.3125 
Q 14.796875 37.15625 21.921875 38.8125 
M 18.3125 54.390625 
Q 18.3125 48.734375 21.84375 45.5625 
Q 25.390625 42.390625 31.78125 42.390625 
Q 38.140625 42.390625 41.71875 45.5625 
Q 45.3125 48.734375 45.3125 54.390625 
Q 45.3125 60.0625 41.71875 63.234375 
Q 38.140625 66.40625 31.78125 66.40625 
Q 25.390625 66.40625 21.84375 63.234375 
Q 18.3125 60.0625 18.3125 54.390625 
" id="DejaVuSans-38"/>
      </defs>
      <g transform="translate(303.409076 266.598437)scale(0.1 -0.1)">
       <use xlink:href="#DejaVuSans-38"/>
       <use x="63.623047" xlink:href="#DejaVuSans-30"/>
       <use x="127.246094" xlink:href="#DejaVuSans-30"/>
      </g>
     </g>
    </g>
    <g id="xtick_6">
     <g id="line2d_11">
      <path clip-path="url(#pe218eca928)" d="M 373.886486 252 
L 373.886486 34.56 
" style="fill:none;stroke:#b0b0b0;stroke-linecap:square;stroke-width:0.8;"/>
     </g>
     <g id="line2d_12">
      <g>
       <use style="stroke:#000000;stroke-width:0.8;" x="373.886486" xlink:href="#med9db7075d" y="252"/>
      </g>
     </g>
     <g id="text_6">
      <!-- 1000 -->
      <defs>
       <path d="M 12.40625 8.296875 
L 28.515625 8.296875 
L 28.515625 63.921875 
L 10.984375 60.40625 
L 10.984375 69.390625 
L 28.421875 72.90625 
L 38.28125 72.90625 
L 38.28125 8.296875 
L 54.390625 8.296875 
L 54.390625 0 
L 12.40625 0 
z
" id="DejaVuSans-31"/>
      </defs>
      <g transform="translate(361.161486 266.598437)scale(0.1 -0.1)">
       <use xlink:href="#DejaVuSans-31"/>
       <use x="63.623047" xlink:href="#DejaVuSans-30"/>
       <use x="127.246094" xlink:href="#DejaVuSans-30"/>
       <use x="190.869141" xlink:href="#DejaVuSans-30"/>
      </g>
     </g>
    </g>
    <g id="text_7">
     <!-- seconds -->
     <defs>
      <path d="M 44.28125 53.078125 
L 44.28125 44.578125 
Q 40.484375 46.53125 36.375 47.5 
Q 32.28125 48.484375 27.875 48.484375 
Q 21.1875 48.484375 17.84375 46.4375 
Q 14.5 44.390625 14.5 40.28125 
Q 14.5 37.15625 16.890625 35.375 
Q 19.28125 33.59375 26.515625 31.984375 
L 29.59375 31.296875 
Q 39.15625 29.25 43.1875 25.515625 
Q 47.21875 21.78125 47.21875 15.09375 
Q 47.21875 7.46875 41.1875 3.015625 
Q 35.15625 -1.421875 24.609375 -1.421875 
Q 20.21875 -1.421875 15.453125 -0.5625 
Q 10.6875 0.296875 5.421875 2 
L 5.421875 11.28125 
Q 10.40625 8.6875 15.234375 7.390625 
Q 20.0625 6.109375 24.8125 6.109375 
Q 31.15625 6.109375 34.5625 8.28125 
Q 37.984375 10.453125 37.984375 14.40625 
Q 37.984375 18.0625 35.515625 20.015625 
Q 33.0625 21.96875 24.703125 23.78125 
L 21.578125 24.515625 
Q 13.234375 26.265625 9.515625 29.90625 
Q 5.8125 33.546875 5.8125 39.890625 
Q 5.8125 47.609375 11.28125 51.796875 
Q 16.75 56 26.8125 56 
Q 31.78125 56 36.171875 55.265625 
Q 40.578125 54.546875 44.28125 53.078125 
" id="DejaVuSans-73"/>
      <path d="M 56.203125 29.59375 
L 56.203125 25.203125 
L 14.890625 25.203125 
Q 15.484375 15.921875 20.484375 11.0625 
Q 25.484375 6.203125 34.421875 6.203125 
Q 39.59375 6.203125 44.453125 7.46875 
Q 49.3125 8.734375 54.109375 11.28125 
L 54.109375 2.78125 
Q 49.265625 0.734375 44.1875 -0.34375 
Q 39.109375 -1.421875 33.890625 -1.421875 
Q 20.796875 -1.421875 13.15625 6.1875 
Q 5.515625 13.8125 5.515625 26.8125 
Q 5.515625 40.234375 12.765625 48.109375 
Q 20.015625 56 32.328125 56 
Q 43.359375 56 49.78125 48.890625 
Q 56.203125 41.796875 56.203125 29.59375 
M 47.21875 32.234375 
Q 47.125 39.59375 43.09375 43.984375 
Q 39.0625 48.390625 32.421875 48.390625 
Q 24.90625 48.390625 20.390625 44.140625 
Q 15.875 39.890625 15.1875 32.171875 
z
" id="DejaVuSans-65"/>
      <path d="M 48.78125 52.59375 
L 48.78125 44.1875 
Q 44.96875 46.296875 41.140625 47.34375 
Q 37.3125 48.390625 33.40625 48.390625 
Q 24.65625 48.390625 19.8125 42.84375 
Q 14.984375 37.3125 14.984375 27.296875 
Q 14.984375 17.28125 19.8125 11.734375 
Q 24.65625 6.203125 33.40625 6.203125 
Q 37.3125 6.203125 41.140625 7.25 
Q 44.96875 8.296875 48.78125 10.40625 
L 48.78125 2.09375 
Q 45.015625 0.34375 40.984375 -0.53125 
Q 36.96875 -1.421875 32.421875 -1.421875 
Q 20.0625 -1.421875 12.78125 6.34375 
Q 5.515625 14.109375 5.515625 27.296875 
Q 5.515625 40.671875 12.859375 48.328125 
Q 20.21875 56 33.015625 56 
Q 37.15625 56 41.109375 55.140625 
Q 45.0625 54.296875 48.78125 52.59375 
" id="DejaVuSans-63"/>
      <path d="M 30.609375 48.390625 
Q 23.390625 48.390625 19.1875 42.75 
Q 14.984375 37.109375 14.984375 27.296875 
Q 14.984375 17.484375 19.15625 11.84375 
Q 23.34375 6.203125 30.609375 6.203125 
Q 37.796875 6.203125 41.984375 11.859375 
Q 46.1875 17.53125 46.1875 27.296875 
Q 46.1875 37.015625 41.984375 42.703125 
Q 37.796875 48.390625 30.609375 48.390625 
M 30.609375 56 
Q 42.328125 56 49.015625 48.375 
Q 55.71875 40.765625 55.71875 27.296875 
Q 55.71875 13.875 49.015625 6.21875 
Q 42.328125 -1.421875 30.609375 -1.421875 
Q 18.84375 -1.421875 12.171875 6.21875 
Q 5.515625 13.875 5.515625 27.296875 
Q 5.515625 40.765625 12.171875 48.375 
Q 18.84375 56 30.609375 56 
" id="DejaVuSans-6f"/>
      <path d="M 54.890625 33.015625 
L 54.890625 0 
L 45.90625 0 
L 45.90625 32.71875 
Q 45.90625 40.484375 42.875 44.328125 
Q 39.84375 48.1875 33.796875 48.1875 
Q 26.515625 48.1875 22.3125 43.546875 
Q 18.109375 38.921875 18.109375 30.90625 
L 18.109375 0 
L 9.078125 0 
L 9.078125 54.6875 
L 18.109375 54.6875 
L 18.109375 46.1875 
Q 21.34375 51.125 25.703125 53.5625 
Q 30.078125 56 35.796875 56 
Q 45.21875 56 50.046875 50.171875 
Q 54.890625 44.34375 54.890625 33.015625 
" id="DejaVuSans-6e"/>
      <path d="M 45.40625 46.390625 
L 45.40625 75.984375 
L 54.390625 75.984375 
L 54.390625 0 
L 45.40625 0 
L 45.40625 8.203125 
Q 42.578125 3.328125 38.25 0.953125 
Q 33.9375 -1.421875 27.875 -1.421875 
Q 17.96875 -1.421875 11.734375 6.484375 
Q 5.515625 14.40625 5.515625 27.296875 
Q 5.515625 40.1875 11.734375 48.09375 
Q 17.96875 56 27.875 56 
Q 33.9375 56 38.25 53.625 
Q 42.578125 51.265625 45.40625 46.390625 
M 14.796875 27.296875 
Q 14.796875 17.390625 18.875 11.75 
Q 22.953125 6.109375 30.078125 6.109375 
Q 37.203125 6.109375 41.296875 11.75 
Q 45.40625 17.390625 45.40625 27.296875 
Q 45.40625 37.203125 41.296875 42.84375 
Q 37.203125 48.484375 30.078125 48.484375 
Q 22.953125 48.484375 18.875 42.84375 
Q 14.796875 37.203125 14.796875 27.296875 
" id="DejaVuSans-64"/>
     </defs>
     <g transform="translate(200.9625 280.276563)scale(0.1 -0.1)">
      <use xlink:href="#DejaVuSans-73"/>
      <use x="52.099609" xlink:href="#DejaVuSans-65"/>
      <use x="113.623047" xlink:href="#DejaVuSans-63"/>
      <use x="168.603516" xlink:href="#DejaVuSans-6f"/>
      <use x="229.785156" xlink:href="#DejaVuSans-6e"/>
      <use x="293.164062" xlink:href="#DejaVuSans-64"/>
      <use x="356.640625" xlink:href="#DejaVuSans-73"/>
     </g>
    </g>
   </g>
   <g id="matplotlib.axis_2">
    <g id="ytick_1">
     <g id="line2d_13">
      <path clip-path="url(#pe218eca928)" d="M 54 242.726665 
L 388.8 242.726665 
" style="fill:none;stroke:#b0b0b0;stroke-linecap:square;stroke-width:0.8;"/>
     </g>
     <g id="line2d_14">
      <defs>
       <path d="M 0 0 
L -3.5 0 
" id="mfd34d0d37e" style="stroke:#000000;stroke-width:0.8;"/>
      </defs>
      <g>
       <use style="stroke:#000000;stroke-width:0.8;" x="54" xlink:href="#mfd34d0d37e" y="242.726665"/>
      </g>
     </g>
     <g id="text_8">
      <!-- −1500 -->
      <defs>
       <path d="M 10.59375 35.5 
L 73.1875 35.5 
L 73.1875 27.203125 
L 10.59375 27.203125 
z
" id="DejaVuSans-2212"/>
       <path d="M 10.796875 72.90625 
L 49.515625 72.90625 
L 49.515625 64.59375 
L 19.828125 64.59375 
L 19.828125 46.734375 
Q 21.96875 47.46875 24.109375 47.828125 
Q 26.265625 48.1875 28.421875 48.1875 
Q 40.625 48.1875 47.75 41.5 
Q 54.890625 34.8125 54.890625 23.390625 
Q 54.890625 11.625 47.5625 5.09375 
Q 40.234375 -1.421875 26.90625 -1.421875 
Q 22.3125 -1.421875 17.546875 -0.640625 
Q 12.796875 0.140625 7.71875 1.703125 
L 7.71875 11.625 
Q 12.109375 9.234375 16.796875 8.0625 
Q 21.484375 6.890625 26.703125 6.890625 
Q 35.15625 6.890625 40.078125 11.328125 
Q 45.015625 15.765625 45.015625 23.390625 
Q 45.015625 31 40.078125 35.4375 
Q 35.15625 39.890625 26.703125 39.890625 
Q 22.75 39.890625 18.8125 39.015625 
Q 14.890625 38.140625 10.796875 36.28125 
z
" id="DejaVuSans-35"/>
      </defs>
      <g transform="translate(13.170313 246.525883)scale(0.1 -0.1)">
       <use xlink:href="#DejaVuSans-2212"/>
       <use x="83.789062" xlink:href="#DejaVuSans-31"/>
       <use x="147.412109" xlink:href="#DejaVuSans-35"/>
       <use x="211.035156" xlink:href="#DejaVuSans-30"/>
       <use x="274.658203" xlink:href="#DejaVuSans-30"/>
      </g>
     </g>
    </g>
    <g id="ytick_2">
     <g id="line2d_15">
      <path clip-path="url(#pe218eca928)" d="M 54 206.945741 
L 388.8 206.945741 
" style="fill:none;stroke:#b0b0b0;stroke-linecap:square;stroke-width:0.8;"/>
     </g>
     <g id="line2d_16">
      <g>
       <use style="stroke:#000000;stroke-width:0.8;" x="54" xlink:href="#mfd34d0d37e" y="206.945741"/>
      </g>
     </g>
     <g id="text_9">
      <!-- −1000 -->
      <g transform="translate(13.170313 210.744959)scale(0.1 -0.1)">
       <use xlink:href="#DejaVuSans-2212"/>
       <use x="83.789062" xlink:href="#DejaVuSans-31"/>
       <use x="147.412109" xlink:href="#DejaVuSans-30"/>
       <use x="211.035156" xlink:href="#DejaVuSans-30"/>
       <use x="274.658203" xlink:href="#DejaVuSans-30"/>
      </g>
     </g>
    </g>
    <g id="ytick_3">
     <g id="line2d_17">
      <path clip-path="url(#pe218eca928)" d="M 54 171.164817 
L 388.8 171.164817 
" style="fill:none;stroke:#b0b0b0;stroke-linecap:square;stroke-width:0.8;"/>
     </g>
     <g id="line2d_18">
      <g>
       <use style="stroke:#000000;stroke-width:0.8;" x="54" xlink:href="#mfd34d0d37e" y="171.164817"/>
      </g>
     </g>
     <g id="text_10">
      <!-- −500 -->
      <g transform="translate(19.532812 174.964035)scale(0.1 -0.1)">
       <use xlink:href="#DejaVuSans-2212"/>
       <use x="83.789062" xlink:href="#DejaVuSans-35"/>
       <use x="147.412109" xlink:href="#DejaVuSans-30"/>
       <use x="211.035156" xlink:href="#DejaVuSans-30"/>
      </g>
     </g>
    </g>
    <g id="ytick_4">
     <g id="line2d_19">
      <path clip-path="url(#pe218eca928)" d="M 54 135.383893 
L 388.8 135.383893 
" style="fill:none;stroke:#b0b0b0;stroke-linecap:square;stroke-width:0.8;"/>
     </g>
     <g id="line2d_20">
      <g>
       <use style="stroke:#000000;stroke-width:0.8;" x="54" xlink:href="#mfd34d0d37e" y="135.383893"/>
      </g>
     </g>
     <g id="text_11">
      <!-- 0 -->
      <g transform="translate(40.6375 139.183111)scale(0.1 -0.1)">
       <use xlink:href="#DejaVuSans-30"/>
      </g>
     </g>
    </g>
    <g id="ytick_5">
     <g id="line2d_21">
      <path clip-path="url(#pe218eca928)" d="M 54 99.602969 
L 388.8 99.602969 
" style="fill:none;stroke:#b0b0b0;stroke-linecap:square;stroke-width:0.8;"/>
     </g>
     <g id="line2d_22">
      <g>
       <use style="stroke:#000000;stroke-width:0.8;" x="54" xlink:href="#mfd34d0d37e" y="99.602969"/>
      </g>
     </g>
     <g id="text_12">
      <!-- 500 -->
      <g transform="translate(27.9125 103.402187)scale(0.1 -0.1)">
       <use xlink:href="#DejaVuSans-35"/>
       <use x="63.623047" xlink:href="#DejaVuSans-30"/>
       <use x="127.246094" xlink:href="#DejaVuSans-30"/>
      </g>
     </g>
    </g>
    <g id="ytick_6">
     <g id="line2d_23">
      <path clip-path="url(#pe218eca928)" d="M 54 63.822045 
L 388.8 63.822045 
" style="fill:none;stroke:#b0b0b0;stroke-linecap:square;stroke-width:0.8;"/>
     </g>
     <g id="line2d_24">
      <g>
       <use style="stroke:#000000;stroke-width:0.8;" x="54" xlink:href="#mfd34d0d37e" y="63.822045"/>
      </g>
     </g>
     <g id="text_13">
      <!-- 1000 -->
      <g transform="translate(21.55 67.621263)scale(0.1 -0.1)">
       <use xlink:href="#DejaVuSans-31"/>
       <use x="63.623047" xlink:href="#DejaVuSans-30"/>
       <use x="127.246094" xlink:href="#DejaVuSans-30"/>
       <use x="190.869141" xlink:href="#DejaVuSans-30"/>
      </g>
     </g>
    </g>
    <g id="text_14">
     <!-- Kilowatts  -->
     <defs>
      <path d="M 9.8125 72.90625 
L 19.671875 72.90625 
L 19.671875 42.09375 
L 52.390625 72.90625 
L 65.09375 72.90625 
L 28.90625 38.921875 
L 67.671875 0 
L 54.6875 0 
L 19.671875 35.109375 
L 19.671875 0 
L 9.8125 0 
z
" id="DejaVuSans-4b"/>
      <path d="M 9.421875 54.6875 
L 18.40625 54.6875 
L 18.40625 0 
L 9.421875 0 
z
M 9.421875 75.984375 
L 18.40625 75.984375 
L 18.40625 64.59375 
L 9.421875 64.59375 
z
" id="DejaVuSans-69"/>
      <path d="M 9.421875 75.984375 
L 18.40625 75.984375 
L 18.40625 0 
L 9.421875 0 
z
" id="DejaVuSans-6c"/>
      <path d="M 4.203125 54.6875 
L 13.1875 54.6875 
L 24.421875 12.015625 
L 35.59375 54.6875 
L 46.1875 54.6875 
L 57.421875 12.015625 
L 68.609375 54.6875 
L 77.59375 54.6875 
L 63.28125 0 
L 52.6875 0 
L 40.921875 44.828125 
L 29.109375 0 
L 18.5 0 
z
" id="DejaVuSans-77"/>
      <path d="M 34.28125 27.484375 
Q 23.390625 27.484375 19.1875 25 
Q 14.984375 22.515625 14.984375 16.5 
Q 14.984375 11.71875 18.140625 8.90625 
Q 21.296875 6.109375 26.703125 6.109375 
Q 34.1875 6.109375 38.703125 11.40625 
Q 43.21875 16.703125 43.21875 25.484375 
L 43.21875 27.484375 
z
M 52.203125 31.203125 
L 52.203125 0 
L 43.21875 0 
L 43.21875 8.296875 
Q 40.140625 3.328125 35.546875 0.953125 
Q 30.953125 -1.421875 24.3125 -1.421875 
Q 15.921875 -1.421875 10.953125 3.296875 
Q 6 8.015625 6 15.921875 
Q 6 25.140625 12.171875 29.828125 
Q 18.359375 34.515625 30.609375 34.515625 
L 43.21875 34.515625 
L 43.21875 35.40625 
Q 43.21875 41.609375 39.140625 45 
Q 35.0625 48.390625 27.6875 48.390625 
Q 23 48.390625 18.546875 47.265625 
Q 14.109375 46.140625 10.015625 43.890625 
L 10.015625 52.203125 
Q 14.9375 54.109375 19.578125 55.046875 
Q 24.21875 56 28.609375 56 
Q 40.484375 56 46.34375 49.84375 
Q 52.203125 43.703125 52.203125 31.203125 
" id="DejaVuSans-61"/>
      <path d="M 18.3125 70.21875 
L 18.3125 54.6875 
L 36.8125 54.6875 
L 36.8125 47.703125 
L 18.3125 47.703125 
L 18.3125 18.015625 
Q 18.3125 11.328125 20.140625 9.421875 
Q 21.96875 7.515625 27.59375 7.515625 
L 36.8125 7.515625 
L 36.8125 0 
L 27.59375 0 
Q 17.1875 0 13.234375 3.875 
Q 9.28125 7.765625 9.28125 18.015625 
L 9.28125 47.703125 
L 2.6875 47.703125 
L 2.6875 54.6875 
L 9.28125 54.6875 
L 9.28125 70.21875 
z
" id="DejaVuSans-74"/>
      <path id="DejaVuSans-20"/>
     </defs>
     <g transform="translate(7.090625 167.663594)rotate(-90)scale(0.1 -0.1)">
      <use xlink:href="#DejaVuSans-4b"/>
      <use x="65.576172" xlink:href="#DejaVuSans-69"/>
      <use x="93.359375" xlink:href="#DejaVuSans-6c"/>
      <use x="121.142578" xlink:href="#DejaVuSans-6f"/>
      <use x="182.324219" xlink:href="#DejaVuSans-77"/>
      <use x="264.111328" xlink:href="#DejaVuSans-61"/>
      <use x="325.390625" xlink:href="#DejaVuSans-74"/>
      <use x="364.599609" xlink:href="#DejaVuSans-74"/>
      <use x="403.808594" xlink:href="#DejaVuSans-73"/>
      <use x="455.908203" xlink:href="#DejaVuSans-20"/>
     </g>
    </g>
   </g>
   <g id="line2d_25">
    <path clip-path="url(#pe218eca928)" d="M 69.218182 131.938122 
L 70.132187 130.317854 
L 70.436855 130.857943 
L 70.741523 131.938122 
L 71.046192 129.777765 
L 71.655528 130.857943 
L 71.960197 131.938122 
L 72.264865 131.398033 
L 72.569533 131.398033 
L 72.874201 130.857943 
L 73.17887 131.938122 
L 74.092875 131.938122 
L 74.397543 132.478212 
L 74.702211 131.938122 
L 75.311548 131.938122 
L 75.616216 133.018301 
L 75.920885 131.938122 
L 76.225553 131.398033 
L 76.530221 133.018301 
L 76.834889 133.018301 
L 77.139558 131.938122 
L 77.444226 131.398033 
L 77.748894 132.478212 
L 78.358231 131.398033 
L 78.662899 131.938122 
L 78.967568 131.938122 
L 79.272236 131.398033 
L 79.576904 132.478212 
L 79.881572 131.398033 
L 80.186241 133.018301 
L 80.490909 131.398033 
L 80.795577 132.478212 
L 81.100246 131.938122 
L 81.404914 132.478212 
L 81.709582 131.938122 
L 82.014251 130.317854 
L 82.623587 132.478212 
L 82.928256 130.857943 
L 83.232924 131.938122 
L 83.537592 132.478212 
L 83.84226 132.478212 
L 84.146929 131.938122 
L 84.451597 133.018301 
L 84.756265 130.317854 
L 85.060934 133.018301 
L 85.365602 131.398033 
L 85.67027 131.398033 
L 85.974939 130.857943 
L 86.279607 132.478212 
L 86.584275 130.857943 
L 86.888943 132.478212 
L 87.193612 131.398033 
L 87.49828 132.478212 
L 87.802948 134.09848 
L 88.107617 133.018301 
L 88.716953 134.09848 
L 89.32629 133.018301 
L 89.630958 130.857943 
L 89.935627 135.718748 
L 90.240295 133.55839 
L 90.544963 134.09848 
L 90.849631 130.317854 
L 91.1543 136.258838 
L 91.458968 134.09848 
L 91.763636 136.258838 
L 92.068305 129.777765 
L 92.372973 140.039463 
L 92.677641 135.178659 
L 92.98231 137.879106 
L 93.286978 134.638569 
L 93.591646 139.499374 
L 93.896314 147.600715 
L 94.200983 148.680894 
L 94.505651 146.520537 
L 94.810319 169.744382 
L 95.114988 156.242146 
L 95.419656 124.91696 
L 95.724324 61.726498 
L 96.028993 79.549449 
L 96.333661 117.895797 
L 96.638329 131.398033 
L 96.942998 132.478212 
L 97.247666 132.478212 
L 97.552334 130.317854 
L 97.857002 130.317854 
L 98.161671 129.777765 
L 98.466339 129.777765 
L 98.771007 127.077317 
L 99.075676 128.697586 
L 99.380344 131.938122 
L 99.685012 130.857943 
L 99.989681 140.039463 
L 100.294349 130.317854 
L 100.599017 130.317854 
L 100.903686 130.857943 
L 101.513022 129.777765 
L 101.81769 127.617407 
L 102.122359 127.077317 
L 102.427027 128.157496 
L 103.341032 123.296692 
L 103.6457 126.537228 
L 103.950369 118.975976 
L 104.255037 117.355708 
L 104.559705 116.815618 
L 105.169042 95.752131 
L 105.47371 119.516066 
L 105.778378 121.136334 
L 106.083047 242.116364 
L 106.387715 147.600715 
L 106.692383 131.398033 
L 106.997052 129.777765 
L 107.30172 132.478212 
L 107.606388 132.478212 
L 107.911057 135.178659 
L 108.215725 135.718748 
L 108.520393 136.798927 
L 108.825061 131.398033 
L 109.12973 122.216513 
L 109.434398 133.55839 
L 109.739066 133.55839 
L 110.043735 131.938122 
L 110.348403 131.398033 
L 110.653071 131.938122 
L 110.95774 135.718748 
L 111.262408 134.638569 
L 111.567076 136.798927 
L 111.871744 137.879106 
L 112.176413 140.039463 
L 112.481081 140.579553 
L 112.785749 141.659732 
L 113.090418 146.520537 
L 113.395086 146.520537 
L 113.699754 179.465991 
L 114.004423 158.402504 
L 114.309091 152.46152 
L 114.613759 44.443636 
L 115.223096 127.077317 
L 115.527764 133.55839 
L 116.137101 130.317854 
L 116.441769 131.398033 
L 116.746437 128.697586 
L 117.051106 127.617407 
L 117.355774 131.398033 
L 117.660442 131.938122 
L 117.965111 140.039463 
L 118.269779 131.398033 
L 118.574447 130.317854 
L 118.879115 131.938122 
L 119.183784 130.857943 
L 119.488452 130.317854 
L 119.79312 133.018301 
L 120.097789 127.077317 
L 120.402457 128.157496 
L 120.707125 129.777765 
L 121.011794 122.756602 
L 121.316462 130.317854 
L 121.62113 120.056155 
L 121.925799 123.836781 
L 122.230467 122.756602 
L 122.535135 127.077317 
L 122.839803 110.334545 
L 123.144472 109.254367 
L 123.44914 109.794456 
L 123.753808 101.693115 
L 124.058477 109.254367 
L 124.363145 180.54617 
L 124.667813 203.229925 
L 124.972482 155.702057 
L 125.27715 133.55839 
L 125.581818 129.777765 
L 125.886486 130.857943 
L 126.800491 132.478212 
L 127.10516 132.478212 
L 127.409828 133.018301 
L 127.714496 135.718748 
L 128.019165 133.55839 
L 128.628501 131.398033 
L 128.93317 125.457049 
L 129.542506 133.55839 
L 130.151843 132.478212 
L 130.456511 131.398033 
L 130.761179 133.018301 
L 131.065848 132.478212 
L 131.370516 130.317854 
L 131.675184 130.857943 
L 131.979853 136.258838 
L 132.284521 133.018301 
L 132.589189 131.938122 
L 132.893857 132.478212 
L 133.198526 136.258838 
L 133.807862 130.317854 
L 134.417199 137.879106 
L 134.721867 135.718748 
L 135.026536 136.258838 
L 135.331204 135.718748 
L 135.940541 138.419195 
L 136.245209 131.938122 
L 136.549877 136.258838 
L 136.854545 144.900268 
L 137.159214 140.579553 
L 137.463882 142.199821 
L 137.76855 158.402504 
L 138.073219 162.18313 
L 138.987224 116.275529 
L 139.59656 62.806677 
L 139.901229 118.975976 
L 140.205897 127.617407 
L 140.510565 131.938122 
L 140.815233 131.938122 
L 141.119902 132.478212 
L 141.42457 131.398033 
L 141.729238 130.857943 
L 142.033907 131.398033 
L 142.338575 130.317854 
L 142.643243 130.317854 
L 142.947912 128.697586 
L 143.25258 129.237675 
L 143.557248 128.157496 
L 143.861916 129.237675 
L 144.166585 131.938122 
L 144.471253 133.018301 
L 144.775921 130.317854 
L 145.08059 138.959285 
L 145.385258 131.398033 
L 145.689926 131.938122 
L 145.994595 129.777765 
L 146.299263 130.857943 
L 146.9086 131.938122 
L 147.213268 130.857943 
L 147.517936 130.317854 
L 147.822604 130.857943 
L 148.127273 128.697586 
L 148.431941 129.777765 
L 148.736609 126.537228 
L 149.041278 129.237675 
L 149.345946 128.157496 
L 149.650614 125.457049 
L 149.955283 129.237675 
L 150.259951 122.756602 
L 150.564619 127.077317 
L 150.869287 121.136334 
L 151.173956 123.296692 
L 151.478624 122.216513 
L 151.783292 122.216513 
L 152.087961 104.933651 
L 152.392629 103.313383 
L 152.697297 111.414724 
L 153.001966 129.777765 
L 153.306634 131.938122 
L 153.611302 208.63082 
L 154.220639 133.55839 
L 154.525307 130.317854 
L 154.829975 130.317854 
L 155.134644 131.938122 
L 155.439312 132.478212 
L 156.048649 132.478212 
L 156.353317 134.638569 
L 156.657985 134.638569 
L 156.962654 132.478212 
L 157.267322 131.938122 
L 157.57199 123.296692 
L 157.876658 131.398033 
L 158.181327 133.55839 
L 158.485995 133.55839 
L 158.790663 130.857943 
L 159.095332 132.478212 
L 159.4 131.938122 
L 159.704668 133.018301 
L 160.009337 134.638569 
L 160.314005 133.55839 
L 160.618673 138.959285 
L 160.923342 134.638569 
L 161.22801 137.339016 
L 161.532678 135.178659 
L 161.837346 138.959285 
L 162.142015 138.959285 
L 162.446683 138.419195 
L 162.751351 136.798927 
L 163.05602 143.28 
L 163.360688 144.360179 
L 163.665356 137.879106 
L 164.274693 170.284471 
L 164.579361 160.562861 
L 164.884029 129.777765 
L 165.188698 87.65079 
L 165.493366 77.389091 
L 166.102703 128.697586 
L 166.407371 133.55839 
L 166.712039 133.018301 
L 167.016708 131.938122 
L 167.626044 130.857943 
L 167.930713 129.777765 
L 168.235381 129.237675 
L 168.540049 129.237675 
L 169.149386 130.317854 
L 169.454054 130.317854 
L 169.758722 137.879106 
L 170.063391 131.398033 
L 170.368059 129.777765 
L 170.672727 130.317854 
L 170.977396 132.478212 
L 171.282064 130.317854 
L 171.586732 131.938122 
L 171.8914 130.317854 
L 172.196069 130.857943 
L 172.500737 128.697586 
L 172.805405 129.777765 
L 173.110074 129.237675 
L 173.414742 130.857943 
L 173.71941 128.157496 
L 174.024079 129.777765 
L 174.328747 129.777765 
L 174.633415 130.857943 
L 174.938084 128.697586 
L 175.242752 128.157496 
L 175.54742 130.317854 
L 175.852088 128.157496 
L 176.156757 128.157496 
L 176.461425 124.37687 
L 176.766093 131.398033 
L 177.070762 128.157496 
L 177.37543 128.697586 
L 177.680098 131.938122 
L 177.984767 127.077317 
L 178.289435 125.997139 
L 178.594103 128.697586 
L 178.898771 128.697586 
L 179.508108 125.997139 
L 179.812776 126.537228 
L 180.117445 131.398033 
L 180.422113 118.975976 
L 180.726781 128.697586 
L 181.336118 120.056155 
L 181.640786 96.83231 
L 181.945455 121.676423 
L 182.250123 123.836781 
L 182.554791 143.820089 
L 182.859459 123.296692 
L 183.164128 140.039463 
L 183.468796 192.968227 
L 183.773464 134.638569 
L 184.078133 158.402504 
L 184.382801 154.081788 
L 184.687469 137.339016 
L 185.296806 130.857943 
L 185.601474 131.398033 
L 185.906143 130.857943 
L 186.515479 131.938122 
L 186.820147 131.938122 
L 187.124816 130.317854 
L 187.429484 130.857943 
L 187.734152 132.478212 
L 188.038821 131.938122 
L 188.343489 132.478212 
L 188.648157 131.938122 
L 189.257494 133.018301 
L 189.562162 132.478212 
L 189.86683 133.55839 
L 190.171499 132.478212 
L 190.476167 133.55839 
L 190.780835 133.018301 
L 191.390172 133.018301 
L 191.69484 134.09848 
L 191.999509 131.398033 
L 192.304177 131.398033 
L 192.608845 132.478212 
L 192.913514 130.857943 
L 193.218182 123.836781 
L 193.52285 133.55839 
L 193.827518 131.938122 
L 194.132187 133.55839 
L 194.436855 132.478212 
L 194.741523 131.938122 
L 195.046192 133.018301 
L 195.35086 132.478212 
L 195.655528 132.478212 
L 195.960197 133.55839 
L 196.264865 135.178659 
L 196.569533 130.857943 
L 197.17887 140.579553 
L 197.483538 136.258838 
L 197.788206 138.959285 
L 198.092875 135.178659 
L 198.702211 143.28 
L 199.311548 147.060626 
L 199.616216 156.782235 
L 199.920885 176.225455 
L 200.225553 134.09848 
L 200.530221 63.346766 
L 200.834889 84.950343 
L 201.139558 120.596244 
L 201.444226 133.018301 
L 201.748894 132.478212 
L 202.053563 129.777765 
L 202.358231 129.777765 
L 202.662899 130.317854 
L 202.967568 129.237675 
L 203.272236 129.237675 
L 203.576904 133.55839 
L 203.881572 132.478212 
L 204.186241 138.419195 
L 204.490909 129.777765 
L 204.795577 131.938122 
L 205.100246 130.857943 
L 205.404914 130.317854 
L 205.709582 131.398033 
L 206.014251 124.91696 
L 206.318919 125.997139 
L 206.623587 125.997139 
L 206.928256 125.457049 
L 207.232924 123.296692 
L 207.537592 120.056155 
L 207.84226 122.216513 
L 208.451597 107.094009 
L 208.756265 74.148554 
L 209.060934 122.216513 
L 209.365602 211.871356 
L 209.974939 133.018301 
L 210.279607 129.777765 
L 210.584275 131.938122 
L 210.888943 133.018301 
L 211.193612 133.55839 
L 211.49828 135.718748 
L 211.802948 135.178659 
L 212.107617 131.938122 
L 212.412285 122.216513 
L 212.716953 134.09848 
L 213.021622 133.55839 
L 213.32629 132.478212 
L 213.630958 132.478212 
L 213.935627 135.178659 
L 214.240295 133.018301 
L 214.544963 135.718748 
L 214.849631 136.258838 
L 215.1543 137.339016 
L 215.763636 137.339016 
L 216.068305 142.199821 
L 216.372973 140.039463 
L 216.677641 140.039463 
L 217.286978 158.942593 
L 217.591646 163.803398 
L 218.505651 64.426945 
L 218.810319 125.457049 
L 219.114988 134.09848 
L 219.419656 133.018301 
L 219.724324 130.857943 
L 220.028993 130.857943 
L 220.333661 130.317854 
L 220.942998 128.157496 
L 221.552334 133.018301 
L 221.857002 138.419195 
L 222.161671 131.938122 
L 222.466339 130.857943 
L 222.771007 130.857943 
L 223.075676 131.398033 
L 223.380344 130.857943 
L 223.685012 129.777765 
L 223.989681 127.617407 
L 224.294349 128.157496 
L 224.599017 128.157496 
L 224.903686 129.777765 
L 225.208354 126.537228 
L 225.513022 125.457049 
L 225.81769 127.617407 
L 226.122359 125.457049 
L 226.427027 118.435887 
L 226.731695 125.997139 
L 227.036364 115.19535 
L 227.341032 118.975976 
L 227.6457 95.752131 
L 227.950369 98.452578 
L 228.864373 195.668674 
L 229.169042 146.520537 
L 229.47371 132.478212 
L 229.778378 129.237675 
L 230.083047 131.398033 
L 230.387715 131.398033 
L 230.692383 130.857943 
L 231.30172 133.55839 
L 231.606388 133.55839 
L 231.911057 134.638569 
L 232.215725 131.398033 
L 232.520393 132.478212 
L 232.825061 121.136334 
L 233.12973 132.478212 
L 233.739066 132.478212 
L 234.043735 131.398033 
L 234.348403 131.398033 
L 234.653071 129.237675 
L 234.95774 133.55839 
L 235.262408 131.938122 
L 235.567076 134.09848 
L 236.176413 134.09848 
L 236.481081 133.018301 
L 236.785749 135.178659 
L 237.090418 135.718748 
L 237.395086 136.798927 
L 237.699754 133.018301 
L 238.004423 144.360179 
L 238.309091 133.018301 
L 238.613759 145.980447 
L 238.918428 140.579553 
L 239.223096 151.921431 
L 239.527764 144.360179 
L 239.832432 162.18313 
L 240.137101 153.00161 
L 240.441769 124.37687 
L 240.746437 72.528286 
L 241.051106 88.730969 
L 241.355774 116.275529 
L 241.660442 128.697586 
L 241.965111 132.478212 
L 242.574447 130.317854 
L 243.183784 130.317854 
L 243.488452 129.777765 
L 243.79312 128.157496 
L 244.097789 127.617407 
L 244.402457 128.157496 
L 244.707125 130.317854 
L 245.011794 130.317854 
L 245.316462 135.718748 
L 245.62113 133.018301 
L 245.925799 128.697586 
L 246.230467 128.697586 
L 246.535135 130.857943 
L 246.839803 129.777765 
L 247.44914 130.857943 
L 247.753808 130.317854 
L 248.058477 128.697586 
L 248.667813 128.697586 
L 248.972482 130.857943 
L 249.27715 125.997139 
L 249.581818 127.077317 
L 249.886486 128.697586 
L 250.191155 129.237675 
L 250.495823 125.457049 
L 250.800491 125.997139 
L 251.10516 124.37687 
L 251.409828 123.836781 
L 251.714496 120.596244 
L 252.019165 118.975976 
L 252.323833 110.334545 
L 252.628501 110.334545 
L 252.93317 120.056155 
L 253.237838 110.874635 
L 253.542506 168.664203 
L 253.847174 167.043934 
L 254.151843 179.465991 
L 254.456511 140.579553 
L 254.761179 133.018301 
L 255.065848 131.398033 
L 255.370516 130.857943 
L 255.675184 130.857943 
L 255.979853 131.938122 
L 256.589189 133.018301 
L 257.198526 131.938122 
L 257.503194 133.55839 
L 258.112531 130.857943 
L 258.417199 129.777765 
L 258.721867 123.836781 
L 259.026536 131.938122 
L 259.331204 133.018301 
L 259.635872 131.398033 
L 259.940541 130.857943 
L 260.549877 131.938122 
L 260.854545 130.857943 
L 261.159214 135.718748 
L 261.463882 130.857943 
L 261.76855 137.339016 
L 262.073219 133.018301 
L 262.377887 135.718748 
L 262.682555 136.258838 
L 262.987224 138.419195 
L 263.291892 139.499374 
L 263.59656 138.959285 
L 263.901229 141.119642 
L 264.205897 148.680894 
L 264.510565 152.46152 
L 264.815233 160.562861 
L 265.119902 145.980447 
L 265.42457 113.034993 
L 265.729238 111.954814 
L 266.033907 71.448107 
L 266.338575 121.136334 
L 266.643243 132.478212 
L 266.947912 132.478212 
L 267.25258 130.857943 
L 267.557248 131.398033 
L 267.861916 130.857943 
L 268.166585 129.777765 
L 268.775921 128.697586 
L 269.08059 131.938122 
L 269.385258 131.938122 
L 269.689926 140.579553 
L 269.994595 130.857943 
L 270.299263 130.317854 
L 270.603931 131.398033 
L 270.9086 130.857943 
L 271.213268 130.857943 
L 271.517936 128.697586 
L 271.822604 130.317854 
L 272.127273 127.617407 
L 272.431941 129.237675 
L 272.736609 126.537228 
L 273.345946 126.537228 
L 273.650614 121.676423 
L 273.955283 123.836781 
L 274.259951 121.676423 
L 274.564619 121.676423 
L 274.869287 113.034993 
L 275.173956 98.992668 
L 275.478624 108.174188 
L 275.783292 126.537228 
L 276.087961 180.54617 
L 276.392629 180.00608 
L 276.697297 150.301162 
L 277.001966 133.018301 
L 277.306634 129.777765 
L 277.611302 131.938122 
L 277.915971 130.857943 
L 278.220639 132.478212 
L 278.829975 133.55839 
L 279.134644 133.018301 
L 279.439312 134.09848 
L 279.74398 133.55839 
L 280.048649 131.398033 
L 280.353317 127.077317 
L 280.657985 127.617407 
L 280.962654 131.938122 
L 281.267322 131.938122 
L 281.57199 130.857943 
L 281.876658 131.938122 
L 282.181327 130.857943 
L 282.485995 133.55839 
L 282.790663 132.478212 
L 283.4 135.178659 
L 283.704668 133.55839 
L 284.009337 135.718748 
L 284.618673 135.718748 
L 284.923342 138.419195 
L 285.22801 138.959285 
L 285.532678 141.119642 
L 285.837346 142.199821 
L 286.142015 158.942593 
L 286.446683 149.220984 
L 286.751351 172.984918 
L 287.665356 56.325604 
L 287.970025 113.034993 
L 288.274693 130.857943 
L 288.579361 132.478212 
L 288.884029 131.938122 
L 289.188698 129.777765 
L 289.493366 129.777765 
L 289.798034 128.697586 
L 290.102703 128.157496 
L 290.407371 128.157496 
L 290.712039 131.398033 
L 291.016708 130.317854 
L 291.321376 139.499374 
L 291.626044 129.237675 
L 291.930713 129.777765 
L 292.235381 131.398033 
L 292.540049 129.777765 
L 292.844717 129.777765 
L 293.149386 129.237675 
L 293.454054 125.457049 
L 293.758722 126.537228 
L 294.063391 125.457049 
L 294.368059 127.617407 
L 294.672727 118.435887 
L 294.977396 123.296692 
L 295.586732 117.355708 
L 295.8914 103.853472 
L 296.196069 83.870164 
L 296.500737 95.212042 
L 296.805405 223.213234 
L 297.414742 136.258838 
L 297.71941 130.317854 
L 298.024079 130.317854 
L 298.328747 131.398033 
L 298.633415 133.018301 
L 298.938084 133.55839 
L 299.242752 134.638569 
L 299.54742 131.398033 
L 299.852088 125.457049 
L 300.156757 130.317854 
L 300.461425 133.018301 
L 301.070762 131.938122 
L 301.37543 132.478212 
L 301.984767 134.638569 
L 302.594103 135.718748 
L 302.898771 134.638569 
L 303.20344 139.499374 
L 303.508108 135.178659 
L 303.812776 139.499374 
L 304.117445 136.258838 
L 304.422113 150.301162 
L 304.726781 149.220984 
L 305.03145 143.820089 
L 305.336118 182.166438 
L 305.640786 150.841252 
L 306.250123 52.544978 
L 306.554791 116.815618 
L 306.859459 131.398033 
L 307.164128 133.018301 
L 307.468796 130.857943 
L 307.773464 131.398033 
L 308.078133 129.777765 
L 308.382801 129.777765 
L 308.687469 128.697586 
L 308.992138 129.237675 
L 309.296806 130.857943 
L 309.601474 130.317854 
L 309.906143 140.579553 
L 310.210811 130.317854 
L 310.515479 128.697586 
L 310.820147 130.857943 
L 311.124816 129.237675 
L 311.429484 130.857943 
L 311.734152 129.237675 
L 312.038821 130.317854 
L 312.648157 127.077317 
L 312.952826 128.157496 
L 313.257494 124.37687 
L 313.562162 125.997139 
L 313.86683 124.91696 
L 314.171499 125.997139 
L 314.476167 124.37687 
L 314.780835 117.895797 
L 315.085504 123.836781 
L 315.390172 113.034993 
L 315.69484 109.794456 
L 315.999509 89.271058 
L 316.608845 136.798927 
L 316.913514 196.208763 
L 317.218182 175.685365 
L 317.52285 141.119642 
L 317.827518 131.938122 
L 318.132187 130.317854 
L 318.436855 130.317854 
L 318.741523 131.398033 
L 319.046192 131.938122 
L 319.35086 131.398033 
L 319.655528 133.018301 
L 319.960197 132.478212 
L 320.264865 133.55839 
L 320.569533 132.478212 
L 320.874201 130.317854 
L 321.17887 123.836781 
L 321.483538 130.317854 
L 321.788206 132.478212 
L 322.092875 133.018301 
L 322.397543 130.317854 
L 322.702211 133.018301 
L 323.00688 131.398033 
L 323.616216 134.09848 
L 323.920885 134.09848 
L 324.225553 135.718748 
L 324.530221 134.638569 
L 324.834889 135.718748 
L 325.444226 140.579553 
L 325.748894 141.659732 
L 326.053563 135.718748 
L 326.358231 155.161967 
L 326.662899 152.46152 
L 326.967568 171.904739 
L 327.576904 115.73544 
L 327.881572 48.224262 
L 328.186241 113.034993 
L 328.490909 130.857943 
L 328.795577 131.938122 
L 329.100246 130.857943 
L 329.404914 130.317854 
L 329.709582 129.237675 
L 330.318919 128.157496 
L 330.623587 129.237675 
L 330.928256 131.398033 
L 331.232924 138.959285 
L 331.537592 129.237675 
L 332.146929 130.317854 
L 332.756265 130.317854 
L 333.060934 128.697586 
L 333.365602 128.157496 
L 333.67027 128.157496 
L 334.279607 124.37687 
L 334.584275 128.157496 
L 335.49828 122.216513 
L 335.802948 123.836781 
L 336.412285 109.794456 
L 336.716953 89.271058 
L 337.021622 121.136334 
L 337.32629 101.153025 
L 337.630958 201.069568 
L 337.935627 193.508316 
L 338.240295 141.119642 
L 338.544963 130.317854 
L 338.849631 130.317854 
L 339.763636 133.55839 
L 340.068305 133.55839 
L 340.372973 134.638569 
L 340.677641 132.478212 
L 340.98231 132.478212 
L 341.286978 120.596244 
L 341.591646 133.018301 
L 341.896314 133.018301 
L 342.200983 131.938122 
L 342.505651 131.938122 
L 342.810319 132.478212 
L 343.114988 132.478212 
L 343.419656 135.178659 
L 343.724324 136.258838 
L 344.028993 134.638569 
L 344.638329 137.879106 
L 344.942998 136.798927 
L 345.247666 137.339016 
L 345.552334 138.959285 
L 346.771007 163.803398 
L 347.075676 134.638569 
L 347.380344 70.367928 
L 347.685012 77.389091 
L 347.989681 124.91696 
L 348.294349 131.938122 
L 348.599017 131.938122 
L 348.903686 130.317854 
L 349.208354 129.777765 
L 349.513022 129.777765 
L 349.81769 130.317854 
L 350.122359 128.157496 
L 350.731695 131.938122 
L 351.036364 131.398033 
L 351.341032 138.959285 
L 351.6457 130.317854 
L 351.950369 129.777765 
L 352.255037 130.857943 
L 352.559705 130.857943 
L 352.864373 129.777765 
L 353.169042 131.398033 
L 353.47371 128.697586 
L 353.778378 130.317854 
L 354.083047 125.997139 
L 354.692383 128.157496 
L 354.997052 125.457049 
L 355.606388 126.537228 
L 356.215725 121.676423 
L 356.520393 127.077317 
L 357.12973 103.313383 
L 357.434398 101.153025 
L 357.739066 124.37687 
L 358.043735 121.136334 
L 358.348403 219.432608 
L 358.653071 164.883577 
L 358.95774 132.478212 
L 359.262408 130.857943 
L 359.567076 130.857943 
L 359.871744 131.938122 
L 360.481081 133.018301 
L 360.785749 133.018301 
L 361.090418 134.09848 
L 361.395086 133.018301 
L 361.699754 133.018301 
L 362.004423 131.938122 
L 362.309091 125.997139 
L 362.613759 127.077317 
L 362.918428 133.018301 
L 363.223096 133.018301 
L 363.527764 131.938122 
L 363.832432 130.317854 
L 364.137101 131.938122 
L 364.441769 130.857943 
L 364.746437 133.55839 
L 365.051106 130.317854 
L 365.355774 135.718748 
L 365.660442 133.55839 
L 365.965111 134.638569 
L 366.269779 131.938122 
L 366.574447 135.718748 
L 366.879115 134.09848 
L 367.183784 137.339016 
L 367.488452 133.55839 
L 367.79312 138.959285 
L 368.097789 136.798927 
L 368.402457 136.258838 
L 368.707125 137.339016 
L 369.011794 141.659732 
L 369.316462 141.119642 
L 369.62113 139.499374 
L 369.925799 147.600715 
L 370.230467 175.685365 
L 370.535135 142.739911 
L 370.839803 146.520537 
L 371.144472 66.047213 
L 371.753808 108.174188 
L 372.363145 127.617407 
L 372.667813 131.398033 
L 372.972482 130.857943 
L 373.27715 131.398033 
L 373.581818 130.317854 
L 373.581818 130.317854 
" style="fill:none;stroke:#ff0000;stroke-linecap:square;stroke-width:0.3;"/>
   </g>
   <g id="line2d_26">
    <path clip-path="url(#pe218eca928)" d="M 69.218182 131.935497 
L 69.52285 131.782913 
L 69.827518 132.164372 
L 70.132187 130.600388 
L 70.436855 131.706621 
L 70.741523 132.202518 
L 71.046192 131.477745 
L 71.35086 131.630329 
L 71.655528 131.363307 
L 71.960197 131.821059 
L 72.264865 131.668475 
L 72.569533 132.507686 
L 72.874201 132.27881 
L 73.788206 132.126226 
L 74.397543 132.583978 
L 75.00688 131.592183 
L 75.311548 132.431394 
L 75.920885 132.316956 
L 76.225553 131.477745 
L 76.530221 132.583978 
L 76.834889 132.736562 
L 77.139558 132.316956 
L 77.748894 132.126226 
L 78.053563 132.27881 
L 78.358231 132.088081 
L 78.662899 132.088081 
L 78.967568 132.698416 
L 79.272236 132.011789 
L 79.576904 132.431394 
L 79.881572 132.431394 
L 80.186241 132.927292 
L 80.490909 132.164372 
L 80.795577 132.889146 
L 81.100246 132.316956 
L 81.404914 132.27881 
L 81.709582 131.935497 
L 82.014251 131.859205 
L 82.318919 132.736562 
L 82.623587 132.431394 
L 82.928256 131.515891 
L 83.232924 132.622124 
L 83.537592 132.164372 
L 83.84226 133.385044 
L 84.146929 132.049935 
L 84.451597 133.652065 
L 84.756265 131.134431 
L 85.060934 134.147963 
L 85.365602 132.240664 
L 85.67027 132.66027 
L 85.974939 131.172577 
L 86.279607 132.965438 
L 86.584275 130.791117 
L 86.888943 133.385044 
L 87.193612 131.210723 
L 87.802948 133.461336 
L 88.107617 133.461336 
L 88.412285 133.346898 
L 88.716953 134.071671 
L 89.021622 133.537628 
L 89.32629 134.453131 
L 89.630958 131.554037 
L 89.935627 137.237787 
L 90.240295 133.995379 
L 90.544963 134.491277 
L 90.849631 131.477745 
L 91.1543 136.932619 
L 91.458968 133.766503 
L 91.763636 136.703743 
L 92.068305 131.744767 
L 92.372973 140.365757 
L 92.677641 135.864532 
L 92.98231 137.275933 
L 93.286978 135.40678 
L 93.591646 139.373962 
L 93.896314 146.469113 
L 94.200983 147.34647 
L 94.505651 145.324734 
L 94.810319 166.152436 
L 95.114988 154.517913 
L 95.419656 127.777585 
L 95.724324 70.825646 
L 96.028993 85.702576 
L 96.333661 120.796872 
L 96.638329 131.668475 
L 96.942998 133.156168 
L 97.247666 131.935497 
L 97.552334 132.011789 
L 97.857002 131.821059 
L 98.161671 130.333366 
L 98.466339 130.257074 
L 98.771007 128.998257 
L 99.075676 129.417862 
L 99.380344 132.431394 
L 99.685012 131.630329 
L 99.989681 137.199641 
L 100.294349 130.48595 
L 100.599017 129.875614 
L 100.903686 131.439599 
L 101.208354 130.638533 
L 101.513022 131.019993 
L 101.81769 128.845673 
L 102.122359 128.540505 
L 102.427027 129.456008 
L 103.341032 124.649615 
L 103.6457 127.968315 
L 103.950369 120.987602 
L 104.255037 119.423617 
L 104.559705 118.851427 
L 105.169042 100.693944 
L 105.47371 121.407208 
L 105.778378 121.979397 
L 106.083047 230.809862 
L 106.387715 146.469113 
L 106.692383 132.46954 
L 106.997052 131.439599 
L 107.606388 132.507686 
L 108.215725 136.1697 
L 108.520393 135.97897 
L 108.825061 132.355102 
L 109.12973 124.764053 
L 109.434398 134.834591 
L 109.739066 134.300547 
L 110.043735 132.774708 
L 110.348403 132.965438 
L 110.653071 132.698416 
L 110.95774 136.627451 
L 111.262408 135.750094 
L 111.567076 136.284138 
L 111.871744 138.34402 
L 112.481081 139.831713 
L 112.785749 141.166822 
L 113.090418 145.706193 
L 113.395086 145.477318 
L 113.699754 175.078594 
L 114.004423 155.547855 
L 114.309091 151.389944 
L 114.613759 55.986862 
L 115.223096 128.426067 
L 115.527764 133.575774 
L 115.832432 133.079876 
L 116.137101 132.164372 
L 116.441769 131.973643 
L 117.051106 128.235337 
L 117.965111 138.038853 
L 118.269779 131.973643 
L 118.574447 130.48595 
L 118.879115 133.118022 
L 119.183784 131.248869 
L 119.488452 130.333366 
L 119.79312 132.583978 
L 120.097789 127.281688 
L 120.707125 129.875614 
L 121.011794 123.772258 
L 121.316462 131.134431 
L 121.62113 121.369062 
L 121.925799 125.984725 
L 122.230467 123.505236 
L 122.535135 127.052812 
L 122.839803 112.900655 
L 123.144472 111.33667 
L 123.44914 112.824363 
L 123.753808 104.317811 
L 124.058477 111.260378 
L 124.363145 174.811572 
L 124.667813 196.135172 
L 124.972482 154.060162 
L 125.27715 133.156168 
L 125.581818 131.325161 
L 126.191155 131.706621 
L 126.495823 131.134431 
L 127.10516 133.003584 
L 127.409828 132.851 
L 127.714496 135.101612 
L 128.628501 131.859205 
L 128.93317 126.518768 
L 129.542506 133.42319 
L 129.847174 133.919087 
L 130.151843 133.156168 
L 130.456511 131.363307 
L 130.761179 132.927292 
L 131.065848 133.079876 
L 131.370516 131.554037 
L 131.675184 132.126226 
L 131.979853 137.008911 
L 132.284521 134.109817 
L 132.589189 133.385044 
L 132.893857 134.147963 
L 133.198526 137.390371 
L 133.503194 135.559364 
L 133.807862 131.363307 
L 134.417199 138.34402 
L 134.721867 136.398576 
L 135.026536 136.818181 
L 135.331204 136.741889 
L 135.635872 137.085203 
L 135.940541 139.755421 
L 136.245209 133.613919 
L 136.549877 137.542955 
L 136.854545 145.324734 
L 137.159214 140.594633 
L 137.463882 141.815304 
L 137.76855 156.92111 
L 138.073219 158.866555 
L 138.682555 135.444926 
L 139.291892 96.879346 
L 139.59656 70.40604 
L 139.901229 121.4835 
L 140.205897 128.998257 
L 140.510565 132.851 
L 140.815233 133.919087 
L 141.119902 133.118022 
L 141.42457 133.118022 
L 141.729238 131.859205 
L 142.033907 132.736562 
L 142.338575 131.859205 
L 142.643243 131.859205 
L 142.947912 130.752971 
L 143.25258 131.325161 
L 143.557248 129.570446 
L 143.861916 130.791117 
L 144.166585 132.736562 
L 144.471253 133.499482 
L 144.775921 131.973643 
L 145.08059 137.848123 
L 145.385258 132.049935 
L 145.689926 132.011789 
L 145.994595 130.48595 
L 146.299263 131.859205 
L 146.603931 132.049935 
L 146.9086 131.973643 
L 147.213268 131.401453 
L 147.822604 132.507686 
L 148.127273 129.608592 
L 148.431941 131.668475 
L 148.736609 128.120899 
L 149.041278 130.562242 
L 149.345946 130.10449 
L 149.650614 126.862082 
L 149.955283 129.646738 
L 150.259951 124.191864 
L 150.564619 128.502359 
L 150.869287 123.27636 
L 151.173956 124.916637 
L 151.478624 124.497032 
L 151.783292 123.734112 
L 152.087961 109.276788 
L 152.392629 107.064321 
L 152.697297 114.350202 
L 153.001966 130.638533 
L 153.306634 130.905555 
L 153.611302 200.216791 
L 154.220639 134.147963 
L 154.525307 131.325161 
L 154.829975 130.981847 
L 155.439312 132.27881 
L 155.74398 132.66027 
L 156.048649 132.736562 
L 156.353317 134.643861 
L 156.657985 134.872737 
L 156.962654 133.04173 
L 157.267322 133.23246 
L 157.57199 126.518768 
L 157.876658 132.965438 
L 158.181327 134.872737 
L 158.485995 134.262401 
L 158.790663 132.545832 
L 159.095332 132.622124 
L 159.704668 133.385044 
L 160.009337 134.529423 
L 160.314005 133.308752 
L 160.618673 138.15329 
L 160.923342 135.673802 
L 161.22801 137.123349 
L 161.532678 135.177904 
L 161.837346 138.53475 
L 162.142015 137.657393 
L 162.446683 138.572896 
L 162.751351 136.284138 
L 163.05602 143.035975 
L 163.360688 143.570019 
L 163.665356 138.076998 
L 164.274693 166.839063 
L 164.579361 158.904701 
L 164.884029 132.202518 
L 165.188698 93.71323 
L 165.493366 84.176737 
L 165.798034 102.52495 
L 166.102703 130.447804 
L 166.407371 132.965438 
L 166.712039 133.079876 
L 167.321376 132.088081 
L 167.626044 131.859205 
L 167.930713 130.257074 
L 168.235381 130.142636 
L 168.540049 129.265278 
L 168.844717 129.684884 
L 169.149386 130.943701 
L 169.454054 133.079876 
L 169.758722 137.237787 
L 170.063391 131.897351 
L 170.672727 130.562242 
L 170.977396 132.202518 
L 171.282064 130.638533 
L 171.586732 132.240664 
L 171.8914 129.837468 
L 172.196069 131.439599 
L 172.500737 130.142636 
L 172.805405 130.600388 
L 173.110074 129.15084 
L 173.414742 130.562242 
L 173.71941 128.540505 
L 174.024079 129.990052 
L 174.328747 130.028198 
L 174.633415 131.782913 
L 174.938084 128.693089 
L 175.242752 128.960111 
L 175.54742 129.951906 
L 176.156757 127.892023 
L 176.461425 124.764053 
L 176.766093 131.630329 
L 177.070762 128.464213 
L 177.37543 129.227132 
L 177.680098 131.935497 
L 177.984767 128.311629 
L 178.289435 126.938374 
L 178.594103 129.570446 
L 178.898771 128.273483 
L 179.20344 127.968315 
L 179.508108 126.289892 
L 179.812776 126.78579 
L 180.117445 131.401453 
L 180.422113 120.186536 
L 180.726781 127.853877 
L 181.03145 123.84855 
L 181.336118 121.636084 
L 181.640786 99.96917 
L 181.945455 123.200068 
L 182.250123 125.870287 
L 182.554791 142.42564 
L 182.859459 124.916637 
L 183.164128 139.29767 
L 183.468796 187.666765 
L 183.773464 135.063467 
L 184.078133 154.975665 
L 184.382801 153.259096 
L 184.687469 137.199641 
L 185.296806 131.744767 
L 185.601474 131.325161 
L 185.906143 131.134431 
L 186.210811 131.630329 
L 186.515479 131.210723 
L 186.820147 131.515891 
L 187.124816 131.172577 
L 187.429484 131.401453 
L 187.734152 131.935497 
L 188.038821 131.897351 
L 188.343489 131.325161 
L 188.952826 132.393248 
L 189.257494 132.316956 
L 189.562162 131.782913 
L 189.86683 132.240664 
L 190.171499 132.240664 
L 190.476167 132.889146 
L 190.780835 132.698416 
L 191.085504 133.270606 
L 191.390172 133.079876 
L 191.69484 133.804649 
L 191.999509 131.592183 
L 192.608845 131.630329 
L 192.913514 130.829263 
L 193.218182 125.870287 
L 193.52285 132.889146 
L 193.827518 132.545832 
L 194.132187 133.079876 
L 194.436855 132.889146 
L 194.741523 131.172577 
L 195.046192 132.316956 
L 195.35086 131.935497 
L 195.655528 133.079876 
L 195.960197 132.812854 
L 196.264865 134.910883 
L 196.569533 130.409658 
L 197.17887 138.53475 
L 197.483538 135.635656 
L 197.788206 137.542955 
L 198.092875 134.186109 
L 198.702211 142.959683 
L 199.00688 143.722603 
L 199.311548 146.163945 
L 199.616216 154.060162 
L 199.920885 173.247587 
L 200.225553 134.338693 
L 200.530221 70.520478 
L 200.834889 88.944983 
L 201.139558 121.521646 
L 201.444226 132.316956 
L 201.748894 132.698416 
L 202.053563 130.333366 
L 202.358231 130.752971 
L 202.662899 130.409658 
L 202.967568 127.853877 
L 203.272236 128.578651 
L 203.576904 131.821059 
L 203.881572 132.202518 
L 204.186241 135.750094 
L 204.490909 130.333366 
L 204.795577 131.058139 
L 205.100246 130.447804 
L 205.404914 130.371512 
L 205.709582 132.049935 
L 206.014251 126.366184 
L 206.318919 125.870287 
L 206.623587 127.090958 
L 206.928256 126.900228 
L 207.232924 123.505236 
L 207.537592 121.903105 
L 207.84226 122.360857 
L 208.146929 114.350202 
L 208.451597 109.505664 
L 208.756265 79.332198 
L 209.060934 122.208273 
L 209.365602 205.557227 
L 209.67027 175.460053 
L 209.974939 133.385044 
L 210.279607 130.638533 
L 210.584275 132.126226 
L 210.888943 132.316956 
L 211.193612 133.613919 
L 211.49828 136.093408 
L 211.802948 134.949029 
L 212.107617 131.668475 
L 212.412285 124.573324 
L 212.716953 133.385044 
L 213.021622 132.774708 
L 213.32629 131.477745 
L 213.630958 131.439599 
L 213.935627 133.385044 
L 214.240295 133.346898 
L 214.544963 135.254196 
L 215.1543 136.970765 
L 215.458968 137.275933 
L 215.763636 137.390371 
L 216.068305 143.264851 
L 216.372973 142.158618 
L 216.677641 139.946151 
L 217.286978 158.141781 
L 217.591646 161.880087 
L 218.505651 66.477005 
L 218.810319 126.366184 
L 219.114988 133.156168 
L 219.419656 132.507686 
L 219.724324 132.126226 
L 220.028993 132.049935 
L 220.333661 131.096285 
L 220.638329 129.15084 
L 220.942998 128.273483 
L 221.247666 130.29522 
L 221.857002 136.818181 
L 222.161671 131.782913 
L 222.771007 130.829263 
L 223.075676 131.325161 
L 223.685012 131.134431 
L 223.989681 128.960111 
L 224.294349 128.960111 
L 224.599017 128.540505 
L 224.903686 129.72303 
L 225.208354 126.938374 
L 225.513022 126.2136 
L 225.81769 127.892023 
L 226.122359 125.374389 
L 226.427027 118.317384 
L 226.731695 125.336243 
L 227.036364 115.456436 
L 227.341032 119.652493 
L 227.6457 96.536032 
L 227.950369 99.549564 
L 228.864373 193.045348 
L 229.169042 146.087653 
L 229.47371 132.507686 
L 229.778378 130.409658 
L 230.083047 131.363307 
L 230.387715 131.935497 
L 230.692383 131.668475 
L 230.997052 131.859205 
L 231.30172 133.575774 
L 231.606388 133.42319 
L 231.911057 134.453131 
L 232.215725 131.668475 
L 232.520393 132.088081 
L 232.825061 124.23001 
L 233.12973 133.118022 
L 233.434398 132.088081 
L 233.739066 132.736562 
L 234.043735 131.744767 
L 234.348403 132.545832 
L 234.653071 131.058139 
L 234.95774 134.910883 
L 235.262408 132.851 
L 235.567076 134.453131 
L 235.871744 135.177904 
L 236.176413 134.949029 
L 236.481081 134.376839 
L 237.395086 137.428517 
L 237.699754 134.147963 
L 238.004423 143.226705 
L 238.309091 133.194314 
L 238.613759 144.561814 
L 238.918428 140.899801 
L 239.223096 150.550732 
L 239.527764 143.341143 
L 239.832432 160.430539 
L 240.137101 153.03022 
L 240.441769 124.725907 
L 240.746437 77.196023 
L 241.051106 90.241947 
L 241.355774 116.410085 
L 241.660442 129.91376 
L 241.965111 132.622124 
L 242.269779 132.507686 
L 242.574447 130.867409 
L 243.183784 131.592183 
L 244.097789 128.769381 
L 244.402457 129.494154 
L 244.707125 131.248869 
L 245.011794 131.401453 
L 245.316462 135.444926 
L 245.925799 129.608592 
L 246.535135 131.935497 
L 246.839803 131.058139 
L 247.144472 130.867409 
L 247.44914 131.668475 
L 247.753808 131.554037 
L 248.058477 129.684884 
L 248.363145 128.807527 
L 248.667813 129.15084 
L 248.972482 130.562242 
L 249.27715 126.251746 
L 249.886486 128.502359 
L 250.191155 127.930169 
L 250.495823 124.878491 
L 250.800491 126.671352 
L 251.10516 123.619674 
L 251.409828 123.200068 
L 252.019165 118.393676 
L 252.323833 109.810831 
L 252.628501 110.039707 
L 252.93317 118.851427 
L 253.237838 109.047912 
L 253.542506 167.563837 
L 253.847174 165.008056 
L 254.151843 179.274651 
L 254.456511 138.15329 
L 254.761179 131.096285 
L 255.065848 130.524096 
L 255.370516 130.600388 
L 255.675184 131.439599 
L 255.979853 131.592183 
L 256.284521 131.325161 
L 256.589189 131.515891 
L 256.893857 132.545832 
L 257.198526 133.079876 
L 257.503194 133.880941 
L 257.807862 133.079876 
L 258.417199 130.29522 
L 258.721867 126.900228 
L 259.026536 132.774708 
L 259.331204 132.698416 
L 259.635872 131.515891 
L 259.940541 131.477745 
L 260.245209 132.164372 
L 260.549877 132.240664 
L 260.854545 130.447804 
L 261.159214 135.559364 
L 261.463882 130.257074 
L 261.76855 137.848123 
L 262.073219 132.393248 
L 262.377887 135.864532 
L 262.682555 136.513014 
L 262.987224 139.755421 
L 263.291892 138.191436 
L 263.59656 138.954356 
L 263.901229 141.586428 
L 264.205897 149.215623 
L 264.510565 151.542527 
L 264.815233 159.324306 
L 265.119902 145.591755 
L 265.42457 115.03683 
L 265.729238 112.252174 
L 266.033907 70.825646 
L 266.338575 122.437149 
L 266.643243 131.897351 
L 266.947912 132.240664 
L 267.25258 131.821059 
L 267.557248 132.164372 
L 267.861916 130.638533 
L 268.166585 130.48595 
L 268.471253 128.845673 
L 268.775921 128.540505 
L 269.08059 131.325161 
L 269.385258 132.66027 
L 269.689926 137.428517 
L 269.994595 130.371512 
L 270.299263 130.142636 
L 270.603931 131.668475 
L 270.9086 131.172577 
L 271.213268 131.248869 
L 271.517936 128.807527 
L 271.822604 129.5323 
L 272.127273 127.815731 
L 272.431941 129.265278 
L 272.736609 126.137309 
L 273.041278 126.671352 
L 273.345946 126.823936 
L 273.650614 123.390798 
L 273.955283 124.725907 
L 274.259951 122.055689 
L 274.564619 122.513441 
L 274.869287 114.388348 
L 275.173956 101.266133 
L 275.478624 109.086058 
L 275.783292 125.641411 
L 276.087961 175.612637 
L 276.392629 177.67252 
L 276.697297 148.49085 
L 277.001966 132.774708 
L 277.306634 129.761176 
L 277.611302 131.287015 
L 277.915971 131.668475 
L 278.220639 131.859205 
L 278.525307 132.202518 
L 278.829975 133.23246 
L 279.134644 133.346898 
L 279.439312 134.033525 
L 279.74398 133.728357 
L 280.353317 127.815731 
L 280.657985 129.417862 
L 280.962654 133.308752 
L 281.267322 133.270606 
L 281.57199 131.668475 
L 281.876658 132.698416 
L 282.181327 131.439599 
L 282.485995 133.919087 
L 282.790663 132.851 
L 283.4 135.59751 
L 283.704668 133.957233 
L 284.009337 135.902678 
L 284.314005 135.940824 
L 284.618673 136.856327 
L 284.923342 138.458458 
L 285.22801 138.420312 
L 285.532678 141.66272 
L 285.837346 142.158618 
L 286.142015 157.531445 
L 286.446683 148.261974 
L 286.751351 171.492872 
L 287.665356 61.518028 
L 287.970025 114.922392 
L 288.274693 132.164372 
L 288.579361 132.507686 
L 288.884029 132.126226 
L 289.188698 131.134431 
L 289.493366 130.943701 
L 289.798034 129.417862 
L 290.102703 129.34157 
L 290.407371 128.502359 
L 290.712039 130.905555 
L 291.016708 131.973643 
L 291.321376 137.504809 
L 291.626044 130.752971 
L 291.930713 130.180782 
L 292.235381 131.248869 
L 292.540049 130.676679 
L 292.844717 131.019993 
L 293.149386 129.456008 
L 293.454054 126.633206 
L 293.758722 127.739439 
L 294.063391 126.099163 
L 294.368059 129.188986 
L 294.672727 119.499909 
L 294.977396 125.069221 
L 295.586732 118.927719 
L 295.8914 106.072526 
L 296.196069 87.762458 
L 296.500737 96.993784 
L 296.805405 216.42883 
L 297.414742 135.673802 
L 297.71941 130.791117 
L 298.024079 131.782913 
L 298.328747 131.592183 
L 298.938084 134.720153 
L 299.242752 135.711948 
L 299.54742 132.965438 
L 299.852088 127.54871 
L 300.461425 133.842795 
L 300.766093 133.537628 
L 301.070762 132.46954 
L 301.37543 132.812854 
L 301.984767 134.682007 
L 302.594103 136.36043 
L 302.898771 135.673802 
L 303.20344 140.175027 
L 303.508108 134.720153 
L 303.812776 139.984297 
L 304.117445 137.237787 
L 304.422113 149.825959 
L 304.726781 148.223828 
L 305.03145 143.417435 
L 305.336118 178.359147 
L 305.640786 149.902251 
L 306.250123 58.008598 
L 306.554791 118.469968 
L 306.859459 131.630329 
L 307.164128 132.622124 
L 307.468796 132.126226 
L 307.773464 132.011789 
L 308.078133 130.905555 
L 308.382801 130.752971 
L 308.687469 128.731235 
L 308.992138 128.845673 
L 309.601474 132.622124 
L 309.906143 137.390371 
L 310.210811 130.218928 
L 310.515479 129.265278 
L 310.820147 131.019993 
L 311.124816 130.180782 
L 311.429484 131.821059 
L 311.734152 129.799322 
L 312.038821 130.371512 
L 312.343489 128.578651 
L 312.952826 127.853877 
L 313.257494 125.565119 
L 313.562162 127.892023 
L 313.86683 127.014666 
L 314.171499 126.823936 
L 314.476167 124.840345 
L 314.780835 119.538055 
L 315.085504 124.687761 
L 315.390172 114.731662 
L 315.69484 111.298524 
L 315.999509 92.530705 
L 316.608845 137.123349 
L 316.913514 192.702034 
L 317.218182 175.727075 
L 317.52285 141.09053 
L 317.827518 131.515891 
L 318.132187 130.676679 
L 318.436855 130.829263 
L 318.741523 131.592183 
L 319.046192 131.935497 
L 319.35086 132.049935 
L 319.655528 133.118022 
L 319.960197 133.194314 
L 320.264865 134.414985 
L 320.874201 131.248869 
L 321.17887 125.793995 
L 321.483538 130.638533 
L 321.788206 133.156168 
L 322.092875 132.66027 
L 322.397543 129.990052 
L 322.702211 132.622124 
L 323.00688 131.515891 
L 323.311548 132.698416 
L 323.616216 133.118022 
L 323.920885 134.300547 
L 324.225553 135.97897 
L 324.530221 133.842795 
L 325.139558 137.695539 
L 325.444226 140.632779 
L 325.748894 139.412108 
L 326.053563 135.826386 
L 326.358231 153.526118 
L 326.662899 151.656965 
L 326.967568 169.738157 
L 327.576904 118.54626 
L 327.881572 54.003271 
L 328.186241 114.235764 
L 328.490909 131.935497 
L 328.795577 132.698416 
L 329.100246 131.134431 
L 329.404914 130.829263 
L 330.014251 129.303424 
L 330.318919 127.663147 
L 330.928256 132.583978 
L 331.232924 137.733685 
L 331.537592 129.494154 
L 331.84226 130.981847 
L 332.146929 130.791117 
L 332.451597 131.210723 
L 332.756265 129.646738 
L 333.060934 129.303424 
L 333.365602 129.303424 
L 334.279607 127.090958 
L 334.584275 129.608592 
L 334.888943 126.175454 
L 335.49828 123.581528 
L 335.802948 124.725907 
L 336.412285 111.565546 
L 336.716953 91.996661 
L 337.021622 122.360857 
L 337.32629 101.571301 
L 337.630958 194.189727 
L 337.935627 190.909173 
L 338.240295 139.869859 
L 338.544963 131.210723 
L 338.849631 130.600388 
L 339.1543 131.019993 
L 339.458968 132.088081 
L 339.763636 132.316956 
L 340.068305 133.461336 
L 340.372973 135.368634 
L 340.677641 133.346898 
L 340.98231 132.736562 
L 341.286978 123.161922 
L 341.591646 133.308752 
L 341.896314 132.889146 
L 342.200983 131.248869 
L 342.505651 131.706621 
L 342.810319 132.431394 
L 343.114988 132.622124 
L 343.724324 135.902678 
L 344.028993 134.643861 
L 344.333661 135.673802 
L 344.638329 138.496604 
L 344.942998 137.008911 
L 345.247666 137.962561 
L 345.552334 139.640983 
L 346.161671 149.597083 
L 346.466339 159.400598 
L 346.771007 162.910028 
L 347.075676 135.97897 
L 347.380344 75.746476 
L 347.685012 81.201351 
L 347.989681 126.175454 
L 348.294349 132.088081 
L 348.599017 132.393248 
L 348.903686 130.829263 
L 349.208354 131.821059 
L 349.513022 130.257074 
L 349.81769 130.028198 
L 350.122359 127.815731 
L 350.427027 128.998257 
L 350.731695 132.431394 
L 351.036364 131.859205 
L 351.341032 136.932619 
L 351.6457 130.447804 
L 351.950369 130.10449 
L 352.255037 131.630329 
L 352.559705 131.515891 
L 352.864373 130.638533 
L 353.169042 131.668475 
L 353.47371 127.968315 
L 353.778378 130.791117 
L 354.083047 126.671352 
L 354.387715 127.090958 
L 354.692383 128.082753 
L 354.997052 125.793995 
L 355.30172 125.984725 
L 355.606388 126.823936 
L 356.215725 122.017543 
L 356.520393 126.251746 
L 357.12973 103.860059 
L 357.434398 101.952761 
L 357.739066 123.543382 
L 358.043735 119.652493 
L 358.348403 210.973956 
L 358.95774 132.126226 
L 359.262408 130.371512 
L 359.567076 130.447804 
L 359.871744 130.714825 
L 360.481081 131.439599 
L 361.090418 133.728357 
L 361.395086 133.003584 
L 361.699754 132.736562 
L 362.004423 131.096285 
L 362.309091 126.78579 
L 362.613759 128.502359 
L 362.918428 132.812854 
L 363.223096 132.164372 
L 363.527764 132.088081 
L 363.832432 130.218928 
L 364.137101 131.210723 
L 364.441769 130.409658 
L 364.746437 133.842795 
L 365.051106 130.638533 
L 365.355774 136.1697 
L 365.660442 134.224255 
L 365.965111 135.101612 
L 366.269779 131.782913 
L 366.574447 135.673802 
L 366.879115 133.346898 
L 367.183784 136.131554 
L 367.488452 133.270606 
L 367.79312 139.145086 
L 368.097789 136.932619 
L 368.402457 137.542955 
L 368.707125 137.581101 
L 369.011794 141.014239 
L 369.316462 141.739012 
L 369.62113 138.649188 
L 369.925799 146.888719 
L 370.230467 172.370229 
L 370.535135 143.455581 
L 370.839803 146.774281 
L 371.144472 72.694798 
L 371.753808 110.383021 
L 372.363145 129.608592 
L 372.667813 131.973643 
L 372.972482 131.859205 
L 373.27715 132.164372 
L 373.581818 131.935497 
L 373.581818 131.935497 
" style="fill:none;stroke:#ffa500;stroke-linecap:square;stroke-width:0.3;"/>
   </g>
   <g id="patch_3">
    <path d="M 54 252 
L 54 34.56 
" style="fill:none;stroke:#000000;stroke-linecap:square;stroke-linejoin:miter;stroke-width:0.8;"/>
   </g>
   <g id="patch_4">
    <path d="M 388.8 252 
L 388.8 34.56 
" style="fill:none;stroke:#000000;stroke-linecap:square;stroke-linejoin:miter;stroke-width:0.8;"/>
   </g>
   <g id="patch_5">
    <path d="M 54 252 
L 388.8 252 
" style="fill:none;stroke:#000000;stroke-linecap:square;stroke-linejoin:miter;stroke-width:0.8;"/>
   </g>
   <g id="patch_6">
    <path d="M 54 34.56 
L 388.8 34.56 
" style="fill:none;stroke:#000000;stroke-linecap:square;stroke-linejoin:miter;stroke-width:0.8;"/>
   </g>
   <g id="text_15">
    <!-- SPGD Detectors TP1 Testing S4 Lineup Post Map  -->
    <defs>
     <path d="M 53.515625 70.515625 
L 53.515625 60.890625 
Q 47.90625 63.578125 42.921875 64.890625 
Q 37.9375 66.21875 33.296875 66.21875 
Q 25.25 66.21875 20.875 63.09375 
Q 16.5 59.96875 16.5 54.203125 
Q 16.5 49.359375 19.40625 46.890625 
Q 22.3125 44.4375 30.421875 42.921875 
L 36.375 41.703125 
Q 47.40625 39.59375 52.65625 34.296875 
Q 57.90625 29 57.90625 20.125 
Q 57.90625 9.515625 50.796875 4.046875 
Q 43.703125 -1.421875 29.984375 -1.421875 
Q 24.8125 -1.421875 18.96875 -0.25 
Q 13.140625 0.921875 6.890625 3.21875 
L 6.890625 13.375 
Q 12.890625 10.015625 18.65625 8.296875 
Q 24.421875 6.59375 29.984375 6.59375 
Q 38.421875 6.59375 43.015625 9.90625 
Q 47.609375 13.234375 47.609375 19.390625 
Q 47.609375 24.75 44.3125 27.78125 
Q 41.015625 30.8125 33.5 32.328125 
L 27.484375 33.5 
Q 16.453125 35.6875 11.515625 40.375 
Q 6.59375 45.0625 6.59375 53.421875 
Q 6.59375 63.09375 13.40625 68.65625 
Q 20.21875 74.21875 32.171875 74.21875 
Q 37.3125 74.21875 42.625 73.28125 
Q 47.953125 72.359375 53.515625 70.515625 
" id="DejaVuSans-53"/>
     <path d="M 19.671875 64.796875 
L 19.671875 37.40625 
L 32.078125 37.40625 
Q 38.96875 37.40625 42.71875 40.96875 
Q 46.484375 44.53125 46.484375 51.125 
Q 46.484375 57.671875 42.71875 61.234375 
Q 38.96875 64.796875 32.078125 64.796875 
z
M 9.8125 72.90625 
L 32.078125 72.90625 
Q 44.34375 72.90625 50.609375 67.359375 
Q 56.890625 61.8125 56.890625 51.125 
Q 56.890625 40.328125 50.609375 34.8125 
Q 44.34375 29.296875 32.078125 29.296875 
L 19.671875 29.296875 
L 19.671875 0 
L 9.8125 0 
z
" id="DejaVuSans-50"/>
     <path d="M 59.515625 10.40625 
L 59.515625 29.984375 
L 43.40625 29.984375 
L 43.40625 38.09375 
L 69.28125 38.09375 
L 69.28125 6.78125 
Q 63.578125 2.734375 56.6875 0.65625 
Q 49.8125 -1.421875 42 -1.421875 
Q 24.90625 -1.421875 15.25 8.5625 
Q 5.609375 18.5625 5.609375 36.375 
Q 5.609375 54.25 15.25 64.234375 
Q 24.90625 74.21875 42 74.21875 
Q 49.125 74.21875 55.546875 72.453125 
Q 61.96875 70.703125 67.390625 67.28125 
L 67.390625 56.78125 
Q 61.921875 61.421875 55.765625 63.765625 
Q 49.609375 66.109375 42.828125 66.109375 
Q 29.4375 66.109375 22.71875 58.640625 
Q 16.015625 51.171875 16.015625 36.375 
Q 16.015625 21.625 22.71875 14.15625 
Q 29.4375 6.6875 42.828125 6.6875 
Q 48.046875 6.6875 52.140625 7.59375 
Q 56.25 8.5 59.515625 10.40625 
" id="DejaVuSans-47"/>
     <path d="M 19.671875 64.796875 
L 19.671875 8.109375 
L 31.59375 8.109375 
Q 46.6875 8.109375 53.6875 14.9375 
Q 60.6875 21.78125 60.6875 36.53125 
Q 60.6875 51.171875 53.6875 57.984375 
Q 46.6875 64.796875 31.59375 64.796875 
z
M 9.8125 72.90625 
L 30.078125 72.90625 
Q 51.265625 72.90625 61.171875 64.09375 
Q 71.09375 55.28125 71.09375 36.53125 
Q 71.09375 17.671875 61.125 8.828125 
Q 51.171875 0 30.078125 0 
L 9.8125 0 
z
" id="DejaVuSans-44"/>
     <path d="M 41.109375 46.296875 
Q 39.59375 47.171875 37.8125 47.578125 
Q 36.03125 48 33.890625 48 
Q 26.265625 48 22.1875 43.046875 
Q 18.109375 38.09375 18.109375 28.8125 
L 18.109375 0 
L 9.078125 0 
L 9.078125 54.6875 
L 18.109375 54.6875 
L 18.109375 46.1875 
Q 20.953125 51.171875 25.484375 53.578125 
Q 30.03125 56 36.53125 56 
Q 37.453125 56 38.578125 55.875 
Q 39.703125 55.765625 41.0625 55.515625 
z
" id="DejaVuSans-72"/>
     <path d="M -0.296875 72.90625 
L 61.375 72.90625 
L 61.375 64.59375 
L 35.5 64.59375 
L 35.5 0 
L 25.59375 0 
L 25.59375 64.59375 
L -0.296875 64.59375 
z
" id="DejaVuSans-54"/>
     <path d="M 45.40625 27.984375 
Q 45.40625 37.75 41.375 43.109375 
Q 37.359375 48.484375 30.078125 48.484375 
Q 22.859375 48.484375 18.828125 43.109375 
Q 14.796875 37.75 14.796875 27.984375 
Q 14.796875 18.265625 18.828125 12.890625 
Q 22.859375 7.515625 30.078125 7.515625 
Q 37.359375 7.515625 41.375 12.890625 
Q 45.40625 18.265625 45.40625 27.984375 
M 54.390625 6.78125 
Q 54.390625 -7.171875 48.1875 -13.984375 
Q 42 -20.796875 29.203125 -20.796875 
Q 24.46875 -20.796875 20.265625 -20.09375 
Q 16.0625 -19.390625 12.109375 -17.921875 
L 12.109375 -9.1875 
Q 16.0625 -11.328125 19.921875 -12.34375 
Q 23.78125 -13.375 27.78125 -13.375 
Q 36.625 -13.375 41.015625 -8.765625 
Q 45.40625 -4.15625 45.40625 5.171875 
L 45.40625 9.625 
Q 42.625 4.78125 38.28125 2.390625 
Q 33.9375 0 27.875 0 
Q 17.828125 0 11.671875 7.65625 
Q 5.515625 15.328125 5.515625 27.984375 
Q 5.515625 40.671875 11.671875 48.328125 
Q 17.828125 56 27.875 56 
Q 33.9375 56 38.28125 53.609375 
Q 42.625 51.21875 45.40625 46.390625 
L 45.40625 54.6875 
L 54.390625 54.6875 
z
" id="DejaVuSans-67"/>
     <path d="M 9.8125 72.90625 
L 19.671875 72.90625 
L 19.671875 8.296875 
L 55.171875 8.296875 
L 55.171875 0 
L 9.8125 0 
z
" id="DejaVuSans-4c"/>
     <path d="M 8.5 21.578125 
L 8.5 54.6875 
L 17.484375 54.6875 
L 17.484375 21.921875 
Q 17.484375 14.15625 20.5 10.265625 
Q 23.53125 6.390625 29.59375 6.390625 
Q 36.859375 6.390625 41.078125 11.03125 
Q 45.3125 15.671875 45.3125 23.6875 
L 45.3125 54.6875 
L 54.296875 54.6875 
L 54.296875 0 
L 45.3125 0 
L 45.3125 8.40625 
Q 42.046875 3.421875 37.71875 1 
Q 33.40625 -1.421875 27.6875 -1.421875 
Q 18.265625 -1.421875 13.375 4.4375 
Q 8.5 10.296875 8.5 21.578125 
M 31.109375 56 
z
" id="DejaVuSans-75"/>
     <path d="M 18.109375 8.203125 
L 18.109375 -20.796875 
L 9.078125 -20.796875 
L 9.078125 54.6875 
L 18.109375 54.6875 
L 18.109375 46.390625 
Q 20.953125 51.265625 25.265625 53.625 
Q 29.59375 56 35.59375 56 
Q 45.5625 56 51.78125 48.09375 
Q 58.015625 40.1875 58.015625 27.296875 
Q 58.015625 14.40625 51.78125 6.484375 
Q 45.5625 -1.421875 35.59375 -1.421875 
Q 29.59375 -1.421875 25.265625 0.953125 
Q 20.953125 3.328125 18.109375 8.203125 
M 48.6875 27.296875 
Q 48.6875 37.203125 44.609375 42.84375 
Q 40.53125 48.484375 33.40625 48.484375 
Q 26.265625 48.484375 22.1875 42.84375 
Q 18.109375 37.203125 18.109375 27.296875 
Q 18.109375 17.390625 22.1875 11.75 
Q 26.265625 6.109375 33.40625 6.109375 
Q 40.53125 6.109375 44.609375 11.75 
Q 48.6875 17.390625 48.6875 27.296875 
" id="DejaVuSans-70"/>
     <path d="M 9.8125 72.90625 
L 24.515625 72.90625 
L 43.109375 23.296875 
L 61.8125 72.90625 
L 76.515625 72.90625 
L 76.515625 0 
L 66.890625 0 
L 66.890625 64.015625 
L 48.09375 14.015625 
L 38.1875 14.015625 
L 19.390625 64.015625 
L 19.390625 0 
L 9.8125 0 
z
" id="DejaVuSans-4d"/>
    </defs>
    <g transform="translate(73.812188 28.56)scale(0.12 -0.12)">
     <use xlink:href="#DejaVuSans-53"/>
     <use x="63.476562" xlink:href="#DejaVuSans-50"/>
     <use x="123.779297" xlink:href="#DejaVuSans-47"/>
     <use x="201.269531" xlink:href="#DejaVuSans-44"/>
     <use x="278.271484" xlink:href="#DejaVuSans-20"/>
     <use x="310.058594" xlink:href="#DejaVuSans-44"/>
     <use x="387.060547" xlink:href="#DejaVuSans-65"/>
     <use x="448.583984" xlink:href="#DejaVuSans-74"/>
     <use x="487.792969" xlink:href="#DejaVuSans-65"/>
     <use x="549.316406" xlink:href="#DejaVuSans-63"/>
     <use x="604.296875" xlink:href="#DejaVuSans-74"/>
     <use x="643.505859" xlink:href="#DejaVuSans-6f"/>
     <use x="704.6875" xlink:href="#DejaVuSans-72"/>
     <use x="745.800781" xlink:href="#DejaVuSans-73"/>
     <use x="797.900391" xlink:href="#DejaVuSans-20"/>
     <use x="829.6875" xlink:href="#DejaVuSans-54"/>
     <use x="890.771484" xlink:href="#DejaVuSans-50"/>
     <use x="951.074219" xlink:href="#DejaVuSans-31"/>
     <use x="1014.697266" xlink:href="#DejaVuSans-20"/>
     <use x="1046.484375" xlink:href="#DejaVuSans-54"/>
     <use x="1107.302734" xlink:href="#DejaVuSans-65"/>
     <use x="1168.826172" xlink:href="#DejaVuSans-73"/>
     <use x="1220.925781" xlink:href="#DejaVuSans-74"/>
     <use x="1260.134766" xlink:href="#DejaVuSans-69"/>
     <use x="1287.917969" xlink:href="#DejaVuSans-6e"/>
     <use x="1351.296875" xlink:href="#DejaVuSans-67"/>
     <use x="1414.773438" xlink:href="#DejaVuSans-20"/>
     <use x="1446.560547" xlink:href="#DejaVuSans-53"/>
     <use x="1510.037109" xlink:href="#DejaVuSans-34"/>
     <use x="1573.660156" xlink:href="#DejaVuSans-20"/>
     <use x="1605.447266" xlink:href="#DejaVuSans-4c"/>
     <use x="1661.160156" xlink:href="#DejaVuSans-69"/>
     <use x="1688.943359" xlink:href="#DejaVuSans-6e"/>
     <use x="1752.322266" xlink:href="#DejaVuSans-65"/>
     <use x="1813.845703" xlink:href="#DejaVuSans-75"/>
     <use x="1877.224609" xlink:href="#DejaVuSans-70"/>
     <use x="1940.701172" xlink:href="#DejaVuSans-20"/>
     <use x="1972.488281" xlink:href="#DejaVuSans-50"/>
     <use x="2032.744141" xlink:href="#DejaVuSans-6f"/>
     <use x="2093.925781" xlink:href="#DejaVuSans-73"/>
     <use x="2146.025391" xlink:href="#DejaVuSans-74"/>
     <use x="2185.234375" xlink:href="#DejaVuSans-20"/>
     <use x="2217.021484" xlink:href="#DejaVuSans-4d"/>
     <use x="2303.300781" xlink:href="#DejaVuSans-61"/>
     <use x="2364.580078" xlink:href="#DejaVuSans-70"/>
     <use x="2428.056641" xlink:href="#DejaVuSans-20"/>
    </g>
   </g>
  </g>
 </g>
 <defs>
  <clipPath id="pe218eca928">
   <rect height="217.44" width="334.8" x="54" y="34.56"/>
  </clipPath>
 </defs>
</svg>
