<?xml version="1.0" encoding="utf-8" standalone="no"?>
<!DOCTYPE svg PUBLIC "-//W3C//DTD SVG 1.1//EN"
  "http://www.w3.org/Graphics/SVG/1.1/DTD/svg11.dtd">
<!-- Created with matplotlib (http://matplotlib.org/) -->
<svg height="288pt" version="1.1" viewBox="0 0 432 288" width="432pt" xmlns="http://www.w3.org/2000/svg" xmlns:xlink="http://www.w3.org/1999/xlink">
 <defs>
  <style type="text/css">
*{stroke-linecap:butt;stroke-linejoin:round;}
  </style>
 </defs>
 <g id="figure_1">
  <g id="patch_1">
   <path d="M 0 288 
L 432 288 
L 432 0 
L 0 0 
z
" style="fill:#ffffff;"/>
  </g>
  <g id="axes_1">
   <g id="patch_2">
    <path d="M 54 252 
L 388.8 252 
L 388.8 34.56 
L 54 34.56 
z
" style="fill:#ffffff;"/>
   </g>
   <g id="matplotlib.axis_1">
    <g id="xtick_1">
     <g id="line2d_1">
      <path clip-path="url(#p8b6d7c71d9)" d="M 69.218182 252 
L 69.218182 34.56 
" style="fill:none;stroke:#b0b0b0;stroke-linecap:square;stroke-width:0.8;"/>
     </g>
     <g id="line2d_2">
      <defs>
       <path d="M 0 0 
L 0 3.5 
" id="m8d7ff065a0" style="stroke:#000000;stroke-width:0.8;"/>
      </defs>
      <g>
       <use style="stroke:#000000;stroke-width:0.8;" x="69.218182" xlink:href="#m8d7ff065a0" y="252"/>
      </g>
     </g>
     <g id="text_1">
      <!-- 0 -->
      <defs>
       <path d="M 31.78125 66.40625 
Q 24.171875 66.40625 20.328125 58.90625 
Q 16.5 51.421875 16.5 36.375 
Q 16.5 21.390625 20.328125 13.890625 
Q 24.171875 6.390625 31.78125 6.390625 
Q 39.453125 6.390625 43.28125 13.890625 
Q 47.125 21.390625 47.125 36.375 
Q 47.125 51.421875 43.28125 58.90625 
Q 39.453125 66.40625 31.78125 66.40625 
M 31.78125 74.21875 
Q 44.046875 74.21875 50.515625 64.515625 
Q 56.984375 54.828125 56.984375 36.375 
Q 56.984375 17.96875 50.515625 8.265625 
Q 44.046875 -1.421875 31.78125 -1.421875 
Q 19.53125 -1.421875 13.0625 8.265625 
Q 6.59375 17.96875 6.59375 36.375 
Q 6.59375 54.828125 13.0625 64.515625 
Q 19.53125 74.21875 31.78125 74.21875 
" id="DejaVuSans-30"/>
      </defs>
      <g transform="translate(66.036932 266.598437)scale(0.1 -0.1)">
       <use xlink:href="#DejaVuSans-30"/>
      </g>
     </g>
    </g>
    <g id="xtick_2">
     <g id="line2d_3">
      <path clip-path="url(#p8b6d7c71d9)" d="M 130.151843 252 
L 130.151843 34.56 
" style="fill:none;stroke:#b0b0b0;stroke-linecap:square;stroke-width:0.8;"/>
     </g>
     <g id="line2d_4">
      <g>
       <use style="stroke:#000000;stroke-width:0.8;" x="130.151843" xlink:href="#m8d7ff065a0" y="252"/>
      </g>
     </g>
     <g id="text_2">
      <!-- 200 -->
      <defs>
       <path d="M 19.1875 8.296875 
L 53.609375 8.296875 
L 53.609375 0 
L 7.328125 0 
L 7.328125 8.296875 
Q 12.9375 14.109375 22.625 23.890625 
Q 32.328125 33.6875 34.8125 36.53125 
Q 39.546875 41.84375 41.421875 45.53125 
Q 43.3125 49.21875 43.3125 52.78125 
Q 43.3125 58.59375 39.234375 62.25 
Q 35.15625 65.921875 28.609375 65.921875 
Q 23.96875 65.921875 18.8125 64.3125 
Q 13.671875 62.703125 7.8125 59.421875 
L 7.8125 69.390625 
Q 13.765625 71.78125 18.9375 73 
Q 24.125 74.21875 28.421875 74.21875 
Q 39.75 74.21875 46.484375 68.546875 
Q 53.21875 62.890625 53.21875 53.421875 
Q 53.21875 48.921875 51.53125 44.890625 
Q 49.859375 40.875 45.40625 35.40625 
Q 44.1875 33.984375 37.640625 27.21875 
Q 31.109375 20.453125 19.1875 8.296875 
" id="DejaVuSans-32"/>
      </defs>
      <g transform="translate(120.608093 266.598437)scale(0.1 -0.1)">
       <use xlink:href="#DejaVuSans-32"/>
       <use x="63.623047" xlink:href="#DejaVuSans-30"/>
       <use x="127.246094" xlink:href="#DejaVuSans-30"/>
      </g>
     </g>
    </g>
    <g id="xtick_3">
     <g id="line2d_5">
      <path clip-path="url(#p8b6d7c71d9)" d="M 191.085504 252 
L 191.085504 34.56 
" style="fill:none;stroke:#b0b0b0;stroke-linecap:square;stroke-width:0.8;"/>
     </g>
     <g id="line2d_6">
      <g>
       <use style="stroke:#000000;stroke-width:0.8;" x="191.085504" xlink:href="#m8d7ff065a0" y="252"/>
      </g>
     </g>
     <g id="text_3">
      <!-- 400 -->
      <defs>
       <path d="M 37.796875 64.3125 
L 12.890625 25.390625 
L 37.796875 25.390625 
z
M 35.203125 72.90625 
L 47.609375 72.90625 
L 47.609375 25.390625 
L 58.015625 25.390625 
L 58.015625 17.1875 
L 47.609375 17.1875 
L 47.609375 0 
L 37.796875 0 
L 37.796875 17.1875 
L 4.890625 17.1875 
L 4.890625 26.703125 
z
" id="DejaVuSans-34"/>
      </defs>
      <g transform="translate(181.541754 266.598437)scale(0.1 -0.1)">
       <use xlink:href="#DejaVuSans-34"/>
       <use x="63.623047" xlink:href="#DejaVuSans-30"/>
       <use x="127.246094" xlink:href="#DejaVuSans-30"/>
      </g>
     </g>
    </g>
    <g id="xtick_4">
     <g id="line2d_7">
      <path clip-path="url(#p8b6d7c71d9)" d="M 252.019165 252 
L 252.019165 34.56 
" style="fill:none;stroke:#b0b0b0;stroke-linecap:square;stroke-width:0.8;"/>
     </g>
     <g id="line2d_8">
      <g>
       <use style="stroke:#000000;stroke-width:0.8;" x="252.019165" xlink:href="#m8d7ff065a0" y="252"/>
      </g>
     </g>
     <g id="text_4">
      <!-- 600 -->
      <defs>
       <path d="M 33.015625 40.375 
Q 26.375 40.375 22.484375 35.828125 
Q 18.609375 31.296875 18.609375 23.390625 
Q 18.609375 15.53125 22.484375 10.953125 
Q 26.375 6.390625 33.015625 6.390625 
Q 39.65625 6.390625 43.53125 10.953125 
Q 47.40625 15.53125 47.40625 23.390625 
Q 47.40625 31.296875 43.53125 35.828125 
Q 39.65625 40.375 33.015625 40.375 
M 52.59375 71.296875 
L 52.59375 62.3125 
Q 48.875 64.0625 45.09375 64.984375 
Q 41.3125 65.921875 37.59375 65.921875 
Q 27.828125 65.921875 22.671875 59.328125 
Q 17.53125 52.734375 16.796875 39.40625 
Q 19.671875 43.65625 24.015625 45.921875 
Q 28.375 48.1875 33.59375 48.1875 
Q 44.578125 48.1875 50.953125 41.515625 
Q 57.328125 34.859375 57.328125 23.390625 
Q 57.328125 12.15625 50.6875 5.359375 
Q 44.046875 -1.421875 33.015625 -1.421875 
Q 20.359375 -1.421875 13.671875 8.265625 
Q 6.984375 17.96875 6.984375 36.375 
Q 6.984375 53.65625 15.1875 63.9375 
Q 23.390625 74.21875 37.203125 74.21875 
Q 40.921875 74.21875 44.703125 73.484375 
Q 48.484375 72.75 52.59375 71.296875 
" id="DejaVuSans-36"/>
      </defs>
      <g transform="translate(242.475415 266.598437)scale(0.1 -0.1)">
       <use xlink:href="#DejaVuSans-36"/>
       <use x="63.623047" xlink:href="#DejaVuSans-30"/>
       <use x="127.246094" xlink:href="#DejaVuSans-30"/>
      </g>
     </g>
    </g>
    <g id="xtick_5">
     <g id="line2d_9">
      <path clip-path="url(#p8b6d7c71d9)" d="M 312.952826 252 
L 312.952826 34.56 
" style="fill:none;stroke:#b0b0b0;stroke-linecap:square;stroke-width:0.8;"/>
     </g>
     <g id="line2d_10">
      <g>
       <use style="stroke:#000000;stroke-width:0.8;" x="312.952826" xlink:href="#m8d7ff065a0" y="252"/>
      </g>
     </g>
     <g id="text_5">
      <!-- 800 -->
      <defs>
       <path d="M 31.78125 34.625 
Q 24.75 34.625 20.71875 30.859375 
Q 16.703125 27.09375 16.703125 20.515625 
Q 16.703125 13.921875 20.71875 10.15625 
Q 24.75 6.390625 31.78125 6.390625 
Q 38.8125 6.390625 42.859375 10.171875 
Q 46.921875 13.96875 46.921875 20.515625 
Q 46.921875 27.09375 42.890625 30.859375 
Q 38.875 34.625 31.78125 34.625 
M 21.921875 38.8125 
Q 15.578125 40.375 12.03125 44.71875 
Q 8.5 49.078125 8.5 55.328125 
Q 8.5 64.0625 14.71875 69.140625 
Q 20.953125 74.21875 31.78125 74.21875 
Q 42.671875 74.21875 48.875 69.140625 
Q 55.078125 64.0625 55.078125 55.328125 
Q 55.078125 49.078125 51.53125 44.71875 
Q 48 40.375 41.703125 38.8125 
Q 48.828125 37.15625 52.796875 32.3125 
Q 56.78125 27.484375 56.78125 20.515625 
Q 56.78125 9.90625 50.3125 4.234375 
Q 43.84375 -1.421875 31.78125 -1.421875 
Q 19.734375 -1.421875 13.25 4.234375 
Q 6.78125 9.90625 6.78125 20.515625 
Q 6.78125 27.484375 10.78125 32.3125 
Q 14.796875 37.15625 21.921875 38.8125 
M 18.3125 54.390625 
Q 18.3125 48.734375 21.84375 45.5625 
Q 25.390625 42.390625 31.78125 42.390625 
Q 38.140625 42.390625 41.71875 45.5625 
Q 45.3125 48.734375 45.3125 54.390625 
Q 45.3125 60.0625 41.71875 63.234375 
Q 38.140625 66.40625 31.78125 66.40625 
Q 25.390625 66.40625 21.84375 63.234375 
Q 18.3125 60.0625 18.3125 54.390625 
" id="DejaVuSans-38"/>
      </defs>
      <g transform="translate(303.409076 266.598437)scale(0.1 -0.1)">
       <use xlink:href="#DejaVuSans-38"/>
       <use x="63.623047" xlink:href="#DejaVuSans-30"/>
       <use x="127.246094" xlink:href="#DejaVuSans-30"/>
      </g>
     </g>
    </g>
    <g id="xtick_6">
     <g id="line2d_11">
      <path clip-path="url(#p8b6d7c71d9)" d="M 373.886486 252 
L 373.886486 34.56 
" style="fill:none;stroke:#b0b0b0;stroke-linecap:square;stroke-width:0.8;"/>
     </g>
     <g id="line2d_12">
      <g>
       <use style="stroke:#000000;stroke-width:0.8;" x="373.886486" xlink:href="#m8d7ff065a0" y="252"/>
      </g>
     </g>
     <g id="text_6">
      <!-- 1000 -->
      <defs>
       <path d="M 12.40625 8.296875 
L 28.515625 8.296875 
L 28.515625 63.921875 
L 10.984375 60.40625 
L 10.984375 69.390625 
L 28.421875 72.90625 
L 38.28125 72.90625 
L 38.28125 8.296875 
L 54.390625 8.296875 
L 54.390625 0 
L 12.40625 0 
z
" id="DejaVuSans-31"/>
      </defs>
      <g transform="translate(361.161486 266.598437)scale(0.1 -0.1)">
       <use xlink:href="#DejaVuSans-31"/>
       <use x="63.623047" xlink:href="#DejaVuSans-30"/>
       <use x="127.246094" xlink:href="#DejaVuSans-30"/>
       <use x="190.869141" xlink:href="#DejaVuSans-30"/>
      </g>
     </g>
    </g>
    <g id="text_7">
     <!-- seconds -->
     <defs>
      <path d="M 44.28125 53.078125 
L 44.28125 44.578125 
Q 40.484375 46.53125 36.375 47.5 
Q 32.28125 48.484375 27.875 48.484375 
Q 21.1875 48.484375 17.84375 46.4375 
Q 14.5 44.390625 14.5 40.28125 
Q 14.5 37.15625 16.890625 35.375 
Q 19.28125 33.59375 26.515625 31.984375 
L 29.59375 31.296875 
Q 39.15625 29.25 43.1875 25.515625 
Q 47.21875 21.78125 47.21875 15.09375 
Q 47.21875 7.46875 41.1875 3.015625 
Q 35.15625 -1.421875 24.609375 -1.421875 
Q 20.21875 -1.421875 15.453125 -0.5625 
Q 10.6875 0.296875 5.421875 2 
L 5.421875 11.28125 
Q 10.40625 8.6875 15.234375 7.390625 
Q 20.0625 6.109375 24.8125 6.109375 
Q 31.15625 6.109375 34.5625 8.28125 
Q 37.984375 10.453125 37.984375 14.40625 
Q 37.984375 18.0625 35.515625 20.015625 
Q 33.0625 21.96875 24.703125 23.78125 
L 21.578125 24.515625 
Q 13.234375 26.265625 9.515625 29.90625 
Q 5.8125 33.546875 5.8125 39.890625 
Q 5.8125 47.609375 11.28125 51.796875 
Q 16.75 56 26.8125 56 
Q 31.78125 56 36.171875 55.265625 
Q 40.578125 54.546875 44.28125 53.078125 
" id="DejaVuSans-73"/>
      <path d="M 56.203125 29.59375 
L 56.203125 25.203125 
L 14.890625 25.203125 
Q 15.484375 15.921875 20.484375 11.0625 
Q 25.484375 6.203125 34.421875 6.203125 
Q 39.59375 6.203125 44.453125 7.46875 
Q 49.3125 8.734375 54.109375 11.28125 
L 54.109375 2.78125 
Q 49.265625 0.734375 44.1875 -0.34375 
Q 39.109375 -1.421875 33.890625 -1.421875 
Q 20.796875 -1.421875 13.15625 6.1875 
Q 5.515625 13.8125 5.515625 26.8125 
Q 5.515625 40.234375 12.765625 48.109375 
Q 20.015625 56 32.328125 56 
Q 43.359375 56 49.78125 48.890625 
Q 56.203125 41.796875 56.203125 29.59375 
M 47.21875 32.234375 
Q 47.125 39.59375 43.09375 43.984375 
Q 39.0625 48.390625 32.421875 48.390625 
Q 24.90625 48.390625 20.390625 44.140625 
Q 15.875 39.890625 15.1875 32.171875 
z
" id="DejaVuSans-65"/>
      <path d="M 48.78125 52.59375 
L 48.78125 44.1875 
Q 44.96875 46.296875 41.140625 47.34375 
Q 37.3125 48.390625 33.40625 48.390625 
Q 24.65625 48.390625 19.8125 42.84375 
Q 14.984375 37.3125 14.984375 27.296875 
Q 14.984375 17.28125 19.8125 11.734375 
Q 24.65625 6.203125 33.40625 6.203125 
Q 37.3125 6.203125 41.140625 7.25 
Q 44.96875 8.296875 48.78125 10.40625 
L 48.78125 2.09375 
Q 45.015625 0.34375 40.984375 -0.53125 
Q 36.96875 -1.421875 32.421875 -1.421875 
Q 20.0625 -1.421875 12.78125 6.34375 
Q 5.515625 14.109375 5.515625 27.296875 
Q 5.515625 40.671875 12.859375 48.328125 
Q 20.21875 56 33.015625 56 
Q 37.15625 56 41.109375 55.140625 
Q 45.0625 54.296875 48.78125 52.59375 
" id="DejaVuSans-63"/>
      <path d="M 30.609375 48.390625 
Q 23.390625 48.390625 19.1875 42.75 
Q 14.984375 37.109375 14.984375 27.296875 
Q 14.984375 17.484375 19.15625 11.84375 
Q 23.34375 6.203125 30.609375 6.203125 
Q 37.796875 6.203125 41.984375 11.859375 
Q 46.1875 17.53125 46.1875 27.296875 
Q 46.1875 37.015625 41.984375 42.703125 
Q 37.796875 48.390625 30.609375 48.390625 
M 30.609375 56 
Q 42.328125 56 49.015625 48.375 
Q 55.71875 40.765625 55.71875 27.296875 
Q 55.71875 13.875 49.015625 6.21875 
Q 42.328125 -1.421875 30.609375 -1.421875 
Q 18.84375 -1.421875 12.171875 6.21875 
Q 5.515625 13.875 5.515625 27.296875 
Q 5.515625 40.765625 12.171875 48.375 
Q 18.84375 56 30.609375 56 
" id="DejaVuSans-6f"/>
      <path d="M 54.890625 33.015625 
L 54.890625 0 
L 45.90625 0 
L 45.90625 32.71875 
Q 45.90625 40.484375 42.875 44.328125 
Q 39.84375 48.1875 33.796875 48.1875 
Q 26.515625 48.1875 22.3125 43.546875 
Q 18.109375 38.921875 18.109375 30.90625 
L 18.109375 0 
L 9.078125 0 
L 9.078125 54.6875 
L 18.109375 54.6875 
L 18.109375 46.1875 
Q 21.34375 51.125 25.703125 53.5625 
Q 30.078125 56 35.796875 56 
Q 45.21875 56 50.046875 50.171875 
Q 54.890625 44.34375 54.890625 33.015625 
" id="DejaVuSans-6e"/>
      <path d="M 45.40625 46.390625 
L 45.40625 75.984375 
L 54.390625 75.984375 
L 54.390625 0 
L 45.40625 0 
L 45.40625 8.203125 
Q 42.578125 3.328125 38.25 0.953125 
Q 33.9375 -1.421875 27.875 -1.421875 
Q 17.96875 -1.421875 11.734375 6.484375 
Q 5.515625 14.40625 5.515625 27.296875 
Q 5.515625 40.1875 11.734375 48.09375 
Q 17.96875 56 27.875 56 
Q 33.9375 56 38.25 53.625 
Q 42.578125 51.265625 45.40625 46.390625 
M 14.796875 27.296875 
Q 14.796875 17.390625 18.875 11.75 
Q 22.953125 6.109375 30.078125 6.109375 
Q 37.203125 6.109375 41.296875 11.75 
Q 45.40625 17.390625 45.40625 27.296875 
Q 45.40625 37.203125 41.296875 42.84375 
Q 37.203125 48.484375 30.078125 48.484375 
Q 22.953125 48.484375 18.875 42.84375 
Q 14.796875 37.203125 14.796875 27.296875 
" id="DejaVuSans-64"/>
     </defs>
     <g transform="translate(200.9625 280.276563)scale(0.1 -0.1)">
      <use xlink:href="#DejaVuSans-73"/>
      <use x="52.099609" xlink:href="#DejaVuSans-65"/>
      <use x="113.623047" xlink:href="#DejaVuSans-63"/>
      <use x="168.603516" xlink:href="#DejaVuSans-6f"/>
      <use x="229.785156" xlink:href="#DejaVuSans-6e"/>
      <use x="293.164062" xlink:href="#DejaVuSans-64"/>
      <use x="356.640625" xlink:href="#DejaVuSans-73"/>
     </g>
    </g>
   </g>
   <g id="matplotlib.axis_2">
    <g id="ytick_1">
     <g id="line2d_13">
      <path clip-path="url(#p8b6d7c71d9)" d="M 54 248.055177 
L 388.8 248.055177 
" style="fill:none;stroke:#b0b0b0;stroke-linecap:square;stroke-width:0.8;"/>
     </g>
     <g id="line2d_14">
      <defs>
       <path d="M 0 0 
L -3.5 0 
" id="me214e9cb22" style="stroke:#000000;stroke-width:0.8;"/>
      </defs>
      <g>
       <use style="stroke:#000000;stroke-width:0.8;" x="54" xlink:href="#me214e9cb22" y="248.055177"/>
      </g>
     </g>
     <g id="text_8">
      <!-- −1000 -->
      <defs>
       <path d="M 10.59375 35.5 
L 73.1875 35.5 
L 73.1875 27.203125 
L 10.59375 27.203125 
z
" id="DejaVuSans-2212"/>
      </defs>
      <g transform="translate(13.170313 251.854396)scale(0.1 -0.1)">
       <use xlink:href="#DejaVuSans-2212"/>
       <use x="83.789062" xlink:href="#DejaVuSans-31"/>
       <use x="147.412109" xlink:href="#DejaVuSans-30"/>
       <use x="211.035156" xlink:href="#DejaVuSans-30"/>
       <use x="274.658203" xlink:href="#DejaVuSans-30"/>
      </g>
     </g>
    </g>
    <g id="ytick_2">
     <g id="line2d_15">
      <path clip-path="url(#p8b6d7c71d9)" d="M 54 219.461688 
L 388.8 219.461688 
" style="fill:none;stroke:#b0b0b0;stroke-linecap:square;stroke-width:0.8;"/>
     </g>
     <g id="line2d_16">
      <g>
       <use style="stroke:#000000;stroke-width:0.8;" x="54" xlink:href="#me214e9cb22" y="219.461688"/>
      </g>
     </g>
     <g id="text_9">
      <!-- −750 -->
      <defs>
       <path d="M 8.203125 72.90625 
L 55.078125 72.90625 
L 55.078125 68.703125 
L 28.609375 0 
L 18.3125 0 
L 43.21875 64.59375 
L 8.203125 64.59375 
z
" id="DejaVuSans-37"/>
       <path d="M 10.796875 72.90625 
L 49.515625 72.90625 
L 49.515625 64.59375 
L 19.828125 64.59375 
L 19.828125 46.734375 
Q 21.96875 47.46875 24.109375 47.828125 
Q 26.265625 48.1875 28.421875 48.1875 
Q 40.625 48.1875 47.75 41.5 
Q 54.890625 34.8125 54.890625 23.390625 
Q 54.890625 11.625 47.5625 5.09375 
Q 40.234375 -1.421875 26.90625 -1.421875 
Q 22.3125 -1.421875 17.546875 -0.640625 
Q 12.796875 0.140625 7.71875 1.703125 
L 7.71875 11.625 
Q 12.109375 9.234375 16.796875 8.0625 
Q 21.484375 6.890625 26.703125 6.890625 
Q 35.15625 6.890625 40.078125 11.328125 
Q 45.015625 15.765625 45.015625 23.390625 
Q 45.015625 31 40.078125 35.4375 
Q 35.15625 39.890625 26.703125 39.890625 
Q 22.75 39.890625 18.8125 39.015625 
Q 14.890625 38.140625 10.796875 36.28125 
z
" id="DejaVuSans-35"/>
      </defs>
      <g transform="translate(19.532812 223.260907)scale(0.1 -0.1)">
       <use xlink:href="#DejaVuSans-2212"/>
       <use x="83.789062" xlink:href="#DejaVuSans-37"/>
       <use x="147.412109" xlink:href="#DejaVuSans-35"/>
       <use x="211.035156" xlink:href="#DejaVuSans-30"/>
      </g>
     </g>
    </g>
    <g id="ytick_3">
     <g id="line2d_17">
      <path clip-path="url(#p8b6d7c71d9)" d="M 54 190.868198 
L 388.8 190.868198 
" style="fill:none;stroke:#b0b0b0;stroke-linecap:square;stroke-width:0.8;"/>
     </g>
     <g id="line2d_18">
      <g>
       <use style="stroke:#000000;stroke-width:0.8;" x="54" xlink:href="#me214e9cb22" y="190.868198"/>
      </g>
     </g>
     <g id="text_10">
      <!-- −500 -->
      <g transform="translate(19.532812 194.667417)scale(0.1 -0.1)">
       <use xlink:href="#DejaVuSans-2212"/>
       <use x="83.789062" xlink:href="#DejaVuSans-35"/>
       <use x="147.412109" xlink:href="#DejaVuSans-30"/>
       <use x="211.035156" xlink:href="#DejaVuSans-30"/>
      </g>
     </g>
    </g>
    <g id="ytick_4">
     <g id="line2d_19">
      <path clip-path="url(#p8b6d7c71d9)" d="M 54 162.274709 
L 388.8 162.274709 
" style="fill:none;stroke:#b0b0b0;stroke-linecap:square;stroke-width:0.8;"/>
     </g>
     <g id="line2d_20">
      <g>
       <use style="stroke:#000000;stroke-width:0.8;" x="54" xlink:href="#me214e9cb22" y="162.274709"/>
      </g>
     </g>
     <g id="text_11">
      <!-- −250 -->
      <g transform="translate(19.532812 166.073928)scale(0.1 -0.1)">
       <use xlink:href="#DejaVuSans-2212"/>
       <use x="83.789062" xlink:href="#DejaVuSans-32"/>
       <use x="147.412109" xlink:href="#DejaVuSans-35"/>
       <use x="211.035156" xlink:href="#DejaVuSans-30"/>
      </g>
     </g>
    </g>
    <g id="ytick_5">
     <g id="line2d_21">
      <path clip-path="url(#p8b6d7c71d9)" d="M 54 133.68122 
L 388.8 133.68122 
" style="fill:none;stroke:#b0b0b0;stroke-linecap:square;stroke-width:0.8;"/>
     </g>
     <g id="line2d_22">
      <g>
       <use style="stroke:#000000;stroke-width:0.8;" x="54" xlink:href="#me214e9cb22" y="133.68122"/>
      </g>
     </g>
     <g id="text_12">
      <!-- 0 -->
      <g transform="translate(40.6375 137.480438)scale(0.1 -0.1)">
       <use xlink:href="#DejaVuSans-30"/>
      </g>
     </g>
    </g>
    <g id="ytick_6">
     <g id="line2d_23">
      <path clip-path="url(#p8b6d7c71d9)" d="M 54 105.08773 
L 388.8 105.08773 
" style="fill:none;stroke:#b0b0b0;stroke-linecap:square;stroke-width:0.8;"/>
     </g>
     <g id="line2d_24">
      <g>
       <use style="stroke:#000000;stroke-width:0.8;" x="54" xlink:href="#me214e9cb22" y="105.08773"/>
      </g>
     </g>
     <g id="text_13">
      <!-- 250 -->
      <g transform="translate(27.9125 108.886949)scale(0.1 -0.1)">
       <use xlink:href="#DejaVuSans-32"/>
       <use x="63.623047" xlink:href="#DejaVuSans-35"/>
       <use x="127.246094" xlink:href="#DejaVuSans-30"/>
      </g>
     </g>
    </g>
    <g id="ytick_7">
     <g id="line2d_25">
      <path clip-path="url(#p8b6d7c71d9)" d="M 54 76.494241 
L 388.8 76.494241 
" style="fill:none;stroke:#b0b0b0;stroke-linecap:square;stroke-width:0.8;"/>
     </g>
     <g id="line2d_26">
      <g>
       <use style="stroke:#000000;stroke-width:0.8;" x="54" xlink:href="#me214e9cb22" y="76.494241"/>
      </g>
     </g>
     <g id="text_14">
      <!-- 500 -->
      <g transform="translate(27.9125 80.293459)scale(0.1 -0.1)">
       <use xlink:href="#DejaVuSans-35"/>
       <use x="63.623047" xlink:href="#DejaVuSans-30"/>
       <use x="127.246094" xlink:href="#DejaVuSans-30"/>
      </g>
     </g>
    </g>
    <g id="ytick_8">
     <g id="line2d_27">
      <path clip-path="url(#p8b6d7c71d9)" d="M 54 47.900751 
L 388.8 47.900751 
" style="fill:none;stroke:#b0b0b0;stroke-linecap:square;stroke-width:0.8;"/>
     </g>
     <g id="line2d_28">
      <g>
       <use style="stroke:#000000;stroke-width:0.8;" x="54" xlink:href="#me214e9cb22" y="47.900751"/>
      </g>
     </g>
     <g id="text_15">
      <!-- 750 -->
      <g transform="translate(27.9125 51.69997)scale(0.1 -0.1)">
       <use xlink:href="#DejaVuSans-37"/>
       <use x="63.623047" xlink:href="#DejaVuSans-35"/>
       <use x="127.246094" xlink:href="#DejaVuSans-30"/>
      </g>
     </g>
    </g>
    <g id="text_16">
     <!-- Kilowatts  -->
     <defs>
      <path d="M 9.8125 72.90625 
L 19.671875 72.90625 
L 19.671875 42.09375 
L 52.390625 72.90625 
L 65.09375 72.90625 
L 28.90625 38.921875 
L 67.671875 0 
L 54.6875 0 
L 19.671875 35.109375 
L 19.671875 0 
L 9.8125 0 
z
" id="DejaVuSans-4b"/>
      <path d="M 9.421875 54.6875 
L 18.40625 54.6875 
L 18.40625 0 
L 9.421875 0 
z
M 9.421875 75.984375 
L 18.40625 75.984375 
L 18.40625 64.59375 
L 9.421875 64.59375 
z
" id="DejaVuSans-69"/>
      <path d="M 9.421875 75.984375 
L 18.40625 75.984375 
L 18.40625 0 
L 9.421875 0 
z
" id="DejaVuSans-6c"/>
      <path d="M 4.203125 54.6875 
L 13.1875 54.6875 
L 24.421875 12.015625 
L 35.59375 54.6875 
L 46.1875 54.6875 
L 57.421875 12.015625 
L 68.609375 54.6875 
L 77.59375 54.6875 
L 63.28125 0 
L 52.6875 0 
L 40.921875 44.828125 
L 29.109375 0 
L 18.5 0 
z
" id="DejaVuSans-77"/>
      <path d="M 34.28125 27.484375 
Q 23.390625 27.484375 19.1875 25 
Q 14.984375 22.515625 14.984375 16.5 
Q 14.984375 11.71875 18.140625 8.90625 
Q 21.296875 6.109375 26.703125 6.109375 
Q 34.1875 6.109375 38.703125 11.40625 
Q 43.21875 16.703125 43.21875 25.484375 
L 43.21875 27.484375 
z
M 52.203125 31.203125 
L 52.203125 0 
L 43.21875 0 
L 43.21875 8.296875 
Q 40.140625 3.328125 35.546875 0.953125 
Q 30.953125 -1.421875 24.3125 -1.421875 
Q 15.921875 -1.421875 10.953125 3.296875 
Q 6 8.015625 6 15.921875 
Q 6 25.140625 12.171875 29.828125 
Q 18.359375 34.515625 30.609375 34.515625 
L 43.21875 34.515625 
L 43.21875 35.40625 
Q 43.21875 41.609375 39.140625 45 
Q 35.0625 48.390625 27.6875 48.390625 
Q 23 48.390625 18.546875 47.265625 
Q 14.109375 46.140625 10.015625 43.890625 
L 10.015625 52.203125 
Q 14.9375 54.109375 19.578125 55.046875 
Q 24.21875 56 28.609375 56 
Q 40.484375 56 46.34375 49.84375 
Q 52.203125 43.703125 52.203125 31.203125 
" id="DejaVuSans-61"/>
      <path d="M 18.3125 70.21875 
L 18.3125 54.6875 
L 36.8125 54.6875 
L 36.8125 47.703125 
L 18.3125 47.703125 
L 18.3125 18.015625 
Q 18.3125 11.328125 20.140625 9.421875 
Q 21.96875 7.515625 27.59375 7.515625 
L 36.8125 7.515625 
L 36.8125 0 
L 27.59375 0 
Q 17.1875 0 13.234375 3.875 
Q 9.28125 7.765625 9.28125 18.015625 
L 9.28125 47.703125 
L 2.6875 47.703125 
L 2.6875 54.6875 
L 9.28125 54.6875 
L 9.28125 70.21875 
z
" id="DejaVuSans-74"/>
      <path id="DejaVuSans-20"/>
     </defs>
     <g transform="translate(7.090625 167.663594)rotate(-90)scale(0.1 -0.1)">
      <use xlink:href="#DejaVuSans-4b"/>
      <use x="65.576172" xlink:href="#DejaVuSans-69"/>
      <use x="93.359375" xlink:href="#DejaVuSans-6c"/>
      <use x="121.142578" xlink:href="#DejaVuSans-6f"/>
      <use x="182.324219" xlink:href="#DejaVuSans-77"/>
      <use x="264.111328" xlink:href="#DejaVuSans-61"/>
      <use x="325.390625" xlink:href="#DejaVuSans-74"/>
      <use x="364.599609" xlink:href="#DejaVuSans-74"/>
      <use x="403.808594" xlink:href="#DejaVuSans-73"/>
      <use x="455.908203" xlink:href="#DejaVuSans-20"/>
     </g>
    </g>
   </g>
   <g id="line2d_29">
    <path clip-path="url(#p8b6d7c71d9)" d="M 69.218182 124.721207 
L 69.52285 126.447606 
L 69.827518 124.721207 
L 70.132187 124.721207 
L 70.741523 122.994807 
L 71.046192 123.858007 
L 71.35086 127.310806 
L 71.655528 126.447606 
L 71.960197 129.037205 
L 72.264865 135.942803 
L 72.569533 127.310806 
L 72.874201 123.858007 
L 73.17887 126.447606 
L 73.483538 127.310806 
L 73.788206 127.310806 
L 74.092875 126.447606 
L 74.397543 123.858007 
L 74.702211 127.310806 
L 75.00688 120.405208 
L 75.311548 123.858007 
L 75.616216 124.721207 
L 75.920885 121.268408 
L 76.225553 122.994807 
L 76.530221 116.95241 
L 76.834889 122.131608 
L 77.139558 117.815609 
L 77.444226 119.542009 
L 77.748894 113.499611 
L 78.358231 113.499611 
L 78.662899 112.636411 
L 78.967568 97.098817 
L 79.272236 103.141215 
L 79.576904 100.551616 
L 79.881572 116.08921 
L 80.186241 100.551616 
L 80.490909 117.815609 
L 80.795577 123.858007 
L 81.100246 242.116364 
L 81.404914 139.395601 
L 81.709582 161.838793 
L 82.014251 136.806002 
L 82.318919 129.900405 
L 82.928256 124.721207 
L 83.232924 125.584407 
L 83.537592 123.858007 
L 83.84226 126.447606 
L 84.146929 127.310806 
L 84.451597 127.310806 
L 84.756265 126.447606 
L 85.060934 124.721207 
L 85.365602 128.174006 
L 85.67027 129.900405 
L 86.279607 128.174006 
L 86.584275 130.763605 
L 86.888943 127.310806 
L 87.193612 128.174006 
L 87.49828 126.447606 
L 87.802948 127.310806 
L 88.107617 126.447606 
L 88.716953 117.815609 
L 89.021622 126.447606 
L 89.32629 127.310806 
L 89.630958 127.310806 
L 89.935627 125.584407 
L 90.240295 128.174006 
L 90.544963 129.037205 
L 90.849631 126.447606 
L 91.1543 129.037205 
L 91.458968 128.174006 
L 91.763636 128.174006 
L 92.068305 127.310806 
L 92.372973 129.037205 
L 92.677641 129.037205 
L 92.98231 128.174006 
L 93.286978 129.900405 
L 93.591646 127.310806 
L 93.896314 130.763605 
L 94.200983 129.037205 
L 94.505651 129.037205 
L 94.810319 129.900405 
L 95.114988 129.037205 
L 95.724324 130.763605 
L 96.028993 130.763605 
L 96.333661 129.037205 
L 96.638329 130.763605 
L 96.942998 130.763605 
L 97.247666 129.900405 
L 97.552334 130.763605 
L 97.857002 135.079603 
L 98.161671 125.584407 
L 98.466339 134.216403 
L 98.771007 129.037205 
L 99.075676 130.763605 
L 99.380344 127.310806 
L 99.685012 125.584407 
L 99.989681 128.174006 
L 100.294349 134.216403 
L 100.599017 133.353204 
L 100.903686 123.858007 
L 101.208354 130.763605 
L 101.513022 140.258801 
L 101.81769 123.858007 
L 102.731695 136.806002 
L 103.036364 129.037205 
L 103.341032 131.626804 
L 103.6457 138.532402 
L 104.255037 134.216403 
L 104.559705 138.532402 
L 104.864373 121.268408 
L 105.169042 155.796395 
L 105.47371 113.499611 
L 105.778378 141.122001 
L 106.083047 119.542009 
L 106.387715 142.8484 
L 106.692383 148.890798 
L 107.606388 118.678809 
L 107.911057 120.405208 
L 108.215725 148.027598 
L 108.520393 109.183613 
L 109.12973 142.8484 
L 109.434398 141.9852 
L 109.739066 101.414815 
L 110.348403 139.395601 
L 110.653071 117.815609 
L 110.95774 113.499611 
L 111.567076 133.353204 
L 111.871744 129.037205 
L 112.176413 97.098817 
L 112.481081 142.8484 
L 112.785749 104.004414 
L 113.090418 139.395601 
L 113.395086 107.457213 
L 113.699754 122.131608 
L 114.004423 118.678809 
L 114.309091 125.584407 
L 114.613759 118.678809 
L 114.918428 127.310806 
L 115.223096 125.584407 
L 115.527764 132.490004 
L 115.832432 110.910012 
L 116.137101 132.490004 
L 116.441769 121.268408 
L 116.746437 134.216403 
L 117.051106 119.542009 
L 117.660442 129.900405 
L 118.269779 122.994807 
L 118.574447 132.490004 
L 118.879115 124.721207 
L 119.183784 127.310806 
L 119.488452 116.95241 
L 119.79312 141.9852 
L 120.097789 121.268408 
L 120.402457 125.584407 
L 120.707125 119.542009 
L 121.011794 137.669202 
L 121.62113 119.542009 
L 121.925799 130.763605 
L 122.230467 132.490004 
L 122.535135 123.858007 
L 122.839803 128.174006 
L 123.144472 121.268408 
L 123.44914 123.858007 
L 123.753808 122.131608 
L 124.058477 126.447606 
L 124.363145 122.994807 
L 124.667813 122.994807 
L 124.972482 127.310806 
L 125.581818 119.542009 
L 126.191155 129.900405 
L 126.495823 121.268408 
L 126.800491 119.542009 
L 127.10516 128.174006 
L 127.409828 112.636411 
L 127.714496 129.900405 
L 128.019165 120.405208 
L 128.323833 123.858007 
L 128.628501 125.584407 
L 128.93317 122.131608 
L 129.237838 129.037205 
L 129.847174 122.994807 
L 130.151843 127.310806 
L 130.456511 118.678809 
L 130.761179 126.447606 
L 131.065848 127.310806 
L 131.370516 122.994807 
L 131.675184 123.858007 
L 131.979853 127.310806 
L 132.284521 121.268408 
L 132.589189 129.037205 
L 132.893857 124.721207 
L 133.198526 126.447606 
L 133.503194 125.584407 
L 133.807862 122.131608 
L 134.112531 129.037205 
L 134.417199 124.721207 
L 134.721867 129.037205 
L 135.026536 128.174006 
L 135.331204 123.858007 
L 135.635872 127.310806 
L 136.549877 127.310806 
L 136.854545 125.584407 
L 137.159214 125.584407 
L 137.463882 126.447606 
L 137.76855 123.858007 
L 138.073219 129.900405 
L 138.377887 125.584407 
L 138.682555 126.447606 
L 138.987224 124.721207 
L 139.291892 128.174006 
L 139.901229 126.447606 
L 140.205897 126.447606 
L 140.510565 128.174006 
L 140.815233 134.216403 
L 141.42457 126.447606 
L 141.729238 128.174006 
L 142.033907 126.447606 
L 142.338575 123.858007 
L 142.643243 123.858007 
L 142.947912 122.994807 
L 143.25258 122.994807 
L 143.557248 124.721207 
L 143.861916 125.584407 
L 145.08059 125.584407 
L 145.385258 121.268408 
L 145.689926 113.499611 
L 145.994595 77.245224 
L 146.299263 74.655625 
L 146.603931 103.141215 
L 146.9086 102.278015 
L 147.213268 135.079603 
L 147.517936 154.069996 
L 147.822604 153.206796 
L 148.127273 154.933196 
L 148.431941 144.5748 
L 148.736609 143.7116 
L 149.041278 136.806002 
L 149.345946 141.9852 
L 149.650614 134.216403 
L 149.955283 137.669202 
L 150.259951 132.490004 
L 150.564619 136.806002 
L 150.869287 130.763605 
L 151.478624 127.310806 
L 151.783292 126.447606 
L 152.087961 128.174006 
L 152.392629 126.447606 
L 152.697297 127.310806 
L 153.001966 127.310806 
L 153.306634 118.678809 
L 153.611302 123.858007 
L 153.915971 122.994807 
L 154.220639 129.037205 
L 154.525307 131.626804 
L 154.829975 130.763605 
L 155.134644 129.037205 
L 155.74398 127.310806 
L 156.048649 127.310806 
L 156.353317 126.447606 
L 156.657985 129.900405 
L 156.962654 142.8484 
L 157.267322 204.135578 
L 157.57199 193.777181 
L 157.876658 123.858007 
L 158.181327 142.8484 
L 158.485995 91.919619 
L 158.790663 96.235617 
L 159.095332 86.740421 
L 159.4 113.499611 
L 159.704668 106.594013 
L 160.009337 113.499611 
L 160.314005 110.046812 
L 160.618673 117.815609 
L 160.923342 120.405208 
L 161.22801 116.95241 
L 161.532678 120.405208 
L 161.837346 117.815609 
L 162.142015 122.994807 
L 162.446683 125.584407 
L 163.05602 125.584407 
L 163.360688 127.310806 
L 163.665356 126.447606 
L 163.970025 124.721207 
L 164.579361 126.447606 
L 165.188698 124.721207 
L 165.493366 128.174006 
L 165.798034 136.806002 
L 166.102703 129.037205 
L 166.407371 129.037205 
L 167.016708 122.994807 
L 167.321376 124.721207 
L 167.626044 122.994807 
L 167.930713 124.721207 
L 168.235381 125.584407 
L 168.540049 125.584407 
L 168.844717 128.174006 
L 169.149386 126.447606 
L 169.454054 126.447606 
L 169.758722 127.310806 
L 170.063391 126.447606 
L 170.368059 127.310806 
L 170.672727 127.310806 
L 170.977396 126.447606 
L 171.282064 123.858007 
L 171.586732 123.858007 
L 172.196069 112.636411 
L 172.500737 96.235617 
L 173.110074 110.910012 
L 173.414742 60.84443 
L 173.71941 131.626804 
L 174.024079 89.33002 
L 174.328747 154.933196 
L 174.633415 89.33002 
L 174.938084 139.395601 
L 175.242752 159.249194 
L 175.54742 135.079603 
L 175.852088 134.216403 
L 176.156757 118.678809 
L 176.461425 138.532402 
L 176.766093 136.806002 
L 177.070762 114.362811 
L 177.37543 141.9852 
L 177.680098 122.994807 
L 177.984767 147.164399 
L 178.289435 124.721207 
L 178.594103 121.268408 
L 179.20344 140.258801 
L 179.508108 111.773212 
L 179.812776 131.626804 
L 180.117445 129.037205 
L 180.422113 141.122001 
L 180.726781 112.636411 
L 181.03145 124.721207 
L 181.336118 117.815609 
L 181.640786 131.626804 
L 181.945455 123.858007 
L 182.250123 133.353204 
L 182.554791 128.174006 
L 182.859459 125.584407 
L 183.164128 138.532402 
L 183.468796 107.457213 
L 183.773464 130.763605 
L 184.078133 123.858007 
L 184.382801 131.626804 
L 184.687469 126.447606 
L 184.992138 109.183613 
L 185.296806 128.174006 
L 185.601474 116.95241 
L 185.906143 136.806002 
L 186.210811 130.763605 
L 186.515479 120.405208 
L 186.820147 122.994807 
L 187.124816 141.9852 
L 187.429484 106.594013 
L 187.734152 135.079603 
L 188.038821 119.542009 
L 188.343489 154.933196 
L 188.648157 111.773212 
L 188.952826 130.763605 
L 189.257494 118.678809 
L 189.86683 146.301199 
L 190.171499 125.584407 
L 190.476167 126.447606 
L 190.780835 121.268408 
L 191.085504 141.122001 
L 191.390172 120.405208 
L 191.69484 122.131608 
L 191.999509 129.037205 
L 192.304177 130.763605 
L 192.608845 123.858007 
L 192.913514 114.362811 
L 193.52285 132.490004 
L 193.827518 119.542009 
L 194.132187 126.447606 
L 194.436855 125.584407 
L 194.741523 125.584407 
L 195.046192 129.037205 
L 195.35086 95.372418 
L 195.655528 133.353204 
L 196.264865 116.08921 
L 196.569533 112.636411 
L 196.874201 119.542009 
L 197.17887 146.301199 
L 197.483538 104.004414 
L 197.788206 142.8484 
L 198.092875 120.405208 
L 198.397543 124.721207 
L 198.702211 109.183613 
L 199.00688 131.626804 
L 199.311548 133.353204 
L 200.225553 155.796395 
L 200.530221 149.753998 
L 200.834889 156.659595 
L 201.139558 149.753998 
L 201.444226 136.806002 
L 201.748894 132.490004 
L 202.053563 130.763605 
L 202.967568 128.174006 
L 203.272236 129.037205 
L 203.576904 127.310806 
L 203.881572 126.447606 
L 204.490909 126.447606 
L 204.795577 127.310806 
L 205.100246 126.447606 
L 205.404914 126.447606 
L 205.709582 124.721207 
L 206.014251 129.037205 
L 206.318919 127.310806 
L 206.623587 126.447606 
L 207.232924 126.447606 
L 207.537592 128.174006 
L 207.84226 126.447606 
L 208.146929 127.310806 
L 208.451597 127.310806 
L 208.756265 126.447606 
L 209.060934 127.310806 
L 209.365602 127.310806 
L 209.67027 126.447606 
L 209.974939 128.174006 
L 210.279607 124.721207 
L 210.584275 127.310806 
L 210.888943 125.584407 
L 211.193612 128.174006 
L 211.49828 126.447606 
L 211.802948 127.310806 
L 212.107617 126.447606 
L 212.412285 127.310806 
L 212.716953 127.310806 
L 213.021622 125.584407 
L 213.630958 125.584407 
L 213.935627 124.721207 
L 214.240295 118.678809 
L 214.544963 126.447606 
L 214.849631 105.730814 
L 215.1543 123.858007 
L 215.458968 119.542009 
L 215.763636 120.405208 
L 216.068305 106.594013 
L 216.372973 124.721207 
L 216.677641 66.023628 
L 216.98231 108.320413 
L 217.286978 102.278015 
L 217.591646 171.33399 
L 217.896314 75.518825 
L 218.200983 145.437999 
L 218.505651 104.867614 
L 218.810319 160.112394 
L 219.114988 130.763605 
L 219.419656 144.5748 
L 219.724324 134.216403 
L 220.028993 147.164399 
L 220.333661 147.164399 
L 220.638329 128.174006 
L 221.247666 146.301199 
L 221.552334 135.942803 
L 222.161671 129.900405 
L 222.466339 140.258801 
L 223.075676 130.763605 
L 223.380344 135.079603 
L 223.685012 132.490004 
L 223.989681 134.216403 
L 224.294349 133.353204 
L 224.599017 126.447606 
L 224.903686 135.079603 
L 225.208354 130.763605 
L 225.513022 133.353204 
L 225.81769 131.626804 
L 227.036364 128.174006 
L 227.341032 129.037205 
L 227.6457 129.037205 
L 227.950369 130.763605 
L 228.255037 126.447606 
L 228.559705 129.037205 
L 229.169042 127.310806 
L 229.47371 116.95241 
L 229.778378 127.310806 
L 230.083047 124.721207 
L 230.387715 126.447606 
L 230.692383 129.900405 
L 230.997052 128.174006 
L 231.30172 131.626804 
L 231.606388 128.174006 
L 231.911057 127.310806 
L 232.215725 127.310806 
L 232.520393 128.174006 
L 232.825061 126.447606 
L 233.12973 125.584407 
L 233.434398 126.447606 
L 233.739066 129.900405 
L 234.348403 148.890798 
L 234.653071 205.861977 
L 235.262408 118.678809 
L 235.567076 176.513188 
L 235.871744 97.098817 
L 236.176413 91.056419 
L 236.481081 101.414815 
L 236.785749 122.131608 
L 237.090418 101.414815 
L 237.395086 101.414815 
L 237.699754 114.362811 
L 238.004423 117.815609 
L 238.309091 114.362811 
L 238.613759 116.08921 
L 238.918428 115.22601 
L 239.223096 119.542009 
L 239.527764 119.542009 
L 239.832432 120.405208 
L 240.137101 116.08921 
L 240.441769 125.584407 
L 240.746437 117.815609 
L 241.051106 122.131608 
L 241.355774 122.131608 
L 241.660442 126.447606 
L 241.965111 122.994807 
L 242.269779 122.131608 
L 242.574447 122.131608 
L 243.183784 125.584407 
L 243.488452 123.858007 
L 244.097789 123.858007 
L 244.402457 135.942803 
L 244.707125 128.174006 
L 245.011794 125.584407 
L 245.316462 124.721207 
L 245.62113 122.994807 
L 246.230467 121.268408 
L 246.535135 124.721207 
L 246.839803 122.994807 
L 247.144472 125.584407 
L 247.44914 124.721207 
L 247.753808 126.447606 
L 248.058477 125.584407 
L 248.363145 125.584407 
L 248.667813 123.858007 
L 248.972482 115.22601 
L 249.27715 70.339627 
L 249.581818 81.561223 
L 249.886486 84.150822 
L 250.191155 98.825216 
L 250.495823 145.437999 
L 250.800491 161.838793 
L 251.10516 142.8484 
L 251.409828 150.617197 
L 251.714496 145.437999 
L 252.019165 157.522795 
L 252.323833 135.079603 
L 252.628501 141.122001 
L 252.93317 136.806002 
L 253.237838 137.669202 
L 253.542506 133.353204 
L 253.847174 133.353204 
L 254.151843 135.942803 
L 254.456511 129.900405 
L 254.761179 131.626804 
L 255.065848 128.174006 
L 255.370516 129.900405 
L 255.675184 125.584407 
L 255.979853 128.174006 
L 256.284521 128.174006 
L 256.589189 127.310806 
L 256.893857 127.310806 
L 257.198526 125.584407 
L 257.503194 116.08921 
L 257.807862 127.310806 
L 258.112531 122.994807 
L 258.417199 128.174006 
L 258.721867 130.763605 
L 259.026536 129.900405 
L 259.331204 127.310806 
L 259.635872 128.174006 
L 259.940541 127.310806 
L 260.245209 124.721207 
L 260.549877 126.447606 
L 260.854545 125.584407 
L 261.159214 126.447606 
L 261.463882 140.258801 
L 261.76855 198.95638 
L 262.073219 159.249194 
L 262.377887 190.324383 
L 262.682555 101.414815 
L 262.987224 94.509218 
L 263.291892 91.919619 
L 263.59656 94.509218 
L 264.205897 110.046812 
L 264.510565 108.320413 
L 264.815233 115.22601 
L 265.119902 117.815609 
L 265.42457 116.95241 
L 265.729238 121.268408 
L 266.033907 120.405208 
L 266.338575 117.815609 
L 266.643243 124.721207 
L 267.557248 124.721207 
L 267.861916 122.994807 
L 268.166585 123.858007 
L 268.471253 125.584407 
L 268.775921 123.858007 
L 269.08059 139.395601 
L 269.385258 124.721207 
L 269.689926 123.858007 
L 269.994595 121.268408 
L 270.299263 120.405208 
L 270.9086 123.858007 
L 271.213268 124.721207 
L 271.517936 124.721207 
L 271.822604 126.447606 
L 272.127273 124.721207 
L 272.431941 119.542009 
L 272.736609 44.443636 
L 273.041278 82.424422 
L 273.345946 97.962017 
L 273.650614 142.8484 
L 273.955283 131.626804 
L 274.564619 167.017991 
L 274.869287 142.8484 
L 275.173956 141.9852 
L 275.478624 142.8484 
L 275.783292 138.532402 
L 276.087961 136.806002 
L 276.392629 130.763605 
L 277.001966 136.806002 
L 277.306634 129.037205 
L 277.611302 127.310806 
L 277.915971 129.037205 
L 278.220639 127.310806 
L 278.525307 127.310806 
L 278.829975 126.447606 
L 279.439312 128.174006 
L 279.74398 127.310806 
L 280.048649 125.584407 
L 280.353317 126.447606 
L 280.657985 125.584407 
L 280.962654 115.22601 
L 281.267322 125.584407 
L 281.57199 122.131608 
L 281.876658 127.310806 
L 282.181327 127.310806 
L 282.485995 129.037205 
L 283.4 126.447606 
L 283.704668 126.447606 
L 284.009337 127.310806 
L 284.314005 125.584407 
L 284.618673 124.721207 
L 284.923342 125.584407 
L 285.22801 128.174006 
L 285.532678 133.353204 
L 286.142015 182.555586 
L 286.446683 120.405208 
L 286.751351 217.946773 
L 287.05602 108.320413 
L 287.360688 135.942803 
L 287.665356 108.320413 
L 287.970025 108.320413 
L 288.274693 104.867614 
L 288.579361 93.646018 
L 288.884029 110.910012 
L 289.188698 114.362811 
L 289.493366 106.594013 
L 289.798034 121.268408 
L 290.102703 113.499611 
L 290.407371 119.542009 
L 290.712039 116.95241 
L 291.321376 118.678809 
L 291.626044 116.95241 
L 291.930713 121.268408 
L 292.235381 119.542009 
L 292.540049 122.131608 
L 292.844717 122.994807 
L 293.149386 119.542009 
L 293.454054 123.858007 
L 293.758722 120.405208 
L 294.063391 122.131608 
L 294.368059 119.542009 
L 294.672727 125.584407 
L 294.977396 121.268408 
L 295.282064 125.584407 
L 295.586732 121.268408 
L 295.8914 125.584407 
L 296.196069 126.447606 
L 296.805405 124.721207 
L 297.110074 126.447606 
L 297.414742 122.994807 
L 297.71941 125.584407 
L 298.024079 123.858007 
L 298.328747 126.447606 
L 298.938084 126.447606 
L 299.242752 125.584407 
L 299.54742 123.858007 
L 299.852088 126.447606 
L 300.156757 124.721207 
L 300.766093 124.721207 
L 301.070762 123.858007 
L 301.37543 126.447606 
L 301.680098 125.584407 
L 301.984767 126.447606 
L 302.289435 124.721207 
L 302.594103 127.310806 
L 302.898771 125.584407 
L 303.812776 128.174006 
L 304.117445 126.447606 
L 304.726781 124.721207 
L 305.03145 127.310806 
L 305.336118 125.584407 
L 305.640786 126.447606 
L 305.945455 124.721207 
L 306.250123 123.858007 
L 306.859459 125.584407 
L 307.164128 123.858007 
L 307.468796 124.721207 
L 307.773464 124.721207 
L 308.078133 125.584407 
L 308.382801 124.721207 
L 308.687469 125.584407 
L 308.992138 124.721207 
L 309.296806 128.174006 
L 309.601474 124.721207 
L 309.906143 123.858007 
L 310.210811 123.858007 
L 310.515479 128.174006 
L 310.820147 122.994807 
L 311.124816 125.584407 
L 311.429484 124.721207 
L 311.734152 126.447606 
L 312.343489 126.447606 
L 312.648157 123.858007 
L 312.952826 127.310806 
L 313.257494 125.584407 
L 315.085504 125.584407 
L 315.390172 128.174006 
L 315.69484 123.858007 
L 315.999509 125.584407 
L 316.304177 124.721207 
L 316.608845 126.447606 
L 316.913514 124.721207 
L 317.218182 125.584407 
L 317.52285 123.858007 
L 317.827518 123.858007 
L 318.132187 128.174006 
L 318.741523 124.721207 
L 319.046192 128.174006 
L 319.35086 122.994807 
L 319.655528 124.721207 
L 319.960197 122.994807 
L 320.264865 127.310806 
L 320.569533 123.858007 
L 320.874201 123.858007 
L 321.17887 119.542009 
L 321.483538 128.174006 
L 321.788206 124.721207 
L 322.092875 122.994807 
L 322.397543 124.721207 
L 322.702211 125.584407 
L 323.00688 123.858007 
L 323.311548 124.721207 
L 323.616216 123.858007 
L 323.920885 128.174006 
L 324.225553 125.584407 
L 324.530221 125.584407 
L 324.834889 126.447606 
L 325.139558 125.584407 
L 325.444226 123.858007 
L 325.748894 123.858007 
L 326.053563 126.447606 
L 326.358231 124.721207 
L 326.662899 124.721207 
L 326.967568 129.037205 
L 327.272236 125.584407 
L 327.576904 126.447606 
L 327.881572 124.721207 
L 328.186241 125.584407 
L 328.490909 124.721207 
L 328.795577 125.584407 
L 329.100246 124.721207 
L 329.404914 124.721207 
L 329.709582 123.858007 
L 330.014251 125.584407 
L 330.318919 122.994807 
L 330.623587 125.584407 
L 330.928256 125.584407 
L 331.537592 123.858007 
L 331.84226 126.447606 
L 332.146929 124.721207 
L 332.451597 123.858007 
L 332.756265 124.721207 
L 333.060934 123.858007 
L 333.365602 122.131608 
L 333.974939 128.174006 
L 334.279607 130.763605 
L 334.584275 130.763605 
L 335.193612 124.721207 
L 335.802948 124.721207 
L 336.107617 126.447606 
L 336.412285 124.721207 
L 337.021622 126.447606 
L 337.32629 124.721207 
L 337.630958 125.584407 
L 337.935627 123.858007 
L 338.240295 122.994807 
L 338.544963 124.721207 
L 338.849631 122.131608 
L 339.1543 124.721207 
L 339.458968 124.721207 
L 339.763636 123.858007 
L 340.068305 123.858007 
L 340.372973 122.994807 
L 340.677641 123.858007 
L 340.98231 125.584407 
L 341.591646 123.858007 
L 341.896314 124.721207 
L 342.505651 124.721207 
L 343.114988 126.447606 
L 343.724324 126.447606 
L 344.028993 125.584407 
L 344.638329 125.584407 
L 344.942998 120.405208 
L 345.247666 110.046812 
L 345.552334 90.19322 
L 345.857002 45.306836 
L 346.161671 117.815609 
L 346.466339 66.023628 
L 346.771007 144.5748 
L 347.075676 124.721207 
L 347.380344 144.5748 
L 347.685012 133.353204 
L 347.989681 156.659595 
L 348.294349 121.268408 
L 348.599017 147.164399 
L 348.903686 132.490004 
L 349.208354 150.617197 
L 349.513022 124.721207 
L 349.81769 136.806002 
L 350.122359 135.079603 
L 350.427027 135.942803 
L 350.731695 125.584407 
L 351.036364 132.490004 
L 351.341032 135.079603 
L 351.6457 129.037205 
L 351.950369 126.447606 
L 352.255037 129.037205 
L 352.559705 119.542009 
L 352.864373 139.395601 
L 353.169042 122.131608 
L 353.47371 129.037205 
L 353.778378 126.447606 
L 354.083047 132.490004 
L 354.387715 124.721207 
L 354.997052 130.763605 
L 355.30172 129.037205 
L 355.606388 124.721207 
L 355.911057 129.900405 
L 356.215725 124.721207 
L 356.520393 130.763605 
L 356.825061 127.310806 
L 357.12973 125.584407 
L 357.434398 129.037205 
L 357.739066 129.037205 
L 358.043735 126.447606 
L 358.348403 125.584407 
L 358.653071 128.174006 
L 358.95774 127.310806 
L 359.262408 125.584407 
L 359.567076 124.721207 
L 359.871744 126.447606 
L 360.176413 129.900405 
L 360.481081 122.994807 
L 360.785749 131.626804 
L 361.090418 125.584407 
L 361.395086 123.858007 
L 362.004423 125.584407 
L 362.309091 123.858007 
L 362.613759 127.310806 
L 362.918428 122.131608 
L 363.223096 123.858007 
L 363.527764 123.858007 
L 363.832432 125.584407 
L 364.137101 123.858007 
L 364.441769 123.858007 
L 364.746437 122.994807 
L 365.355774 124.721207 
L 365.660442 121.268408 
L 365.965111 123.858007 
L 366.574447 118.678809 
L 366.879115 122.994807 
L 367.183784 117.815609 
L 367.488452 122.131608 
L 367.79312 122.994807 
L 368.097789 116.08921 
L 368.402457 119.542009 
L 368.707125 120.405208 
L 369.011794 117.815609 
L 369.316462 112.636411 
L 369.62113 116.08921 
L 369.925799 116.08921 
L 370.230467 108.320413 
L 370.535135 116.08921 
L 370.839803 94.509218 
L 371.144472 101.414815 
L 371.44914 105.730814 
L 371.753808 118.678809 
L 372.058477 85.877221 
L 372.363145 118.678809 
L 372.667813 196.36678 
L 372.972482 141.122001 
L 373.27715 131.626804 
L 373.581818 209.314776 
L 373.581818 209.314776 
" style="fill:none;stroke:#ff0000;stroke-linecap:square;stroke-width:0.3;"/>
   </g>
   <g id="line2d_30">
    <path clip-path="url(#p8b6d7c71d9)" d="M 69.218182 126.76757 
L 69.52285 127.377239 
L 69.827518 125.060496 
L 70.132187 125.853066 
L 70.741523 123.536323 
L 71.046192 123.963091 
L 71.35086 127.377239 
L 71.655528 128.291743 
L 71.960197 129.633015 
L 72.264865 132.13266 
L 72.569533 127.133371 
L 72.874201 124.024058 
L 73.17887 126.523702 
L 73.483538 127.925941 
L 73.788206 126.157901 
L 74.397543 126.096934 
L 74.702211 128.047875 
L 75.00688 122.19505 
L 75.311548 122.621819 
L 75.616216 124.267926 
L 75.920885 121.768282 
L 76.225553 124.450827 
L 76.530221 117.805431 
L 76.834889 124.57276 
L 77.139558 121.40248 
L 77.444226 120.487976 
L 77.748894 114.757085 
L 78.053563 116.159324 
L 78.358231 115.305787 
L 78.662899 115.427721 
L 78.967568 99.75922 
L 79.272236 105.733979 
L 79.576904 103.173368 
L 79.881572 117.744464 
L 80.186241 102.685633 
L 80.490909 120.548943 
L 80.795577 124.024058 
L 81.100246 234.252265 
L 81.404914 139.997393 
L 81.709582 161.213884 
L 82.014251 138.717088 
L 82.318919 130.242685 
L 82.623587 127.986908 
L 82.928256 127.255305 
L 83.232924 127.499173 
L 83.537592 126.76757 
L 83.84226 128.840445 
L 84.146929 127.804008 
L 84.451597 129.023346 
L 84.756265 127.377239 
L 85.060934 128.047875 
L 85.67027 127.316272 
L 85.974939 127.864975 
L 86.279607 127.682074 
L 86.584275 130.913321 
L 86.888943 128.413677 
L 87.193612 128.718512 
L 87.49828 126.157901 
L 87.802948 127.925941 
L 88.107617 127.743041 
L 88.716953 121.40248 
L 89.021622 127.072404 
L 89.32629 128.108842 
L 89.630958 128.474644 
L 89.935627 126.157901 
L 90.240295 129.14528 
L 90.544963 129.93785 
L 90.849631 128.413677 
L 91.1543 129.633015 
L 91.458968 129.206247 
L 91.763636 129.693982 
L 92.068305 128.291743 
L 92.372973 129.267214 
L 92.677641 128.779478 
L 92.98231 129.511082 
L 93.286978 129.633015 
L 93.591646 127.804008 
L 93.896314 131.462023 
L 94.200983 129.450115 
L 94.505651 130.425586 
L 94.810319 132.437494 
L 95.114988 129.572049 
L 95.419656 131.644924 
L 95.724324 131.949759 
L 96.028993 131.340089 
L 96.333661 129.084313 
L 96.638329 132.071693 
L 96.942998 131.888792 
L 97.247666 128.291743 
L 97.552334 130.059784 
L 97.857002 135.363907 
L 98.161671 127.072404 
L 98.466339 133.473932 
L 98.771007 129.93785 
L 99.075676 131.157189 
L 99.380344 128.474644 
L 99.685012 128.291743 
L 99.989681 128.901412 
L 100.294349 135.851642 
L 100.599017 132.620395 
L 100.903686 125.731132 
L 101.208354 130.059784 
L 101.513022 139.875459 
L 101.81769 124.633727 
L 102.122359 130.547519 
L 102.427027 132.193626 
L 102.731695 135.668741 
L 103.036364 130.364619 
L 103.341032 130.791387 
L 103.6457 137.436782 
L 103.950369 134.144568 
L 104.255037 133.9007 
L 104.559705 136.09551 
L 104.864373 121.341513 
L 105.169042 152.983349 
L 105.47371 113.720647 
L 105.778378 139.143856 
L 106.083047 119.02477 
L 106.387715 141.887368 
L 106.692383 146.094086 
L 107.606388 118.110266 
L 107.911057 120.305075 
L 108.215725 147.618259 
L 108.520393 110.123598 
L 109.12973 142.740905 
L 109.434398 140.363195 
L 109.739066 103.356269 
L 110.348403 137.436782 
L 110.653071 119.085737 
L 110.95774 113.903548 
L 111.567076 132.376527 
L 111.871744 128.779478 
L 112.176413 100.246956 
L 112.481081 141.338666 
L 112.785749 106.587516 
L 113.090418 139.997393 
L 113.395086 109.818764 
L 113.699754 123.414389 
L 114.004423 119.939274 
L 114.309091 125.670165 
L 114.613759 120.122175 
L 114.918428 126.157901 
L 115.223096 126.401768 
L 115.527764 131.644924 
L 115.832432 111.342937 
L 116.137101 131.888792 
L 116.441769 121.036679 
L 116.746437 133.351998 
L 117.051106 119.268638 
L 117.660442 129.206247 
L 117.965111 126.279834 
L 118.269779 120.853778 
L 118.574447 131.705891 
L 118.879115 124.755661 
L 119.183784 126.706603 
L 119.488452 116.82996 
L 119.79312 140.66803 
L 120.097789 122.560852 
L 120.402457 126.035967 
L 120.707125 120.792811 
L 121.011794 136.644212 
L 121.62113 120.122175 
L 121.925799 130.486552 
L 122.230467 132.010726 
L 122.535135 125.18243 
L 122.839803 128.535611 
L 123.144472 120.366042 
L 123.44914 122.743753 
L 123.753808 123.292455 
L 124.058477 124.633727 
L 124.363145 124.816628 
L 124.667813 123.963091 
L 124.972482 126.828537 
L 125.27715 122.377951 
L 125.581818 120.366042 
L 125.886486 123.475356 
L 126.191155 130.425586 
L 126.495823 121.158612 
L 126.800491 120.914745 
L 127.10516 128.596578 
L 127.409828 115.183853 
L 127.714496 130.913321 
L 128.019165 121.097645 
L 128.323833 123.231488 
L 128.628501 127.072404 
L 128.93317 122.012149 
L 129.237838 128.047875 
L 129.847174 123.109554 
L 130.151843 128.108842 
L 130.456511 118.110266 
L 130.761179 125.914033 
L 131.065848 129.572049 
L 131.370516 123.353422 
L 131.979853 127.864975 
L 132.284521 123.719223 
L 132.589189 129.511082 
L 132.893857 126.279834 
L 133.198526 126.035967 
L 133.503194 125.36533 
L 133.807862 122.438918 
L 134.112531 128.291743 
L 134.417199 124.085025 
L 134.721867 128.901412 
L 135.331204 125.18243 
L 135.635872 127.621107 
L 135.940541 127.255305 
L 136.245209 126.462735 
L 136.549877 127.011438 
L 137.159214 127.133371 
L 137.463882 126.706603 
L 137.76855 125.792099 
L 138.073219 129.633015 
L 138.377887 128.35271 
L 138.682555 128.413677 
L 138.987224 126.340801 
L 139.291892 128.657545 
L 139.59656 128.047875 
L 139.901229 126.584669 
L 140.205897 126.584669 
L 140.510565 127.925941 
L 140.815233 132.92523 
L 141.119902 131.827825 
L 141.42457 126.889504 
L 141.729238 128.962379 
L 142.338575 125.18243 
L 142.643243 124.633727 
L 142.947912 126.950471 
L 143.25258 125.18243 
L 143.861916 127.621107 
L 144.166585 127.377239 
L 144.471253 126.889504 
L 144.775921 129.14528 
L 145.08059 127.743041 
L 145.385258 124.755661 
L 145.689926 116.098357 
L 145.994595 81.10334 
L 146.299263 80.981407 
L 146.603931 106.343649 
L 146.9086 106.282682 
L 147.213268 136.339378 
L 147.517936 152.922382 
L 147.822604 153.532051 
L 148.127273 153.471085 
L 148.431941 145.301516 
L 148.736609 144.691847 
L 149.041278 135.424874 
L 149.345946 142.25317 
L 149.650614 132.803296 
L 149.955283 137.802584 
L 150.259951 132.13266 
L 150.564619 136.09551 
L 150.869287 130.242685 
L 151.173956 130.059784 
L 151.478624 127.072404 
L 151.783292 127.682074 
L 152.087961 130.364619 
L 152.392629 127.986908 
L 152.697297 129.023346 
L 153.001966 128.474644 
L 153.306634 119.81734 
L 153.611302 126.035967 
L 153.915971 125.853066 
L 154.220639 128.413677 
L 154.525307 129.754949 
L 154.829975 129.328181 
L 155.134644 128.413677 
L 155.439312 128.230776 
L 156.048649 126.706603 
L 156.353317 125.487264 
L 156.657985 128.901412 
L 156.962654 141.765434 
L 157.267322 197.001472 
L 157.57199 185.905491 
L 157.876658 122.499885 
L 158.181327 139.753526 
L 158.485995 94.516065 
L 158.790663 98.478915 
L 159.095332 88.358405 
L 159.4 115.85449 
L 159.704668 108.355557 
L 160.009337 113.476779 
L 160.314005 111.647772 
L 160.618673 119.02477 
L 160.923342 122.19505 
L 161.22801 118.902836 
L 161.532678 120.487976 
L 161.837346 118.415101 
L 162.142015 122.19505 
L 162.446683 124.450827 
L 162.751351 124.938562 
L 163.05602 124.999529 
L 163.360688 126.157901 
L 163.970025 124.267926 
L 164.274693 126.462735 
L 164.579361 127.011438 
L 164.884029 127.316272 
L 165.188698 126.584669 
L 165.493366 128.657545 
L 165.798034 134.754237 
L 166.102703 129.450115 
L 166.407371 128.047875 
L 166.712039 127.621107 
L 167.016708 125.060496 
L 167.321376 126.950471 
L 167.626044 125.426297 
L 168.235381 126.706603 
L 168.540049 126.462735 
L 168.844717 126.706603 
L 169.149386 125.609198 
L 169.454054 127.011438 
L 169.758722 127.621107 
L 170.063391 127.56014 
L 170.368059 126.645636 
L 170.672727 127.621107 
L 170.977396 126.401768 
L 171.282064 124.633727 
L 171.586732 124.38986 
L 171.8914 121.158612 
L 172.196069 115.24482 
L 172.500737 99.454386 
L 173.110074 114.513217 
L 173.414742 66.837079 
L 173.71941 133.230064 
L 174.024079 93.845428 
L 174.328747 155.239125 
L 174.633415 94.272197 
L 174.938084 139.814493 
L 175.242752 155.909762 
L 175.54742 134.266502 
L 175.852088 134.937138 
L 176.156757 121.219579 
L 176.461425 139.204823 
L 176.766093 136.278411 
L 177.070762 117.927365 
L 177.37543 142.679938 
L 177.680098 125.609198 
L 177.984767 146.581822 
L 178.289435 127.072404 
L 178.594103 124.024058 
L 179.20344 141.216732 
L 179.508108 112.440342 
L 179.812776 132.742329 
L 180.117445 128.230776 
L 180.422113 140.85093 
L 180.726781 114.147416 
L 181.03145 124.57276 
L 181.336118 117.988332 
L 181.640786 131.827825 
L 181.945455 123.048587 
L 182.250123 132.193626 
L 182.554791 126.462735 
L 182.859459 127.316272 
L 183.164128 138.107419 
L 183.468796 110.367466 
L 183.773464 131.218156 
L 184.078133 125.609198 
L 184.382801 133.351998 
L 184.687469 126.462735 
L 184.992138 112.745176 
L 185.296806 129.328181 
L 185.601474 119.146704 
L 185.906143 137.253882 
L 186.210811 131.583957 
L 186.515479 119.878307 
L 186.820147 123.719223 
L 187.124816 141.155765 
L 187.429484 109.818764 
L 187.734152 135.363907 
L 188.038821 122.377951 
L 188.343489 153.105283 
L 188.648157 114.696118 
L 188.952826 131.827825 
L 189.257494 120.670877 
L 189.86683 144.691847 
L 190.171499 126.279834 
L 190.476167 125.914033 
L 190.780835 122.316984 
L 191.085504 141.6435 
L 191.390172 122.621819 
L 191.69484 123.170521 
L 191.999509 130.364619 
L 192.304177 132.437494 
L 192.913514 117.317696 
L 193.52285 133.9007 
L 193.827518 122.316984 
L 194.132187 127.682074 
L 194.436855 126.340801 
L 194.741523 129.389148 
L 195.046192 129.998817 
L 195.35086 99.210518 
L 195.655528 134.388436 
L 196.264865 119.085737 
L 196.569533 114.696118 
L 196.874201 121.463447 
L 197.17887 145.911185 
L 197.483538 106.587516 
L 197.788206 142.070269 
L 198.092875 122.19505 
L 198.397543 125.914033 
L 198.702211 110.062631 
L 199.00688 132.13266 
L 199.311548 133.656833 
L 200.225553 153.532051 
L 200.530221 149.020499 
L 200.834889 155.787828 
L 201.139558 149.447267 
L 201.444226 137.436782 
L 201.748894 132.010726 
L 202.358231 129.450115 
L 202.662899 129.754949 
L 202.967568 128.108842 
L 203.272236 128.047875 
L 203.576904 126.828537 
L 203.881572 127.438206 
L 204.186241 126.401768 
L 204.490909 126.76757 
L 204.795577 127.682074 
L 205.100246 127.56014 
L 205.404914 126.828537 
L 205.709582 126.889504 
L 206.014251 128.718512 
L 206.318919 127.377239 
L 206.623587 127.804008 
L 207.232924 127.743041 
L 207.537592 127.438206 
L 207.84226 126.828537 
L 208.146929 128.230776 
L 208.451597 128.291743 
L 208.756265 127.499173 
L 209.365602 126.950471 
L 209.67027 127.194338 
L 209.974939 127.072404 
L 210.279607 126.340801 
L 210.584275 127.986908 
L 210.888943 126.279834 
L 211.193612 127.682074 
L 211.49828 125.792099 
L 211.802948 127.316272 
L 212.107617 127.377239 
L 212.412285 127.194338 
L 212.716953 126.218867 
L 213.021622 125.792099 
L 213.32629 126.157901 
L 213.630958 123.963091 
L 213.935627 124.206959 
L 214.240295 118.354134 
L 214.544963 124.267926 
L 214.849631 106.770417 
L 215.1543 124.633727 
L 215.458968 120.60991 
L 215.763636 122.682786 
L 216.068305 107.989756 
L 216.372973 125.18243 
L 216.677641 71.653466 
L 216.98231 108.538458 
L 217.286978 105.368178 
L 217.591646 167.798313 
L 217.896314 80.31077 
L 218.200983 144.326045 
L 218.505651 106.892351 
L 218.810319 158.775207 
L 219.114988 130.486552 
L 219.419656 143.228641 
L 219.724324 133.961667 
L 220.028993 146.520855 
L 220.333661 144.996681 
L 220.638329 129.450115 
L 220.942998 139.143856 
L 221.247666 144.752814 
L 221.552334 133.961667 
L 221.857002 132.31556 
L 222.161671 129.693982 
L 222.466339 139.387724 
L 223.075676 129.876883 
L 223.380344 132.071693 
L 223.685012 131.401056 
L 223.989681 132.803296 
L 224.294349 131.035255 
L 224.599017 126.035967 
L 224.903686 133.351998 
L 225.208354 129.815916 
L 225.513022 131.888792 
L 225.81769 129.572049 
L 226.122359 129.206247 
L 226.427027 130.242685 
L 226.731695 129.206247 
L 227.036364 127.499173 
L 227.341032 127.133371 
L 227.950369 130.059784 
L 228.255037 125.914033 
L 228.559705 129.023346 
L 229.169042 127.072404 
L 229.47371 118.658968 
L 229.778378 125.304364 
L 230.083047 125.36533 
L 230.387715 126.950471 
L 230.692383 129.754949 
L 230.997052 128.291743 
L 231.30172 129.93785 
L 231.606388 128.169809 
L 231.911057 127.56014 
L 232.215725 127.438206 
L 232.520393 128.413677 
L 232.825061 126.706603 
L 233.12973 126.218867 
L 233.739066 128.901412 
L 234.348403 148.227929 
L 234.653071 199.196281 
L 235.262408 121.280546 
L 235.567076 172.736634 
L 235.871744 97.564411 
L 236.176413 94.577032 
L 236.481081 104.697542 
L 236.785749 123.719223 
L 237.090418 103.844005 
L 237.395086 102.7466 
L 237.699754 116.098357 
L 238.004423 118.780902 
L 238.309091 115.183853 
L 238.613759 118.719935 
L 238.918428 118.293167 
L 239.223096 122.073116 
L 239.527764 120.975712 
L 239.832432 121.219579 
L 240.137101 118.598001 
L 240.441769 126.279834 
L 240.746437 120.061208 
L 241.051106 124.085025 
L 241.355774 125.060496 
L 241.660442 127.682074 
L 241.965111 126.096934 
L 242.269779 123.292455 
L 242.574447 124.085025 
L 242.879115 126.035967 
L 243.488452 124.511793 
L 244.097789 125.792099 
L 244.402457 133.230064 
L 244.707125 128.230776 
L 245.011794 126.401768 
L 245.62113 125.36533 
L 245.925799 124.206959 
L 246.230467 124.145992 
L 246.535135 126.584669 
L 246.839803 124.999529 
L 247.144472 126.523702 
L 247.44914 126.218867 
L 247.753808 127.986908 
L 248.058477 127.011438 
L 248.363145 127.438206 
L 248.667813 125.670165 
L 248.972482 118.963803 
L 249.27715 73.604408 
L 249.581818 86.102629 
L 249.886486 88.236471 
L 250.191155 100.734691 
L 250.495823 144.447979 
L 250.800491 159.628744 
L 251.10516 142.497037 
L 251.409828 149.325333 
L 251.714496 145.301516 
L 252.019165 155.056225 
L 252.323833 135.30294 
L 252.628501 139.448691 
L 252.93317 136.09551 
L 253.237838 137.436782 
L 253.542506 133.961667 
L 253.847174 131.827825 
L 254.151843 135.851642 
L 254.456511 129.633015 
L 254.761179 131.888792 
L 255.065848 128.901412 
L 255.370516 130.425586 
L 255.675184 125.853066 
L 255.979853 128.108842 
L 256.284521 127.56014 
L 256.589189 126.035967 
L 256.893857 127.438206 
L 257.198526 125.548231 
L 257.503194 118.293167 
L 257.807862 126.584669 
L 258.112531 124.999529 
L 258.417199 128.047875 
L 258.721867 128.718512 
L 259.026536 128.901412 
L 259.331204 127.255305 
L 259.635872 127.499173 
L 259.940541 126.950471 
L 260.245209 126.889504 
L 260.549877 125.975 
L 261.159214 126.035967 
L 261.463882 139.387724 
L 261.76855 194.379894 
L 262.073219 154.019787 
L 262.377887 184.442284 
L 262.682555 103.295302 
L 262.987224 96.832808 
L 263.291892 94.333164 
L 263.59656 97.442477 
L 264.205897 110.733268 
L 264.510565 109.513929 
L 264.815233 115.671589 
L 265.119902 119.512505 
L 265.42457 117.195762 
L 265.729238 121.646348 
L 266.033907 120.731844 
L 266.338575 118.537034 
L 266.643243 123.963091 
L 267.25258 124.267926 
L 267.557248 123.841157 
L 267.861916 122.98762 
L 268.166585 124.024058 
L 268.471253 126.889504 
L 268.775921 125.060496 
L 269.08059 136.09551 
L 269.385258 125.975 
L 269.689926 125.18243 
L 269.994595 122.98762 
L 270.299263 123.048587 
L 270.9086 124.085025 
L 271.213268 124.206959 
L 271.517936 125.426297 
L 271.822604 127.377239 
L 272.127273 126.340801 
L 272.431941 120.427009 
L 272.736609 49.217637 
L 273.041278 89.699677 
L 273.345946 100.856625 
L 273.650614 141.826401 
L 273.955283 129.693982 
L 274.259951 150.727573 
L 274.564619 163.530628 
L 274.869287 141.6435 
L 275.173956 142.131236 
L 275.478624 140.911897 
L 276.392629 130.791387 
L 276.697297 133.656833 
L 277.001966 135.424874 
L 277.306634 130.852354 
L 277.611302 128.596578 
L 277.915971 129.633015 
L 278.220639 127.316272 
L 278.525307 127.986908 
L 278.829975 125.914033 
L 279.134644 126.645636 
L 279.439312 126.706603 
L 280.048649 125.914033 
L 280.353317 126.218867 
L 280.657985 125.18243 
L 280.962654 118.049299 
L 281.267322 126.157901 
L 281.57199 123.170521 
L 281.876658 127.011438 
L 282.181327 127.133371 
L 282.485995 127.804008 
L 283.095332 126.889504 
L 283.4 126.76757 
L 283.704668 126.035967 
L 284.009337 126.096934 
L 284.314005 125.853066 
L 284.618673 124.877595 
L 284.923342 125.060496 
L 285.22801 127.377239 
L 285.532678 131.218156 
L 286.142015 178.040757 
L 286.446683 121.219579 
L 286.751351 208.402287 
L 287.05602 111.952606 
L 287.360688 135.30294 
L 287.665356 109.148127 
L 287.970025 111.099069 
L 288.274693 109.69683 
L 288.579361 97.198609 
L 288.884029 112.07454 
L 289.188698 115.427721 
L 289.493366 107.989756 
L 289.798034 121.097645 
L 290.102703 115.06192 
L 290.407371 120.548943 
L 290.712039 119.634439 
L 291.016708 118.2322 
L 291.321376 119.634439 
L 291.626044 119.268638 
L 291.930713 122.438918 
L 292.235381 121.097645 
L 292.540049 124.633727 
L 292.844717 123.353422 
L 293.149386 121.40248 
L 293.454054 125.609198 
L 293.758722 122.682786 
L 294.063391 122.865686 
L 294.368059 120.914745 
L 294.672727 125.975 
L 294.977396 122.682786 
L 295.282064 125.609198 
L 295.586732 122.804719 
L 296.196069 127.499173 
L 296.500737 125.548231 
L 296.805405 124.816628 
L 297.110074 126.889504 
L 297.414742 125.36533 
L 297.71941 127.133371 
L 298.024079 123.841157 
L 298.328747 125.914033 
L 298.938084 124.877595 
L 299.242752 124.38986 
L 299.54742 124.38986 
L 299.852088 125.609198 
L 300.156757 126.035967 
L 300.461425 125.487264 
L 300.766093 125.914033 
L 301.070762 125.36533 
L 301.37543 128.047875 
L 301.680098 125.18243 
L 301.984767 126.76757 
L 302.289435 125.060496 
L 302.594103 126.706603 
L 302.898771 124.999529 
L 303.20344 125.792099 
L 303.508108 125.914033 
L 303.812776 126.950471 
L 304.117445 126.218867 
L 304.422113 126.401768 
L 304.726781 125.670165 
L 305.03145 126.401768 
L 305.336118 126.096934 
L 305.640786 128.108842 
L 305.945455 125.487264 
L 306.250123 127.194338 
L 306.554791 126.889504 
L 306.859459 127.194338 
L 307.164128 126.889504 
L 307.468796 125.670165 
L 307.773464 125.670165 
L 308.078133 126.706603 
L 308.382801 126.340801 
L 308.687469 127.682074 
L 308.992138 124.633727 
L 309.296806 129.328181 
L 309.906143 124.999529 
L 310.210811 126.340801 
L 310.515479 128.291743 
L 310.820147 125.18243 
L 311.124816 127.864975 
L 311.429484 126.889504 
L 311.734152 127.255305 
L 312.343489 128.474644 
L 312.648157 125.548231 
L 312.952826 128.901412 
L 313.257494 127.804008 
L 313.562162 128.535611 
L 313.86683 126.889504 
L 314.171499 127.377239 
L 314.476167 127.438206 
L 315.085504 125.18243 
L 315.390172 128.596578 
L 315.69484 124.328893 
L 315.999509 127.072404 
L 316.304177 125.853066 
L 316.608845 128.35271 
L 316.913514 126.035967 
L 317.218182 126.157901 
L 317.52285 124.938562 
L 317.827518 124.816628 
L 318.132187 127.56014 
L 318.436855 127.438206 
L 318.741523 124.816628 
L 319.046192 128.35271 
L 319.35086 123.78019 
L 319.655528 124.633727 
L 319.960197 123.841157 
L 320.264865 127.316272 
L 320.874201 124.694694 
L 321.17887 122.438918 
L 321.483538 129.14528 
L 321.788206 124.938562 
L 322.092875 125.121463 
L 322.397543 125.487264 
L 322.702211 126.889504 
L 323.00688 124.450827 
L 323.311548 125.243397 
L 323.616216 123.658256 
L 323.920885 127.072404 
L 324.225553 125.121463 
L 324.530221 125.609198 
L 324.834889 126.889504 
L 325.139558 125.731132 
L 325.444226 126.035967 
L 325.748894 126.096934 
L 326.053563 127.377239 
L 326.358231 125.36533 
L 326.662899 126.035967 
L 326.967568 127.682074 
L 327.272236 124.755661 
L 327.576904 125.18243 
L 327.881572 124.57276 
L 328.186241 127.377239 
L 328.490909 125.060496 
L 328.795577 125.121463 
L 329.100246 124.755661 
L 329.404914 125.609198 
L 329.709582 125.121463 
L 330.014251 125.670165 
L 330.318919 123.048587 
L 330.623587 125.975 
L 331.232924 125.670165 
L 331.537592 123.841157 
L 331.84226 125.36533 
L 332.146929 124.511793 
L 332.451597 125.18243 
L 332.756265 125.121463 
L 333.060934 126.401768 
L 333.365602 125.060496 
L 333.974939 128.535611 
L 334.279607 129.693982 
L 334.584275 129.633015 
L 335.193612 125.914033 
L 335.49828 125.121463 
L 335.802948 125.975 
L 336.107617 125.36533 
L 336.412285 123.902124 
L 337.021622 126.889504 
L 337.32629 124.38986 
L 337.630958 125.792099 
L 338.240295 123.536323 
L 338.544963 123.963091 
L 338.849631 122.804719 
L 339.1543 123.841157 
L 339.458968 123.231488 
L 339.763636 123.719223 
L 340.068305 123.536323 
L 340.372973 124.024058 
L 340.677641 124.085025 
L 341.286978 126.096934 
L 341.591646 125.121463 
L 341.896314 125.914033 
L 342.505651 125.548231 
L 342.810319 125.060496 
L 343.114988 125.36533 
L 343.419656 126.462735 
L 343.724324 126.76757 
L 344.333661 126.401768 
L 344.942998 123.658256 
L 345.247666 111.038102 
L 345.552334 92.62609 
L 345.857002 51.717281 
L 346.161671 119.451538 
L 346.466339 72.872805 
L 346.771007 143.04574 
L 347.075676 125.792099 
L 347.380344 142.801872 
L 347.685012 134.083601 
L 347.989681 154.507522 
L 348.294349 122.377951 
L 348.599017 144.813781 
L 348.903686 132.498461 
L 349.208354 149.081466 
L 349.513022 125.670165 
L 349.81769 137.131948 
L 350.122359 133.656833 
L 350.427027 135.607774 
L 350.731695 124.328893 
L 351.036364 132.376527 
L 351.341032 132.376527 
L 351.6457 128.962379 
L 351.950369 127.682074 
L 352.255037 129.206247 
L 352.559705 119.512505 
L 352.864373 139.387724 
L 353.169042 121.585381 
L 353.47371 128.840445 
L 353.778378 126.096934 
L 354.083047 131.766858 
L 354.387715 122.438918 
L 354.692383 127.743041 
L 354.997052 130.974288 
L 355.30172 127.377239 
L 355.606388 125.121463 
L 355.911057 129.450115 
L 356.215725 125.121463 
L 356.520393 129.633015 
L 356.825061 127.255305 
L 357.12973 125.853066 
L 357.434398 127.925941 
L 357.739066 128.474644 
L 358.043735 124.999529 
L 358.653071 127.255305 
L 358.95774 125.731132 
L 359.262408 124.816628 
L 359.567076 125.243397 
L 359.871744 126.279834 
L 360.176413 129.14528 
L 360.481081 122.012149 
L 360.785749 130.181718 
L 361.090418 124.450827 
L 361.395086 122.499885 
L 361.699754 124.999529 
L 362.004423 125.426297 
L 362.309091 124.57276 
L 362.613759 128.840445 
L 362.918428 123.719223 
L 363.223096 124.877595 
L 363.527764 123.841157 
L 363.832432 127.011438 
L 364.137101 124.085025 
L 364.746437 124.816628 
L 365.051106 124.38986 
L 365.355774 125.243397 
L 365.660442 121.768282 
L 365.965111 124.694694 
L 366.269779 122.438918 
L 366.574447 121.036679 
L 366.879115 122.926653 
L 367.183784 120.183142 
L 367.488452 122.98762 
L 367.79312 124.57276 
L 368.097789 117.256729 
L 368.402457 120.548943 
L 368.707125 122.19505 
L 369.316462 114.086449 
L 369.62113 117.134795 
L 369.925799 117.317696 
L 370.230467 109.757797 
L 370.535135 117.256729 
L 370.839803 97.808279 
L 371.144472 104.026905 
L 371.44914 106.465583 
L 371.753808 118.658968 
L 372.058477 87.931636 
L 372.363145 118.537034 
L 372.667813 188.709969 
L 372.972482 139.204823 
L 373.27715 130.303652 
L 373.581818 204.073635 
L 373.581818 204.073635 
" style="fill:none;stroke:#ffa500;stroke-linecap:square;stroke-width:0.3;"/>
   </g>
   <g id="patch_3">
    <path d="M 54 252 
L 54 34.56 
" style="fill:none;stroke:#000000;stroke-linecap:square;stroke-linejoin:miter;stroke-width:0.8;"/>
   </g>
   <g id="patch_4">
    <path d="M 388.8 252 
L 388.8 34.56 
" style="fill:none;stroke:#000000;stroke-linecap:square;stroke-linejoin:miter;stroke-width:0.8;"/>
   </g>
   <g id="patch_5">
    <path d="M 54 252 
L 388.8 252 
" style="fill:none;stroke:#000000;stroke-linecap:square;stroke-linejoin:miter;stroke-width:0.8;"/>
   </g>
   <g id="patch_6">
    <path d="M 54 34.56 
L 388.8 34.56 
" style="fill:none;stroke:#000000;stroke-linecap:square;stroke-linejoin:miter;stroke-width:0.8;"/>
   </g>
   <g id="text_17">
    <!-- SPGD Detectors TP1 Testing S5 Lineup Post Map  -->
    <defs>
     <path d="M 53.515625 70.515625 
L 53.515625 60.890625 
Q 47.90625 63.578125 42.921875 64.890625 
Q 37.9375 66.21875 33.296875 66.21875 
Q 25.25 66.21875 20.875 63.09375 
Q 16.5 59.96875 16.5 54.203125 
Q 16.5 49.359375 19.40625 46.890625 
Q 22.3125 44.4375 30.421875 42.921875 
L 36.375 41.703125 
Q 47.40625 39.59375 52.65625 34.296875 
Q 57.90625 29 57.90625 20.125 
Q 57.90625 9.515625 50.796875 4.046875 
Q 43.703125 -1.421875 29.984375 -1.421875 
Q 24.8125 -1.421875 18.96875 -0.25 
Q 13.140625 0.921875 6.890625 3.21875 
L 6.890625 13.375 
Q 12.890625 10.015625 18.65625 8.296875 
Q 24.421875 6.59375 29.984375 6.59375 
Q 38.421875 6.59375 43.015625 9.90625 
Q 47.609375 13.234375 47.609375 19.390625 
Q 47.609375 24.75 44.3125 27.78125 
Q 41.015625 30.8125 33.5 32.328125 
L 27.484375 33.5 
Q 16.453125 35.6875 11.515625 40.375 
Q 6.59375 45.0625 6.59375 53.421875 
Q 6.59375 63.09375 13.40625 68.65625 
Q 20.21875 74.21875 32.171875 74.21875 
Q 37.3125 74.21875 42.625 73.28125 
Q 47.953125 72.359375 53.515625 70.515625 
" id="DejaVuSans-53"/>
     <path d="M 19.671875 64.796875 
L 19.671875 37.40625 
L 32.078125 37.40625 
Q 38.96875 37.40625 42.71875 40.96875 
Q 46.484375 44.53125 46.484375 51.125 
Q 46.484375 57.671875 42.71875 61.234375 
Q 38.96875 64.796875 32.078125 64.796875 
z
M 9.8125 72.90625 
L 32.078125 72.90625 
Q 44.34375 72.90625 50.609375 67.359375 
Q 56.890625 61.8125 56.890625 51.125 
Q 56.890625 40.328125 50.609375 34.8125 
Q 44.34375 29.296875 32.078125 29.296875 
L 19.671875 29.296875 
L 19.671875 0 
L 9.8125 0 
z
" id="DejaVuSans-50"/>
     <path d="M 59.515625 10.40625 
L 59.515625 29.984375 
L 43.40625 29.984375 
L 43.40625 38.09375 
L 69.28125 38.09375 
L 69.28125 6.78125 
Q 63.578125 2.734375 56.6875 0.65625 
Q 49.8125 -1.421875 42 -1.421875 
Q 24.90625 -1.421875 15.25 8.5625 
Q 5.609375 18.5625 5.609375 36.375 
Q 5.609375 54.25 15.25 64.234375 
Q 24.90625 74.21875 42 74.21875 
Q 49.125 74.21875 55.546875 72.453125 
Q 61.96875 70.703125 67.390625 67.28125 
L 67.390625 56.78125 
Q 61.921875 61.421875 55.765625 63.765625 
Q 49.609375 66.109375 42.828125 66.109375 
Q 29.4375 66.109375 22.71875 58.640625 
Q 16.015625 51.171875 16.015625 36.375 
Q 16.015625 21.625 22.71875 14.15625 
Q 29.4375 6.6875 42.828125 6.6875 
Q 48.046875 6.6875 52.140625 7.59375 
Q 56.25 8.5 59.515625 10.40625 
" id="DejaVuSans-47"/>
     <path d="M 19.671875 64.796875 
L 19.671875 8.109375 
L 31.59375 8.109375 
Q 46.6875 8.109375 53.6875 14.9375 
Q 60.6875 21.78125 60.6875 36.53125 
Q 60.6875 51.171875 53.6875 57.984375 
Q 46.6875 64.796875 31.59375 64.796875 
z
M 9.8125 72.90625 
L 30.078125 72.90625 
Q 51.265625 72.90625 61.171875 64.09375 
Q 71.09375 55.28125 71.09375 36.53125 
Q 71.09375 17.671875 61.125 8.828125 
Q 51.171875 0 30.078125 0 
L 9.8125 0 
z
" id="DejaVuSans-44"/>
     <path d="M 41.109375 46.296875 
Q 39.59375 47.171875 37.8125 47.578125 
Q 36.03125 48 33.890625 48 
Q 26.265625 48 22.1875 43.046875 
Q 18.109375 38.09375 18.109375 28.8125 
L 18.109375 0 
L 9.078125 0 
L 9.078125 54.6875 
L 18.109375 54.6875 
L 18.109375 46.1875 
Q 20.953125 51.171875 25.484375 53.578125 
Q 30.03125 56 36.53125 56 
Q 37.453125 56 38.578125 55.875 
Q 39.703125 55.765625 41.0625 55.515625 
z
" id="DejaVuSans-72"/>
     <path d="M -0.296875 72.90625 
L 61.375 72.90625 
L 61.375 64.59375 
L 35.5 64.59375 
L 35.5 0 
L 25.59375 0 
L 25.59375 64.59375 
L -0.296875 64.59375 
z
" id="DejaVuSans-54"/>
     <path d="M 45.40625 27.984375 
Q 45.40625 37.75 41.375 43.109375 
Q 37.359375 48.484375 30.078125 48.484375 
Q 22.859375 48.484375 18.828125 43.109375 
Q 14.796875 37.75 14.796875 27.984375 
Q 14.796875 18.265625 18.828125 12.890625 
Q 22.859375 7.515625 30.078125 7.515625 
Q 37.359375 7.515625 41.375 12.890625 
Q 45.40625 18.265625 45.40625 27.984375 
M 54.390625 6.78125 
Q 54.390625 -7.171875 48.1875 -13.984375 
Q 42 -20.796875 29.203125 -20.796875 
Q 24.46875 -20.796875 20.265625 -20.09375 
Q 16.0625 -19.390625 12.109375 -17.921875 
L 12.109375 -9.1875 
Q 16.0625 -11.328125 19.921875 -12.34375 
Q 23.78125 -13.375 27.78125 -13.375 
Q 36.625 -13.375 41.015625 -8.765625 
Q 45.40625 -4.15625 45.40625 5.171875 
L 45.40625 9.625 
Q 42.625 4.78125 38.28125 2.390625 
Q 33.9375 0 27.875 0 
Q 17.828125 0 11.671875 7.65625 
Q 5.515625 15.328125 5.515625 27.984375 
Q 5.515625 40.671875 11.671875 48.328125 
Q 17.828125 56 27.875 56 
Q 33.9375 56 38.28125 53.609375 
Q 42.625 51.21875 45.40625 46.390625 
L 45.40625 54.6875 
L 54.390625 54.6875 
z
" id="DejaVuSans-67"/>
     <path d="M 9.8125 72.90625 
L 19.671875 72.90625 
L 19.671875 8.296875 
L 55.171875 8.296875 
L 55.171875 0 
L 9.8125 0 
z
" id="DejaVuSans-4c"/>
     <path d="M 8.5 21.578125 
L 8.5 54.6875 
L 17.484375 54.6875 
L 17.484375 21.921875 
Q 17.484375 14.15625 20.5 10.265625 
Q 23.53125 6.390625 29.59375 6.390625 
Q 36.859375 6.390625 41.078125 11.03125 
Q 45.3125 15.671875 45.3125 23.6875 
L 45.3125 54.6875 
L 54.296875 54.6875 
L 54.296875 0 
L 45.3125 0 
L 45.3125 8.40625 
Q 42.046875 3.421875 37.71875 1 
Q 33.40625 -1.421875 27.6875 -1.421875 
Q 18.265625 -1.421875 13.375 4.4375 
Q 8.5 10.296875 8.5 21.578125 
M 31.109375 56 
z
" id="DejaVuSans-75"/>
     <path d="M 18.109375 8.203125 
L 18.109375 -20.796875 
L 9.078125 -20.796875 
L 9.078125 54.6875 
L 18.109375 54.6875 
L 18.109375 46.390625 
Q 20.953125 51.265625 25.265625 53.625 
Q 29.59375 56 35.59375 56 
Q 45.5625 56 51.78125 48.09375 
Q 58.015625 40.1875 58.015625 27.296875 
Q 58.015625 14.40625 51.78125 6.484375 
Q 45.5625 -1.421875 35.59375 -1.421875 
Q 29.59375 -1.421875 25.265625 0.953125 
Q 20.953125 3.328125 18.109375 8.203125 
M 48.6875 27.296875 
Q 48.6875 37.203125 44.609375 42.84375 
Q 40.53125 48.484375 33.40625 48.484375 
Q 26.265625 48.484375 22.1875 42.84375 
Q 18.109375 37.203125 18.109375 27.296875 
Q 18.109375 17.390625 22.1875 11.75 
Q 26.265625 6.109375 33.40625 6.109375 
Q 40.53125 6.109375 44.609375 11.75 
Q 48.6875 17.390625 48.6875 27.296875 
" id="DejaVuSans-70"/>
     <path d="M 9.8125 72.90625 
L 24.515625 72.90625 
L 43.109375 23.296875 
L 61.8125 72.90625 
L 76.515625 72.90625 
L 76.515625 0 
L 66.890625 0 
L 66.890625 64.015625 
L 48.09375 14.015625 
L 38.1875 14.015625 
L 19.390625 64.015625 
L 19.390625 0 
L 9.8125 0 
z
" id="DejaVuSans-4d"/>
    </defs>
    <g transform="translate(73.812188 28.56)scale(0.12 -0.12)">
     <use xlink:href="#DejaVuSans-53"/>
     <use x="63.476562" xlink:href="#DejaVuSans-50"/>
     <use x="123.779297" xlink:href="#DejaVuSans-47"/>
     <use x="201.269531" xlink:href="#DejaVuSans-44"/>
     <use x="278.271484" xlink:href="#DejaVuSans-20"/>
     <use x="310.058594" xlink:href="#DejaVuSans-44"/>
     <use x="387.060547" xlink:href="#DejaVuSans-65"/>
     <use x="448.583984" xlink:href="#DejaVuSans-74"/>
     <use x="487.792969" xlink:href="#DejaVuSans-65"/>
     <use x="549.316406" xlink:href="#DejaVuSans-63"/>
     <use x="604.296875" xlink:href="#DejaVuSans-74"/>
     <use x="643.505859" xlink:href="#DejaVuSans-6f"/>
     <use x="704.6875" xlink:href="#DejaVuSans-72"/>
     <use x="745.800781" xlink:href="#DejaVuSans-73"/>
     <use x="797.900391" xlink:href="#DejaVuSans-20"/>
     <use x="829.6875" xlink:href="#DejaVuSans-54"/>
     <use x="890.771484" xlink:href="#DejaVuSans-50"/>
     <use x="951.074219" xlink:href="#DejaVuSans-31"/>
     <use x="1014.697266" xlink:href="#DejaVuSans-20"/>
     <use x="1046.484375" xlink:href="#DejaVuSans-54"/>
     <use x="1107.302734" xlink:href="#DejaVuSans-65"/>
     <use x="1168.826172" xlink:href="#DejaVuSans-73"/>
     <use x="1220.925781" xlink:href="#DejaVuSans-74"/>
     <use x="1260.134766" xlink:href="#DejaVuSans-69"/>
     <use x="1287.917969" xlink:href="#DejaVuSans-6e"/>
     <use x="1351.296875" xlink:href="#DejaVuSans-67"/>
     <use x="1414.773438" xlink:href="#DejaVuSans-20"/>
     <use x="1446.560547" xlink:href="#DejaVuSans-53"/>
     <use x="1510.037109" xlink:href="#DejaVuSans-35"/>
     <use x="1573.660156" xlink:href="#DejaVuSans-20"/>
     <use x="1605.447266" xlink:href="#DejaVuSans-4c"/>
     <use x="1661.160156" xlink:href="#DejaVuSans-69"/>
     <use x="1688.943359" xlink:href="#DejaVuSans-6e"/>
     <use x="1752.322266" xlink:href="#DejaVuSans-65"/>
     <use x="1813.845703" xlink:href="#DejaVuSans-75"/>
     <use x="1877.224609" xlink:href="#DejaVuSans-70"/>
     <use x="1940.701172" xlink:href="#DejaVuSans-20"/>
     <use x="1972.488281" xlink:href="#DejaVuSans-50"/>
     <use x="2032.744141" xlink:href="#DejaVuSans-6f"/>
     <use x="2093.925781" xlink:href="#DejaVuSans-73"/>
     <use x="2146.025391" xlink:href="#DejaVuSans-74"/>
     <use x="2185.234375" xlink:href="#DejaVuSans-20"/>
     <use x="2217.021484" xlink:href="#DejaVuSans-4d"/>
     <use x="2303.300781" xlink:href="#DejaVuSans-61"/>
     <use x="2364.580078" xlink:href="#DejaVuSans-70"/>
     <use x="2428.056641" xlink:href="#DejaVuSans-20"/>
    </g>
   </g>
  </g>
 </g>
 <defs>
  <clipPath id="p8b6d7c71d9">
   <rect height="217.44" width="334.8" x="54" y="34.56"/>
  </clipPath>
 </defs>
</svg>
