<?xml version="1.0" encoding="utf-8" standalone="no"?>
<!DOCTYPE svg PUBLIC "-//W3C//DTD SVG 1.1//EN"
  "http://www.w3.org/Graphics/SVG/1.1/DTD/svg11.dtd">
<!-- Created with matplotlib (http://matplotlib.org/) -->
<svg height="288pt" version="1.1" viewBox="0 0 432 288" width="432pt" xmlns="http://www.w3.org/2000/svg" xmlns:xlink="http://www.w3.org/1999/xlink">
 <defs>
  <style type="text/css">
*{stroke-linecap:butt;stroke-linejoin:round;}
  </style>
 </defs>
 <g id="figure_1">
  <g id="patch_1">
   <path d="M 0 288 
L 432 288 
L 432 0 
L 0 0 
z
" style="fill:#ffffff;"/>
  </g>
  <g id="axes_1">
   <g id="patch_2">
    <path d="M 54 252 
L 388.8 252 
L 388.8 34.56 
L 54 34.56 
z
" style="fill:#ffffff;"/>
   </g>
   <g id="matplotlib.axis_1">
    <g id="xtick_1">
     <g id="line2d_1">
      <path clip-path="url(#pa6a926988c)" d="M 69.218182 252 
L 69.218182 34.56 
" style="fill:none;stroke:#b0b0b0;stroke-linecap:square;stroke-width:0.8;"/>
     </g>
     <g id="line2d_2">
      <defs>
       <path d="M 0 0 
L 0 3.5 
" id="m369dac57fc" style="stroke:#000000;stroke-width:0.8;"/>
      </defs>
      <g>
       <use style="stroke:#000000;stroke-width:0.8;" x="69.218182" xlink:href="#m369dac57fc" y="252"/>
      </g>
     </g>
     <g id="text_1">
      <!-- 0 -->
      <defs>
       <path d="M 31.78125 66.40625 
Q 24.171875 66.40625 20.328125 58.90625 
Q 16.5 51.421875 16.5 36.375 
Q 16.5 21.390625 20.328125 13.890625 
Q 24.171875 6.390625 31.78125 6.390625 
Q 39.453125 6.390625 43.28125 13.890625 
Q 47.125 21.390625 47.125 36.375 
Q 47.125 51.421875 43.28125 58.90625 
Q 39.453125 66.40625 31.78125 66.40625 
M 31.78125 74.21875 
Q 44.046875 74.21875 50.515625 64.515625 
Q 56.984375 54.828125 56.984375 36.375 
Q 56.984375 17.96875 50.515625 8.265625 
Q 44.046875 -1.421875 31.78125 -1.421875 
Q 19.53125 -1.421875 13.0625 8.265625 
Q 6.59375 17.96875 6.59375 36.375 
Q 6.59375 54.828125 13.0625 64.515625 
Q 19.53125 74.21875 31.78125 74.21875 
" id="DejaVuSans-30"/>
      </defs>
      <g transform="translate(66.036932 266.598437)scale(0.1 -0.1)">
       <use xlink:href="#DejaVuSans-30"/>
      </g>
     </g>
    </g>
    <g id="xtick_2">
     <g id="line2d_3">
      <path clip-path="url(#pa6a926988c)" d="M 130.151843 252 
L 130.151843 34.56 
" style="fill:none;stroke:#b0b0b0;stroke-linecap:square;stroke-width:0.8;"/>
     </g>
     <g id="line2d_4">
      <g>
       <use style="stroke:#000000;stroke-width:0.8;" x="130.151843" xlink:href="#m369dac57fc" y="252"/>
      </g>
     </g>
     <g id="text_2">
      <!-- 200 -->
      <defs>
       <path d="M 19.1875 8.296875 
L 53.609375 8.296875 
L 53.609375 0 
L 7.328125 0 
L 7.328125 8.296875 
Q 12.9375 14.109375 22.625 23.890625 
Q 32.328125 33.6875 34.8125 36.53125 
Q 39.546875 41.84375 41.421875 45.53125 
Q 43.3125 49.21875 43.3125 52.78125 
Q 43.3125 58.59375 39.234375 62.25 
Q 35.15625 65.921875 28.609375 65.921875 
Q 23.96875 65.921875 18.8125 64.3125 
Q 13.671875 62.703125 7.8125 59.421875 
L 7.8125 69.390625 
Q 13.765625 71.78125 18.9375 73 
Q 24.125 74.21875 28.421875 74.21875 
Q 39.75 74.21875 46.484375 68.546875 
Q 53.21875 62.890625 53.21875 53.421875 
Q 53.21875 48.921875 51.53125 44.890625 
Q 49.859375 40.875 45.40625 35.40625 
Q 44.1875 33.984375 37.640625 27.21875 
Q 31.109375 20.453125 19.1875 8.296875 
" id="DejaVuSans-32"/>
      </defs>
      <g transform="translate(120.608093 266.598437)scale(0.1 -0.1)">
       <use xlink:href="#DejaVuSans-32"/>
       <use x="63.623047" xlink:href="#DejaVuSans-30"/>
       <use x="127.246094" xlink:href="#DejaVuSans-30"/>
      </g>
     </g>
    </g>
    <g id="xtick_3">
     <g id="line2d_5">
      <path clip-path="url(#pa6a926988c)" d="M 191.085504 252 
L 191.085504 34.56 
" style="fill:none;stroke:#b0b0b0;stroke-linecap:square;stroke-width:0.8;"/>
     </g>
     <g id="line2d_6">
      <g>
       <use style="stroke:#000000;stroke-width:0.8;" x="191.085504" xlink:href="#m369dac57fc" y="252"/>
      </g>
     </g>
     <g id="text_3">
      <!-- 400 -->
      <defs>
       <path d="M 37.796875 64.3125 
L 12.890625 25.390625 
L 37.796875 25.390625 
z
M 35.203125 72.90625 
L 47.609375 72.90625 
L 47.609375 25.390625 
L 58.015625 25.390625 
L 58.015625 17.1875 
L 47.609375 17.1875 
L 47.609375 0 
L 37.796875 0 
L 37.796875 17.1875 
L 4.890625 17.1875 
L 4.890625 26.703125 
z
" id="DejaVuSans-34"/>
      </defs>
      <g transform="translate(181.541754 266.598437)scale(0.1 -0.1)">
       <use xlink:href="#DejaVuSans-34"/>
       <use x="63.623047" xlink:href="#DejaVuSans-30"/>
       <use x="127.246094" xlink:href="#DejaVuSans-30"/>
      </g>
     </g>
    </g>
    <g id="xtick_4">
     <g id="line2d_7">
      <path clip-path="url(#pa6a926988c)" d="M 252.019165 252 
L 252.019165 34.56 
" style="fill:none;stroke:#b0b0b0;stroke-linecap:square;stroke-width:0.8;"/>
     </g>
     <g id="line2d_8">
      <g>
       <use style="stroke:#000000;stroke-width:0.8;" x="252.019165" xlink:href="#m369dac57fc" y="252"/>
      </g>
     </g>
     <g id="text_4">
      <!-- 600 -->
      <defs>
       <path d="M 33.015625 40.375 
Q 26.375 40.375 22.484375 35.828125 
Q 18.609375 31.296875 18.609375 23.390625 
Q 18.609375 15.53125 22.484375 10.953125 
Q 26.375 6.390625 33.015625 6.390625 
Q 39.65625 6.390625 43.53125 10.953125 
Q 47.40625 15.53125 47.40625 23.390625 
Q 47.40625 31.296875 43.53125 35.828125 
Q 39.65625 40.375 33.015625 40.375 
M 52.59375 71.296875 
L 52.59375 62.3125 
Q 48.875 64.0625 45.09375 64.984375 
Q 41.3125 65.921875 37.59375 65.921875 
Q 27.828125 65.921875 22.671875 59.328125 
Q 17.53125 52.734375 16.796875 39.40625 
Q 19.671875 43.65625 24.015625 45.921875 
Q 28.375 48.1875 33.59375 48.1875 
Q 44.578125 48.1875 50.953125 41.515625 
Q 57.328125 34.859375 57.328125 23.390625 
Q 57.328125 12.15625 50.6875 5.359375 
Q 44.046875 -1.421875 33.015625 -1.421875 
Q 20.359375 -1.421875 13.671875 8.265625 
Q 6.984375 17.96875 6.984375 36.375 
Q 6.984375 53.65625 15.1875 63.9375 
Q 23.390625 74.21875 37.203125 74.21875 
Q 40.921875 74.21875 44.703125 73.484375 
Q 48.484375 72.75 52.59375 71.296875 
" id="DejaVuSans-36"/>
      </defs>
      <g transform="translate(242.475415 266.598437)scale(0.1 -0.1)">
       <use xlink:href="#DejaVuSans-36"/>
       <use x="63.623047" xlink:href="#DejaVuSans-30"/>
       <use x="127.246094" xlink:href="#DejaVuSans-30"/>
      </g>
     </g>
    </g>
    <g id="xtick_5">
     <g id="line2d_9">
      <path clip-path="url(#pa6a926988c)" d="M 312.952826 252 
L 312.952826 34.56 
" style="fill:none;stroke:#b0b0b0;stroke-linecap:square;stroke-width:0.8;"/>
     </g>
     <g id="line2d_10">
      <g>
       <use style="stroke:#000000;stroke-width:0.8;" x="312.952826" xlink:href="#m369dac57fc" y="252"/>
      </g>
     </g>
     <g id="text_5">
      <!-- 800 -->
      <defs>
       <path d="M 31.78125 34.625 
Q 24.75 34.625 20.71875 30.859375 
Q 16.703125 27.09375 16.703125 20.515625 
Q 16.703125 13.921875 20.71875 10.15625 
Q 24.75 6.390625 31.78125 6.390625 
Q 38.8125 6.390625 42.859375 10.171875 
Q 46.921875 13.96875 46.921875 20.515625 
Q 46.921875 27.09375 42.890625 30.859375 
Q 38.875 34.625 31.78125 34.625 
M 21.921875 38.8125 
Q 15.578125 40.375 12.03125 44.71875 
Q 8.5 49.078125 8.5 55.328125 
Q 8.5 64.0625 14.71875 69.140625 
Q 20.953125 74.21875 31.78125 74.21875 
Q 42.671875 74.21875 48.875 69.140625 
Q 55.078125 64.0625 55.078125 55.328125 
Q 55.078125 49.078125 51.53125 44.71875 
Q 48 40.375 41.703125 38.8125 
Q 48.828125 37.15625 52.796875 32.3125 
Q 56.78125 27.484375 56.78125 20.515625 
Q 56.78125 9.90625 50.3125 4.234375 
Q 43.84375 -1.421875 31.78125 -1.421875 
Q 19.734375 -1.421875 13.25 4.234375 
Q 6.78125 9.90625 6.78125 20.515625 
Q 6.78125 27.484375 10.78125 32.3125 
Q 14.796875 37.15625 21.921875 38.8125 
M 18.3125 54.390625 
Q 18.3125 48.734375 21.84375 45.5625 
Q 25.390625 42.390625 31.78125 42.390625 
Q 38.140625 42.390625 41.71875 45.5625 
Q 45.3125 48.734375 45.3125 54.390625 
Q 45.3125 60.0625 41.71875 63.234375 
Q 38.140625 66.40625 31.78125 66.40625 
Q 25.390625 66.40625 21.84375 63.234375 
Q 18.3125 60.0625 18.3125 54.390625 
" id="DejaVuSans-38"/>
      </defs>
      <g transform="translate(303.409076 266.598437)scale(0.1 -0.1)">
       <use xlink:href="#DejaVuSans-38"/>
       <use x="63.623047" xlink:href="#DejaVuSans-30"/>
       <use x="127.246094" xlink:href="#DejaVuSans-30"/>
      </g>
     </g>
    </g>
    <g id="xtick_6">
     <g id="line2d_11">
      <path clip-path="url(#pa6a926988c)" d="M 373.886486 252 
L 373.886486 34.56 
" style="fill:none;stroke:#b0b0b0;stroke-linecap:square;stroke-width:0.8;"/>
     </g>
     <g id="line2d_12">
      <g>
       <use style="stroke:#000000;stroke-width:0.8;" x="373.886486" xlink:href="#m369dac57fc" y="252"/>
      </g>
     </g>
     <g id="text_6">
      <!-- 1000 -->
      <defs>
       <path d="M 12.40625 8.296875 
L 28.515625 8.296875 
L 28.515625 63.921875 
L 10.984375 60.40625 
L 10.984375 69.390625 
L 28.421875 72.90625 
L 38.28125 72.90625 
L 38.28125 8.296875 
L 54.390625 8.296875 
L 54.390625 0 
L 12.40625 0 
z
" id="DejaVuSans-31"/>
      </defs>
      <g transform="translate(361.161486 266.598437)scale(0.1 -0.1)">
       <use xlink:href="#DejaVuSans-31"/>
       <use x="63.623047" xlink:href="#DejaVuSans-30"/>
       <use x="127.246094" xlink:href="#DejaVuSans-30"/>
       <use x="190.869141" xlink:href="#DejaVuSans-30"/>
      </g>
     </g>
    </g>
    <g id="text_7">
     <!-- seconds -->
     <defs>
      <path d="M 44.28125 53.078125 
L 44.28125 44.578125 
Q 40.484375 46.53125 36.375 47.5 
Q 32.28125 48.484375 27.875 48.484375 
Q 21.1875 48.484375 17.84375 46.4375 
Q 14.5 44.390625 14.5 40.28125 
Q 14.5 37.15625 16.890625 35.375 
Q 19.28125 33.59375 26.515625 31.984375 
L 29.59375 31.296875 
Q 39.15625 29.25 43.1875 25.515625 
Q 47.21875 21.78125 47.21875 15.09375 
Q 47.21875 7.46875 41.1875 3.015625 
Q 35.15625 -1.421875 24.609375 -1.421875 
Q 20.21875 -1.421875 15.453125 -0.5625 
Q 10.6875 0.296875 5.421875 2 
L 5.421875 11.28125 
Q 10.40625 8.6875 15.234375 7.390625 
Q 20.0625 6.109375 24.8125 6.109375 
Q 31.15625 6.109375 34.5625 8.28125 
Q 37.984375 10.453125 37.984375 14.40625 
Q 37.984375 18.0625 35.515625 20.015625 
Q 33.0625 21.96875 24.703125 23.78125 
L 21.578125 24.515625 
Q 13.234375 26.265625 9.515625 29.90625 
Q 5.8125 33.546875 5.8125 39.890625 
Q 5.8125 47.609375 11.28125 51.796875 
Q 16.75 56 26.8125 56 
Q 31.78125 56 36.171875 55.265625 
Q 40.578125 54.546875 44.28125 53.078125 
" id="DejaVuSans-73"/>
      <path d="M 56.203125 29.59375 
L 56.203125 25.203125 
L 14.890625 25.203125 
Q 15.484375 15.921875 20.484375 11.0625 
Q 25.484375 6.203125 34.421875 6.203125 
Q 39.59375 6.203125 44.453125 7.46875 
Q 49.3125 8.734375 54.109375 11.28125 
L 54.109375 2.78125 
Q 49.265625 0.734375 44.1875 -0.34375 
Q 39.109375 -1.421875 33.890625 -1.421875 
Q 20.796875 -1.421875 13.15625 6.1875 
Q 5.515625 13.8125 5.515625 26.8125 
Q 5.515625 40.234375 12.765625 48.109375 
Q 20.015625 56 32.328125 56 
Q 43.359375 56 49.78125 48.890625 
Q 56.203125 41.796875 56.203125 29.59375 
M 47.21875 32.234375 
Q 47.125 39.59375 43.09375 43.984375 
Q 39.0625 48.390625 32.421875 48.390625 
Q 24.90625 48.390625 20.390625 44.140625 
Q 15.875 39.890625 15.1875 32.171875 
z
" id="DejaVuSans-65"/>
      <path d="M 48.78125 52.59375 
L 48.78125 44.1875 
Q 44.96875 46.296875 41.140625 47.34375 
Q 37.3125 48.390625 33.40625 48.390625 
Q 24.65625 48.390625 19.8125 42.84375 
Q 14.984375 37.3125 14.984375 27.296875 
Q 14.984375 17.28125 19.8125 11.734375 
Q 24.65625 6.203125 33.40625 6.203125 
Q 37.3125 6.203125 41.140625 7.25 
Q 44.96875 8.296875 48.78125 10.40625 
L 48.78125 2.09375 
Q 45.015625 0.34375 40.984375 -0.53125 
Q 36.96875 -1.421875 32.421875 -1.421875 
Q 20.0625 -1.421875 12.78125 6.34375 
Q 5.515625 14.109375 5.515625 27.296875 
Q 5.515625 40.671875 12.859375 48.328125 
Q 20.21875 56 33.015625 56 
Q 37.15625 56 41.109375 55.140625 
Q 45.0625 54.296875 48.78125 52.59375 
" id="DejaVuSans-63"/>
      <path d="M 30.609375 48.390625 
Q 23.390625 48.390625 19.1875 42.75 
Q 14.984375 37.109375 14.984375 27.296875 
Q 14.984375 17.484375 19.15625 11.84375 
Q 23.34375 6.203125 30.609375 6.203125 
Q 37.796875 6.203125 41.984375 11.859375 
Q 46.1875 17.53125 46.1875 27.296875 
Q 46.1875 37.015625 41.984375 42.703125 
Q 37.796875 48.390625 30.609375 48.390625 
M 30.609375 56 
Q 42.328125 56 49.015625 48.375 
Q 55.71875 40.765625 55.71875 27.296875 
Q 55.71875 13.875 49.015625 6.21875 
Q 42.328125 -1.421875 30.609375 -1.421875 
Q 18.84375 -1.421875 12.171875 6.21875 
Q 5.515625 13.875 5.515625 27.296875 
Q 5.515625 40.765625 12.171875 48.375 
Q 18.84375 56 30.609375 56 
" id="DejaVuSans-6f"/>
      <path d="M 54.890625 33.015625 
L 54.890625 0 
L 45.90625 0 
L 45.90625 32.71875 
Q 45.90625 40.484375 42.875 44.328125 
Q 39.84375 48.1875 33.796875 48.1875 
Q 26.515625 48.1875 22.3125 43.546875 
Q 18.109375 38.921875 18.109375 30.90625 
L 18.109375 0 
L 9.078125 0 
L 9.078125 54.6875 
L 18.109375 54.6875 
L 18.109375 46.1875 
Q 21.34375 51.125 25.703125 53.5625 
Q 30.078125 56 35.796875 56 
Q 45.21875 56 50.046875 50.171875 
Q 54.890625 44.34375 54.890625 33.015625 
" id="DejaVuSans-6e"/>
      <path d="M 45.40625 46.390625 
L 45.40625 75.984375 
L 54.390625 75.984375 
L 54.390625 0 
L 45.40625 0 
L 45.40625 8.203125 
Q 42.578125 3.328125 38.25 0.953125 
Q 33.9375 -1.421875 27.875 -1.421875 
Q 17.96875 -1.421875 11.734375 6.484375 
Q 5.515625 14.40625 5.515625 27.296875 
Q 5.515625 40.1875 11.734375 48.09375 
Q 17.96875 56 27.875 56 
Q 33.9375 56 38.25 53.625 
Q 42.578125 51.265625 45.40625 46.390625 
M 14.796875 27.296875 
Q 14.796875 17.390625 18.875 11.75 
Q 22.953125 6.109375 30.078125 6.109375 
Q 37.203125 6.109375 41.296875 11.75 
Q 45.40625 17.390625 45.40625 27.296875 
Q 45.40625 37.203125 41.296875 42.84375 
Q 37.203125 48.484375 30.078125 48.484375 
Q 22.953125 48.484375 18.875 42.84375 
Q 14.796875 37.203125 14.796875 27.296875 
" id="DejaVuSans-64"/>
     </defs>
     <g transform="translate(200.9625 280.276563)scale(0.1 -0.1)">
      <use xlink:href="#DejaVuSans-73"/>
      <use x="52.099609" xlink:href="#DejaVuSans-65"/>
      <use x="113.623047" xlink:href="#DejaVuSans-63"/>
      <use x="168.603516" xlink:href="#DejaVuSans-6f"/>
      <use x="229.785156" xlink:href="#DejaVuSans-6e"/>
      <use x="293.164062" xlink:href="#DejaVuSans-64"/>
      <use x="356.640625" xlink:href="#DejaVuSans-73"/>
     </g>
    </g>
   </g>
   <g id="matplotlib.axis_2">
    <g id="ytick_1">
     <g id="line2d_13">
      <path clip-path="url(#pa6a926988c)" d="M 54 241.385692 
L 388.8 241.385692 
" style="fill:none;stroke:#b0b0b0;stroke-linecap:square;stroke-width:0.8;"/>
     </g>
     <g id="line2d_14">
      <defs>
       <path d="M 0 0 
L -3.5 0 
" id="me52739ec15" style="stroke:#000000;stroke-width:0.8;"/>
      </defs>
      <g>
       <use style="stroke:#000000;stroke-width:0.8;" x="54" xlink:href="#me52739ec15" y="241.385692"/>
      </g>
     </g>
     <g id="text_8">
      <!-- −1000 -->
      <defs>
       <path d="M 10.59375 35.5 
L 73.1875 35.5 
L 73.1875 27.203125 
L 10.59375 27.203125 
z
" id="DejaVuSans-2212"/>
      </defs>
      <g transform="translate(13.170313 245.184911)scale(0.1 -0.1)">
       <use xlink:href="#DejaVuSans-2212"/>
       <use x="83.789062" xlink:href="#DejaVuSans-31"/>
       <use x="147.412109" xlink:href="#DejaVuSans-30"/>
       <use x="211.035156" xlink:href="#DejaVuSans-30"/>
       <use x="274.658203" xlink:href="#DejaVuSans-30"/>
      </g>
     </g>
    </g>
    <g id="ytick_2">
     <g id="line2d_15">
      <path clip-path="url(#pa6a926988c)" d="M 54 198.16517 
L 388.8 198.16517 
" style="fill:none;stroke:#b0b0b0;stroke-linecap:square;stroke-width:0.8;"/>
     </g>
     <g id="line2d_16">
      <g>
       <use style="stroke:#000000;stroke-width:0.8;" x="54" xlink:href="#me52739ec15" y="198.16517"/>
      </g>
     </g>
     <g id="text_9">
      <!-- −500 -->
      <defs>
       <path d="M 10.796875 72.90625 
L 49.515625 72.90625 
L 49.515625 64.59375 
L 19.828125 64.59375 
L 19.828125 46.734375 
Q 21.96875 47.46875 24.109375 47.828125 
Q 26.265625 48.1875 28.421875 48.1875 
Q 40.625 48.1875 47.75 41.5 
Q 54.890625 34.8125 54.890625 23.390625 
Q 54.890625 11.625 47.5625 5.09375 
Q 40.234375 -1.421875 26.90625 -1.421875 
Q 22.3125 -1.421875 17.546875 -0.640625 
Q 12.796875 0.140625 7.71875 1.703125 
L 7.71875 11.625 
Q 12.109375 9.234375 16.796875 8.0625 
Q 21.484375 6.890625 26.703125 6.890625 
Q 35.15625 6.890625 40.078125 11.328125 
Q 45.015625 15.765625 45.015625 23.390625 
Q 45.015625 31 40.078125 35.4375 
Q 35.15625 39.890625 26.703125 39.890625 
Q 22.75 39.890625 18.8125 39.015625 
Q 14.890625 38.140625 10.796875 36.28125 
z
" id="DejaVuSans-35"/>
      </defs>
      <g transform="translate(19.532812 201.964389)scale(0.1 -0.1)">
       <use xlink:href="#DejaVuSans-2212"/>
       <use x="83.789062" xlink:href="#DejaVuSans-35"/>
       <use x="147.412109" xlink:href="#DejaVuSans-30"/>
       <use x="211.035156" xlink:href="#DejaVuSans-30"/>
      </g>
     </g>
    </g>
    <g id="ytick_3">
     <g id="line2d_17">
      <path clip-path="url(#pa6a926988c)" d="M 54 154.944648 
L 388.8 154.944648 
" style="fill:none;stroke:#b0b0b0;stroke-linecap:square;stroke-width:0.8;"/>
     </g>
     <g id="line2d_18">
      <g>
       <use style="stroke:#000000;stroke-width:0.8;" x="54" xlink:href="#me52739ec15" y="154.944648"/>
      </g>
     </g>
     <g id="text_10">
      <!-- 0 -->
      <g transform="translate(40.6375 158.743867)scale(0.1 -0.1)">
       <use xlink:href="#DejaVuSans-30"/>
      </g>
     </g>
    </g>
    <g id="ytick_4">
     <g id="line2d_19">
      <path clip-path="url(#pa6a926988c)" d="M 54 111.724126 
L 388.8 111.724126 
" style="fill:none;stroke:#b0b0b0;stroke-linecap:square;stroke-width:0.8;"/>
     </g>
     <g id="line2d_20">
      <g>
       <use style="stroke:#000000;stroke-width:0.8;" x="54" xlink:href="#me52739ec15" y="111.724126"/>
      </g>
     </g>
     <g id="text_11">
      <!-- 500 -->
      <g transform="translate(27.9125 115.523345)scale(0.1 -0.1)">
       <use xlink:href="#DejaVuSans-35"/>
       <use x="63.623047" xlink:href="#DejaVuSans-30"/>
       <use x="127.246094" xlink:href="#DejaVuSans-30"/>
      </g>
     </g>
    </g>
    <g id="ytick_5">
     <g id="line2d_21">
      <path clip-path="url(#pa6a926988c)" d="M 54 68.503604 
L 388.8 68.503604 
" style="fill:none;stroke:#b0b0b0;stroke-linecap:square;stroke-width:0.8;"/>
     </g>
     <g id="line2d_22">
      <g>
       <use style="stroke:#000000;stroke-width:0.8;" x="54" xlink:href="#me52739ec15" y="68.503604"/>
      </g>
     </g>
     <g id="text_12">
      <!-- 1000 -->
      <g transform="translate(21.55 72.302823)scale(0.1 -0.1)">
       <use xlink:href="#DejaVuSans-31"/>
       <use x="63.623047" xlink:href="#DejaVuSans-30"/>
       <use x="127.246094" xlink:href="#DejaVuSans-30"/>
       <use x="190.869141" xlink:href="#DejaVuSans-30"/>
      </g>
     </g>
    </g>
    <g id="text_13">
     <!-- Kilowatts  -->
     <defs>
      <path d="M 9.8125 72.90625 
L 19.671875 72.90625 
L 19.671875 42.09375 
L 52.390625 72.90625 
L 65.09375 72.90625 
L 28.90625 38.921875 
L 67.671875 0 
L 54.6875 0 
L 19.671875 35.109375 
L 19.671875 0 
L 9.8125 0 
z
" id="DejaVuSans-4b"/>
      <path d="M 9.421875 54.6875 
L 18.40625 54.6875 
L 18.40625 0 
L 9.421875 0 
z
M 9.421875 75.984375 
L 18.40625 75.984375 
L 18.40625 64.59375 
L 9.421875 64.59375 
z
" id="DejaVuSans-69"/>
      <path d="M 9.421875 75.984375 
L 18.40625 75.984375 
L 18.40625 0 
L 9.421875 0 
z
" id="DejaVuSans-6c"/>
      <path d="M 4.203125 54.6875 
L 13.1875 54.6875 
L 24.421875 12.015625 
L 35.59375 54.6875 
L 46.1875 54.6875 
L 57.421875 12.015625 
L 68.609375 54.6875 
L 77.59375 54.6875 
L 63.28125 0 
L 52.6875 0 
L 40.921875 44.828125 
L 29.109375 0 
L 18.5 0 
z
" id="DejaVuSans-77"/>
      <path d="M 34.28125 27.484375 
Q 23.390625 27.484375 19.1875 25 
Q 14.984375 22.515625 14.984375 16.5 
Q 14.984375 11.71875 18.140625 8.90625 
Q 21.296875 6.109375 26.703125 6.109375 
Q 34.1875 6.109375 38.703125 11.40625 
Q 43.21875 16.703125 43.21875 25.484375 
L 43.21875 27.484375 
z
M 52.203125 31.203125 
L 52.203125 0 
L 43.21875 0 
L 43.21875 8.296875 
Q 40.140625 3.328125 35.546875 0.953125 
Q 30.953125 -1.421875 24.3125 -1.421875 
Q 15.921875 -1.421875 10.953125 3.296875 
Q 6 8.015625 6 15.921875 
Q 6 25.140625 12.171875 29.828125 
Q 18.359375 34.515625 30.609375 34.515625 
L 43.21875 34.515625 
L 43.21875 35.40625 
Q 43.21875 41.609375 39.140625 45 
Q 35.0625 48.390625 27.6875 48.390625 
Q 23 48.390625 18.546875 47.265625 
Q 14.109375 46.140625 10.015625 43.890625 
L 10.015625 52.203125 
Q 14.9375 54.109375 19.578125 55.046875 
Q 24.21875 56 28.609375 56 
Q 40.484375 56 46.34375 49.84375 
Q 52.203125 43.703125 52.203125 31.203125 
" id="DejaVuSans-61"/>
      <path d="M 18.3125 70.21875 
L 18.3125 54.6875 
L 36.8125 54.6875 
L 36.8125 47.703125 
L 18.3125 47.703125 
L 18.3125 18.015625 
Q 18.3125 11.328125 20.140625 9.421875 
Q 21.96875 7.515625 27.59375 7.515625 
L 36.8125 7.515625 
L 36.8125 0 
L 27.59375 0 
Q 17.1875 0 13.234375 3.875 
Q 9.28125 7.765625 9.28125 18.015625 
L 9.28125 47.703125 
L 2.6875 47.703125 
L 2.6875 54.6875 
L 9.28125 54.6875 
L 9.28125 70.21875 
z
" id="DejaVuSans-74"/>
      <path id="DejaVuSans-20"/>
     </defs>
     <g transform="translate(7.090625 167.663594)rotate(-90)scale(0.1 -0.1)">
      <use xlink:href="#DejaVuSans-4b"/>
      <use x="65.576172" xlink:href="#DejaVuSans-69"/>
      <use x="93.359375" xlink:href="#DejaVuSans-6c"/>
      <use x="121.142578" xlink:href="#DejaVuSans-6f"/>
      <use x="182.324219" xlink:href="#DejaVuSans-77"/>
      <use x="264.111328" xlink:href="#DejaVuSans-61"/>
      <use x="325.390625" xlink:href="#DejaVuSans-74"/>
      <use x="364.599609" xlink:href="#DejaVuSans-74"/>
      <use x="403.808594" xlink:href="#DejaVuSans-73"/>
      <use x="455.908203" xlink:href="#DejaVuSans-20"/>
     </g>
    </g>
   </g>
   <g id="line2d_23">
    <path clip-path="url(#pa6a926988c)" d="M 69.218182 150.78243 
L 69.52285 151.434815 
L 69.827518 149.47766 
L 70.132187 150.78243 
L 70.436855 151.434815 
L 70.741523 150.130045 
L 71.046192 151.434815 
L 71.35086 153.391971 
L 71.655528 150.130045 
L 71.960197 152.087201 
L 72.264865 148.825275 
L 72.569533 152.087201 
L 72.874201 148.825275 
L 73.17887 154.696742 
L 73.483538 148.825275 
L 73.788206 151.434815 
L 74.092875 148.172889 
L 74.397543 155.349127 
L 74.702211 148.825275 
L 75.00688 152.739586 
L 75.311548 152.739586 
L 75.616216 157.306283 
L 76.225553 150.130045 
L 76.530221 154.044356 
L 76.834889 155.349127 
L 77.139558 154.696742 
L 77.444226 152.087201 
L 77.748894 154.044356 
L 78.053563 154.044356 
L 78.358231 153.391971 
L 78.662899 154.044356 
L 78.967568 152.087201 
L 79.272236 155.349127 
L 79.576904 152.739586 
L 79.881572 154.696742 
L 80.186241 150.78243 
L 80.490909 154.696742 
L 80.795577 152.739586 
L 81.100246 154.696742 
L 81.404914 152.087201 
L 81.709582 152.739586 
L 82.014251 152.739586 
L 82.623587 148.825275 
L 82.928256 150.130045 
L 83.232924 148.825275 
L 83.537592 150.78243 
L 84.146929 150.78243 
L 84.451597 150.130045 
L 84.756265 148.825275 
L 85.060934 151.434815 
L 85.365602 150.130045 
L 85.67027 150.78243 
L 85.974939 150.78243 
L 86.279607 146.215734 
L 86.584275 150.78243 
L 86.888943 152.739586 
L 87.193612 152.087201 
L 87.802948 156.653897 
L 88.107617 156.653897 
L 88.412285 157.306283 
L 89.021622 157.306283 
L 89.32629 156.001512 
L 89.935627 156.001512 
L 90.240295 157.306283 
L 90.544963 156.653897 
L 90.849631 155.349127 
L 91.1543 156.001512 
L 91.763636 154.696742 
L 92.068305 156.653897 
L 92.372973 156.001512 
L 92.677641 157.306283 
L 92.98231 161.220594 
L 93.286978 181.444536 
L 93.591646 191.8827 
L 93.896314 182.096922 
L 94.200983 166.439676 
L 94.505651 192.535086 
L 94.810319 176.87784 
L 95.114988 176.225455 
L 95.724324 129.906103 
L 96.028993 157.306283 
L 96.333661 128.601332 
L 96.638329 142.301422 
L 96.942998 125.339406 
L 97.247666 147.520504 
L 97.552334 132.515644 
L 97.857002 133.820414 
L 98.466339 146.868119 
L 98.771007 143.606193 
L 99.380344 146.868119 
L 99.685012 150.78243 
L 99.989681 146.868119 
L 100.294349 149.47766 
L 100.599017 149.47766 
L 100.903686 151.434815 
L 101.208354 151.434815 
L 101.513022 150.78243 
L 101.81769 153.391971 
L 102.122359 152.087201 
L 102.731695 155.349127 
L 103.036364 154.044356 
L 103.341032 153.391971 
L 103.6457 154.696742 
L 103.950369 155.349127 
L 104.255037 154.696742 
L 104.559705 154.696742 
L 104.864373 155.349127 
L 105.169042 154.696742 
L 105.47371 154.696742 
L 105.778378 154.044356 
L 106.083047 152.739586 
L 106.387715 152.739586 
L 106.692383 153.391971 
L 106.997052 157.958668 
L 107.30172 152.087201 
L 107.606388 150.78243 
L 107.911057 150.130045 
L 108.520393 150.130045 
L 108.825061 148.172889 
L 109.12973 75.105743 
L 109.434398 150.130045 
L 110.043735 150.130045 
L 110.348403 151.434815 
L 110.653071 151.434815 
L 110.95774 150.130045 
L 111.262408 150.78243 
L 111.567076 148.825275 
L 111.871744 151.434815 
L 112.176413 151.434815 
L 112.481081 152.087201 
L 112.785749 151.434815 
L 113.090418 149.47766 
L 113.395086 152.087201 
L 113.699754 151.434815 
L 114.004423 152.087201 
L 114.309091 150.78243 
L 114.613759 151.434815 
L 114.918428 150.78243 
L 115.223096 150.78243 
L 115.527764 151.434815 
L 115.832432 151.434815 
L 116.137101 152.087201 
L 116.441769 153.391971 
L 116.746437 151.434815 
L 117.051106 152.087201 
L 117.355774 150.78243 
L 117.660442 150.78243 
L 117.965111 151.434815 
L 118.879115 151.434815 
L 119.183784 150.78243 
L 119.488452 151.434815 
L 119.79312 151.434815 
L 120.097789 152.087201 
L 121.011794 152.087201 
L 121.316462 150.78243 
L 121.62113 151.434815 
L 122.230467 151.434815 
L 122.535135 150.78243 
L 122.839803 150.78243 
L 123.144472 152.087201 
L 123.753808 150.78243 
L 124.058477 152.087201 
L 124.363145 151.434815 
L 124.667813 150.130045 
L 124.972482 151.434815 
L 125.581818 151.434815 
L 125.886486 152.739586 
L 126.191155 150.78243 
L 126.495823 152.087201 
L 126.800491 152.739586 
L 127.10516 151.434815 
L 127.714496 152.739586 
L 128.019165 151.434815 
L 128.628501 152.739586 
L 128.93317 152.087201 
L 129.237838 150.78243 
L 129.542506 152.087201 
L 129.847174 151.434815 
L 130.151843 152.087201 
L 130.456511 150.130045 
L 130.761179 150.130045 
L 131.065848 148.825275 
L 131.370516 141.649037 
L 131.675184 145.563348 
L 131.979853 133.168029 
L 132.284521 152.087201 
L 132.589189 133.820414 
L 132.893857 134.472799 
L 133.198526 137.08234 
L 133.503194 131.863258 
L 133.807862 172.963528 
L 134.112531 149.47766 
L 134.721867 124.687021 
L 135.026536 154.696742 
L 135.331204 167.744446 
L 135.635872 138.387111 
L 136.245209 160.568209 
L 136.549877 180.139766 
L 136.854545 149.47766 
L 137.463882 168.396832 
L 137.76855 167.092061 
L 138.073219 161.872979 
L 138.377887 154.696742 
L 138.682555 161.872979 
L 138.987224 161.220594 
L 139.291892 154.696742 
L 139.59656 160.568209 
L 139.901229 154.044356 
L 140.205897 157.306283 
L 140.815233 154.044356 
L 141.119902 154.044356 
L 141.42457 156.001512 
L 141.729238 152.087201 
L 142.033907 156.653897 
L 142.338575 152.739586 
L 142.643243 156.001512 
L 142.947912 150.130045 
L 143.25258 154.044356 
L 143.557248 149.47766 
L 143.861916 154.044356 
L 144.166585 151.434815 
L 144.471253 153.391971 
L 145.08059 150.78243 
L 145.385258 150.78243 
L 145.689926 148.172889 
L 146.299263 148.172889 
L 146.603931 149.47766 
L 146.9086 152.087201 
L 147.213268 153.391971 
L 147.517936 153.391971 
L 147.822604 152.739586 
L 148.127273 151.434815 
L 148.431941 152.087201 
L 149.041278 150.78243 
L 149.345946 150.78243 
L 149.650614 152.739586 
L 149.955283 163.17775 
L 150.259951 186.011233 
L 150.564619 195.144626 
L 150.869287 180.792151 
L 151.173956 159.915824 
L 151.478624 156.001512 
L 151.783292 122.729865 
L 152.087961 128.601332 
L 152.392629 137.734725 
L 152.697297 140.996652 
L 153.001966 127.948947 
L 153.306634 140.996652 
L 153.611302 143.606193 
L 153.915971 142.301422 
L 154.220639 140.344266 
L 154.525307 145.563348 
L 154.829975 144.258578 
L 155.134644 147.520504 
L 155.439312 146.215734 
L 155.74398 146.215734 
L 156.048649 148.172889 
L 156.353317 147.520504 
L 156.657985 149.47766 
L 156.962654 149.47766 
L 157.57199 150.78243 
L 157.876658 150.78243 
L 158.181327 148.825275 
L 158.485995 151.434815 
L 158.790663 150.78243 
L 159.095332 150.78243 
L 159.4 149.47766 
L 159.704668 156.001512 
L 160.009337 156.653897 
L 160.314005 150.78243 
L 160.618673 148.825275 
L 160.923342 148.172889 
L 161.22801 149.47766 
L 161.532678 149.47766 
L 161.837346 150.130045 
L 162.142015 150.130045 
L 162.446683 152.087201 
L 162.751351 152.739586 
L 163.05602 148.825275 
L 163.360688 107.072619 
L 163.665356 44.443636 
L 163.970025 156.653897 
L 164.274693 187.968389 
L 164.884029 173.615914 
L 165.188698 182.096922 
L 165.493366 161.872979 
L 165.798034 161.872979 
L 166.102703 159.915824 
L 166.407371 161.872979 
L 167.016708 157.306283 
L 167.626044 156.001512 
L 167.930713 154.696742 
L 168.235381 154.044356 
L 168.540049 152.087201 
L 168.844717 153.391971 
L 169.149386 149.47766 
L 169.454054 152.739586 
L 169.758722 152.087201 
L 170.063391 140.996652 
L 170.368059 149.47766 
L 170.672727 150.78243 
L 170.977396 154.044356 
L 171.282064 154.696742 
L 171.586732 152.087201 
L 171.8914 152.739586 
L 172.196069 152.087201 
L 172.500737 152.087201 
L 172.805405 149.47766 
L 173.110074 148.825275 
L 173.414742 152.739586 
L 173.71941 163.17775 
L 174.024079 214.063798 
L 174.328747 206.235176 
L 174.938084 124.687021 
L 175.242752 121.425095 
L 175.54742 124.034635 
L 175.852088 131.863258 
L 176.156757 135.125185 
L 176.461425 141.649037 
L 176.766093 142.301422 
L 177.070762 138.387111 
L 177.37543 148.172889 
L 177.680098 144.910963 
L 177.984767 146.868119 
L 178.289435 146.215734 
L 178.594103 148.172889 
L 178.898771 146.215734 
L 179.20344 147.520504 
L 179.812776 151.434815 
L 180.117445 148.825275 
L 180.422113 150.130045 
L 180.726781 150.130045 
L 181.336118 151.434815 
L 181.945455 148.825275 
L 182.554791 150.130045 
L 182.859459 161.220594 
L 183.164128 150.78243 
L 183.468796 151.434815 
L 183.773464 151.434815 
L 184.078133 147.520504 
L 184.382801 149.47766 
L 184.687469 148.172889 
L 184.992138 150.130045 
L 185.296806 148.825275 
L 185.601474 150.78243 
L 186.210811 150.78243 
L 186.515479 150.130045 
L 186.820147 152.087201 
L 187.124816 150.78243 
L 187.429484 150.78243 
L 187.734152 151.434815 
L 188.038821 151.434815 
L 188.648157 150.130045 
L 188.952826 151.434815 
L 189.257494 152.087201 
L 189.562162 152.087201 
L 189.86683 151.434815 
L 190.171499 152.087201 
L 190.476167 152.087201 
L 191.085504 149.47766 
L 191.69484 149.47766 
L 191.999509 148.825275 
L 192.304177 146.868119 
L 192.608845 140.996652 
L 192.913514 124.034635 
L 193.218182 146.868119 
L 193.52285 146.215734 
L 193.827518 99.896382 
L 194.132187 140.996652 
L 194.436855 141.649037 
L 195.046192 125.991791 
L 195.655528 172.311143 
L 195.960197 169.049217 
L 196.264865 152.087201 
L 196.569533 174.268299 
L 196.874201 175.573069 
L 197.17887 165.787291 
L 197.483538 163.830135 
L 197.788206 151.434815 
L 198.092875 167.744446 
L 198.397543 153.391971 
L 198.702211 161.220594 
L 199.00688 148.825275 
L 199.311548 161.872979 
L 199.616216 153.391971 
L 199.920885 154.696742 
L 200.225553 159.915824 
L 200.530221 154.044356 
L 200.834889 154.696742 
L 201.139558 152.739586 
L 201.444226 155.349127 
L 202.053563 152.087201 
L 202.358231 153.391971 
L 202.662899 153.391971 
L 202.967568 152.739586 
L 203.272236 153.391971 
L 203.576904 152.087201 
L 203.881572 153.391971 
L 204.186241 150.78243 
L 204.490909 152.739586 
L 204.795577 150.130045 
L 205.100246 152.739586 
L 205.404914 152.739586 
L 205.709582 151.434815 
L 206.014251 144.910963 
L 206.318919 146.215734 
L 206.623587 151.434815 
L 206.928256 150.130045 
L 207.537592 154.696742 
L 208.146929 153.391971 
L 208.451597 152.087201 
L 208.756265 152.087201 
L 209.060934 151.434815 
L 209.67027 151.434815 
L 209.974939 150.130045 
L 210.279607 150.78243 
L 210.584275 150.78243 
L 210.888943 152.087201 
L 211.193612 159.263438 
L 211.802948 224.501962 
L 212.107617 155.349127 
L 212.412285 197.101782 
L 212.716953 123.38225 
L 213.021622 140.344266 
L 213.32629 94.024914 
L 213.630958 142.953807 
L 213.935627 127.948947 
L 214.240295 135.125185 
L 214.544963 134.472799 
L 214.849631 143.606193 
L 215.1543 144.258578 
L 215.458968 138.387111 
L 215.763636 142.953807 
L 216.068305 150.130045 
L 216.372973 143.606193 
L 216.677641 145.563348 
L 216.98231 144.258578 
L 217.286978 148.172889 
L 217.591646 147.520504 
L 217.896314 143.606193 
L 218.200983 150.78243 
L 218.505651 150.78243 
L 218.810319 148.172889 
L 219.114988 152.087201 
L 219.419656 148.172889 
L 219.724324 149.47766 
L 220.028993 152.087201 
L 220.333661 159.915824 
L 220.638329 150.130045 
L 220.942998 149.47766 
L 221.247666 147.520504 
L 221.552334 147.520504 
L 221.857002 148.172889 
L 222.161671 149.47766 
L 222.466339 150.130045 
L 222.771007 149.47766 
L 223.075676 151.434815 
L 223.380344 152.087201 
L 223.685012 149.47766 
L 223.989681 129.906103 
L 224.294349 72.496202 
L 224.599017 80.324824 
L 224.903686 173.615914 
L 225.208354 187.316004 
L 225.513022 169.701602 
L 225.81769 179.487381 
L 226.427027 165.134905 
L 226.731695 163.17775 
L 227.036364 157.306283 
L 227.341032 159.263438 
L 227.6457 157.958668 
L 227.950369 159.263438 
L 228.255037 151.434815 
L 228.559705 155.349127 
L 228.864373 155.349127 
L 229.169042 154.696742 
L 229.47371 153.391971 
L 229.778378 154.044356 
L 230.387715 150.130045 
L 230.692383 151.434815 
L 230.997052 150.78243 
L 231.30172 152.087201 
L 231.606388 152.087201 
L 231.911057 140.996652 
L 232.215725 150.130045 
L 232.520393 148.825275 
L 232.825061 150.130045 
L 233.12973 153.391971 
L 233.434398 152.739586 
L 233.739066 150.78243 
L 234.043735 152.087201 
L 234.653071 150.78243 
L 234.95774 149.47766 
L 235.567076 148.172889 
L 235.871744 152.739586 
L 236.176413 168.396832 
L 236.481081 214.063798 
L 237.090418 174.268299 
L 237.699754 112.944086 
L 238.004423 129.253717 
L 238.309091 124.034635 
L 238.613759 136.429955 
L 238.918428 139.039496 
L 239.527764 141.649037 
L 239.832432 139.691881 
L 240.137101 145.563348 
L 240.441769 142.301422 
L 240.746437 150.130045 
L 241.051106 143.606193 
L 241.355774 147.520504 
L 241.660442 148.172889 
L 241.965111 148.172889 
L 242.269779 144.258578 
L 242.574447 148.825275 
L 242.879115 150.78243 
L 243.183784 148.825275 
L 243.488452 148.825275 
L 243.79312 147.520504 
L 244.097789 148.825275 
L 244.402457 149.47766 
L 244.707125 148.172889 
L 245.011794 148.172889 
L 245.62113 151.434815 
L 245.925799 148.825275 
L 246.535135 151.434815 
L 246.839803 149.47766 
L 247.144472 151.434815 
L 247.44914 148.825275 
L 247.753808 150.78243 
L 248.058477 151.434815 
L 248.363145 150.78243 
L 248.667813 152.739586 
L 248.972482 161.220594 
L 249.27715 149.47766 
L 249.581818 152.087201 
L 250.191155 149.47766 
L 250.495823 148.825275 
L 250.800491 148.825275 
L 251.10516 150.130045 
L 251.409828 150.78243 
L 251.714496 149.47766 
L 252.323833 150.78243 
L 252.628501 152.087201 
L 252.93317 151.434815 
L 253.237838 151.434815 
L 253.542506 152.087201 
L 253.847174 153.391971 
L 254.151843 152.739586 
L 254.456511 151.434815 
L 254.761179 148.172889 
L 255.065848 129.253717 
L 255.370516 81.629595 
L 255.675184 132.515644 
L 255.979853 92.720144 
L 256.284521 177.530225 
L 256.589189 140.996652 
L 256.893857 179.487381 
L 257.198526 184.054077 
L 257.503194 156.001512 
L 257.807862 180.792151 
L 258.112531 164.48252 
L 258.417199 161.872979 
L 258.721867 156.001512 
L 259.026536 159.263438 
L 259.331204 156.001512 
L 259.635872 151.434815 
L 260.245209 160.568209 
L 260.549877 154.696742 
L 260.854545 152.739586 
L 261.463882 159.263438 
L 261.76855 149.47766 
L 262.073219 157.306283 
L 262.377887 153.391971 
L 262.682555 157.306283 
L 262.987224 152.739586 
L 263.291892 152.739586 
L 263.59656 153.391971 
L 263.901229 156.653897 
L 264.205897 150.78243 
L 264.510565 152.087201 
L 264.815233 151.434815 
L 265.119902 150.130045 
L 265.42457 150.130045 
L 265.729238 150.78243 
L 266.033907 152.739586 
L 266.338575 152.739586 
L 266.643243 152.087201 
L 266.947912 142.301422 
L 267.25258 152.087201 
L 267.557248 148.825275 
L 268.166585 154.696742 
L 268.471253 154.044356 
L 269.08059 154.044356 
L 269.385258 150.78243 
L 269.689926 152.087201 
L 269.994595 151.434815 
L 270.299263 149.47766 
L 270.603931 148.825275 
L 270.9086 149.47766 
L 271.213268 157.306283 
L 271.822604 242.116364 
L 272.127273 156.001512 
L 272.431941 168.396832 
L 272.736609 122.729865 
L 273.041278 95.329685 
L 273.345946 131.863258 
L 273.650614 137.734725 
L 274.259951 135.125185 
L 274.564619 144.910963 
L 274.869287 144.258578 
L 275.173956 142.953807 
L 275.478624 140.996652 
L 275.783292 147.520504 
L 276.087961 145.563348 
L 276.697297 146.868119 
L 277.001966 145.563348 
L 277.611302 148.825275 
L 277.915971 147.520504 
L 278.220639 148.825275 
L 278.525307 147.520504 
L 278.829975 150.78243 
L 279.134644 147.520504 
L 279.439312 151.434815 
L 279.74398 149.47766 
L 280.657985 149.47766 
L 280.962654 158.611053 
L 281.267322 153.391971 
L 281.57199 150.130045 
L 281.876658 150.78243 
L 282.181327 148.172889 
L 282.485995 147.520504 
L 282.790663 148.172889 
L 283.095332 150.78243 
L 283.4 148.825275 
L 283.704668 150.78243 
L 284.009337 150.78243 
L 284.314005 150.130045 
L 284.923342 151.434815 
L 285.22801 151.434815 
L 285.532678 152.087201 
L 285.837346 150.78243 
L 286.142015 150.78243 
L 286.751351 146.215734 
L 287.05602 139.691881 
L 287.360688 109.68216 
L 287.665356 122.07748 
L 287.970025 99.896382 
L 288.274693 160.568209 
L 288.579361 99.896382 
L 288.884029 172.963528 
L 289.188698 148.172889 
L 289.493366 186.663618 
L 289.798034 133.168029 
L 290.102703 182.096922 
L 290.407371 152.739586 
L 290.712039 178.18261 
L 291.016708 156.001512 
L 291.321376 165.787291 
L 291.626044 163.17775 
L 291.930713 156.653897 
L 292.540049 153.391971 
L 292.844717 159.263438 
L 293.149386 154.044356 
L 293.454054 154.044356 
L 293.758722 152.087201 
L 294.063391 153.391971 
L 294.368059 156.653897 
L 294.672727 152.739586 
L 294.977396 152.087201 
L 295.282064 156.001512 
L 295.586732 151.434815 
L 295.8914 151.434815 
L 296.196069 154.696742 
L 296.500737 150.130045 
L 296.805405 150.78243 
L 297.110074 152.087201 
L 297.414742 154.044356 
L 297.71941 151.434815 
L 298.328747 154.044356 
L 298.633415 148.825275 
L 298.938084 153.391971 
L 299.242752 150.78243 
L 299.54742 150.78243 
L 299.852088 153.391971 
L 300.156757 152.087201 
L 300.461425 150.130045 
L 300.766093 152.087201 
L 301.070762 152.087201 
L 301.37543 149.47766 
L 301.680098 152.087201 
L 301.984767 150.78243 
L 302.289435 152.087201 
L 302.594103 150.130045 
L 302.898771 152.087201 
L 303.20344 149.47766 
L 303.508108 152.739586 
L 303.812776 150.78243 
L 304.117445 152.087201 
L 304.422113 150.78243 
L 304.726781 152.739586 
L 305.03145 149.47766 
L 305.336118 147.520504 
L 305.640786 147.520504 
L 305.945455 150.130045 
L 306.554791 151.434815 
L 306.859459 152.739586 
L 307.164128 150.78243 
L 307.468796 151.434815 
L 307.773464 150.78243 
L 308.382801 152.087201 
L 308.687469 150.130045 
L 308.992138 151.434815 
L 309.296806 150.78243 
L 309.601474 152.087201 
L 309.906143 151.434815 
L 310.210811 151.434815 
L 310.515479 150.130045 
L 310.820147 151.434815 
L 311.124816 150.78243 
L 311.429484 149.47766 
L 311.734152 152.739586 
L 312.343489 151.434815 
L 312.648157 153.391971 
L 312.952826 153.391971 
L 313.257494 152.087201 
L 313.562162 152.087201 
L 314.171499 150.78243 
L 314.476167 150.78243 
L 314.780835 150.130045 
L 315.085504 150.78243 
L 315.390172 149.47766 
L 315.69484 151.434815 
L 315.999509 150.78243 
L 316.304177 150.78243 
L 316.608845 149.47766 
L 316.913514 150.78243 
L 317.218182 150.130045 
L 317.52285 150.78243 
L 317.827518 148.825275 
L 318.132187 152.739586 
L 318.436855 150.78243 
L 318.741523 150.78243 
L 319.046192 149.47766 
L 319.35086 149.47766 
L 319.655528 148.825275 
L 319.960197 149.47766 
L 320.264865 148.825275 
L 320.569533 151.434815 
L 320.874201 149.47766 
L 321.17887 151.434815 
L 321.483538 150.130045 
L 322.397543 150.130045 
L 322.702211 150.78243 
L 323.311548 149.47766 
L 323.616216 150.78243 
L 323.920885 151.434815 
L 324.834889 151.434815 
L 325.139558 150.130045 
L 325.444226 150.78243 
L 325.748894 149.47766 
L 326.053563 151.434815 
L 326.358231 150.130045 
L 326.662899 150.78243 
L 326.967568 150.130045 
L 327.272236 150.130045 
L 327.576904 150.78243 
L 327.881572 152.087201 
L 328.186241 151.434815 
L 328.490909 151.434815 
L 328.795577 150.78243 
L 329.100246 150.78243 
L 329.404914 150.130045 
L 329.709582 150.130045 
L 330.014251 150.78243 
L 330.318919 150.78243 
L 330.623587 151.434815 
L 330.928256 150.130045 
L 331.232924 148.172889 
L 331.537592 150.130045 
L 331.84226 150.78243 
L 332.146929 150.130045 
L 332.451597 151.434815 
L 332.756265 148.825275 
L 333.060934 150.130045 
L 333.365602 150.130045 
L 333.67027 148.172889 
L 333.974939 149.47766 
L 334.584275 149.47766 
L 334.888943 148.825275 
L 335.193612 150.130045 
L 335.49828 148.825275 
L 335.802948 150.130045 
L 336.412285 148.825275 
L 336.716953 149.47766 
L 337.021622 149.47766 
L 337.32629 150.130045 
L 337.630958 148.825275 
L 337.935627 150.130045 
L 338.240295 148.825275 
L 339.1543 150.78243 
L 339.458968 152.739586 
L 339.763636 153.391971 
L 340.068305 156.001512 
L 340.372973 161.220594 
L 340.677641 169.049217 
L 340.98231 184.054077 
L 341.286978 152.739586 
L 341.591646 195.797012 
L 341.896314 187.968389 
L 342.200983 160.568209 
L 342.810319 154.044356 
L 343.114988 137.734725 
L 343.419656 159.915824 
L 344.028993 125.339406 
L 344.333661 160.568209 
L 344.638329 127.296562 
L 344.942998 136.429955 
L 345.247666 131.210873 
L 345.552334 152.087201 
L 345.857002 148.825275 
L 346.161671 132.515644 
L 346.466339 137.08234 
L 346.771007 156.653897 
L 347.075676 135.77757 
L 347.380344 143.606193 
L 347.685012 139.691881 
L 347.989681 152.087201 
L 348.294349 148.172889 
L 348.599017 148.172889 
L 348.903686 152.087201 
L 349.208354 138.387111 
L 349.513022 155.349127 
L 349.81769 146.868119 
L 350.122359 149.47766 
L 350.427027 145.563348 
L 350.731695 151.434815 
L 351.036364 146.868119 
L 351.341032 150.130045 
L 351.6457 146.868119 
L 351.950369 151.434815 
L 352.255037 148.825275 
L 352.559705 150.130045 
L 352.864373 146.868119 
L 353.169042 149.47766 
L 353.47371 150.78243 
L 353.778378 150.78243 
L 354.083047 145.563348 
L 354.387715 151.434815 
L 354.692383 150.78243 
L 354.997052 148.825275 
L 355.30172 148.172889 
L 355.606388 152.087201 
L 355.911057 150.78243 
L 356.215725 150.130045 
L 356.520393 146.868119 
L 356.825061 152.087201 
L 357.12973 146.215734 
L 357.434398 151.434815 
L 357.739066 147.520504 
L 358.043735 152.087201 
L 358.348403 148.825275 
L 358.653071 150.130045 
L 358.95774 148.825275 
L 359.262408 149.47766 
L 359.567076 149.47766 
L 359.871744 151.434815 
L 360.176413 147.520504 
L 360.481081 152.739586 
L 360.785749 149.47766 
L 361.090418 151.434815 
L 361.699754 148.825275 
L 362.004423 152.739586 
L 362.309091 148.825275 
L 362.613759 150.130045 
L 362.918428 152.087201 
L 363.527764 146.215734 
L 363.832432 151.434815 
L 364.137101 154.696742 
L 364.441769 148.172889 
L 364.746437 152.087201 
L 365.051106 147.520504 
L 365.355774 151.434815 
L 365.660442 152.087201 
L 366.269779 148.825275 
L 366.574447 151.434815 
L 366.879115 150.130045 
L 367.183784 151.434815 
L 367.488452 149.47766 
L 367.79312 152.087201 
L 368.097789 147.520504 
L 368.707125 152.087201 
L 369.316462 148.825275 
L 369.62113 152.087201 
L 369.925799 147.520504 
L 370.230467 151.434815 
L 370.839803 150.130045 
L 371.144472 148.825275 
L 371.44914 152.739586 
L 371.753808 146.868119 
L 372.363145 151.434815 
L 372.972482 150.130045 
L 373.27715 151.434815 
L 373.581818 150.130045 
L 373.581818 150.130045 
" style="fill:none;stroke:#ff0000;stroke-linecap:square;stroke-width:0.3;"/>
   </g>
   <g id="line2d_24">
    <path clip-path="url(#pa6a926988c)" d="M 69.218182 151.562573 
L 69.52285 151.470418 
L 69.827518 150.456718 
L 70.436855 152.530197 
L 70.741523 150.456718 
L 71.35086 152.944893 
L 71.655528 150.594949 
L 71.960197 152.806661 
L 72.264865 149.765558 
L 72.569533 152.806661 
L 72.874201 149.535171 
L 73.17887 155.709532 
L 73.483538 148.844011 
L 73.788206 151.147877 
L 74.092875 149.673403 
L 74.397543 157.27616 
L 74.702211 149.443017 
L 75.00688 154.373289 
L 75.311548 152.161578 
L 75.616216 157.460469 
L 75.920885 153.083125 
L 76.225553 150.594949 
L 76.530221 154.557599 
L 76.834889 156.446769 
L 77.444226 152.622351 
L 77.748894 154.004671 
L 78.053563 153.359588 
L 78.358231 154.18898 
L 78.662899 154.235057 
L 78.967568 152.29981 
L 79.272236 156.677155 
L 79.576904 154.603676 
L 79.881572 155.248758 
L 80.186241 151.931192 
L 80.490909 154.88014 
L 80.795577 153.221356 
L 81.100246 154.281135 
L 81.404914 152.576274 
L 81.709582 151.977269 
L 82.014251 151.700805 
L 82.318919 149.90379 
L 82.623587 149.304785 
L 82.928256 149.304785 
L 83.232924 148.613625 
L 83.537592 149.949867 
L 83.84226 149.396939 
L 84.146929 149.949867 
L 84.451597 149.949867 
L 84.756265 149.258707 
L 85.060934 150.779259 
L 85.67027 150.226331 
L 85.974939 151.240032 
L 86.279607 148.567548 
L 86.584275 151.700805 
L 86.888943 153.636052 
L 87.193612 152.760583 
L 87.49828 154.603676 
L 87.802948 154.695831 
L 88.107617 155.018372 
L 88.412285 155.847763 
L 88.716953 155.985995 
L 89.021622 156.262459 
L 89.32629 156.170305 
L 89.630958 156.677155 
L 89.935627 156.907542 
L 90.544963 156.907542 
L 91.1543 155.985995 
L 91.458968 154.511521 
L 91.763636 154.926217 
L 92.068305 154.511521 
L 92.372973 154.834063 
L 92.677641 155.38699 
L 92.98231 159.211407 
L 93.286978 179.25504 
L 93.591646 187.779343 
L 93.896314 179.531504 
L 94.200983 163.819139 
L 94.505651 189.115585 
L 94.810319 174.555154 
L 95.114988 173.817917 
L 95.724324 130.873858 
L 96.028993 156.354614 
L 96.333661 130.551317 
L 96.638329 143.406888 
L 96.942998 128.109219 
L 97.247666 147.277383 
L 97.552334 134.007116 
L 97.857002 135.850208 
L 98.466339 146.586223 
L 98.771007 143.959816 
L 99.380344 147.646001 
L 99.685012 151.654728 
L 99.989681 147.738156 
L 100.294349 149.396939 
L 100.903686 150.41064 
L 101.208354 151.885114 
L 101.513022 150.41064 
L 101.81769 153.49782 
L 102.122359 152.576274 
L 102.731695 155.294836 
L 103.036364 154.511521 
L 103.341032 154.096825 
L 103.6457 155.156604 
L 103.950369 155.018372 
L 104.255037 155.110526 
L 104.559705 155.38699 
L 104.864373 153.820362 
L 105.169042 155.433068 
L 105.47371 153.589975 
L 105.778378 154.373289 
L 106.083047 152.806661 
L 106.387715 152.391965 
L 106.692383 153.451743 
L 106.997052 156.492846 
L 107.30172 152.668429 
L 107.606388 150.963568 
L 107.911057 151.516496 
L 108.215725 151.60865 
L 108.520393 150.41064 
L 108.825061 150.687104 
L 109.12973 82.95345 
L 109.434398 153.221356 
L 109.739066 152.391965 
L 110.043735 153.037047 
L 110.348403 151.378264 
L 110.653071 152.069424 
L 110.95774 151.1018 
L 111.262408 152.207656 
L 111.567076 151.332187 
L 111.871744 152.622351 
L 112.176413 152.253733 
L 112.481081 153.221356 
L 112.785749 152.622351 
L 113.090418 150.917491 
L 113.395086 152.668429 
L 113.699754 152.207656 
L 114.004423 152.484119 
L 114.309091 151.79296 
L 114.613759 152.714506 
L 114.918428 153.175279 
L 115.223096 151.700805 
L 115.527764 151.654728 
L 115.832432 152.207656 
L 116.137101 151.378264 
L 116.441769 152.484119 
L 116.746437 151.746882 
L 117.051106 152.852738 
L 117.355774 152.161578 
L 117.660442 152.115501 
L 117.965111 152.29981 
L 118.269779 152.253733 
L 118.574447 152.438042 
L 118.879115 151.931192 
L 119.183784 152.207656 
L 119.488452 152.852738 
L 119.79312 152.391965 
L 120.402457 152.852738 
L 120.707125 152.207656 
L 121.011794 152.622351 
L 121.316462 150.963568 
L 121.62113 152.438042 
L 121.925799 152.345887 
L 122.230467 152.484119 
L 122.535135 152.253733 
L 122.839803 152.760583 
L 123.144472 152.714506 
L 123.44914 151.79296 
L 123.753808 151.977269 
L 124.058477 152.391965 
L 124.667813 151.654728 
L 124.972482 152.484119 
L 125.27715 152.115501 
L 125.581818 152.069424 
L 125.886486 152.852738 
L 126.191155 151.931192 
L 126.800491 152.484119 
L 127.10516 153.267434 
L 127.409828 151.885114 
L 127.714496 152.484119 
L 128.019165 152.391965 
L 128.323833 153.175279 
L 128.628501 153.037047 
L 128.93317 153.221356 
L 129.237838 152.576274 
L 129.542506 151.654728 
L 129.847174 152.391965 
L 130.456511 151.700805 
L 130.761179 151.60865 
L 131.065848 150.226331 
L 131.370516 142.946115 
L 131.675184 146.81661 
L 131.979853 135.527667 
L 132.284521 153.451743 
L 132.589189 135.942363 
L 132.893857 136.17275 
L 133.198526 140.273631 
L 133.503194 133.684575 
L 133.807862 170.868968 
L 134.112531 150.41064 
L 134.721867 129.215075 
L 135.026536 155.617377 
L 135.331204 168.703335 
L 135.635872 140.964791 
L 136.245209 160.916268 
L 136.549877 180.268741 
L 136.854545 152.115501 
L 137.463882 169.348417 
L 138.073219 163.312289 
L 138.377887 154.88014 
L 138.682555 162.298588 
L 138.987224 161.100577 
L 139.291892 155.018372 
L 139.59656 161.330964 
L 139.901229 154.373289 
L 140.205897 157.230083 
L 141.119902 154.834063 
L 141.42457 156.907542 
L 141.729238 152.161578 
L 142.033907 157.598701 
L 142.338575 154.096825 
L 142.643243 156.032073 
L 142.947912 151.009645 
L 143.25258 154.787985 
L 143.557248 151.240032 
L 143.861916 155.294836 
L 144.166585 152.484119 
L 144.471253 154.050748 
L 145.385258 151.746882 
L 145.689926 149.811635 
L 145.994595 150.180254 
L 146.299263 151.654728 
L 146.603931 151.009645 
L 146.9086 153.636052 
L 147.213268 155.110526 
L 148.127273 152.438042 
L 148.431941 152.944893 
L 149.041278 151.332187 
L 149.345946 150.687104 
L 149.650614 152.806661 
L 149.955283 161.330964 
L 150.259951 184.830395 
L 150.564619 190.313596 
L 150.869287 178.748189 
L 151.173956 159.718258 
L 151.478624 155.985995 
L 151.783292 124.975962 
L 152.697297 142.485342 
L 153.001966 131.611095 
L 153.306634 142.34711 
L 153.611302 144.973517 
L 153.915971 144.190203 
L 154.220639 141.794182 
L 154.525307 148.106774 
L 154.829975 146.494068 
L 155.134644 149.90379 
L 155.439312 147.876388 
L 155.74398 147.599924 
L 156.048649 148.337161 
L 156.353317 147.968542 
L 156.657985 150.180254 
L 156.962654 149.350862 
L 157.267322 150.364563 
L 157.57199 149.765558 
L 157.876658 151.1018 
L 158.181327 148.659702 
L 158.485995 151.516496 
L 158.790663 151.009645 
L 159.095332 151.286109 
L 159.4 150.134176 
L 159.704668 154.834063 
L 160.009337 155.202681 
L 160.314005 152.714506 
L 160.618673 148.844011 
L 160.923342 147.968542 
L 161.837346 151.240032 
L 162.142015 151.193955 
L 162.446683 153.083125 
L 162.751351 152.714506 
L 163.05602 150.502795 
L 163.360688 110.922381 
L 163.665356 56.551148 
L 163.970025 157.460469 
L 164.274693 186.258792 
L 164.579361 177.36587 
L 164.884029 172.251288 
L 165.188698 179.715813 
L 165.493366 161.653505 
L 165.798034 162.022124 
L 166.102703 159.810413 
L 166.407371 162.022124 
L 167.016708 157.414392 
L 167.321376 156.953619 
L 167.626044 155.663454 
L 167.930713 155.433068 
L 168.540049 152.852738 
L 168.844717 154.142903 
L 169.149386 151.424341 
L 169.454054 154.695831 
L 169.758722 154.281135 
L 170.063391 145.342135 
L 170.368059 150.871413 
L 170.672727 152.345887 
L 170.977396 155.110526 
L 171.282064 155.110526 
L 171.586732 153.589975 
L 171.8914 153.037047 
L 172.196069 151.746882 
L 172.500737 151.931192 
L 172.805405 150.641027 
L 173.110074 151.332187 
L 173.414742 152.622351 
L 173.71941 163.081902 
L 174.024079 208.882754 
L 174.328747 200.266296 
L 174.633415 169.210185 
L 174.938084 126.819055 
L 175.242752 125.851431 
L 175.54742 126.772977 
L 175.852088 133.638497 
L 176.766093 143.591197 
L 177.070762 139.352084 
L 177.37543 148.844011 
L 177.680098 144.282357 
L 177.984767 147.093073 
L 178.289435 146.586223 
L 178.594103 148.613625 
L 179.20344 146.954842 
L 179.812776 152.069424 
L 180.117445 149.995944 
L 180.422113 151.977269 
L 180.726781 151.240032 
L 181.03145 151.332187 
L 181.336118 151.654728 
L 181.640786 151.332187 
L 181.945455 150.733181 
L 182.250123 151.147877 
L 182.554791 151.286109 
L 182.859459 159.718258 
L 183.164128 152.530197 
L 183.468796 152.99097 
L 183.773464 151.885114 
L 184.078133 148.890089 
L 184.382801 151.839037 
L 184.687469 148.70578 
L 184.992138 151.424341 
L 185.296806 150.226331 
L 185.601474 150.871413 
L 185.906143 152.391965 
L 186.210811 151.240032 
L 186.820147 152.668429 
L 187.124816 151.885114 
L 187.429484 151.60865 
L 187.734152 151.147877 
L 188.038821 152.714506 
L 188.648157 151.977269 
L 188.952826 152.668429 
L 189.257494 152.207656 
L 189.86683 152.069424 
L 190.171499 153.037047 
L 190.780835 152.29981 
L 191.085504 151.1018 
L 191.390172 151.378264 
L 191.69484 150.779259 
L 191.999509 150.733181 
L 192.304177 147.968542 
L 192.608845 144.005893 
L 192.913514 126.081818 
L 193.218182 149.489094 
L 193.52285 147.139151 
L 193.827518 104.840175 
L 194.132187 143.775507 
L 194.436855 143.821584 
L 194.741523 135.804131 
L 195.046192 131.288554 
L 195.655528 170.362118 
L 195.960197 169.30234 
L 196.264865 153.175279 
L 196.569533 172.297365 
L 196.874201 173.817917 
L 197.17887 164.418144 
L 197.483538 162.713283 
L 197.788206 152.207656 
L 198.092875 167.781788 
L 198.397543 154.787985 
L 198.702211 162.160356 
L 199.00688 150.917491 
L 199.311548 162.805438 
L 199.616216 153.866439 
L 200.225553 159.902567 
L 200.530221 155.156604 
L 200.834889 154.695831 
L 201.139558 153.636052 
L 201.444226 156.538923 
L 201.748894 154.373289 
L 202.053563 153.313511 
L 202.358231 154.88014 
L 202.662899 155.202681 
L 202.967568 153.543898 
L 203.272236 154.787985 
L 203.576904 152.069424 
L 203.881572 153.359588 
L 204.186241 151.286109 
L 204.490909 153.49782 
L 204.795577 151.147877 
L 205.100246 153.451743 
L 205.404914 153.451743 
L 205.709582 152.391965 
L 206.014251 148.198929 
L 206.318919 148.383238 
L 206.623587 152.391965 
L 206.928256 152.253733 
L 207.232924 154.373289 
L 207.84226 154.834063 
L 208.451597 152.576274 
L 208.756265 152.207656 
L 209.060934 151.424341 
L 209.365602 152.253733 
L 209.67027 152.161578 
L 209.974939 150.963568 
L 210.279607 151.562573 
L 210.584275 151.746882 
L 210.888943 153.129202 
L 211.193612 158.566325 
L 211.802948 218.236449 
L 212.107617 156.262459 
L 212.412285 192.617461 
L 212.716953 127.41806 
L 213.021622 142.669651 
L 213.32629 102.075536 
L 213.630958 146.954842 
L 213.935627 132.440487 
L 214.240295 139.213853 
L 214.544963 138.246229 
L 214.849631 145.572522 
L 215.1543 147.968542 
L 215.458968 141.056945 
L 215.763636 145.572522 
L 216.068305 152.576274 
L 216.372973 146.81661 
L 216.677641 147.461692 
L 216.98231 146.447991 
L 217.286978 150.687104 
L 217.591646 149.350862 
L 217.896314 147.32346 
L 218.200983 153.405666 
L 218.810319 150.272408 
L 219.114988 153.866439 
L 219.419656 150.456718 
L 219.724324 151.424341 
L 220.028993 153.129202 
L 220.333661 159.073176 
L 220.638329 152.576274 
L 220.942998 151.470418 
L 221.247666 149.074398 
L 221.857002 149.949867 
L 222.161671 152.161578 
L 222.466339 151.839037 
L 222.771007 151.746882 
L 223.075676 152.944893 
L 223.380344 152.530197 
L 223.685012 151.839037 
L 223.989681 133.039492 
L 224.294349 80.142734 
L 224.599017 90.786594 
L 224.903686 174.324767 
L 225.208354 186.857797 
L 225.513022 169.440572 
L 225.81769 178.932499 
L 226.427027 165.33969 
L 226.731695 163.957371 
L 227.036364 157.506547 
L 227.341032 160.040799 
L 227.6457 159.533949 
L 227.950369 161.146655 
L 228.255037 153.405666 
L 228.559705 157.045774 
L 229.169042 156.585001 
L 229.47371 154.419367 
L 229.778378 155.38699 
L 230.083047 153.405666 
L 230.387715 152.852738 
L 230.692383 153.037047 
L 230.997052 152.484119 
L 231.30172 153.774284 
L 231.606388 153.543898 
L 231.911057 145.941141 
L 232.215725 151.378264 
L 232.520393 150.042022 
L 232.825061 152.207656 
L 233.12973 155.663454 
L 233.434398 154.695831 
L 233.739066 152.898815 
L 234.043735 153.543898 
L 234.348403 152.852738 
L 234.95774 151.931192 
L 235.262408 150.963568 
L 235.567076 150.917491 
L 235.871744 153.728207 
L 236.176413 168.196484 
L 236.481081 211.509161 
L 237.395086 144.835285 
L 237.699754 116.405581 
L 238.004423 132.763028 
L 238.309091 128.109219 
L 238.613759 139.352084 
L 238.918428 141.932414 
L 239.527764 144.328435 
L 239.832432 142.761806 
L 240.137101 148.106774 
L 240.441769 145.664677 
L 240.746437 150.733181 
L 241.051106 145.618599 
L 241.355774 148.613625 
L 241.660442 150.088099 
L 241.965111 149.028321 
L 242.269779 146.171527 
L 242.574447 151.193955 
L 242.879115 151.700805 
L 243.183784 150.871413 
L 243.488452 150.871413 
L 243.79312 149.811635 
L 244.097789 152.115501 
L 244.402457 151.931192 
L 244.707125 151.332187 
L 245.011794 152.161578 
L 245.316462 152.345887 
L 245.62113 153.083125 
L 245.925799 152.161578 
L 246.535135 153.589975 
L 246.839803 151.286109 
L 247.144472 151.746882 
L 247.44914 150.456718 
L 247.753808 151.839037 
L 248.058477 150.687104 
L 248.363145 152.253733 
L 248.667813 153.175279 
L 248.972482 159.810413 
L 249.27715 150.41064 
L 249.581818 152.530197 
L 249.886486 151.286109 
L 250.191155 151.79296 
L 250.495823 149.581249 
L 250.800491 149.120475 
L 251.409828 150.226331 
L 251.714496 150.272408 
L 252.323833 151.378264 
L 252.628501 152.944893 
L 252.93317 152.345887 
L 253.237838 151.424341 
L 253.542506 152.253733 
L 253.847174 152.760583 
L 254.151843 152.99097 
L 254.456511 151.931192 
L 254.761179 149.443017 
L 255.065848 131.288554 
L 255.370516 87.653336 
L 255.675184 135.573745 
L 255.979853 99.034433 
L 256.284521 175.891396 
L 256.589189 143.176502 
L 256.893857 177.319793 
L 257.198526 181.466751 
L 257.503194 156.723232 
L 257.807862 177.87272 
L 258.112531 163.865216 
L 258.417199 162.206433 
L 258.721867 156.953619 
L 259.026536 159.994722 
L 259.635872 152.852738 
L 259.940541 155.340913 
L 260.245209 159.672181 
L 260.549877 154.695831 
L 260.854545 154.419367 
L 261.159214 155.340913 
L 261.463882 159.487871 
L 261.76855 149.71948 
L 262.073219 156.492846 
L 262.377887 154.050748 
L 262.682555 157.230083 
L 262.987224 153.543898 
L 263.291892 152.898815 
L 263.59656 153.405666 
L 263.901229 156.861464 
L 264.205897 152.345887 
L 264.510565 153.958594 
L 264.815233 152.806661 
L 265.119902 152.99097 
L 265.42457 151.700805 
L 265.729238 151.746882 
L 266.033907 153.451743 
L 266.338575 152.898815 
L 266.643243 152.944893 
L 266.947912 145.480367 
L 267.25258 152.622351 
L 267.557248 150.088099 
L 268.166585 155.064449 
L 268.471253 154.787985 
L 268.775921 153.912516 
L 269.08059 153.636052 
L 269.385258 151.885114 
L 269.689926 151.79296 
L 269.994595 152.438042 
L 270.299263 152.345887 
L 270.603931 150.594949 
L 270.9086 151.516496 
L 271.213268 157.091851 
L 271.822604 234.225277 
L 272.127273 156.861464 
L 272.431941 166.491623 
L 272.736609 126.266127 
L 273.041278 101.614763 
L 273.345946 134.560044 
L 273.650614 140.411863 
L 274.259951 137.739378 
L 274.564619 147.000919 
L 274.869287 145.526445 
L 275.173956 146.770532 
L 275.478624 144.144125 
L 275.783292 149.350862 
L 276.087961 147.646001 
L 276.392629 148.106774 
L 276.697297 149.396939 
L 277.001966 147.277383 
L 277.306634 150.134176 
L 277.611302 149.949867 
L 277.915971 148.936166 
L 278.220639 150.963568 
L 278.525307 149.811635 
L 278.829975 151.516496 
L 279.134644 150.088099 
L 279.439312 152.345887 
L 279.74398 150.456718 
L 280.048649 149.765558 
L 280.353317 150.318486 
L 280.657985 151.147877 
L 280.962654 157.045774 
L 281.57199 151.885114 
L 281.876658 151.60865 
L 282.485995 147.553847 
L 283.095332 150.871413 
L 283.4 150.594949 
L 283.704668 151.700805 
L 284.009337 152.115501 
L 284.314005 151.286109 
L 284.923342 152.622351 
L 285.22801 152.622351 
L 285.532678 152.345887 
L 285.837346 152.944893 
L 286.142015 152.944893 
L 286.446683 151.378264 
L 286.751351 149.166553 
L 287.05602 142.301033 
L 287.360688 114.332102 
L 287.665356 127.049441 
L 287.970025 107.512659 
L 288.274693 160.962345 
L 288.579361 107.743046 
L 288.884029 172.712061 
L 289.188698 150.364563 
L 289.493366 184.784318 
L 289.798034 137.140373 
L 290.102703 179.25504 
L 290.407371 154.050748 
L 290.712039 177.135483 
L 291.016708 157.460469 
L 291.321376 165.892618 
L 291.626044 163.542675 
L 291.930713 158.151629 
L 292.235381 155.663454 
L 292.540049 154.834063 
L 292.844717 159.994722 
L 293.149386 155.248758 
L 293.454054 154.649753 
L 293.758722 153.543898 
L 294.368059 156.907542 
L 294.977396 153.083125 
L 295.282064 156.815387 
L 295.586732 152.530197 
L 295.8914 153.68213 
L 296.196069 156.354614 
L 296.500737 152.207656 
L 296.805405 152.530197 
L 297.110074 152.29981 
L 297.414742 153.958594 
L 297.71941 153.175279 
L 298.024079 152.852738 
L 298.328747 155.202681 
L 298.633415 150.456718 
L 298.938084 153.636052 
L 299.242752 152.99097 
L 299.54742 151.562573 
L 299.852088 154.419367 
L 300.461425 151.332187 
L 301.070762 152.161578 
L 301.37543 150.687104 
L 301.680098 152.207656 
L 301.984767 151.055723 
L 302.289435 152.484119 
L 302.594103 150.502795 
L 302.898771 151.470418 
L 303.20344 150.871413 
L 303.508108 153.405666 
L 303.812776 152.023346 
L 304.117445 152.576274 
L 304.422113 151.79296 
L 304.726781 153.129202 
L 305.336118 148.383238 
L 305.640786 148.383238 
L 305.945455 150.41064 
L 306.250123 151.470418 
L 306.554791 150.871413 
L 306.859459 151.839037 
L 307.164128 149.765558 
L 307.468796 151.1018 
L 307.773464 151.009645 
L 308.078133 150.41064 
L 308.382801 151.332187 
L 308.687469 150.364563 
L 308.992138 152.253733 
L 309.296806 151.516496 
L 309.601474 151.424341 
L 309.906143 150.733181 
L 310.210811 151.700805 
L 310.515479 150.594949 
L 310.820147 151.885114 
L 311.124816 151.746882 
L 311.429484 150.41064 
L 311.734152 151.424341 
L 312.648157 150.456718 
L 312.952826 152.069424 
L 313.257494 151.79296 
L 313.562162 152.207656 
L 314.171499 151.332187 
L 314.476167 151.378264 
L 314.780835 151.240032 
L 315.085504 151.562573 
L 315.390172 150.871413 
L 315.69484 151.240032 
L 315.999509 150.364563 
L 316.304177 152.023346 
L 316.608845 150.594949 
L 316.913514 151.009645 
L 317.218182 150.226331 
L 317.52285 151.516496 
L 317.827518 150.502795 
L 318.132187 151.516496 
L 318.436855 150.917491 
L 318.741523 151.378264 
L 319.046192 150.548872 
L 319.35086 151.931192 
L 319.655528 150.779259 
L 319.960197 151.839037 
L 320.264865 150.825336 
L 320.569533 151.79296 
L 320.874201 150.779259 
L 321.17887 150.502795 
L 321.483538 151.700805 
L 321.788206 151.562573 
L 322.092875 151.746882 
L 322.397543 151.562573 
L 323.00688 151.977269 
L 323.311548 151.470418 
L 323.616216 152.207656 
L 323.920885 151.839037 
L 324.530221 152.069424 
L 324.834889 151.60865 
L 325.139558 152.023346 
L 325.748894 150.917491 
L 326.053563 151.424341 
L 326.358231 151.332187 
L 326.662899 152.115501 
L 326.967568 151.654728 
L 327.272236 151.60865 
L 327.576904 151.240032 
L 327.881572 152.161578 
L 328.186241 151.79296 
L 328.490909 150.502795 
L 328.795577 151.562573 
L 329.100246 152.115501 
L 329.404914 151.193955 
L 329.709582 150.687104 
L 330.014251 150.687104 
L 330.623587 152.576274 
L 330.928256 151.332187 
L 331.232924 150.641027 
L 331.537592 151.378264 
L 331.84226 151.516496 
L 332.146929 150.502795 
L 332.451597 151.839037 
L 332.756265 150.134176 
L 333.365602 152.115501 
L 333.67027 149.995944 
L 333.974939 151.470418 
L 334.279607 151.79296 
L 334.584275 151.240032 
L 335.193612 151.424341 
L 335.49828 150.687104 
L 336.107617 151.885114 
L 336.716953 150.272408 
L 337.021622 149.949867 
L 337.32629 150.871413 
L 337.630958 151.147877 
L 337.935627 151.009645 
L 338.240295 150.134176 
L 338.544963 150.917491 
L 338.849631 150.733181 
L 339.458968 152.530197 
L 339.763636 153.359588 
L 340.068305 155.663454 
L 340.677641 168.61118 
L 340.98231 181.374596 
L 341.286978 152.207656 
L 341.591646 191.972379 
L 341.896314 184.047081 
L 342.200983 161.423119 
L 342.505651 155.755609 
L 342.810319 155.202681 
L 343.114988 140.365785 
L 343.419656 159.16533 
L 344.028993 129.076843 
L 344.333661 160.317263 
L 344.638329 132.025791 
L 344.942998 139.905012 
L 345.247666 135.389435 
L 345.552334 152.438042 
L 345.857002 149.765558 
L 346.161671 135.48159 
L 346.466339 139.674626 
L 346.771007 156.631078 
L 347.075676 138.338384 
L 347.380344 144.558821 
L 347.685012 141.1491 
L 347.989681 152.530197 
L 348.294349 149.443017 
L 348.599017 148.567548 
L 348.903686 152.115501 
L 349.208354 139.490316 
L 349.513022 154.649753 
L 349.81769 145.802909 
L 350.122359 150.272408 
L 350.427027 147.000919 
L 350.731695 152.99097 
L 351.036364 148.751857 
L 351.341032 149.949867 
L 351.6457 149.258707 
L 351.950369 152.898815 
L 352.255037 150.364563 
L 352.559705 151.147877 
L 352.864373 148.751857 
L 353.169042 150.825336 
L 353.47371 151.60865 
L 353.778378 151.79296 
L 354.083047 147.461692 
L 354.387715 152.069424 
L 354.692383 150.594949 
L 355.30172 148.751857 
L 355.606388 152.438042 
L 355.911057 150.594949 
L 356.215725 151.885114 
L 356.520393 148.70578 
L 356.825061 153.267434 
L 357.12973 148.198929 
L 357.434398 152.069424 
L 357.739066 148.751857 
L 358.043735 152.29981 
L 358.348403 149.71948 
L 358.653071 151.885114 
L 358.95774 150.548872 
L 359.262408 151.654728 
L 359.567076 150.318486 
L 359.871744 152.023346 
L 360.176413 149.443017 
L 360.481081 153.49782 
L 360.785749 150.088099 
L 361.090418 151.977269 
L 361.699754 150.318486 
L 362.004423 152.345887 
L 362.309091 150.733181 
L 362.613759 151.193955 
L 362.918428 152.069424 
L 363.223096 151.1018 
L 363.527764 147.599924 
L 364.137101 155.38699 
L 364.441769 149.949867 
L 364.746437 152.898815 
L 365.051106 148.567548 
L 365.355774 152.115501 
L 365.660442 152.115501 
L 365.965111 151.332187 
L 366.269779 149.71948 
L 366.574447 151.885114 
L 366.879115 150.641027 
L 367.183784 151.147877 
L 367.488452 150.088099 
L 367.79312 151.885114 
L 368.097789 148.429316 
L 368.402457 148.890089 
L 368.707125 151.931192 
L 369.011794 151.1018 
L 369.316462 149.350862 
L 369.62113 152.806661 
L 369.925799 148.152852 
L 370.230467 151.700805 
L 370.535135 151.1018 
L 370.839803 151.193955 
L 371.144472 149.028321 
L 371.44914 152.345887 
L 371.753808 148.291084 
L 372.058477 150.042022 
L 372.363145 150.364563 
L 372.667813 150.456718 
L 372.972482 150.687104 
L 373.27715 151.240032 
L 373.581818 150.41064 
L 373.581818 150.41064 
" style="fill:none;stroke:#ffa500;stroke-linecap:square;stroke-width:0.3;"/>
   </g>
   <g id="patch_3">
    <path d="M 54 252 
L 54 34.56 
" style="fill:none;stroke:#000000;stroke-linecap:square;stroke-linejoin:miter;stroke-width:0.8;"/>
   </g>
   <g id="patch_4">
    <path d="M 388.8 252 
L 388.8 34.56 
" style="fill:none;stroke:#000000;stroke-linecap:square;stroke-linejoin:miter;stroke-width:0.8;"/>
   </g>
   <g id="patch_5">
    <path d="M 54 252 
L 388.8 252 
" style="fill:none;stroke:#000000;stroke-linecap:square;stroke-linejoin:miter;stroke-width:0.8;"/>
   </g>
   <g id="patch_6">
    <path d="M 54 34.56 
L 388.8 34.56 
" style="fill:none;stroke:#000000;stroke-linecap:square;stroke-linejoin:miter;stroke-width:0.8;"/>
   </g>
   <g id="text_14">
    <!-- SPGD Detectors TP1 Testing S3 Lineup Post Map  -->
    <defs>
     <path d="M 53.515625 70.515625 
L 53.515625 60.890625 
Q 47.90625 63.578125 42.921875 64.890625 
Q 37.9375 66.21875 33.296875 66.21875 
Q 25.25 66.21875 20.875 63.09375 
Q 16.5 59.96875 16.5 54.203125 
Q 16.5 49.359375 19.40625 46.890625 
Q 22.3125 44.4375 30.421875 42.921875 
L 36.375 41.703125 
Q 47.40625 39.59375 52.65625 34.296875 
Q 57.90625 29 57.90625 20.125 
Q 57.90625 9.515625 50.796875 4.046875 
Q 43.703125 -1.421875 29.984375 -1.421875 
Q 24.8125 -1.421875 18.96875 -0.25 
Q 13.140625 0.921875 6.890625 3.21875 
L 6.890625 13.375 
Q 12.890625 10.015625 18.65625 8.296875 
Q 24.421875 6.59375 29.984375 6.59375 
Q 38.421875 6.59375 43.015625 9.90625 
Q 47.609375 13.234375 47.609375 19.390625 
Q 47.609375 24.75 44.3125 27.78125 
Q 41.015625 30.8125 33.5 32.328125 
L 27.484375 33.5 
Q 16.453125 35.6875 11.515625 40.375 
Q 6.59375 45.0625 6.59375 53.421875 
Q 6.59375 63.09375 13.40625 68.65625 
Q 20.21875 74.21875 32.171875 74.21875 
Q 37.3125 74.21875 42.625 73.28125 
Q 47.953125 72.359375 53.515625 70.515625 
" id="DejaVuSans-53"/>
     <path d="M 19.671875 64.796875 
L 19.671875 37.40625 
L 32.078125 37.40625 
Q 38.96875 37.40625 42.71875 40.96875 
Q 46.484375 44.53125 46.484375 51.125 
Q 46.484375 57.671875 42.71875 61.234375 
Q 38.96875 64.796875 32.078125 64.796875 
z
M 9.8125 72.90625 
L 32.078125 72.90625 
Q 44.34375 72.90625 50.609375 67.359375 
Q 56.890625 61.8125 56.890625 51.125 
Q 56.890625 40.328125 50.609375 34.8125 
Q 44.34375 29.296875 32.078125 29.296875 
L 19.671875 29.296875 
L 19.671875 0 
L 9.8125 0 
z
" id="DejaVuSans-50"/>
     <path d="M 59.515625 10.40625 
L 59.515625 29.984375 
L 43.40625 29.984375 
L 43.40625 38.09375 
L 69.28125 38.09375 
L 69.28125 6.78125 
Q 63.578125 2.734375 56.6875 0.65625 
Q 49.8125 -1.421875 42 -1.421875 
Q 24.90625 -1.421875 15.25 8.5625 
Q 5.609375 18.5625 5.609375 36.375 
Q 5.609375 54.25 15.25 64.234375 
Q 24.90625 74.21875 42 74.21875 
Q 49.125 74.21875 55.546875 72.453125 
Q 61.96875 70.703125 67.390625 67.28125 
L 67.390625 56.78125 
Q 61.921875 61.421875 55.765625 63.765625 
Q 49.609375 66.109375 42.828125 66.109375 
Q 29.4375 66.109375 22.71875 58.640625 
Q 16.015625 51.171875 16.015625 36.375 
Q 16.015625 21.625 22.71875 14.15625 
Q 29.4375 6.6875 42.828125 6.6875 
Q 48.046875 6.6875 52.140625 7.59375 
Q 56.25 8.5 59.515625 10.40625 
" id="DejaVuSans-47"/>
     <path d="M 19.671875 64.796875 
L 19.671875 8.109375 
L 31.59375 8.109375 
Q 46.6875 8.109375 53.6875 14.9375 
Q 60.6875 21.78125 60.6875 36.53125 
Q 60.6875 51.171875 53.6875 57.984375 
Q 46.6875 64.796875 31.59375 64.796875 
z
M 9.8125 72.90625 
L 30.078125 72.90625 
Q 51.265625 72.90625 61.171875 64.09375 
Q 71.09375 55.28125 71.09375 36.53125 
Q 71.09375 17.671875 61.125 8.828125 
Q 51.171875 0 30.078125 0 
L 9.8125 0 
z
" id="DejaVuSans-44"/>
     <path d="M 41.109375 46.296875 
Q 39.59375 47.171875 37.8125 47.578125 
Q 36.03125 48 33.890625 48 
Q 26.265625 48 22.1875 43.046875 
Q 18.109375 38.09375 18.109375 28.8125 
L 18.109375 0 
L 9.078125 0 
L 9.078125 54.6875 
L 18.109375 54.6875 
L 18.109375 46.1875 
Q 20.953125 51.171875 25.484375 53.578125 
Q 30.03125 56 36.53125 56 
Q 37.453125 56 38.578125 55.875 
Q 39.703125 55.765625 41.0625 55.515625 
z
" id="DejaVuSans-72"/>
     <path d="M -0.296875 72.90625 
L 61.375 72.90625 
L 61.375 64.59375 
L 35.5 64.59375 
L 35.5 0 
L 25.59375 0 
L 25.59375 64.59375 
L -0.296875 64.59375 
z
" id="DejaVuSans-54"/>
     <path d="M 45.40625 27.984375 
Q 45.40625 37.75 41.375 43.109375 
Q 37.359375 48.484375 30.078125 48.484375 
Q 22.859375 48.484375 18.828125 43.109375 
Q 14.796875 37.75 14.796875 27.984375 
Q 14.796875 18.265625 18.828125 12.890625 
Q 22.859375 7.515625 30.078125 7.515625 
Q 37.359375 7.515625 41.375 12.890625 
Q 45.40625 18.265625 45.40625 27.984375 
M 54.390625 6.78125 
Q 54.390625 -7.171875 48.1875 -13.984375 
Q 42 -20.796875 29.203125 -20.796875 
Q 24.46875 -20.796875 20.265625 -20.09375 
Q 16.0625 -19.390625 12.109375 -17.921875 
L 12.109375 -9.1875 
Q 16.0625 -11.328125 19.921875 -12.34375 
Q 23.78125 -13.375 27.78125 -13.375 
Q 36.625 -13.375 41.015625 -8.765625 
Q 45.40625 -4.15625 45.40625 5.171875 
L 45.40625 9.625 
Q 42.625 4.78125 38.28125 2.390625 
Q 33.9375 0 27.875 0 
Q 17.828125 0 11.671875 7.65625 
Q 5.515625 15.328125 5.515625 27.984375 
Q 5.515625 40.671875 11.671875 48.328125 
Q 17.828125 56 27.875 56 
Q 33.9375 56 38.28125 53.609375 
Q 42.625 51.21875 45.40625 46.390625 
L 45.40625 54.6875 
L 54.390625 54.6875 
z
" id="DejaVuSans-67"/>
     <path d="M 40.578125 39.3125 
Q 47.65625 37.796875 51.625 33 
Q 55.609375 28.21875 55.609375 21.1875 
Q 55.609375 10.40625 48.1875 4.484375 
Q 40.765625 -1.421875 27.09375 -1.421875 
Q 22.515625 -1.421875 17.65625 -0.515625 
Q 12.796875 0.390625 7.625 2.203125 
L 7.625 11.71875 
Q 11.71875 9.328125 16.59375 8.109375 
Q 21.484375 6.890625 26.8125 6.890625 
Q 36.078125 6.890625 40.9375 10.546875 
Q 45.796875 14.203125 45.796875 21.1875 
Q 45.796875 27.640625 41.28125 31.265625 
Q 36.765625 34.90625 28.71875 34.90625 
L 20.21875 34.90625 
L 20.21875 43.015625 
L 29.109375 43.015625 
Q 36.375 43.015625 40.234375 45.921875 
Q 44.09375 48.828125 44.09375 54.296875 
Q 44.09375 59.90625 40.109375 62.90625 
Q 36.140625 65.921875 28.71875 65.921875 
Q 24.65625 65.921875 20.015625 65.03125 
Q 15.375 64.15625 9.8125 62.3125 
L 9.8125 71.09375 
Q 15.4375 72.65625 20.34375 73.4375 
Q 25.25 74.21875 29.59375 74.21875 
Q 40.828125 74.21875 47.359375 69.109375 
Q 53.90625 64.015625 53.90625 55.328125 
Q 53.90625 49.265625 50.4375 45.09375 
Q 46.96875 40.921875 40.578125 39.3125 
" id="DejaVuSans-33"/>
     <path d="M 9.8125 72.90625 
L 19.671875 72.90625 
L 19.671875 8.296875 
L 55.171875 8.296875 
L 55.171875 0 
L 9.8125 0 
z
" id="DejaVuSans-4c"/>
     <path d="M 8.5 21.578125 
L 8.5 54.6875 
L 17.484375 54.6875 
L 17.484375 21.921875 
Q 17.484375 14.15625 20.5 10.265625 
Q 23.53125 6.390625 29.59375 6.390625 
Q 36.859375 6.390625 41.078125 11.03125 
Q 45.3125 15.671875 45.3125 23.6875 
L 45.3125 54.6875 
L 54.296875 54.6875 
L 54.296875 0 
L 45.3125 0 
L 45.3125 8.40625 
Q 42.046875 3.421875 37.71875 1 
Q 33.40625 -1.421875 27.6875 -1.421875 
Q 18.265625 -1.421875 13.375 4.4375 
Q 8.5 10.296875 8.5 21.578125 
M 31.109375 56 
z
" id="DejaVuSans-75"/>
     <path d="M 18.109375 8.203125 
L 18.109375 -20.796875 
L 9.078125 -20.796875 
L 9.078125 54.6875 
L 18.109375 54.6875 
L 18.109375 46.390625 
Q 20.953125 51.265625 25.265625 53.625 
Q 29.59375 56 35.59375 56 
Q 45.5625 56 51.78125 48.09375 
Q 58.015625 40.1875 58.015625 27.296875 
Q 58.015625 14.40625 51.78125 6.484375 
Q 45.5625 -1.421875 35.59375 -1.421875 
Q 29.59375 -1.421875 25.265625 0.953125 
Q 20.953125 3.328125 18.109375 8.203125 
M 48.6875 27.296875 
Q 48.6875 37.203125 44.609375 42.84375 
Q 40.53125 48.484375 33.40625 48.484375 
Q 26.265625 48.484375 22.1875 42.84375 
Q 18.109375 37.203125 18.109375 27.296875 
Q 18.109375 17.390625 22.1875 11.75 
Q 26.265625 6.109375 33.40625 6.109375 
Q 40.53125 6.109375 44.609375 11.75 
Q 48.6875 17.390625 48.6875 27.296875 
" id="DejaVuSans-70"/>
     <path d="M 9.8125 72.90625 
L 24.515625 72.90625 
L 43.109375 23.296875 
L 61.8125 72.90625 
L 76.515625 72.90625 
L 76.515625 0 
L 66.890625 0 
L 66.890625 64.015625 
L 48.09375 14.015625 
L 38.1875 14.015625 
L 19.390625 64.015625 
L 19.390625 0 
L 9.8125 0 
z
" id="DejaVuSans-4d"/>
    </defs>
    <g transform="translate(73.812188 28.56)scale(0.12 -0.12)">
     <use xlink:href="#DejaVuSans-53"/>
     <use x="63.476562" xlink:href="#DejaVuSans-50"/>
     <use x="123.779297" xlink:href="#DejaVuSans-47"/>
     <use x="201.269531" xlink:href="#DejaVuSans-44"/>
     <use x="278.271484" xlink:href="#DejaVuSans-20"/>
     <use x="310.058594" xlink:href="#DejaVuSans-44"/>
     <use x="387.060547" xlink:href="#DejaVuSans-65"/>
     <use x="448.583984" xlink:href="#DejaVuSans-74"/>
     <use x="487.792969" xlink:href="#DejaVuSans-65"/>
     <use x="549.316406" xlink:href="#DejaVuSans-63"/>
     <use x="604.296875" xlink:href="#DejaVuSans-74"/>
     <use x="643.505859" xlink:href="#DejaVuSans-6f"/>
     <use x="704.6875" xlink:href="#DejaVuSans-72"/>
     <use x="745.800781" xlink:href="#DejaVuSans-73"/>
     <use x="797.900391" xlink:href="#DejaVuSans-20"/>
     <use x="829.6875" xlink:href="#DejaVuSans-54"/>
     <use x="890.771484" xlink:href="#DejaVuSans-50"/>
     <use x="951.074219" xlink:href="#DejaVuSans-31"/>
     <use x="1014.697266" xlink:href="#DejaVuSans-20"/>
     <use x="1046.484375" xlink:href="#DejaVuSans-54"/>
     <use x="1107.302734" xlink:href="#DejaVuSans-65"/>
     <use x="1168.826172" xlink:href="#DejaVuSans-73"/>
     <use x="1220.925781" xlink:href="#DejaVuSans-74"/>
     <use x="1260.134766" xlink:href="#DejaVuSans-69"/>
     <use x="1287.917969" xlink:href="#DejaVuSans-6e"/>
     <use x="1351.296875" xlink:href="#DejaVuSans-67"/>
     <use x="1414.773438" xlink:href="#DejaVuSans-20"/>
     <use x="1446.560547" xlink:href="#DejaVuSans-53"/>
     <use x="1510.037109" xlink:href="#DejaVuSans-33"/>
     <use x="1573.660156" xlink:href="#DejaVuSans-20"/>
     <use x="1605.447266" xlink:href="#DejaVuSans-4c"/>
     <use x="1661.160156" xlink:href="#DejaVuSans-69"/>
     <use x="1688.943359" xlink:href="#DejaVuSans-6e"/>
     <use x="1752.322266" xlink:href="#DejaVuSans-65"/>
     <use x="1813.845703" xlink:href="#DejaVuSans-75"/>
     <use x="1877.224609" xlink:href="#DejaVuSans-70"/>
     <use x="1940.701172" xlink:href="#DejaVuSans-20"/>
     <use x="1972.488281" xlink:href="#DejaVuSans-50"/>
     <use x="2032.744141" xlink:href="#DejaVuSans-6f"/>
     <use x="2093.925781" xlink:href="#DejaVuSans-73"/>
     <use x="2146.025391" xlink:href="#DejaVuSans-74"/>
     <use x="2185.234375" xlink:href="#DejaVuSans-20"/>
     <use x="2217.021484" xlink:href="#DejaVuSans-4d"/>
     <use x="2303.300781" xlink:href="#DejaVuSans-61"/>
     <use x="2364.580078" xlink:href="#DejaVuSans-70"/>
     <use x="2428.056641" xlink:href="#DejaVuSans-20"/>
    </g>
   </g>
  </g>
 </g>
 <defs>
  <clipPath id="pa6a926988c">
   <rect height="217.44" width="334.8" x="54" y="34.56"/>
  </clipPath>
 </defs>
</svg>
