<?xml version="1.0" encoding="utf-8" standalone="no"?>
<!DOCTYPE svg PUBLIC "-//W3C//DTD SVG 1.1//EN"
  "http://www.w3.org/Graphics/SVG/1.1/DTD/svg11.dtd">
<!-- Created with matplotlib (http://matplotlib.org/) -->
<svg height="288pt" version="1.1" viewBox="0 0 432 288" width="432pt" xmlns="http://www.w3.org/2000/svg" xmlns:xlink="http://www.w3.org/1999/xlink">
 <defs>
  <style type="text/css">
*{stroke-linecap:butt;stroke-linejoin:round;}
  </style>
 </defs>
 <g id="figure_1">
  <g id="patch_1">
   <path d="M 0 288 
L 432 288 
L 432 0 
L 0 0 
z
" style="fill:#ffffff;"/>
  </g>
  <g id="axes_1">
   <g id="patch_2">
    <path d="M 54 252 
L 388.8 252 
L 388.8 34.56 
L 54 34.56 
z
" style="fill:#ffffff;"/>
   </g>
   <g id="matplotlib.axis_1">
    <g id="xtick_1">
     <g id="line2d_1">
      <path clip-path="url(#p255fff8d43)" d="M 69.218182 252 
L 69.218182 34.56 
" style="fill:none;stroke:#b0b0b0;stroke-linecap:square;stroke-width:0.8;"/>
     </g>
     <g id="line2d_2">
      <defs>
       <path d="M 0 0 
L 0 3.5 
" id="mbed0d127a5" style="stroke:#000000;stroke-width:0.8;"/>
      </defs>
      <g>
       <use style="stroke:#000000;stroke-width:0.8;" x="69.218182" xlink:href="#mbed0d127a5" y="252"/>
      </g>
     </g>
     <g id="text_1">
      <!-- 0 -->
      <defs>
       <path d="M 31.78125 66.40625 
Q 24.171875 66.40625 20.328125 58.90625 
Q 16.5 51.421875 16.5 36.375 
Q 16.5 21.390625 20.328125 13.890625 
Q 24.171875 6.390625 31.78125 6.390625 
Q 39.453125 6.390625 43.28125 13.890625 
Q 47.125 21.390625 47.125 36.375 
Q 47.125 51.421875 43.28125 58.90625 
Q 39.453125 66.40625 31.78125 66.40625 
M 31.78125 74.21875 
Q 44.046875 74.21875 50.515625 64.515625 
Q 56.984375 54.828125 56.984375 36.375 
Q 56.984375 17.96875 50.515625 8.265625 
Q 44.046875 -1.421875 31.78125 -1.421875 
Q 19.53125 -1.421875 13.0625 8.265625 
Q 6.59375 17.96875 6.59375 36.375 
Q 6.59375 54.828125 13.0625 64.515625 
Q 19.53125 74.21875 31.78125 74.21875 
" id="DejaVuSans-30"/>
      </defs>
      <g transform="translate(66.036932 266.598437)scale(0.1 -0.1)">
       <use xlink:href="#DejaVuSans-30"/>
      </g>
     </g>
    </g>
    <g id="xtick_2">
     <g id="line2d_3">
      <path clip-path="url(#p255fff8d43)" d="M 130.151843 252 
L 130.151843 34.56 
" style="fill:none;stroke:#b0b0b0;stroke-linecap:square;stroke-width:0.8;"/>
     </g>
     <g id="line2d_4">
      <g>
       <use style="stroke:#000000;stroke-width:0.8;" x="130.151843" xlink:href="#mbed0d127a5" y="252"/>
      </g>
     </g>
     <g id="text_2">
      <!-- 200 -->
      <defs>
       <path d="M 19.1875 8.296875 
L 53.609375 8.296875 
L 53.609375 0 
L 7.328125 0 
L 7.328125 8.296875 
Q 12.9375 14.109375 22.625 23.890625 
Q 32.328125 33.6875 34.8125 36.53125 
Q 39.546875 41.84375 41.421875 45.53125 
Q 43.3125 49.21875 43.3125 52.78125 
Q 43.3125 58.59375 39.234375 62.25 
Q 35.15625 65.921875 28.609375 65.921875 
Q 23.96875 65.921875 18.8125 64.3125 
Q 13.671875 62.703125 7.8125 59.421875 
L 7.8125 69.390625 
Q 13.765625 71.78125 18.9375 73 
Q 24.125 74.21875 28.421875 74.21875 
Q 39.75 74.21875 46.484375 68.546875 
Q 53.21875 62.890625 53.21875 53.421875 
Q 53.21875 48.921875 51.53125 44.890625 
Q 49.859375 40.875 45.40625 35.40625 
Q 44.1875 33.984375 37.640625 27.21875 
Q 31.109375 20.453125 19.1875 8.296875 
" id="DejaVuSans-32"/>
      </defs>
      <g transform="translate(120.608093 266.598437)scale(0.1 -0.1)">
       <use xlink:href="#DejaVuSans-32"/>
       <use x="63.623047" xlink:href="#DejaVuSans-30"/>
       <use x="127.246094" xlink:href="#DejaVuSans-30"/>
      </g>
     </g>
    </g>
    <g id="xtick_3">
     <g id="line2d_5">
      <path clip-path="url(#p255fff8d43)" d="M 191.085504 252 
L 191.085504 34.56 
" style="fill:none;stroke:#b0b0b0;stroke-linecap:square;stroke-width:0.8;"/>
     </g>
     <g id="line2d_6">
      <g>
       <use style="stroke:#000000;stroke-width:0.8;" x="191.085504" xlink:href="#mbed0d127a5" y="252"/>
      </g>
     </g>
     <g id="text_3">
      <!-- 400 -->
      <defs>
       <path d="M 37.796875 64.3125 
L 12.890625 25.390625 
L 37.796875 25.390625 
z
M 35.203125 72.90625 
L 47.609375 72.90625 
L 47.609375 25.390625 
L 58.015625 25.390625 
L 58.015625 17.1875 
L 47.609375 17.1875 
L 47.609375 0 
L 37.796875 0 
L 37.796875 17.1875 
L 4.890625 17.1875 
L 4.890625 26.703125 
z
" id="DejaVuSans-34"/>
      </defs>
      <g transform="translate(181.541754 266.598437)scale(0.1 -0.1)">
       <use xlink:href="#DejaVuSans-34"/>
       <use x="63.623047" xlink:href="#DejaVuSans-30"/>
       <use x="127.246094" xlink:href="#DejaVuSans-30"/>
      </g>
     </g>
    </g>
    <g id="xtick_4">
     <g id="line2d_7">
      <path clip-path="url(#p255fff8d43)" d="M 252.019165 252 
L 252.019165 34.56 
" style="fill:none;stroke:#b0b0b0;stroke-linecap:square;stroke-width:0.8;"/>
     </g>
     <g id="line2d_8">
      <g>
       <use style="stroke:#000000;stroke-width:0.8;" x="252.019165" xlink:href="#mbed0d127a5" y="252"/>
      </g>
     </g>
     <g id="text_4">
      <!-- 600 -->
      <defs>
       <path d="M 33.015625 40.375 
Q 26.375 40.375 22.484375 35.828125 
Q 18.609375 31.296875 18.609375 23.390625 
Q 18.609375 15.53125 22.484375 10.953125 
Q 26.375 6.390625 33.015625 6.390625 
Q 39.65625 6.390625 43.53125 10.953125 
Q 47.40625 15.53125 47.40625 23.390625 
Q 47.40625 31.296875 43.53125 35.828125 
Q 39.65625 40.375 33.015625 40.375 
M 52.59375 71.296875 
L 52.59375 62.3125 
Q 48.875 64.0625 45.09375 64.984375 
Q 41.3125 65.921875 37.59375 65.921875 
Q 27.828125 65.921875 22.671875 59.328125 
Q 17.53125 52.734375 16.796875 39.40625 
Q 19.671875 43.65625 24.015625 45.921875 
Q 28.375 48.1875 33.59375 48.1875 
Q 44.578125 48.1875 50.953125 41.515625 
Q 57.328125 34.859375 57.328125 23.390625 
Q 57.328125 12.15625 50.6875 5.359375 
Q 44.046875 -1.421875 33.015625 -1.421875 
Q 20.359375 -1.421875 13.671875 8.265625 
Q 6.984375 17.96875 6.984375 36.375 
Q 6.984375 53.65625 15.1875 63.9375 
Q 23.390625 74.21875 37.203125 74.21875 
Q 40.921875 74.21875 44.703125 73.484375 
Q 48.484375 72.75 52.59375 71.296875 
" id="DejaVuSans-36"/>
      </defs>
      <g transform="translate(242.475415 266.598437)scale(0.1 -0.1)">
       <use xlink:href="#DejaVuSans-36"/>
       <use x="63.623047" xlink:href="#DejaVuSans-30"/>
       <use x="127.246094" xlink:href="#DejaVuSans-30"/>
      </g>
     </g>
    </g>
    <g id="xtick_5">
     <g id="line2d_9">
      <path clip-path="url(#p255fff8d43)" d="M 312.952826 252 
L 312.952826 34.56 
" style="fill:none;stroke:#b0b0b0;stroke-linecap:square;stroke-width:0.8;"/>
     </g>
     <g id="line2d_10">
      <g>
       <use style="stroke:#000000;stroke-width:0.8;" x="312.952826" xlink:href="#mbed0d127a5" y="252"/>
      </g>
     </g>
     <g id="text_5">
      <!-- 800 -->
      <defs>
       <path d="M 31.78125 34.625 
Q 24.75 34.625 20.71875 30.859375 
Q 16.703125 27.09375 16.703125 20.515625 
Q 16.703125 13.921875 20.71875 10.15625 
Q 24.75 6.390625 31.78125 6.390625 
Q 38.8125 6.390625 42.859375 10.171875 
Q 46.921875 13.96875 46.921875 20.515625 
Q 46.921875 27.09375 42.890625 30.859375 
Q 38.875 34.625 31.78125 34.625 
M 21.921875 38.8125 
Q 15.578125 40.375 12.03125 44.71875 
Q 8.5 49.078125 8.5 55.328125 
Q 8.5 64.0625 14.71875 69.140625 
Q 20.953125 74.21875 31.78125 74.21875 
Q 42.671875 74.21875 48.875 69.140625 
Q 55.078125 64.0625 55.078125 55.328125 
Q 55.078125 49.078125 51.53125 44.71875 
Q 48 40.375 41.703125 38.8125 
Q 48.828125 37.15625 52.796875 32.3125 
Q 56.78125 27.484375 56.78125 20.515625 
Q 56.78125 9.90625 50.3125 4.234375 
Q 43.84375 -1.421875 31.78125 -1.421875 
Q 19.734375 -1.421875 13.25 4.234375 
Q 6.78125 9.90625 6.78125 20.515625 
Q 6.78125 27.484375 10.78125 32.3125 
Q 14.796875 37.15625 21.921875 38.8125 
M 18.3125 54.390625 
Q 18.3125 48.734375 21.84375 45.5625 
Q 25.390625 42.390625 31.78125 42.390625 
Q 38.140625 42.390625 41.71875 45.5625 
Q 45.3125 48.734375 45.3125 54.390625 
Q 45.3125 60.0625 41.71875 63.234375 
Q 38.140625 66.40625 31.78125 66.40625 
Q 25.390625 66.40625 21.84375 63.234375 
Q 18.3125 60.0625 18.3125 54.390625 
" id="DejaVuSans-38"/>
      </defs>
      <g transform="translate(303.409076 266.598437)scale(0.1 -0.1)">
       <use xlink:href="#DejaVuSans-38"/>
       <use x="63.623047" xlink:href="#DejaVuSans-30"/>
       <use x="127.246094" xlink:href="#DejaVuSans-30"/>
      </g>
     </g>
    </g>
    <g id="xtick_6">
     <g id="line2d_11">
      <path clip-path="url(#p255fff8d43)" d="M 373.886486 252 
L 373.886486 34.56 
" style="fill:none;stroke:#b0b0b0;stroke-linecap:square;stroke-width:0.8;"/>
     </g>
     <g id="line2d_12">
      <g>
       <use style="stroke:#000000;stroke-width:0.8;" x="373.886486" xlink:href="#mbed0d127a5" y="252"/>
      </g>
     </g>
     <g id="text_6">
      <!-- 1000 -->
      <defs>
       <path d="M 12.40625 8.296875 
L 28.515625 8.296875 
L 28.515625 63.921875 
L 10.984375 60.40625 
L 10.984375 69.390625 
L 28.421875 72.90625 
L 38.28125 72.90625 
L 38.28125 8.296875 
L 54.390625 8.296875 
L 54.390625 0 
L 12.40625 0 
z
" id="DejaVuSans-31"/>
      </defs>
      <g transform="translate(361.161486 266.598437)scale(0.1 -0.1)">
       <use xlink:href="#DejaVuSans-31"/>
       <use x="63.623047" xlink:href="#DejaVuSans-30"/>
       <use x="127.246094" xlink:href="#DejaVuSans-30"/>
       <use x="190.869141" xlink:href="#DejaVuSans-30"/>
      </g>
     </g>
    </g>
    <g id="text_7">
     <!-- seconds -->
     <defs>
      <path d="M 44.28125 53.078125 
L 44.28125 44.578125 
Q 40.484375 46.53125 36.375 47.5 
Q 32.28125 48.484375 27.875 48.484375 
Q 21.1875 48.484375 17.84375 46.4375 
Q 14.5 44.390625 14.5 40.28125 
Q 14.5 37.15625 16.890625 35.375 
Q 19.28125 33.59375 26.515625 31.984375 
L 29.59375 31.296875 
Q 39.15625 29.25 43.1875 25.515625 
Q 47.21875 21.78125 47.21875 15.09375 
Q 47.21875 7.46875 41.1875 3.015625 
Q 35.15625 -1.421875 24.609375 -1.421875 
Q 20.21875 -1.421875 15.453125 -0.5625 
Q 10.6875 0.296875 5.421875 2 
L 5.421875 11.28125 
Q 10.40625 8.6875 15.234375 7.390625 
Q 20.0625 6.109375 24.8125 6.109375 
Q 31.15625 6.109375 34.5625 8.28125 
Q 37.984375 10.453125 37.984375 14.40625 
Q 37.984375 18.0625 35.515625 20.015625 
Q 33.0625 21.96875 24.703125 23.78125 
L 21.578125 24.515625 
Q 13.234375 26.265625 9.515625 29.90625 
Q 5.8125 33.546875 5.8125 39.890625 
Q 5.8125 47.609375 11.28125 51.796875 
Q 16.75 56 26.8125 56 
Q 31.78125 56 36.171875 55.265625 
Q 40.578125 54.546875 44.28125 53.078125 
" id="DejaVuSans-73"/>
      <path d="M 56.203125 29.59375 
L 56.203125 25.203125 
L 14.890625 25.203125 
Q 15.484375 15.921875 20.484375 11.0625 
Q 25.484375 6.203125 34.421875 6.203125 
Q 39.59375 6.203125 44.453125 7.46875 
Q 49.3125 8.734375 54.109375 11.28125 
L 54.109375 2.78125 
Q 49.265625 0.734375 44.1875 -0.34375 
Q 39.109375 -1.421875 33.890625 -1.421875 
Q 20.796875 -1.421875 13.15625 6.1875 
Q 5.515625 13.8125 5.515625 26.8125 
Q 5.515625 40.234375 12.765625 48.109375 
Q 20.015625 56 32.328125 56 
Q 43.359375 56 49.78125 48.890625 
Q 56.203125 41.796875 56.203125 29.59375 
M 47.21875 32.234375 
Q 47.125 39.59375 43.09375 43.984375 
Q 39.0625 48.390625 32.421875 48.390625 
Q 24.90625 48.390625 20.390625 44.140625 
Q 15.875 39.890625 15.1875 32.171875 
z
" id="DejaVuSans-65"/>
      <path d="M 48.78125 52.59375 
L 48.78125 44.1875 
Q 44.96875 46.296875 41.140625 47.34375 
Q 37.3125 48.390625 33.40625 48.390625 
Q 24.65625 48.390625 19.8125 42.84375 
Q 14.984375 37.3125 14.984375 27.296875 
Q 14.984375 17.28125 19.8125 11.734375 
Q 24.65625 6.203125 33.40625 6.203125 
Q 37.3125 6.203125 41.140625 7.25 
Q 44.96875 8.296875 48.78125 10.40625 
L 48.78125 2.09375 
Q 45.015625 0.34375 40.984375 -0.53125 
Q 36.96875 -1.421875 32.421875 -1.421875 
Q 20.0625 -1.421875 12.78125 6.34375 
Q 5.515625 14.109375 5.515625 27.296875 
Q 5.515625 40.671875 12.859375 48.328125 
Q 20.21875 56 33.015625 56 
Q 37.15625 56 41.109375 55.140625 
Q 45.0625 54.296875 48.78125 52.59375 
" id="DejaVuSans-63"/>
      <path d="M 30.609375 48.390625 
Q 23.390625 48.390625 19.1875 42.75 
Q 14.984375 37.109375 14.984375 27.296875 
Q 14.984375 17.484375 19.15625 11.84375 
Q 23.34375 6.203125 30.609375 6.203125 
Q 37.796875 6.203125 41.984375 11.859375 
Q 46.1875 17.53125 46.1875 27.296875 
Q 46.1875 37.015625 41.984375 42.703125 
Q 37.796875 48.390625 30.609375 48.390625 
M 30.609375 56 
Q 42.328125 56 49.015625 48.375 
Q 55.71875 40.765625 55.71875 27.296875 
Q 55.71875 13.875 49.015625 6.21875 
Q 42.328125 -1.421875 30.609375 -1.421875 
Q 18.84375 -1.421875 12.171875 6.21875 
Q 5.515625 13.875 5.515625 27.296875 
Q 5.515625 40.765625 12.171875 48.375 
Q 18.84375 56 30.609375 56 
" id="DejaVuSans-6f"/>
      <path d="M 54.890625 33.015625 
L 54.890625 0 
L 45.90625 0 
L 45.90625 32.71875 
Q 45.90625 40.484375 42.875 44.328125 
Q 39.84375 48.1875 33.796875 48.1875 
Q 26.515625 48.1875 22.3125 43.546875 
Q 18.109375 38.921875 18.109375 30.90625 
L 18.109375 0 
L 9.078125 0 
L 9.078125 54.6875 
L 18.109375 54.6875 
L 18.109375 46.1875 
Q 21.34375 51.125 25.703125 53.5625 
Q 30.078125 56 35.796875 56 
Q 45.21875 56 50.046875 50.171875 
Q 54.890625 44.34375 54.890625 33.015625 
" id="DejaVuSans-6e"/>
      <path d="M 45.40625 46.390625 
L 45.40625 75.984375 
L 54.390625 75.984375 
L 54.390625 0 
L 45.40625 0 
L 45.40625 8.203125 
Q 42.578125 3.328125 38.25 0.953125 
Q 33.9375 -1.421875 27.875 -1.421875 
Q 17.96875 -1.421875 11.734375 6.484375 
Q 5.515625 14.40625 5.515625 27.296875 
Q 5.515625 40.1875 11.734375 48.09375 
Q 17.96875 56 27.875 56 
Q 33.9375 56 38.25 53.625 
Q 42.578125 51.265625 45.40625 46.390625 
M 14.796875 27.296875 
Q 14.796875 17.390625 18.875 11.75 
Q 22.953125 6.109375 30.078125 6.109375 
Q 37.203125 6.109375 41.296875 11.75 
Q 45.40625 17.390625 45.40625 27.296875 
Q 45.40625 37.203125 41.296875 42.84375 
Q 37.203125 48.484375 30.078125 48.484375 
Q 22.953125 48.484375 18.875 42.84375 
Q 14.796875 37.203125 14.796875 27.296875 
" id="DejaVuSans-64"/>
     </defs>
     <g transform="translate(200.9625 280.276563)scale(0.1 -0.1)">
      <use xlink:href="#DejaVuSans-73"/>
      <use x="52.099609" xlink:href="#DejaVuSans-65"/>
      <use x="113.623047" xlink:href="#DejaVuSans-63"/>
      <use x="168.603516" xlink:href="#DejaVuSans-6f"/>
      <use x="229.785156" xlink:href="#DejaVuSans-6e"/>
      <use x="293.164062" xlink:href="#DejaVuSans-64"/>
      <use x="356.640625" xlink:href="#DejaVuSans-73"/>
     </g>
    </g>
   </g>
   <g id="matplotlib.axis_2">
    <g id="ytick_1">
     <g id="line2d_13">
      <path clip-path="url(#p255fff8d43)" d="M 54 243.598909 
L 388.8 243.598909 
" style="fill:none;stroke:#b0b0b0;stroke-linecap:square;stroke-width:0.8;"/>
     </g>
     <g id="line2d_14">
      <defs>
       <path d="M 0 0 
L -3.5 0 
" id="m390fe72f36" style="stroke:#000000;stroke-width:0.8;"/>
      </defs>
      <g>
       <use style="stroke:#000000;stroke-width:0.8;" x="54" xlink:href="#m390fe72f36" y="243.598909"/>
      </g>
     </g>
     <g id="text_8">
      <!-- −750 -->
      <defs>
       <path d="M 10.59375 35.5 
L 73.1875 35.5 
L 73.1875 27.203125 
L 10.59375 27.203125 
z
" id="DejaVuSans-2212"/>
       <path d="M 8.203125 72.90625 
L 55.078125 72.90625 
L 55.078125 68.703125 
L 28.609375 0 
L 18.3125 0 
L 43.21875 64.59375 
L 8.203125 64.59375 
z
" id="DejaVuSans-37"/>
       <path d="M 10.796875 72.90625 
L 49.515625 72.90625 
L 49.515625 64.59375 
L 19.828125 64.59375 
L 19.828125 46.734375 
Q 21.96875 47.46875 24.109375 47.828125 
Q 26.265625 48.1875 28.421875 48.1875 
Q 40.625 48.1875 47.75 41.5 
Q 54.890625 34.8125 54.890625 23.390625 
Q 54.890625 11.625 47.5625 5.09375 
Q 40.234375 -1.421875 26.90625 -1.421875 
Q 22.3125 -1.421875 17.546875 -0.640625 
Q 12.796875 0.140625 7.71875 1.703125 
L 7.71875 11.625 
Q 12.109375 9.234375 16.796875 8.0625 
Q 21.484375 6.890625 26.703125 6.890625 
Q 35.15625 6.890625 40.078125 11.328125 
Q 45.015625 15.765625 45.015625 23.390625 
Q 45.015625 31 40.078125 35.4375 
Q 35.15625 39.890625 26.703125 39.890625 
Q 22.75 39.890625 18.8125 39.015625 
Q 14.890625 38.140625 10.796875 36.28125 
z
" id="DejaVuSans-35"/>
      </defs>
      <g transform="translate(19.532812 247.398128)scale(0.1 -0.1)">
       <use xlink:href="#DejaVuSans-2212"/>
       <use x="83.789062" xlink:href="#DejaVuSans-37"/>
       <use x="147.412109" xlink:href="#DejaVuSans-35"/>
       <use x="211.035156" xlink:href="#DejaVuSans-30"/>
      </g>
     </g>
    </g>
    <g id="ytick_2">
     <g id="line2d_15">
      <path clip-path="url(#p255fff8d43)" d="M 54 215.616392 
L 388.8 215.616392 
" style="fill:none;stroke:#b0b0b0;stroke-linecap:square;stroke-width:0.8;"/>
     </g>
     <g id="line2d_16">
      <g>
       <use style="stroke:#000000;stroke-width:0.8;" x="54" xlink:href="#m390fe72f36" y="215.616392"/>
      </g>
     </g>
     <g id="text_9">
      <!-- −500 -->
      <g transform="translate(19.532812 219.41561)scale(0.1 -0.1)">
       <use xlink:href="#DejaVuSans-2212"/>
       <use x="83.789062" xlink:href="#DejaVuSans-35"/>
       <use x="147.412109" xlink:href="#DejaVuSans-30"/>
       <use x="211.035156" xlink:href="#DejaVuSans-30"/>
      </g>
     </g>
    </g>
    <g id="ytick_3">
     <g id="line2d_17">
      <path clip-path="url(#p255fff8d43)" d="M 54 187.633874 
L 388.8 187.633874 
" style="fill:none;stroke:#b0b0b0;stroke-linecap:square;stroke-width:0.8;"/>
     </g>
     <g id="line2d_18">
      <g>
       <use style="stroke:#000000;stroke-width:0.8;" x="54" xlink:href="#m390fe72f36" y="187.633874"/>
      </g>
     </g>
     <g id="text_10">
      <!-- −250 -->
      <g transform="translate(19.532812 191.433093)scale(0.1 -0.1)">
       <use xlink:href="#DejaVuSans-2212"/>
       <use x="83.789062" xlink:href="#DejaVuSans-32"/>
       <use x="147.412109" xlink:href="#DejaVuSans-35"/>
       <use x="211.035156" xlink:href="#DejaVuSans-30"/>
      </g>
     </g>
    </g>
    <g id="ytick_4">
     <g id="line2d_19">
      <path clip-path="url(#p255fff8d43)" d="M 54 159.651357 
L 388.8 159.651357 
" style="fill:none;stroke:#b0b0b0;stroke-linecap:square;stroke-width:0.8;"/>
     </g>
     <g id="line2d_20">
      <g>
       <use style="stroke:#000000;stroke-width:0.8;" x="54" xlink:href="#m390fe72f36" y="159.651357"/>
      </g>
     </g>
     <g id="text_11">
      <!-- 0 -->
      <g transform="translate(40.6375 163.450575)scale(0.1 -0.1)">
       <use xlink:href="#DejaVuSans-30"/>
      </g>
     </g>
    </g>
    <g id="ytick_5">
     <g id="line2d_21">
      <path clip-path="url(#p255fff8d43)" d="M 54 131.668839 
L 388.8 131.668839 
" style="fill:none;stroke:#b0b0b0;stroke-linecap:square;stroke-width:0.8;"/>
     </g>
     <g id="line2d_22">
      <g>
       <use style="stroke:#000000;stroke-width:0.8;" x="54" xlink:href="#m390fe72f36" y="131.668839"/>
      </g>
     </g>
     <g id="text_12">
      <!-- 250 -->
      <g transform="translate(27.9125 135.468058)scale(0.1 -0.1)">
       <use xlink:href="#DejaVuSans-32"/>
       <use x="63.623047" xlink:href="#DejaVuSans-35"/>
       <use x="127.246094" xlink:href="#DejaVuSans-30"/>
      </g>
     </g>
    </g>
    <g id="ytick_6">
     <g id="line2d_23">
      <path clip-path="url(#p255fff8d43)" d="M 54 103.686322 
L 388.8 103.686322 
" style="fill:none;stroke:#b0b0b0;stroke-linecap:square;stroke-width:0.8;"/>
     </g>
     <g id="line2d_24">
      <g>
       <use style="stroke:#000000;stroke-width:0.8;" x="54" xlink:href="#m390fe72f36" y="103.686322"/>
      </g>
     </g>
     <g id="text_13">
      <!-- 500 -->
      <g transform="translate(27.9125 107.48554)scale(0.1 -0.1)">
       <use xlink:href="#DejaVuSans-35"/>
       <use x="63.623047" xlink:href="#DejaVuSans-30"/>
       <use x="127.246094" xlink:href="#DejaVuSans-30"/>
      </g>
     </g>
    </g>
    <g id="ytick_7">
     <g id="line2d_25">
      <path clip-path="url(#p255fff8d43)" d="M 54 75.703804 
L 388.8 75.703804 
" style="fill:none;stroke:#b0b0b0;stroke-linecap:square;stroke-width:0.8;"/>
     </g>
     <g id="line2d_26">
      <g>
       <use style="stroke:#000000;stroke-width:0.8;" x="54" xlink:href="#m390fe72f36" y="75.703804"/>
      </g>
     </g>
     <g id="text_14">
      <!-- 750 -->
      <g transform="translate(27.9125 79.503023)scale(0.1 -0.1)">
       <use xlink:href="#DejaVuSans-37"/>
       <use x="63.623047" xlink:href="#DejaVuSans-35"/>
       <use x="127.246094" xlink:href="#DejaVuSans-30"/>
      </g>
     </g>
    </g>
    <g id="ytick_8">
     <g id="line2d_27">
      <path clip-path="url(#p255fff8d43)" d="M 54 47.721287 
L 388.8 47.721287 
" style="fill:none;stroke:#b0b0b0;stroke-linecap:square;stroke-width:0.8;"/>
     </g>
     <g id="line2d_28">
      <g>
       <use style="stroke:#000000;stroke-width:0.8;" x="54" xlink:href="#m390fe72f36" y="47.721287"/>
      </g>
     </g>
     <g id="text_15">
      <!-- 1000 -->
      <g transform="translate(21.55 51.520505)scale(0.1 -0.1)">
       <use xlink:href="#DejaVuSans-31"/>
       <use x="63.623047" xlink:href="#DejaVuSans-30"/>
       <use x="127.246094" xlink:href="#DejaVuSans-30"/>
       <use x="190.869141" xlink:href="#DejaVuSans-30"/>
      </g>
     </g>
    </g>
    <g id="text_16">
     <!-- Kilowatts  -->
     <defs>
      <path d="M 9.8125 72.90625 
L 19.671875 72.90625 
L 19.671875 42.09375 
L 52.390625 72.90625 
L 65.09375 72.90625 
L 28.90625 38.921875 
L 67.671875 0 
L 54.6875 0 
L 19.671875 35.109375 
L 19.671875 0 
L 9.8125 0 
z
" id="DejaVuSans-4b"/>
      <path d="M 9.421875 54.6875 
L 18.40625 54.6875 
L 18.40625 0 
L 9.421875 0 
z
M 9.421875 75.984375 
L 18.40625 75.984375 
L 18.40625 64.59375 
L 9.421875 64.59375 
z
" id="DejaVuSans-69"/>
      <path d="M 9.421875 75.984375 
L 18.40625 75.984375 
L 18.40625 0 
L 9.421875 0 
z
" id="DejaVuSans-6c"/>
      <path d="M 4.203125 54.6875 
L 13.1875 54.6875 
L 24.421875 12.015625 
L 35.59375 54.6875 
L 46.1875 54.6875 
L 57.421875 12.015625 
L 68.609375 54.6875 
L 77.59375 54.6875 
L 63.28125 0 
L 52.6875 0 
L 40.921875 44.828125 
L 29.109375 0 
L 18.5 0 
z
" id="DejaVuSans-77"/>
      <path d="M 34.28125 27.484375 
Q 23.390625 27.484375 19.1875 25 
Q 14.984375 22.515625 14.984375 16.5 
Q 14.984375 11.71875 18.140625 8.90625 
Q 21.296875 6.109375 26.703125 6.109375 
Q 34.1875 6.109375 38.703125 11.40625 
Q 43.21875 16.703125 43.21875 25.484375 
L 43.21875 27.484375 
z
M 52.203125 31.203125 
L 52.203125 0 
L 43.21875 0 
L 43.21875 8.296875 
Q 40.140625 3.328125 35.546875 0.953125 
Q 30.953125 -1.421875 24.3125 -1.421875 
Q 15.921875 -1.421875 10.953125 3.296875 
Q 6 8.015625 6 15.921875 
Q 6 25.140625 12.171875 29.828125 
Q 18.359375 34.515625 30.609375 34.515625 
L 43.21875 34.515625 
L 43.21875 35.40625 
Q 43.21875 41.609375 39.140625 45 
Q 35.0625 48.390625 27.6875 48.390625 
Q 23 48.390625 18.546875 47.265625 
Q 14.109375 46.140625 10.015625 43.890625 
L 10.015625 52.203125 
Q 14.9375 54.109375 19.578125 55.046875 
Q 24.21875 56 28.609375 56 
Q 40.484375 56 46.34375 49.84375 
Q 52.203125 43.703125 52.203125 31.203125 
" id="DejaVuSans-61"/>
      <path d="M 18.3125 70.21875 
L 18.3125 54.6875 
L 36.8125 54.6875 
L 36.8125 47.703125 
L 18.3125 47.703125 
L 18.3125 18.015625 
Q 18.3125 11.328125 20.140625 9.421875 
Q 21.96875 7.515625 27.59375 7.515625 
L 36.8125 7.515625 
L 36.8125 0 
L 27.59375 0 
Q 17.1875 0 13.234375 3.875 
Q 9.28125 7.765625 9.28125 18.015625 
L 9.28125 47.703125 
L 2.6875 47.703125 
L 2.6875 54.6875 
L 9.28125 54.6875 
L 9.28125 70.21875 
z
" id="DejaVuSans-74"/>
      <path id="DejaVuSans-20"/>
     </defs>
     <g transform="translate(13.453125 167.663594)rotate(-90)scale(0.1 -0.1)">
      <use xlink:href="#DejaVuSans-4b"/>
      <use x="65.576172" xlink:href="#DejaVuSans-69"/>
      <use x="93.359375" xlink:href="#DejaVuSans-6c"/>
      <use x="121.142578" xlink:href="#DejaVuSans-6f"/>
      <use x="182.324219" xlink:href="#DejaVuSans-77"/>
      <use x="264.111328" xlink:href="#DejaVuSans-61"/>
      <use x="325.390625" xlink:href="#DejaVuSans-74"/>
      <use x="364.599609" xlink:href="#DejaVuSans-74"/>
      <use x="403.808594" xlink:href="#DejaVuSans-73"/>
      <use x="455.908203" xlink:href="#DejaVuSans-20"/>
     </g>
    </g>
   </g>
   <g id="line2d_29">
    <path clip-path="url(#p255fff8d43)" d="M 69.218182 157.640839 
L 69.52285 158.485594 
L 69.827518 155.951329 
L 70.132187 156.796084 
L 70.741523 156.796084 
L 71.046192 155.951329 
L 71.35086 155.951329 
L 71.960197 159.33035 
L 72.264865 157.640839 
L 72.569533 156.796084 
L 72.874201 157.640839 
L 73.483538 157.640839 
L 73.788206 155.951329 
L 74.092875 158.485594 
L 74.702211 156.796084 
L 75.00688 155.106573 
L 75.311548 154.261818 
L 75.616216 155.951329 
L 75.920885 154.261818 
L 76.225553 157.640839 
L 76.530221 155.951329 
L 76.834889 155.951329 
L 77.139558 157.640839 
L 77.444226 158.485594 
L 78.358231 155.951329 
L 78.662899 158.485594 
L 78.967568 157.640839 
L 79.272236 159.33035 
L 79.576904 158.485594 
L 80.186241 158.485594 
L 80.795577 156.796084 
L 81.100246 157.640839 
L 81.404914 157.640839 
L 81.709582 155.951329 
L 82.014251 156.796084 
L 82.318919 158.485594 
L 82.928256 156.796084 
L 83.232924 156.796084 
L 83.537592 157.640839 
L 84.146929 155.951329 
L 84.451597 157.640839 
L 84.756265 157.640839 
L 85.060934 156.796084 
L 85.365602 158.485594 
L 85.67027 155.951329 
L 85.974939 158.485594 
L 86.584275 156.796084 
L 86.888943 157.640839 
L 87.193612 157.640839 
L 87.49828 156.796084 
L 87.802948 158.485594 
L 88.107617 159.33035 
L 88.412285 158.485594 
L 88.716953 158.485594 
L 89.021622 160.175105 
L 89.32629 158.485594 
L 89.935627 158.485594 
L 90.240295 156.796084 
L 90.849631 158.485594 
L 91.1543 156.796084 
L 91.458968 157.640839 
L 91.763636 156.796084 
L 92.068305 158.485594 
L 92.372973 156.796084 
L 92.98231 155.106573 
L 93.591646 156.796084 
L 94.505651 161.864615 
L 95.114988 156.796084 
L 95.419656 158.485594 
L 95.724324 155.951329 
L 96.028993 157.640839 
L 96.333661 155.951329 
L 96.638329 155.951329 
L 97.247666 157.640839 
L 98.161671 157.640839 
L 98.466339 156.796084 
L 98.771007 159.33035 
L 99.075676 158.485594 
L 99.380344 156.796084 
L 99.685012 156.796084 
L 99.989681 160.175105 
L 100.294349 155.106573 
L 100.599017 157.640839 
L 100.903686 157.640839 
L 101.208354 158.485594 
L 101.513022 158.485594 
L 101.81769 160.175105 
L 102.122359 155.951329 
L 102.427027 159.33035 
L 102.731695 155.106573 
L 103.036364 156.796084 
L 103.341032 160.175105 
L 103.6457 154.261818 
L 103.950369 155.106573 
L 104.255037 156.796084 
L 104.559705 155.951329 
L 104.864373 154.261818 
L 105.169042 154.261818 
L 105.47371 156.796084 
L 105.778378 156.796084 
L 106.083047 159.33035 
L 106.387715 155.951329 
L 106.997052 154.261818 
L 107.30172 156.796084 
L 107.606388 152.572308 
L 107.911057 154.261818 
L 108.215725 152.572308 
L 108.520393 155.951329 
L 108.825061 148.348531 
L 109.434398 158.485594 
L 109.739066 153.417063 
L 110.043735 154.261818 
L 110.348403 150.882797 
L 110.653071 161.01986 
L 110.95774 146.659021 
L 111.262408 153.417063 
L 111.871744 156.796084 
L 112.176413 144.124755 
L 112.785749 157.640839 
L 113.090418 144.96951 
L 113.395086 154.261818 
L 113.699754 154.261818 
L 114.004423 143.28 
L 114.309091 150.882797 
L 114.613759 151.727552 
L 114.918428 139.900979 
L 115.223096 148.348531 
L 115.527764 138.211469 
L 115.832432 157.640839 
L 116.137101 116.247832 
L 116.441769 171.156923 
L 116.746437 144.96951 
L 117.051106 151.727552 
L 117.355774 127.22965 
L 117.660442 178.75972 
L 117.965111 175.380699 
L 118.269779 167.777902 
L 118.574447 173.691189 
L 118.879115 215.084196 
L 119.183784 146.659021 
L 119.488452 214.239441 
L 120.097789 178.75972 
L 120.707125 166.933147 
L 121.011794 161.01986 
L 121.925799 158.485594 
L 122.230467 159.33035 
L 122.839803 159.33035 
L 123.144472 161.01986 
L 123.44914 161.01986 
L 123.753808 160.175105 
L 124.058477 160.175105 
L 124.363145 161.01986 
L 124.667813 161.01986 
L 124.972482 161.864615 
L 125.27715 161.01986 
L 125.886486 161.01986 
L 126.191155 161.864615 
L 126.495823 161.01986 
L 126.800491 162.709371 
L 127.10516 161.01986 
L 127.409828 158.485594 
L 128.019165 156.796084 
L 128.628501 160.175105 
L 129.237838 150.882797 
L 129.542506 155.106573 
L 129.847174 154.261818 
L 130.151843 155.106573 
L 130.456511 155.106573 
L 130.761179 155.951329 
L 131.065848 153.417063 
L 131.370516 154.261818 
L 131.675184 152.572308 
L 131.979853 153.417063 
L 132.284521 155.106573 
L 132.893857 155.106573 
L 133.198526 154.261818 
L 133.503194 154.261818 
L 133.807862 151.727552 
L 134.112531 150.882797 
L 134.417199 158.485594 
L 134.721867 155.951329 
L 135.026536 155.106573 
L 135.331204 152.572308 
L 135.635872 164.398881 
L 135.940541 158.485594 
L 136.245209 155.106573 
L 136.549877 159.33035 
L 136.854545 157.640839 
L 137.159214 166.088392 
L 137.463882 154.261818 
L 137.76855 168.622657 
L 138.073219 159.33035 
L 138.377887 163.554126 
L 138.682555 170.312168 
L 138.987224 168.622657 
L 139.59656 174.535944 
L 139.901229 182.983497 
L 140.205897 179.604476 
L 140.510565 162.709371 
L 140.815233 182.983497 
L 141.119902 166.933147 
L 141.42457 159.33035 
L 141.729238 166.933147 
L 142.033907 100.197483 
L 142.338575 113.713566 
L 142.643243 112.868811 
L 142.947912 103.576503 
L 143.25258 99.352727 
L 143.557248 141.59049 
L 143.861916 148.348531 
L 144.166585 150.038042 
L 144.471253 150.882797 
L 144.775921 152.572308 
L 145.385258 149.193287 
L 145.689926 150.038042 
L 145.994595 149.193287 
L 146.299263 146.659021 
L 146.603931 147.503776 
L 146.9086 146.659021 
L 148.127273 155.951329 
L 148.431941 156.796084 
L 148.736609 165.243636 
L 149.041278 157.640839 
L 149.650614 161.864615 
L 149.955283 162.709371 
L 150.259951 160.175105 
L 150.564619 161.864615 
L 150.869287 161.01986 
L 151.173956 162.709371 
L 151.478624 156.796084 
L 151.783292 160.175105 
L 152.087961 150.882797 
L 152.392629 154.261818 
L 153.001966 154.261818 
L 153.306634 143.28 
L 153.611302 151.727552 
L 153.915971 138.211469 
L 154.220639 144.96951 
L 154.525307 118.782098 
L 155.134644 133.142937 
L 155.439312 123.850629 
L 155.74398 128.919161 
L 156.048649 176.225455 
L 156.353317 139.056224 
L 156.657985 224.376503 
L 156.962654 242.116364 
L 157.267322 210.86042 
L 158.181327 161.864615 
L 158.485995 161.864615 
L 158.790663 161.01986 
L 159.4 162.709371 
L 160.314005 167.777902 
L 160.618673 166.933147 
L 160.923342 162.709371 
L 161.22801 161.01986 
L 161.837346 156.796084 
L 162.142015 146.659021 
L 162.446683 155.951329 
L 163.360688 150.882797 
L 163.665356 152.572308 
L 163.970025 151.727552 
L 164.274693 151.727552 
L 164.579361 150.038042 
L 164.884029 150.882797 
L 165.798034 155.951329 
L 166.102703 156.796084 
L 166.712039 161.864615 
L 167.016708 158.485594 
L 167.321376 164.398881 
L 167.626044 160.175105 
L 167.930713 166.933147 
L 168.235381 166.088392 
L 168.540049 174.535944 
L 168.844717 171.156923 
L 169.149386 185.517762 
L 169.454054 179.604476 
L 169.758722 200.723357 
L 170.063391 173.691189 
L 170.368059 172.001678 
L 170.672727 165.243636 
L 170.977396 181.293986 
L 171.282064 132.298182 
L 171.586732 44.443636 
L 171.8914 109.48979 
L 172.196069 94.284196 
L 172.500737 128.919161 
L 172.805405 148.348531 
L 173.110074 151.727552 
L 173.414742 152.572308 
L 173.71941 152.572308 
L 174.024079 150.882797 
L 174.328747 150.038042 
L 174.633415 148.348531 
L 175.242752 150.038042 
L 175.54742 150.038042 
L 175.852088 149.193287 
L 176.156757 149.193287 
L 176.461425 152.572308 
L 176.766093 152.572308 
L 177.070762 156.796084 
L 177.680098 156.796084 
L 177.984767 166.088392 
L 178.289435 160.175105 
L 178.594103 159.33035 
L 178.898771 159.33035 
L 179.20344 160.175105 
L 179.508108 162.709371 
L 180.117445 159.33035 
L 180.726781 161.01986 
L 181.03145 161.01986 
L 181.336118 158.485594 
L 181.640786 164.398881 
L 181.945455 155.106573 
L 182.250123 161.01986 
L 182.554791 155.106573 
L 182.859459 156.796084 
L 183.164128 157.640839 
L 183.468796 155.951329 
L 183.773464 155.106573 
L 184.078133 153.417063 
L 184.382801 157.640839 
L 184.687469 155.951329 
L 184.992138 151.727552 
L 185.296806 158.485594 
L 185.601474 152.572308 
L 185.906143 155.106573 
L 186.210811 149.193287 
L 186.515479 151.727552 
L 186.820147 147.503776 
L 187.124816 150.882797 
L 187.429484 149.193287 
L 187.734152 138.211469 
L 188.038821 152.572308 
L 188.648157 136.521958 
L 188.952826 150.882797 
L 189.257494 147.503776 
L 189.562162 154.261818 
L 189.86683 143.28 
L 190.171499 182.983497 
L 190.476167 154.261818 
L 191.085504 133.142937 
L 191.390172 145.814266 
L 191.69484 148.348531 
L 191.999509 152.572308 
L 192.304177 129.763916 
L 192.608845 143.28 
L 192.913514 150.882797 
L 193.218182 131.453427 
L 193.52285 160.175105 
L 193.827518 144.96951 
L 194.132187 189.741538 
L 194.436855 119.626853 
L 194.741523 204.102378 
L 195.046192 166.933147 
L 195.35086 220.152727 
L 195.655528 176.225455 
L 195.960197 206.636643 
L 196.264865 196.49958 
L 196.569533 173.691189 
L 196.874201 182.983497 
L 197.17887 166.088392 
L 197.788206 159.33035 
L 198.092875 157.640839 
L 198.397543 157.640839 
L 198.702211 155.951329 
L 199.00688 155.951329 
L 199.616216 157.640839 
L 199.920885 156.796084 
L 200.225553 158.485594 
L 200.530221 155.951329 
L 200.834889 157.640839 
L 201.139558 157.640839 
L 201.444226 156.796084 
L 201.748894 154.261818 
L 202.053563 157.640839 
L 202.358231 155.951329 
L 202.662899 157.640839 
L 202.967568 156.796084 
L 203.272236 156.796084 
L 203.576904 157.640839 
L 203.881572 157.640839 
L 204.186241 155.106573 
L 204.490909 155.951329 
L 204.795577 155.106573 
L 205.100246 157.640839 
L 205.709582 154.261818 
L 206.318919 155.951329 
L 206.623587 155.106573 
L 206.928256 155.951329 
L 207.232924 155.951329 
L 207.537592 155.106573 
L 207.84226 155.951329 
L 208.146929 155.106573 
L 208.756265 155.106573 
L 209.060934 153.417063 
L 209.365602 150.882797 
L 209.67027 145.814266 
L 209.974939 128.919161 
L 210.279607 104.421259 
L 210.584275 98.507972 
L 210.888943 77.389091 
L 211.193612 90.06042 
L 211.49828 187.207273 
L 211.802948 128.074406 
L 212.107617 143.28 
L 212.412285 181.293986 
L 212.716953 187.207273 
L 213.021622 190.586294 
L 213.630958 164.398881 
L 213.935627 190.586294 
L 214.240295 166.933147 
L 214.544963 176.225455 
L 214.849631 161.01986 
L 215.1543 172.001678 
L 215.458968 160.175105 
L 215.763636 165.243636 
L 216.068305 161.01986 
L 216.372973 161.864615 
L 216.677641 158.485594 
L 216.98231 158.485594 
L 217.286978 161.01986 
L 217.591646 159.33035 
L 217.896314 153.417063 
L 218.200983 159.33035 
L 218.505651 154.261818 
L 218.810319 160.175105 
L 219.114988 154.261818 
L 219.419656 153.417063 
L 219.724324 155.951329 
L 220.028993 153.417063 
L 220.333661 152.572308 
L 220.638329 150.882797 
L 220.942998 150.882797 
L 221.247666 151.727552 
L 221.552334 150.038042 
L 221.857002 152.572308 
L 222.161671 152.572308 
L 222.466339 150.038042 
L 223.075676 154.261818 
L 223.380344 153.417063 
L 223.685012 151.727552 
L 223.989681 146.659021 
L 224.294349 156.796084 
L 224.599017 155.951329 
L 224.903686 154.261818 
L 225.208354 158.485594 
L 225.513022 159.33035 
L 225.81769 159.33035 
L 226.122359 161.864615 
L 226.731695 161.864615 
L 227.036364 161.01986 
L 227.341032 161.01986 
L 228.255037 158.485594 
L 228.559705 158.485594 
L 228.864373 156.796084 
L 229.169042 158.485594 
L 229.47371 156.796084 
L 229.778378 157.640839 
L 230.083047 155.951329 
L 230.387715 156.796084 
L 230.692383 155.106573 
L 230.997052 155.106573 
L 231.30172 156.796084 
L 232.215725 159.33035 
L 232.520393 161.864615 
L 232.825061 160.175105 
L 233.12973 163.554126 
L 233.434398 146.659021 
L 233.739066 155.106573 
L 234.043735 155.106573 
L 234.348403 147.503776 
L 234.653071 160.175105 
L 234.95774 151.727552 
L 235.262408 150.882797 
L 235.567076 154.261818 
L 235.871744 150.882797 
L 236.176413 150.882797 
L 236.785749 154.261818 
L 237.090418 154.261818 
L 237.395086 155.106573 
L 237.699754 154.261818 
L 238.004423 155.951329 
L 238.309091 154.261818 
L 238.613759 155.951329 
L 239.223096 154.261818 
L 239.527764 154.261818 
L 239.832432 153.417063 
L 240.137101 155.106573 
L 240.746437 153.417063 
L 241.355774 153.417063 
L 241.965111 155.106573 
L 242.269779 153.417063 
L 242.574447 153.417063 
L 242.879115 150.882797 
L 243.183784 153.417063 
L 243.488452 151.727552 
L 243.79312 152.572308 
L 244.097789 150.882797 
L 244.402457 151.727552 
L 244.707125 150.882797 
L 245.316462 152.572308 
L 245.62113 151.727552 
L 245.925799 152.572308 
L 246.230467 152.572308 
L 246.839803 155.951329 
L 247.144472 155.951329 
L 247.44914 155.106573 
L 247.753808 156.796084 
L 248.058477 161.864615 
L 248.363145 161.864615 
L 248.667813 156.796084 
L 248.972482 156.796084 
L 249.27715 157.640839 
L 249.581818 159.33035 
L 250.191155 157.640839 
L 250.495823 159.33035 
L 250.800491 156.796084 
L 251.10516 158.485594 
L 251.409828 156.796084 
L 252.019165 158.485594 
L 252.323833 157.640839 
L 252.628501 155.951329 
L 252.93317 156.796084 
L 253.237838 155.106573 
L 253.542506 156.796084 
L 253.847174 154.261818 
L 254.151843 158.485594 
L 254.456511 150.038042 
L 254.761179 161.01986 
L 255.065848 149.193287 
L 255.370516 155.951329 
L 255.675184 148.348531 
L 255.979853 156.796084 
L 256.284521 153.417063 
L 256.589189 154.261818 
L 256.893857 153.417063 
L 257.198526 154.261818 
L 257.503194 146.659021 
L 257.807862 153.417063 
L 258.112531 151.727552 
L 258.417199 151.727552 
L 258.721867 144.124755 
L 259.026536 151.727552 
L 259.635872 151.727552 
L 259.940541 150.038042 
L 260.245209 150.038042 
L 260.549877 157.640839 
L 260.854545 149.193287 
L 261.159214 155.106573 
L 261.463882 147.503776 
L 261.76855 163.554126 
L 262.073219 150.038042 
L 262.377887 156.796084 
L 262.682555 160.175105 
L 262.987224 161.01986 
L 263.291892 154.261818 
L 263.59656 159.33035 
L 263.901229 160.175105 
L 264.205897 159.33035 
L 264.510565 154.261818 
L 264.815233 160.175105 
L 265.119902 161.01986 
L 265.42457 152.572308 
L 265.729238 167.777902 
L 266.033907 155.951329 
L 266.338575 161.864615 
L 266.643243 153.417063 
L 266.947912 158.485594 
L 267.25258 151.727552 
L 267.557248 161.01986 
L 268.166585 155.106573 
L 268.471253 158.485594 
L 268.775921 156.796084 
L 269.08059 150.038042 
L 269.385258 160.175105 
L 269.689926 150.882797 
L 269.994595 155.951329 
L 270.299263 152.572308 
L 270.603931 155.106573 
L 270.9086 150.038042 
L 271.213268 155.106573 
L 271.517936 149.193287 
L 272.127273 157.640839 
L 272.736609 147.503776 
L 273.041278 156.796084 
L 273.345946 155.106573 
L 273.650614 158.485594 
L 273.955283 149.193287 
L 274.259951 155.106573 
L 274.564619 154.261818 
L 274.869287 160.175105 
L 275.173956 151.727552 
L 275.478624 155.951329 
L 275.783292 164.398881 
L 276.087961 155.951329 
L 276.392629 154.261818 
L 276.697297 155.951329 
L 277.001966 158.485594 
L 277.306634 150.038042 
L 277.611302 161.01986 
L 277.915971 150.882797 
L 278.220639 161.01986 
L 278.525307 156.796084 
L 278.829975 155.951329 
L 279.439312 161.864615 
L 279.74398 157.640839 
L 280.048649 157.640839 
L 280.353317 156.796084 
L 280.657985 159.33035 
L 280.962654 156.796084 
L 281.267322 157.640839 
L 281.57199 161.864615 
L 281.876658 155.106573 
L 282.181327 158.485594 
L 282.485995 157.640839 
L 282.790663 158.485594 
L 283.095332 155.106573 
L 283.4 161.01986 
L 283.704668 151.727552 
L 284.009337 158.485594 
L 284.314005 155.951329 
L 284.618673 155.951329 
L 284.923342 152.572308 
L 285.22801 154.261818 
L 285.532678 150.882797 
L 285.837346 152.572308 
L 286.142015 151.727552 
L 286.446683 153.417063 
L 286.751351 151.727552 
L 287.360688 150.038042 
L 287.665356 152.572308 
L 287.970025 151.727552 
L 288.579361 155.106573 
L 288.884029 149.193287 
L 289.493366 156.796084 
L 289.798034 155.951329 
L 290.407371 161.01986 
L 291.321376 163.554126 
L 291.626044 163.554126 
L 291.930713 162.709371 
L 292.235381 162.709371 
L 292.844717 161.01986 
L 293.149386 161.864615 
L 293.454054 159.33035 
L 293.758722 158.485594 
L 294.063391 161.01986 
L 294.368059 169.467413 
L 294.977396 224.376503 
L 295.282064 231.979301 
L 295.586732 188.052028 
L 295.8914 202.412867 
L 296.196069 128.074406 
L 296.500737 180.449231 
L 296.805405 107.80028 
L 297.110074 149.193287 
L 297.414742 122.161119 
L 297.71941 124.695385 
L 298.328747 140.745734 
L 298.633415 137.366713 
L 298.938084 140.745734 
L 299.54742 153.417063 
L 300.156757 148.348531 
L 300.461425 155.951329 
L 300.766093 156.796084 
L 301.070762 155.106573 
L 301.37543 155.951329 
L 301.680098 161.864615 
L 301.984767 162.709371 
L 302.289435 160.175105 
L 302.594103 159.33035 
L 302.898771 160.175105 
L 303.20344 160.175105 
L 303.508108 161.01986 
L 303.812776 161.01986 
L 304.117445 159.33035 
L 304.422113 158.485594 
L 305.03145 158.485594 
L 305.336118 164.398881 
L 305.640786 155.951329 
L 306.250123 154.261818 
L 306.554791 149.193287 
L 306.859459 146.659021 
L 307.164128 147.503776 
L 307.468796 147.503776 
L 307.773464 148.348531 
L 308.078133 148.348531 
L 308.382801 150.038042 
L 308.992138 151.727552 
L 309.296806 150.882797 
L 309.601474 150.882797 
L 309.906143 151.727552 
L 310.210811 148.348531 
L 310.515479 123.850629 
L 310.820147 133.142937 
L 311.124816 74.01007 
L 311.429484 109.48979 
L 312.343489 149.193287 
L 312.648157 178.75972 
L 312.952826 185.517762 
L 313.257494 185.517762 
L 313.562162 188.052028 
L 313.86683 177.07021 
L 314.171499 179.604476 
L 314.476167 167.777902 
L 314.780835 166.933147 
L 315.085504 171.156923 
L 315.390172 160.175105 
L 315.69484 158.485594 
L 315.999509 161.01986 
L 316.608845 154.261818 
L 316.913514 155.106573 
L 317.218182 150.882797 
L 317.52285 153.417063 
L 317.827518 148.348531 
L 318.132187 154.261818 
L 318.741523 149.193287 
L 319.046192 150.882797 
L 319.35086 150.038042 
L 319.655528 152.572308 
L 319.960197 146.659021 
L 320.264865 158.485594 
L 320.569533 156.796084 
L 321.17887 166.088392 
L 321.483538 166.933147 
L 321.788206 165.243636 
L 322.092875 164.398881 
L 322.397543 165.243636 
L 322.702211 162.709371 
L 323.00688 161.864615 
L 323.311548 160.175105 
L 323.616216 161.01986 
L 323.920885 165.243636 
L 324.225553 182.983497 
L 324.530221 231.979301 
L 324.834889 207.481399 
L 325.139558 208.326154 
L 325.444226 214.239441 
L 325.748894 139.900979 
L 326.053563 154.261818 
L 326.358231 125.54014 
L 326.662899 133.987692 
L 326.967568 134.832448 
L 327.272236 130.608671 
L 327.576904 123.005874 
L 327.881572 140.745734 
L 328.186241 145.814266 
L 328.490909 144.124755 
L 328.795577 147.503776 
L 329.100246 147.503776 
L 329.404914 150.882797 
L 329.709582 150.882797 
L 330.014251 152.572308 
L 330.318919 153.417063 
L 330.623587 158.485594 
L 330.928256 153.417063 
L 331.232924 159.33035 
L 331.537592 157.640839 
L 331.84226 161.01986 
L 332.146929 160.175105 
L 332.451597 161.01986 
L 332.756265 161.01986 
L 333.060934 160.175105 
L 333.365602 158.485594 
L 333.67027 162.709371 
L 333.974939 158.485594 
L 334.279607 159.33035 
L 334.584275 157.640839 
L 334.888943 157.640839 
L 335.193612 155.951329 
L 335.49828 156.796084 
L 335.802948 156.796084 
L 336.107617 161.864615 
L 337.021622 152.572308 
L 337.32629 155.951329 
L 337.630958 154.261818 
L 337.935627 155.951329 
L 338.240295 153.417063 
L 338.544963 154.261818 
L 339.1543 154.261818 
L 339.458968 155.951329 
L 339.763636 155.106573 
L 340.068305 155.106573 
L 340.372973 156.796084 
L 340.98231 155.106573 
L 341.286978 156.796084 
L 341.591646 155.106573 
L 342.200983 156.796084 
L 342.505651 156.796084 
L 342.810319 155.951329 
L 343.114988 155.951329 
L 343.419656 157.640839 
L 344.028993 159.33035 
L 344.333661 158.485594 
L 344.638329 158.485594 
L 344.942998 159.33035 
L 345.247666 156.796084 
L 345.552334 157.640839 
L 345.857002 155.951329 
L 346.161671 157.640839 
L 346.466339 155.106573 
L 346.771007 149.193287 
L 347.075676 154.261818 
L 347.380344 156.796084 
L 347.685012 153.417063 
L 348.294349 153.417063 
L 348.599017 152.572308 
L 348.903686 152.572308 
L 349.513022 154.261818 
L 349.81769 151.727552 
L 350.122359 153.417063 
L 350.427027 151.727552 
L 350.731695 152.572308 
L 351.036364 150.038042 
L 351.341032 155.951329 
L 351.6457 155.106573 
L 351.950369 155.951329 
L 352.255037 155.951329 
L 352.559705 159.33035 
L 352.864373 154.261818 
L 353.169042 161.01986 
L 353.47371 155.106573 
L 353.778378 165.243636 
L 354.083047 158.485594 
L 354.387715 166.933147 
L 354.692383 156.796084 
L 354.997052 171.156923 
L 355.30172 163.554126 
L 355.606388 170.312168 
L 355.911057 168.622657 
L 356.215725 185.517762 
L 356.520393 180.449231 
L 356.825061 166.088392 
L 357.12973 172.001678 
L 357.434398 190.586294 
L 357.739066 165.243636 
L 358.043735 149.193287 
L 358.348403 149.193287 
L 358.653071 158.485594 
L 358.95774 142.435245 
L 359.262408 71.475804 
L 359.567076 132.298182 
L 360.176413 106.955524 
L 360.481081 123.005874 
L 360.785749 144.96951 
L 361.090418 150.038042 
L 361.395086 150.882797 
L 361.699754 153.417063 
L 362.004423 151.727552 
L 362.309091 152.572308 
L 362.613759 150.882797 
L 362.918428 150.038042 
L 363.832432 150.038042 
L 364.137101 148.348531 
L 364.441769 147.503776 
L 365.051106 150.882797 
L 365.355774 150.882797 
L 365.965111 155.106573 
L 366.269779 153.417063 
L 366.574447 159.33035 
L 366.879115 162.709371 
L 367.183784 157.640839 
L 367.488452 159.33035 
L 367.79312 157.640839 
L 368.097789 159.33035 
L 368.402457 160.175105 
L 368.707125 161.864615 
L 369.011794 157.640839 
L 369.316462 161.864615 
L 369.62113 158.485594 
L 369.925799 156.796084 
L 370.230467 159.33035 
L 370.535135 159.33035 
L 370.839803 156.796084 
L 371.144472 161.864615 
L 371.753808 155.951329 
L 372.058477 155.106573 
L 372.363145 158.485594 
L 372.667813 154.261818 
L 372.972482 155.951329 
L 373.27715 154.261818 
L 373.581818 158.485594 
L 373.581818 158.485594 
" style="fill:none;stroke:#ff0000;stroke-linecap:square;stroke-width:0.3;"/>
   </g>
   <g id="line2d_30">
    <path clip-path="url(#p255fff8d43)" d="M 69.218182 157.598908 
L 69.827518 156.524952 
L 70.132187 157.06193 
L 70.436855 155.450996 
L 70.741523 156.107302 
L 71.046192 156.166966 
L 71.35086 157.658572 
L 71.655528 157.06193 
L 71.960197 157.598908 
L 72.264865 154.914018 
L 72.569533 156.226631 
L 73.17887 155.272003 
L 73.483538 156.166966 
L 73.788206 155.152675 
L 74.092875 155.689653 
L 74.397543 155.629988 
L 74.702211 155.689653 
L 75.00688 156.584616 
L 75.311548 155.033346 
L 75.616216 156.882937 
L 75.920885 154.675361 
L 76.225553 155.093011 
L 76.530221 154.973682 
L 76.834889 156.345959 
L 77.139558 155.689653 
L 77.444226 156.942601 
L 77.748894 154.854354 
L 78.053563 156.047638 
L 78.358231 154.675361 
L 78.662899 157.06193 
L 78.967568 156.166966 
L 79.272236 157.300587 
L 79.576904 157.06193 
L 80.186241 158.135886 
L 80.490909 155.808981 
L 80.795577 156.465287 
L 81.100246 158.255214 
L 81.404914 155.987974 
L 82.014251 156.703944 
L 82.318919 156.584616 
L 82.623587 157.479579 
L 82.928256 157.181258 
L 83.232924 155.51066 
L 83.537592 157.658572 
L 83.84226 157.360251 
L 84.146929 156.345959 
L 84.451597 157.419915 
L 85.365602 158.016557 
L 85.67027 157.002265 
L 85.974939 158.314878 
L 86.279607 157.360251 
L 86.584275 157.658572 
L 86.888943 158.19555 
L 87.193612 159.030849 
L 87.49828 156.882937 
L 87.802948 157.06193 
L 88.107617 158.91152 
L 88.412285 157.300587 
L 88.716953 157.419915 
L 89.021622 158.19555 
L 89.32629 157.419915 
L 89.630958 157.658572 
L 90.240295 156.524952 
L 90.544963 158.792192 
L 90.849631 158.553535 
L 91.1543 156.882937 
L 91.458968 158.732528 
L 92.068305 157.539243 
L 92.372973 158.016557 
L 92.677641 156.703944 
L 93.286978 158.314878 
L 93.591646 156.823273 
L 93.896314 159.269506 
L 94.200983 160.403126 
L 94.505651 162.01406 
L 94.810319 159.687155 
L 95.114988 158.255214 
L 95.419656 159.448498 
L 95.724324 156.942601 
L 96.028993 160.164469 
L 96.333661 159.090513 
L 96.638329 158.553535 
L 96.942998 158.732528 
L 97.247666 159.627491 
L 97.552334 158.255214 
L 97.857002 159.687155 
L 98.466339 157.658572 
L 99.075676 159.269506 
L 99.380344 157.897229 
L 99.685012 157.300587 
L 99.989681 161.775403 
L 100.294349 157.419915 
L 100.599017 158.434207 
L 100.903686 157.539243 
L 101.513022 159.388834 
L 101.81769 159.448498 
L 102.122359 157.658572 
L 102.427027 159.746819 
L 102.731695 156.823273 
L 103.036364 157.539243 
L 103.341032 161.477082 
L 103.6457 154.138383 
L 103.950369 157.240922 
L 104.255037 156.524952 
L 104.559705 156.584616 
L 104.864373 156.107302 
L 105.169042 154.496368 
L 105.47371 156.465287 
L 105.778378 155.987974 
L 106.083047 157.897229 
L 106.387715 156.166966 
L 106.692383 157.300587 
L 106.997052 156.107302 
L 107.30172 157.002265 
L 107.606388 154.436704 
L 107.911057 156.107302 
L 108.215725 155.033346 
L 108.520393 158.016557 
L 108.825061 151.155172 
L 109.434398 159.448498 
L 109.739066 154.794689 
L 110.043735 155.212339 
L 110.348403 151.990471 
L 110.653071 161.715739 
L 110.95774 148.768604 
L 111.262408 153.780398 
L 111.567076 154.973682 
L 111.871744 157.121594 
L 112.176413 145.487072 
L 112.785749 157.002265 
L 113.090418 146.02405 
L 113.395086 154.735025 
L 113.699754 154.794689 
L 114.004423 143.100503 
L 114.309091 151.632486 
L 114.613759 153.004763 
L 114.918428 140.534942 
L 115.223096 148.231626 
L 115.527764 139.759307 
L 115.832432 156.405623 
L 116.137101 118.817167 
L 116.441769 172.813283 
L 116.746437 146.859349 
L 117.051106 152.348457 
L 117.355774 130.03404 
L 117.660442 177.765413 
L 117.965111 173.76791 
L 118.269779 167.204846 
L 118.574447 174.304888 
L 118.879115 212.191666 
L 119.183784 146.919013 
L 119.488452 212.847972 
L 120.097789 179.018361 
L 120.402457 174.424217 
L 120.707125 166.369547 
L 121.011794 161.417417 
L 121.316462 161.477082 
L 121.62113 160.403126 
L 121.925799 160.224133 
L 122.230467 159.687155 
L 122.535135 160.46279 
L 122.839803 159.32917 
L 123.144472 161.417417 
L 123.44914 160.940104 
L 123.753808 160.999768 
L 124.058477 162.252716 
L 124.363145 161.417417 
L 124.667813 162.193052 
L 124.972482 161.656074 
L 125.27715 160.88044 
L 125.581818 162.073724 
L 125.886486 161.357753 
L 126.191155 161.835067 
L 126.495823 161.894731 
L 126.800491 162.849359 
L 127.10516 162.909023 
L 127.409828 161.178761 
L 128.019165 159.32917 
L 128.323833 158.434207 
L 128.628501 159.090513 
L 128.93317 156.465287 
L 129.237838 152.527449 
L 129.542506 157.718236 
L 129.847174 157.360251 
L 130.151843 158.016557 
L 130.456511 157.121594 
L 130.761179 157.658572 
L 131.065848 155.450996 
L 131.370516 156.345959 
L 131.675184 154.078719 
L 132.284521 156.584616 
L 132.589189 155.331667 
L 132.893857 154.615697 
L 133.503194 155.450996 
L 134.112531 151.811479 
L 134.417199 158.792192 
L 134.721867 157.718236 
L 135.026536 157.419915 
L 135.331204 154.556033 
L 135.635872 165.534248 
L 135.940541 159.985476 
L 136.245209 156.524952 
L 136.549877 161.835067 
L 136.854545 160.04514 
L 137.159214 166.488876 
L 137.463882 156.584616 
L 137.76855 170.307386 
L 138.073219 161.059432 
L 138.377887 163.923315 
L 138.682555 172.097312 
L 138.987224 169.472087 
L 139.59656 176.631793 
L 139.901229 183.910827 
L 140.205897 181.345266 
L 140.510565 166.071226 
L 140.815233 184.80579 
L 141.119902 168.457795 
L 141.42457 163.088016 
L 141.729238 169.054437 
L 142.033907 105.392718 
L 142.338575 118.518846 
L 142.643243 119.354145 
L 142.947912 108.256601 
L 143.25258 103.781784 
L 143.557248 145.487072 
L 143.861916 152.527449 
L 144.166585 154.436704 
L 144.471253 154.019055 
L 144.775921 154.914018 
L 145.08059 153.183756 
L 145.385258 153.064427 
L 145.689926 153.601405 
L 146.299263 150.856851 
L 146.9086 150.439202 
L 147.517936 153.24342 
L 148.127273 158.613199 
L 148.431941 159.567827 
L 148.736609 164.698949 
L 149.041278 160.343462 
L 149.345946 162.789694 
L 149.650614 163.267008 
L 149.955283 164.400628 
L 150.259951 161.894731 
L 150.564619 163.386337 
L 150.869287 163.088016 
L 151.173956 164.698949 
L 151.478624 158.91152 
L 151.783292 162.849359 
L 152.087961 152.467785 
L 152.392629 155.033346 
L 152.697297 155.629988 
L 153.001966 157.06193 
L 153.306634 146.262706 
L 153.611302 154.794689 
L 153.915971 138.924008 
L 154.220639 146.74002 
L 154.525307 123.769297 
L 154.829975 128.661763 
L 155.134644 135.642476 
L 155.439312 126.991165 
L 155.74398 131.286988 
L 156.048649 176.631793 
L 156.353317 141.78789 
L 156.657985 224.064845 
L 156.962654 238.026271 
L 157.267322 209.626104 
L 157.57199 192.621803 
L 157.876658 165.713241 
L 158.181327 162.431709 
L 158.485995 161.835067 
L 158.790663 161.536746 
L 159.4 164.698949 
L 159.704668 165.176263 
L 160.314005 166.727533 
L 160.618673 167.204846 
L 160.923342 164.161971 
L 161.22801 162.491373 
L 161.837346 158.553535 
L 162.142015 149.603903 
L 162.446683 157.419915 
L 162.751351 156.345959 
L 163.360688 153.24342 
L 163.665356 153.95939 
L 163.970025 155.391332 
L 164.274693 155.391332 
L 164.579361 154.019055 
L 164.884029 153.422412 
L 165.188698 154.973682 
L 165.493366 155.749317 
L 165.798034 155.749317 
L 166.712039 162.551038 
L 167.016708 159.806484 
L 167.321376 164.221636 
L 167.626044 160.999768 
L 167.930713 166.727533 
L 168.235381 167.443503 
L 168.540049 175.199851 
L 168.844717 173.05194 
L 169.149386 184.80579 
L 169.454054 179.436011 
L 169.758722 200.318487 
L 170.063391 173.529253 
L 170.672727 165.772905 
L 170.977396 181.225937 
L 171.282064 135.045834 
L 171.586732 53.962164 
L 171.8914 112.970074 
L 172.196069 100.32126 
L 172.805405 149.961888 
L 173.110074 153.780398 
L 173.414742 152.587113 
L 173.71941 152.288792 
L 174.024079 153.24342 
L 174.328747 150.618194 
L 174.633415 151.871143 
L 174.938084 150.856851 
L 175.242752 152.587113 
L 175.54742 151.871143 
L 175.852088 150.737523 
L 176.156757 151.274501 
L 176.461425 153.661069 
L 176.766093 153.95939 
L 177.070762 155.629988 
L 177.37543 156.226631 
L 177.680098 156.047638 
L 177.984767 163.624993 
L 178.289435 160.164469 
L 178.594103 159.806484 
L 178.898771 160.283797 
L 179.20344 160.04514 
L 179.508108 161.059432 
L 179.812776 160.761111 
L 180.117445 159.508163 
L 180.422113 159.508163 
L 181.03145 162.909023 
L 181.336118 159.388834 
L 181.640786 165.056935 
L 181.945455 157.181258 
L 182.250123 161.715739 
L 182.554791 156.226631 
L 182.859459 157.181258 
L 183.164128 156.823273 
L 183.468796 157.7779 
L 183.773464 154.794689 
L 184.078133 154.675361 
L 184.382801 157.539243 
L 184.687469 155.689653 
L 184.992138 150.140881 
L 185.296806 159.030849 
L 185.601474 153.124091 
L 185.906143 154.556033 
L 186.210811 149.902224 
L 186.515479 154.138383 
L 186.820147 148.112297 
L 187.124816 151.334165 
L 187.429484 151.274501 
L 187.734152 141.370241 
L 188.038821 153.541741 
L 188.648157 138.566023 
L 188.952826 154.138383 
L 189.257494 149.245917 
L 189.562162 155.570324 
L 189.86683 146.083714 
L 190.171499 182.478886 
L 190.476167 155.391332 
L 191.085504 136.83576 
L 191.390172 147.754312 
L 191.999509 153.303084 
L 192.304177 133.315572 
L 192.913514 152.945099 
L 193.218182 134.150871 
L 193.52285 162.01406 
L 193.827518 146.799684 
L 194.132187 187.90833 
L 194.436855 122.635677 
L 194.741523 201.21345 
L 195.046192 167.324175 
L 195.35086 216.905139 
L 195.655528 174.90153 
L 195.960197 203.89834 
L 196.264865 195.008371 
L 196.569533 174.662873 
L 196.874201 183.612506 
L 197.17887 166.130891 
L 197.788206 159.32917 
L 198.092875 158.016557 
L 198.397543 158.135886 
L 198.702211 159.32917 
L 199.00688 157.837564 
L 199.311548 158.016557 
L 199.616216 158.851856 
L 200.225553 158.672863 
L 200.530221 158.076221 
L 201.139558 158.016557 
L 201.444226 158.314878 
L 201.748894 157.002265 
L 202.053563 156.763609 
L 202.358231 157.419915 
L 202.662899 157.360251 
L 202.967568 157.539243 
L 203.272236 157.300587 
L 203.576904 156.763609 
L 203.881572 158.135886 
L 204.186241 156.64428 
L 204.490909 156.763609 
L 204.795577 157.300587 
L 205.100246 156.882937 
L 205.404914 157.419915 
L 205.709582 155.093011 
L 206.014251 155.749317 
L 206.318919 155.570324 
L 206.928256 156.345959 
L 207.232924 156.345959 
L 207.537592 155.987974 
L 207.84226 155.152675 
L 208.146929 155.987974 
L 208.451597 155.093011 
L 208.756265 154.556033 
L 209.060934 154.496368 
L 209.365602 152.945099 
L 209.67027 149.126589 
L 209.974939 131.943295 
L 210.279607 107.719623 
L 210.584275 105.154061 
L 210.888943 83.973265 
L 211.193612 95.309466 
L 211.49828 187.132695 
L 211.802948 132.420608 
L 212.107617 145.845057 
L 212.412285 180.808288 
L 212.716953 185.820082 
L 213.021622 188.385643 
L 213.630958 165.593913 
L 213.935627 189.698256 
L 214.240295 167.68216 
L 214.544963 175.378844 
L 214.849631 162.610702 
L 215.1543 172.693954 
L 215.458968 163.386337 
L 215.763636 165.295592 
L 216.068305 162.968687 
L 216.372973 162.551038 
L 216.677641 159.448498 
L 216.98231 159.746819 
L 217.286978 160.522454 
L 217.591646 160.701447 
L 217.896314 155.450996 
L 218.200983 159.687155 
L 218.505651 155.92831 
L 218.810319 161.298089 
L 219.114988 155.272003 
L 219.419656 156.166966 
L 219.724324 157.718236 
L 220.028993 155.987974 
L 220.333661 155.272003 
L 220.942998 152.288792 
L 221.247666 153.720734 
L 221.552334 152.646778 
L 221.857002 154.257711 
L 222.161671 155.212339 
L 222.466339 152.467785 
L 223.075676 155.629988 
L 223.380344 155.749317 
L 223.685012 154.257711 
L 223.989681 150.916515 
L 224.294349 157.360251 
L 224.599017 158.374542 
L 224.903686 158.135886 
L 225.208354 161.298089 
L 225.513022 161.954395 
L 225.81769 162.193052 
L 226.122359 161.715739 
L 226.427027 163.684658 
L 227.036364 161.954395 
L 227.341032 162.789694 
L 227.6457 160.940104 
L 227.950369 161.357753 
L 228.255037 161.178761 
L 228.559705 161.59641 
L 228.864373 160.283797 
L 229.169042 160.164469 
L 229.47371 159.209841 
L 229.778378 160.701447 
L 230.083047 158.971185 
L 230.387715 158.851856 
L 230.997052 158.016557 
L 231.30172 159.806484 
L 231.606388 159.32917 
L 231.911057 160.46279 
L 232.215725 162.193052 
L 232.520393 165.772905 
L 232.825061 163.207344 
L 233.12973 166.96619 
L 233.434398 150.916515 
L 233.739066 157.002265 
L 234.043735 157.718236 
L 234.348403 151.274501 
L 234.653071 162.789694 
L 234.95774 153.124091 
L 235.262408 154.198047 
L 235.567076 155.808981 
L 235.871744 152.527449 
L 236.481081 154.436704 
L 237.090418 155.272003 
L 237.699754 155.570324 
L 238.004423 156.405623 
L 238.309091 155.331667 
L 238.613759 155.868645 
L 238.918428 155.093011 
L 239.223096 156.286295 
L 239.527764 155.808981 
L 239.832432 156.107302 
L 240.137101 156.047638 
L 240.441769 155.51066 
L 240.746437 155.212339 
L 241.051106 154.735025 
L 241.355774 154.914018 
L 241.965111 156.047638 
L 242.269779 155.629988 
L 242.574447 155.689653 
L 242.879115 154.019055 
L 243.183784 153.899726 
L 243.79312 153.064427 
L 244.097789 154.257711 
L 244.402457 153.95939 
L 244.707125 152.885435 
L 245.011794 153.362748 
L 245.316462 154.675361 
L 245.62113 153.124091 
L 245.925799 154.436704 
L 246.230467 153.601405 
L 246.535135 155.152675 
L 246.839803 157.658572 
L 247.144472 157.718236 
L 247.44914 156.166966 
L 247.753808 157.539243 
L 248.058477 160.940104 
L 248.363145 160.88044 
L 248.667813 157.121594 
L 248.972482 157.718236 
L 249.27715 159.030849 
L 249.581818 158.613199 
L 249.886486 159.985476 
L 250.191155 157.897229 
L 250.495823 160.641783 
L 250.800491 159.388834 
L 251.10516 160.343462 
L 251.409828 158.434207 
L 251.714496 160.582118 
L 252.019165 159.687155 
L 252.323833 160.164469 
L 252.628501 158.91152 
L 252.93317 159.150177 
L 253.237838 157.181258 
L 253.542506 157.897229 
L 253.847174 154.914018 
L 254.151843 159.209841 
L 254.456511 153.362748 
L 254.761179 160.940104 
L 255.065848 150.797187 
L 255.370516 157.300587 
L 255.675184 150.319873 
L 255.979853 157.598908 
L 256.284521 152.945099 
L 256.589189 155.689653 
L 256.893857 154.496368 
L 257.198526 155.272003 
L 257.503194 148.589611 
L 257.807862 152.82577 
L 258.112531 152.050135 
L 258.417199 153.422412 
L 258.721867 146.203042 
L 259.026536 152.706442 
L 259.331204 153.004763 
L 259.635872 152.945099 
L 259.940541 152.1098 
L 260.245209 151.871143 
L 260.549877 159.806484 
L 260.854545 152.587113 
L 261.159214 154.675361 
L 261.463882 149.365246 
L 261.76855 163.386337 
L 262.073219 151.035844 
L 262.682555 160.701447 
L 262.987224 161.536746 
L 263.291892 153.601405 
L 263.59656 158.434207 
L 263.901229 161.357753 
L 264.205897 159.627491 
L 264.510565 154.973682 
L 264.815233 161.59641 
L 265.119902 162.670366 
L 265.42457 153.780398 
L 265.729238 166.309883 
L 266.033907 157.06193 
L 266.338575 161.775403 
L 266.643243 154.675361 
L 266.947912 158.792192 
L 267.25258 152.766106 
L 267.557248 161.715739 
L 268.166585 156.882937 
L 268.471253 160.582118 
L 268.775921 157.598908 
L 269.08059 152.587113 
L 269.385258 161.715739 
L 269.689926 152.766106 
L 269.994595 157.419915 
L 270.299263 153.780398 
L 270.603931 154.973682 
L 270.9086 152.050135 
L 271.213268 157.837564 
L 271.517936 151.572822 
L 272.127273 159.866148 
L 272.431941 154.019055 
L 272.736609 150.55853 
L 273.041278 158.314878 
L 273.345946 157.240922 
L 273.650614 159.150177 
L 273.955283 150.97618 
L 274.259951 157.002265 
L 274.564619 154.854354 
L 274.869287 162.491373 
L 275.173956 151.035844 
L 275.478624 154.854354 
L 275.783292 163.326672 
L 276.087961 156.405623 
L 276.392629 156.107302 
L 276.697297 156.286295 
L 277.001966 158.971185 
L 277.306634 151.632486 
L 277.611302 164.579621 
L 277.915971 153.601405 
L 278.220639 162.431709 
L 278.525307 157.837564 
L 278.829975 155.808981 
L 279.439312 162.968687 
L 279.74398 157.956893 
L 280.048649 160.104805 
L 280.353317 157.897229 
L 280.657985 160.403126 
L 280.962654 156.763609 
L 281.267322 158.374542 
L 281.57199 162.431709 
L 281.876658 155.987974 
L 282.181327 158.91152 
L 282.485995 159.985476 
L 282.790663 160.522454 
L 283.095332 157.897229 
L 283.4 161.536746 
L 283.704668 154.257711 
L 284.009337 158.076221 
L 284.314005 155.272003 
L 284.618673 157.658572 
L 284.923342 153.899726 
L 285.22801 156.465287 
L 285.532678 152.169464 
L 285.837346 155.033346 
L 286.142015 153.899726 
L 286.446683 155.808981 
L 286.751351 154.078719 
L 287.05602 153.840062 
L 287.360688 151.632486 
L 287.665356 154.138383 
L 287.970025 153.064427 
L 288.274693 153.899726 
L 288.579361 155.570324 
L 288.884029 153.303084 
L 289.493366 157.598908 
L 289.798034 157.479579 
L 291.016708 163.982979 
L 291.321376 164.042643 
L 291.626044 164.400628 
L 291.930713 164.400628 
L 292.235381 163.207344 
L 292.540049 162.789694 
L 292.844717 161.357753 
L 293.149386 160.522454 
L 293.454054 160.940104 
L 293.758722 159.090513 
L 294.063391 160.343462 
L 294.368059 166.54854 
L 294.977396 218.396744 
L 295.282064 226.212756 
L 295.586732 183.552842 
L 295.8914 197.752925 
L 296.196069 129.556726 
L 296.500737 179.913325 
L 296.805405 113.686044 
L 297.110074 150.439202 
L 297.414742 125.857544 
L 297.71941 128.005456 
L 298.328747 142.981175 
L 298.633415 140.594606 
L 298.938084 143.219831 
L 299.54742 155.629988 
L 300.156757 150.200545 
L 300.461425 156.524952 
L 300.766093 155.033346 
L 301.37543 155.570324 
L 301.680098 160.46279 
L 301.984767 162.133388 
L 302.289435 159.866148 
L 302.594103 160.940104 
L 302.898771 161.238425 
L 303.20344 159.627491 
L 303.508108 162.372045 
L 303.812776 161.477082 
L 304.117445 159.150177 
L 304.422113 161.119096 
L 304.726781 158.553535 
L 305.03145 159.567827 
L 305.336118 162.610702 
L 305.640786 156.405623 
L 306.250123 154.198047 
L 306.554791 150.498866 
L 306.859459 149.544238 
L 307.468796 150.140881 
L 307.773464 151.453493 
L 308.078133 150.379537 
L 308.382801 150.618194 
L 308.992138 152.169464 
L 309.296806 151.69215 
L 309.601474 153.541741 
L 309.906143 153.780398 
L 310.210811 150.140881 
L 310.515479 125.678552 
L 310.820147 138.148373 
L 311.124816 83.19763 
L 311.429484 114.76 
L 311.734152 125.678552 
L 312.343489 151.990471 
L 312.648157 179.316682 
L 312.952826 184.08982 
L 313.257494 183.731834 
L 313.562162 186.35706 
L 313.86683 175.856158 
L 314.171499 177.58642 
L 314.476167 166.54854 
L 314.780835 166.250219 
L 315.085504 169.591415 
L 315.390172 160.46279 
L 315.69484 158.792192 
L 315.999509 161.059432 
L 316.304177 156.703944 
L 316.608845 154.198047 
L 316.913514 154.854354 
L 317.218182 151.751814 
L 317.52285 153.601405 
L 317.827518 149.603903 
L 318.132187 153.541741 
L 318.436855 152.288792 
L 318.741523 149.902224 
L 319.046192 152.288792 
L 319.35086 151.811479 
L 319.655528 154.198047 
L 319.960197 148.768604 
L 320.264865 157.897229 
L 320.569533 158.135886 
L 321.17887 166.190555 
L 321.483538 166.488876 
L 321.788206 166.250219 
L 322.092875 163.923315 
L 322.702211 162.73003 
L 323.00688 162.252716 
L 323.311548 161.477082 
L 323.616216 160.283797 
L 323.920885 164.519957 
L 324.225553 182.478886 
L 324.530221 225.854771 
L 324.834889 203.242033 
L 325.139558 204.196661 
L 325.444226 208.611813 
L 325.748894 140.475277 
L 326.053563 153.780398 
L 326.358231 128.960084 
L 326.662899 135.403819 
L 326.967568 136.060125 
L 327.272236 132.30128 
L 327.576904 125.976873 
L 327.881572 142.742518 
L 328.186241 149.603903 
L 328.490909 145.248415 
L 328.795577 149.066925 
L 329.100246 150.439202 
L 329.404914 152.527449 
L 329.709582 152.408121 
L 330.014251 151.871143 
L 330.318919 154.496368 
L 330.623587 159.746819 
L 330.928256 155.331667 
L 331.232924 159.746819 
L 331.537592 158.613199 
L 331.84226 161.59641 
L 332.146929 160.820775 
L 332.451597 160.88044 
L 332.756265 161.894731 
L 333.365602 158.553535 
L 333.67027 163.446001 
L 333.974939 159.448498 
L 334.279607 159.627491 
L 334.584275 159.150177 
L 334.888943 159.090513 
L 335.193612 157.658572 
L 335.49828 158.135886 
L 335.802948 157.598908 
L 336.107617 162.133388 
L 336.412285 158.016557 
L 336.716953 156.942601 
L 337.021622 154.794689 
L 337.32629 156.64428 
L 337.630958 154.854354 
L 337.935627 155.92831 
L 338.240295 155.033346 
L 338.544963 155.808981 
L 338.849631 155.92831 
L 339.1543 155.570324 
L 339.458968 154.794689 
L 339.763636 155.331667 
L 340.068305 154.794689 
L 340.372973 155.868645 
L 340.677641 154.257711 
L 340.98231 155.093011 
L 341.286978 155.391332 
L 341.591646 155.391332 
L 341.896314 156.465287 
L 342.200983 156.226631 
L 342.505651 155.689653 
L 342.810319 155.570324 
L 343.114988 155.808981 
L 343.724324 157.360251 
L 344.028993 157.7779 
L 344.333661 156.703944 
L 344.638329 158.255214 
L 344.942998 158.016557 
L 345.247666 158.016557 
L 345.552334 157.897229 
L 345.857002 157.181258 
L 346.161671 157.240922 
L 346.466339 156.226631 
L 346.771007 150.856851 
L 347.075676 154.496368 
L 347.380344 156.345959 
L 347.685012 153.303084 
L 347.989681 154.257711 
L 348.294349 153.601405 
L 348.599017 151.811479 
L 348.903686 151.095508 
L 349.208354 153.780398 
L 349.513022 153.303084 
L 349.81769 152.408121 
L 350.122359 153.95939 
L 350.427027 153.24342 
L 350.731695 153.95939 
L 351.036364 149.723231 
L 351.341032 155.92831 
L 351.6457 155.152675 
L 351.950369 155.51066 
L 352.255037 156.345959 
L 352.559705 159.746819 
L 352.864373 154.914018 
L 353.169042 161.298089 
L 353.47371 156.882937 
L 353.778378 164.102307 
L 354.083047 158.732528 
L 354.387715 165.116599 
L 354.692383 156.047638 
L 354.997052 170.36705 
L 355.30172 162.193052 
L 355.606388 169.472087 
L 355.911057 168.696452 
L 356.215725 185.044447 
L 356.520393 179.793996 
L 356.825061 165.534248 
L 357.12973 171.202349 
L 357.434398 189.161278 
L 357.739066 165.056935 
L 358.043735 149.782895 
L 358.348403 152.646778 
L 358.653071 159.508163 
L 358.95774 144.174459 
L 359.262408 79.319456 
L 359.567076 134.270199 
L 360.176413 111.776789 
L 360.481081 124.902917 
L 360.785749 146.382035 
L 361.090418 151.990471 
L 361.395086 152.706442 
L 361.699754 153.064427 
L 362.309091 152.646778 
L 362.613759 152.348457 
L 362.918428 151.274501 
L 363.223096 151.334165 
L 363.527764 149.603903 
L 363.832432 149.305582 
L 364.137101 149.842559 
L 364.441769 149.663567 
L 364.746437 149.961888 
L 365.051106 152.766106 
L 365.355774 152.229128 
L 365.660442 154.556033 
L 366.269779 156.942601 
L 366.879115 161.954395 
L 367.183784 157.7779 
L 367.488452 159.209841 
L 367.79312 160.104805 
L 368.097789 158.19555 
L 368.402457 160.04514 
L 368.707125 161.119096 
L 369.011794 157.956893 
L 369.316462 160.88044 
L 369.62113 157.956893 
L 369.925799 157.956893 
L 370.230467 160.283797 
L 370.535135 159.269506 
L 370.839803 158.851856 
L 371.144472 161.178761 
L 371.44914 159.150177 
L 371.753808 156.166966 
L 372.363145 158.971185 
L 372.667813 156.465287 
L 372.972482 156.524952 
L 373.27715 155.212339 
L 373.581818 157.897229 
L 373.581818 157.897229 
" style="fill:none;stroke:#ffa500;stroke-linecap:square;stroke-width:0.3;"/>
   </g>
   <g id="patch_3">
    <path d="M 54 252 
L 54 34.56 
" style="fill:none;stroke:#000000;stroke-linecap:square;stroke-linejoin:miter;stroke-width:0.8;"/>
   </g>
   <g id="patch_4">
    <path d="M 388.8 252 
L 388.8 34.56 
" style="fill:none;stroke:#000000;stroke-linecap:square;stroke-linejoin:miter;stroke-width:0.8;"/>
   </g>
   <g id="patch_5">
    <path d="M 54 252 
L 388.8 252 
" style="fill:none;stroke:#000000;stroke-linecap:square;stroke-linejoin:miter;stroke-width:0.8;"/>
   </g>
   <g id="patch_6">
    <path d="M 54 34.56 
L 388.8 34.56 
" style="fill:none;stroke:#000000;stroke-linecap:square;stroke-linejoin:miter;stroke-width:0.8;"/>
   </g>
   <g id="text_17">
    <!-- SPGD Detectors TP1 Testing S2 Lineup Post Map  -->
    <defs>
     <path d="M 53.515625 70.515625 
L 53.515625 60.890625 
Q 47.90625 63.578125 42.921875 64.890625 
Q 37.9375 66.21875 33.296875 66.21875 
Q 25.25 66.21875 20.875 63.09375 
Q 16.5 59.96875 16.5 54.203125 
Q 16.5 49.359375 19.40625 46.890625 
Q 22.3125 44.4375 30.421875 42.921875 
L 36.375 41.703125 
Q 47.40625 39.59375 52.65625 34.296875 
Q 57.90625 29 57.90625 20.125 
Q 57.90625 9.515625 50.796875 4.046875 
Q 43.703125 -1.421875 29.984375 -1.421875 
Q 24.8125 -1.421875 18.96875 -0.25 
Q 13.140625 0.921875 6.890625 3.21875 
L 6.890625 13.375 
Q 12.890625 10.015625 18.65625 8.296875 
Q 24.421875 6.59375 29.984375 6.59375 
Q 38.421875 6.59375 43.015625 9.90625 
Q 47.609375 13.234375 47.609375 19.390625 
Q 47.609375 24.75 44.3125 27.78125 
Q 41.015625 30.8125 33.5 32.328125 
L 27.484375 33.5 
Q 16.453125 35.6875 11.515625 40.375 
Q 6.59375 45.0625 6.59375 53.421875 
Q 6.59375 63.09375 13.40625 68.65625 
Q 20.21875 74.21875 32.171875 74.21875 
Q 37.3125 74.21875 42.625 73.28125 
Q 47.953125 72.359375 53.515625 70.515625 
" id="DejaVuSans-53"/>
     <path d="M 19.671875 64.796875 
L 19.671875 37.40625 
L 32.078125 37.40625 
Q 38.96875 37.40625 42.71875 40.96875 
Q 46.484375 44.53125 46.484375 51.125 
Q 46.484375 57.671875 42.71875 61.234375 
Q 38.96875 64.796875 32.078125 64.796875 
z
M 9.8125 72.90625 
L 32.078125 72.90625 
Q 44.34375 72.90625 50.609375 67.359375 
Q 56.890625 61.8125 56.890625 51.125 
Q 56.890625 40.328125 50.609375 34.8125 
Q 44.34375 29.296875 32.078125 29.296875 
L 19.671875 29.296875 
L 19.671875 0 
L 9.8125 0 
z
" id="DejaVuSans-50"/>
     <path d="M 59.515625 10.40625 
L 59.515625 29.984375 
L 43.40625 29.984375 
L 43.40625 38.09375 
L 69.28125 38.09375 
L 69.28125 6.78125 
Q 63.578125 2.734375 56.6875 0.65625 
Q 49.8125 -1.421875 42 -1.421875 
Q 24.90625 -1.421875 15.25 8.5625 
Q 5.609375 18.5625 5.609375 36.375 
Q 5.609375 54.25 15.25 64.234375 
Q 24.90625 74.21875 42 74.21875 
Q 49.125 74.21875 55.546875 72.453125 
Q 61.96875 70.703125 67.390625 67.28125 
L 67.390625 56.78125 
Q 61.921875 61.421875 55.765625 63.765625 
Q 49.609375 66.109375 42.828125 66.109375 
Q 29.4375 66.109375 22.71875 58.640625 
Q 16.015625 51.171875 16.015625 36.375 
Q 16.015625 21.625 22.71875 14.15625 
Q 29.4375 6.6875 42.828125 6.6875 
Q 48.046875 6.6875 52.140625 7.59375 
Q 56.25 8.5 59.515625 10.40625 
" id="DejaVuSans-47"/>
     <path d="M 19.671875 64.796875 
L 19.671875 8.109375 
L 31.59375 8.109375 
Q 46.6875 8.109375 53.6875 14.9375 
Q 60.6875 21.78125 60.6875 36.53125 
Q 60.6875 51.171875 53.6875 57.984375 
Q 46.6875 64.796875 31.59375 64.796875 
z
M 9.8125 72.90625 
L 30.078125 72.90625 
Q 51.265625 72.90625 61.171875 64.09375 
Q 71.09375 55.28125 71.09375 36.53125 
Q 71.09375 17.671875 61.125 8.828125 
Q 51.171875 0 30.078125 0 
L 9.8125 0 
z
" id="DejaVuSans-44"/>
     <path d="M 41.109375 46.296875 
Q 39.59375 47.171875 37.8125 47.578125 
Q 36.03125 48 33.890625 48 
Q 26.265625 48 22.1875 43.046875 
Q 18.109375 38.09375 18.109375 28.8125 
L 18.109375 0 
L 9.078125 0 
L 9.078125 54.6875 
L 18.109375 54.6875 
L 18.109375 46.1875 
Q 20.953125 51.171875 25.484375 53.578125 
Q 30.03125 56 36.53125 56 
Q 37.453125 56 38.578125 55.875 
Q 39.703125 55.765625 41.0625 55.515625 
z
" id="DejaVuSans-72"/>
     <path d="M -0.296875 72.90625 
L 61.375 72.90625 
L 61.375 64.59375 
L 35.5 64.59375 
L 35.5 0 
L 25.59375 0 
L 25.59375 64.59375 
L -0.296875 64.59375 
z
" id="DejaVuSans-54"/>
     <path d="M 45.40625 27.984375 
Q 45.40625 37.75 41.375 43.109375 
Q 37.359375 48.484375 30.078125 48.484375 
Q 22.859375 48.484375 18.828125 43.109375 
Q 14.796875 37.75 14.796875 27.984375 
Q 14.796875 18.265625 18.828125 12.890625 
Q 22.859375 7.515625 30.078125 7.515625 
Q 37.359375 7.515625 41.375 12.890625 
Q 45.40625 18.265625 45.40625 27.984375 
M 54.390625 6.78125 
Q 54.390625 -7.171875 48.1875 -13.984375 
Q 42 -20.796875 29.203125 -20.796875 
Q 24.46875 -20.796875 20.265625 -20.09375 
Q 16.0625 -19.390625 12.109375 -17.921875 
L 12.109375 -9.1875 
Q 16.0625 -11.328125 19.921875 -12.34375 
Q 23.78125 -13.375 27.78125 -13.375 
Q 36.625 -13.375 41.015625 -8.765625 
Q 45.40625 -4.15625 45.40625 5.171875 
L 45.40625 9.625 
Q 42.625 4.78125 38.28125 2.390625 
Q 33.9375 0 27.875 0 
Q 17.828125 0 11.671875 7.65625 
Q 5.515625 15.328125 5.515625 27.984375 
Q 5.515625 40.671875 11.671875 48.328125 
Q 17.828125 56 27.875 56 
Q 33.9375 56 38.28125 53.609375 
Q 42.625 51.21875 45.40625 46.390625 
L 45.40625 54.6875 
L 54.390625 54.6875 
z
" id="DejaVuSans-67"/>
     <path d="M 9.8125 72.90625 
L 19.671875 72.90625 
L 19.671875 8.296875 
L 55.171875 8.296875 
L 55.171875 0 
L 9.8125 0 
z
" id="DejaVuSans-4c"/>
     <path d="M 8.5 21.578125 
L 8.5 54.6875 
L 17.484375 54.6875 
L 17.484375 21.921875 
Q 17.484375 14.15625 20.5 10.265625 
Q 23.53125 6.390625 29.59375 6.390625 
Q 36.859375 6.390625 41.078125 11.03125 
Q 45.3125 15.671875 45.3125 23.6875 
L 45.3125 54.6875 
L 54.296875 54.6875 
L 54.296875 0 
L 45.3125 0 
L 45.3125 8.40625 
Q 42.046875 3.421875 37.71875 1 
Q 33.40625 -1.421875 27.6875 -1.421875 
Q 18.265625 -1.421875 13.375 4.4375 
Q 8.5 10.296875 8.5 21.578125 
M 31.109375 56 
z
" id="DejaVuSans-75"/>
     <path d="M 18.109375 8.203125 
L 18.109375 -20.796875 
L 9.078125 -20.796875 
L 9.078125 54.6875 
L 18.109375 54.6875 
L 18.109375 46.390625 
Q 20.953125 51.265625 25.265625 53.625 
Q 29.59375 56 35.59375 56 
Q 45.5625 56 51.78125 48.09375 
Q 58.015625 40.1875 58.015625 27.296875 
Q 58.015625 14.40625 51.78125 6.484375 
Q 45.5625 -1.421875 35.59375 -1.421875 
Q 29.59375 -1.421875 25.265625 0.953125 
Q 20.953125 3.328125 18.109375 8.203125 
M 48.6875 27.296875 
Q 48.6875 37.203125 44.609375 42.84375 
Q 40.53125 48.484375 33.40625 48.484375 
Q 26.265625 48.484375 22.1875 42.84375 
Q 18.109375 37.203125 18.109375 27.296875 
Q 18.109375 17.390625 22.1875 11.75 
Q 26.265625 6.109375 33.40625 6.109375 
Q 40.53125 6.109375 44.609375 11.75 
Q 48.6875 17.390625 48.6875 27.296875 
" id="DejaVuSans-70"/>
     <path d="M 9.8125 72.90625 
L 24.515625 72.90625 
L 43.109375 23.296875 
L 61.8125 72.90625 
L 76.515625 72.90625 
L 76.515625 0 
L 66.890625 0 
L 66.890625 64.015625 
L 48.09375 14.015625 
L 38.1875 14.015625 
L 19.390625 64.015625 
L 19.390625 0 
L 9.8125 0 
z
" id="DejaVuSans-4d"/>
    </defs>
    <g transform="translate(73.812188 28.56)scale(0.12 -0.12)">
     <use xlink:href="#DejaVuSans-53"/>
     <use x="63.476562" xlink:href="#DejaVuSans-50"/>
     <use x="123.779297" xlink:href="#DejaVuSans-47"/>
     <use x="201.269531" xlink:href="#DejaVuSans-44"/>
     <use x="278.271484" xlink:href="#DejaVuSans-20"/>
     <use x="310.058594" xlink:href="#DejaVuSans-44"/>
     <use x="387.060547" xlink:href="#DejaVuSans-65"/>
     <use x="448.583984" xlink:href="#DejaVuSans-74"/>
     <use x="487.792969" xlink:href="#DejaVuSans-65"/>
     <use x="549.316406" xlink:href="#DejaVuSans-63"/>
     <use x="604.296875" xlink:href="#DejaVuSans-74"/>
     <use x="643.505859" xlink:href="#DejaVuSans-6f"/>
     <use x="704.6875" xlink:href="#DejaVuSans-72"/>
     <use x="745.800781" xlink:href="#DejaVuSans-73"/>
     <use x="797.900391" xlink:href="#DejaVuSans-20"/>
     <use x="829.6875" xlink:href="#DejaVuSans-54"/>
     <use x="890.771484" xlink:href="#DejaVuSans-50"/>
     <use x="951.074219" xlink:href="#DejaVuSans-31"/>
     <use x="1014.697266" xlink:href="#DejaVuSans-20"/>
     <use x="1046.484375" xlink:href="#DejaVuSans-54"/>
     <use x="1107.302734" xlink:href="#DejaVuSans-65"/>
     <use x="1168.826172" xlink:href="#DejaVuSans-73"/>
     <use x="1220.925781" xlink:href="#DejaVuSans-74"/>
     <use x="1260.134766" xlink:href="#DejaVuSans-69"/>
     <use x="1287.917969" xlink:href="#DejaVuSans-6e"/>
     <use x="1351.296875" xlink:href="#DejaVuSans-67"/>
     <use x="1414.773438" xlink:href="#DejaVuSans-20"/>
     <use x="1446.560547" xlink:href="#DejaVuSans-53"/>
     <use x="1510.037109" xlink:href="#DejaVuSans-32"/>
     <use x="1573.660156" xlink:href="#DejaVuSans-20"/>
     <use x="1605.447266" xlink:href="#DejaVuSans-4c"/>
     <use x="1661.160156" xlink:href="#DejaVuSans-69"/>
     <use x="1688.943359" xlink:href="#DejaVuSans-6e"/>
     <use x="1752.322266" xlink:href="#DejaVuSans-65"/>
     <use x="1813.845703" xlink:href="#DejaVuSans-75"/>
     <use x="1877.224609" xlink:href="#DejaVuSans-70"/>
     <use x="1940.701172" xlink:href="#DejaVuSans-20"/>
     <use x="1972.488281" xlink:href="#DejaVuSans-50"/>
     <use x="2032.744141" xlink:href="#DejaVuSans-6f"/>
     <use x="2093.925781" xlink:href="#DejaVuSans-73"/>
     <use x="2146.025391" xlink:href="#DejaVuSans-74"/>
     <use x="2185.234375" xlink:href="#DejaVuSans-20"/>
     <use x="2217.021484" xlink:href="#DejaVuSans-4d"/>
     <use x="2303.300781" xlink:href="#DejaVuSans-61"/>
     <use x="2364.580078" xlink:href="#DejaVuSans-70"/>
     <use x="2428.056641" xlink:href="#DejaVuSans-20"/>
    </g>
   </g>
  </g>
 </g>
 <defs>
  <clipPath id="p255fff8d43">
   <rect height="217.44" width="334.8" x="54" y="34.56"/>
  </clipPath>
 </defs>
</svg>
