<?xml version="1.0" encoding="utf-8" standalone="no"?>
<!DOCTYPE svg PUBLIC "-//W3C//DTD SVG 1.1//EN"
  "http://www.w3.org/Graphics/SVG/1.1/DTD/svg11.dtd">
<!-- Created with matplotlib (http://matplotlib.org/) -->
<svg height="288pt" version="1.1" viewBox="0 0 432 288" width="432pt" xmlns="http://www.w3.org/2000/svg" xmlns:xlink="http://www.w3.org/1999/xlink">
 <defs>
  <style type="text/css">
*{stroke-linecap:butt;stroke-linejoin:round;}
  </style>
 </defs>
 <g id="figure_1">
  <g id="patch_1">
   <path d="M 0 288 
L 432 288 
L 432 0 
L 0 0 
z
" style="fill:#ffffff;"/>
  </g>
  <g id="axes_1">
   <g id="patch_2">
    <path d="M 54 252 
L 388.8 252 
L 388.8 34.56 
L 54 34.56 
z
" style="fill:#ffffff;"/>
   </g>
   <g id="matplotlib.axis_1">
    <g id="xtick_1">
     <g id="line2d_1">
      <path clip-path="url(#p9f72ee7fce)" d="M 69.218182 252 
L 69.218182 34.56 
" style="fill:none;stroke:#b0b0b0;stroke-linecap:square;stroke-width:0.8;"/>
     </g>
     <g id="line2d_2">
      <defs>
       <path d="M 0 0 
L 0 3.5 
" id="mb31a977e59" style="stroke:#000000;stroke-width:0.8;"/>
      </defs>
      <g>
       <use style="stroke:#000000;stroke-width:0.8;" x="69.218182" xlink:href="#mb31a977e59" y="252"/>
      </g>
     </g>
     <g id="text_1">
      <!-- 0 -->
      <defs>
       <path d="M 31.78125 66.40625 
Q 24.171875 66.40625 20.328125 58.90625 
Q 16.5 51.421875 16.5 36.375 
Q 16.5 21.390625 20.328125 13.890625 
Q 24.171875 6.390625 31.78125 6.390625 
Q 39.453125 6.390625 43.28125 13.890625 
Q 47.125 21.390625 47.125 36.375 
Q 47.125 51.421875 43.28125 58.90625 
Q 39.453125 66.40625 31.78125 66.40625 
M 31.78125 74.21875 
Q 44.046875 74.21875 50.515625 64.515625 
Q 56.984375 54.828125 56.984375 36.375 
Q 56.984375 17.96875 50.515625 8.265625 
Q 44.046875 -1.421875 31.78125 -1.421875 
Q 19.53125 -1.421875 13.0625 8.265625 
Q 6.59375 17.96875 6.59375 36.375 
Q 6.59375 54.828125 13.0625 64.515625 
Q 19.53125 74.21875 31.78125 74.21875 
" id="DejaVuSans-30"/>
      </defs>
      <g transform="translate(66.036932 266.598437)scale(0.1 -0.1)">
       <use xlink:href="#DejaVuSans-30"/>
      </g>
     </g>
    </g>
    <g id="xtick_2">
     <g id="line2d_3">
      <path clip-path="url(#p9f72ee7fce)" d="M 130.151843 252 
L 130.151843 34.56 
" style="fill:none;stroke:#b0b0b0;stroke-linecap:square;stroke-width:0.8;"/>
     </g>
     <g id="line2d_4">
      <g>
       <use style="stroke:#000000;stroke-width:0.8;" x="130.151843" xlink:href="#mb31a977e59" y="252"/>
      </g>
     </g>
     <g id="text_2">
      <!-- 200 -->
      <defs>
       <path d="M 19.1875 8.296875 
L 53.609375 8.296875 
L 53.609375 0 
L 7.328125 0 
L 7.328125 8.296875 
Q 12.9375 14.109375 22.625 23.890625 
Q 32.328125 33.6875 34.8125 36.53125 
Q 39.546875 41.84375 41.421875 45.53125 
Q 43.3125 49.21875 43.3125 52.78125 
Q 43.3125 58.59375 39.234375 62.25 
Q 35.15625 65.921875 28.609375 65.921875 
Q 23.96875 65.921875 18.8125 64.3125 
Q 13.671875 62.703125 7.8125 59.421875 
L 7.8125 69.390625 
Q 13.765625 71.78125 18.9375 73 
Q 24.125 74.21875 28.421875 74.21875 
Q 39.75 74.21875 46.484375 68.546875 
Q 53.21875 62.890625 53.21875 53.421875 
Q 53.21875 48.921875 51.53125 44.890625 
Q 49.859375 40.875 45.40625 35.40625 
Q 44.1875 33.984375 37.640625 27.21875 
Q 31.109375 20.453125 19.1875 8.296875 
" id="DejaVuSans-32"/>
      </defs>
      <g transform="translate(120.608093 266.598437)scale(0.1 -0.1)">
       <use xlink:href="#DejaVuSans-32"/>
       <use x="63.623047" xlink:href="#DejaVuSans-30"/>
       <use x="127.246094" xlink:href="#DejaVuSans-30"/>
      </g>
     </g>
    </g>
    <g id="xtick_3">
     <g id="line2d_5">
      <path clip-path="url(#p9f72ee7fce)" d="M 191.085504 252 
L 191.085504 34.56 
" style="fill:none;stroke:#b0b0b0;stroke-linecap:square;stroke-width:0.8;"/>
     </g>
     <g id="line2d_6">
      <g>
       <use style="stroke:#000000;stroke-width:0.8;" x="191.085504" xlink:href="#mb31a977e59" y="252"/>
      </g>
     </g>
     <g id="text_3">
      <!-- 400 -->
      <defs>
       <path d="M 37.796875 64.3125 
L 12.890625 25.390625 
L 37.796875 25.390625 
z
M 35.203125 72.90625 
L 47.609375 72.90625 
L 47.609375 25.390625 
L 58.015625 25.390625 
L 58.015625 17.1875 
L 47.609375 17.1875 
L 47.609375 0 
L 37.796875 0 
L 37.796875 17.1875 
L 4.890625 17.1875 
L 4.890625 26.703125 
z
" id="DejaVuSans-34"/>
      </defs>
      <g transform="translate(181.541754 266.598437)scale(0.1 -0.1)">
       <use xlink:href="#DejaVuSans-34"/>
       <use x="63.623047" xlink:href="#DejaVuSans-30"/>
       <use x="127.246094" xlink:href="#DejaVuSans-30"/>
      </g>
     </g>
    </g>
    <g id="xtick_4">
     <g id="line2d_7">
      <path clip-path="url(#p9f72ee7fce)" d="M 252.019165 252 
L 252.019165 34.56 
" style="fill:none;stroke:#b0b0b0;stroke-linecap:square;stroke-width:0.8;"/>
     </g>
     <g id="line2d_8">
      <g>
       <use style="stroke:#000000;stroke-width:0.8;" x="252.019165" xlink:href="#mb31a977e59" y="252"/>
      </g>
     </g>
     <g id="text_4">
      <!-- 600 -->
      <defs>
       <path d="M 33.015625 40.375 
Q 26.375 40.375 22.484375 35.828125 
Q 18.609375 31.296875 18.609375 23.390625 
Q 18.609375 15.53125 22.484375 10.953125 
Q 26.375 6.390625 33.015625 6.390625 
Q 39.65625 6.390625 43.53125 10.953125 
Q 47.40625 15.53125 47.40625 23.390625 
Q 47.40625 31.296875 43.53125 35.828125 
Q 39.65625 40.375 33.015625 40.375 
M 52.59375 71.296875 
L 52.59375 62.3125 
Q 48.875 64.0625 45.09375 64.984375 
Q 41.3125 65.921875 37.59375 65.921875 
Q 27.828125 65.921875 22.671875 59.328125 
Q 17.53125 52.734375 16.796875 39.40625 
Q 19.671875 43.65625 24.015625 45.921875 
Q 28.375 48.1875 33.59375 48.1875 
Q 44.578125 48.1875 50.953125 41.515625 
Q 57.328125 34.859375 57.328125 23.390625 
Q 57.328125 12.15625 50.6875 5.359375 
Q 44.046875 -1.421875 33.015625 -1.421875 
Q 20.359375 -1.421875 13.671875 8.265625 
Q 6.984375 17.96875 6.984375 36.375 
Q 6.984375 53.65625 15.1875 63.9375 
Q 23.390625 74.21875 37.203125 74.21875 
Q 40.921875 74.21875 44.703125 73.484375 
Q 48.484375 72.75 52.59375 71.296875 
" id="DejaVuSans-36"/>
      </defs>
      <g transform="translate(242.475415 266.598437)scale(0.1 -0.1)">
       <use xlink:href="#DejaVuSans-36"/>
       <use x="63.623047" xlink:href="#DejaVuSans-30"/>
       <use x="127.246094" xlink:href="#DejaVuSans-30"/>
      </g>
     </g>
    </g>
    <g id="xtick_5">
     <g id="line2d_9">
      <path clip-path="url(#p9f72ee7fce)" d="M 312.952826 252 
L 312.952826 34.56 
" style="fill:none;stroke:#b0b0b0;stroke-linecap:square;stroke-width:0.8;"/>
     </g>
     <g id="line2d_10">
      <g>
       <use style="stroke:#000000;stroke-width:0.8;" x="312.952826" xlink:href="#mb31a977e59" y="252"/>
      </g>
     </g>
     <g id="text_5">
      <!-- 800 -->
      <defs>
       <path d="M 31.78125 34.625 
Q 24.75 34.625 20.71875 30.859375 
Q 16.703125 27.09375 16.703125 20.515625 
Q 16.703125 13.921875 20.71875 10.15625 
Q 24.75 6.390625 31.78125 6.390625 
Q 38.8125 6.390625 42.859375 10.171875 
Q 46.921875 13.96875 46.921875 20.515625 
Q 46.921875 27.09375 42.890625 30.859375 
Q 38.875 34.625 31.78125 34.625 
M 21.921875 38.8125 
Q 15.578125 40.375 12.03125 44.71875 
Q 8.5 49.078125 8.5 55.328125 
Q 8.5 64.0625 14.71875 69.140625 
Q 20.953125 74.21875 31.78125 74.21875 
Q 42.671875 74.21875 48.875 69.140625 
Q 55.078125 64.0625 55.078125 55.328125 
Q 55.078125 49.078125 51.53125 44.71875 
Q 48 40.375 41.703125 38.8125 
Q 48.828125 37.15625 52.796875 32.3125 
Q 56.78125 27.484375 56.78125 20.515625 
Q 56.78125 9.90625 50.3125 4.234375 
Q 43.84375 -1.421875 31.78125 -1.421875 
Q 19.734375 -1.421875 13.25 4.234375 
Q 6.78125 9.90625 6.78125 20.515625 
Q 6.78125 27.484375 10.78125 32.3125 
Q 14.796875 37.15625 21.921875 38.8125 
M 18.3125 54.390625 
Q 18.3125 48.734375 21.84375 45.5625 
Q 25.390625 42.390625 31.78125 42.390625 
Q 38.140625 42.390625 41.71875 45.5625 
Q 45.3125 48.734375 45.3125 54.390625 
Q 45.3125 60.0625 41.71875 63.234375 
Q 38.140625 66.40625 31.78125 66.40625 
Q 25.390625 66.40625 21.84375 63.234375 
Q 18.3125 60.0625 18.3125 54.390625 
" id="DejaVuSans-38"/>
      </defs>
      <g transform="translate(303.409076 266.598437)scale(0.1 -0.1)">
       <use xlink:href="#DejaVuSans-38"/>
       <use x="63.623047" xlink:href="#DejaVuSans-30"/>
       <use x="127.246094" xlink:href="#DejaVuSans-30"/>
      </g>
     </g>
    </g>
    <g id="xtick_6">
     <g id="line2d_11">
      <path clip-path="url(#p9f72ee7fce)" d="M 373.886486 252 
L 373.886486 34.56 
" style="fill:none;stroke:#b0b0b0;stroke-linecap:square;stroke-width:0.8;"/>
     </g>
     <g id="line2d_12">
      <g>
       <use style="stroke:#000000;stroke-width:0.8;" x="373.886486" xlink:href="#mb31a977e59" y="252"/>
      </g>
     </g>
     <g id="text_6">
      <!-- 1000 -->
      <defs>
       <path d="M 12.40625 8.296875 
L 28.515625 8.296875 
L 28.515625 63.921875 
L 10.984375 60.40625 
L 10.984375 69.390625 
L 28.421875 72.90625 
L 38.28125 72.90625 
L 38.28125 8.296875 
L 54.390625 8.296875 
L 54.390625 0 
L 12.40625 0 
z
" id="DejaVuSans-31"/>
      </defs>
      <g transform="translate(361.161486 266.598437)scale(0.1 -0.1)">
       <use xlink:href="#DejaVuSans-31"/>
       <use x="63.623047" xlink:href="#DejaVuSans-30"/>
       <use x="127.246094" xlink:href="#DejaVuSans-30"/>
       <use x="190.869141" xlink:href="#DejaVuSans-30"/>
      </g>
     </g>
    </g>
    <g id="text_7">
     <!-- seconds -->
     <defs>
      <path d="M 44.28125 53.078125 
L 44.28125 44.578125 
Q 40.484375 46.53125 36.375 47.5 
Q 32.28125 48.484375 27.875 48.484375 
Q 21.1875 48.484375 17.84375 46.4375 
Q 14.5 44.390625 14.5 40.28125 
Q 14.5 37.15625 16.890625 35.375 
Q 19.28125 33.59375 26.515625 31.984375 
L 29.59375 31.296875 
Q 39.15625 29.25 43.1875 25.515625 
Q 47.21875 21.78125 47.21875 15.09375 
Q 47.21875 7.46875 41.1875 3.015625 
Q 35.15625 -1.421875 24.609375 -1.421875 
Q 20.21875 -1.421875 15.453125 -0.5625 
Q 10.6875 0.296875 5.421875 2 
L 5.421875 11.28125 
Q 10.40625 8.6875 15.234375 7.390625 
Q 20.0625 6.109375 24.8125 6.109375 
Q 31.15625 6.109375 34.5625 8.28125 
Q 37.984375 10.453125 37.984375 14.40625 
Q 37.984375 18.0625 35.515625 20.015625 
Q 33.0625 21.96875 24.703125 23.78125 
L 21.578125 24.515625 
Q 13.234375 26.265625 9.515625 29.90625 
Q 5.8125 33.546875 5.8125 39.890625 
Q 5.8125 47.609375 11.28125 51.796875 
Q 16.75 56 26.8125 56 
Q 31.78125 56 36.171875 55.265625 
Q 40.578125 54.546875 44.28125 53.078125 
" id="DejaVuSans-73"/>
      <path d="M 56.203125 29.59375 
L 56.203125 25.203125 
L 14.890625 25.203125 
Q 15.484375 15.921875 20.484375 11.0625 
Q 25.484375 6.203125 34.421875 6.203125 
Q 39.59375 6.203125 44.453125 7.46875 
Q 49.3125 8.734375 54.109375 11.28125 
L 54.109375 2.78125 
Q 49.265625 0.734375 44.1875 -0.34375 
Q 39.109375 -1.421875 33.890625 -1.421875 
Q 20.796875 -1.421875 13.15625 6.1875 
Q 5.515625 13.8125 5.515625 26.8125 
Q 5.515625 40.234375 12.765625 48.109375 
Q 20.015625 56 32.328125 56 
Q 43.359375 56 49.78125 48.890625 
Q 56.203125 41.796875 56.203125 29.59375 
M 47.21875 32.234375 
Q 47.125 39.59375 43.09375 43.984375 
Q 39.0625 48.390625 32.421875 48.390625 
Q 24.90625 48.390625 20.390625 44.140625 
Q 15.875 39.890625 15.1875 32.171875 
z
" id="DejaVuSans-65"/>
      <path d="M 48.78125 52.59375 
L 48.78125 44.1875 
Q 44.96875 46.296875 41.140625 47.34375 
Q 37.3125 48.390625 33.40625 48.390625 
Q 24.65625 48.390625 19.8125 42.84375 
Q 14.984375 37.3125 14.984375 27.296875 
Q 14.984375 17.28125 19.8125 11.734375 
Q 24.65625 6.203125 33.40625 6.203125 
Q 37.3125 6.203125 41.140625 7.25 
Q 44.96875 8.296875 48.78125 10.40625 
L 48.78125 2.09375 
Q 45.015625 0.34375 40.984375 -0.53125 
Q 36.96875 -1.421875 32.421875 -1.421875 
Q 20.0625 -1.421875 12.78125 6.34375 
Q 5.515625 14.109375 5.515625 27.296875 
Q 5.515625 40.671875 12.859375 48.328125 
Q 20.21875 56 33.015625 56 
Q 37.15625 56 41.109375 55.140625 
Q 45.0625 54.296875 48.78125 52.59375 
" id="DejaVuSans-63"/>
      <path d="M 30.609375 48.390625 
Q 23.390625 48.390625 19.1875 42.75 
Q 14.984375 37.109375 14.984375 27.296875 
Q 14.984375 17.484375 19.15625 11.84375 
Q 23.34375 6.203125 30.609375 6.203125 
Q 37.796875 6.203125 41.984375 11.859375 
Q 46.1875 17.53125 46.1875 27.296875 
Q 46.1875 37.015625 41.984375 42.703125 
Q 37.796875 48.390625 30.609375 48.390625 
M 30.609375 56 
Q 42.328125 56 49.015625 48.375 
Q 55.71875 40.765625 55.71875 27.296875 
Q 55.71875 13.875 49.015625 6.21875 
Q 42.328125 -1.421875 30.609375 -1.421875 
Q 18.84375 -1.421875 12.171875 6.21875 
Q 5.515625 13.875 5.515625 27.296875 
Q 5.515625 40.765625 12.171875 48.375 
Q 18.84375 56 30.609375 56 
" id="DejaVuSans-6f"/>
      <path d="M 54.890625 33.015625 
L 54.890625 0 
L 45.90625 0 
L 45.90625 32.71875 
Q 45.90625 40.484375 42.875 44.328125 
Q 39.84375 48.1875 33.796875 48.1875 
Q 26.515625 48.1875 22.3125 43.546875 
Q 18.109375 38.921875 18.109375 30.90625 
L 18.109375 0 
L 9.078125 0 
L 9.078125 54.6875 
L 18.109375 54.6875 
L 18.109375 46.1875 
Q 21.34375 51.125 25.703125 53.5625 
Q 30.078125 56 35.796875 56 
Q 45.21875 56 50.046875 50.171875 
Q 54.890625 44.34375 54.890625 33.015625 
" id="DejaVuSans-6e"/>
      <path d="M 45.40625 46.390625 
L 45.40625 75.984375 
L 54.390625 75.984375 
L 54.390625 0 
L 45.40625 0 
L 45.40625 8.203125 
Q 42.578125 3.328125 38.25 0.953125 
Q 33.9375 -1.421875 27.875 -1.421875 
Q 17.96875 -1.421875 11.734375 6.484375 
Q 5.515625 14.40625 5.515625 27.296875 
Q 5.515625 40.1875 11.734375 48.09375 
Q 17.96875 56 27.875 56 
Q 33.9375 56 38.25 53.625 
Q 42.578125 51.265625 45.40625 46.390625 
M 14.796875 27.296875 
Q 14.796875 17.390625 18.875 11.75 
Q 22.953125 6.109375 30.078125 6.109375 
Q 37.203125 6.109375 41.296875 11.75 
Q 45.40625 17.390625 45.40625 27.296875 
Q 45.40625 37.203125 41.296875 42.84375 
Q 37.203125 48.484375 30.078125 48.484375 
Q 22.953125 48.484375 18.875 42.84375 
Q 14.796875 37.203125 14.796875 27.296875 
" id="DejaVuSans-64"/>
     </defs>
     <g transform="translate(200.9625 280.276563)scale(0.1 -0.1)">
      <use xlink:href="#DejaVuSans-73"/>
      <use x="52.099609" xlink:href="#DejaVuSans-65"/>
      <use x="113.623047" xlink:href="#DejaVuSans-63"/>
      <use x="168.603516" xlink:href="#DejaVuSans-6f"/>
      <use x="229.785156" xlink:href="#DejaVuSans-6e"/>
      <use x="293.164062" xlink:href="#DejaVuSans-64"/>
      <use x="356.640625" xlink:href="#DejaVuSans-73"/>
     </g>
    </g>
   </g>
   <g id="matplotlib.axis_2">
    <g id="ytick_1">
     <g id="line2d_13">
      <path clip-path="url(#p9f72ee7fce)" d="M 54 226.743178 
L 388.8 226.743178 
" style="fill:none;stroke:#b0b0b0;stroke-linecap:square;stroke-width:0.8;"/>
     </g>
     <g id="line2d_14">
      <defs>
       <path d="M 0 0 
L -3.5 0 
" id="m1ac0f70d2b" style="stroke:#000000;stroke-width:0.8;"/>
      </defs>
      <g>
       <use style="stroke:#000000;stroke-width:0.8;" x="54" xlink:href="#m1ac0f70d2b" y="226.743178"/>
      </g>
     </g>
     <g id="text_8">
      <!-- −1000 -->
      <defs>
       <path d="M 10.59375 35.5 
L 73.1875 35.5 
L 73.1875 27.203125 
L 10.59375 27.203125 
z
" id="DejaVuSans-2212"/>
      </defs>
      <g transform="translate(13.170313 230.542397)scale(0.1 -0.1)">
       <use xlink:href="#DejaVuSans-2212"/>
       <use x="83.789062" xlink:href="#DejaVuSans-31"/>
       <use x="147.412109" xlink:href="#DejaVuSans-30"/>
       <use x="211.035156" xlink:href="#DejaVuSans-30"/>
       <use x="274.658203" xlink:href="#DejaVuSans-30"/>
      </g>
     </g>
    </g>
    <g id="ytick_2">
     <g id="line2d_15">
      <path clip-path="url(#p9f72ee7fce)" d="M 54 186.198849 
L 388.8 186.198849 
" style="fill:none;stroke:#b0b0b0;stroke-linecap:square;stroke-width:0.8;"/>
     </g>
     <g id="line2d_16">
      <g>
       <use style="stroke:#000000;stroke-width:0.8;" x="54" xlink:href="#m1ac0f70d2b" y="186.198849"/>
      </g>
     </g>
     <g id="text_9">
      <!-- −500 -->
      <defs>
       <path d="M 10.796875 72.90625 
L 49.515625 72.90625 
L 49.515625 64.59375 
L 19.828125 64.59375 
L 19.828125 46.734375 
Q 21.96875 47.46875 24.109375 47.828125 
Q 26.265625 48.1875 28.421875 48.1875 
Q 40.625 48.1875 47.75 41.5 
Q 54.890625 34.8125 54.890625 23.390625 
Q 54.890625 11.625 47.5625 5.09375 
Q 40.234375 -1.421875 26.90625 -1.421875 
Q 22.3125 -1.421875 17.546875 -0.640625 
Q 12.796875 0.140625 7.71875 1.703125 
L 7.71875 11.625 
Q 12.109375 9.234375 16.796875 8.0625 
Q 21.484375 6.890625 26.703125 6.890625 
Q 35.15625 6.890625 40.078125 11.328125 
Q 45.015625 15.765625 45.015625 23.390625 
Q 45.015625 31 40.078125 35.4375 
Q 35.15625 39.890625 26.703125 39.890625 
Q 22.75 39.890625 18.8125 39.015625 
Q 14.890625 38.140625 10.796875 36.28125 
z
" id="DejaVuSans-35"/>
      </defs>
      <g transform="translate(19.532812 189.998068)scale(0.1 -0.1)">
       <use xlink:href="#DejaVuSans-2212"/>
       <use x="83.789062" xlink:href="#DejaVuSans-35"/>
       <use x="147.412109" xlink:href="#DejaVuSans-30"/>
       <use x="211.035156" xlink:href="#DejaVuSans-30"/>
      </g>
     </g>
    </g>
    <g id="ytick_3">
     <g id="line2d_17">
      <path clip-path="url(#p9f72ee7fce)" d="M 54 145.654521 
L 388.8 145.654521 
" style="fill:none;stroke:#b0b0b0;stroke-linecap:square;stroke-width:0.8;"/>
     </g>
     <g id="line2d_18">
      <g>
       <use style="stroke:#000000;stroke-width:0.8;" x="54" xlink:href="#m1ac0f70d2b" y="145.654521"/>
      </g>
     </g>
     <g id="text_10">
      <!-- 0 -->
      <g transform="translate(40.6375 149.453739)scale(0.1 -0.1)">
       <use xlink:href="#DejaVuSans-30"/>
      </g>
     </g>
    </g>
    <g id="ytick_4">
     <g id="line2d_19">
      <path clip-path="url(#p9f72ee7fce)" d="M 54 105.110192 
L 388.8 105.110192 
" style="fill:none;stroke:#b0b0b0;stroke-linecap:square;stroke-width:0.8;"/>
     </g>
     <g id="line2d_20">
      <g>
       <use style="stroke:#000000;stroke-width:0.8;" x="54" xlink:href="#m1ac0f70d2b" y="105.110192"/>
      </g>
     </g>
     <g id="text_11">
      <!-- 500 -->
      <g transform="translate(27.9125 108.909411)scale(0.1 -0.1)">
       <use xlink:href="#DejaVuSans-35"/>
       <use x="63.623047" xlink:href="#DejaVuSans-30"/>
       <use x="127.246094" xlink:href="#DejaVuSans-30"/>
      </g>
     </g>
    </g>
    <g id="ytick_5">
     <g id="line2d_21">
      <path clip-path="url(#p9f72ee7fce)" d="M 54 64.565863 
L 388.8 64.565863 
" style="fill:none;stroke:#b0b0b0;stroke-linecap:square;stroke-width:0.8;"/>
     </g>
     <g id="line2d_22">
      <g>
       <use style="stroke:#000000;stroke-width:0.8;" x="54" xlink:href="#m1ac0f70d2b" y="64.565863"/>
      </g>
     </g>
     <g id="text_12">
      <!-- 1000 -->
      <g transform="translate(21.55 68.365082)scale(0.1 -0.1)">
       <use xlink:href="#DejaVuSans-31"/>
       <use x="63.623047" xlink:href="#DejaVuSans-30"/>
       <use x="127.246094" xlink:href="#DejaVuSans-30"/>
       <use x="190.869141" xlink:href="#DejaVuSans-30"/>
      </g>
     </g>
    </g>
    <g id="text_13">
     <!-- Kilowatts  -->
     <defs>
      <path d="M 9.8125 72.90625 
L 19.671875 72.90625 
L 19.671875 42.09375 
L 52.390625 72.90625 
L 65.09375 72.90625 
L 28.90625 38.921875 
L 67.671875 0 
L 54.6875 0 
L 19.671875 35.109375 
L 19.671875 0 
L 9.8125 0 
z
" id="DejaVuSans-4b"/>
      <path d="M 9.421875 54.6875 
L 18.40625 54.6875 
L 18.40625 0 
L 9.421875 0 
z
M 9.421875 75.984375 
L 18.40625 75.984375 
L 18.40625 64.59375 
L 9.421875 64.59375 
z
" id="DejaVuSans-69"/>
      <path d="M 9.421875 75.984375 
L 18.40625 75.984375 
L 18.40625 0 
L 9.421875 0 
z
" id="DejaVuSans-6c"/>
      <path d="M 4.203125 54.6875 
L 13.1875 54.6875 
L 24.421875 12.015625 
L 35.59375 54.6875 
L 46.1875 54.6875 
L 57.421875 12.015625 
L 68.609375 54.6875 
L 77.59375 54.6875 
L 63.28125 0 
L 52.6875 0 
L 40.921875 44.828125 
L 29.109375 0 
L 18.5 0 
z
" id="DejaVuSans-77"/>
      <path d="M 34.28125 27.484375 
Q 23.390625 27.484375 19.1875 25 
Q 14.984375 22.515625 14.984375 16.5 
Q 14.984375 11.71875 18.140625 8.90625 
Q 21.296875 6.109375 26.703125 6.109375 
Q 34.1875 6.109375 38.703125 11.40625 
Q 43.21875 16.703125 43.21875 25.484375 
L 43.21875 27.484375 
z
M 52.203125 31.203125 
L 52.203125 0 
L 43.21875 0 
L 43.21875 8.296875 
Q 40.140625 3.328125 35.546875 0.953125 
Q 30.953125 -1.421875 24.3125 -1.421875 
Q 15.921875 -1.421875 10.953125 3.296875 
Q 6 8.015625 6 15.921875 
Q 6 25.140625 12.171875 29.828125 
Q 18.359375 34.515625 30.609375 34.515625 
L 43.21875 34.515625 
L 43.21875 35.40625 
Q 43.21875 41.609375 39.140625 45 
Q 35.0625 48.390625 27.6875 48.390625 
Q 23 48.390625 18.546875 47.265625 
Q 14.109375 46.140625 10.015625 43.890625 
L 10.015625 52.203125 
Q 14.9375 54.109375 19.578125 55.046875 
Q 24.21875 56 28.609375 56 
Q 40.484375 56 46.34375 49.84375 
Q 52.203125 43.703125 52.203125 31.203125 
" id="DejaVuSans-61"/>
      <path d="M 18.3125 70.21875 
L 18.3125 54.6875 
L 36.8125 54.6875 
L 36.8125 47.703125 
L 18.3125 47.703125 
L 18.3125 18.015625 
Q 18.3125 11.328125 20.140625 9.421875 
Q 21.96875 7.515625 27.59375 7.515625 
L 36.8125 7.515625 
L 36.8125 0 
L 27.59375 0 
Q 17.1875 0 13.234375 3.875 
Q 9.28125 7.765625 9.28125 18.015625 
L 9.28125 47.703125 
L 2.6875 47.703125 
L 2.6875 54.6875 
L 9.28125 54.6875 
L 9.28125 70.21875 
z
" id="DejaVuSans-74"/>
      <path id="DejaVuSans-20"/>
     </defs>
     <g transform="translate(7.090625 167.663594)rotate(-90)scale(0.1 -0.1)">
      <use xlink:href="#DejaVuSans-4b"/>
      <use x="65.576172" xlink:href="#DejaVuSans-69"/>
      <use x="93.359375" xlink:href="#DejaVuSans-6c"/>
      <use x="121.142578" xlink:href="#DejaVuSans-6f"/>
      <use x="182.324219" xlink:href="#DejaVuSans-77"/>
      <use x="264.111328" xlink:href="#DejaVuSans-61"/>
      <use x="325.390625" xlink:href="#DejaVuSans-74"/>
      <use x="364.599609" xlink:href="#DejaVuSans-74"/>
      <use x="403.808594" xlink:href="#DejaVuSans-73"/>
      <use x="455.908203" xlink:href="#DejaVuSans-20"/>
     </g>
    </g>
   </g>
   <g id="line2d_23">
    <path clip-path="url(#p9f72ee7fce)" d="M 69.218182 145.421965 
L 69.52285 146.645944 
L 69.827518 147.869924 
L 70.132187 147.257934 
L 70.436855 147.257934 
L 70.741523 146.645944 
L 71.046192 146.645944 
L 71.35086 146.033954 
L 71.960197 146.033954 
L 72.264865 146.645944 
L 72.569533 146.645944 
L 73.788206 144.197985 
L 74.092875 144.197985 
L 74.397543 143.585995 
L 74.702211 144.809975 
L 75.00688 144.809975 
L 75.311548 145.421965 
L 75.616216 146.645944 
L 75.920885 146.645944 
L 76.225553 145.421965 
L 76.530221 145.421965 
L 77.139558 146.645944 
L 77.444226 146.645944 
L 77.748894 146.033954 
L 78.053563 148.481914 
L 78.358231 147.869924 
L 78.662899 149.093904 
L 78.967568 148.481914 
L 79.272236 146.645944 
L 79.576904 147.257934 
L 79.881572 146.645944 
L 80.186241 147.257934 
L 80.490909 147.257934 
L 80.795577 147.869924 
L 81.100246 147.869924 
L 81.404914 147.257934 
L 81.709582 147.869924 
L 82.014251 147.257934 
L 82.318919 146.033954 
L 82.623587 146.645944 
L 82.928256 148.481914 
L 83.232924 147.869924 
L 83.537592 148.481914 
L 83.84226 147.257934 
L 84.146929 147.869924 
L 84.451597 146.645944 
L 84.756265 147.257934 
L 85.060934 146.645944 
L 85.365602 147.869924 
L 85.974939 147.869924 
L 86.279607 147.257934 
L 86.584275 146.033954 
L 86.888943 146.645944 
L 87.49828 146.645944 
L 87.802948 147.869924 
L 88.107617 146.645944 
L 88.412285 146.645944 
L 88.716953 146.033954 
L 89.021622 146.033954 
L 89.32629 147.257934 
L 89.630958 147.257934 
L 89.935627 146.645944 
L 90.544963 146.645944 
L 90.849631 149.705894 
L 91.1543 149.093904 
L 91.458968 149.705894 
L 91.763636 153.377833 
L 92.068305 146.645944 
L 92.372973 165.61763 
L 92.677641 135.630127 
L 92.98231 168.06559 
L 93.286978 152.153853 
L 93.591646 165.61763 
L 93.896314 164.39365 
L 94.200983 182.141357 
L 94.505651 153.989823 
L 94.810319 177.857428 
L 95.114988 150.317883 
L 95.419656 147.869924 
L 95.724324 135.018137 
L 96.028993 159.497731 
L 96.333661 128.898238 
L 96.638329 128.898238 
L 97.247666 144.197985 
L 97.552334 141.138035 
L 97.857002 129.510228 
L 98.466339 143.585995 
L 98.771007 135.018137 
L 99.075676 137.466096 
L 99.380344 138.078086 
L 99.685012 142.974005 
L 99.989681 140.526046 
L 100.294349 139.302066 
L 100.903686 140.526046 
L 101.208354 144.809975 
L 101.513022 136.242117 
L 101.81769 146.033954 
L 102.122359 142.974005 
L 102.731695 145.421965 
L 103.036364 145.421965 
L 103.341032 144.197985 
L 103.6457 143.585995 
L 104.255037 147.869924 
L 104.559705 144.197985 
L 104.864373 144.197985 
L 105.169042 145.421965 
L 105.47371 145.421965 
L 105.778378 144.197985 
L 106.083047 143.585995 
L 106.387715 150.317883 
L 106.692383 146.033954 
L 106.997052 146.033954 
L 107.30172 143.585995 
L 107.606388 146.033954 
L 107.911057 144.809975 
L 108.215725 147.257934 
L 108.825061 144.197985 
L 109.12973 148.481914 
L 109.434398 147.257934 
L 109.739066 144.809975 
L 110.043735 147.869924 
L 110.348403 144.197985 
L 110.653071 148.481914 
L 110.95774 146.033954 
L 111.262408 149.705894 
L 111.567076 145.421965 
L 111.871744 148.481914 
L 112.176413 147.257934 
L 112.481081 151.541863 
L 112.785749 153.989823 
L 113.090418 152.153853 
L 113.395086 147.869924 
L 113.699754 155.213802 
L 114.004423 149.705894 
L 114.309091 158.273752 
L 114.613759 156.437782 
L 114.918428 166.22962 
L 115.527764 154.601813 
L 115.832432 151.541863 
L 116.137101 150.317883 
L 116.441769 166.22962 
L 116.746437 134.406147 
L 117.051106 147.257934 
L 117.660442 133.794157 
L 117.965111 81.775018 
L 118.269779 108.090583 
L 118.574447 114.822471 
L 118.879115 136.242117 
L 119.183784 141.138035 
L 119.488452 142.362015 
L 119.79312 141.750025 
L 120.097789 143.585995 
L 120.402457 141.750025 
L 120.707125 142.362015 
L 121.316462 141.138035 
L 121.925799 138.690076 
L 122.230467 139.914056 
L 122.535135 142.362015 
L 122.839803 142.362015 
L 123.44914 145.421965 
L 123.753808 145.421965 
L 124.058477 152.153853 
L 124.363145 148.481914 
L 124.667813 147.257934 
L 124.972482 148.481914 
L 125.581818 148.481914 
L 125.886486 147.257934 
L 126.191155 148.481914 
L 126.495823 147.257934 
L 126.800491 148.481914 
L 127.10516 146.033954 
L 127.409828 147.257934 
L 127.714496 144.197985 
L 128.019165 144.809975 
L 128.323833 143.585995 
L 128.628501 144.197985 
L 128.93317 141.750025 
L 129.237838 141.750025 
L 129.542506 139.914056 
L 129.847174 139.914056 
L 130.151843 141.750025 
L 130.456511 130.734208 
L 130.761179 131.346198 
L 131.065848 122.778339 
L 131.370516 127.674258 
L 131.675184 128.286248 
L 131.979853 139.302066 
L 132.284521 142.974005 
L 133.198526 203.561002 
L 133.503194 167.4536 
L 133.807862 151.541863 
L 134.112531 149.093904 
L 134.417199 148.481914 
L 134.721867 152.153853 
L 135.026536 152.765843 
L 135.635872 155.213802 
L 136.549877 141.750025 
L 136.854545 140.526046 
L 137.159214 142.974005 
L 137.76855 138.078086 
L 138.073219 141.138035 
L 138.682555 141.138035 
L 138.987224 142.974005 
L 139.291892 147.257934 
L 139.59656 145.421965 
L 139.901229 150.929873 
L 140.205897 150.317883 
L 140.510565 164.39365 
L 140.815233 158.273752 
L 141.119902 181.529367 
L 141.42457 169.901559 
L 141.729238 178.469417 
L 142.033907 148.481914 
L 142.338575 77.491089 
L 142.643243 79.939049 
L 142.947912 101.970684 
L 143.25258 137.466096 
L 143.557248 138.690076 
L 143.861916 138.078086 
L 144.471253 133.182167 
L 144.775921 135.630127 
L 145.385258 144.197985 
L 145.689926 153.377833 
L 145.994595 148.481914 
L 146.299263 150.929873 
L 146.603931 149.705894 
L 146.9086 151.541863 
L 147.213268 149.705894 
L 147.517936 146.645944 
L 147.822604 141.138035 
L 148.127273 138.078086 
L 148.431941 144.197985 
L 148.736609 135.018137 
L 149.041278 129.510228 
L 149.345946 128.898238 
L 149.650614 102.582674 
L 149.955283 122.778339 
L 150.259951 111.762522 
L 150.564619 165.61763 
L 150.869287 162.557681 
L 151.173956 232.936516 
L 151.783292 154.601813 
L 152.087961 150.317883 
L 152.392629 149.705894 
L 153.306634 155.213802 
L 153.611302 154.601813 
L 154.220639 142.974005 
L 154.525307 139.302066 
L 154.829975 140.526046 
L 155.134644 139.302066 
L 155.439312 139.302066 
L 155.74398 140.526046 
L 156.048649 138.690076 
L 156.353317 140.526046 
L 156.962654 149.705894 
L 157.267322 147.869924 
L 157.57199 149.705894 
L 158.181327 159.497731 
L 158.485995 167.4536 
L 158.790663 180.917377 
L 159.095332 178.469417 
L 159.704668 144.197985 
L 160.009337 68.311241 
L 160.314005 76.267109 
L 160.618673 116.658441 
L 160.923342 135.630127 
L 161.22801 138.690076 
L 161.532678 138.690076 
L 162.446683 135.018137 
L 162.751351 137.466096 
L 163.360688 149.705894 
L 163.665356 149.093904 
L 163.970025 149.705894 
L 164.274693 151.541863 
L 164.579361 149.705894 
L 164.884029 150.317883 
L 166.102703 141.138035 
L 166.407371 139.302066 
L 166.712039 128.898238 
L 167.016708 133.794157 
L 167.321376 114.210481 
L 167.626044 117.270431 
L 167.930713 101.358694 
L 168.235381 155.213802 
L 168.540049 144.197985 
L 168.844717 242.116364 
L 169.149386 177.857428 
L 169.454054 176.633448 
L 169.758722 149.093904 
L 170.063391 150.317883 
L 170.977396 156.437782 
L 171.282064 154.601813 
L 171.8914 137.466096 
L 172.196069 142.974005 
L 172.500737 138.690076 
L 172.805405 137.466096 
L 173.110074 138.690076 
L 173.414742 138.690076 
L 173.71941 140.526046 
L 174.024079 146.033954 
L 174.633415 152.765843 
L 174.938084 152.765843 
L 175.54742 171.125539 
L 175.852088 184.589316 
L 176.156757 160.721711 
L 176.461425 183.977326 
L 176.766093 94.626806 
L 177.070762 68.923231 
L 177.37543 88.506907 
L 177.680098 135.630127 
L 177.984767 140.526046 
L 178.289435 136.242117 
L 178.594103 136.242117 
L 178.898771 133.794157 
L 179.20344 135.630127 
L 180.117445 152.765843 
L 180.422113 150.317883 
L 180.726781 150.929873 
L 181.03145 150.929873 
L 181.336118 149.705894 
L 181.640786 147.869924 
L 182.554791 139.302066 
L 182.859459 134.406147 
L 183.468796 114.210481 
L 183.773464 111.150532 
L 184.078133 119.71839 
L 184.382801 158.273752 
L 184.687469 181.529367 
L 184.992138 237.220445 
L 185.296806 172.349519 
L 185.601474 151.541863 
L 185.906143 152.153853 
L 186.820147 157.661762 
L 187.124816 152.153853 
L 187.429484 143.585995 
L 187.734152 138.690076 
L 188.038821 139.914056 
L 188.343489 138.690076 
L 188.648157 139.302066 
L 188.952826 139.302066 
L 189.257494 141.750025 
L 189.86683 151.541863 
L 190.171499 149.093904 
L 190.476167 161.333701 
L 190.780835 163.169671 
L 191.085504 191.933194 
L 191.390172 163.169671 
L 191.69484 185.813296 
L 192.304177 93.402826 
L 192.608845 44.443636 
L 192.913514 125.226299 
L 193.218182 139.302066 
L 193.827518 138.078086 
L 194.132187 135.018137 
L 194.436855 133.794157 
L 194.741523 135.018137 
L 195.046192 141.138035 
L 195.35086 144.809975 
L 195.655528 153.377833 
L 195.960197 149.705894 
L 196.264865 150.317883 
L 196.569533 149.093904 
L 196.874201 149.705894 
L 197.17887 149.093904 
L 197.788206 141.138035 
L 198.092875 139.914056 
L 199.00688 128.286248 
L 199.311548 114.210481 
L 199.616216 117.88242 
L 199.920885 106.866603 
L 200.530221 171.737529 
L 200.834889 199.889063 
L 201.139558 212.12886 
L 201.444226 161.945691 
L 201.748894 150.317883 
L 202.053563 150.929873 
L 202.358231 152.153853 
L 202.967568 155.825792 
L 203.272236 154.601813 
L 203.576904 148.481914 
L 203.881572 138.690076 
L 204.186241 142.362015 
L 204.490909 139.914056 
L 204.795577 138.690076 
L 205.100246 139.914056 
L 205.404914 140.526046 
L 205.709582 142.362015 
L 206.014251 140.526046 
L 206.318919 147.257934 
L 206.623587 146.033954 
L 206.928256 150.317883 
L 207.232924 151.541863 
L 207.537592 153.377833 
L 208.146929 171.737529 
L 208.451597 172.349519 
L 208.756265 163.781661 
L 209.060934 150.317883 
L 209.365602 180.917377 
L 209.974939 86.058947 
L 210.279607 79.327059 
L 210.584275 119.1064 
L 211.193612 141.750025 
L 211.49828 141.750025 
L 212.412285 139.914056 
L 212.716953 139.914056 
L 213.021622 139.302066 
L 213.630958 139.302066 
L 213.935627 141.138035 
L 214.240295 145.421965 
L 214.544963 143.585995 
L 214.849631 149.705894 
L 215.1543 149.705894 
L 215.458968 146.645944 
L 215.763636 148.481914 
L 216.068305 148.481914 
L 216.372973 149.093904 
L 216.677641 149.093904 
L 216.98231 147.869924 
L 217.286978 147.869924 
L 217.591646 149.093904 
L 217.896314 149.093904 
L 218.200983 146.645944 
L 218.505651 147.869924 
L 218.810319 146.645944 
L 219.114988 144.197985 
L 219.419656 146.645944 
L 219.724324 145.421965 
L 220.028993 144.809975 
L 220.333661 143.585995 
L 220.638329 143.585995 
L 220.942998 142.362015 
L 221.247666 146.033954 
L 221.552334 143.585995 
L 221.857002 142.362015 
L 222.161671 142.974005 
L 222.466339 142.974005 
L 222.771007 141.138035 
L 223.075676 138.078086 
L 223.380344 143.585995 
L 223.685012 144.197985 
L 223.989681 135.630127 
L 224.294349 141.138035 
L 224.599017 135.630127 
L 224.903686 141.138035 
L 225.208354 133.794157 
L 225.513022 137.466096 
L 225.81769 130.122218 
L 226.122359 142.974005 
L 226.427027 135.018137 
L 226.731695 132.570177 
L 227.036364 124.614309 
L 227.341032 152.153853 
L 227.6457 134.406147 
L 227.950369 158.885742 
L 228.255037 152.153853 
L 228.559705 160.109721 
L 228.864373 142.974005 
L 229.47371 171.737529 
L 229.778378 166.22962 
L 230.083047 166.84161 
L 230.387715 155.213802 
L 230.692383 163.781661 
L 230.997052 166.22962 
L 231.30172 140.526046 
L 231.606388 163.169671 
L 231.911057 149.093904 
L 232.215725 148.481914 
L 232.825061 146.033954 
L 233.12973 146.033954 
L 233.434398 147.257934 
L 233.739066 146.033954 
L 234.043735 146.645944 
L 234.348403 146.033954 
L 234.653071 146.645944 
L 234.95774 146.645944 
L 235.262408 146.033954 
L 235.567076 146.645944 
L 236.176413 145.421965 
L 236.481081 146.033954 
L 236.785749 146.033954 
L 237.090418 145.421965 
L 237.395086 146.033954 
L 237.699754 145.421965 
L 238.004423 146.645944 
L 238.309091 145.421965 
L 238.613759 146.645944 
L 238.918428 144.809975 
L 239.223096 145.421965 
L 239.527764 145.421965 
L 239.832432 146.033954 
L 240.441769 146.033954 
L 240.746437 147.257934 
L 241.355774 146.033954 
L 241.965111 146.033954 
L 242.574447 147.257934 
L 242.879115 147.257934 
L 243.183784 145.421965 
L 243.488452 146.645944 
L 245.011794 146.645944 
L 245.316462 147.869924 
L 245.62113 146.033954 
L 245.925799 146.645944 
L 246.230467 146.033954 
L 246.535135 146.645944 
L 246.839803 146.645944 
L 247.144472 145.421965 
L 247.44914 147.257934 
L 247.753808 147.257934 
L 248.058477 146.645944 
L 248.363145 148.481914 
L 248.972482 149.705894 
L 249.27715 149.093904 
L 249.581818 149.093904 
L 249.886486 147.257934 
L 250.191155 147.869924 
L 250.800491 145.421965 
L 251.10516 146.645944 
L 251.409828 144.197985 
L 251.714496 139.914056 
L 252.019165 143.585995 
L 252.323833 144.197985 
L 252.628501 144.197985 
L 252.93317 142.362015 
L 253.237838 142.362015 
L 253.847174 141.138035 
L 254.151843 142.362015 
L 254.456511 141.138035 
L 254.761179 144.809975 
L 255.065848 139.302066 
L 255.675184 145.421965 
L 255.979853 146.645944 
L 256.284521 149.093904 
L 256.589189 147.257934 
L 256.893857 153.989823 
L 257.198526 149.705894 
L 257.503194 158.273752 
L 257.807862 155.213802 
L 258.112531 169.901559 
L 258.417199 165.61763 
L 258.721867 167.4536 
L 259.026536 153.989823 
L 259.331204 163.781661 
L 259.635872 117.88242 
L 259.940541 135.630127 
L 260.245209 61.579353 
L 260.854545 131.958187 
L 261.159214 141.138035 
L 261.463882 140.526046 
L 262.073219 138.078086 
L 262.377887 137.466096 
L 262.682555 134.406147 
L 262.987224 135.630127 
L 263.291892 141.138035 
L 263.59656 143.585995 
L 263.901229 152.153853 
L 264.205897 147.869924 
L 264.815233 150.317883 
L 265.119902 150.929873 
L 265.42457 149.705894 
L 265.729238 147.257934 
L 266.033907 146.645944 
L 266.338575 141.138035 
L 266.947912 136.242117 
L 267.25258 124.614309 
L 267.557248 132.570177 
L 267.861916 117.88242 
L 268.166585 117.270431 
L 268.471253 118.49441 
L 268.775921 129.510228 
L 269.385258 229.876566 
L 269.994595 154.601813 
L 270.299263 149.705894 
L 271.213268 154.601813 
L 271.517936 155.213802 
L 272.127273 146.645944 
L 272.431941 136.854106 
L 272.736609 141.750025 
L 273.041278 139.914056 
L 273.345946 139.302066 
L 273.650614 139.302066 
L 274.259951 138.078086 
L 274.564619 146.033954 
L 274.869287 146.645944 
L 275.478624 149.705894 
L 276.392629 164.39365 
L 276.697297 177.245438 
L 277.001966 176.633448 
L 277.306634 160.109721 
L 277.611302 152.153853 
L 277.915971 94.014816 
L 278.220639 65.251292 
L 278.525307 108.702572 
L 278.829975 131.958187 
L 279.134644 139.914056 
L 279.439312 138.078086 
L 279.74398 137.466096 
L 280.048649 136.242117 
L 280.353317 136.242117 
L 280.657985 135.018137 
L 280.962654 137.466096 
L 281.267322 141.750025 
L 281.57199 144.197985 
L 281.876658 153.377833 
L 282.181327 147.869924 
L 282.485995 149.705894 
L 282.790663 149.093904 
L 283.095332 150.317883 
L 283.4 149.093904 
L 283.704668 147.257934 
L 284.009337 142.362015 
L 284.314005 140.526046 
L 284.618673 140.526046 
L 284.923342 134.406147 
L 285.22801 131.346198 
L 285.837346 117.270431 
L 286.142015 116.046451 
L 286.446683 121.55436 
L 286.751351 129.510228 
L 287.05602 210.90488 
L 287.360688 215.188809 
L 287.665356 176.633448 
L 287.970025 155.825792 
L 288.274693 150.929873 
L 288.579361 151.541863 
L 289.188698 153.989823 
L 289.493366 156.437782 
L 289.798034 153.989823 
L 290.407371 145.421965 
L 290.712039 136.854106 
L 291.016708 141.750025 
L 291.321376 139.914056 
L 291.626044 139.302066 
L 291.930713 141.750025 
L 292.235381 139.302066 
L 292.540049 141.138035 
L 292.844717 144.809975 
L 293.149386 139.914056 
L 293.454054 150.317883 
L 293.758722 148.481914 
L 294.063391 149.705894 
L 294.368059 151.541863 
L 294.672727 158.273752 
L 294.977396 161.333701 
L 295.282064 166.22962 
L 295.586732 166.22962 
L 295.8914 174.185488 
L 296.196069 148.481914 
L 296.500737 157.661762 
L 296.805405 125.226299 
L 297.110074 124.002319 
L 297.414742 91.566856 
L 297.71941 86.058947 
L 298.024079 128.286248 
L 298.328747 139.302066 
L 298.633415 141.138035 
L 298.938084 140.526046 
L 299.242752 139.302066 
L 299.54742 139.302066 
L 300.156757 136.854106 
L 300.461425 136.854106 
L 301.37543 144.197985 
L 301.680098 152.153853 
L 301.984767 146.033954 
L 302.289435 149.093904 
L 302.594103 149.705894 
L 302.898771 148.481914 
L 303.508108 148.481914 
L 303.812776 147.257934 
L 304.117445 146.645944 
L 304.422113 143.585995 
L 304.726781 143.585995 
L 305.336118 142.362015 
L 305.640786 142.362015 
L 306.250123 131.346198 
L 306.554791 131.958187 
L 306.859459 122.778339 
L 307.164128 128.286248 
L 307.468796 118.49441 
L 307.773464 131.346198 
L 308.078133 119.1064 
L 308.382801 155.213802 
L 308.687469 149.093904 
L 308.992138 212.74085 
L 309.296806 202.337022 
L 309.601474 168.67758 
L 309.906143 155.825792 
L 310.210811 148.481914 
L 310.515479 147.257934 
L 310.820147 147.257934 
L 311.124816 149.705894 
L 311.429484 149.093904 
L 311.734152 150.317883 
L 312.038821 152.153853 
L 312.343489 152.765843 
L 312.952826 147.257934 
L 313.257494 147.257934 
L 313.562162 138.078086 
L 313.86683 142.362015 
L 314.171499 143.585995 
L 314.476167 140.526046 
L 315.085504 139.302066 
L 315.390172 141.138035 
L 315.69484 139.914056 
L 315.999509 139.302066 
L 316.304177 142.362015 
L 316.608845 142.362015 
L 316.913514 144.197985 
L 317.218182 142.974005 
L 317.52285 145.421965 
L 317.827518 143.585995 
L 318.132187 147.869924 
L 318.436855 147.257934 
L 318.741523 146.033954 
L 319.046192 147.257934 
L 319.35086 150.929873 
L 319.655528 150.317883 
L 319.960197 151.541863 
L 320.264865 158.273752 
L 320.569533 161.945691 
L 320.874201 172.349519 
L 321.17887 150.317883 
L 321.483538 163.169671 
L 321.788206 152.153853 
L 322.092875 162.557681 
L 322.397543 133.182167 
L 322.702211 127.062269 
L 323.00688 112.986502 
L 323.311548 142.974005 
L 323.616216 81.163028 
L 323.920885 139.914056 
L 324.225553 105.030633 
L 324.530221 127.674258 
L 324.834889 138.690076 
L 325.444226 142.974005 
L 325.748894 142.362015 
L 326.053563 143.585995 
L 326.358231 141.750025 
L 326.967568 141.750025 
L 327.576904 140.526046 
L 327.881572 140.526046 
L 328.186241 141.138035 
L 329.100246 141.138035 
L 329.404914 140.526046 
L 329.709582 141.750025 
L 330.014251 142.362015 
L 330.318919 140.526046 
L 330.623587 141.138035 
L 330.928256 139.914056 
L 331.232924 141.138035 
L 331.537592 141.750025 
L 332.451597 141.750025 
L 333.060934 142.974005 
L 333.365602 144.197985 
L 333.67027 142.362015 
L 334.584275 148.481914 
L 334.888943 143.585995 
L 335.193612 144.809975 
L 335.49828 144.809975 
L 335.802948 146.033954 
L 336.107617 146.033954 
L 336.412285 147.869924 
L 336.716953 146.033954 
L 337.021622 146.645944 
L 337.32629 146.033954 
L 337.630958 147.257934 
L 337.935627 146.033954 
L 338.240295 146.645944 
L 338.849631 146.645944 
L 339.1543 143.585995 
L 339.458968 146.645944 
L 339.763636 142.974005 
L 340.068305 142.974005 
L 340.372973 141.138035 
L 340.677641 142.974005 
L 341.286978 142.974005 
L 341.591646 135.018137 
L 341.896314 139.302066 
L 342.200983 139.914056 
L 342.810319 129.510228 
L 343.419656 121.55436 
L 343.724324 127.674258 
L 344.028993 122.778339 
L 344.333661 130.122218 
L 345.247666 174.185488 
L 345.552334 160.109721 
L 345.857002 188.873245 
L 346.161671 190.097225 
L 346.771007 150.317883 
L 347.075676 147.257934 
L 347.380344 147.257934 
L 347.685012 147.869924 
L 347.989681 149.093904 
L 348.294349 149.705894 
L 348.599017 149.093904 
L 349.208354 150.317883 
L 349.513022 151.541863 
L 349.81769 150.317883 
L 350.122359 147.869924 
L 350.427027 143.585995 
L 350.731695 144.197985 
L 351.036364 138.078086 
L 351.341032 142.362015 
L 351.950369 142.362015 
L 352.255037 139.914056 
L 352.559705 140.526046 
L 352.864373 141.750025 
L 353.169042 139.914056 
L 353.47371 142.974005 
L 353.778378 141.750025 
L 354.387715 144.809975 
L 354.692383 144.809975 
L 354.997052 147.869924 
L 355.30172 144.197985 
L 355.606388 149.705894 
L 355.911057 145.421965 
L 356.215725 143.585995 
L 356.520393 149.093904 
L 356.825061 150.929873 
L 357.12973 149.705894 
L 357.434398 154.601813 
L 357.739066 152.765843 
L 358.043735 167.4536 
L 358.348403 163.169671 
L 358.653071 164.39365 
L 358.95774 149.705894 
L 359.262408 168.06559 
L 359.871744 138.690076 
L 360.176413 151.541863 
L 360.481081 117.88242 
L 360.785749 116.658441 
L 361.090418 94.014816 
L 361.395086 135.018137 
L 361.699754 111.762522 
L 362.004423 114.210481 
L 362.309091 138.078086 
L 362.918428 142.974005 
L 363.223096 142.974005 
L 363.527764 143.585995 
L 363.832432 141.138035 
L 364.137101 142.362015 
L 364.441769 142.362015 
L 364.746437 142.974005 
L 366.574447 142.974005 
L 367.183784 144.197985 
L 367.488452 143.585995 
L 367.79312 143.585995 
L 368.097789 144.197985 
L 368.707125 142.974005 
L 369.316462 142.974005 
L 369.62113 144.197985 
L 369.925799 142.974005 
L 370.230467 142.974005 
L 370.535135 144.197985 
L 370.839803 142.974005 
L 371.144472 144.197985 
L 371.44914 143.585995 
L 372.058477 143.585995 
L 372.363145 144.197985 
L 372.667813 143.585995 
L 372.972482 144.197985 
L 373.27715 142.362015 
L 373.581818 144.809975 
L 373.581818 144.809975 
" style="fill:none;stroke:#ff0000;stroke-linecap:square;stroke-width:0.3;"/>
   </g>
   <g id="line2d_24">
    <path clip-path="url(#p9f72ee7fce)" d="M 69.218182 143.778589 
L 69.827518 145.377886 
L 70.132187 144.29728 
L 70.436855 144.513401 
L 70.741523 143.648916 
L 71.046192 143.865038 
L 71.35086 144.643074 
L 71.655528 145.032092 
L 71.960197 144.124383 
L 72.264865 144.859195 
L 72.569533 143.99471 
L 73.17887 144.470177 
L 73.483538 144.254056 
L 73.788206 143.735365 
L 74.397543 144.037934 
L 74.702211 144.859195 
L 75.00688 144.599849 
L 75.616216 146.328819 
L 75.920885 145.334661 
L 76.225553 145.291437 
L 76.530221 146.112698 
L 76.834889 145.464334 
L 77.139558 145.939801 
L 77.444226 145.896576 
L 77.748894 146.069473 
L 78.053563 146.933958 
L 78.358231 147.322976 
L 78.662899 147.928115 
L 79.272236 146.674613 
L 79.576904 146.717837 
L 79.881572 146.631388 
L 80.186241 145.723679 
L 80.490909 147.452649 
L 80.795577 147.495873 
L 81.100246 147.020406 
L 81.404914 146.155922 
L 81.709582 146.026249 
L 82.014251 146.415267 
L 82.318919 145.680455 
L 82.623587 145.680455 
L 82.928256 147.106855 
L 83.232924 146.285594 
L 83.537592 146.54494 
L 83.84226 146.069473 
L 84.146929 147.582321 
L 84.451597 146.069473 
L 84.756265 146.199146 
L 85.060934 145.594007 
L 85.365602 146.717837 
L 85.67027 146.847509 
L 85.974939 146.155922 
L 86.279607 146.112698 
L 86.584275 145.680455 
L 86.888943 146.328819 
L 87.49828 145.204989 
L 87.802948 145.594007 
L 88.107617 144.599849 
L 88.412285 144.988868 
L 88.716953 144.988868 
L 89.021622 145.11854 
L 89.32629 145.896576 
L 89.630958 144.772746 
L 89.935627 144.945643 
L 90.240295 145.550783 
L 90.544963 145.334661 
L 90.849631 146.933958 
L 91.1543 147.020406 
L 91.458968 147.495873 
L 91.763636 151.169933 
L 92.068305 146.24237 
L 92.372973 165.736498 
L 92.677641 133.447998 
L 92.98231 167.033225 
L 93.286978 150.435121 
L 93.591646 163.013372 
L 93.896314 162.970148 
L 94.200983 180.778531 
L 94.505651 153.893059 
L 94.810319 176.629005 
L 95.114988 149.095169 
L 95.419656 146.804285 
L 95.724324 133.88024 
L 96.028993 157.869688 
L 96.333661 127.828848 
L 96.638329 128.390763 
L 97.247666 142.654759 
L 97.552334 140.839341 
L 97.857002 128.088193 
L 98.466339 142.654759 
L 98.771007 133.318325 
L 99.075676 136.344021 
L 99.380344 138.116215 
L 99.685012 141.876723 
L 99.989681 139.715511 
L 100.294349 139.49939 
L 100.599017 140.839341 
L 100.903686 139.629063 
L 101.208354 143.087001 
L 101.513022 135.998227 
L 101.81769 144.470177 
L 102.122359 142.352189 
L 102.427027 143.087001 
L 102.731695 142.784432 
L 103.036364 143.476019 
L 103.341032 143.865038 
L 103.6457 142.914104 
L 104.255037 147.106855 
L 104.559705 143.346347 
L 104.864373 143.476019 
L 105.169042 143.908262 
L 105.47371 145.377886 
L 105.778378 142.265741 
L 106.083047 142.04962 
L 106.387715 148.7926 
L 106.692383 144.470177 
L 106.997052 145.248213 
L 107.30172 142.265741 
L 107.606388 144.988868 
L 107.911057 144.426953 
L 108.215725 145.594007 
L 108.520393 145.161764 
L 108.825061 142.87088 
L 109.12973 146.328819 
L 109.434398 146.026249 
L 109.739066 143.562468 
L 110.043735 147.928115 
L 110.348403 143.821813 
L 110.653071 148.101012 
L 110.95774 144.772746 
L 111.262408 149.051945 
L 111.567076 144.988868 
L 111.871744 147.582321 
L 112.176413 146.112698 
L 112.481081 148.7926 
L 112.785749 153.158247 
L 113.395086 147.150079 
L 113.699754 154.584647 
L 114.004423 149.008721 
L 114.309091 156.183943 
L 114.613759 155.016889 
L 114.918428 164.482996 
L 115.527764 152.596332 
L 115.832432 151.386054 
L 116.137101 148.835824 
L 116.441769 163.877857 
L 116.746437 133.447998 
L 117.051106 144.988868 
L 117.660442 132.410616 
L 117.965111 82.529854 
L 118.269779 108.939859 
L 118.574447 114.948027 
L 118.879115 135.652434 
L 119.183784 140.363875 
L 119.488452 141.401256 
L 119.79312 141.660602 
L 120.097789 142.568311 
L 120.402457 140.882566 
L 120.707125 140.579996 
L 121.011794 140.493547 
L 121.316462 140.234202 
L 121.62113 140.493547 
L 121.925799 139.49939 
L 122.230467 139.845184 
L 122.535135 141.185135 
L 122.839803 141.444481 
L 123.44914 144.124383 
L 123.753808 144.383728 
L 124.058477 149.354515 
L 124.667813 146.285594 
L 124.972482 148.360358 
L 125.27715 147.495873 
L 125.581818 147.711994 
L 125.886486 146.285594 
L 126.191155 148.187461 
L 126.495823 147.279752 
L 126.800491 148.49003 
L 127.10516 145.637231 
L 127.409828 147.409424 
L 127.714496 144.945643 
L 128.323833 143.346347 
L 128.628501 144.643074 
L 128.93317 142.222517 
L 129.237838 142.179293 
L 129.542506 141.055463 
L 129.847174 139.412942 
L 130.151843 141.401256 
L 130.456511 130.465526 
L 130.761179 132.151271 
L 131.065848 123.376752 
L 131.370516 127.699175 
L 131.675184 128.217866 
L 131.979853 138.332336 
L 132.284521 141.919947 
L 133.198526 202.779664 
L 133.503194 166.211965 
L 133.807862 150.089327 
L 134.112531 147.884891 
L 134.417199 147.582321 
L 134.721867 151.299605 
L 135.026536 150.694466 
L 135.635872 153.028575 
L 135.940541 151.04026 
L 136.549877 142.568311 
L 136.854545 141.919947 
L 137.159214 141.833499 
L 137.463882 140.493547 
L 137.76855 137.640748 
L 138.073219 140.752893 
L 138.377887 140.882566 
L 138.682555 139.931632 
L 139.291892 147.063631 
L 139.59656 146.804285 
L 139.901229 151.169933 
L 140.205897 150.608018 
L 140.510565 162.797251 
L 140.815233 157.005204 
L 141.119902 179.827598 
L 141.42457 168.329952 
L 141.729238 177.752835 
L 142.033907 148.533254 
L 142.338575 79.374485 
L 142.643243 81.449248 
L 142.947912 101.505291 
L 143.25258 137.986542 
L 143.557248 139.196821 
L 144.166585 135.220191 
L 144.471253 134.528604 
L 144.775921 134.744725 
L 145.385258 142.827656 
L 145.689926 150.867363 
L 145.994595 148.533254 
L 146.299263 151.256381 
L 146.603931 149.700309 
L 146.9086 151.299605 
L 147.213268 148.662927 
L 147.517936 147.193303 
L 147.822604 140.536772 
L 148.127273 136.949161 
L 148.431941 144.383728 
L 149.041278 129.860387 
L 149.345946 128.866229 
L 149.650614 105.049678 
L 149.955283 122.598716 
L 150.259951 111.446864 
L 150.564619 164.915238 
L 150.869287 162.624354 
L 151.173956 231.048312 
L 151.783292 151.256381 
L 152.087961 149.570636 
L 152.392629 149.829981 
L 153.001966 153.071799 
L 153.306634 154.584647 
L 153.611302 153.201471 
L 154.220639 144.210831 
L 154.525307 141.703826 
L 154.829975 141.141911 
L 155.134644 139.629063 
L 155.439312 139.110372 
L 155.74398 140.969014 
L 156.048649 139.369717 
L 156.353317 141.055463 
L 156.962654 149.829981 
L 157.267322 147.539097 
L 157.57199 149.657084 
L 158.485995 166.168741 
L 158.790663 181.167549 
L 159.095332 177.925732 
L 159.704668 144.599849 
L 160.009337 70.556742 
L 160.314005 77.38617 
L 160.618673 117.282135 
L 160.923342 137.597524 
L 161.22801 139.153596 
L 161.532678 138.634906 
L 161.837346 136.905936 
L 162.446683 135.176967 
L 162.751351 136.949161 
L 163.360688 148.273909 
L 163.665356 148.317133 
L 164.274693 150.953811 
L 164.579361 149.61386 
L 164.884029 149.959654 
L 165.493366 145.594007 
L 166.102703 140.62322 
L 166.407371 139.845184 
L 166.712039 129.039126 
L 167.016708 133.88024 
L 167.321376 114.040318 
L 167.626044 117.411808 
L 167.930713 100.900152 
L 168.235381 154.671095 
L 168.540049 142.568311 
L 168.844717 239.347364 
L 169.149386 176.801902 
L 169.454054 176.06709 
L 169.758722 149.354515 
L 170.977396 155.276235 
L 171.282064 153.331144 
L 171.586732 148.014564 
L 171.8914 140.234202 
L 172.196069 142.308965 
L 172.500737 138.764578 
L 173.110074 138.159439 
L 173.414742 138.37556 
L 173.71941 140.839341 
L 174.633415 151.775072 
L 174.938084 151.472502 
L 175.852088 183.458433 
L 176.156757 158.90707 
L 176.461425 182.81007 
L 176.766093 95.97259 
L 177.070762 70.94576 
L 177.37543 87.327743 
L 177.680098 135.998227 
L 177.984767 138.894251 
L 178.289435 135.782106 
L 178.594103 135.047294 
L 178.898771 132.75641 
L 179.20344 134.312482 
L 179.812776 144.124383 
L 180.117445 150.175775 
L 180.422113 149.527412 
L 180.726781 150.391896 
L 181.03145 150.478345 
L 181.336118 150.132551 
L 181.640786 147.020406 
L 181.945455 145.161764 
L 182.250123 140.536772 
L 182.554791 138.591681 
L 182.859459 133.145428 
L 183.468796 114.342888 
L 183.773464 111.10107 
L 184.078133 119.57302 
L 184.382801 156.616186 
L 184.687469 179.611477 
L 184.992138 232.56116 
L 185.296806 170.188594 
L 185.601474 149.873206 
L 186.515479 154.541423 
L 186.820147 155.622028 
L 187.124816 152.034417 
L 187.429484 143.821813 
L 187.734152 139.196821 
L 188.038821 139.067148 
L 188.343489 137.338179 
L 188.648157 137.640748 
L 188.952826 138.332336 
L 189.257494 140.666444 
L 189.562162 147.236528 
L 189.86683 151.126708 
L 190.171499 148.49003 
L 190.476167 159.771555 
L 190.780835 161.414075 
L 191.085504 190.590431 
L 191.390172 160.981833 
L 191.69484 182.377827 
L 192.304177 95.194553 
L 192.608845 46.567293 
L 192.913514 126.359224 
L 193.218182 138.937475 
L 193.52285 138.116215 
L 194.132187 134.787949 
L 194.436855 133.966689 
L 194.741523 135.30664 
L 195.655528 150.175775 
L 195.960197 148.879048 
L 196.264865 150.564793 
L 196.569533 148.144236 
L 196.874201 149.484188 
L 197.17887 149.051945 
L 197.483538 146.501716 
L 197.788206 141.012238 
L 198.092875 139.974857 
L 198.397543 137.813645 
L 199.00688 129.557817 
L 199.311548 114.991251 
L 199.616216 118.319517 
L 199.920885 107.72958 
L 200.530221 169.540231 
L 200.834889 197.981775 
L 201.139558 210.214232 
L 201.444226 159.166415 
L 201.748894 148.835824 
L 202.053563 149.397739 
L 202.358231 151.904744 
L 202.662899 151.472502 
L 202.967568 153.028575 
L 203.272236 152.380211 
L 203.576904 147.279752 
L 203.881572 139.672287 
L 204.186241 140.752893 
L 204.490909 138.462009 
L 204.795577 137.294954 
L 205.100246 138.202663 
L 205.404914 138.029766 
L 205.709582 140.234202 
L 206.014251 138.807802 
L 206.318919 145.161764 
L 206.623587 144.556625 
L 206.928256 148.965497 
L 207.537592 152.553108 
L 207.84226 159.987676 
L 208.146929 170.231818 
L 208.451597 171.831115 
L 208.756265 162.883699 
L 209.060934 149.181618 
L 209.365602 179.308907 
L 209.974939 86.37681 
L 210.279607 80.368642 
L 210.584275 117.757602 
L 211.193612 141.055463 
L 211.49828 140.450323 
L 211.802948 138.980699 
L 212.107617 138.245887 
L 212.412285 136.819488 
L 212.716953 137.683972 
L 213.021622 136.646591 
L 213.32629 137.294954 
L 213.935627 140.018081 
L 214.240295 142.179293 
L 214.544963 143.346347 
L 214.849631 145.983025 
L 215.1543 146.890734 
L 215.458968 145.11854 
L 215.763636 147.020406 
L 216.068305 145.810128 
L 216.372973 146.199146 
L 216.677641 146.199146 
L 216.98231 146.372043 
L 217.286978 146.112698 
L 217.591646 146.328819 
L 217.896314 145.939801 
L 218.200983 144.686298 
L 218.505651 145.637231 
L 219.114988 143.303123 
L 219.419656 144.902419 
L 219.724324 143.000553 
L 220.028993 143.476019 
L 220.333661 142.438638 
L 220.638329 143.087001 
L 220.942998 141.790274 
L 221.247666 144.599849 
L 221.552334 142.136068 
L 221.857002 142.006396 
L 222.161671 142.741208 
L 222.466339 142.741208 
L 223.075676 137.25173 
L 223.685012 143.562468 
L 223.989681 135.522761 
L 224.294349 139.326493 
L 224.599017 134.096361 
L 224.903686 138.37556 
L 225.208354 132.324168 
L 225.513022 135.782106 
L 225.81769 128.736557 
L 226.122359 140.839341 
L 226.427027 134.18281 
L 226.731695 131.459683 
L 227.036364 123.895443 
L 227.341032 151.083484 
L 227.6457 133.145428 
L 227.950369 157.048428 
L 228.255037 150.391896 
L 228.559705 158.6045 
L 228.864373 141.963171 
L 229.47371 169.280885 
L 229.778378 164.180426 
L 230.083047 164.310099 
L 230.387715 153.331144 
L 230.692383 161.932766 
L 230.997052 163.921081 
L 231.30172 138.807802 
L 231.606388 161.716645 
L 231.911057 147.193303 
L 232.215725 146.24237 
L 232.520393 145.680455 
L 232.825061 145.464334 
L 233.12973 144.254056 
L 233.434398 144.383728 
L 234.043735 145.42111 
L 234.348403 144.643074 
L 234.653071 145.291437 
L 234.95774 145.594007 
L 235.262408 143.99471 
L 235.567076 145.204989 
L 235.871744 145.464334 
L 236.176413 145.11854 
L 236.481081 145.161764 
L 236.785749 144.556625 
L 237.090418 144.599849 
L 237.395086 145.550783 
L 237.699754 144.340504 
L 238.004423 145.896576 
L 238.309091 144.513401 
L 238.613759 144.815971 
L 239.223096 144.513401 
L 239.832432 144.772746 
L 240.137101 144.29728 
L 240.441769 145.248213 
L 240.746437 145.075316 
L 241.051106 145.594007 
L 241.355774 144.815971 
L 241.660442 145.075316 
L 241.965111 144.945643 
L 242.269779 144.686298 
L 242.574447 145.248213 
L 242.879115 144.859195 
L 243.183784 143.821813 
L 243.488452 145.161764 
L 243.79312 145.204989 
L 244.097789 144.599849 
L 244.402457 145.550783 
L 244.707125 144.426953 
L 245.011794 145.723679 
L 245.316462 146.285594 
L 245.62113 145.507558 
L 245.925799 146.155922 
L 246.230467 145.983025 
L 246.535135 145.594007 
L 246.839803 145.896576 
L 247.144472 145.637231 
L 247.44914 145.766904 
L 247.753808 146.54494 
L 248.058477 146.674613 
L 248.363145 147.322976 
L 248.667813 147.539097 
L 248.972482 147.928115 
L 249.27715 147.755218 
L 249.581818 148.403582 
L 249.886486 147.063631 
L 250.191155 147.66877 
L 250.800491 145.291437 
L 251.10516 146.285594 
L 251.409828 145.075316 
L 251.714496 140.493547 
L 252.019165 143.087001 
L 252.323833 143.692141 
L 252.628501 143.605692 
L 252.93317 142.006396 
L 253.237838 142.741208 
L 253.542506 140.493547 
L 253.847174 140.536772 
L 254.151843 140.752893 
L 254.456511 141.444481 
L 254.761179 142.611535 
L 255.065848 139.369717 
L 255.370516 143.951486 
L 255.675184 145.723679 
L 255.979853 145.939801 
L 256.284521 148.230685 
L 256.589189 146.415267 
L 256.893857 152.98535 
L 257.198526 149.138394 
L 257.503194 158.129034 
L 257.807862 154.671095 
L 258.112531 169.194437 
L 258.417199 167.335795 
L 258.721867 167.162898 
L 259.026536 155.016889 
L 259.331204 164.137202 
L 259.635872 118.016947 
L 259.940541 135.998227 
L 260.245209 62.560259 
L 260.854545 134.009913 
L 261.159214 141.487705 
L 261.463882 140.796117 
L 261.76855 138.548457 
L 262.073219 137.338179 
L 262.377887 137.165282 
L 262.682555 135.479537 
L 262.987224 135.393088 
L 263.59656 143.259898 
L 263.901229 150.089327 
L 264.205897 146.631388 
L 264.815233 149.959654 
L 265.119902 149.440963 
L 265.42457 149.484188 
L 265.729238 146.847509 
L 266.033907 146.588164 
L 266.338575 140.839341 
L 266.643243 139.153596 
L 266.947912 135.911779 
L 267.25258 124.327685 
L 267.557248 132.75641 
L 267.861916 117.84405 
L 268.166585 116.504099 
L 268.471253 120.653625 
L 268.775921 129.039126 
L 269.385258 228.843876 
L 269.994595 153.893059 
L 270.299263 149.440963 
L 270.9086 154.022732 
L 271.213268 154.325301 
L 271.517936 155.060113 
L 271.822604 151.775072 
L 272.127273 147.106855 
L 272.431941 139.542614 
L 272.736609 141.487705 
L 273.041278 139.240045 
L 273.345946 139.585839 
L 274.259951 139.49939 
L 274.564619 146.372043 
L 274.869287 147.236528 
L 275.478624 151.126708 
L 275.783292 154.627871 
L 276.087961 160.938609 
L 276.392629 164.52622 
L 276.697297 176.542556 
L 277.001966 175.76452 
L 277.306634 159.382536 
L 277.611302 152.336987 
L 277.915971 94.675863 
L 278.220639 66.45044 
L 278.525307 109.45855 
L 278.829975 135.090519 
L 279.134644 140.493547 
L 279.439312 139.931632 
L 279.74398 138.37556 
L 280.048649 138.332336 
L 280.353317 136.992385 
L 280.657985 136.949161 
L 280.962654 138.418784 
L 281.267322 140.882566 
L 281.57199 144.340504 
L 281.876658 150.305448 
L 282.181327 147.841667 
L 282.485995 149.484188 
L 282.790663 149.61386 
L 283.095332 150.521569 
L 283.4 150.521569 
L 283.704668 149.181618 
L 284.009337 143.519244 
L 284.314005 141.185135 
L 284.618673 140.882566 
L 284.923342 135.479537 
L 285.22801 133.577671 
L 285.532678 123.679322 
L 285.837346 118.319517 
L 286.142015 116.763445 
L 286.751351 130.292629 
L 287.05602 208.831057 
L 287.360688 213.196704 
L 287.665356 176.023865 
L 287.970025 153.979508 
L 288.274693 149.138394 
L 288.579361 149.700309 
L 289.493366 154.065956 
L 289.798034 153.504041 
L 290.407371 145.983025 
L 290.712039 139.240045 
L 291.016708 142.741208 
L 291.321376 139.672287 
L 291.626044 139.153596 
L 291.930713 140.104529 
L 292.235381 139.067148 
L 292.540049 140.363875 
L 292.844717 144.037934 
L 293.149386 140.363875 
L 293.454054 150.435121 
L 293.758722 148.230685 
L 294.368059 151.256381 
L 294.672727 157.307773 
L 295.282064 165.131359 
L 295.586732 166.687432 
L 295.8914 173.21429 
L 296.196069 148.835824 
L 296.500737 156.789083 
L 296.805405 126.618569 
L 297.110074 123.808994 
L 297.414742 94.762311 
L 297.71941 89.013488 
L 298.024079 130.206181 
L 298.328747 140.969014 
L 298.633415 141.487705 
L 299.54742 138.505233 
L 300.156757 137.467851 
L 300.461425 137.078833 
L 301.37543 143.087001 
L 301.680098 149.224842 
L 301.984767 145.464334 
L 302.289435 149.224842 
L 302.594103 148.7926 
L 302.898771 149.181618 
L 303.20344 148.360358 
L 303.508108 149.484188 
L 304.117445 147.106855 
L 304.422113 143.562468 
L 305.03145 142.438638 
L 305.336118 142.395414 
L 305.640786 141.358032 
L 305.945455 135.133743 
L 306.250123 132.280944 
L 306.554791 131.243562 
L 306.859459 124.327685 
L 307.164128 127.872072 
L 307.468796 119.659468 
L 307.773464 131.848701 
L 308.078133 121.51811 
L 308.382801 155.665253 
L 308.687469 148.922273 
L 308.992138 208.744608 
L 309.296806 200.704901 
L 309.601474 167.854486 
L 309.906143 155.060113 
L 310.210811 149.570636 
L 310.515479 148.446806 
L 310.820147 148.619703 
L 311.124816 150.132551 
L 311.429484 150.824139 
L 311.734152 151.818296 
L 312.038821 152.293763 
L 312.343489 152.423435 
L 312.648157 150.694466 
L 312.952826 147.625546 
L 313.257494 146.847509 
L 313.562162 139.931632 
L 313.86683 143.346347 
L 314.171499 143.087001 
L 314.476167 142.308965 
L 314.780835 142.006396 
L 315.085504 140.320651 
L 315.390172 142.352189 
L 315.69484 141.703826 
L 315.999509 140.061305 
L 316.304177 143.130226 
L 316.608845 143.562468 
L 316.913514 144.988868 
L 317.218182 143.346347 
L 317.52285 146.069473 
L 317.827518 144.859195 
L 318.132187 148.317133 
L 318.436855 148.230685 
L 318.741523 147.495873 
L 319.046192 148.317133 
L 319.35086 151.947969 
L 319.655528 152.034417 
L 319.960197 153.331144 
L 320.264865 158.950294 
L 320.569533 162.192111 
L 320.874201 172.479478 
L 321.17887 152.336987 
L 321.483538 164.699117 
L 321.788206 153.504041 
L 322.092875 163.618511 
L 322.397543 135.349864 
L 322.702211 128.866229 
L 323.00688 116.158305 
L 323.311548 144.124383 
L 323.616216 85.55555 
L 323.920885 142.438638 
L 324.225553 106.951544 
L 324.530221 128.304314 
L 324.834889 140.277426 
L 325.444226 143.692141 
L 325.748894 143.043777 
L 326.053563 144.29728 
L 326.358231 143.216674 
L 326.662899 143.648916 
L 326.967568 142.568311 
L 327.576904 141.74705 
L 327.881572 142.136068 
L 328.186241 142.092844 
L 328.490909 142.611535 
L 328.795577 142.568311 
L 329.100246 142.179293 
L 329.404914 142.741208 
L 329.709582 142.308965 
L 330.014251 143.000553 
L 330.318919 142.179293 
L 330.623587 142.87088 
L 330.928256 142.352189 
L 331.232924 143.303123 
L 331.537592 142.568311 
L 332.146929 143.99471 
L 332.451597 142.827656 
L 332.756265 143.951486 
L 333.060934 143.605692 
L 333.365602 144.772746 
L 333.67027 143.99471 
L 333.974939 144.643074 
L 334.279607 146.328819 
L 334.584275 149.570636 
L 334.888943 145.637231 
L 335.193612 145.853352 
L 335.49828 146.761061 
L 336.107617 146.285594 
L 336.412285 148.446806 
L 336.716953 146.458491 
L 337.021622 147.236528 
L 337.32629 146.761061 
L 337.630958 147.625546 
L 337.935627 146.588164 
L 338.240295 147.928115 
L 338.544963 147.063631 
L 338.849631 147.755218 
L 339.1543 145.248213 
L 339.458968 147.539097 
L 339.763636 144.643074 
L 340.068305 143.432795 
L 340.372973 141.703826 
L 340.677641 143.908262 
L 340.98231 143.043777 
L 341.286978 143.908262 
L 341.591646 136.646591 
L 341.896314 140.579996 
L 342.200983 140.709669 
L 343.114988 126.748242 
L 343.419656 122.598716 
L 343.724324 128.736557 
L 344.028993 123.506425 
L 344.333661 130.292629 
L 345.247666 171.787891 
L 345.552334 158.518052 
L 345.857002 187.30539 
L 346.161671 185.965439 
L 346.771007 149.440963 
L 347.075676 146.717837 
L 348.294349 149.051945 
L 348.599017 149.224842 
L 348.903686 149.743533 
L 349.208354 149.095169 
L 349.513022 149.91643 
L 350.122359 148.230685 
L 350.427027 144.729522 
L 350.731695 144.988868 
L 351.036364 139.542614 
L 351.341032 143.000553 
L 351.6457 141.703826 
L 351.950369 141.141911 
L 352.255037 140.018081 
L 352.559705 140.666444 
L 352.864373 141.833499 
L 353.169042 139.931632 
L 353.47371 142.222517 
L 353.778378 139.80196 
L 354.083047 142.568311 
L 354.387715 143.778589 
L 354.692383 143.908262 
L 354.997052 147.020406 
L 355.30172 142.87088 
L 355.606388 150.218999 
L 355.911057 146.415267 
L 356.215725 145.334661 
L 356.520393 149.440963 
L 356.825061 150.262224 
L 357.12973 150.651242 
L 357.434398 154.10918 
L 357.739066 152.855678 
L 358.043735 166.039068 
L 358.348403 162.970148 
L 358.653071 162.797251 
L 358.95774 149.051945 
L 359.262408 167.508692 
L 359.871744 138.764578 
L 360.176413 150.867363 
L 360.481081 119.918814 
L 360.785749 119.140777 
L 361.090418 96.188711 
L 361.395086 135.782106 
L 361.699754 113.219058 
L 362.004423 115.164148 
L 362.309091 137.770421 
L 362.613759 140.536772 
L 362.918428 142.092844 
L 363.223096 142.352189 
L 363.527764 142.136068 
L 363.832432 141.74705 
L 364.137101 142.525086 
L 365.051106 142.006396 
L 365.660442 142.525086 
L 366.269779 143.476019 
L 366.574447 143.951486 
L 367.183784 144.254056 
L 367.488452 143.99471 
L 367.79312 144.29728 
L 368.402457 144.081159 
L 368.707125 143.735365 
L 369.316462 143.951486 
L 369.62113 144.426953 
L 369.925799 143.087001 
L 370.535135 144.426953 
L 370.839803 143.303123 
L 371.144472 144.254056 
L 371.44914 144.426953 
L 372.058477 143.259898 
L 372.363145 143.692141 
L 372.667813 143.087001 
L 372.972482 144.815971 
L 373.27715 142.611535 
L 373.581818 144.210831 
L 373.581818 144.210831 
" style="fill:none;stroke:#ffa500;stroke-linecap:square;stroke-width:0.3;"/>
   </g>
   <g id="patch_3">
    <path d="M 54 252 
L 54 34.56 
" style="fill:none;stroke:#000000;stroke-linecap:square;stroke-linejoin:miter;stroke-width:0.8;"/>
   </g>
   <g id="patch_4">
    <path d="M 388.8 252 
L 388.8 34.56 
" style="fill:none;stroke:#000000;stroke-linecap:square;stroke-linejoin:miter;stroke-width:0.8;"/>
   </g>
   <g id="patch_5">
    <path d="M 54 252 
L 388.8 252 
" style="fill:none;stroke:#000000;stroke-linecap:square;stroke-linejoin:miter;stroke-width:0.8;"/>
   </g>
   <g id="patch_6">
    <path d="M 54 34.56 
L 388.8 34.56 
" style="fill:none;stroke:#000000;stroke-linecap:square;stroke-linejoin:miter;stroke-width:0.8;"/>
   </g>
   <g id="text_14">
    <!-- SPGD Detectors TP8 Testing S1 Lineup Post Map  -->
    <defs>
     <path d="M 53.515625 70.515625 
L 53.515625 60.890625 
Q 47.90625 63.578125 42.921875 64.890625 
Q 37.9375 66.21875 33.296875 66.21875 
Q 25.25 66.21875 20.875 63.09375 
Q 16.5 59.96875 16.5 54.203125 
Q 16.5 49.359375 19.40625 46.890625 
Q 22.3125 44.4375 30.421875 42.921875 
L 36.375 41.703125 
Q 47.40625 39.59375 52.65625 34.296875 
Q 57.90625 29 57.90625 20.125 
Q 57.90625 9.515625 50.796875 4.046875 
Q 43.703125 -1.421875 29.984375 -1.421875 
Q 24.8125 -1.421875 18.96875 -0.25 
Q 13.140625 0.921875 6.890625 3.21875 
L 6.890625 13.375 
Q 12.890625 10.015625 18.65625 8.296875 
Q 24.421875 6.59375 29.984375 6.59375 
Q 38.421875 6.59375 43.015625 9.90625 
Q 47.609375 13.234375 47.609375 19.390625 
Q 47.609375 24.75 44.3125 27.78125 
Q 41.015625 30.8125 33.5 32.328125 
L 27.484375 33.5 
Q 16.453125 35.6875 11.515625 40.375 
Q 6.59375 45.0625 6.59375 53.421875 
Q 6.59375 63.09375 13.40625 68.65625 
Q 20.21875 74.21875 32.171875 74.21875 
Q 37.3125 74.21875 42.625 73.28125 
Q 47.953125 72.359375 53.515625 70.515625 
" id="DejaVuSans-53"/>
     <path d="M 19.671875 64.796875 
L 19.671875 37.40625 
L 32.078125 37.40625 
Q 38.96875 37.40625 42.71875 40.96875 
Q 46.484375 44.53125 46.484375 51.125 
Q 46.484375 57.671875 42.71875 61.234375 
Q 38.96875 64.796875 32.078125 64.796875 
z
M 9.8125 72.90625 
L 32.078125 72.90625 
Q 44.34375 72.90625 50.609375 67.359375 
Q 56.890625 61.8125 56.890625 51.125 
Q 56.890625 40.328125 50.609375 34.8125 
Q 44.34375 29.296875 32.078125 29.296875 
L 19.671875 29.296875 
L 19.671875 0 
L 9.8125 0 
z
" id="DejaVuSans-50"/>
     <path d="M 59.515625 10.40625 
L 59.515625 29.984375 
L 43.40625 29.984375 
L 43.40625 38.09375 
L 69.28125 38.09375 
L 69.28125 6.78125 
Q 63.578125 2.734375 56.6875 0.65625 
Q 49.8125 -1.421875 42 -1.421875 
Q 24.90625 -1.421875 15.25 8.5625 
Q 5.609375 18.5625 5.609375 36.375 
Q 5.609375 54.25 15.25 64.234375 
Q 24.90625 74.21875 42 74.21875 
Q 49.125 74.21875 55.546875 72.453125 
Q 61.96875 70.703125 67.390625 67.28125 
L 67.390625 56.78125 
Q 61.921875 61.421875 55.765625 63.765625 
Q 49.609375 66.109375 42.828125 66.109375 
Q 29.4375 66.109375 22.71875 58.640625 
Q 16.015625 51.171875 16.015625 36.375 
Q 16.015625 21.625 22.71875 14.15625 
Q 29.4375 6.6875 42.828125 6.6875 
Q 48.046875 6.6875 52.140625 7.59375 
Q 56.25 8.5 59.515625 10.40625 
" id="DejaVuSans-47"/>
     <path d="M 19.671875 64.796875 
L 19.671875 8.109375 
L 31.59375 8.109375 
Q 46.6875 8.109375 53.6875 14.9375 
Q 60.6875 21.78125 60.6875 36.53125 
Q 60.6875 51.171875 53.6875 57.984375 
Q 46.6875 64.796875 31.59375 64.796875 
z
M 9.8125 72.90625 
L 30.078125 72.90625 
Q 51.265625 72.90625 61.171875 64.09375 
Q 71.09375 55.28125 71.09375 36.53125 
Q 71.09375 17.671875 61.125 8.828125 
Q 51.171875 0 30.078125 0 
L 9.8125 0 
z
" id="DejaVuSans-44"/>
     <path d="M 41.109375 46.296875 
Q 39.59375 47.171875 37.8125 47.578125 
Q 36.03125 48 33.890625 48 
Q 26.265625 48 22.1875 43.046875 
Q 18.109375 38.09375 18.109375 28.8125 
L 18.109375 0 
L 9.078125 0 
L 9.078125 54.6875 
L 18.109375 54.6875 
L 18.109375 46.1875 
Q 20.953125 51.171875 25.484375 53.578125 
Q 30.03125 56 36.53125 56 
Q 37.453125 56 38.578125 55.875 
Q 39.703125 55.765625 41.0625 55.515625 
z
" id="DejaVuSans-72"/>
     <path d="M -0.296875 72.90625 
L 61.375 72.90625 
L 61.375 64.59375 
L 35.5 64.59375 
L 35.5 0 
L 25.59375 0 
L 25.59375 64.59375 
L -0.296875 64.59375 
z
" id="DejaVuSans-54"/>
     <path d="M 45.40625 27.984375 
Q 45.40625 37.75 41.375 43.109375 
Q 37.359375 48.484375 30.078125 48.484375 
Q 22.859375 48.484375 18.828125 43.109375 
Q 14.796875 37.75 14.796875 27.984375 
Q 14.796875 18.265625 18.828125 12.890625 
Q 22.859375 7.515625 30.078125 7.515625 
Q 37.359375 7.515625 41.375 12.890625 
Q 45.40625 18.265625 45.40625 27.984375 
M 54.390625 6.78125 
Q 54.390625 -7.171875 48.1875 -13.984375 
Q 42 -20.796875 29.203125 -20.796875 
Q 24.46875 -20.796875 20.265625 -20.09375 
Q 16.0625 -19.390625 12.109375 -17.921875 
L 12.109375 -9.1875 
Q 16.0625 -11.328125 19.921875 -12.34375 
Q 23.78125 -13.375 27.78125 -13.375 
Q 36.625 -13.375 41.015625 -8.765625 
Q 45.40625 -4.15625 45.40625 5.171875 
L 45.40625 9.625 
Q 42.625 4.78125 38.28125 2.390625 
Q 33.9375 0 27.875 0 
Q 17.828125 0 11.671875 7.65625 
Q 5.515625 15.328125 5.515625 27.984375 
Q 5.515625 40.671875 11.671875 48.328125 
Q 17.828125 56 27.875 56 
Q 33.9375 56 38.28125 53.609375 
Q 42.625 51.21875 45.40625 46.390625 
L 45.40625 54.6875 
L 54.390625 54.6875 
z
" id="DejaVuSans-67"/>
     <path d="M 9.8125 72.90625 
L 19.671875 72.90625 
L 19.671875 8.296875 
L 55.171875 8.296875 
L 55.171875 0 
L 9.8125 0 
z
" id="DejaVuSans-4c"/>
     <path d="M 8.5 21.578125 
L 8.5 54.6875 
L 17.484375 54.6875 
L 17.484375 21.921875 
Q 17.484375 14.15625 20.5 10.265625 
Q 23.53125 6.390625 29.59375 6.390625 
Q 36.859375 6.390625 41.078125 11.03125 
Q 45.3125 15.671875 45.3125 23.6875 
L 45.3125 54.6875 
L 54.296875 54.6875 
L 54.296875 0 
L 45.3125 0 
L 45.3125 8.40625 
Q 42.046875 3.421875 37.71875 1 
Q 33.40625 -1.421875 27.6875 -1.421875 
Q 18.265625 -1.421875 13.375 4.4375 
Q 8.5 10.296875 8.5 21.578125 
M 31.109375 56 
z
" id="DejaVuSans-75"/>
     <path d="M 18.109375 8.203125 
L 18.109375 -20.796875 
L 9.078125 -20.796875 
L 9.078125 54.6875 
L 18.109375 54.6875 
L 18.109375 46.390625 
Q 20.953125 51.265625 25.265625 53.625 
Q 29.59375 56 35.59375 56 
Q 45.5625 56 51.78125 48.09375 
Q 58.015625 40.1875 58.015625 27.296875 
Q 58.015625 14.40625 51.78125 6.484375 
Q 45.5625 -1.421875 35.59375 -1.421875 
Q 29.59375 -1.421875 25.265625 0.953125 
Q 20.953125 3.328125 18.109375 8.203125 
M 48.6875 27.296875 
Q 48.6875 37.203125 44.609375 42.84375 
Q 40.53125 48.484375 33.40625 48.484375 
Q 26.265625 48.484375 22.1875 42.84375 
Q 18.109375 37.203125 18.109375 27.296875 
Q 18.109375 17.390625 22.1875 11.75 
Q 26.265625 6.109375 33.40625 6.109375 
Q 40.53125 6.109375 44.609375 11.75 
Q 48.6875 17.390625 48.6875 27.296875 
" id="DejaVuSans-70"/>
     <path d="M 9.8125 72.90625 
L 24.515625 72.90625 
L 43.109375 23.296875 
L 61.8125 72.90625 
L 76.515625 72.90625 
L 76.515625 0 
L 66.890625 0 
L 66.890625 64.015625 
L 48.09375 14.015625 
L 38.1875 14.015625 
L 19.390625 64.015625 
L 19.390625 0 
L 9.8125 0 
z
" id="DejaVuSans-4d"/>
    </defs>
    <g transform="translate(73.812188 28.56)scale(0.12 -0.12)">
     <use xlink:href="#DejaVuSans-53"/>
     <use x="63.476562" xlink:href="#DejaVuSans-50"/>
     <use x="123.779297" xlink:href="#DejaVuSans-47"/>
     <use x="201.269531" xlink:href="#DejaVuSans-44"/>
     <use x="278.271484" xlink:href="#DejaVuSans-20"/>
     <use x="310.058594" xlink:href="#DejaVuSans-44"/>
     <use x="387.060547" xlink:href="#DejaVuSans-65"/>
     <use x="448.583984" xlink:href="#DejaVuSans-74"/>
     <use x="487.792969" xlink:href="#DejaVuSans-65"/>
     <use x="549.316406" xlink:href="#DejaVuSans-63"/>
     <use x="604.296875" xlink:href="#DejaVuSans-74"/>
     <use x="643.505859" xlink:href="#DejaVuSans-6f"/>
     <use x="704.6875" xlink:href="#DejaVuSans-72"/>
     <use x="745.800781" xlink:href="#DejaVuSans-73"/>
     <use x="797.900391" xlink:href="#DejaVuSans-20"/>
     <use x="829.6875" xlink:href="#DejaVuSans-54"/>
     <use x="890.771484" xlink:href="#DejaVuSans-50"/>
     <use x="951.074219" xlink:href="#DejaVuSans-38"/>
     <use x="1014.697266" xlink:href="#DejaVuSans-20"/>
     <use x="1046.484375" xlink:href="#DejaVuSans-54"/>
     <use x="1107.302734" xlink:href="#DejaVuSans-65"/>
     <use x="1168.826172" xlink:href="#DejaVuSans-73"/>
     <use x="1220.925781" xlink:href="#DejaVuSans-74"/>
     <use x="1260.134766" xlink:href="#DejaVuSans-69"/>
     <use x="1287.917969" xlink:href="#DejaVuSans-6e"/>
     <use x="1351.296875" xlink:href="#DejaVuSans-67"/>
     <use x="1414.773438" xlink:href="#DejaVuSans-20"/>
     <use x="1446.560547" xlink:href="#DejaVuSans-53"/>
     <use x="1510.037109" xlink:href="#DejaVuSans-31"/>
     <use x="1573.660156" xlink:href="#DejaVuSans-20"/>
     <use x="1605.447266" xlink:href="#DejaVuSans-4c"/>
     <use x="1661.160156" xlink:href="#DejaVuSans-69"/>
     <use x="1688.943359" xlink:href="#DejaVuSans-6e"/>
     <use x="1752.322266" xlink:href="#DejaVuSans-65"/>
     <use x="1813.845703" xlink:href="#DejaVuSans-75"/>
     <use x="1877.224609" xlink:href="#DejaVuSans-70"/>
     <use x="1940.701172" xlink:href="#DejaVuSans-20"/>
     <use x="1972.488281" xlink:href="#DejaVuSans-50"/>
     <use x="2032.744141" xlink:href="#DejaVuSans-6f"/>
     <use x="2093.925781" xlink:href="#DejaVuSans-73"/>
     <use x="2146.025391" xlink:href="#DejaVuSans-74"/>
     <use x="2185.234375" xlink:href="#DejaVuSans-20"/>
     <use x="2217.021484" xlink:href="#DejaVuSans-4d"/>
     <use x="2303.300781" xlink:href="#DejaVuSans-61"/>
     <use x="2364.580078" xlink:href="#DejaVuSans-70"/>
     <use x="2428.056641" xlink:href="#DejaVuSans-20"/>
    </g>
   </g>
  </g>
 </g>
 <defs>
  <clipPath id="p9f72ee7fce">
   <rect height="217.44" width="334.8" x="54" y="34.56"/>
  </clipPath>
 </defs>
</svg>
