<?xml version="1.0" encoding="utf-8" standalone="no"?>
<!DOCTYPE svg PUBLIC "-//W3C//DTD SVG 1.1//EN"
  "http://www.w3.org/Graphics/SVG/1.1/DTD/svg11.dtd">
<!-- Created with matplotlib (http://matplotlib.org/) -->
<svg height="288pt" version="1.1" viewBox="0 0 432 288" width="432pt" xmlns="http://www.w3.org/2000/svg" xmlns:xlink="http://www.w3.org/1999/xlink">
 <defs>
  <style type="text/css">
*{stroke-linecap:butt;stroke-linejoin:round;}
  </style>
 </defs>
 <g id="figure_1">
  <g id="patch_1">
   <path d="M 0 288 
L 432 288 
L 432 0 
L 0 0 
z
" style="fill:#ffffff;"/>
  </g>
  <g id="axes_1">
   <g id="patch_2">
    <path d="M 54 252 
L 388.8 252 
L 388.8 34.56 
L 54 34.56 
z
" style="fill:#ffffff;"/>
   </g>
   <g id="matplotlib.axis_1">
    <g id="xtick_1">
     <g id="line2d_1">
      <path clip-path="url(#p583ece0b17)" d="M 69.218182 252 
L 69.218182 34.56 
" style="fill:none;stroke:#b0b0b0;stroke-linecap:square;stroke-width:0.8;"/>
     </g>
     <g id="line2d_2">
      <defs>
       <path d="M 0 0 
L 0 3.5 
" id="m9e681952ca" style="stroke:#000000;stroke-width:0.8;"/>
      </defs>
      <g>
       <use style="stroke:#000000;stroke-width:0.8;" x="69.218182" xlink:href="#m9e681952ca" y="252"/>
      </g>
     </g>
     <g id="text_1">
      <!-- 0 -->
      <defs>
       <path d="M 31.78125 66.40625 
Q 24.171875 66.40625 20.328125 58.90625 
Q 16.5 51.421875 16.5 36.375 
Q 16.5 21.390625 20.328125 13.890625 
Q 24.171875 6.390625 31.78125 6.390625 
Q 39.453125 6.390625 43.28125 13.890625 
Q 47.125 21.390625 47.125 36.375 
Q 47.125 51.421875 43.28125 58.90625 
Q 39.453125 66.40625 31.78125 66.40625 
M 31.78125 74.21875 
Q 44.046875 74.21875 50.515625 64.515625 
Q 56.984375 54.828125 56.984375 36.375 
Q 56.984375 17.96875 50.515625 8.265625 
Q 44.046875 -1.421875 31.78125 -1.421875 
Q 19.53125 -1.421875 13.0625 8.265625 
Q 6.59375 17.96875 6.59375 36.375 
Q 6.59375 54.828125 13.0625 64.515625 
Q 19.53125 74.21875 31.78125 74.21875 
" id="DejaVuSans-30"/>
      </defs>
      <g transform="translate(66.036932 266.598437)scale(0.1 -0.1)">
       <use xlink:href="#DejaVuSans-30"/>
      </g>
     </g>
    </g>
    <g id="xtick_2">
     <g id="line2d_3">
      <path clip-path="url(#p583ece0b17)" d="M 119.962369 252 
L 119.962369 34.56 
" style="fill:none;stroke:#b0b0b0;stroke-linecap:square;stroke-width:0.8;"/>
     </g>
     <g id="line2d_4">
      <g>
       <use style="stroke:#000000;stroke-width:0.8;" x="119.962369" xlink:href="#m9e681952ca" y="252"/>
      </g>
     </g>
     <g id="text_2">
      <!-- 500 -->
      <defs>
       <path d="M 10.796875 72.90625 
L 49.515625 72.90625 
L 49.515625 64.59375 
L 19.828125 64.59375 
L 19.828125 46.734375 
Q 21.96875 47.46875 24.109375 47.828125 
Q 26.265625 48.1875 28.421875 48.1875 
Q 40.625 48.1875 47.75 41.5 
Q 54.890625 34.8125 54.890625 23.390625 
Q 54.890625 11.625 47.5625 5.09375 
Q 40.234375 -1.421875 26.90625 -1.421875 
Q 22.3125 -1.421875 17.546875 -0.640625 
Q 12.796875 0.140625 7.71875 1.703125 
L 7.71875 11.625 
Q 12.109375 9.234375 16.796875 8.0625 
Q 21.484375 6.890625 26.703125 6.890625 
Q 35.15625 6.890625 40.078125 11.328125 
Q 45.015625 15.765625 45.015625 23.390625 
Q 45.015625 31 40.078125 35.4375 
Q 35.15625 39.890625 26.703125 39.890625 
Q 22.75 39.890625 18.8125 39.015625 
Q 14.890625 38.140625 10.796875 36.28125 
z
" id="DejaVuSans-35"/>
      </defs>
      <g transform="translate(110.418619 266.598437)scale(0.1 -0.1)">
       <use xlink:href="#DejaVuSans-35"/>
       <use x="63.623047" xlink:href="#DejaVuSans-30"/>
       <use x="127.246094" xlink:href="#DejaVuSans-30"/>
      </g>
     </g>
    </g>
    <g id="xtick_3">
     <g id="line2d_5">
      <path clip-path="url(#p583ece0b17)" d="M 170.706557 252 
L 170.706557 34.56 
" style="fill:none;stroke:#b0b0b0;stroke-linecap:square;stroke-width:0.8;"/>
     </g>
     <g id="line2d_6">
      <g>
       <use style="stroke:#000000;stroke-width:0.8;" x="170.706557" xlink:href="#m9e681952ca" y="252"/>
      </g>
     </g>
     <g id="text_3">
      <!-- 1000 -->
      <defs>
       <path d="M 12.40625 8.296875 
L 28.515625 8.296875 
L 28.515625 63.921875 
L 10.984375 60.40625 
L 10.984375 69.390625 
L 28.421875 72.90625 
L 38.28125 72.90625 
L 38.28125 8.296875 
L 54.390625 8.296875 
L 54.390625 0 
L 12.40625 0 
z
" id="DejaVuSans-31"/>
      </defs>
      <g transform="translate(157.981557 266.598437)scale(0.1 -0.1)">
       <use xlink:href="#DejaVuSans-31"/>
       <use x="63.623047" xlink:href="#DejaVuSans-30"/>
       <use x="127.246094" xlink:href="#DejaVuSans-30"/>
       <use x="190.869141" xlink:href="#DejaVuSans-30"/>
      </g>
     </g>
    </g>
    <g id="xtick_4">
     <g id="line2d_7">
      <path clip-path="url(#p583ece0b17)" d="M 221.450744 252 
L 221.450744 34.56 
" style="fill:none;stroke:#b0b0b0;stroke-linecap:square;stroke-width:0.8;"/>
     </g>
     <g id="line2d_8">
      <g>
       <use style="stroke:#000000;stroke-width:0.8;" x="221.450744" xlink:href="#m9e681952ca" y="252"/>
      </g>
     </g>
     <g id="text_4">
      <!-- 1500 -->
      <g transform="translate(208.725744 266.598437)scale(0.1 -0.1)">
       <use xlink:href="#DejaVuSans-31"/>
       <use x="63.623047" xlink:href="#DejaVuSans-35"/>
       <use x="127.246094" xlink:href="#DejaVuSans-30"/>
       <use x="190.869141" xlink:href="#DejaVuSans-30"/>
      </g>
     </g>
    </g>
    <g id="xtick_5">
     <g id="line2d_9">
      <path clip-path="url(#p583ece0b17)" d="M 272.194932 252 
L 272.194932 34.56 
" style="fill:none;stroke:#b0b0b0;stroke-linecap:square;stroke-width:0.8;"/>
     </g>
     <g id="line2d_10">
      <g>
       <use style="stroke:#000000;stroke-width:0.8;" x="272.194932" xlink:href="#m9e681952ca" y="252"/>
      </g>
     </g>
     <g id="text_5">
      <!-- 2000 -->
      <defs>
       <path d="M 19.1875 8.296875 
L 53.609375 8.296875 
L 53.609375 0 
L 7.328125 0 
L 7.328125 8.296875 
Q 12.9375 14.109375 22.625 23.890625 
Q 32.328125 33.6875 34.8125 36.53125 
Q 39.546875 41.84375 41.421875 45.53125 
Q 43.3125 49.21875 43.3125 52.78125 
Q 43.3125 58.59375 39.234375 62.25 
Q 35.15625 65.921875 28.609375 65.921875 
Q 23.96875 65.921875 18.8125 64.3125 
Q 13.671875 62.703125 7.8125 59.421875 
L 7.8125 69.390625 
Q 13.765625 71.78125 18.9375 73 
Q 24.125 74.21875 28.421875 74.21875 
Q 39.75 74.21875 46.484375 68.546875 
Q 53.21875 62.890625 53.21875 53.421875 
Q 53.21875 48.921875 51.53125 44.890625 
Q 49.859375 40.875 45.40625 35.40625 
Q 44.1875 33.984375 37.640625 27.21875 
Q 31.109375 20.453125 19.1875 8.296875 
" id="DejaVuSans-32"/>
      </defs>
      <g transform="translate(259.469932 266.598437)scale(0.1 -0.1)">
       <use xlink:href="#DejaVuSans-32"/>
       <use x="63.623047" xlink:href="#DejaVuSans-30"/>
       <use x="127.246094" xlink:href="#DejaVuSans-30"/>
       <use x="190.869141" xlink:href="#DejaVuSans-30"/>
      </g>
     </g>
    </g>
    <g id="xtick_6">
     <g id="line2d_11">
      <path clip-path="url(#p583ece0b17)" d="M 322.939119 252 
L 322.939119 34.56 
" style="fill:none;stroke:#b0b0b0;stroke-linecap:square;stroke-width:0.8;"/>
     </g>
     <g id="line2d_12">
      <g>
       <use style="stroke:#000000;stroke-width:0.8;" x="322.939119" xlink:href="#m9e681952ca" y="252"/>
      </g>
     </g>
     <g id="text_6">
      <!-- 2500 -->
      <g transform="translate(310.214119 266.598437)scale(0.1 -0.1)">
       <use xlink:href="#DejaVuSans-32"/>
       <use x="63.623047" xlink:href="#DejaVuSans-35"/>
       <use x="127.246094" xlink:href="#DejaVuSans-30"/>
       <use x="190.869141" xlink:href="#DejaVuSans-30"/>
      </g>
     </g>
    </g>
    <g id="xtick_7">
     <g id="line2d_13">
      <path clip-path="url(#p583ece0b17)" d="M 373.683307 252 
L 373.683307 34.56 
" style="fill:none;stroke:#b0b0b0;stroke-linecap:square;stroke-width:0.8;"/>
     </g>
     <g id="line2d_14">
      <g>
       <use style="stroke:#000000;stroke-width:0.8;" x="373.683307" xlink:href="#m9e681952ca" y="252"/>
      </g>
     </g>
     <g id="text_7">
      <!-- 3000 -->
      <defs>
       <path d="M 40.578125 39.3125 
Q 47.65625 37.796875 51.625 33 
Q 55.609375 28.21875 55.609375 21.1875 
Q 55.609375 10.40625 48.1875 4.484375 
Q 40.765625 -1.421875 27.09375 -1.421875 
Q 22.515625 -1.421875 17.65625 -0.515625 
Q 12.796875 0.390625 7.625 2.203125 
L 7.625 11.71875 
Q 11.71875 9.328125 16.59375 8.109375 
Q 21.484375 6.890625 26.8125 6.890625 
Q 36.078125 6.890625 40.9375 10.546875 
Q 45.796875 14.203125 45.796875 21.1875 
Q 45.796875 27.640625 41.28125 31.265625 
Q 36.765625 34.90625 28.71875 34.90625 
L 20.21875 34.90625 
L 20.21875 43.015625 
L 29.109375 43.015625 
Q 36.375 43.015625 40.234375 45.921875 
Q 44.09375 48.828125 44.09375 54.296875 
Q 44.09375 59.90625 40.109375 62.90625 
Q 36.140625 65.921875 28.71875 65.921875 
Q 24.65625 65.921875 20.015625 65.03125 
Q 15.375 64.15625 9.8125 62.3125 
L 9.8125 71.09375 
Q 15.4375 72.65625 20.34375 73.4375 
Q 25.25 74.21875 29.59375 74.21875 
Q 40.828125 74.21875 47.359375 69.109375 
Q 53.90625 64.015625 53.90625 55.328125 
Q 53.90625 49.265625 50.4375 45.09375 
Q 46.96875 40.921875 40.578125 39.3125 
" id="DejaVuSans-33"/>
      </defs>
      <g transform="translate(360.958307 266.598437)scale(0.1 -0.1)">
       <use xlink:href="#DejaVuSans-33"/>
       <use x="63.623047" xlink:href="#DejaVuSans-30"/>
       <use x="127.246094" xlink:href="#DejaVuSans-30"/>
       <use x="190.869141" xlink:href="#DejaVuSans-30"/>
      </g>
     </g>
    </g>
    <g id="text_8">
     <!-- seconds -->
     <defs>
      <path d="M 44.28125 53.078125 
L 44.28125 44.578125 
Q 40.484375 46.53125 36.375 47.5 
Q 32.28125 48.484375 27.875 48.484375 
Q 21.1875 48.484375 17.84375 46.4375 
Q 14.5 44.390625 14.5 40.28125 
Q 14.5 37.15625 16.890625 35.375 
Q 19.28125 33.59375 26.515625 31.984375 
L 29.59375 31.296875 
Q 39.15625 29.25 43.1875 25.515625 
Q 47.21875 21.78125 47.21875 15.09375 
Q 47.21875 7.46875 41.1875 3.015625 
Q 35.15625 -1.421875 24.609375 -1.421875 
Q 20.21875 -1.421875 15.453125 -0.5625 
Q 10.6875 0.296875 5.421875 2 
L 5.421875 11.28125 
Q 10.40625 8.6875 15.234375 7.390625 
Q 20.0625 6.109375 24.8125 6.109375 
Q 31.15625 6.109375 34.5625 8.28125 
Q 37.984375 10.453125 37.984375 14.40625 
Q 37.984375 18.0625 35.515625 20.015625 
Q 33.0625 21.96875 24.703125 23.78125 
L 21.578125 24.515625 
Q 13.234375 26.265625 9.515625 29.90625 
Q 5.8125 33.546875 5.8125 39.890625 
Q 5.8125 47.609375 11.28125 51.796875 
Q 16.75 56 26.8125 56 
Q 31.78125 56 36.171875 55.265625 
Q 40.578125 54.546875 44.28125 53.078125 
" id="DejaVuSans-73"/>
      <path d="M 56.203125 29.59375 
L 56.203125 25.203125 
L 14.890625 25.203125 
Q 15.484375 15.921875 20.484375 11.0625 
Q 25.484375 6.203125 34.421875 6.203125 
Q 39.59375 6.203125 44.453125 7.46875 
Q 49.3125 8.734375 54.109375 11.28125 
L 54.109375 2.78125 
Q 49.265625 0.734375 44.1875 -0.34375 
Q 39.109375 -1.421875 33.890625 -1.421875 
Q 20.796875 -1.421875 13.15625 6.1875 
Q 5.515625 13.8125 5.515625 26.8125 
Q 5.515625 40.234375 12.765625 48.109375 
Q 20.015625 56 32.328125 56 
Q 43.359375 56 49.78125 48.890625 
Q 56.203125 41.796875 56.203125 29.59375 
M 47.21875 32.234375 
Q 47.125 39.59375 43.09375 43.984375 
Q 39.0625 48.390625 32.421875 48.390625 
Q 24.90625 48.390625 20.390625 44.140625 
Q 15.875 39.890625 15.1875 32.171875 
z
" id="DejaVuSans-65"/>
      <path d="M 48.78125 52.59375 
L 48.78125 44.1875 
Q 44.96875 46.296875 41.140625 47.34375 
Q 37.3125 48.390625 33.40625 48.390625 
Q 24.65625 48.390625 19.8125 42.84375 
Q 14.984375 37.3125 14.984375 27.296875 
Q 14.984375 17.28125 19.8125 11.734375 
Q 24.65625 6.203125 33.40625 6.203125 
Q 37.3125 6.203125 41.140625 7.25 
Q 44.96875 8.296875 48.78125 10.40625 
L 48.78125 2.09375 
Q 45.015625 0.34375 40.984375 -0.53125 
Q 36.96875 -1.421875 32.421875 -1.421875 
Q 20.0625 -1.421875 12.78125 6.34375 
Q 5.515625 14.109375 5.515625 27.296875 
Q 5.515625 40.671875 12.859375 48.328125 
Q 20.21875 56 33.015625 56 
Q 37.15625 56 41.109375 55.140625 
Q 45.0625 54.296875 48.78125 52.59375 
" id="DejaVuSans-63"/>
      <path d="M 30.609375 48.390625 
Q 23.390625 48.390625 19.1875 42.75 
Q 14.984375 37.109375 14.984375 27.296875 
Q 14.984375 17.484375 19.15625 11.84375 
Q 23.34375 6.203125 30.609375 6.203125 
Q 37.796875 6.203125 41.984375 11.859375 
Q 46.1875 17.53125 46.1875 27.296875 
Q 46.1875 37.015625 41.984375 42.703125 
Q 37.796875 48.390625 30.609375 48.390625 
M 30.609375 56 
Q 42.328125 56 49.015625 48.375 
Q 55.71875 40.765625 55.71875 27.296875 
Q 55.71875 13.875 49.015625 6.21875 
Q 42.328125 -1.421875 30.609375 -1.421875 
Q 18.84375 -1.421875 12.171875 6.21875 
Q 5.515625 13.875 5.515625 27.296875 
Q 5.515625 40.765625 12.171875 48.375 
Q 18.84375 56 30.609375 56 
" id="DejaVuSans-6f"/>
      <path d="M 54.890625 33.015625 
L 54.890625 0 
L 45.90625 0 
L 45.90625 32.71875 
Q 45.90625 40.484375 42.875 44.328125 
Q 39.84375 48.1875 33.796875 48.1875 
Q 26.515625 48.1875 22.3125 43.546875 
Q 18.109375 38.921875 18.109375 30.90625 
L 18.109375 0 
L 9.078125 0 
L 9.078125 54.6875 
L 18.109375 54.6875 
L 18.109375 46.1875 
Q 21.34375 51.125 25.703125 53.5625 
Q 30.078125 56 35.796875 56 
Q 45.21875 56 50.046875 50.171875 
Q 54.890625 44.34375 54.890625 33.015625 
" id="DejaVuSans-6e"/>
      <path d="M 45.40625 46.390625 
L 45.40625 75.984375 
L 54.390625 75.984375 
L 54.390625 0 
L 45.40625 0 
L 45.40625 8.203125 
Q 42.578125 3.328125 38.25 0.953125 
Q 33.9375 -1.421875 27.875 -1.421875 
Q 17.96875 -1.421875 11.734375 6.484375 
Q 5.515625 14.40625 5.515625 27.296875 
Q 5.515625 40.1875 11.734375 48.09375 
Q 17.96875 56 27.875 56 
Q 33.9375 56 38.25 53.625 
Q 42.578125 51.265625 45.40625 46.390625 
M 14.796875 27.296875 
Q 14.796875 17.390625 18.875 11.75 
Q 22.953125 6.109375 30.078125 6.109375 
Q 37.203125 6.109375 41.296875 11.75 
Q 45.40625 17.390625 45.40625 27.296875 
Q 45.40625 37.203125 41.296875 42.84375 
Q 37.203125 48.484375 30.078125 48.484375 
Q 22.953125 48.484375 18.875 42.84375 
Q 14.796875 37.203125 14.796875 27.296875 
" id="DejaVuSans-64"/>
     </defs>
     <g transform="translate(200.9625 280.276563)scale(0.1 -0.1)">
      <use xlink:href="#DejaVuSans-73"/>
      <use x="52.099609" xlink:href="#DejaVuSans-65"/>
      <use x="113.623047" xlink:href="#DejaVuSans-63"/>
      <use x="168.603516" xlink:href="#DejaVuSans-6f"/>
      <use x="229.785156" xlink:href="#DejaVuSans-6e"/>
      <use x="293.164062" xlink:href="#DejaVuSans-64"/>
      <use x="356.640625" xlink:href="#DejaVuSans-73"/>
     </g>
    </g>
   </g>
   <g id="matplotlib.axis_2">
    <g id="ytick_1">
     <g id="line2d_15">
      <path clip-path="url(#p583ece0b17)" d="M 54 225.481357 
L 388.8 225.481357 
" style="fill:none;stroke:#b0b0b0;stroke-linecap:square;stroke-width:0.8;"/>
     </g>
     <g id="line2d_16">
      <defs>
       <path d="M 0 0 
L -3.5 0 
" id="mf200dcb7f8" style="stroke:#000000;stroke-width:0.8;"/>
      </defs>
      <g>
       <use style="stroke:#000000;stroke-width:0.8;" x="54" xlink:href="#mf200dcb7f8" y="225.481357"/>
      </g>
     </g>
     <g id="text_9">
      <!-- 10 -->
      <g transform="translate(34.275 229.280576)scale(0.1 -0.1)">
       <use xlink:href="#DejaVuSans-31"/>
       <use x="63.623047" xlink:href="#DejaVuSans-30"/>
      </g>
     </g>
    </g>
    <g id="ytick_2">
     <g id="line2d_17">
      <path clip-path="url(#p583ece0b17)" d="M 54 189.642285 
L 388.8 189.642285 
" style="fill:none;stroke:#b0b0b0;stroke-linecap:square;stroke-width:0.8;"/>
     </g>
     <g id="line2d_18">
      <g>
       <use style="stroke:#000000;stroke-width:0.8;" x="54" xlink:href="#mf200dcb7f8" y="189.642285"/>
      </g>
     </g>
     <g id="text_10">
      <!-- 20 -->
      <g transform="translate(34.275 193.441504)scale(0.1 -0.1)">
       <use xlink:href="#DejaVuSans-32"/>
       <use x="63.623047" xlink:href="#DejaVuSans-30"/>
      </g>
     </g>
    </g>
    <g id="ytick_3">
     <g id="line2d_19">
      <path clip-path="url(#p583ece0b17)" d="M 54 153.803214 
L 388.8 153.803214 
" style="fill:none;stroke:#b0b0b0;stroke-linecap:square;stroke-width:0.8;"/>
     </g>
     <g id="line2d_20">
      <g>
       <use style="stroke:#000000;stroke-width:0.8;" x="54" xlink:href="#mf200dcb7f8" y="153.803214"/>
      </g>
     </g>
     <g id="text_11">
      <!-- 30 -->
      <g transform="translate(34.275 157.602432)scale(0.1 -0.1)">
       <use xlink:href="#DejaVuSans-33"/>
       <use x="63.623047" xlink:href="#DejaVuSans-30"/>
      </g>
     </g>
    </g>
    <g id="ytick_4">
     <g id="line2d_21">
      <path clip-path="url(#p583ece0b17)" d="M 54 117.964142 
L 388.8 117.964142 
" style="fill:none;stroke:#b0b0b0;stroke-linecap:square;stroke-width:0.8;"/>
     </g>
     <g id="line2d_22">
      <g>
       <use style="stroke:#000000;stroke-width:0.8;" x="54" xlink:href="#mf200dcb7f8" y="117.964142"/>
      </g>
     </g>
     <g id="text_12">
      <!-- 40 -->
      <defs>
       <path d="M 37.796875 64.3125 
L 12.890625 25.390625 
L 37.796875 25.390625 
z
M 35.203125 72.90625 
L 47.609375 72.90625 
L 47.609375 25.390625 
L 58.015625 25.390625 
L 58.015625 17.1875 
L 47.609375 17.1875 
L 47.609375 0 
L 37.796875 0 
L 37.796875 17.1875 
L 4.890625 17.1875 
L 4.890625 26.703125 
z
" id="DejaVuSans-34"/>
      </defs>
      <g transform="translate(34.275 121.763361)scale(0.1 -0.1)">
       <use xlink:href="#DejaVuSans-34"/>
       <use x="63.623047" xlink:href="#DejaVuSans-30"/>
      </g>
     </g>
    </g>
    <g id="ytick_5">
     <g id="line2d_23">
      <path clip-path="url(#p583ece0b17)" d="M 54 82.12507 
L 388.8 82.12507 
" style="fill:none;stroke:#b0b0b0;stroke-linecap:square;stroke-width:0.8;"/>
     </g>
     <g id="line2d_24">
      <g>
       <use style="stroke:#000000;stroke-width:0.8;" x="54" xlink:href="#mf200dcb7f8" y="82.12507"/>
      </g>
     </g>
     <g id="text_13">
      <!-- 50 -->
      <g transform="translate(34.275 85.924289)scale(0.1 -0.1)">
       <use xlink:href="#DejaVuSans-35"/>
       <use x="63.623047" xlink:href="#DejaVuSans-30"/>
      </g>
     </g>
    </g>
    <g id="ytick_6">
     <g id="line2d_25">
      <path clip-path="url(#p583ece0b17)" d="M 54 46.285998 
L 388.8 46.285998 
" style="fill:none;stroke:#b0b0b0;stroke-linecap:square;stroke-width:0.8;"/>
     </g>
     <g id="line2d_26">
      <g>
       <use style="stroke:#000000;stroke-width:0.8;" x="54" xlink:href="#mf200dcb7f8" y="46.285998"/>
      </g>
     </g>
     <g id="text_14">
      <!-- 60 -->
      <defs>
       <path d="M 33.015625 40.375 
Q 26.375 40.375 22.484375 35.828125 
Q 18.609375 31.296875 18.609375 23.390625 
Q 18.609375 15.53125 22.484375 10.953125 
Q 26.375 6.390625 33.015625 6.390625 
Q 39.65625 6.390625 43.53125 10.953125 
Q 47.40625 15.53125 47.40625 23.390625 
Q 47.40625 31.296875 43.53125 35.828125 
Q 39.65625 40.375 33.015625 40.375 
M 52.59375 71.296875 
L 52.59375 62.3125 
Q 48.875 64.0625 45.09375 64.984375 
Q 41.3125 65.921875 37.59375 65.921875 
Q 27.828125 65.921875 22.671875 59.328125 
Q 17.53125 52.734375 16.796875 39.40625 
Q 19.671875 43.65625 24.015625 45.921875 
Q 28.375 48.1875 33.59375 48.1875 
Q 44.578125 48.1875 50.953125 41.515625 
Q 57.328125 34.859375 57.328125 23.390625 
Q 57.328125 12.15625 50.6875 5.359375 
Q 44.046875 -1.421875 33.015625 -1.421875 
Q 20.359375 -1.421875 13.671875 8.265625 
Q 6.984375 17.96875 6.984375 36.375 
Q 6.984375 53.65625 15.1875 63.9375 
Q 23.390625 74.21875 37.203125 74.21875 
Q 40.921875 74.21875 44.703125 73.484375 
Q 48.484375 72.75 52.59375 71.296875 
" id="DejaVuSans-36"/>
      </defs>
      <g transform="translate(34.275 50.085217)scale(0.1 -0.1)">
       <use xlink:href="#DejaVuSans-36"/>
       <use x="63.623047" xlink:href="#DejaVuSans-30"/>
      </g>
     </g>
    </g>
    <g id="text_15">
     <!-- Kilowatts  -->
     <defs>
      <path d="M 9.8125 72.90625 
L 19.671875 72.90625 
L 19.671875 42.09375 
L 52.390625 72.90625 
L 65.09375 72.90625 
L 28.90625 38.921875 
L 67.671875 0 
L 54.6875 0 
L 19.671875 35.109375 
L 19.671875 0 
L 9.8125 0 
z
" id="DejaVuSans-4b"/>
      <path d="M 9.421875 54.6875 
L 18.40625 54.6875 
L 18.40625 0 
L 9.421875 0 
z
M 9.421875 75.984375 
L 18.40625 75.984375 
L 18.40625 64.59375 
L 9.421875 64.59375 
z
" id="DejaVuSans-69"/>
      <path d="M 9.421875 75.984375 
L 18.40625 75.984375 
L 18.40625 0 
L 9.421875 0 
z
" id="DejaVuSans-6c"/>
      <path d="M 4.203125 54.6875 
L 13.1875 54.6875 
L 24.421875 12.015625 
L 35.59375 54.6875 
L 46.1875 54.6875 
L 57.421875 12.015625 
L 68.609375 54.6875 
L 77.59375 54.6875 
L 63.28125 0 
L 52.6875 0 
L 40.921875 44.828125 
L 29.109375 0 
L 18.5 0 
z
" id="DejaVuSans-77"/>
      <path d="M 34.28125 27.484375 
Q 23.390625 27.484375 19.1875 25 
Q 14.984375 22.515625 14.984375 16.5 
Q 14.984375 11.71875 18.140625 8.90625 
Q 21.296875 6.109375 26.703125 6.109375 
Q 34.1875 6.109375 38.703125 11.40625 
Q 43.21875 16.703125 43.21875 25.484375 
L 43.21875 27.484375 
z
M 52.203125 31.203125 
L 52.203125 0 
L 43.21875 0 
L 43.21875 8.296875 
Q 40.140625 3.328125 35.546875 0.953125 
Q 30.953125 -1.421875 24.3125 -1.421875 
Q 15.921875 -1.421875 10.953125 3.296875 
Q 6 8.015625 6 15.921875 
Q 6 25.140625 12.171875 29.828125 
Q 18.359375 34.515625 30.609375 34.515625 
L 43.21875 34.515625 
L 43.21875 35.40625 
Q 43.21875 41.609375 39.140625 45 
Q 35.0625 48.390625 27.6875 48.390625 
Q 23 48.390625 18.546875 47.265625 
Q 14.109375 46.140625 10.015625 43.890625 
L 10.015625 52.203125 
Q 14.9375 54.109375 19.578125 55.046875 
Q 24.21875 56 28.609375 56 
Q 40.484375 56 46.34375 49.84375 
Q 52.203125 43.703125 52.203125 31.203125 
" id="DejaVuSans-61"/>
      <path d="M 18.3125 70.21875 
L 18.3125 54.6875 
L 36.8125 54.6875 
L 36.8125 47.703125 
L 18.3125 47.703125 
L 18.3125 18.015625 
Q 18.3125 11.328125 20.140625 9.421875 
Q 21.96875 7.515625 27.59375 7.515625 
L 36.8125 7.515625 
L 36.8125 0 
L 27.59375 0 
Q 17.1875 0 13.234375 3.875 
Q 9.28125 7.765625 9.28125 18.015625 
L 9.28125 47.703125 
L 2.6875 47.703125 
L 2.6875 54.6875 
L 9.28125 54.6875 
L 9.28125 70.21875 
z
" id="DejaVuSans-74"/>
      <path id="DejaVuSans-20"/>
     </defs>
     <g transform="translate(28.195312 167.663594)rotate(-90)scale(0.1 -0.1)">
      <use xlink:href="#DejaVuSans-4b"/>
      <use x="65.576172" xlink:href="#DejaVuSans-69"/>
      <use x="93.359375" xlink:href="#DejaVuSans-6c"/>
      <use x="121.142578" xlink:href="#DejaVuSans-6f"/>
      <use x="182.324219" xlink:href="#DejaVuSans-77"/>
      <use x="264.111328" xlink:href="#DejaVuSans-61"/>
      <use x="325.390625" xlink:href="#DejaVuSans-74"/>
      <use x="364.599609" xlink:href="#DejaVuSans-74"/>
      <use x="403.808594" xlink:href="#DejaVuSans-73"/>
      <use x="455.908203" xlink:href="#DejaVuSans-20"/>
     </g>
    </g>
   </g>
   <g id="line2d_27">
    <path clip-path="url(#p583ece0b17)" d="M 69.218182 47.465276 
L 69.9286 47.57423 
L 70.537531 47.49499 
L 70.639019 47.702993 
L 70.841996 48.554815 
L 71.146461 47.831757 
L 71.450926 47.613849 
L 71.958368 47.425656 
L 72.059856 47.286988 
L 72.262833 47.336512 
L 73.988135 47.57423 
L 74.089624 47.366227 
L 74.292601 46.54412 
L 74.495577 47.227558 
L 75.510461 47.227558 
L 75.916415 47.197843 
L 76.22088 47.128509 
L 76.423856 47.098794 
L 77.235763 47.039365 
L 77.337252 46.861077 
L 77.946182 47.158224 
L 78.04767 47.57423 
L 78.250647 47.286988 
L 78.453624 47.108699 
L 79.164043 47.138414 
L 79.569996 47.04927 
L 79.671484 47.059175 
L 79.874461 46.999746 
L 80.280415 46.999746 
L 80.58488 46.989841 
L 81.092322 46.999746 
L 81.498275 47.02946 
L 82.107205 46.920506 
L 82.310182 46.771933 
L 82.411671 46.930411 
L 82.614647 46.811552 
L 83.020601 47.148319 
L 83.426554 47.059175 
L 83.731019 47.019555 
L 84.136973 46.999746 
L 85.456322 46.801648 
L 85.963764 47.04927 
L 86.065252 46.940316 
L 86.572694 47.356322 
L 86.674182 47.752518 
L 86.775671 47.722803 
L 86.978647 47.405846 
L 87.587578 47.524705 
L 87.993531 47.376132 
L 88.196508 47.485086 
L 88.500973 47.564325 
L 88.602461 47.603944 
L 88.805438 47.445466 
L 89.008415 47.455371 
L 89.617345 47.485086 
L 90.023299 47.643564 
L 90.124787 47.53461 
L 90.327764 47.594039 
L 90.733717 47.49499 
L 90.835206 47.57423 
L 91.139671 46.960126 
L 91.444136 47.197843 
L 91.748601 47.217653 
L 91.951578 47.128509 
L 94.082834 47.019555 
L 94.590276 46.989841 
L 94.793252 47.00965 
L 95.097717 46.930411 
L 98.243857 46.643169 
L 98.548322 46.851172 
L 98.954276 46.831362 
L 99.461718 46.920506 
L 101.79595 47.019555 
L 103.419764 47.237463 
L 103.724229 47.237463 
L 104.130183 47.316702 
L 104.33316 47.267178 
L 104.536136 47.04927 
L 105.043578 47.00965 
L 105.652508 47.059175 
L 106.667392 47.247368 
L 107.276322 47.346417 
L 107.783764 47.04927 
L 108.494183 46.979936 
L 108.69716 46.950221 
L 109.103113 46.940316 
L 110.625439 46.732313 
L 110.929904 46.623359 
L 111.031392 46.623359 
L 111.132881 46.494596 
L 111.437346 46.554025 
L 111.538834 46.573835 
L 111.741811 46.375737 
L 111.944788 46.534215 
L 112.249253 46.623359 
L 113.467113 46.454976 
L 113.568602 46.355927 
L 114.380509 46.722408 
L 114.481997 46.60355 
L 114.583485 46.841267 
L 114.684974 46.672884 
L 114.786462 46.742218 
L 114.887951 46.56393 
L 114.989439 46.702599 
L 115.192416 46.653074 
L 115.395392 46.692694 
L 115.598369 46.653074 
L 115.902834 46.474786 
L 116.004323 46.633264 
L 116.105811 46.474786 
L 116.207299 46.60355 
L 116.308788 46.474786 
L 116.410276 46.682789 
L 116.613253 46.375737 
L 116.714741 46.425261 
L 116.81623 46.316307 
L 116.917718 46.692694 
L 117.019206 46.187544 
L 117.120695 46.286593 
L 117.222183 46.613454 
L 117.42516 46.375737 
L 117.628137 46.633264 
L 117.729625 46.52431 
L 117.831113 46.653074 
L 117.932602 46.445071 
L 118.135579 46.633264 
L 118.440044 46.722408 
L 118.541532 46.494596 
L 118.744509 46.682789 
L 118.947486 46.56393 
L 120.672788 46.494596 
L 121.078741 46.504501 
L 123.615951 46.831362 
L 124.224881 47.098794 
L 124.732323 47.039365 
L 125.239765 46.732313 
L 125.950183 46.771933 
L 127.979951 46.930411 
L 128.081439 46.762028 
L 128.182928 46.900697 
L 128.284416 46.435166 
L 128.385904 46.870982 
L 128.487393 46.554025 
L 128.588881 46.841267 
L 128.69037 46.385642 
L 128.791858 46.623359 
L 128.893346 46.425261 
L 129.096323 46.613454 
L 129.2993 46.405452 
L 129.400788 46.662979 
L 129.502277 46.306403 
L 129.603765 46.435166 
L 129.90823 46.237068 
L 130.009718 46.365832 
L 130.111207 46.217258 
L 130.212695 46.464881 
L 130.314184 46.197449 
L 130.923114 46.54412 
L 131.227579 46.514405 
L 131.329067 46.613454 
L 131.532044 46.484691 
L 131.937998 46.454976 
L 132.343951 46.445071 
L 132.648416 46.385642 
L 133.155858 46.326212 
L 133.967765 46.246973 
L 134.27223 46.147924 
L 134.678184 46.355927 
L 135.490091 46.494596 
L 135.896044 46.56393 
L 136.910928 46.821457 
L 137.113905 47.078985 
L 137.215393 47.04927 
L 137.41837 46.752123 
L 137.621347 46.861077 
L 137.722835 46.732313 
L 137.824323 46.831362 
L 138.230277 46.712503 
L 139.549626 46.930411 
L 140.057068 46.534215 
L 140.260044 46.554025 
L 140.767486 46.514405 
L 141.071951 46.514405 
L 143.913626 46.514405 
L 144.116603 46.425261 
L 144.92851 46.365832 
L 145.131486 46.336117 
L 145.435951 46.237068 
L 145.53744 46.336117 
L 145.740417 46.276688 
L 146.044882 46.128114 
L 146.349347 45.632869 
L 146.450835 45.702204 
L 146.653812 46.217258 
L 146.958277 46.286593 
L 148.074649 46.375737 
L 149.698463 46.821457 
L 150.205905 46.52431 
L 152.438649 46.662979 
L 152.743114 46.454976 
L 153.047579 46.385642 
L 153.149068 46.464881 
L 153.453533 46.306403 
L 153.555021 46.336117 
L 153.757998 46.266783 
L 153.859486 46.276688 
L 154.062463 46.088495 
L 154.163952 46.187544 
L 154.26544 46.108305 
L 154.366928 46.197449 
L 154.468417 46.068685 
L 154.569905 46.405452 
L 154.671393 46.276688 
L 154.772882 46.355927 
L 155.280324 45.880492 
L 155.381812 45.830967 
L 155.584789 46.01916 
L 156.295207 46.118209 
L 157.310091 46.029065 
L 157.614556 45.939921 
L 157.919021 45.920111 
L 158.324975 45.801253 
L 159.23837 46.256878 
L 159.644324 46.227163 
L 159.847301 46.207354 
L 160.456231 46.326212 
L 160.760696 46.296498 
L 161.065161 45.61306 
L 161.268138 46.197449 
L 162.485998 46.227163 
L 162.587487 46.464881 
L 162.688975 46.306403 
L 163.196417 46.435166 
L 163.805347 46.494596 
L 164.109812 46.682789 
L 164.515766 46.385642 
L 165.429161 46.197449 
L 165.632138 46.831362 
L 165.733626 47.02946 
L 165.936603 46.771933 
L 166.13958 46.316307 
L 167.661905 46.256878 
L 167.763394 46.07859 
L 167.966371 46.227163 
L 168.575301 46.177639 
L 169.488696 46.0984 
L 169.793161 46.03897 
L 169.89465 46.108305 
L 170.097626 46.03897 
L 170.199115 46.108305 
L 170.402092 46.01916 
L 170.50358 46.118209 
L 170.909533 45.880492 
L 171.11251 45.315913 
L 171.416975 45.731918 
L 172.127394 45.642774 
L 172.634836 46.088495 
L 172.837813 45.969636 
L 174.157161 45.900302 
L 174.25865 45.771538 
L 174.461627 45.840872 
L 175.172045 45.632869 
L 175.273534 45.741823 
L 175.47651 46.256878 
L 175.882464 45.652679 
L 176.288417 45.821062 
L 176.592882 45.880492 
L 176.998836 45.890397 
L 177.201813 45.751728 
L 177.404789 45.840872 
L 177.607766 45.880492 
L 177.912231 45.890397 
L 178.419673 45.979541 
L 178.521162 45.900302 
L 178.62265 46.07859 
L 178.724138 45.939921 
L 178.927115 46.05878 
L 179.23158 46.237068 
L 179.333069 45.989446 
L 179.434557 46.05878 
L 179.637534 45.306008 
L 179.84051 45.969636 
L 180.347952 46.029065 
L 180.652417 46.128114 
L 180.753906 46.395547 
L 180.855394 46.286593 
L 181.261348 46.464881 
L 181.870278 46.108305 
L 182.174743 46.0984 
L 182.580697 46.05878 
L 182.682185 46.07859 
L 182.885162 46.910601 
L 183.088138 46.207354 
L 183.697069 46.187544 
L 183.900045 46.147924 
L 184.001534 45.910207 
L 184.204511 46.03897 
L 184.610464 46.01916 
L 185.828325 46.048875 
L 186.13279 46.237068 
L 186.437255 45.266388 
L 186.640232 45.890397 
L 186.843208 45.880492 
L 187.35065 45.880492 
L 188.467022 46.138019 
L 188.669999 46.108305 
L 189.278929 46.07859 
L 189.481906 46.157829 
L 190.192325 46.118209 
L 190.293813 46.484691 
L 190.395301 46.425261 
L 190.49679 46.742218 
L 190.699767 46.07859 
L 191.004232 46.05878 
L 192.019115 46.147924 
L 192.120604 46.187544 
L 192.222092 46.01916 
L 192.425069 46.256878 
L 193.033999 46.296498 
L 193.439953 46.01916 
L 193.642929 46.03897 
L 193.845906 46.138019 
L 193.947395 45.979541 
L 194.150371 46.157829 
L 194.25186 46.0984 
L 194.657813 46.316307 
L 194.759302 46.157829 
L 194.86079 46.316307 
L 195.063767 45.414962 
L 195.165255 45.514011 
L 195.368232 46.029065 
L 196.281627 45.840872 
L 196.383116 46.088495 
L 196.586092 45.900302 
L 196.890557 45.821062 
L 198.209906 45.325817 
L 198.311395 45.137624 
L 198.61586 45.256483 
L 198.818837 46.217258 
L 199.021813 45.603155 
L 199.630744 45.61306 
L 200.239674 45.414962 
L 200.544139 45.414962 
L 201.153069 45.385247 
L 201.254558 45.464486 
L 201.356046 45.375342 
L 201.761999 45.880492 
L 201.964976 44.909812 
L 202.066465 44.998956 
L 202.167953 45.692299 
L 202.269441 45.662584 
L 202.472418 45.672489 
L 202.878372 45.791348 
L 202.97986 46.009256 
L 203.182837 45.959731 
L 203.893255 46.05878 
L 204.299209 46.068685 
L 204.705162 45.712109 
L 204.806651 45.692299 
L 205.111116 46.593645 
L 205.314093 45.959731 
L 205.720046 46.01916 
L 206.227488 45.969636 
L 206.328976 45.811158 
L 206.531953 45.920111 
L 207.648325 45.731918 
L 207.749814 45.830967 
L 207.95279 45.702204 
L 208.257255 45.791348 
L 208.561721 45.583345 
L 208.764697 44.62257 
L 209.069162 45.236673 
L 209.373628 45.0881 
L 209.576604 45.157434 
L 209.881069 45.444676 
L 209.982558 45.632869 
L 210.185535 45.523915 
L 210.591488 45.484296 
L 211.504883 45.325817 
L 211.606372 45.325817 
L 211.809349 45.127719 
L 211.910837 45.197054 
L 212.113814 46.147924 
L 212.215302 45.910207 
L 212.418279 45.444676 
L 212.925721 45.53382 
L 213.128697 45.543725 
L 213.230186 45.365437 
L 213.433163 45.563535 
L 213.737628 45.642774 
L 214.549535 46.03897 
L 214.651023 46.009256 
L 214.752511 46.326212 
L 214.854 46.286593 
L 215.158465 46.217258 
L 215.361442 45.206959 
L 215.46293 45.325817 
L 215.665907 45.751728 
L 216.274837 45.712109 
L 216.579302 45.751728 
L 216.680791 45.959731 
L 216.883767 45.821062 
L 217.289721 45.771538 
L 218.000139 45.59325 
L 218.507581 45.484296 
L 218.812046 45.306008 
L 219.015023 45.276293 
L 219.319488 45.236673 
L 219.522465 45.59325 
L 219.725442 45.751728 
L 219.928419 45.226768 
L 220.232884 45.167339 
L 220.943302 45.266388 
L 221.247767 45.563535 
L 221.552233 45.692299 
L 221.653721 45.53382 
L 221.958186 45.781443 
L 222.465628 45.910207 
L 222.97307 45.642774 
L 223.277535 45.61306 
L 223.683488 45.692299 
L 224.19093 45.692299 
L 224.292419 45.860682 
L 224.495395 45.692299 
L 224.698372 45.731918 
L 225.002837 45.801253 
L 225.307302 45.791348 
L 225.611768 45.840872 
L 226.119209 45.771538 
L 226.220698 45.642774 
L 226.322186 45.761633 
L 226.525163 45.652679 
L 226.626651 45.731918 
L 226.829628 45.61306 
L 227.134093 45.622964 
L 228.757907 45.672489 
L 228.859396 45.642774 
L 229.062372 45.712109 
L 229.366837 45.61306 
L 230.381721 45.622964 
L 230.48321 45.464486 
L 230.584698 44.840477 
L 230.686186 45.444676 
L 230.787675 45.405057 
L 230.990651 45.850777 
L 231.396605 45.830967 
L 231.498093 45.722013 
L 231.599582 45.801253 
L 231.70107 45.702204 
L 231.802558 45.821062 
L 232.005535 45.761633 
L 232.31 45.791348 
L 232.614465 45.771538 
L 233.223396 45.731918 
L 233.527861 45.464486 
L 234.035303 45.385247 
L 234.339768 45.266388 
L 234.542745 45.276293 
L 235.354652 45.06829 
L 235.963582 45.008861 
L 236.268047 45.266388 
L 237.384419 45.246578 
L 237.587396 45.414962 
L 237.688884 45.920111 
L 237.790373 45.365437 
L 237.891861 45.523915 
L 238.094838 45.187149 
L 238.297814 45.008861 
L 238.399303 45.078195 
L 238.500791 44.949431 
L 238.703768 45.0881 
L 239.008233 45.04848 
L 241.443954 45.04848 
L 241.748419 45.306008 
L 241.849908 45.187149 
L 242.154373 45.266388 
L 242.864791 45.355532 
L 244.18414 45.632869 
L 244.387117 45.514011 
L 244.590094 45.306008 
L 245.097536 45.216864 
L 245.199024 45.157434 
L 245.300512 45.424866 
L 245.402001 45.306008 
L 245.604977 45.59325 
L 245.706466 45.484296 
L 245.807954 45.563535 
L 245.909443 45.474391 
L 246.010931 45.751728 
L 246.112419 45.424866 
L 246.315396 45.702204 
L 246.416884 45.840872 
L 246.619861 45.632869 
L 246.822838 45.543725 
L 247.025815 45.57344 
L 247.837722 45.55363 
L 248.040698 45.583345 
L 248.751117 45.622964 
L 248.852605 45.543725 
L 249.055582 121.217159 
L 249.563024 138.600257 
L 250.070466 149.416408 
L 250.171954 160.816947 
L 250.273443 186.440923 
L 250.374931 186.034822 
L 251.389815 194.830373 
L 252.100233 198.960716 
L 252.810652 202.100569 
L 253.724047 205.299852 
L 253.927024 205.656428 
L 254.028513 205.606904 
L 254.535954 207.498739 
L 256.261257 211.460699 
L 257.479117 213.520918 
L 257.986559 214.214261 
L 258.189536 214.957129 
L 258.392513 215.581137 
L 258.494001 215.28399 
L 258.696978 215.521708 
L 259.305908 216.403244 
L 259.711862 216.829155 
L 260.625257 218.017743 
L 261.03121 218.612037 
L 261.234187 218.998328 
L 261.437164 218.839849 
L 261.538652 218.364414 
L 261.640141 218.552607 
L 261.843117 219.335094 
L 262.249071 219.711481 
L 263.263955 220.751495 
L 264.380327 221.593412 
L 264.583304 222.841429 
L 264.78628 222.118371 
L 265.395211 222.653236 
L 265.598187 222.782 
L 265.699676 222.643331 
L 265.902652 222.920668 
L 266.714559 223.67344 
L 266.816048 223.653631 
L 266.917536 223.970587 
L 267.019025 223.792299 
L 267.32349 224.396498 
L 267.424978 224.25783 
L 267.526466 224.366783 
L 267.627955 224.21821 
L 267.729443 223.534772 
L 267.830932 223.683345 
L 268.033908 224.485642 
L 268.845815 224.980887 
L 269.15028 225.238415 
L 269.860699 225.624706 
L 270.368141 225.921853 
L 271.281536 226.278429 
L 271.484513 226.753864 
L 271.586001 227.546256 
L 271.788978 226.753864 
L 273.311304 227.457112 
L 273.615769 227.645305 
L 274.123211 227.932547 
L 274.427676 228.259409 
L 274.630653 228.19998 
L 274.833629 227.605686 
L 274.935118 227.665115 
L 275.138095 228.299029 
L 275.544048 228.407983 
L 277.370839 229.180565 
L 278.182746 229.358853 
L 278.385723 229.864003 
L 278.487211 230.280009 
L 278.588699 230.230484 
L 278.791676 229.764954 
L 279.096141 229.923432 
L 279.908048 230.210674 
L 280.009537 230.052196 
L 280.212513 230.250294 
L 281.227397 230.62668 
L 282.445258 231.09221 
L 282.952699 231.339833 
L 283.460141 230.795063 
L 283.663118 231.349738 
L 284.880979 231.676599 
L 285.692886 232.013366 
L 285.895862 232.013366 
L 286.301816 232.092605 
L 286.910746 232.270893 
L 287.012234 232.181749 
L 287.113723 232.300608 
L 287.3167 232.270893 
L 287.418188 232.310513 
L 287.621165 232.14213 
L 287.824141 232.399657 
L 288.027118 232.62747 
L 288.128607 233.281193 
L 288.230095 233.142525 
L 288.433072 232.637375 
L 289.244979 232.914712 
L 289.549444 232.964236 
L 289.650932 232.766138 
L 289.853909 232.984046 
L 290.462839 233.122715 
L 290.970281 233.291098 
L 291.274746 233.390147 
L 291.376235 233.469386 
L 291.477723 233.251478 
L 291.6807 233.479291 
L 292.188142 233.825963 
L 292.28963 233.588245 
L 292.391118 233.746723 
L 292.695583 232.924617 
L 292.89856 233.677389 
L 294.014932 233.944821 
L 294.116421 234.06368 
L 294.319397 234.014156 
L 294.725351 234.1033 
L 296.552142 234.202349 
L 296.856607 235.262173 
L 297.059583 234.539115 
L 298.175956 234.757023 
L 298.277444 234.529211 
L 298.480421 234.757023 
L 298.886374 234.826357 
L 299.495304 235.03436 
L 299.596793 234.965026 
L 299.79977 235.044265 
L 300.510188 235.331507 
L 300.713165 235.03436 
L 300.916142 234.529211 
L 301.119118 235.232458 
L 301.931025 235.321602 
L 302.032514 235.361222 
L 302.235491 235.489986 
L 302.438467 235.499891 
L 302.844421 235.57913 
L 303.250374 235.569225 
L 303.554839 235.569225 
L 303.960793 235.371127 
L 304.16377 235.846562 
L 304.265258 236.658764 
L 304.569723 235.816847 
L 304.874188 235.945611 
L 305.178653 235.955516 
L 305.280142 235.955516 
L 305.38163 235.787133 
L 305.584607 235.935706 
L 305.889072 235.965421 
L 306.396514 236.123899 
L 306.700979 236.143709 
L 306.802467 236.242758 
L 306.903956 236.10409 
L 307.005444 236.312092 
L 307.208421 236.222948 
L 307.715863 236.450761 
L 307.91884 236.411141 
L 308.020328 236.539905 
L 308.426281 235.797038 
L 308.629258 236.351712 
L 310.050095 236.56962 
L 310.456049 236.827147 
L 310.659026 236.708288 
L 311.267956 236.797433 
L 311.876886 236.866767 
L 312.688793 236.926196 
L 313.399212 236.678574 
L 313.805165 237.847352 
L 314.008142 237.173819 
L 314.921537 237.282773 
L 315.023026 237.154009 
L 315.428979 237.292678 
L 316.748328 237.649254 
L 317.052793 237.778018 
L 317.357258 236.876672 
L 317.560235 237.52049 
L 317.763212 237.589824 
L 318.067677 237.589824 
L 318.676607 237.659159 
L 318.778096 237.896876 
L 318.981072 237.768113 
L 320.300421 237.877067 
L 320.604886 237.847352 
L 320.909352 237.708683 
L 321.112328 237.778018 
L 321.315305 238.748698 
L 321.721259 238.075165 
L 322.2287 238.164309 
L 322.431677 238.174214 
L 322.533166 237.966211 
L 322.736142 238.114784 
L 323.243584 238.223738 
L 323.852514 238.431741 
L 324.055491 238.629839 
L 324.15698 238.718983 
L 324.359956 237.5403 
L 324.461445 237.659159 
L 324.562933 238.322787 
L 324.664421 238.302977 
L 324.867398 238.273263 
L 325.273352 238.392121 
L 325.780794 238.540695 
L 326.288235 238.53079 
L 326.795677 238.580314 
L 327.100142 238.461456 
L 327.201631 238.590219 
L 327.404608 238.392121 
L 327.607584 238.540695 
L 327.810561 238.669459 
L 328.013538 239.095369 
L 328.115026 239.273657 
L 328.318003 238.778412 
L 328.52098 238.778412 
L 338.872794 239.699568 
L 339.177259 239.729283 
L 342.932329 240.00662 
L 343.338282 240.02643 
L 344.251678 240.075954 
L 344.556143 240.165098 
L 344.860608 240.125479 
L 344.962096 240.125479 
L 345.063585 239.907571 
L 345.165073 240.274052 
L 345.266562 240.075954 
L 345.36805 240.165098 
L 345.469538 239.957096 
L 345.571027 240.293862 
L 345.672515 240.145289 
L 345.774003 240.313672 
L 345.875492 240.075954 
L 345.97698 240.482055 
L 346.078469 239.976905 
L 346.179957 240.283957 
L 346.281445 240.155194 
L 346.382934 240.551389 
L 346.484422 240.323577 
L 346.58591 240.392911 
L 346.687399 240.274052 
L 346.788887 240.422626 
L 346.890376 240.274052 
L 346.991864 240.45234 
L 347.093352 240.254243 
L 347.296329 240.363196 
L 347.803771 240.363196 
L 348.006748 240.392911 
L 348.412701 240.442436 
L 349.224608 240.462245 
L 354.907957 240.927776 
L 355.212422 240.907966 
L 355.415399 240.907966 
L 355.516887 240.789107 
L 355.719864 240.937681 
L 359.170469 241.195208 
L 359.271957 241.50226 
L 359.373446 241.205113 
L 359.474934 241.323972 
L 359.576422 240.818822 
L 359.677911 241.046634 
L 359.779399 240.620724 
L 359.880888 240.947585 
L 359.982376 240.907966 
L 360.185353 241.195208 
L 360.388329 241.215018 
L 360.99726 241.244732 
L 361.504702 241.284352 
L 362.722562 241.423021 
L 363.534469 241.423021 
L 363.940423 241.48245 
L 364.244888 241.44283 
L 364.549353 241.52207 
L 364.650841 241.403211 
L 364.853818 241.472545 
L 364.955306 241.571594 
L 365.158283 241.423021 
L 365.259771 241.551784 
L 365.462748 241.46264 
L 365.868702 241.492355 
L 366.376144 241.512165 
L 366.57912 241.660738 
L 366.782097 241.601309 
L 366.883585 241.769692 
L 366.985074 241.640928 
L 367.086562 241.918266 
L 367.188051 241.690453 
L 367.391027 242.116364 
L 367.796981 241.640928 
L 367.898469 241.888551 
L 367.999958 241.730073 
L 368.202934 241.730073 
L 371.653539 241.957885 
L 373.581818 241.997505 
L 373.581818 241.997505 
" style="fill:none;stroke:#ff0000;stroke-linecap:square;stroke-width:0.3;"/>
   </g>
   <g id="line2d_28">
    <path clip-path="url(#p583ece0b17)" d="M 69.218182 47.384097 
L 69.624135 47.493003 
L 70.334554 47.460331 
L 70.537531 47.351425 
L 70.639019 47.580128 
L 70.841996 48.71275 
L 71.146461 47.787049 
L 71.349438 47.634581 
L 71.958368 47.329644 
L 72.059856 47.209848 
L 72.262833 47.264301 
L 73.277717 47.286082 
L 73.480694 47.307863 
L 73.785159 47.558347 
L 73.886647 47.43855 
L 73.988135 47.6128 
L 74.191112 46.632646 
L 74.292601 46.240585 
L 74.495577 47.133613 
L 74.800042 47.090051 
L 75.916415 47.166285 
L 76.22088 47.079161 
L 76.931298 47.024708 
L 77.134275 46.89402 
L 77.235763 46.915802 
L 77.337252 46.730661 
L 77.946182 47.100942 
L 78.04767 47.678143 
L 78.250647 47.242519 
L 78.453624 47.057379 
L 79.265531 47.06827 
L 79.874461 46.915802 
L 80.178926 46.904911 
L 81.80274 47.024708 
L 82.614647 46.643537 
L 83.020601 47.035598 
L 85.55781 46.785114 
L 85.862275 46.992036 
L 86.065252 46.763333 
L 86.471206 47.329644 
L 86.572694 47.307863 
L 86.674182 47.819721 
L 86.775671 47.743487 
L 86.978647 47.329644 
L 87.587578 47.482113 
L 87.993531 47.307863 
L 88.196508 47.416769 
L 88.500973 47.460331 
L 88.602461 47.525675 
L 88.805438 47.362316 
L 89.008415 47.405878 
L 89.109903 47.362316 
L 89.211392 47.482113 
L 89.31288 47.351425 
L 89.617345 47.460331 
L 89.92181 47.525675 
L 90.023299 47.62369 
L 90.124787 47.503894 
L 90.327764 47.569237 
L 90.530741 47.42766 
L 90.632229 47.525675 
L 90.733717 47.373207 
L 90.835206 47.493003 
L 91.139671 46.774224 
L 91.545624 47.133613 
L 92.256043 47.046489 
L 92.560508 47.002926 
L 93.06795 46.970255 
L 93.372415 46.959364 
L 95.097717 46.850458 
L 96.924508 46.763333 
L 97.634927 46.687099 
L 98.142369 46.589084 
L 98.548322 46.806896 
L 99.157252 46.839567 
L 100.679578 46.89402 
L 101.288508 46.904911 
L 101.79595 46.981145 
L 102.201904 47.035598 
L 104.33316 47.242519 
L 104.637625 46.981145 
L 107.479299 47.264301 
L 107.885253 47.013817 
L 108.189718 46.937583 
L 108.494183 46.970255 
L 108.69716 46.937583 
L 108.900136 46.926692 
L 109.103113 46.89402 
L 110.117997 46.785114 
L 110.726927 46.632646 
L 111.031392 46.610865 
L 111.132881 46.447506 
L 111.234369 46.556412 
L 111.335857 46.480178 
L 111.538834 46.578193 
L 111.741811 46.349491 
L 111.944788 46.501959 
L 112.249253 46.589084 
L 113.873067 46.51285 
L 114.076044 46.665318 
L 114.380509 46.69799 
L 114.481997 46.501959 
L 114.583485 46.828677 
L 114.684974 46.578193 
L 114.786462 46.719771 
L 114.887951 46.491068 
L 114.989439 46.676208 
L 115.192416 46.643537 
L 115.395392 46.665318 
L 115.496881 46.556412 
L 115.699858 46.599974 
L 115.801346 46.589084 
L 115.902834 46.414834 
L 116.004323 46.643537 
L 116.105811 46.382162 
L 116.207299 46.589084 
L 116.308788 46.414834 
L 116.410276 46.69799 
L 116.613253 46.349491 
L 116.714741 46.371272 
L 116.81623 46.251475 
L 116.917718 46.763333 
L 117.019206 46.077226 
L 117.120695 46.240585 
L 117.222183 46.665318 
L 117.42516 46.360381 
L 117.628137 46.654427 
L 117.729625 46.51285 
L 117.831113 46.687099 
L 117.932602 46.360381 
L 118.135579 46.632646 
L 118.440044 46.763333 
L 118.541532 46.447506 
L 118.744509 46.70888 
L 118.845997 46.501959 
L 119.150462 46.545521 
L 119.860881 46.447506 
L 120.266834 46.501959 
L 120.469811 46.480178 
L 120.977253 46.51285 
L 121.484695 46.480178 
L 122.296602 46.545521 
L 123.311486 46.752443 
L 124.630835 47.133613 
L 125.239765 46.719771 
L 125.747207 46.719771 
L 127.269532 46.959364 
L 127.675486 46.89402 
L 127.776974 47.046489 
L 128.081439 46.654427 
L 128.182928 46.904911 
L 128.284416 46.327709 
L 128.385904 46.88313 
L 128.487393 46.491068 
L 128.588881 46.915802 
L 128.69037 46.305928 
L 128.791858 46.589084 
L 128.893346 46.349491 
L 129.096323 46.621755 
L 129.2993 46.360381 
L 129.400788 46.676208 
L 129.502277 46.273256 
L 129.603765 46.436615 
L 129.90823 46.207913 
L 130.009718 46.360381 
L 130.111207 46.186132 
L 130.212695 46.545521 
L 130.314184 46.207913 
L 130.821625 46.51285 
L 132.242463 46.403944 
L 134.069253 46.15346 
L 134.27223 46.109898 
L 134.475207 46.186132 
L 135.084137 46.425725 
L 136.80944 46.719771 
L 137.215393 47.133613 
L 137.41837 46.741552 
L 137.621347 46.872239 
L 137.722835 46.676208 
L 137.824323 46.817786 
L 138.128788 46.654427 
L 138.331765 46.719771 
L 138.534742 46.643537 
L 138.737719 46.785114 
L 139.143672 46.850458 
L 139.651114 46.828677 
L 140.260044 46.534631 
L 143.913626 46.51285 
L 144.116603 46.436615 
L 144.827021 46.349491 
L 145.029998 46.425725 
L 145.435951 46.251475 
L 145.53744 46.382162 
L 145.638928 46.218803 
L 145.740417 46.316819 
L 146.14637 45.913867 
L 146.349347 45.532696 
L 146.450835 45.587149 
L 146.653812 46.207913 
L 146.856789 46.262366 
L 147.364231 46.262366 
L 148.480603 46.436615 
L 148.683579 46.676208 
L 148.886556 46.610865 
L 149.698463 46.828677 
L 150.205905 46.534631 
L 150.51037 46.52374 
L 151.322277 46.632646 
L 151.423765 46.578193 
L 151.626742 46.621755 
L 152.337161 46.796005 
L 152.743114 46.447506 
L 152.946091 46.51285 
L 153.047579 46.360381 
L 153.149068 46.480178 
L 153.352045 46.327709 
L 153.757998 46.251475 
L 153.859486 46.327709 
L 153.960975 46.044554 
L 154.062463 46.088116 
L 154.163952 46.16435 
L 154.26544 46.077226 
L 154.366928 46.240585 
L 154.468417 46.077226 
L 154.569905 46.545521 
L 154.671393 46.3386 
L 154.772882 46.501959 
L 155.178835 45.96832 
L 155.381812 45.848523 
L 155.686277 46.066335 
L 155.889254 46.120788 
L 156.193719 46.15346 
L 157.41158 46.011882 
L 157.513068 45.79407 
L 157.716045 45.96832 
L 158.324975 45.815851 
L 159.136882 46.251475 
L 160.760696 46.316819 
L 161.065161 45.434681 
L 161.268138 46.197022 
L 162.485998 46.229694 
L 162.587487 46.501959 
L 162.790463 46.3386 
L 163.500882 46.469287 
L 163.805347 46.491068 
L 164.211301 46.599974 
L 164.414277 46.371272 
L 165.226184 46.251475 
L 165.327673 46.349491 
L 165.429161 46.109898 
L 165.632138 46.915802 
L 165.733626 47.133613 
L 165.835115 47.079161 
L 166.241068 46.316819 
L 166.647022 46.316819 
L 167.052975 46.295038 
L 167.661905 46.262366 
L 167.763394 46.066335 
L 167.966371 46.229694 
L 169.488696 46.120788 
L 169.590185 46.066335 
L 169.691673 46.16435 
L 169.793161 46.044554 
L 169.89465 46.131679 
L 170.097626 46.066335 
L 170.199115 46.131679 
L 170.402092 46.044554 
L 170.50358 46.218803 
L 170.909533 45.892086 
L 171.011022 45.162416 
L 171.11251 45.184197 
L 171.416975 45.728727 
L 172.330371 45.728727 
L 172.736324 45.97921 
L 173.852696 45.924757 
L 174.055673 45.892086 
L 174.157161 45.881195 
L 174.25865 45.717836 
L 174.461627 45.815851 
L 175.070557 45.59804 
L 175.172045 45.59804 
L 175.273534 45.739617 
L 175.47651 46.425725 
L 175.882464 45.696055 
L 176.085441 45.685164 
L 176.491394 45.935648 
L 177.100324 45.848523 
L 177.201813 45.739617 
L 177.404789 45.881195 
L 177.709255 45.870304 
L 178.216696 45.96832 
L 178.521162 45.957429 
L 178.62265 46.15346 
L 178.724138 45.990101 
L 178.927115 46.142569 
L 179.028603 46.15346 
L 179.23158 46.316819 
L 179.333069 46.033663 
L 179.434557 46.109898 
L 179.536045 45.140634 
L 179.637534 45.184197 
L 179.84051 46.000992 
L 180.347952 46.055445 
L 180.652417 46.15346 
L 180.753906 46.458397 
L 180.956883 46.382162 
L 181.261348 46.501959 
L 182.073255 46.088116 
L 182.276231 46.000992 
L 182.479208 45.859414 
L 182.682185 46.066335 
L 182.885162 47.133613 
L 183.088138 46.251475 
L 183.697069 46.207913 
L 183.900045 46.186132 
L 184.001534 45.870304 
L 184.204511 46.044554 
L 184.508976 46.022773 
L 184.813441 46.044554 
L 186.031301 46.262366 
L 186.13279 46.316819 
L 186.437255 45.042619 
L 186.640232 45.881195 
L 186.843208 45.892086 
L 187.147673 45.859414 
L 188.162557 46.088116 
L 189.786371 46.044554 
L 189.88786 45.96832 
L 190.090836 46.099007 
L 190.192325 46.055445 
L 190.293813 46.599974 
L 190.395301 46.51285 
L 190.49679 46.915802 
L 190.699767 46.099007 
L 190.902743 46.066335 
L 191.511674 46.131679 
L 191.816139 46.142569 
L 192.222092 46.033663 
L 192.425069 46.262366 
L 192.729534 46.316819 
L 193.744418 46.099007 
L 193.845906 46.175241 
L 193.947395 45.97921 
L 194.150371 46.218803 
L 194.25186 46.109898 
L 194.556325 46.295038 
L 194.657813 46.382162 
L 194.759302 46.197022 
L 194.86079 46.414834 
L 195.063767 45.216869 
L 195.165255 45.347556 
L 195.368232 46.044554 
L 196.281627 45.881195 
L 196.383116 46.131679 
L 196.586092 45.924757 
L 196.789069 45.913867 
L 198.209906 45.325775 
L 198.412883 45.162416 
L 198.61586 45.260431 
L 198.818837 46.480178 
L 199.021813 45.663383 
L 199.732232 45.641602 
L 200.341162 45.434681 
L 200.950092 45.467352 
L 201.153069 45.402009 
L 201.254558 45.587149 
L 201.356046 45.434681 
L 201.761999 46.000992 
L 201.964976 44.705011 
L 202.066465 44.846588 
L 202.167953 45.750508 
L 202.269441 45.706945 
L 202.472418 45.696055 
L 202.878372 45.859414 
L 202.97986 46.088116 
L 203.081348 45.957429 
L 203.385813 46.055445 
L 203.893255 46.099007 
L 204.19772 46.109898 
L 204.400697 45.957429 
L 204.806651 45.663383 
L 205.111116 46.806896 
L 205.314093 46.022773 
L 205.517069 46.131679 
L 206.328976 45.837633 
L 206.531953 45.946539 
L 206.73493 45.902976 
L 207.34386 45.924757 
L 207.648325 45.79407 
L 207.749814 45.892086 
L 207.95279 45.815851 
L 208.257255 45.935648 
L 208.358744 45.815851 
L 208.460232 45.935648 
L 208.663209 45.118853 
L 208.764697 44.443636 
L 209.069162 45.325775 
L 209.373628 45.140634 
L 209.576604 45.184197 
L 209.881069 45.510915 
L 209.982558 45.717836 
L 210.185535 45.59804 
L 210.388511 45.587149 
L 210.997442 45.478243 
L 211.606372 45.325775 
L 211.809349 45.118853 
L 211.910837 45.184197 
L 212.113814 46.425725 
L 212.215302 46.077226 
L 212.418279 45.478243 
L 212.722744 45.641602 
L 213.128697 45.60893 
L 213.230186 45.412899 
L 213.433163 45.59804 
L 213.534651 45.554477 
L 213.940604 45.859414 
L 214.448046 46.066335 
L 214.651023 46.088116 
L 214.752511 46.469287 
L 214.854 46.425725 
L 215.158465 46.349491 
L 215.361442 45.107963 
L 215.46293 45.271322 
L 215.665907 45.804961 
L 216.173349 45.750508 
L 216.579302 45.848523 
L 216.680791 46.055445 
L 216.883767 45.924757 
L 217.797163 45.739617 
L 218.101628 45.630711 
L 218.203116 45.685164 
L 218.406093 45.500024 
L 218.507581 45.521805 
L 218.60907 45.380228 
L 218.710558 45.456462 
L 218.913535 45.23865 
L 219.015023 45.293103 
L 219.218 45.140634 
L 219.725442 45.946539 
L 219.928419 45.282212 
L 220.131395 45.23865 
L 220.841814 45.271322 
L 221.349256 45.641602 
L 221.856698 45.750508 
L 222.161163 45.848523 
L 222.465628 45.97921 
L 222.871581 45.685164 
L 223.683488 45.761398 
L 224.19093 45.761398 
L 224.292419 45.957429 
L 224.495395 45.739617 
L 224.698372 45.804961 
L 225.002837 45.859414 
L 225.104326 45.78318 
L 225.307302 45.859414 
L 225.408791 45.826742 
L 225.510279 45.946539 
L 225.713256 45.902976 
L 226.017721 46.011882 
L 226.220698 45.696055 
L 226.322186 45.826742 
L 226.525163 45.728727 
L 226.626651 45.804961 
L 226.829628 45.663383 
L 227.032605 45.706945 
L 228.148977 45.739617 
L 228.351954 45.761398 
L 228.859396 45.750508 
L 228.960884 45.902976 
L 229.163861 45.739617 
L 229.569814 45.685164 
L 229.975768 45.663383 
L 230.381721 45.706945 
L 230.48321 45.489134 
L 230.584698 44.705011 
L 230.686186 45.467352 
L 230.787675 45.412899 
L 230.990651 45.97921 
L 231.599582 45.946539 
L 231.70107 45.78318 
L 231.802558 45.924757 
L 232.005535 45.79407 
L 232.208512 45.859414 
L 232.715954 45.859414 
L 234.339768 45.358446 
L 234.441256 45.42379 
L 234.745721 45.325775 
L 235.45614 45.151525 
L 235.862093 45.0644 
L 236.876977 45.402009 
L 237.282931 45.358446 
L 237.587396 45.565368 
L 237.688884 46.207913 
L 237.790373 45.510915 
L 237.891861 45.728727 
L 238.094838 45.293103 
L 238.297814 45.05351 
L 238.399303 45.129744 
L 238.500791 44.988166 
L 238.703768 45.151525 
L 238.906745 45.118853 
L 241.443954 45.173306 
L 241.748419 45.42379 
L 241.849908 45.282212 
L 242.154373 45.347556 
L 242.560326 45.402009 
L 243.372233 45.587149 
L 243.879675 45.79407 
L 244.387117 45.59804 
L 244.590094 45.380228 
L 244.996047 45.358446 
L 245.199024 45.184197 
L 245.300512 45.478243 
L 245.402001 45.369337 
L 245.604977 45.696055 
L 245.909443 45.521805 
L 246.010931 45.848523 
L 246.112419 45.456462 
L 246.315396 45.815851 
L 246.416884 45.97921 
L 246.619861 45.728727 
L 246.822838 45.706945 
L 247.431768 45.674274 
L 247.93921 45.630711 
L 248.54814 45.717836 
L 248.852605 45.663383 
L 249.055582 121.189664 
L 249.563024 138.331462 
L 250.070466 149.09137 
L 250.171954 159.415655 
L 250.374931 184.56204 
L 251.08535 191.673599 
L 251.795768 196.498133 
L 252.506187 200.015796 
L 253.622559 204.219565 
L 253.825536 204.829439 
L 254.028513 204.611627 
L 254.535954 206.637278 
L 255.347861 208.608476 
L 256.971675 211.853873 
L 258.088048 213.639931 
L 258.291024 214.90324 
L 258.392513 214.881459 
L 258.494001 214.456725 
L 258.595489 214.500288 
L 259.305908 215.578457 
L 259.81335 216.090315 
L 260.117815 216.515048 
L 261.234187 218.224871 
L 261.335676 218.105075 
L 261.437164 217.963497 
L 261.538652 217.310061 
L 261.640141 217.538764 
L 261.843117 218.431793 
L 262.452048 219.052557 
L 262.553536 219.422837 
L 262.655024 219.357493 
L 263.771397 220.294085 
L 263.872885 220.250522 
L 264.075862 220.348538 
L 264.380327 220.686146 
L 264.583304 222.265282 
L 264.78628 221.285129 
L 265.598187 221.927674 
L 265.699676 221.764315 
L 265.902652 222.080142 
L 266.613071 222.711797 
L 266.714559 222.853375 
L 266.816048 222.798922 
L 266.917536 223.180093 
L 267.019025 222.940499 
L 267.32349 223.648388 
L 267.424978 223.441467 
L 267.526466 223.572154 
L 267.627955 223.376123 
L 267.729443 222.461313 
L 267.830932 222.624672 
L 268.033908 223.637498 
L 268.744327 224.029559 
L 269.353257 224.552308 
L 270.165164 224.911697 
L 270.469629 225.085947 
L 271.281536 225.369102 
L 271.484513 225.968085 
L 271.586001 226.97002 
L 271.788978 225.891851 
L 272.600885 226.283912 
L 272.702374 226.185897 
L 273.108327 226.479943 
L 273.615769 226.79577 
L 274.529164 227.405644 
L 274.630653 227.372972 
L 274.833629 226.556177 
L 274.935118 226.675974 
L 275.138095 227.416534 
L 275.848513 227.677909 
L 276.254467 227.939283 
L 276.863397 228.200657 
L 277.167862 228.233329 
L 277.472327 228.342235 
L 278.182746 228.396688 
L 278.487211 229.659997 
L 278.588699 229.52931 
L 278.791676 228.930327 
L 279.705071 229.300607 
L 279.908048 229.34417 
L 280.009537 229.16992 
L 280.212513 229.376841 
L 281.328885 229.812465 
L 281.531862 229.845137 
L 282.445258 230.237199 
L 282.648234 230.45501 
L 282.851211 230.45501 
L 282.952699 230.553026 
L 283.460141 229.801575 
L 283.663118 230.498573 
L 284.069072 230.585698 
L 286.910746 231.391602 
L 287.012234 231.326258 
L 287.113723 231.467836 
L 287.3167 231.36982 
L 287.418188 231.456945 
L 287.621165 231.206462 
L 287.824141 231.533179 
L 288.027118 231.816335 
L 288.128607 232.64402 
L 288.230095 232.45888 
L 288.433072 231.816335 
L 289.549444 232.143053 
L 289.650932 231.881678 
L 289.853909 232.110381 
L 290.462839 232.241068 
L 290.970281 232.447989 
L 291.173258 232.480661 
L 291.376235 232.654911 
L 291.477723 232.371755 
L 291.6807 232.665801 
L 291.782188 232.731145 
L 291.883676 232.654911 
L 292.188142 233.057863 
L 292.28963 232.752926 
L 292.391118 232.959847 
L 292.695583 231.849007 
L 292.89856 232.82916 
L 293.913444 233.025191 
L 294.217909 233.155878 
L 294.725351 233.264784 
L 295.638746 233.417252 
L 295.740235 233.308346 
L 295.841723 233.37369 
L 295.943211 233.297456 
L 296.0447 233.406362 
L 296.247676 233.264784 
L 296.450653 233.37369 
L 296.552142 233.308346 
L 296.856607 234.65878 
L 297.059583 233.711299 
L 297.972979 233.907329 
L 298.175956 233.950892 
L 298.277444 233.700408 
L 298.480421 233.92911 
L 298.886374 233.994454 
L 299.495304 234.244938 
L 299.596793 234.168704 
L 299.901258 234.2885 
L 300.510188 234.560765 
L 300.611677 234.46275 
L 300.916142 233.526158 
L 301.119118 234.386515 
L 301.423584 234.397406 
L 301.931025 234.506312 
L 302.539956 234.735015 
L 303.656328 234.680562 
L 303.960793 234.451859 
L 304.16377 235.061732 
L 304.265258 236.10723 
L 304.569723 235.01817 
L 304.874188 235.148857 
L 305.280142 235.137967 
L 305.38163 234.963717 
L 305.584607 235.116185 
L 305.787584 235.159748 
L 306.498002 235.301326 
L 306.599491 235.38845 
L 306.700979 235.323107 
L 306.802467 235.475575 
L 306.903956 235.312216 
L 307.005444 235.540919 
L 307.208421 235.442903 
L 307.715863 235.660715 
L 307.91884 235.606262 
L 308.020328 235.780512 
L 308.426281 234.811249 
L 308.629258 235.519137 
L 310.253072 235.791402 
L 310.456049 236.020105 
L 310.659026 235.911199 
L 311.876886 236.063667 
L 313.297723 236.009214 
L 313.399212 235.769621 
L 313.805165 237.239852 
L 314.008142 236.357713 
L 314.718561 236.531963 
L 315.327491 236.433947 
L 316.03791 236.619088 
L 316.342375 236.684431 
L 317.052793 237.054711 
L 317.357258 235.856746 
L 317.560235 236.706212 
L 317.763212 236.771556 
L 318.067677 236.749775 
L 318.676607 236.826009 
L 318.778096 237.120055 
L 318.981072 236.967587 
L 320.40191 237.065602 
L 320.706375 236.913134 
L 320.807863 236.956696 
L 320.909352 236.826009 
L 321.112328 236.902243 
L 321.315305 238.154662 
L 321.416793 237.904178 
L 321.61977 237.283414 
L 322.431677 237.359648 
L 322.533166 237.141836 
L 322.736142 237.294305 
L 323.142096 237.39232 
L 323.751026 237.544788 
L 324.15698 238.034865 
L 324.359956 236.521072 
L 324.461445 236.66265 
L 324.664421 237.501226 
L 324.867398 237.457663 
L 325.37484 237.631913 
L 325.476328 237.773491 
L 325.679305 237.697257 
L 325.98377 237.7626 
L 326.288235 237.708147 
L 326.389724 237.75171 
L 326.592701 237.697257 
L 326.998654 237.719038 
L 327.100142 237.621022 
L 327.201631 237.7626 
L 327.404608 237.523007 
L 327.607584 237.708147 
L 327.709073 237.729928 
L 327.810561 237.893287 
L 328.013538 238.437817 
L 328.115026 238.655629 
L 328.318003 237.991303 
L 328.723956 238.002193 
L 329.332887 238.089318 
L 331.261166 238.198224 
L 332.174561 238.30713 
L 332.783491 238.339802 
L 333.087957 238.372473 
L 333.290933 238.372473 
L 334.204329 238.470489 
L 334.711771 238.503161 
L 335.320701 238.590285 
L 335.929631 238.67741 
L 336.132608 238.612067 
L 336.335585 238.66652 
L 337.046003 238.720973 
L 337.85791 238.786316 
L 338.162375 238.85166 
L 338.568329 238.873441 
L 341.714468 239.102143 
L 342.932329 239.211049 
L 344.962096 239.341736 
L 345.063585 239.04769 
L 345.165073 239.505095 
L 345.266562 239.287284 
L 345.36805 239.396189 
L 345.469538 239.113034 
L 345.571027 239.548658 
L 345.672515 239.363518 
L 345.774003 239.559548 
L 345.875492 239.254612 
L 345.97698 239.76647 
L 346.078469 239.123925 
L 346.179957 239.526877 
L 346.281445 239.330846 
L 346.382934 239.842704 
L 346.484422 239.537767 
L 346.58591 239.657564 
L 346.687399 239.494205 
L 346.788887 239.712017 
L 346.890376 239.483314 
L 346.991864 239.712017 
L 347.093352 239.461533 
L 347.296329 239.603111 
L 347.600794 239.58133 
L 348.209724 239.646673 
L 348.412701 239.657564 
L 349.630562 239.712017 
L 349.833538 239.712017 
L 350.138004 239.799142 
L 350.442469 239.788251 
L 350.848422 239.810032 
L 354.806469 240.13675 
L 355.821353 240.125859 
L 357.85112 240.278328 
L 357.952608 240.50703 
L 358.155585 240.311 
L 358.358562 240.376343 
L 358.561539 240.430796 
L 358.663027 240.528811 
L 358.764515 240.430796 
L 358.967492 240.539702 
L 359.068981 240.572374 
L 359.170469 240.430796 
L 359.271957 240.801076 
L 359.373446 240.452577 
L 359.474934 240.583264 
L 359.576422 239.95161 
L 359.677911 240.267437 
L 359.779399 239.679345 
L 359.982376 240.071406 
L 360.185353 240.398124 
L 360.388329 240.463468 
L 360.692795 240.430796 
L 361.200236 240.50703 
L 361.60619 240.50703 
L 361.910655 240.539702 
L 362.012143 240.735733 
L 362.21512 240.605046 
L 364.346376 240.713952 
L 364.549353 240.768405 
L 364.650841 240.626827 
L 364.75233 240.757514 
L 364.853818 240.703061 
L 364.955306 240.822858 
L 365.158283 240.615936 
L 365.259771 240.768405 
L 365.564237 240.659499 
L 365.665725 240.768405 
L 365.97019 240.68128 
L 366.173167 240.757514 
L 366.274655 240.528811 
L 366.57912 240.909982 
L 366.782097 240.801076 
L 366.883585 241.029779 
L 366.985074 240.844639 
L 367.086562 241.214919 
L 367.188051 240.920873 
L 367.391027 241.476293 
L 367.796981 240.833748 
L 367.898469 241.116904 
L 367.999958 240.942654 
L 368.101446 241.007998 
L 368.304423 240.942654 
L 368.507399 240.964435 
L 371.450562 241.182247 
L 371.856516 241.149575 
L 372.262469 241.204028 
L 372.465446 241.062451 
L 372.668423 241.182247 
L 373.074376 241.214919 
L 373.175865 241.160466 
L 373.378841 241.22581 
L 373.581818 241.193138 
L 373.581818 241.193138 
" style="fill:none;stroke:#ffa500;stroke-linecap:square;stroke-width:0.3;"/>
   </g>
   <g id="patch_3">
    <path d="M 54 252 
L 54 34.56 
" style="fill:none;stroke:#000000;stroke-linecap:square;stroke-linejoin:miter;stroke-width:0.8;"/>
   </g>
   <g id="patch_4">
    <path d="M 388.8 252 
L 388.8 34.56 
" style="fill:none;stroke:#000000;stroke-linecap:square;stroke-linejoin:miter;stroke-width:0.8;"/>
   </g>
   <g id="patch_5">
    <path d="M 54 252 
L 388.8 252 
" style="fill:none;stroke:#000000;stroke-linecap:square;stroke-linejoin:miter;stroke-width:0.8;"/>
   </g>
   <g id="patch_6">
    <path d="M 54 34.56 
L 388.8 34.56 
" style="fill:none;stroke:#000000;stroke-linecap:square;stroke-linejoin:miter;stroke-width:0.8;"/>
   </g>
   <g id="text_16">
    <!-- SPGD Detectors TP2 Testing S4 Lineup Post Map  -->
    <defs>
     <path d="M 53.515625 70.515625 
L 53.515625 60.890625 
Q 47.90625 63.578125 42.921875 64.890625 
Q 37.9375 66.21875 33.296875 66.21875 
Q 25.25 66.21875 20.875 63.09375 
Q 16.5 59.96875 16.5 54.203125 
Q 16.5 49.359375 19.40625 46.890625 
Q 22.3125 44.4375 30.421875 42.921875 
L 36.375 41.703125 
Q 47.40625 39.59375 52.65625 34.296875 
Q 57.90625 29 57.90625 20.125 
Q 57.90625 9.515625 50.796875 4.046875 
Q 43.703125 -1.421875 29.984375 -1.421875 
Q 24.8125 -1.421875 18.96875 -0.25 
Q 13.140625 0.921875 6.890625 3.21875 
L 6.890625 13.375 
Q 12.890625 10.015625 18.65625 8.296875 
Q 24.421875 6.59375 29.984375 6.59375 
Q 38.421875 6.59375 43.015625 9.90625 
Q 47.609375 13.234375 47.609375 19.390625 
Q 47.609375 24.75 44.3125 27.78125 
Q 41.015625 30.8125 33.5 32.328125 
L 27.484375 33.5 
Q 16.453125 35.6875 11.515625 40.375 
Q 6.59375 45.0625 6.59375 53.421875 
Q 6.59375 63.09375 13.40625 68.65625 
Q 20.21875 74.21875 32.171875 74.21875 
Q 37.3125 74.21875 42.625 73.28125 
Q 47.953125 72.359375 53.515625 70.515625 
" id="DejaVuSans-53"/>
     <path d="M 19.671875 64.796875 
L 19.671875 37.40625 
L 32.078125 37.40625 
Q 38.96875 37.40625 42.71875 40.96875 
Q 46.484375 44.53125 46.484375 51.125 
Q 46.484375 57.671875 42.71875 61.234375 
Q 38.96875 64.796875 32.078125 64.796875 
z
M 9.8125 72.90625 
L 32.078125 72.90625 
Q 44.34375 72.90625 50.609375 67.359375 
Q 56.890625 61.8125 56.890625 51.125 
Q 56.890625 40.328125 50.609375 34.8125 
Q 44.34375 29.296875 32.078125 29.296875 
L 19.671875 29.296875 
L 19.671875 0 
L 9.8125 0 
z
" id="DejaVuSans-50"/>
     <path d="M 59.515625 10.40625 
L 59.515625 29.984375 
L 43.40625 29.984375 
L 43.40625 38.09375 
L 69.28125 38.09375 
L 69.28125 6.78125 
Q 63.578125 2.734375 56.6875 0.65625 
Q 49.8125 -1.421875 42 -1.421875 
Q 24.90625 -1.421875 15.25 8.5625 
Q 5.609375 18.5625 5.609375 36.375 
Q 5.609375 54.25 15.25 64.234375 
Q 24.90625 74.21875 42 74.21875 
Q 49.125 74.21875 55.546875 72.453125 
Q 61.96875 70.703125 67.390625 67.28125 
L 67.390625 56.78125 
Q 61.921875 61.421875 55.765625 63.765625 
Q 49.609375 66.109375 42.828125 66.109375 
Q 29.4375 66.109375 22.71875 58.640625 
Q 16.015625 51.171875 16.015625 36.375 
Q 16.015625 21.625 22.71875 14.15625 
Q 29.4375 6.6875 42.828125 6.6875 
Q 48.046875 6.6875 52.140625 7.59375 
Q 56.25 8.5 59.515625 10.40625 
" id="DejaVuSans-47"/>
     <path d="M 19.671875 64.796875 
L 19.671875 8.109375 
L 31.59375 8.109375 
Q 46.6875 8.109375 53.6875 14.9375 
Q 60.6875 21.78125 60.6875 36.53125 
Q 60.6875 51.171875 53.6875 57.984375 
Q 46.6875 64.796875 31.59375 64.796875 
z
M 9.8125 72.90625 
L 30.078125 72.90625 
Q 51.265625 72.90625 61.171875 64.09375 
Q 71.09375 55.28125 71.09375 36.53125 
Q 71.09375 17.671875 61.125 8.828125 
Q 51.171875 0 30.078125 0 
L 9.8125 0 
z
" id="DejaVuSans-44"/>
     <path d="M 41.109375 46.296875 
Q 39.59375 47.171875 37.8125 47.578125 
Q 36.03125 48 33.890625 48 
Q 26.265625 48 22.1875 43.046875 
Q 18.109375 38.09375 18.109375 28.8125 
L 18.109375 0 
L 9.078125 0 
L 9.078125 54.6875 
L 18.109375 54.6875 
L 18.109375 46.1875 
Q 20.953125 51.171875 25.484375 53.578125 
Q 30.03125 56 36.53125 56 
Q 37.453125 56 38.578125 55.875 
Q 39.703125 55.765625 41.0625 55.515625 
z
" id="DejaVuSans-72"/>
     <path d="M -0.296875 72.90625 
L 61.375 72.90625 
L 61.375 64.59375 
L 35.5 64.59375 
L 35.5 0 
L 25.59375 0 
L 25.59375 64.59375 
L -0.296875 64.59375 
z
" id="DejaVuSans-54"/>
     <path d="M 45.40625 27.984375 
Q 45.40625 37.75 41.375 43.109375 
Q 37.359375 48.484375 30.078125 48.484375 
Q 22.859375 48.484375 18.828125 43.109375 
Q 14.796875 37.75 14.796875 27.984375 
Q 14.796875 18.265625 18.828125 12.890625 
Q 22.859375 7.515625 30.078125 7.515625 
Q 37.359375 7.515625 41.375 12.890625 
Q 45.40625 18.265625 45.40625 27.984375 
M 54.390625 6.78125 
Q 54.390625 -7.171875 48.1875 -13.984375 
Q 42 -20.796875 29.203125 -20.796875 
Q 24.46875 -20.796875 20.265625 -20.09375 
Q 16.0625 -19.390625 12.109375 -17.921875 
L 12.109375 -9.1875 
Q 16.0625 -11.328125 19.921875 -12.34375 
Q 23.78125 -13.375 27.78125 -13.375 
Q 36.625 -13.375 41.015625 -8.765625 
Q 45.40625 -4.15625 45.40625 5.171875 
L 45.40625 9.625 
Q 42.625 4.78125 38.28125 2.390625 
Q 33.9375 0 27.875 0 
Q 17.828125 0 11.671875 7.65625 
Q 5.515625 15.328125 5.515625 27.984375 
Q 5.515625 40.671875 11.671875 48.328125 
Q 17.828125 56 27.875 56 
Q 33.9375 56 38.28125 53.609375 
Q 42.625 51.21875 45.40625 46.390625 
L 45.40625 54.6875 
L 54.390625 54.6875 
z
" id="DejaVuSans-67"/>
     <path d="M 9.8125 72.90625 
L 19.671875 72.90625 
L 19.671875 8.296875 
L 55.171875 8.296875 
L 55.171875 0 
L 9.8125 0 
z
" id="DejaVuSans-4c"/>
     <path d="M 8.5 21.578125 
L 8.5 54.6875 
L 17.484375 54.6875 
L 17.484375 21.921875 
Q 17.484375 14.15625 20.5 10.265625 
Q 23.53125 6.390625 29.59375 6.390625 
Q 36.859375 6.390625 41.078125 11.03125 
Q 45.3125 15.671875 45.3125 23.6875 
L 45.3125 54.6875 
L 54.296875 54.6875 
L 54.296875 0 
L 45.3125 0 
L 45.3125 8.40625 
Q 42.046875 3.421875 37.71875 1 
Q 33.40625 -1.421875 27.6875 -1.421875 
Q 18.265625 -1.421875 13.375 4.4375 
Q 8.5 10.296875 8.5 21.578125 
M 31.109375 56 
z
" id="DejaVuSans-75"/>
     <path d="M 18.109375 8.203125 
L 18.109375 -20.796875 
L 9.078125 -20.796875 
L 9.078125 54.6875 
L 18.109375 54.6875 
L 18.109375 46.390625 
Q 20.953125 51.265625 25.265625 53.625 
Q 29.59375 56 35.59375 56 
Q 45.5625 56 51.78125 48.09375 
Q 58.015625 40.1875 58.015625 27.296875 
Q 58.015625 14.40625 51.78125 6.484375 
Q 45.5625 -1.421875 35.59375 -1.421875 
Q 29.59375 -1.421875 25.265625 0.953125 
Q 20.953125 3.328125 18.109375 8.203125 
M 48.6875 27.296875 
Q 48.6875 37.203125 44.609375 42.84375 
Q 40.53125 48.484375 33.40625 48.484375 
Q 26.265625 48.484375 22.1875 42.84375 
Q 18.109375 37.203125 18.109375 27.296875 
Q 18.109375 17.390625 22.1875 11.75 
Q 26.265625 6.109375 33.40625 6.109375 
Q 40.53125 6.109375 44.609375 11.75 
Q 48.6875 17.390625 48.6875 27.296875 
" id="DejaVuSans-70"/>
     <path d="M 9.8125 72.90625 
L 24.515625 72.90625 
L 43.109375 23.296875 
L 61.8125 72.90625 
L 76.515625 72.90625 
L 76.515625 0 
L 66.890625 0 
L 66.890625 64.015625 
L 48.09375 14.015625 
L 38.1875 14.015625 
L 19.390625 64.015625 
L 19.390625 0 
L 9.8125 0 
z
" id="DejaVuSans-4d"/>
    </defs>
    <g transform="translate(73.812188 28.56)scale(0.12 -0.12)">
     <use xlink:href="#DejaVuSans-53"/>
     <use x="63.476562" xlink:href="#DejaVuSans-50"/>
     <use x="123.779297" xlink:href="#DejaVuSans-47"/>
     <use x="201.269531" xlink:href="#DejaVuSans-44"/>
     <use x="278.271484" xlink:href="#DejaVuSans-20"/>
     <use x="310.058594" xlink:href="#DejaVuSans-44"/>
     <use x="387.060547" xlink:href="#DejaVuSans-65"/>
     <use x="448.583984" xlink:href="#DejaVuSans-74"/>
     <use x="487.792969" xlink:href="#DejaVuSans-65"/>
     <use x="549.316406" xlink:href="#DejaVuSans-63"/>
     <use x="604.296875" xlink:href="#DejaVuSans-74"/>
     <use x="643.505859" xlink:href="#DejaVuSans-6f"/>
     <use x="704.6875" xlink:href="#DejaVuSans-72"/>
     <use x="745.800781" xlink:href="#DejaVuSans-73"/>
     <use x="797.900391" xlink:href="#DejaVuSans-20"/>
     <use x="829.6875" xlink:href="#DejaVuSans-54"/>
     <use x="890.771484" xlink:href="#DejaVuSans-50"/>
     <use x="951.074219" xlink:href="#DejaVuSans-32"/>
     <use x="1014.697266" xlink:href="#DejaVuSans-20"/>
     <use x="1046.484375" xlink:href="#DejaVuSans-54"/>
     <use x="1107.302734" xlink:href="#DejaVuSans-65"/>
     <use x="1168.826172" xlink:href="#DejaVuSans-73"/>
     <use x="1220.925781" xlink:href="#DejaVuSans-74"/>
     <use x="1260.134766" xlink:href="#DejaVuSans-69"/>
     <use x="1287.917969" xlink:href="#DejaVuSans-6e"/>
     <use x="1351.296875" xlink:href="#DejaVuSans-67"/>
     <use x="1414.773438" xlink:href="#DejaVuSans-20"/>
     <use x="1446.560547" xlink:href="#DejaVuSans-53"/>
     <use x="1510.037109" xlink:href="#DejaVuSans-34"/>
     <use x="1573.660156" xlink:href="#DejaVuSans-20"/>
     <use x="1605.447266" xlink:href="#DejaVuSans-4c"/>
     <use x="1661.160156" xlink:href="#DejaVuSans-69"/>
     <use x="1688.943359" xlink:href="#DejaVuSans-6e"/>
     <use x="1752.322266" xlink:href="#DejaVuSans-65"/>
     <use x="1813.845703" xlink:href="#DejaVuSans-75"/>
     <use x="1877.224609" xlink:href="#DejaVuSans-70"/>
     <use x="1940.701172" xlink:href="#DejaVuSans-20"/>
     <use x="1972.488281" xlink:href="#DejaVuSans-50"/>
     <use x="2032.744141" xlink:href="#DejaVuSans-6f"/>
     <use x="2093.925781" xlink:href="#DejaVuSans-73"/>
     <use x="2146.025391" xlink:href="#DejaVuSans-74"/>
     <use x="2185.234375" xlink:href="#DejaVuSans-20"/>
     <use x="2217.021484" xlink:href="#DejaVuSans-4d"/>
     <use x="2303.300781" xlink:href="#DejaVuSans-61"/>
     <use x="2364.580078" xlink:href="#DejaVuSans-70"/>
     <use x="2428.056641" xlink:href="#DejaVuSans-20"/>
    </g>
   </g>
  </g>
 </g>
 <defs>
  <clipPath id="p583ece0b17">
   <rect height="217.44" width="334.8" x="54" y="34.56"/>
  </clipPath>
 </defs>
</svg>
