<?xml version="1.0" encoding="utf-8" standalone="no"?>
<!DOCTYPE svg PUBLIC "-//W3C//DTD SVG 1.1//EN"
  "http://www.w3.org/Graphics/SVG/1.1/DTD/svg11.dtd">
<!-- Created with matplotlib (http://matplotlib.org/) -->
<svg height="288pt" version="1.1" viewBox="0 0 432 288" width="432pt" xmlns="http://www.w3.org/2000/svg" xmlns:xlink="http://www.w3.org/1999/xlink">
 <defs>
  <style type="text/css">
*{stroke-linecap:butt;stroke-linejoin:round;}
  </style>
 </defs>
 <g id="figure_1">
  <g id="patch_1">
   <path d="M 0 288 
L 432 288 
L 432 0 
L 0 0 
z
" style="fill:#ffffff;"/>
  </g>
  <g id="axes_1">
   <g id="patch_2">
    <path d="M 54 252 
L 388.8 252 
L 388.8 34.56 
L 54 34.56 
z
" style="fill:#ffffff;"/>
   </g>
   <g id="matplotlib.axis_1">
    <g id="xtick_1">
     <g id="line2d_1">
      <defs>
       <path d="M 0 0 
L 0 3.5 
" id="m09d9b3a88d" style="stroke:#000000;stroke-width:0.8;"/>
      </defs>
      <g>
       <use style="stroke:#000000;stroke-width:0.8;" x="69.218182" xlink:href="#m09d9b3a88d" y="252"/>
      </g>
     </g>
     <g id="text_1">
      <!-- 0 -->
      <defs>
       <path d="M 31.78125 66.40625 
Q 24.171875 66.40625 20.328125 58.90625 
Q 16.5 51.421875 16.5 36.375 
Q 16.5 21.390625 20.328125 13.890625 
Q 24.171875 6.390625 31.78125 6.390625 
Q 39.453125 6.390625 43.28125 13.890625 
Q 47.125 21.390625 47.125 36.375 
Q 47.125 51.421875 43.28125 58.90625 
Q 39.453125 66.40625 31.78125 66.40625 
M 31.78125 74.21875 
Q 44.046875 74.21875 50.515625 64.515625 
Q 56.984375 54.828125 56.984375 36.375 
Q 56.984375 17.96875 50.515625 8.265625 
Q 44.046875 -1.421875 31.78125 -1.421875 
Q 19.53125 -1.421875 13.0625 8.265625 
Q 6.59375 17.96875 6.59375 36.375 
Q 6.59375 54.828125 13.0625 64.515625 
Q 19.53125 74.21875 31.78125 74.21875 
" id="DejaVuSans-30"/>
      </defs>
      <g transform="translate(66.036932 266.598437)scale(0.1 -0.1)">
       <use xlink:href="#DejaVuSans-30"/>
      </g>
     </g>
    </g>
    <g id="xtick_2">
     <g id="line2d_2">
      <g>
       <use style="stroke:#000000;stroke-width:0.8;" x="109.827073" xlink:href="#m09d9b3a88d" y="252"/>
      </g>
     </g>
     <g id="text_2">
      <!-- 200 -->
      <defs>
       <path d="M 19.1875 8.296875 
L 53.609375 8.296875 
L 53.609375 0 
L 7.328125 0 
L 7.328125 8.296875 
Q 12.9375 14.109375 22.625 23.890625 
Q 32.328125 33.6875 34.8125 36.53125 
Q 39.546875 41.84375 41.421875 45.53125 
Q 43.3125 49.21875 43.3125 52.78125 
Q 43.3125 58.59375 39.234375 62.25 
Q 35.15625 65.921875 28.609375 65.921875 
Q 23.96875 65.921875 18.8125 64.3125 
Q 13.671875 62.703125 7.8125 59.421875 
L 7.8125 69.390625 
Q 13.765625 71.78125 18.9375 73 
Q 24.125 74.21875 28.421875 74.21875 
Q 39.75 74.21875 46.484375 68.546875 
Q 53.21875 62.890625 53.21875 53.421875 
Q 53.21875 48.921875 51.53125 44.890625 
Q 49.859375 40.875 45.40625 35.40625 
Q 44.1875 33.984375 37.640625 27.21875 
Q 31.109375 20.453125 19.1875 8.296875 
" id="DejaVuSans-32"/>
      </defs>
      <g transform="translate(100.283323 266.598437)scale(0.1 -0.1)">
       <use xlink:href="#DejaVuSans-32"/>
       <use x="63.623047" xlink:href="#DejaVuSans-30"/>
       <use x="127.246094" xlink:href="#DejaVuSans-30"/>
      </g>
     </g>
    </g>
    <g id="xtick_3">
     <g id="line2d_3">
      <g>
       <use style="stroke:#000000;stroke-width:0.8;" x="150.435963" xlink:href="#m09d9b3a88d" y="252"/>
      </g>
     </g>
     <g id="text_3">
      <!-- 400 -->
      <defs>
       <path d="M 37.796875 64.3125 
L 12.890625 25.390625 
L 37.796875 25.390625 
z
M 35.203125 72.90625 
L 47.609375 72.90625 
L 47.609375 25.390625 
L 58.015625 25.390625 
L 58.015625 17.1875 
L 47.609375 17.1875 
L 47.609375 0 
L 37.796875 0 
L 37.796875 17.1875 
L 4.890625 17.1875 
L 4.890625 26.703125 
z
" id="DejaVuSans-34"/>
      </defs>
      <g transform="translate(140.892213 266.598437)scale(0.1 -0.1)">
       <use xlink:href="#DejaVuSans-34"/>
       <use x="63.623047" xlink:href="#DejaVuSans-30"/>
       <use x="127.246094" xlink:href="#DejaVuSans-30"/>
      </g>
     </g>
    </g>
    <g id="xtick_4">
     <g id="line2d_4">
      <g>
       <use style="stroke:#000000;stroke-width:0.8;" x="191.044854" xlink:href="#m09d9b3a88d" y="252"/>
      </g>
     </g>
     <g id="text_4">
      <!-- 600 -->
      <defs>
       <path d="M 33.015625 40.375 
Q 26.375 40.375 22.484375 35.828125 
Q 18.609375 31.296875 18.609375 23.390625 
Q 18.609375 15.53125 22.484375 10.953125 
Q 26.375 6.390625 33.015625 6.390625 
Q 39.65625 6.390625 43.53125 10.953125 
Q 47.40625 15.53125 47.40625 23.390625 
Q 47.40625 31.296875 43.53125 35.828125 
Q 39.65625 40.375 33.015625 40.375 
M 52.59375 71.296875 
L 52.59375 62.3125 
Q 48.875 64.0625 45.09375 64.984375 
Q 41.3125 65.921875 37.59375 65.921875 
Q 27.828125 65.921875 22.671875 59.328125 
Q 17.53125 52.734375 16.796875 39.40625 
Q 19.671875 43.65625 24.015625 45.921875 
Q 28.375 48.1875 33.59375 48.1875 
Q 44.578125 48.1875 50.953125 41.515625 
Q 57.328125 34.859375 57.328125 23.390625 
Q 57.328125 12.15625 50.6875 5.359375 
Q 44.046875 -1.421875 33.015625 -1.421875 
Q 20.359375 -1.421875 13.671875 8.265625 
Q 6.984375 17.96875 6.984375 36.375 
Q 6.984375 53.65625 15.1875 63.9375 
Q 23.390625 74.21875 37.203125 74.21875 
Q 40.921875 74.21875 44.703125 73.484375 
Q 48.484375 72.75 52.59375 71.296875 
" id="DejaVuSans-36"/>
      </defs>
      <g transform="translate(181.501104 266.598437)scale(0.1 -0.1)">
       <use xlink:href="#DejaVuSans-36"/>
       <use x="63.623047" xlink:href="#DejaVuSans-30"/>
       <use x="127.246094" xlink:href="#DejaVuSans-30"/>
      </g>
     </g>
    </g>
    <g id="xtick_5">
     <g id="line2d_5">
      <g>
       <use style="stroke:#000000;stroke-width:0.8;" x="231.653745" xlink:href="#m09d9b3a88d" y="252"/>
      </g>
     </g>
     <g id="text_5">
      <!-- 800 -->
      <defs>
       <path d="M 31.78125 34.625 
Q 24.75 34.625 20.71875 30.859375 
Q 16.703125 27.09375 16.703125 20.515625 
Q 16.703125 13.921875 20.71875 10.15625 
Q 24.75 6.390625 31.78125 6.390625 
Q 38.8125 6.390625 42.859375 10.171875 
Q 46.921875 13.96875 46.921875 20.515625 
Q 46.921875 27.09375 42.890625 30.859375 
Q 38.875 34.625 31.78125 34.625 
M 21.921875 38.8125 
Q 15.578125 40.375 12.03125 44.71875 
Q 8.5 49.078125 8.5 55.328125 
Q 8.5 64.0625 14.71875 69.140625 
Q 20.953125 74.21875 31.78125 74.21875 
Q 42.671875 74.21875 48.875 69.140625 
Q 55.078125 64.0625 55.078125 55.328125 
Q 55.078125 49.078125 51.53125 44.71875 
Q 48 40.375 41.703125 38.8125 
Q 48.828125 37.15625 52.796875 32.3125 
Q 56.78125 27.484375 56.78125 20.515625 
Q 56.78125 9.90625 50.3125 4.234375 
Q 43.84375 -1.421875 31.78125 -1.421875 
Q 19.734375 -1.421875 13.25 4.234375 
Q 6.78125 9.90625 6.78125 20.515625 
Q 6.78125 27.484375 10.78125 32.3125 
Q 14.796875 37.15625 21.921875 38.8125 
M 18.3125 54.390625 
Q 18.3125 48.734375 21.84375 45.5625 
Q 25.390625 42.390625 31.78125 42.390625 
Q 38.140625 42.390625 41.71875 45.5625 
Q 45.3125 48.734375 45.3125 54.390625 
Q 45.3125 60.0625 41.71875 63.234375 
Q 38.140625 66.40625 31.78125 66.40625 
Q 25.390625 66.40625 21.84375 63.234375 
Q 18.3125 60.0625 18.3125 54.390625 
" id="DejaVuSans-38"/>
      </defs>
      <g transform="translate(222.109995 266.598437)scale(0.1 -0.1)">
       <use xlink:href="#DejaVuSans-38"/>
       <use x="63.623047" xlink:href="#DejaVuSans-30"/>
       <use x="127.246094" xlink:href="#DejaVuSans-30"/>
      </g>
     </g>
    </g>
    <g id="xtick_6">
     <g id="line2d_6">
      <g>
       <use style="stroke:#000000;stroke-width:0.8;" x="272.262636" xlink:href="#m09d9b3a88d" y="252"/>
      </g>
     </g>
     <g id="text_6">
      <!-- 1000 -->
      <defs>
       <path d="M 12.40625 8.296875 
L 28.515625 8.296875 
L 28.515625 63.921875 
L 10.984375 60.40625 
L 10.984375 69.390625 
L 28.421875 72.90625 
L 38.28125 72.90625 
L 38.28125 8.296875 
L 54.390625 8.296875 
L 54.390625 0 
L 12.40625 0 
z
" id="DejaVuSans-31"/>
      </defs>
      <g transform="translate(259.537636 266.598437)scale(0.1 -0.1)">
       <use xlink:href="#DejaVuSans-31"/>
       <use x="63.623047" xlink:href="#DejaVuSans-30"/>
       <use x="127.246094" xlink:href="#DejaVuSans-30"/>
       <use x="190.869141" xlink:href="#DejaVuSans-30"/>
      </g>
     </g>
    </g>
    <g id="xtick_7">
     <g id="line2d_7">
      <g>
       <use style="stroke:#000000;stroke-width:0.8;" x="312.871526" xlink:href="#m09d9b3a88d" y="252"/>
      </g>
     </g>
     <g id="text_7">
      <!-- 1200 -->
      <g transform="translate(300.146526 266.598437)scale(0.1 -0.1)">
       <use xlink:href="#DejaVuSans-31"/>
       <use x="63.623047" xlink:href="#DejaVuSans-32"/>
       <use x="127.246094" xlink:href="#DejaVuSans-30"/>
       <use x="190.869141" xlink:href="#DejaVuSans-30"/>
      </g>
     </g>
    </g>
    <g id="xtick_8">
     <g id="line2d_8">
      <g>
       <use style="stroke:#000000;stroke-width:0.8;" x="353.480417" xlink:href="#m09d9b3a88d" y="252"/>
      </g>
     </g>
     <g id="text_8">
      <!-- 1400 -->
      <g transform="translate(340.755417 266.598437)scale(0.1 -0.1)">
       <use xlink:href="#DejaVuSans-31"/>
       <use x="63.623047" xlink:href="#DejaVuSans-34"/>
       <use x="127.246094" xlink:href="#DejaVuSans-30"/>
       <use x="190.869141" xlink:href="#DejaVuSans-30"/>
      </g>
     </g>
    </g>
    <g id="text_9">
     <!-- seconds -->
     <defs>
      <path d="M 44.28125 53.078125 
L 44.28125 44.578125 
Q 40.484375 46.53125 36.375 47.5 
Q 32.28125 48.484375 27.875 48.484375 
Q 21.1875 48.484375 17.84375 46.4375 
Q 14.5 44.390625 14.5 40.28125 
Q 14.5 37.15625 16.890625 35.375 
Q 19.28125 33.59375 26.515625 31.984375 
L 29.59375 31.296875 
Q 39.15625 29.25 43.1875 25.515625 
Q 47.21875 21.78125 47.21875 15.09375 
Q 47.21875 7.46875 41.1875 3.015625 
Q 35.15625 -1.421875 24.609375 -1.421875 
Q 20.21875 -1.421875 15.453125 -0.5625 
Q 10.6875 0.296875 5.421875 2 
L 5.421875 11.28125 
Q 10.40625 8.6875 15.234375 7.390625 
Q 20.0625 6.109375 24.8125 6.109375 
Q 31.15625 6.109375 34.5625 8.28125 
Q 37.984375 10.453125 37.984375 14.40625 
Q 37.984375 18.0625 35.515625 20.015625 
Q 33.0625 21.96875 24.703125 23.78125 
L 21.578125 24.515625 
Q 13.234375 26.265625 9.515625 29.90625 
Q 5.8125 33.546875 5.8125 39.890625 
Q 5.8125 47.609375 11.28125 51.796875 
Q 16.75 56 26.8125 56 
Q 31.78125 56 36.171875 55.265625 
Q 40.578125 54.546875 44.28125 53.078125 
" id="DejaVuSans-73"/>
      <path d="M 56.203125 29.59375 
L 56.203125 25.203125 
L 14.890625 25.203125 
Q 15.484375 15.921875 20.484375 11.0625 
Q 25.484375 6.203125 34.421875 6.203125 
Q 39.59375 6.203125 44.453125 7.46875 
Q 49.3125 8.734375 54.109375 11.28125 
L 54.109375 2.78125 
Q 49.265625 0.734375 44.1875 -0.34375 
Q 39.109375 -1.421875 33.890625 -1.421875 
Q 20.796875 -1.421875 13.15625 6.1875 
Q 5.515625 13.8125 5.515625 26.8125 
Q 5.515625 40.234375 12.765625 48.109375 
Q 20.015625 56 32.328125 56 
Q 43.359375 56 49.78125 48.890625 
Q 56.203125 41.796875 56.203125 29.59375 
M 47.21875 32.234375 
Q 47.125 39.59375 43.09375 43.984375 
Q 39.0625 48.390625 32.421875 48.390625 
Q 24.90625 48.390625 20.390625 44.140625 
Q 15.875 39.890625 15.1875 32.171875 
z
" id="DejaVuSans-65"/>
      <path d="M 48.78125 52.59375 
L 48.78125 44.1875 
Q 44.96875 46.296875 41.140625 47.34375 
Q 37.3125 48.390625 33.40625 48.390625 
Q 24.65625 48.390625 19.8125 42.84375 
Q 14.984375 37.3125 14.984375 27.296875 
Q 14.984375 17.28125 19.8125 11.734375 
Q 24.65625 6.203125 33.40625 6.203125 
Q 37.3125 6.203125 41.140625 7.25 
Q 44.96875 8.296875 48.78125 10.40625 
L 48.78125 2.09375 
Q 45.015625 0.34375 40.984375 -0.53125 
Q 36.96875 -1.421875 32.421875 -1.421875 
Q 20.0625 -1.421875 12.78125 6.34375 
Q 5.515625 14.109375 5.515625 27.296875 
Q 5.515625 40.671875 12.859375 48.328125 
Q 20.21875 56 33.015625 56 
Q 37.15625 56 41.109375 55.140625 
Q 45.0625 54.296875 48.78125 52.59375 
" id="DejaVuSans-63"/>
      <path d="M 30.609375 48.390625 
Q 23.390625 48.390625 19.1875 42.75 
Q 14.984375 37.109375 14.984375 27.296875 
Q 14.984375 17.484375 19.15625 11.84375 
Q 23.34375 6.203125 30.609375 6.203125 
Q 37.796875 6.203125 41.984375 11.859375 
Q 46.1875 17.53125 46.1875 27.296875 
Q 46.1875 37.015625 41.984375 42.703125 
Q 37.796875 48.390625 30.609375 48.390625 
M 30.609375 56 
Q 42.328125 56 49.015625 48.375 
Q 55.71875 40.765625 55.71875 27.296875 
Q 55.71875 13.875 49.015625 6.21875 
Q 42.328125 -1.421875 30.609375 -1.421875 
Q 18.84375 -1.421875 12.171875 6.21875 
Q 5.515625 13.875 5.515625 27.296875 
Q 5.515625 40.765625 12.171875 48.375 
Q 18.84375 56 30.609375 56 
" id="DejaVuSans-6f"/>
      <path d="M 54.890625 33.015625 
L 54.890625 0 
L 45.90625 0 
L 45.90625 32.71875 
Q 45.90625 40.484375 42.875 44.328125 
Q 39.84375 48.1875 33.796875 48.1875 
Q 26.515625 48.1875 22.3125 43.546875 
Q 18.109375 38.921875 18.109375 30.90625 
L 18.109375 0 
L 9.078125 0 
L 9.078125 54.6875 
L 18.109375 54.6875 
L 18.109375 46.1875 
Q 21.34375 51.125 25.703125 53.5625 
Q 30.078125 56 35.796875 56 
Q 45.21875 56 50.046875 50.171875 
Q 54.890625 44.34375 54.890625 33.015625 
" id="DejaVuSans-6e"/>
      <path d="M 45.40625 46.390625 
L 45.40625 75.984375 
L 54.390625 75.984375 
L 54.390625 0 
L 45.40625 0 
L 45.40625 8.203125 
Q 42.578125 3.328125 38.25 0.953125 
Q 33.9375 -1.421875 27.875 -1.421875 
Q 17.96875 -1.421875 11.734375 6.484375 
Q 5.515625 14.40625 5.515625 27.296875 
Q 5.515625 40.1875 11.734375 48.09375 
Q 17.96875 56 27.875 56 
Q 33.9375 56 38.25 53.625 
Q 42.578125 51.265625 45.40625 46.390625 
M 14.796875 27.296875 
Q 14.796875 17.390625 18.875 11.75 
Q 22.953125 6.109375 30.078125 6.109375 
Q 37.203125 6.109375 41.296875 11.75 
Q 45.40625 17.390625 45.40625 27.296875 
Q 45.40625 37.203125 41.296875 42.84375 
Q 37.203125 48.484375 30.078125 48.484375 
Q 22.953125 48.484375 18.875 42.84375 
Q 14.796875 37.203125 14.796875 27.296875 
" id="DejaVuSans-64"/>
     </defs>
     <g transform="translate(200.9625 280.276563)scale(0.1 -0.1)">
      <use xlink:href="#DejaVuSans-73"/>
      <use x="52.099609" xlink:href="#DejaVuSans-65"/>
      <use x="113.623047" xlink:href="#DejaVuSans-63"/>
      <use x="168.603516" xlink:href="#DejaVuSans-6f"/>
      <use x="229.785156" xlink:href="#DejaVuSans-6e"/>
      <use x="293.164062" xlink:href="#DejaVuSans-64"/>
      <use x="356.640625" xlink:href="#DejaVuSans-73"/>
     </g>
    </g>
   </g>
   <g id="matplotlib.axis_2">
    <g id="ytick_1">
     <g id="line2d_9">
      <defs>
       <path d="M 0 0 
L -3.5 0 
" id="me75c3b6ade" style="stroke:#000000;stroke-width:0.8;"/>
      </defs>
      <g>
       <use style="stroke:#000000;stroke-width:0.8;" x="54" xlink:href="#me75c3b6ade" y="237.095783"/>
      </g>
     </g>
     <g id="text_10">
      <!-- 0.90 -->
      <defs>
       <path d="M 10.6875 12.40625 
L 21 12.40625 
L 21 0 
L 10.6875 0 
z
" id="DejaVuSans-2e"/>
       <path d="M 10.984375 1.515625 
L 10.984375 10.5 
Q 14.703125 8.734375 18.5 7.8125 
Q 22.3125 6.890625 25.984375 6.890625 
Q 35.75 6.890625 40.890625 13.453125 
Q 46.046875 20.015625 46.78125 33.40625 
Q 43.953125 29.203125 39.59375 26.953125 
Q 35.25 24.703125 29.984375 24.703125 
Q 19.046875 24.703125 12.671875 31.3125 
Q 6.296875 37.9375 6.296875 49.421875 
Q 6.296875 60.640625 12.9375 67.421875 
Q 19.578125 74.21875 30.609375 74.21875 
Q 43.265625 74.21875 49.921875 64.515625 
Q 56.59375 54.828125 56.59375 36.375 
Q 56.59375 19.140625 48.40625 8.859375 
Q 40.234375 -1.421875 26.421875 -1.421875 
Q 22.703125 -1.421875 18.890625 -0.6875 
Q 15.09375 0.046875 10.984375 1.515625 
M 30.609375 32.421875 
Q 37.25 32.421875 41.125 36.953125 
Q 45.015625 41.5 45.015625 49.421875 
Q 45.015625 57.28125 41.125 61.84375 
Q 37.25 66.40625 30.609375 66.40625 
Q 23.96875 66.40625 20.09375 61.84375 
Q 16.21875 57.28125 16.21875 49.421875 
Q 16.21875 41.5 20.09375 36.953125 
Q 23.96875 32.421875 30.609375 32.421875 
" id="DejaVuSans-39"/>
      </defs>
      <g transform="translate(24.734375 240.895002)scale(0.1 -0.1)">
       <use xlink:href="#DejaVuSans-30"/>
       <use x="63.623047" xlink:href="#DejaVuSans-2e"/>
       <use x="95.410156" xlink:href="#DejaVuSans-39"/>
       <use x="159.033203" xlink:href="#DejaVuSans-30"/>
      </g>
     </g>
    </g>
    <g id="ytick_2">
     <g id="line2d_10">
      <g>
       <use style="stroke:#000000;stroke-width:0.8;" x="54" xlink:href="#me75c3b6ade" y="194.976818"/>
      </g>
     </g>
     <g id="text_11">
      <!-- 0.95 -->
      <defs>
       <path d="M 10.796875 72.90625 
L 49.515625 72.90625 
L 49.515625 64.59375 
L 19.828125 64.59375 
L 19.828125 46.734375 
Q 21.96875 47.46875 24.109375 47.828125 
Q 26.265625 48.1875 28.421875 48.1875 
Q 40.625 48.1875 47.75 41.5 
Q 54.890625 34.8125 54.890625 23.390625 
Q 54.890625 11.625 47.5625 5.09375 
Q 40.234375 -1.421875 26.90625 -1.421875 
Q 22.3125 -1.421875 17.546875 -0.640625 
Q 12.796875 0.140625 7.71875 1.703125 
L 7.71875 11.625 
Q 12.109375 9.234375 16.796875 8.0625 
Q 21.484375 6.890625 26.703125 6.890625 
Q 35.15625 6.890625 40.078125 11.328125 
Q 45.015625 15.765625 45.015625 23.390625 
Q 45.015625 31 40.078125 35.4375 
Q 35.15625 39.890625 26.703125 39.890625 
Q 22.75 39.890625 18.8125 39.015625 
Q 14.890625 38.140625 10.796875 36.28125 
z
" id="DejaVuSans-35"/>
      </defs>
      <g transform="translate(24.734375 198.776037)scale(0.1 -0.1)">
       <use xlink:href="#DejaVuSans-30"/>
       <use x="63.623047" xlink:href="#DejaVuSans-2e"/>
       <use x="95.410156" xlink:href="#DejaVuSans-39"/>
       <use x="159.033203" xlink:href="#DejaVuSans-35"/>
      </g>
     </g>
    </g>
    <g id="ytick_3">
     <g id="line2d_11">
      <g>
       <use style="stroke:#000000;stroke-width:0.8;" x="54" xlink:href="#me75c3b6ade" y="152.857853"/>
      </g>
     </g>
     <g id="text_12">
      <!-- 1.00 -->
      <g transform="translate(24.734375 156.657071)scale(0.1 -0.1)">
       <use xlink:href="#DejaVuSans-31"/>
       <use x="63.623047" xlink:href="#DejaVuSans-2e"/>
       <use x="95.410156" xlink:href="#DejaVuSans-30"/>
       <use x="159.033203" xlink:href="#DejaVuSans-30"/>
      </g>
     </g>
    </g>
    <g id="ytick_4">
     <g id="line2d_12">
      <g>
       <use style="stroke:#000000;stroke-width:0.8;" x="54" xlink:href="#me75c3b6ade" y="110.738888"/>
      </g>
     </g>
     <g id="text_13">
      <!-- 1.05 -->
      <g transform="translate(24.734375 114.538106)scale(0.1 -0.1)">
       <use xlink:href="#DejaVuSans-31"/>
       <use x="63.623047" xlink:href="#DejaVuSans-2e"/>
       <use x="95.410156" xlink:href="#DejaVuSans-30"/>
       <use x="159.033203" xlink:href="#DejaVuSans-35"/>
      </g>
     </g>
    </g>
    <g id="ytick_5">
     <g id="line2d_13">
      <g>
       <use style="stroke:#000000;stroke-width:0.8;" x="54" xlink:href="#me75c3b6ade" y="68.619922"/>
      </g>
     </g>
     <g id="text_14">
      <!-- 1.10 -->
      <g transform="translate(24.734375 72.419141)scale(0.1 -0.1)">
       <use xlink:href="#DejaVuSans-31"/>
       <use x="63.623047" xlink:href="#DejaVuSans-2e"/>
       <use x="95.410156" xlink:href="#DejaVuSans-31"/>
       <use x="159.033203" xlink:href="#DejaVuSans-30"/>
      </g>
     </g>
    </g>
    <g id="text_15">
     <!-- Picoamps  -->
     <defs>
      <path d="M 19.671875 64.796875 
L 19.671875 37.40625 
L 32.078125 37.40625 
Q 38.96875 37.40625 42.71875 40.96875 
Q 46.484375 44.53125 46.484375 51.125 
Q 46.484375 57.671875 42.71875 61.234375 
Q 38.96875 64.796875 32.078125 64.796875 
z
M 9.8125 72.90625 
L 32.078125 72.90625 
Q 44.34375 72.90625 50.609375 67.359375 
Q 56.890625 61.8125 56.890625 51.125 
Q 56.890625 40.328125 50.609375 34.8125 
Q 44.34375 29.296875 32.078125 29.296875 
L 19.671875 29.296875 
L 19.671875 0 
L 9.8125 0 
z
" id="DejaVuSans-50"/>
      <path d="M 9.421875 54.6875 
L 18.40625 54.6875 
L 18.40625 0 
L 9.421875 0 
z
M 9.421875 75.984375 
L 18.40625 75.984375 
L 18.40625 64.59375 
L 9.421875 64.59375 
z
" id="DejaVuSans-69"/>
      <path d="M 34.28125 27.484375 
Q 23.390625 27.484375 19.1875 25 
Q 14.984375 22.515625 14.984375 16.5 
Q 14.984375 11.71875 18.140625 8.90625 
Q 21.296875 6.109375 26.703125 6.109375 
Q 34.1875 6.109375 38.703125 11.40625 
Q 43.21875 16.703125 43.21875 25.484375 
L 43.21875 27.484375 
z
M 52.203125 31.203125 
L 52.203125 0 
L 43.21875 0 
L 43.21875 8.296875 
Q 40.140625 3.328125 35.546875 0.953125 
Q 30.953125 -1.421875 24.3125 -1.421875 
Q 15.921875 -1.421875 10.953125 3.296875 
Q 6 8.015625 6 15.921875 
Q 6 25.140625 12.171875 29.828125 
Q 18.359375 34.515625 30.609375 34.515625 
L 43.21875 34.515625 
L 43.21875 35.40625 
Q 43.21875 41.609375 39.140625 45 
Q 35.0625 48.390625 27.6875 48.390625 
Q 23 48.390625 18.546875 47.265625 
Q 14.109375 46.140625 10.015625 43.890625 
L 10.015625 52.203125 
Q 14.9375 54.109375 19.578125 55.046875 
Q 24.21875 56 28.609375 56 
Q 40.484375 56 46.34375 49.84375 
Q 52.203125 43.703125 52.203125 31.203125 
" id="DejaVuSans-61"/>
      <path d="M 52 44.1875 
Q 55.375 50.25 60.0625 53.125 
Q 64.75 56 71.09375 56 
Q 79.640625 56 84.28125 50.015625 
Q 88.921875 44.046875 88.921875 33.015625 
L 88.921875 0 
L 79.890625 0 
L 79.890625 32.71875 
Q 79.890625 40.578125 77.09375 44.375 
Q 74.3125 48.1875 68.609375 48.1875 
Q 61.625 48.1875 57.5625 43.546875 
Q 53.515625 38.921875 53.515625 30.90625 
L 53.515625 0 
L 44.484375 0 
L 44.484375 32.71875 
Q 44.484375 40.625 41.703125 44.40625 
Q 38.921875 48.1875 33.109375 48.1875 
Q 26.21875 48.1875 22.15625 43.53125 
Q 18.109375 38.875 18.109375 30.90625 
L 18.109375 0 
L 9.078125 0 
L 9.078125 54.6875 
L 18.109375 54.6875 
L 18.109375 46.1875 
Q 21.1875 51.21875 25.484375 53.609375 
Q 29.78125 56 35.6875 56 
Q 41.65625 56 45.828125 52.96875 
Q 50 49.953125 52 44.1875 
" id="DejaVuSans-6d"/>
      <path d="M 18.109375 8.203125 
L 18.109375 -20.796875 
L 9.078125 -20.796875 
L 9.078125 54.6875 
L 18.109375 54.6875 
L 18.109375 46.390625 
Q 20.953125 51.265625 25.265625 53.625 
Q 29.59375 56 35.59375 56 
Q 45.5625 56 51.78125 48.09375 
Q 58.015625 40.1875 58.015625 27.296875 
Q 58.015625 14.40625 51.78125 6.484375 
Q 45.5625 -1.421875 35.59375 -1.421875 
Q 29.59375 -1.421875 25.265625 0.953125 
Q 20.953125 3.328125 18.109375 8.203125 
M 48.6875 27.296875 
Q 48.6875 37.203125 44.609375 42.84375 
Q 40.53125 48.484375 33.40625 48.484375 
Q 26.265625 48.484375 22.1875 42.84375 
Q 18.109375 37.203125 18.109375 27.296875 
Q 18.109375 17.390625 22.1875 11.75 
Q 26.265625 6.109375 33.40625 6.109375 
Q 40.53125 6.109375 44.609375 11.75 
Q 48.6875 17.390625 48.6875 27.296875 
" id="DejaVuSans-70"/>
      <path id="DejaVuSans-20"/>
     </defs>
     <g transform="translate(18.654687 168.793281)rotate(-90)scale(0.1 -0.1)">
      <use xlink:href="#DejaVuSans-50"/>
      <use x="60.271484" xlink:href="#DejaVuSans-69"/>
      <use x="88.054688" xlink:href="#DejaVuSans-63"/>
      <use x="143.035156" xlink:href="#DejaVuSans-6f"/>
      <use x="204.216797" xlink:href="#DejaVuSans-61"/>
      <use x="265.496094" xlink:href="#DejaVuSans-6d"/>
      <use x="362.908203" xlink:href="#DejaVuSans-70"/>
      <use x="426.384766" xlink:href="#DejaVuSans-73"/>
      <use x="478.484375" xlink:href="#DejaVuSans-20"/>
     </g>
    </g>
    <g id="text_16">
     <!-- 1e−9 -->
     <defs>
      <path d="M 10.59375 35.5 
L 73.1875 35.5 
L 73.1875 27.203125 
L 10.59375 27.203125 
z
" id="DejaVuSans-2212"/>
     </defs>
     <g transform="translate(54 31.56)scale(0.1 -0.1)">
      <use xlink:href="#DejaVuSans-31"/>
      <use x="63.623047" xlink:href="#DejaVuSans-65"/>
      <use x="125.146484" xlink:href="#DejaVuSans-2212"/>
      <use x="208.935547" xlink:href="#DejaVuSans-39"/>
     </g>
    </g>
   </g>
   <g id="line2d_14">
    <path clip-path="url(#p0547ea46d5)" d="M 69.218182 63.986836 
L 69.421226 61.291222 
L 70.03036 58.764085 
L 70.233404 62.470553 
L 70.436449 63.228695 
L 70.639493 62.975981 
L 70.842537 63.312933 
L 71.248626 63.228695 
L 71.654715 62.891743 
L 71.85776 63.060219 
L 72.060804 62.975981 
L 72.263849 63.060219 
L 72.466893 62.975981 
L 72.872982 63.060219 
L 73.888204 63.144457 
L 74.091249 62.891743 
L 74.294293 63.060219 
L 74.497338 64.492264 
L 74.700382 63.565647 
L 74.903427 63.397171 
L 75.918649 63.481409 
L 76.121693 63.565647 
L 76.527782 63.481409 
L 76.730827 63.565647 
L 77.136916 63.312933 
L 77.33996 63.481409 
L 77.543004 63.228695 
L 77.949093 63.481409 
L 78.152138 62.891743 
L 78.355182 63.312933 
L 78.558227 63.060219 
L 78.761271 63.481409 
L 79.16736 63.228695 
L 79.370405 63.397171 
L 79.573449 63.312933 
L 79.776493 62.891743 
L 79.979538 63.312933 
L 80.182582 63.312933 
L 80.385627 63.144457 
L 80.588671 63.312933 
L 80.99476 63.312933 
L 81.400849 62.891743 
L 81.603894 63.144457 
L 81.806938 63.144457 
L 82.009982 63.397171 
L 82.213027 63.144457 
L 82.416071 63.397171 
L 82.619116 63.144457 
L 82.82216 62.639029 
L 83.025205 63.649884 
L 83.228249 63.565647 
L 83.431294 62.386316 
L 83.634338 63.060219 
L 83.837382 62.975981 
L 84.040427 63.397171 
L 84.243471 62.891743 
L 84.446516 62.723267 
L 84.64956 63.228695 
L 85.055649 62.891743 
L 85.258694 62.807505 
L 85.461738 62.470553 
L 85.664783 62.807505 
L 85.867827 61.880888 
L 86.070871 63.397171 
L 86.47696 62.133602 
L 86.680005 62.723267 
L 86.883049 62.386316 
L 87.086094 63.312933 
L 87.289138 63.312933 
L 87.492183 63.902598 
L 87.695227 63.902598 
L 88.101316 65.671595 
L 88.30436 65.924309 
L 88.507405 63.649884 
L 88.710449 64.66074 
L 88.913494 64.071074 
L 89.116538 65.503119 
L 89.319583 63.565647 
L 89.522627 63.81836 
L 89.928716 63.397171 
L 90.131761 63.312933 
L 90.537849 63.565647 
L 90.943938 63.397171 
L 91.146983 63.649884 
L 93.786561 63.649884 
L 93.989605 63.81836 
L 94.395694 63.649884 
L 94.598739 63.312933 
L 94.801783 63.649884 
L 95.004827 63.565647 
L 95.207872 63.228695 
L 95.410916 62.302078 
L 95.613961 63.228695 
L 95.817005 63.397171 
L 96.223094 63.312933 
L 96.426139 63.565647 
L 96.832228 63.397171 
L 97.238316 63.481409 
L 97.441361 63.312933 
L 97.644405 63.481409 
L 98.050494 63.397171 
L 98.253539 63.481409 
L 98.456583 63.312933 
L 98.659628 63.565647 
L 98.862672 63.397171 
L 99.877894 63.397171 
L 100.080939 63.565647 
L 100.283983 63.397171 
L 100.893117 63.565647 
L 101.705294 63.649884 
L 101.908339 63.734122 
L 102.720517 63.397171 
L 102.923561 63.734122 
L 103.126606 63.565647 
L 103.32965 63.81836 
L 103.532695 63.81836 
L 103.735739 63.649884 
L 103.938783 63.734122 
L 104.141828 63.565647 
L 104.547917 63.649884 
L 104.750961 63.81836 
L 104.954006 63.481409 
L 105.360095 63.565647 
L 106.172272 63.565647 
L 106.375317 63.902598 
L 106.781406 63.649884 
L 106.98445 63.81836 
L 107.187495 63.565647 
L 107.390539 63.81836 
L 107.593584 63.81836 
L 107.999673 63.481409 
L 108.405761 63.565647 
L 108.608806 63.565647 
L 108.81185 63.81836 
L 109.217939 63.481409 
L 109.624028 63.565647 
L 109.827073 63.481409 
L 110.030117 63.649884 
L 110.233162 63.397171 
L 110.436206 63.481409 
L 111.045339 63.144457 
L 111.451428 63.481409 
L 111.857517 63.565647 
L 112.060562 63.397171 
L 112.263606 63.481409 
L 112.669695 63.228695 
L 113.075784 63.481409 
L 113.278828 63.228695 
L 113.684917 63.481409 
L 114.294051 63.565647 
L 114.700139 63.649884 
L 114.903184 63.565647 
L 115.106228 63.81836 
L 115.309273 63.649884 
L 115.512317 64.408026 
L 115.715362 63.902598 
L 115.918406 64.744978 
L 116.121451 64.155312 
L 116.324495 65.166167 
L 116.730584 65.081929 
L 116.933628 63.902598 
L 117.136673 63.734122 
L 117.745806 59.35375 
L 118.151895 63.060219 
L 118.35494 63.144457 
L 118.761029 62.975981 
L 118.964073 62.554791 
L 119.167117 62.470553 
L 119.573206 63.312933 
L 119.776251 64.744978 
L 119.979295 63.986836 
L 120.588429 64.23955 
L 120.791473 63.81836 
L 120.994518 63.902598 
L 121.197562 63.81836 
L 121.603651 62.975981 
L 121.806695 63.481409 
L 122.00974 62.807505 
L 122.212784 62.554791 
L 122.415829 61.965126 
L 122.618873 61.79665 
L 122.821918 61.291222 
L 123.634095 67.609067 
L 123.83714 67.356353 
L 124.040184 64.408026 
L 124.243229 64.155312 
L 124.446273 64.155312 
L 124.852362 64.576502 
L 125.055407 64.66074 
L 125.258451 64.071074 
L 125.66454 63.81836 
L 125.867584 62.386316 
L 126.070629 63.397171 
L 126.476718 63.312933 
L 126.679762 63.312933 
L 127.49194 63.902598 
L 127.694985 64.323788 
L 127.898029 63.986836 
L 128.101073 64.23955 
L 128.304118 64.155312 
L 128.507162 65.418881 
L 128.710207 64.744978 
L 128.913251 66.177022 
L 129.116296 66.345498 
L 129.31934 64.323788 
L 129.522385 64.323788 
L 129.725429 57.500516 
L 129.928474 58.511371 
L 130.334562 63.565647 
L 130.537607 63.228695 
L 130.740651 63.312933 
L 131.14674 63.060219 
L 131.755874 63.312933 
L 131.958918 63.144457 
L 132.161963 63.397171 
L 132.365007 64.576502 
L 132.771096 63.902598 
L 133.177185 64.071074 
L 133.380229 63.902598 
L 133.583274 64.155312 
L 133.786318 63.902598 
L 133.989363 64.071074 
L 134.395452 63.81836 
L 134.598496 63.397171 
L 134.80154 63.986836 
L 135.004585 63.060219 
L 135.207629 63.397171 
L 135.410674 63.397171 
L 135.613718 63.565647 
L 135.816763 62.975981 
L 136.019807 63.312933 
L 136.222852 62.723267 
L 136.425896 62.723267 
L 136.628941 61.122747 
L 136.831985 62.386316 
L 137.035029 61.206984 
L 137.238074 62.049364 
L 137.644163 67.609067 
L 138.253296 66.345498 
L 138.456341 63.902598 
L 138.659385 63.902598 
L 139.268518 64.408026 
L 139.877652 64.323788 
L 140.080696 64.155312 
L 140.283741 64.155312 
L 140.486785 63.902598 
L 140.68983 64.323788 
L 140.892874 62.133602 
L 141.095918 63.565647 
L 141.502007 63.397171 
L 141.705052 63.565647 
L 141.908096 63.397171 
L 142.51723 63.649884 
L 142.720274 63.986836 
L 142.923319 63.649884 
L 143.126363 64.23955 
L 143.329407 63.734122 
L 143.532452 64.23955 
L 143.735496 63.81836 
L 143.938541 64.155312 
L 144.141585 64.913453 
L 144.34463 64.071074 
L 144.547674 65.166167 
L 144.750719 65.250405 
L 144.953763 66.092784 
L 145.156808 66.092784 
L 145.359852 65.250405 
L 145.562896 63.397171 
L 145.765941 60.196129 
L 145.968985 60.280367 
L 146.17203 59.101036 
L 146.375074 63.481409 
L 146.578119 63.734122 
L 146.984208 63.397171 
L 147.187252 63.397171 
L 147.390297 63.228695 
L 147.593341 63.228695 
L 147.796385 63.481409 
L 147.99943 63.312933 
L 148.202474 63.565647 
L 148.405519 63.397171 
L 148.608563 65.334643 
L 148.811608 64.155312 
L 149.420741 64.23955 
L 149.623786 64.408026 
L 150.029874 63.986836 
L 150.232919 64.323788 
L 150.435963 63.649884 
L 150.842052 63.734122 
L 151.248141 63.312933 
L 151.451186 63.481409 
L 151.857275 62.807505 
L 152.060319 62.975981 
L 152.263363 62.302078 
L 152.466408 60.870033 
L 152.669452 62.21784 
L 152.872497 61.712412 
L 153.48163 71.231298 
L 153.684675 65.418881 
L 153.887719 63.986836 
L 154.496852 64.66074 
L 154.902941 64.408026 
L 155.105986 64.576502 
L 155.30903 64.492264 
L 155.512075 64.155312 
L 155.715119 64.23955 
L 155.918164 62.554791 
L 156.121208 63.312933 
L 156.324253 63.565647 
L 156.730341 63.481409 
L 157.13643 63.397171 
L 157.339475 63.81836 
L 157.948608 63.734122 
L 158.151653 64.155312 
L 158.354697 64.23955 
L 158.760786 63.986836 
L 158.96383 64.66074 
L 159.166875 64.408026 
L 159.369919 64.997691 
L 159.572964 64.66074 
L 159.776008 66.598212 
L 159.979053 67.10364 
L 160.385142 62.807505 
L 160.588186 58.005943 
L 160.791231 57.921705 
L 160.994275 62.639029 
L 161.197319 63.565647 
L 161.806453 63.060219 
L 162.212542 63.228695 
L 162.415586 63.144457 
L 162.618631 63.397171 
L 162.821675 63.228695 
L 163.02472 65.503119 
L 163.227764 64.071074 
L 163.633853 64.408026 
L 164.039942 64.155312 
L 164.446031 64.071074 
L 164.649075 63.734122 
L 164.85212 64.155312 
L 165.055164 63.649884 
L 165.258209 63.81836 
L 165.461253 63.481409 
L 165.664297 64.071074 
L 165.867342 63.228695 
L 166.070386 63.481409 
L 166.273431 62.891743 
L 166.476475 62.891743 
L 166.67952 62.133602 
L 166.882564 62.891743 
L 167.085609 60.785795 
L 167.288653 62.891743 
L 167.491697 62.302078 
L 167.694742 68.535684 
L 168.100831 68.788398 
L 168.303875 64.829215 
L 168.50692 63.986836 
L 168.709964 64.071074 
L 168.913009 64.408026 
L 169.522142 64.576502 
L 170.33432 64.323788 
L 170.740409 63.81836 
L 170.943453 62.723267 
L 171.146498 63.81836 
L 171.755631 63.649884 
L 171.958675 63.734122 
L 172.16172 63.986836 
L 172.364764 63.734122 
L 172.567809 63.734122 
L 172.770853 64.155312 
L 172.973898 64.071074 
L 173.176942 64.23955 
L 173.786076 64.23955 
L 173.98912 64.492264 
L 174.192164 64.408026 
L 174.598253 64.66074 
L 174.801298 64.492264 
L 175.004342 64.997691 
L 175.207387 66.008547 
L 175.613476 65.166167 
L 175.81652 63.397171 
L 176.019565 64.997691 
L 176.222609 63.986836 
L 176.425653 64.23955 
L 176.831742 58.595609 
L 177.034787 61.79665 
L 177.237831 62.470553 
L 177.440876 63.902598 
L 177.64392 63.986836 
L 177.846965 63.902598 
L 178.050009 58.764085 
L 178.253054 63.397171 
L 178.456098 63.144457 
L 178.659142 64.155312 
L 178.862187 61.206984 
L 179.065231 64.071074 
L 179.268276 63.144457 
L 179.47132 60.701557 
L 179.674365 62.891743 
L 179.877409 62.723267 
L 180.080454 67.272115 
L 180.283498 65.250405 
L 180.486543 62.049364 
L 180.892631 69.799253 
L 181.095676 62.891743 
L 181.29872 61.965126 
L 181.501765 64.576502 
L 181.704809 62.470553 
L 181.907854 64.492264 
L 182.313943 65.250405 
L 182.516987 64.913453 
L 182.720032 64.913453 
L 182.923076 64.155312 
L 183.12612 61.965126 
L 183.329165 65.503119 
L 183.532209 61.965126 
L 183.735254 65.250405 
L 183.938298 61.291222 
L 184.141343 66.26126 
L 184.344387 60.111891 
L 184.547432 62.470553 
L 184.750476 66.850926 
L 184.953521 61.79665 
L 185.156565 63.565647 
L 185.359609 62.049364 
L 185.562654 61.712412 
L 185.765698 57.079326 
L 185.968743 81.676802 
L 186.171787 44.443636 
L 186.577876 70.557395 
L 186.780921 60.533081 
L 187.18701 81.171374 
L 187.390054 65.166167 
L 187.593098 62.975981 
L 187.999187 64.913453 
L 188.202232 64.23955 
L 188.608321 65.081929 
L 188.811365 61.206984 
L 189.01441 64.408026 
L 189.217454 56.742374 
L 189.420499 65.166167 
L 189.623543 65.250405 
L 189.826587 65.671595 
L 190.029632 62.975981 
L 190.232676 64.323788 
L 190.435721 62.807505 
L 190.638765 64.323788 
L 190.84181 64.829215 
L 191.044854 62.133602 
L 191.247899 65.503119 
L 191.653988 63.565647 
L 191.857032 63.902598 
L 192.060076 63.81836 
L 192.263121 63.228695 
L 192.466165 64.576502 
L 192.66921 64.576502 
L 192.872254 64.071074 
L 193.075299 64.323788 
L 193.278343 64.323788 
L 193.481388 63.986836 
L 193.887476 64.408026 
L 194.293565 64.23955 
L 194.49661 64.323788 
L 194.699654 63.986836 
L 194.902699 64.66074 
L 195.105743 64.744978 
L 195.308788 64.997691 
L 195.511832 64.66074 
L 195.714877 65.250405 
L 196.120965 63.734122 
L 196.32401 63.312933 
L 196.527054 60.364605 
L 196.730099 62.386316 
L 196.933143 62.975981 
L 197.136188 64.155312 
L 197.542277 63.734122 
L 197.745321 63.649884 
L 197.948366 63.81836 
L 198.15141 63.565647 
L 198.760543 63.902598 
L 198.963588 64.155312 
L 199.369677 63.986836 
L 199.775766 63.649884 
L 199.97881 63.902598 
L 200.181855 65.587357 
L 200.384899 64.071074 
L 200.587943 63.902598 
L 200.790988 64.408026 
L 200.994032 64.23955 
L 201.197077 64.66074 
L 201.400121 64.66074 
L 201.603166 63.902598 
L 201.80621 64.23955 
L 202.212299 63.902598 
L 202.415344 64.071074 
L 202.618388 63.986836 
L 202.821432 64.576502 
L 203.024477 63.734122 
L 203.227521 63.986836 
L 203.430566 63.902598 
L 203.63361 63.986836 
L 203.836655 63.734122 
L 204.039699 64.155312 
L 204.242744 63.649884 
L 204.445788 64.155312 
L 205.257966 63.144457 
L 205.46101 63.312933 
L 205.664055 63.312933 
L 205.867099 62.807505 
L 206.070144 64.071074 
L 206.273188 66.766688 
L 206.476233 67.693305 
L 206.882322 64.071074 
L 207.085366 63.902598 
L 207.28841 64.23955 
L 207.897544 64.492264 
L 208.100588 63.565647 
L 208.303633 63.649884 
L 208.506677 64.576502 
L 208.709722 63.734122 
L 208.912766 64.23955 
L 209.115811 62.470553 
L 209.318855 64.323788 
L 209.521899 64.071074 
L 209.724944 64.23955 
L 210.537122 64.23955 
L 210.740166 64.492264 
L 210.943211 63.902598 
L 211.146255 64.23955 
L 211.552344 64.323788 
L 211.755388 64.323788 
L 211.958433 63.734122 
L 212.161477 64.66074 
L 212.364522 63.81836 
L 212.567566 64.155312 
L 212.770611 63.060219 
L 212.973655 72.242153 
L 213.1767 67.272115 
L 213.379744 69.041112 
L 213.582789 63.565647 
L 213.785833 72.663343 
L 213.988877 51.940812 
L 214.191922 72.242153 
L 214.394966 60.870033 
L 214.598011 56.573898 
L 215.410189 64.66074 
L 215.613233 63.734122 
L 215.816278 63.397171 
L 216.019322 63.649884 
L 216.222366 63.397171 
L 216.425411 63.397171 
L 216.628455 65.755833 
L 216.8315 62.891743 
L 217.034544 62.470553 
L 217.237589 64.23955 
L 217.440633 64.997691 
L 217.643678 64.408026 
L 217.846722 65.250405 
L 218.049767 64.323788 
L 218.252811 64.744978 
L 218.455855 64.744978 
L 218.6589 64.323788 
L 218.861944 63.060219 
L 219.064989 65.503119 
L 219.268033 64.323788 
L 219.877167 64.323788 
L 220.080211 64.155312 
L 220.283256 63.397171 
L 220.4863 64.408026 
L 220.689344 63.902598 
L 220.892389 62.891743 
L 221.298478 63.734122 
L 221.501522 62.891743 
L 221.704567 63.312933 
L 221.907611 61.880888 
L 222.110656 61.543936 
L 222.3137 61.965126 
L 222.922833 68.956874 
L 223.125878 70.136205 
L 223.328922 68.367209 
L 223.531967 64.913453 
L 223.735011 64.408026 
L 223.938056 64.66074 
L 224.1411 64.492264 
L 224.547189 64.829215 
L 224.750233 64.66074 
L 224.953278 64.997691 
L 225.359367 64.576502 
L 225.562411 65.671595 
L 225.765456 63.649884 
L 225.9685 67.356353 
L 226.171545 61.712412 
L 226.374589 64.23955 
L 226.577634 65.166167 
L 226.780678 62.554791 
L 226.983722 65.587357 
L 227.186767 63.060219 
L 227.592856 65.755833 
L 227.7959 62.133602 
L 227.998945 65.081929 
L 228.201989 62.133602 
L 228.608078 64.997691 
L 228.811123 63.81836 
L 229.014167 63.649884 
L 229.217211 64.576502 
L 229.6233 64.408026 
L 229.826345 64.576502 
L 230.029389 64.408026 
L 230.232434 64.408026 
L 230.435478 64.829215 
L 230.638523 64.829215 
L 230.841567 64.492264 
L 231.044612 65.671595 
L 231.247656 64.323788 
L 231.4507 64.408026 
L 231.653745 65.418881 
L 231.856789 64.913453 
L 232.465923 66.008547 
L 232.872012 64.66074 
L 233.278101 66.513974 
L 233.481145 62.133602 
L 233.684189 63.060219 
L 233.887234 60.617319 
L 234.293323 61.965126 
L 234.496367 63.986836 
L 234.699412 64.492264 
L 234.902456 64.23955 
L 235.308545 64.323788 
L 235.51159 64.408026 
L 235.714634 64.155312 
L 235.917678 64.323788 
L 236.526812 64.155312 
L 236.932901 64.323788 
L 237.135945 64.23955 
L 237.33899 64.576502 
L 237.745079 64.492264 
L 237.948123 64.071074 
L 238.354212 64.408026 
L 238.557256 64.492264 
L 238.760301 64.155312 
L 238.963345 63.481409 
L 239.16639 66.598212 
L 239.572479 62.302078 
L 239.978568 67.356353 
L 240.181612 61.79665 
L 240.384656 62.807505 
L 240.587701 64.913453 
L 240.99379 64.66074 
L 241.196834 66.092784 
L 241.399879 63.649884 
L 241.602923 65.671595 
L 241.805968 62.554791 
L 242.009012 65.250405 
L 242.212057 63.902598 
L 242.415101 64.829215 
L 242.618145 63.312933 
L 242.82119 64.071074 
L 243.024234 62.975981 
L 243.227279 63.481409 
L 243.430323 64.408026 
L 243.633368 63.565647 
L 244.039457 64.576502 
L 244.242501 64.408026 
L 244.445546 66.008547 
L 244.64859 64.071074 
L 244.851634 64.829215 
L 245.054679 64.23955 
L 245.257723 64.408026 
L 245.460768 64.997691 
L 245.663812 64.913453 
L 245.866857 65.671595 
L 246.069901 64.997691 
L 246.272946 64.913453 
L 246.47599 64.408026 
L 246.679035 64.576502 
L 246.882079 64.492264 
L 247.085123 64.913453 
L 247.288168 64.829215 
L 247.694257 64.913453 
L 247.897301 64.744978 
L 248.100346 64.913453 
L 248.709479 64.913453 
L 248.912524 64.492264 
L 249.115568 64.744978 
L 249.318612 64.576502 
L 249.521657 64.913453 
L 249.724701 64.492264 
L 250.13079 64.576502 
L 250.333835 65.334643 
L 250.536879 64.829215 
L 250.739924 65.503119 
L 250.942968 64.744978 
L 251.146012 66.092784 
L 251.349057 70.557395 
L 251.552101 63.228695 
L 251.755146 69.293826 
L 252.161235 63.902598 
L 252.364279 67.356353 
L 252.567324 63.228695 
L 252.770368 63.060219 
L 252.973413 64.323788 
L 253.176457 62.723267 
L 253.379501 63.312933 
L 253.582546 64.829215 
L 253.78559 70.220443 
L 253.988635 57.837467 
L 254.191679 60.196129 
L 254.394724 68.535684 
L 254.597768 65.671595 
L 254.800813 68.70416 
L 255.003857 60.448843 
L 255.206902 70.473157 
L 255.409946 61.628174 
L 255.61299 64.576502 
L 255.816035 63.649884 
L 256.019079 62.133602 
L 256.222124 68.535684 
L 256.425168 65.840071 
L 256.628213 64.744978 
L 256.831257 64.913453 
L 257.034302 61.291222 
L 257.237346 61.712412 
L 257.440391 58.511371 
L 257.643435 64.997691 
L 257.846479 62.807505 
L 258.049524 65.166167 
L 258.252568 63.312933 
L 258.455613 63.060219 
L 258.861702 64.576502 
L 259.064746 64.408026 
L 259.267791 64.744978 
L 259.470835 64.071074 
L 259.67388 64.492264 
L 259.876924 64.576502 
L 260.079968 64.408026 
L 260.283013 63.986836 
L 260.689102 64.323788 
L 260.892146 64.492264 
L 261.095191 64.323788 
L 261.298235 63.986836 
L 261.50128 65.334643 
L 261.704324 63.649884 
L 261.907369 64.576502 
L 262.110413 64.23955 
L 262.516502 65.250405 
L 262.719546 63.228695 
L 263.125635 63.986836 
L 263.32868 65.166167 
L 263.531724 63.649884 
L 263.734769 65.081929 
L 263.937813 63.81836 
L 264.140858 65.587357 
L 264.343902 64.997691 
L 264.546946 63.734122 
L 264.749991 64.744978 
L 264.953035 63.986836 
L 265.15608 66.598212 
L 265.359124 64.323788 
L 265.562169 65.503119 
L 265.765213 64.829215 
L 266.171302 64.408026 
L 266.374347 62.723267 
L 266.780435 67.861781 
L 266.98348 64.155312 
L 267.186524 65.334643 
L 267.389569 63.228695 
L 267.592613 67.10364 
L 267.998702 64.744978 
L 268.201747 65.081929 
L 268.404791 64.323788 
L 268.607836 64.66074 
L 268.81088 64.323788 
L 269.013924 64.997691 
L 269.216969 64.071074 
L 269.420013 64.155312 
L 269.623058 65.671595 
L 269.826102 63.481409 
L 270.029147 64.829215 
L 270.435236 63.81836 
L 270.63828 64.66074 
L 270.841325 63.81836 
L 271.044369 65.250405 
L 271.247413 64.071074 
L 271.450458 64.829215 
L 271.653502 64.155312 
L 271.856547 64.744978 
L 272.059591 64.155312 
L 272.262636 60.954271 
L 272.668725 65.671595 
L 272.871769 61.79665 
L 273.074814 65.671595 
L 273.277858 62.639029 
L 273.480902 64.744978 
L 273.683947 63.060219 
L 273.886991 65.250405 
L 274.090036 70.810109 
L 274.29308 67.356353 
L 274.496125 67.946019 
L 274.699169 67.524829 
L 274.902214 64.997691 
L 275.105258 64.997691 
L 275.308303 64.744978 
L 275.511347 64.829215 
L 275.917436 65.166167 
L 276.12048 65.081929 
L 276.323525 65.587357 
L 276.526569 65.166167 
L 276.729614 65.250405 
L 276.932658 63.81836 
L 277.135703 66.26126 
L 277.541791 64.66074 
L 277.744836 61.628174 
L 277.94788 65.671595 
L 278.150925 64.155312 
L 278.353969 64.323788 
L 278.557014 64.829215 
L 278.760058 64.323788 
L 278.963103 64.408026 
L 279.166147 64.155312 
L 279.369192 66.008547 
L 279.572236 64.913453 
L 279.77528 65.250405 
L 280.181369 64.23955 
L 280.384414 65.840071 
L 280.587458 64.323788 
L 280.993547 66.429736 
L 281.196592 70.388919 
L 281.399636 68.451447 
L 281.602681 69.12535 
L 281.805725 70.304681 
L 282.211814 58.258657 
L 282.414858 54.383712 
L 282.820947 64.071074 
L 283.023992 64.155312 
L 283.227036 64.913453 
L 283.430081 64.913453 
L 283.633125 63.060219 
L 283.83617 64.323788 
L 284.039214 63.81836 
L 284.242258 62.723267 
L 284.445303 64.576502 
L 284.648347 64.66074 
L 284.851392 68.70416 
L 285.054436 63.734122 
L 285.257481 63.649884 
L 285.460525 65.418881 
L 285.66357 65.924309 
L 285.866614 65.250405 
L 286.069659 66.092784 
L 286.272703 64.071074 
L 286.475747 65.587357 
L 286.678792 64.323788 
L 286.881836 64.744978 
L 287.084881 64.155312 
L 287.287925 64.913453 
L 287.49097 63.902598 
L 287.694014 64.66074 
L 287.897059 63.902598 
L 288.100103 63.986836 
L 288.506192 61.206984 
L 288.709236 61.79665 
L 289.115325 66.850926 
L 289.31837 73.000295 
L 289.724459 65.081929 
L 289.927503 64.997691 
L 290.130548 65.166167 
L 290.333592 65.166167 
L 290.536637 65.418881 
L 291.14577 65.081929 
L 291.348814 65.755833 
L 291.551859 62.302078 
L 291.754903 65.166167 
L 291.957948 64.408026 
L 292.160992 64.23955 
L 292.567081 64.323788 
L 292.770126 64.576502 
L 292.97317 64.492264 
L 293.176214 65.166167 
L 293.582303 65.587357 
L 293.785348 64.829215 
L 294.394481 66.935164 
L 294.597526 67.272115 
L 295.003615 65.166167 
L 295.206659 65.166167 
L 295.612748 63.228695 
L 295.815792 56.995088 
L 296.018837 62.807505 
L 296.221881 64.155312 
L 296.424926 64.66074 
L 296.62797 64.744978 
L 296.831015 64.66074 
L 297.034059 65.166167 
L 297.237104 63.060219 
L 297.440148 64.829215 
L 297.643192 64.744978 
L 297.846237 68.535684 
L 298.049281 65.503119 
L 298.45537 62.975981 
L 298.658415 64.997691 
L 299.064504 65.081929 
L 299.470593 63.565647 
L 299.673637 63.649884 
L 299.876681 65.250405 
L 300.079726 65.840071 
L 300.485815 64.492264 
L 300.688859 53.541333 
L 300.891904 74.516577 
L 301.094948 62.975981 
L 301.297993 60.954271 
L 301.704082 71.315536 
L 301.907126 65.418881 
L 302.11017 65.166167 
L 302.516259 65.924309 
L 302.719304 66.092784 
L 302.922348 64.155312 
L 303.125393 63.734122 
L 303.328437 65.081929 
L 303.531482 65.081929 
L 303.734526 65.250405 
L 304.343659 63.397171 
L 304.546704 64.744978 
L 304.749748 64.913453 
L 304.952793 65.755833 
L 305.155837 64.744978 
L 305.358882 65.755833 
L 305.561926 65.166167 
L 305.764971 63.81836 
L 305.968015 66.092784 
L 306.171059 65.250405 
L 306.374104 67.609067 
L 306.577148 63.565647 
L 306.780193 67.356353 
L 306.983237 66.68245 
L 307.186282 64.576502 
L 307.389326 58.258657 
L 307.795415 63.902598 
L 307.99846 64.408026 
L 308.201504 64.323788 
L 308.404548 64.408026 
L 308.810637 64.071074 
L 309.013682 63.986836 
L 309.419771 66.177022 
L 309.622815 64.744978 
L 310.231949 65.166167 
L 310.841082 65.081929 
L 311.044126 64.997691 
L 311.247171 64.492264 
L 311.450215 64.576502 
L 311.65326 64.408026 
L 311.856304 64.829215 
L 312.059349 63.734122 
L 312.262393 64.744978 
L 312.465438 63.144457 
L 312.871526 64.576502 
L 313.074571 64.071074 
L 313.277615 64.23955 
L 313.48066 66.345498 
L 313.683704 67.019402 
L 313.886749 68.451447 
L 314.089793 66.092784 
L 314.292838 65.081929 
L 314.495882 65.166167 
L 314.698927 65.587357 
L 314.901971 65.503119 
L 315.105015 65.840071 
L 315.511104 65.166167 
L 315.714149 64.492264 
L 315.917193 64.492264 
L 316.120238 64.155312 
L 316.323282 64.744978 
L 316.526327 64.071074 
L 316.729371 64.997691 
L 316.932416 64.492264 
L 317.13546 64.492264 
L 317.338504 64.23955 
L 317.744593 65.166167 
L 317.947638 64.829215 
L 318.353727 65.503119 
L 318.556771 65.081929 
L 318.759816 66.935164 
L 318.96286 65.334643 
L 319.165905 67.693305 
L 319.368949 66.513974 
L 319.571993 64.155312 
L 319.775038 66.345498 
L 319.978082 60.701557 
L 320.181127 62.470553 
L 320.384171 62.891743 
L 320.587216 61.965126 
L 320.79026 64.576502 
L 320.993305 64.66074 
L 321.196349 64.492264 
L 321.602438 64.576502 
L 321.805482 64.155312 
L 322.008527 64.66074 
L 322.211571 64.576502 
L 322.414616 66.092784 
L 322.61766 63.060219 
L 322.820705 64.66074 
L 323.226794 65.503119 
L 323.632883 65.166167 
L 323.835927 66.008547 
L 324.038971 64.744978 
L 324.242016 64.492264 
L 324.44506 65.924309 
L 324.648105 64.576502 
L 324.851149 64.323788 
L 325.054194 65.166167 
L 325.257238 63.312933 
L 325.460283 64.408026 
L 325.663327 63.81836 
L 325.866372 62.807505 
L 326.069416 63.144457 
L 326.27246 62.807505 
L 326.475505 64.071074 
L 326.678549 64.492264 
L 326.881594 66.68245 
L 327.084638 65.250405 
L 327.287683 65.503119 
L 327.490727 69.209588 
L 327.693772 68.451447 
L 328.302905 65.250405 
L 328.505949 65.081929 
L 328.708994 65.166167 
L 328.912038 65.081929 
L 329.521172 65.587357 
L 329.724216 65.587357 
L 330.130305 64.997691 
L 330.33335 64.829215 
L 330.536394 64.829215 
L 330.739438 64.071074 
L 330.942483 64.997691 
L 331.145527 64.829215 
L 331.348572 64.829215 
L 331.551616 64.66074 
L 331.754661 64.913453 
L 331.957705 64.744978 
L 332.566838 65.081929 
L 332.769883 64.744978 
L 332.972927 65.166167 
L 333.582061 65.418881 
L 333.785105 65.250405 
L 333.98815 65.587357 
L 334.191194 65.334643 
L 334.394239 65.840071 
L 334.597283 65.334643 
L 334.800327 66.598212 
L 335.003372 65.671595 
L 335.206416 68.282971 
L 335.612505 65.755833 
L 335.81555 55.731519 
L 336.018594 65.166167 
L 336.221639 66.429736 
L 336.424683 72.326391 
L 336.627728 62.21784 
L 336.830772 77.549143 
L 337.033816 71.736726 
L 337.236861 59.690702 
L 337.439905 58.595609 
L 337.64295 66.177022 
L 337.845994 68.282971 
L 338.049039 57.33204 
L 338.252083 61.37546 
L 338.455128 57.921705 
L 338.861217 64.323788 
L 339.064261 64.576502 
L 339.267305 64.576502 
L 339.47035 65.081929 
L 339.673394 64.913453 
L 339.876439 64.913453 
L 340.079483 64.66074 
L 340.282528 64.829215 
L 340.485572 64.744978 
L 340.688617 64.492264 
L 341.094706 64.913453 
L 341.29775 64.997691 
L 341.703839 64.408026 
L 341.906883 65.503119 
L 342.109928 64.829215 
L 342.312972 61.880888 
L 342.516017 65.418881 
L 342.719061 63.649884 
L 342.922106 64.829215 
L 343.12515 63.312933 
L 343.328195 68.367209 
L 343.531239 62.302078 
L 343.734283 66.345498 
L 343.937328 64.997691 
L 344.140372 66.092784 
L 344.343417 65.250405 
L 344.546461 65.671595 
L 344.749506 65.166167 
L 344.95255 65.334643 
L 345.155595 69.293826 
L 345.358639 64.829215 
L 345.561684 64.23955 
L 345.764728 64.744978 
L 345.967772 64.576502 
L 346.170817 64.913453 
L 346.576906 66.345498 
L 346.77995 63.565647 
L 346.982995 65.671595 
L 347.186039 66.092784 
L 347.389084 64.408026 
L 347.795173 65.503119 
L 347.998217 65.503119 
L 348.201261 64.492264 
L 348.404306 65.334643 
L 348.60735 65.166167 
L 348.810395 65.418881 
L 349.013439 64.576502 
L 349.216484 65.166167 
L 349.419528 64.323788 
L 349.622573 66.008547 
L 349.825617 63.312933 
L 350.028662 64.744978 
L 350.231706 64.997691 
L 350.43475 67.946019 
L 350.637795 59.859178 
L 350.840839 65.924309 
L 351.043884 61.459698 
L 351.246928 71.820964 
L 351.449973 63.649884 
L 351.653017 60.364605 
L 351.856062 67.946019 
L 352.059106 62.723267 
L 352.262151 60.448843 
L 352.465195 63.986836 
L 352.668239 63.902598 
L 352.871284 63.397171 
L 353.074328 66.850926 
L 353.277373 64.829215 
L 353.480417 65.418881 
L 353.683462 64.576502 
L 353.886506 59.101036 
L 354.089551 70.725871 
L 354.292595 61.37546 
L 354.49564 63.81836 
L 354.698684 69.293826 
L 354.901728 62.639029 
L 355.104773 65.334643 
L 355.307817 72.157915 
L 355.713906 63.81836 
L 356.119995 70.894346 
L 356.32304 67.272115 
L 356.526084 66.850926 
L 356.729129 64.997691 
L 356.932173 65.755833 
L 357.135217 65.166167 
L 357.338262 65.755833 
L 357.541306 65.250405 
L 357.744351 65.166167 
L 357.947395 65.840071 
L 358.15044 65.418881 
L 358.353484 65.334643 
L 358.556529 65.755833 
L 358.759573 65.503119 
L 359.165662 65.418881 
L 359.368706 64.66074 
L 359.571751 65.503119 
L 359.774795 65.587357 
L 359.97784 66.429736 
L 360.383929 65.166167 
L 360.586973 65.924309 
L 360.790018 65.250405 
L 360.993062 65.587357 
L 361.399151 64.492264 
L 361.602195 64.408026 
L 361.80524 64.829215 
L 362.008284 64.913453 
L 362.211329 65.840071 
L 362.617418 64.071074 
L 362.820462 65.081929 
L 363.023507 65.250405 
L 363.226551 65.250405 
L 363.429595 64.155312 
L 363.63264 66.008547 
L 363.835684 64.071074 
L 364.038729 66.26126 
L 364.241773 63.986836 
L 364.647862 66.598212 
L 364.850907 64.071074 
L 365.053951 66.766688 
L 365.46004 62.386316 
L 365.663084 68.535684 
L 365.866129 69.12535 
L 366.069173 63.481409 
L 366.272218 62.554791 
L 366.475262 65.166167 
L 366.678307 66.092784 
L 366.881351 71.399774 
L 367.084396 65.840071 
L 367.28744 67.777543 
L 367.490485 62.639029 
L 367.693529 67.524829 
L 367.896573 66.513974 
L 368.302662 69.209588 
L 368.505707 85.38327 
L 368.708751 59.943416 
L 368.911796 65.924309 
L 369.11484 65.166167 
L 369.317885 48.992485 
L 369.520929 51.435385 
L 369.927018 64.913453 
L 370.130062 65.081929 
L 370.333107 65.587357 
L 370.536151 64.576502 
L 370.739196 64.408026 
L 370.94224 64.829215 
L 371.145285 64.408026 
L 371.348329 64.913453 
L 371.551374 68.030257 
L 371.754418 65.503119 
L 371.957463 57.837467 
L 372.160507 72.242153 
L 372.363551 57.33204 
L 372.76964 67.356353 
L 372.972685 67.861781 
L 373.175729 65.334643 
L 373.378774 66.26126 
L 373.581818 69.378064 
L 373.581818 69.378064 
" style="fill:none;stroke:#ff0000;stroke-linecap:square;stroke-width:1.5;"/>
   </g>
   <g id="line2d_15">
    <path clip-path="url(#p0547ea46d5)" d="M 69.218182 222.059312 
L 69.421226 218.698219 
L 70.03036 215.067564 
L 70.233404 220.273468 
L 70.436449 220.981067 
L 70.639493 220.770472 
L 70.842537 221.082152 
L 71.045582 221.073729 
L 71.248626 220.9221 
L 71.451671 220.913677 
L 71.654715 220.770472 
L 71.85776 221.048457 
L 72.060804 220.601996 
L 72.263849 220.837862 
L 72.466893 220.576725 
L 72.669938 220.778896 
L 73.482115 220.770472 
L 73.68516 221.082152 
L 73.888204 221.090576 
L 74.091249 220.938948 
L 74.294293 221.141119 
L 74.497338 222.472078 
L 74.700382 221.385409 
L 74.903427 221.233781 
L 75.106471 221.318019 
L 75.51256 221.216933 
L 75.918649 221.747632 
L 76.121693 221.326442 
L 76.324738 221.376985 
L 76.527782 221.183238 
L 76.730827 221.638123 
L 76.933871 221.309595 
L 77.136916 221.461223 
L 77.33996 221.225357 
L 77.949093 221.452799 
L 78.152138 220.585149 
L 78.355182 221.174814 
L 78.558227 220.821015 
L 78.761271 221.511766 
L 78.964316 221.309595 
L 79.16736 220.846286 
L 79.370405 221.267476 
L 79.573449 221.157967 
L 79.776493 220.736777 
L 79.979538 221.099 
L 80.385627 221.115848 
L 80.588671 221.242205 
L 80.791716 221.065305 
L 80.99476 221.435952 
L 81.197805 220.85471 
L 81.400849 220.660963 
L 82.009982 221.376985 
L 82.213027 220.972643 
L 82.416071 221.292747 
L 82.619116 221.233781 
L 82.82216 220.029178 
L 83.025205 221.882413 
L 83.228249 221.907684 
L 83.431294 220.138688 
L 83.634338 220.837862 
L 83.837382 220.812591 
L 84.040427 221.452799 
L 84.243471 220.61042 
L 84.446516 220.450368 
L 84.64956 221.191662 
L 85.055649 220.703082 
L 85.258694 220.728353 
L 85.461738 220.290316 
L 85.664783 220.500911 
L 85.867827 219.582717 
L 86.070871 221.486495 
L 86.273916 220.78732 
L 86.47696 219.658531 
L 86.680005 220.36613 
L 86.883049 220.029178 
L 87.086094 221.351714 
L 87.289138 221.149543 
L 87.492183 222.025617 
L 87.695227 222.160398 
L 88.101316 224.291618 
L 88.30436 225.218235 
L 88.507405 221.646547 
L 88.710449 222.943811 
L 88.913494 222.126703 
L 89.116538 223.988361 
L 89.319583 221.562309 
L 89.522627 221.991922 
L 89.725672 221.503342 
L 89.928716 221.360138 
L 90.131761 221.486495 
L 90.334805 221.419104 
L 90.537849 221.494918 
L 90.943938 221.427528 
L 91.146983 221.663394 
L 91.350027 221.402257 
L 91.756116 221.680242 
L 91.959161 221.638123 
L 92.162205 221.756056 
L 92.568294 221.452799 
L 92.771338 221.537037 
L 92.974383 221.41068 
L 93.177427 221.528613 
L 93.380472 221.444376 
L 93.583516 221.65497 
L 93.786561 221.562309 
L 94.395694 221.646547 
L 94.598739 221.34329 
L 95.004827 221.570732 
L 95.207872 221.099 
L 95.410916 220.239773 
L 95.613961 221.048457 
L 95.817005 221.301171 
L 97.238316 221.2759 
L 97.441361 221.065305 
L 97.84745 221.174814 
L 98.253539 221.2759 
L 99.065717 221.267476 
L 99.268761 221.402257 
L 99.67485 221.250628 
L 99.877894 221.351714 
L 100.283983 221.233781 
L 100.487028 221.461223 
L 100.690072 221.334866 
L 100.893117 221.461223 
L 101.096161 221.419104 
L 101.50225 221.58758 
L 101.908339 221.360138 
L 102.314428 221.368561 
L 102.517472 221.461223 
L 102.720517 221.233781 
L 103.32965 221.452799 
L 103.532695 221.385409 
L 103.735739 221.562309 
L 104.141828 221.41068 
L 104.750961 221.713937 
L 104.954006 221.368561 
L 105.15705 221.309595 
L 105.360095 221.621275 
L 105.563139 221.34329 
L 105.766184 221.545461 
L 105.969228 221.427528 
L 106.172272 221.478071 
L 106.375317 221.730785 
L 106.781406 221.596004 
L 107.187495 221.461223 
L 107.390539 221.646547 
L 107.796628 221.427528 
L 108.202717 221.284323 
L 108.405761 221.461223 
L 108.608806 221.368561 
L 108.81185 221.478071 
L 109.217939 221.334866 
L 109.420984 221.393833 
L 109.624028 221.242205 
L 110.030117 221.360138 
L 110.436206 221.334866 
L 110.842295 221.141119 
L 111.045339 220.871558 
L 111.248384 220.972643 
L 111.451428 221.267476 
L 111.654473 221.360138 
L 112.060562 221.225357 
L 112.263606 221.360138 
L 112.872739 221.040033 
L 113.075784 221.183238 
L 113.278828 221.048457 
L 113.684917 221.385409 
L 114.091006 221.393833 
L 114.497095 221.646547 
L 114.700139 221.722361 
L 114.903184 221.629699 
L 115.106228 221.873989 
L 115.309273 221.376985 
L 115.512317 222.87642 
L 115.715362 221.772903 
L 115.918406 222.792182 
L 116.121451 222.244636 
L 116.324495 223.617714 
L 116.52754 223.516629 
L 116.730584 223.626138 
L 116.933628 221.941379 
L 117.136673 221.562309 
L 117.745806 215.682501 
L 118.151895 220.821015 
L 118.35494 220.938948 
L 118.557984 220.879981 
L 118.964073 220.450368 
L 119.167117 220.399825 
L 119.573206 221.259052 
L 119.776251 222.699521 
L 119.979295 221.722361 
L 120.18234 221.857141 
L 120.385384 222.194093 
L 120.588429 221.83187 
L 121.197562 221.579156 
L 121.400606 220.871558 
L 121.603651 220.568301 
L 121.806695 221.301171 
L 122.618873 218.883542 
L 122.821918 218.462353 
L 123.634095 226.464956 
L 123.83714 226.22909 
L 124.040184 222.421536 
L 124.243229 222.084584 
L 124.446273 222.101431 
L 124.649318 222.438383 
L 125.258451 222.202517 
L 125.66454 221.452799 
L 125.867584 220.096569 
L 126.070629 221.200086 
L 126.273673 220.888405 
L 126.476718 220.989491 
L 126.679762 220.947372 
L 127.085851 221.798175 
L 127.288896 221.579156 
L 127.49194 221.680242 
L 127.694985 222.337298 
L 127.898029 222.194093 
L 128.101073 222.227788 
L 128.304118 221.89926 
L 128.507162 223.592443 
L 128.710207 222.977506 
L 128.913251 224.931826 
L 129.116296 224.813893 
L 129.31934 222.446807 
L 129.522385 222.463654 
L 129.725429 213.205906 
L 129.928474 214.343118 
L 130.334562 221.393833 
L 130.537607 220.888405 
L 130.740651 221.023186 
L 130.943696 220.846286 
L 131.552829 220.896829 
L 131.958918 220.930524 
L 132.161963 221.2759 
L 132.365007 222.49735 
L 132.771096 221.865565 
L 132.97414 221.848718 
L 133.177185 222.109855 
L 133.380229 221.924532 
L 133.583274 222.050889 
L 134.395452 221.562309 
L 134.598496 220.981067 
L 134.80154 222.042465 
L 135.004585 220.821015 
L 135.410674 221.562309 
L 135.816763 220.559877 
L 136.019807 221.107424 
L 136.222852 220.340859 
L 136.425896 220.408249 
L 136.628941 218.159096 
L 136.831985 219.658531 
L 137.035029 218.091706 
L 137.238074 219.346851 
L 137.644163 226.869298 
L 137.847207 226.094309 
L 138.050252 226.035343 
L 138.253296 224.788621 
L 138.456341 221.89926 
L 138.659385 221.857141 
L 139.065474 222.101431 
L 139.268518 222.219364 
L 139.877652 222.025617 
L 140.080696 222.07616 
L 140.283741 221.932956 
L 140.486785 221.638123 
L 140.68983 221.890837 
L 140.892874 219.894398 
L 141.095918 221.34329 
L 141.298963 221.267476 
L 141.502007 220.938948 
L 141.908096 221.242205 
L 142.111141 221.090576 
L 142.720274 221.924532 
L 142.923319 221.511766 
L 143.126363 222.109855 
L 143.329407 221.267476 
L 143.532452 222.32045 
L 143.735496 221.368561 
L 144.141585 223.05332 
L 144.34463 221.924532 
L 144.547674 223.306034 
L 144.750719 223.331305 
L 144.953763 224.325313 
L 145.156808 224.611722 
L 145.359852 223.322881 
L 145.765941 216.533304 
L 145.968985 216.659661 
L 146.17203 215.404516 
L 146.375074 220.871558 
L 146.578119 221.225357 
L 146.984208 220.9221 
L 147.390297 221.006338 
L 147.593341 220.745201 
L 147.99943 221.107424 
L 148.202474 221.191662 
L 148.405519 221.099 
L 148.608563 223.05332 
L 148.811608 221.890837 
L 149.014652 221.983498 
L 149.217697 221.83187 
L 149.420741 222.345721 
L 149.82683 221.857141 
L 150.232919 222.093008 
L 150.435963 221.250628 
L 150.842052 221.452799 
L 151.248141 220.829439 
L 151.451186 221.419104 
L 151.857275 220.332435 
L 152.060319 220.441944 
L 152.263363 219.624836 
L 152.466408 217.569431 
L 152.669452 219.473208 
L 152.872497 218.849847 
L 153.48163 231.409723 
L 153.684675 223.60929 
L 153.887719 221.983498 
L 154.090764 222.14355 
L 154.293808 222.488926 
L 154.902941 222.480502 
L 155.30903 222.337298 
L 155.512075 222.067736 
L 155.715119 222.000346 
L 155.918164 220.382978 
L 156.121208 221.292747 
L 156.527297 221.393833 
L 156.730341 221.014762 
L 156.933386 221.452799 
L 157.13643 221.107424 
L 157.339475 221.688666 
L 157.745564 221.621275 
L 157.948608 221.58758 
L 158.354697 222.135127 
L 158.557742 221.949803 
L 158.760786 221.596004 
L 158.96383 222.87642 
L 159.166875 222.303602 
L 159.369919 223.213372 
L 159.572964 222.842725 
L 159.776008 225.369863 
L 159.979053 226.178547 
L 160.385142 220.265045 
L 160.588186 214.01459 
L 160.791231 213.795571 
L 160.994275 220.475639 
L 161.197319 221.267476 
L 161.603408 221.099 
L 161.806453 220.888405 
L 162.415586 220.989491 
L 162.618631 221.191662 
L 162.821675 221.023186 
L 163.02472 223.289186 
L 163.227764 221.958227 
L 163.430808 221.932956 
L 163.633853 222.236212 
L 163.836897 222.210941 
L 164.039942 222.067736 
L 164.242986 222.14355 
L 164.446031 222.050889 
L 164.649075 221.596004 
L 164.85212 221.890837 
L 165.055164 221.200086 
L 165.258209 221.444376 
L 165.461253 221.023186 
L 165.664297 221.663394 
L 165.867342 220.989491 
L 166.070386 221.191662 
L 166.273431 220.340859 
L 166.476475 220.307163 
L 166.67952 219.304732 
L 166.882564 220.382978 
L 167.085609 217.384107 
L 167.288653 220.273468 
L 167.491697 219.515327 
L 167.694742 227.854882 
L 167.897786 227.795915 
L 168.100831 228.040205 
L 168.303875 222.952234 
L 168.50692 221.924532 
L 168.913009 222.210941 
L 169.116053 222.370993 
L 169.319098 222.312026 
L 169.522142 222.463654 
L 169.928231 222.278331 
L 170.131275 222.269907 
L 170.33432 221.873989 
L 170.740409 221.503342 
L 170.943453 220.332435 
L 171.146498 221.393833 
L 171.349542 221.528613 
L 171.552587 221.099 
L 171.755631 221.478071 
L 171.958675 221.259052 
L 172.16172 221.528613 
L 172.567809 221.469647 
L 172.770853 221.907684 
L 172.973898 221.680242 
L 173.176942 221.924532 
L 173.379987 221.991922 
L 173.583031 221.865565 
L 173.786076 222.286755 
L 173.98912 222.328874 
L 174.192164 222.488926 
L 174.395209 221.991922 
L 174.598253 222.766911 
L 174.801298 222.615283 
L 175.004342 223.272339 
L 175.207387 224.611722 
L 175.613476 223.331305 
L 175.81652 221.141119 
L 176.019565 223.440814 
L 176.222609 222.025617 
L 176.425653 222.07616 
L 176.831742 214.528441 
L 177.034787 218.833 
L 177.64392 221.83187 
L 177.846965 221.52019 
L 178.050009 218.875119 
L 178.253054 220.736777 
L 178.456098 216.449066 
L 178.659142 223.29761 
L 178.862187 218.420234 
L 179.065231 221.216933 
L 179.268276 221.739208 
L 179.47132 223.365 
L 179.674365 216.171081 
L 180.080454 224.872859 
L 180.486543 219.32158 
L 180.689587 223.221796 
L 180.892631 224.552755 
L 181.095676 221.309595 
L 181.29872 229.152146 
L 181.501765 220.222926 
L 181.704809 227.913849 
L 181.907854 222.640554 
L 182.313943 223.162829 
L 182.516987 225.833172 
L 182.720032 222.657402 
L 182.923076 221.444376 
L 183.12612 219.464784 
L 183.329165 223.381848 
L 183.532209 220.088145 
L 183.735254 222.522621 
L 183.938298 219.296308 
L 184.141343 223.878852 
L 184.344387 218.453929 
L 184.750476 222.472078 
L 184.953521 219.936517 
L 185.156565 219.515327 
L 185.359609 222.345721 
L 185.562654 221.452799 
L 185.765698 216.289014 
L 185.968743 239.799821 
L 186.171787 203.206864 
L 186.374832 211.81598 
L 186.577876 230.129306 
L 186.780921 214.140947 
L 187.18701 235.705857 
L 187.390054 215.623535 
L 187.593098 220.660963 
L 187.796143 222.07616 
L 187.999187 222.539469 
L 188.202232 221.789751 
L 188.608321 222.867997 
L 188.811365 232.15944 
L 189.01441 221.503342 
L 189.217454 218.024316 
L 189.420499 224.957097 
L 189.826587 222.236212 
L 190.029632 221.301171 
L 190.232676 222.151974 
L 190.435721 220.408249 
L 190.638765 221.924532 
L 190.84181 235.630043 
L 191.044854 219.304732 
L 191.247899 222.606859 
L 191.450943 221.688666 
L 191.653988 221.528613 
L 191.857032 221.76448 
L 192.060076 221.722361 
L 192.263121 221.461223 
L 192.466165 222.194093 
L 192.872254 221.739208 
L 193.481388 221.697089 
L 193.684432 221.553885 
L 193.887476 222.084584 
L 194.090521 221.789751 
L 194.293565 221.697089 
L 194.49661 221.873989 
L 194.699654 221.41068 
L 194.902699 221.975074 
L 195.105743 222.101431 
L 195.308788 222.362569 
L 195.511832 222.202517 
L 195.714877 222.539469 
L 195.917921 222.556316 
L 196.120965 222.25306 
L 196.32401 221.562309 
L 196.527054 219.136256 
L 196.730099 220.694658 
L 196.933143 220.955796 
L 197.136188 222.00877 
L 197.339232 221.890837 
L 197.542277 221.612851 
L 197.745321 221.612851 
L 198.15141 221.393833 
L 198.557499 221.663394 
L 198.760543 221.907684 
L 198.963588 221.966651 
L 199.166632 221.83187 
L 199.369677 221.840294 
L 199.572721 221.553885 
L 199.775766 221.478071 
L 199.97881 221.2759 
L 200.181855 223.306034 
L 200.384899 221.697089 
L 200.587943 221.713937 
L 200.790988 222.14355 
L 200.994032 221.966651 
L 201.400121 222.404688 
L 201.603166 221.671818 
L 201.80621 221.857141 
L 202.212299 221.83187 
L 202.415344 222.025617 
L 202.618388 221.882413 
L 202.821432 222.093008 
L 203.024477 221.579156 
L 203.227521 221.781327 
L 203.63361 221.646547 
L 203.836655 221.688666 
L 204.039699 221.848718 
L 204.242744 221.579156 
L 204.445788 221.815022 
L 204.648833 221.646547 
L 205.054921 221.562309 
L 205.257966 221.360138 
L 205.46101 221.562309 
L 205.867099 221.309595 
L 206.070144 221.958227 
L 206.273188 223.365 
L 206.476233 223.491357 
L 206.679277 223.002777 
L 206.882322 221.798175 
L 207.085366 221.756056 
L 207.694499 222.194093 
L 207.897544 222.160398 
L 208.100588 221.579156 
L 208.303633 221.629699 
L 208.506677 222.118279 
L 208.709722 221.823446 
L 208.912766 222.328874 
L 209.115811 220.475639 
L 209.318855 222.295179 
L 209.521899 221.958227 
L 209.724944 221.873989 
L 209.927988 222.227788 
L 210.537122 222.034041 
L 210.740166 222.202517 
L 210.943211 221.798175 
L 211.3493 222.101431 
L 211.552344 222.135127 
L 211.958433 221.806599 
L 212.161477 222.034041 
L 212.364522 221.730785 
L 212.567566 222.202517 
L 212.770611 220.821015 
L 212.973655 230.457834 
L 213.1767 223.676681 
L 213.379744 226.700822 
L 213.582789 223.466086 
L 213.785833 227.332607 
L 213.988877 216.903951 
L 214.191922 226.945112 
L 214.598011 210.889363 
L 214.801055 221.267476 
L 215.0041 220.020755 
L 215.410189 222.49735 
L 215.613233 221.579156 
L 215.816278 215.884672 
L 216.019322 221.58758 
L 216.222366 221.065305 
L 216.425411 221.225357 
L 216.628455 222.590011 
L 216.8315 221.090576 
L 217.034544 220.458792 
L 217.440633 222.691097 
L 217.643678 222.328874 
L 217.846722 222.724792 
L 218.049767 222.227788 
L 218.252811 222.480502 
L 218.455855 222.345721 
L 218.6589 221.360138 
L 218.861944 221.781327 
L 219.064989 222.969082 
L 219.268033 222.236212 
L 219.674122 221.975074 
L 220.080211 221.907684 
L 220.283256 220.846286 
L 220.4863 221.924532 
L 220.689344 221.478071 
L 220.892389 220.618844 
L 221.298478 221.174814 
L 221.501522 219.978636 
L 221.704567 220.652539 
L 221.907611 218.908814 
L 222.110656 218.538167 
L 222.3137 219.009899 
L 222.922833 227.947544 
L 223.125878 229.042637 
L 223.328922 226.919841 
L 223.531967 222.56474 
L 223.735011 222.168822 
L 223.938056 222.295179 
L 224.1411 222.236212 
L 224.547189 222.514197 
L 224.750233 222.379417 
L 224.953278 222.80903 
L 225.156322 222.421536 
L 225.359367 222.488926 
L 225.562411 223.019625 
L 225.765456 221.924532 
L 225.9685 224.20738 
L 226.171545 221.469647 
L 226.577634 222.219364 
L 226.780678 220.61042 
L 226.983722 221.966651 
L 227.186767 221.461223 
L 227.592856 222.421536 
L 227.7959 219.717498 
L 227.998945 222.750063 
L 228.201989 220.593572 
L 228.608078 222.000346 
L 228.811123 221.402257 
L 229.014167 221.697089 
L 229.217211 222.194093 
L 229.6233 221.873989 
L 229.826345 222.177246 
L 230.232434 221.924532 
L 230.435478 222.370993 
L 230.638523 222.312026 
L 230.841567 221.882413 
L 231.044612 223.373424 
L 231.247656 221.840294 
L 231.4507 221.958227 
L 231.653745 223.221796 
L 231.856789 222.817454 
L 232.059834 223.061744 
L 232.465923 224.055751 
L 232.872012 222.168822 
L 233.278101 224.215803 
L 233.481145 219.068866 
L 233.684189 220.307163 
L 233.887234 217.139817 
L 234.293323 219.035171 
L 234.496367 221.545461 
L 234.699412 221.932956 
L 234.902456 221.638123 
L 235.51159 222.025617 
L 235.714634 221.713937 
L 236.323767 221.604428 
L 236.729856 221.873989 
L 237.135945 221.823446 
L 237.745079 221.848718 
L 237.948123 221.772903 
L 238.557256 221.949803 
L 238.760301 220.9221 
L 239.16639 223.078591 
L 239.369434 222.699521 
L 239.572479 220.05445 
L 239.775523 221.452799 
L 239.978568 225.555187 
L 240.181612 219.540598 
L 240.384656 220.265045 
L 240.587701 222.295179 
L 240.790745 222.480502 
L 240.99379 222.337298 
L 241.196834 222.935387 
L 241.399879 221.2759 
L 241.602923 222.547892 
L 241.805968 221.216933 
L 242.009012 222.177246 
L 242.212057 221.393833 
L 242.415101 222.185669 
L 242.618145 221.208509 
L 242.82119 221.596004 
L 243.024234 220.18923 
L 243.227279 221.494918 
L 243.430323 221.494918 
L 243.633368 220.762048 
L 243.836412 221.772903 
L 244.039457 221.991922 
L 244.242501 222.884844 
L 244.64859 221.747632 
L 244.851634 222.421536 
L 245.257723 222.278331 
L 245.663812 222.429959 
L 245.866857 222.884844 
L 246.069901 222.674249 
L 246.272946 222.834301 
L 246.47599 222.261483 
L 246.679035 222.421536 
L 246.882079 222.07616 
L 247.085123 222.505773 
L 247.288168 222.56474 
L 247.491212 222.74164 
L 247.694257 222.74164 
L 247.897301 222.463654 
L 248.100346 222.674249 
L 248.506435 222.598435 
L 248.709479 222.733216 
L 248.912524 222.101431 
L 249.115568 222.337298 
L 249.318612 222.362569 
L 249.521657 222.581588 
L 249.724701 221.941379 
L 250.13079 222.244636 
L 250.333835 222.952234 
L 250.536879 222.362569 
L 250.739924 223.415543 
L 250.942968 222.480502 
L 251.146012 224.350584 
L 251.349057 230.356749 
L 251.552101 221.882413 
L 251.755146 230.221968 
L 251.95819 221.537037 
L 252.161235 220.416673 
L 252.364279 226.422837 
L 252.567324 223.920971 
L 252.770368 219.742769 
L 252.973413 222.067736 
L 253.176457 221.688666 
L 253.379501 218.23491 
L 253.582546 226.96196 
L 253.78559 224.965521 
L 253.988635 216.002605 
L 254.191679 217.274598 
L 254.394724 228.309767 
L 254.597768 222.80903 
L 254.800813 225.386711 
L 255.003857 217.468345 
L 255.206902 226.186971 
L 255.61299 217.670516 
L 255.816035 223.415543 
L 256.019079 216.777594 
L 256.222124 227.475811 
L 256.425168 223.752495 
L 256.628213 223.103863 
L 256.831257 221.89926 
L 257.034302 217.038732 
L 257.237346 219.009899 
L 257.440391 215.455059 
L 257.643435 221.419104 
L 257.846479 219.658531 
L 258.049524 222.817454 
L 258.252568 220.585149 
L 258.455613 220.340859 
L 258.861702 222.261483 
L 259.064746 221.949803 
L 259.267791 222.135127 
L 259.470835 221.621275 
L 259.876924 222.109855 
L 260.079968 221.916108 
L 260.283013 221.292747 
L 260.486057 221.747632 
L 260.892146 221.907684 
L 261.095191 221.511766 
L 261.298235 221.478071 
L 261.50128 222.581588 
L 261.704324 221.435952 
L 261.907369 221.924532 
L 262.110413 222.017193 
L 262.516502 223.482933 
L 262.719546 220.627268 
L 262.922591 221.579156 
L 263.125635 221.553885 
L 263.32868 222.598435 
L 263.531724 220.711506 
L 263.734769 221.040033 
L 263.937813 222.185669 
L 264.140858 222.278331 
L 264.343902 222.918539 
L 264.546946 221.511766 
L 264.749991 222.261483 
L 264.953035 221.368561 
L 265.15608 223.920971 
L 265.359124 222.472078 
L 265.562169 223.103863 
L 265.765213 222.14355 
L 265.968258 222.413112 
L 266.171302 223.828309 
L 266.374347 218.639252 
L 266.577391 223.255491 
L 266.780435 224.064175 
L 266.98348 221.545461 
L 267.186524 222.480502 
L 267.389569 221.023186 
L 267.592613 225.150844 
L 267.795658 222.884844 
L 267.998702 222.025617 
L 268.201747 222.413112 
L 268.404791 221.975074 
L 268.607836 222.606859 
L 268.81088 221.385409 
L 269.013924 221.991922 
L 269.216969 222.034041 
L 269.420013 221.132695 
L 269.623058 224.232651 
L 269.826102 220.568301 
L 270.029147 222.463654 
L 270.232191 221.41068 
L 270.63828 222.034041 
L 270.841325 221.301171 
L 271.044369 222.429959 
L 271.247413 221.292747 
L 271.450458 222.244636 
L 271.653502 221.242205 
L 271.856547 221.798175 
L 272.262636 219.987059 
L 272.668725 220.534606 
L 272.871769 218.563438 
L 273.074814 221.301171 
L 273.480902 223.002777 
L 273.683947 222.185669 
L 274.090036 227.736949 
L 274.29308 224.729655 
L 274.496125 226.153276 
L 274.699169 225.310897 
L 274.902214 222.514197 
L 275.511347 222.514197 
L 275.714391 222.775335 
L 275.917436 222.716368 
L 276.323525 222.98593 
L 276.729614 222.758487 
L 276.932658 222.261483 
L 277.135703 223.145982 
L 277.338747 223.05332 
L 277.541791 222.429959 
L 277.744836 220.046026 
L 277.94788 222.648978 
L 278.150925 221.857141 
L 278.353969 221.798175 
L 278.557014 222.093008 
L 278.760058 221.815022 
L 279.166147 221.924532 
L 279.369192 222.969082 
L 279.572236 222.354145 
L 279.77528 222.834301 
L 279.978325 222.825878 
L 280.181369 221.983498 
L 280.384414 223.440814 
L 280.587458 222.648978 
L 280.790503 222.893268 
L 280.993547 224.27477 
L 281.196592 226.835603 
L 281.399636 226.254361 
L 281.805725 228.065477 
L 282.211814 215.345549 
L 282.414858 211.386367 
L 282.820947 221.58758 
L 283.227036 222.000346 
L 283.430081 221.924532 
L 283.633125 221.099 
L 283.83617 221.596004 
L 284.242258 220.500911 
L 284.445303 222.059312 
L 284.648347 222.101431 
L 284.851392 225.218235 
L 285.054436 222.084584 
L 285.257481 221.688666 
L 285.460525 223.036472 
L 285.66357 223.322881 
L 285.866614 223.078591 
L 286.069659 223.381848 
L 286.272703 221.848718 
L 286.475747 222.977506 
L 286.678792 221.865565 
L 286.881836 222.236212 
L 287.084881 221.52019 
L 287.287925 222.429959 
L 287.49097 220.964219 
L 287.694014 222.219364 
L 288.100103 220.888405 
L 288.506192 218.058011 
L 288.709236 219.085713 
L 288.912281 221.663394 
L 289.31837 233.027091 
L 289.724459 222.851149 
L 289.927503 222.800606 
L 290.130548 223.078591 
L 290.333592 223.044896 
L 290.536637 223.432391 
L 290.739681 223.499781 
L 290.942725 223.322881 
L 291.14577 222.758487 
L 291.348814 223.196524 
L 291.551859 220.231349 
L 291.754903 222.682673 
L 292.160992 221.629699 
L 292.567081 221.815022 
L 292.770126 222.421536 
L 292.97317 222.177246 
L 293.379259 223.019625 
L 293.582303 223.23022 
L 293.785348 222.244636 
L 293.988392 223.735647 
L 294.191437 223.508205 
L 294.597526 225.327744 
L 295.612748 220.812591 
L 295.815792 212.287713 
L 296.018837 219.81016 
L 296.221881 221.747632 
L 296.62797 222.261483 
L 296.831015 222.168822 
L 297.034059 222.421536 
L 297.237104 220.703082 
L 297.440148 222.210941 
L 297.643192 222.556316 
L 297.846237 225.959529 
L 298.049281 222.952234 
L 298.45537 220.669387 
L 298.658415 222.303602 
L 298.861459 222.488926 
L 299.064504 222.994353 
L 299.267548 221.452799 
L 299.470593 221.115848 
L 299.673637 221.393833 
L 299.876681 223.339729 
L 300.079726 223.204948 
L 300.485815 221.663394 
L 300.688859 212.296136 
L 300.891904 229.817626 
L 301.094948 218.976204 
L 301.297993 222.455231 
L 301.501037 223.162829 
L 301.704082 228.00651 
L 301.907126 223.019625 
L 302.11017 222.640554 
L 302.313215 223.255491 
L 302.719304 223.7188 
L 303.125393 220.888405 
L 303.328437 223.407119 
L 303.531482 222.295179 
L 303.734526 222.421536 
L 304.343659 220.711506 
L 304.546704 222.396264 
L 304.952793 223.078591 
L 305.155837 222.38784 
L 305.358882 223.272339 
L 305.764971 221.612851 
L 305.968015 224.190532 
L 306.171059 222.733216 
L 306.374104 225.268778 
L 306.577148 222.893268 
L 306.780193 224.316889 
L 307.186282 220.340859 
L 307.389326 217.165089 
L 307.795415 221.376985 
L 307.99846 222.07616 
L 308.201504 221.688666 
L 308.404548 222.00877 
L 308.607593 221.663394 
L 308.810637 221.58758 
L 309.013682 221.351714 
L 309.419771 223.5419 
L 309.622815 222.379417 
L 310.028904 222.910116 
L 310.231949 222.766911 
L 310.434993 222.80903 
L 310.638037 222.682673 
L 310.841082 222.766911 
L 311.247171 222.093008 
L 311.65326 222.025617 
L 311.856304 222.404688 
L 312.059349 221.056881 
L 312.262393 221.975074 
L 312.465438 220.231349 
L 313.074571 221.52019 
L 313.277615 221.621275 
L 313.48066 225.42883 
L 313.683704 225.277201 
L 313.886749 226.54077 
L 314.089793 223.836733 
L 314.292838 222.766911 
L 314.495882 222.859573 
L 314.698927 223.263915 
L 314.901971 223.263915 
L 315.105015 223.516629 
L 315.30806 223.314458 
L 315.714149 222.109855 
L 315.917193 222.244636 
L 316.120238 221.621275 
L 316.323282 222.278331 
L 316.526327 221.596004 
L 316.729371 222.63213 
L 316.932416 222.017193 
L 317.13546 222.303602 
L 317.338504 221.975074 
L 317.744593 222.926963 
L 317.947638 222.648978 
L 318.150682 223.179677 
L 318.556771 222.859573 
L 318.759816 224.552755 
L 318.96286 223.263915 
L 319.165905 225.866867 
L 319.368949 224.679112 
L 319.571993 221.975074 
L 319.775038 224.03048 
L 319.978082 217.645245 
L 320.181127 219.506903 
L 320.384171 220.18923 
L 320.587216 219.45636 
L 320.79026 222.101431 
L 320.993305 222.328874 
L 321.196349 222.093008 
L 321.399394 222.050889 
L 321.602438 222.14355 
L 321.805482 221.76448 
L 322.008527 222.210941 
L 322.211571 222.160398 
L 322.414616 223.659833 
L 322.61766 220.78732 
L 322.820705 222.38784 
L 323.226794 223.440814 
L 323.632883 222.884844 
L 323.835927 223.508205 
L 324.038971 222.227788 
L 324.242016 222.042465 
L 324.44506 223.533476 
L 324.648105 222.050889 
L 324.851149 221.966651 
L 325.054194 222.943811 
L 325.257238 220.863134 
L 325.460283 221.798175 
L 325.663327 221.284323 
L 325.866372 220.273468 
L 326.069416 220.660963 
L 326.27246 220.36613 
L 326.475505 221.596004 
L 326.678549 221.975074 
L 326.881594 224.359008 
L 327.084638 222.87642 
L 327.287683 223.390272 
L 327.490727 227.298912 
L 327.693772 226.47338 
L 327.896816 225.159268 
L 328.099861 222.960658 
L 328.912038 222.893268 
L 329.521172 223.247067 
L 329.724216 223.179677 
L 330.33335 222.379417 
L 330.536394 222.531045 
L 330.739438 221.545461 
L 330.942483 222.429959 
L 331.145527 222.25306 
L 331.551616 222.202517 
L 331.754661 222.480502 
L 331.957705 222.093008 
L 332.16075 222.396264 
L 332.566838 222.488926 
L 332.769883 222.32045 
L 333.175972 222.851149 
L 333.379016 222.884844 
L 333.582061 223.112287 
L 333.785105 222.910116 
L 333.98815 223.221796 
L 334.191194 223.019625 
L 334.394239 223.289186 
L 334.597283 223.112287 
L 334.800327 224.401127 
L 335.003372 223.255491 
L 335.206416 225.91741 
L 335.612505 223.651409 
L 335.81555 212.86053 
L 336.018594 225.327744 
L 336.221639 222.952234 
L 336.424683 230.390444 
L 336.627728 215.808858 
L 336.830772 234.914021 
L 337.033816 230.533648 
L 337.439905 213.669215 
L 337.64295 216.398524 
L 337.845994 227.256793 
L 338.049039 217.005037 
L 338.252083 217.544159 
L 338.455128 217.01346 
L 338.861217 222.025617 
L 339.064261 222.269907 
L 339.267305 222.312026 
L 339.47035 222.775335 
L 339.673394 222.261483 
L 339.876439 222.404688 
L 340.079483 222.303602 
L 340.282528 222.421536 
L 340.485572 222.295179 
L 340.688617 221.949803 
L 340.891661 222.598435 
L 341.094706 222.413112 
L 341.29775 222.556316 
L 341.500794 222.168822 
L 341.703839 222.194093 
L 341.906883 222.573164 
L 342.109928 222.101431 
L 342.312972 220.096569 
L 342.516017 223.575595 
L 342.719061 221.65497 
L 342.922106 221.739208 
L 343.12515 220.997915 
L 343.328195 225.445677 
L 343.531239 220.374554 
L 343.734283 224.089447 
L 343.937328 222.783759 
L 344.140372 223.895699 
L 344.343417 222.817454 
L 344.749506 223.129134 
L 344.95255 223.617714 
L 345.155595 226.035343 
L 345.358639 222.14355 
L 345.561684 221.958227 
L 345.967772 222.236212 
L 346.576906 223.289186 
L 346.77995 221.916108 
L 346.982995 223.137558 
L 347.186039 223.314458 
L 347.389084 222.514197 
L 347.592128 222.379417 
L 347.998217 223.12071 
L 348.201261 222.000346 
L 348.404306 222.834301 
L 348.60735 222.547892 
L 348.810395 223.011201 
L 349.013439 221.756056 
L 349.216484 222.910116 
L 349.419528 222.109855 
L 349.622573 222.994353 
L 349.825617 221.596004 
L 350.028662 222.067736 
L 350.231706 223.348153 
L 350.637795 219.624836 
L 350.840839 223.912547 
L 351.043884 219.928093 
L 351.246928 225.664696 
L 351.653017 219.81016 
L 351.856062 224.813893 
L 352.262151 217.956925 
L 352.465195 221.452799 
L 352.668239 221.326442 
L 352.871284 220.837862 
L 353.074328 223.204948 
L 353.277373 221.225357 
L 353.480417 222.514197 
L 353.683462 222.269907 
L 353.886506 217.619974 
L 354.089551 228.621447 
L 354.292595 218.858271 
L 354.49564 220.559877 
L 354.698684 226.886146 
L 354.901728 221.191662 
L 355.104773 222.615283 
L 355.307817 230.061916 
L 355.510862 224.03048 
L 355.713906 221.848718 
L 356.119995 229.034213 
L 356.32304 225.395134 
L 356.526084 224.788621 
L 356.729129 222.480502 
L 356.932173 223.314458 
L 357.135217 222.750063 
L 357.338262 223.280762 
L 357.541306 222.691097 
L 357.744351 222.63213 
L 357.947395 223.263915 
L 358.15044 223.019625 
L 358.353484 222.977506 
L 358.556529 223.263915 
L 358.962618 223.171253 
L 359.165662 222.977506 
L 359.368706 222.438383 
L 359.571751 223.162829 
L 359.774795 223.05332 
L 359.97784 223.937818 
L 360.383929 222.556316 
L 360.586973 223.280762 
L 360.790018 222.716368 
L 360.993062 222.699521 
L 361.602195 221.747632 
L 361.80524 222.707944 
L 362.008284 222.598435 
L 362.211329 223.272339 
L 362.617418 221.688666 
L 362.820462 222.455231 
L 363.023507 222.438383 
L 363.226551 222.750063 
L 363.429595 221.58758 
L 363.63264 223.811461 
L 363.835684 221.983498 
L 364.038729 223.600867 
L 364.241773 221.511766 
L 364.647862 223.693528 
L 364.850907 221.680242 
L 365.053951 225.142421 
L 365.46004 219.549022 
L 365.663084 226.085885 
L 365.866129 225.765781 
L 366.069173 219.894398 
L 366.272218 220.778896 
L 366.678307 223.550324 
L 366.881351 232.89231 
L 367.084396 222.598435 
L 367.28744 224.106294 
L 367.490485 220.576725 
L 367.896573 226.852451 
L 368.099618 228.00651 
L 368.302662 225.226659 
L 368.505707 242.116364 
L 368.708751 216.128962 
L 368.911796 227.635863 
L 369.11484 220.357706 
L 369.317885 204.97586 
L 369.520929 206.660619 
L 369.723974 217.586278 
L 369.927018 222.514197 
L 370.130062 222.261483 
L 370.333107 222.969082 
L 370.536151 222.084584 
L 370.739196 222.295179 
L 370.94224 221.781327 
L 371.145285 221.857141 
L 371.348329 222.488926 
L 371.551374 225.841595 
L 371.754418 223.811461 
L 371.957463 214.334694 
L 372.160507 230.769514 
L 372.363551 214.039861 
L 372.76964 224.771774 
L 372.972685 224.561179 
L 373.175729 222.648978 
L 373.378774 223.440814 
L 373.581818 229.548064 
L 373.581818 229.548064 
" style="fill:none;stroke:#ffa500;stroke-linecap:square;stroke-width:1.5;"/>
   </g>
   <g id="patch_3">
    <path d="M 54 252 
L 54 34.56 
" style="fill:none;stroke:#000000;stroke-linecap:square;stroke-linejoin:miter;stroke-width:0.8;"/>
   </g>
   <g id="patch_4">
    <path d="M 388.8 252 
L 388.8 34.56 
" style="fill:none;stroke:#000000;stroke-linecap:square;stroke-linejoin:miter;stroke-width:0.8;"/>
   </g>
   <g id="patch_5">
    <path d="M 54 252 
L 388.8 252 
" style="fill:none;stroke:#000000;stroke-linecap:square;stroke-linejoin:miter;stroke-width:0.8;"/>
   </g>
   <g id="patch_6">
    <path d="M 54 34.56 
L 388.8 34.56 
" style="fill:none;stroke:#000000;stroke-linecap:square;stroke-linejoin:miter;stroke-width:0.8;"/>
   </g>
   <g id="text_17">
    <!-- SPGD Detectors TP2 Testing Lineup In PicoAmps  -->
    <defs>
     <path d="M 53.515625 70.515625 
L 53.515625 60.890625 
Q 47.90625 63.578125 42.921875 64.890625 
Q 37.9375 66.21875 33.296875 66.21875 
Q 25.25 66.21875 20.875 63.09375 
Q 16.5 59.96875 16.5 54.203125 
Q 16.5 49.359375 19.40625 46.890625 
Q 22.3125 44.4375 30.421875 42.921875 
L 36.375 41.703125 
Q 47.40625 39.59375 52.65625 34.296875 
Q 57.90625 29 57.90625 20.125 
Q 57.90625 9.515625 50.796875 4.046875 
Q 43.703125 -1.421875 29.984375 -1.421875 
Q 24.8125 -1.421875 18.96875 -0.25 
Q 13.140625 0.921875 6.890625 3.21875 
L 6.890625 13.375 
Q 12.890625 10.015625 18.65625 8.296875 
Q 24.421875 6.59375 29.984375 6.59375 
Q 38.421875 6.59375 43.015625 9.90625 
Q 47.609375 13.234375 47.609375 19.390625 
Q 47.609375 24.75 44.3125 27.78125 
Q 41.015625 30.8125 33.5 32.328125 
L 27.484375 33.5 
Q 16.453125 35.6875 11.515625 40.375 
Q 6.59375 45.0625 6.59375 53.421875 
Q 6.59375 63.09375 13.40625 68.65625 
Q 20.21875 74.21875 32.171875 74.21875 
Q 37.3125 74.21875 42.625 73.28125 
Q 47.953125 72.359375 53.515625 70.515625 
" id="DejaVuSans-53"/>
     <path d="M 59.515625 10.40625 
L 59.515625 29.984375 
L 43.40625 29.984375 
L 43.40625 38.09375 
L 69.28125 38.09375 
L 69.28125 6.78125 
Q 63.578125 2.734375 56.6875 0.65625 
Q 49.8125 -1.421875 42 -1.421875 
Q 24.90625 -1.421875 15.25 8.5625 
Q 5.609375 18.5625 5.609375 36.375 
Q 5.609375 54.25 15.25 64.234375 
Q 24.90625 74.21875 42 74.21875 
Q 49.125 74.21875 55.546875 72.453125 
Q 61.96875 70.703125 67.390625 67.28125 
L 67.390625 56.78125 
Q 61.921875 61.421875 55.765625 63.765625 
Q 49.609375 66.109375 42.828125 66.109375 
Q 29.4375 66.109375 22.71875 58.640625 
Q 16.015625 51.171875 16.015625 36.375 
Q 16.015625 21.625 22.71875 14.15625 
Q 29.4375 6.6875 42.828125 6.6875 
Q 48.046875 6.6875 52.140625 7.59375 
Q 56.25 8.5 59.515625 10.40625 
" id="DejaVuSans-47"/>
     <path d="M 19.671875 64.796875 
L 19.671875 8.109375 
L 31.59375 8.109375 
Q 46.6875 8.109375 53.6875 14.9375 
Q 60.6875 21.78125 60.6875 36.53125 
Q 60.6875 51.171875 53.6875 57.984375 
Q 46.6875 64.796875 31.59375 64.796875 
z
M 9.8125 72.90625 
L 30.078125 72.90625 
Q 51.265625 72.90625 61.171875 64.09375 
Q 71.09375 55.28125 71.09375 36.53125 
Q 71.09375 17.671875 61.125 8.828125 
Q 51.171875 0 30.078125 0 
L 9.8125 0 
z
" id="DejaVuSans-44"/>
     <path d="M 18.3125 70.21875 
L 18.3125 54.6875 
L 36.8125 54.6875 
L 36.8125 47.703125 
L 18.3125 47.703125 
L 18.3125 18.015625 
Q 18.3125 11.328125 20.140625 9.421875 
Q 21.96875 7.515625 27.59375 7.515625 
L 36.8125 7.515625 
L 36.8125 0 
L 27.59375 0 
Q 17.1875 0 13.234375 3.875 
Q 9.28125 7.765625 9.28125 18.015625 
L 9.28125 47.703125 
L 2.6875 47.703125 
L 2.6875 54.6875 
L 9.28125 54.6875 
L 9.28125 70.21875 
z
" id="DejaVuSans-74"/>
     <path d="M 41.109375 46.296875 
Q 39.59375 47.171875 37.8125 47.578125 
Q 36.03125 48 33.890625 48 
Q 26.265625 48 22.1875 43.046875 
Q 18.109375 38.09375 18.109375 28.8125 
L 18.109375 0 
L 9.078125 0 
L 9.078125 54.6875 
L 18.109375 54.6875 
L 18.109375 46.1875 
Q 20.953125 51.171875 25.484375 53.578125 
Q 30.03125 56 36.53125 56 
Q 37.453125 56 38.578125 55.875 
Q 39.703125 55.765625 41.0625 55.515625 
z
" id="DejaVuSans-72"/>
     <path d="M -0.296875 72.90625 
L 61.375 72.90625 
L 61.375 64.59375 
L 35.5 64.59375 
L 35.5 0 
L 25.59375 0 
L 25.59375 64.59375 
L -0.296875 64.59375 
z
" id="DejaVuSans-54"/>
     <path d="M 45.40625 27.984375 
Q 45.40625 37.75 41.375 43.109375 
Q 37.359375 48.484375 30.078125 48.484375 
Q 22.859375 48.484375 18.828125 43.109375 
Q 14.796875 37.75 14.796875 27.984375 
Q 14.796875 18.265625 18.828125 12.890625 
Q 22.859375 7.515625 30.078125 7.515625 
Q 37.359375 7.515625 41.375 12.890625 
Q 45.40625 18.265625 45.40625 27.984375 
M 54.390625 6.78125 
Q 54.390625 -7.171875 48.1875 -13.984375 
Q 42 -20.796875 29.203125 -20.796875 
Q 24.46875 -20.796875 20.265625 -20.09375 
Q 16.0625 -19.390625 12.109375 -17.921875 
L 12.109375 -9.1875 
Q 16.0625 -11.328125 19.921875 -12.34375 
Q 23.78125 -13.375 27.78125 -13.375 
Q 36.625 -13.375 41.015625 -8.765625 
Q 45.40625 -4.15625 45.40625 5.171875 
L 45.40625 9.625 
Q 42.625 4.78125 38.28125 2.390625 
Q 33.9375 0 27.875 0 
Q 17.828125 0 11.671875 7.65625 
Q 5.515625 15.328125 5.515625 27.984375 
Q 5.515625 40.671875 11.671875 48.328125 
Q 17.828125 56 27.875 56 
Q 33.9375 56 38.28125 53.609375 
Q 42.625 51.21875 45.40625 46.390625 
L 45.40625 54.6875 
L 54.390625 54.6875 
z
" id="DejaVuSans-67"/>
     <path d="M 9.8125 72.90625 
L 19.671875 72.90625 
L 19.671875 8.296875 
L 55.171875 8.296875 
L 55.171875 0 
L 9.8125 0 
z
" id="DejaVuSans-4c"/>
     <path d="M 8.5 21.578125 
L 8.5 54.6875 
L 17.484375 54.6875 
L 17.484375 21.921875 
Q 17.484375 14.15625 20.5 10.265625 
Q 23.53125 6.390625 29.59375 6.390625 
Q 36.859375 6.390625 41.078125 11.03125 
Q 45.3125 15.671875 45.3125 23.6875 
L 45.3125 54.6875 
L 54.296875 54.6875 
L 54.296875 0 
L 45.3125 0 
L 45.3125 8.40625 
Q 42.046875 3.421875 37.71875 1 
Q 33.40625 -1.421875 27.6875 -1.421875 
Q 18.265625 -1.421875 13.375 4.4375 
Q 8.5 10.296875 8.5 21.578125 
M 31.109375 56 
z
" id="DejaVuSans-75"/>
     <path d="M 9.8125 72.90625 
L 19.671875 72.90625 
L 19.671875 0 
L 9.8125 0 
z
" id="DejaVuSans-49"/>
     <path d="M 34.1875 63.1875 
L 20.796875 26.90625 
L 47.609375 26.90625 
z
M 28.609375 72.90625 
L 39.796875 72.90625 
L 67.578125 0 
L 57.328125 0 
L 50.6875 18.703125 
L 17.828125 18.703125 
L 11.1875 0 
L 0.78125 0 
z
" id="DejaVuSans-41"/>
    </defs>
    <g transform="translate(74.063438 28.56)scale(0.12 -0.12)">
     <use xlink:href="#DejaVuSans-53"/>
     <use x="63.476562" xlink:href="#DejaVuSans-50"/>
     <use x="123.779297" xlink:href="#DejaVuSans-47"/>
     <use x="201.269531" xlink:href="#DejaVuSans-44"/>
     <use x="278.271484" xlink:href="#DejaVuSans-20"/>
     <use x="310.058594" xlink:href="#DejaVuSans-44"/>
     <use x="387.060547" xlink:href="#DejaVuSans-65"/>
     <use x="448.583984" xlink:href="#DejaVuSans-74"/>
     <use x="487.792969" xlink:href="#DejaVuSans-65"/>
     <use x="549.316406" xlink:href="#DejaVuSans-63"/>
     <use x="604.296875" xlink:href="#DejaVuSans-74"/>
     <use x="643.505859" xlink:href="#DejaVuSans-6f"/>
     <use x="704.6875" xlink:href="#DejaVuSans-72"/>
     <use x="745.800781" xlink:href="#DejaVuSans-73"/>
     <use x="797.900391" xlink:href="#DejaVuSans-20"/>
     <use x="829.6875" xlink:href="#DejaVuSans-54"/>
     <use x="890.771484" xlink:href="#DejaVuSans-50"/>
     <use x="951.074219" xlink:href="#DejaVuSans-32"/>
     <use x="1014.697266" xlink:href="#DejaVuSans-20"/>
     <use x="1046.484375" xlink:href="#DejaVuSans-54"/>
     <use x="1107.302734" xlink:href="#DejaVuSans-65"/>
     <use x="1168.826172" xlink:href="#DejaVuSans-73"/>
     <use x="1220.925781" xlink:href="#DejaVuSans-74"/>
     <use x="1260.134766" xlink:href="#DejaVuSans-69"/>
     <use x="1287.917969" xlink:href="#DejaVuSans-6e"/>
     <use x="1351.296875" xlink:href="#DejaVuSans-67"/>
     <use x="1414.773438" xlink:href="#DejaVuSans-20"/>
     <use x="1446.560547" xlink:href="#DejaVuSans-4c"/>
     <use x="1502.273438" xlink:href="#DejaVuSans-69"/>
     <use x="1530.056641" xlink:href="#DejaVuSans-6e"/>
     <use x="1593.435547" xlink:href="#DejaVuSans-65"/>
     <use x="1654.958984" xlink:href="#DejaVuSans-75"/>
     <use x="1718.337891" xlink:href="#DejaVuSans-70"/>
     <use x="1781.814453" xlink:href="#DejaVuSans-20"/>
     <use x="1813.601562" xlink:href="#DejaVuSans-49"/>
     <use x="1843.09375" xlink:href="#DejaVuSans-6e"/>
     <use x="1906.472656" xlink:href="#DejaVuSans-20"/>
     <use x="1938.259766" xlink:href="#DejaVuSans-50"/>
     <use x="1998.53125" xlink:href="#DejaVuSans-69"/>
     <use x="2026.314453" xlink:href="#DejaVuSans-63"/>
     <use x="2081.294922" xlink:href="#DejaVuSans-6f"/>
     <use x="2142.476562" xlink:href="#DejaVuSans-41"/>
     <use x="2210.884766" xlink:href="#DejaVuSans-6d"/>
     <use x="2308.296875" xlink:href="#DejaVuSans-70"/>
     <use x="2371.773438" xlink:href="#DejaVuSans-73"/>
     <use x="2423.873047" xlink:href="#DejaVuSans-20"/>
    </g>
   </g>
   <g id="legend_1">
    <g id="patch_7">
     <path d="M 320.117188 159.458125 
L 381.8 159.458125 
Q 383.8 159.458125 383.8 157.458125 
L 383.8 129.101875 
Q 383.8 127.101875 381.8 127.101875 
L 320.117188 127.101875 
Q 318.117188 127.101875 318.117188 129.101875 
L 318.117188 157.458125 
Q 318.117188 159.458125 320.117188 159.458125 
z
" style="fill:#ffffff;opacity:0.8;stroke:#cccccc;stroke-linejoin:miter;"/>
    </g>
    <g id="line2d_16">
     <path d="M 322.117188 135.200312 
L 342.117188 135.200312 
" style="fill:none;stroke:#ff0000;stroke-linecap:square;stroke-width:1.5;"/>
    </g>
    <g id="line2d_17"/>
    <g id="text_18">
     <!-- CEA 1 -->
     <defs>
      <path d="M 64.40625 67.28125 
L 64.40625 56.890625 
Q 59.421875 61.53125 53.78125 63.8125 
Q 48.140625 66.109375 41.796875 66.109375 
Q 29.296875 66.109375 22.65625 58.46875 
Q 16.015625 50.828125 16.015625 36.375 
Q 16.015625 21.96875 22.65625 14.328125 
Q 29.296875 6.6875 41.796875 6.6875 
Q 48.140625 6.6875 53.78125 8.984375 
Q 59.421875 11.28125 64.40625 15.921875 
L 64.40625 5.609375 
Q 59.234375 2.09375 53.4375 0.328125 
Q 47.65625 -1.421875 41.21875 -1.421875 
Q 24.65625 -1.421875 15.125 8.703125 
Q 5.609375 18.84375 5.609375 36.375 
Q 5.609375 53.953125 15.125 64.078125 
Q 24.65625 74.21875 41.21875 74.21875 
Q 47.75 74.21875 53.53125 72.484375 
Q 59.328125 70.75 64.40625 67.28125 
" id="DejaVuSans-43"/>
      <path d="M 9.8125 72.90625 
L 55.90625 72.90625 
L 55.90625 64.59375 
L 19.671875 64.59375 
L 19.671875 43.015625 
L 54.390625 43.015625 
L 54.390625 34.71875 
L 19.671875 34.71875 
L 19.671875 8.296875 
L 56.78125 8.296875 
L 56.78125 0 
L 9.8125 0 
z
" id="DejaVuSans-45"/>
     </defs>
     <g transform="translate(350.117188 138.700312)scale(0.1 -0.1)">
      <use xlink:href="#DejaVuSans-43"/>
      <use x="69.824219" xlink:href="#DejaVuSans-45"/>
      <use x="133.007812" xlink:href="#DejaVuSans-41"/>
      <use x="201.416016" xlink:href="#DejaVuSans-20"/>
      <use x="233.203125" xlink:href="#DejaVuSans-31"/>
     </g>
    </g>
    <g id="line2d_18">
     <path d="M 322.117188 149.878437 
L 342.117188 149.878437 
" style="fill:none;stroke:#ffa500;stroke-linecap:square;stroke-width:1.5;"/>
    </g>
    <g id="line2d_19"/>
    <g id="text_19">
     <!-- CEA 2 -->
     <g transform="translate(350.117188 153.378437)scale(0.1 -0.1)">
      <use xlink:href="#DejaVuSans-43"/>
      <use x="69.824219" xlink:href="#DejaVuSans-45"/>
      <use x="133.007812" xlink:href="#DejaVuSans-41"/>
      <use x="201.416016" xlink:href="#DejaVuSans-20"/>
      <use x="233.203125" xlink:href="#DejaVuSans-32"/>
     </g>
    </g>
   </g>
  </g>
 </g>
 <defs>
  <clipPath id="p0547ea46d5">
   <rect height="217.44" width="334.8" x="54" y="34.56"/>
  </clipPath>
 </defs>
</svg>
