<?xml version="1.0" encoding="utf-8" standalone="no"?>
<!DOCTYPE svg PUBLIC "-//W3C//DTD SVG 1.1//EN"
  "http://www.w3.org/Graphics/SVG/1.1/DTD/svg11.dtd">
<!-- Created with matplotlib (http://matplotlib.org/) -->
<svg height="288pt" version="1.1" viewBox="0 0 432 288" width="432pt" xmlns="http://www.w3.org/2000/svg" xmlns:xlink="http://www.w3.org/1999/xlink">
 <defs>
  <style type="text/css">
*{stroke-linecap:butt;stroke-linejoin:round;}
  </style>
 </defs>
 <g id="figure_1">
  <g id="patch_1">
   <path d="M 0 288 
L 432 288 
L 432 0 
L 0 0 
z
" style="fill:#ffffff;"/>
  </g>
  <g id="axes_1">
   <g id="patch_2">
    <path d="M 54 252 
L 388.8 252 
L 388.8 34.56 
L 54 34.56 
z
" style="fill:#ffffff;"/>
   </g>
   <g id="matplotlib.axis_1">
    <g id="xtick_1">
     <g id="line2d_1">
      <path clip-path="url(#p5063b466b7)" d="M 69.218182 252 
L 69.218182 34.56 
" style="fill:none;stroke:#b0b0b0;stroke-linecap:square;stroke-width:0.8;"/>
     </g>
     <g id="line2d_2">
      <defs>
       <path d="M 0 0 
L 0 3.5 
" id="m2b3bcc6a31" style="stroke:#000000;stroke-width:0.8;"/>
      </defs>
      <g>
       <use style="stroke:#000000;stroke-width:0.8;" x="69.218182" xlink:href="#m2b3bcc6a31" y="252"/>
      </g>
     </g>
     <g id="text_1">
      <!-- 0 -->
      <defs>
       <path d="M 31.78125 66.40625 
Q 24.171875 66.40625 20.328125 58.90625 
Q 16.5 51.421875 16.5 36.375 
Q 16.5 21.390625 20.328125 13.890625 
Q 24.171875 6.390625 31.78125 6.390625 
Q 39.453125 6.390625 43.28125 13.890625 
Q 47.125 21.390625 47.125 36.375 
Q 47.125 51.421875 43.28125 58.90625 
Q 39.453125 66.40625 31.78125 66.40625 
M 31.78125 74.21875 
Q 44.046875 74.21875 50.515625 64.515625 
Q 56.984375 54.828125 56.984375 36.375 
Q 56.984375 17.96875 50.515625 8.265625 
Q 44.046875 -1.421875 31.78125 -1.421875 
Q 19.53125 -1.421875 13.0625 8.265625 
Q 6.59375 17.96875 6.59375 36.375 
Q 6.59375 54.828125 13.0625 64.515625 
Q 19.53125 74.21875 31.78125 74.21875 
" id="DejaVuSans-30"/>
      </defs>
      <g transform="translate(66.036932 266.598437)scale(0.1 -0.1)">
       <use xlink:href="#DejaVuSans-30"/>
      </g>
     </g>
    </g>
    <g id="xtick_2">
     <g id="line2d_3">
      <path clip-path="url(#p5063b466b7)" d="M 119.962369 252 
L 119.962369 34.56 
" style="fill:none;stroke:#b0b0b0;stroke-linecap:square;stroke-width:0.8;"/>
     </g>
     <g id="line2d_4">
      <g>
       <use style="stroke:#000000;stroke-width:0.8;" x="119.962369" xlink:href="#m2b3bcc6a31" y="252"/>
      </g>
     </g>
     <g id="text_2">
      <!-- 500 -->
      <defs>
       <path d="M 10.796875 72.90625 
L 49.515625 72.90625 
L 49.515625 64.59375 
L 19.828125 64.59375 
L 19.828125 46.734375 
Q 21.96875 47.46875 24.109375 47.828125 
Q 26.265625 48.1875 28.421875 48.1875 
Q 40.625 48.1875 47.75 41.5 
Q 54.890625 34.8125 54.890625 23.390625 
Q 54.890625 11.625 47.5625 5.09375 
Q 40.234375 -1.421875 26.90625 -1.421875 
Q 22.3125 -1.421875 17.546875 -0.640625 
Q 12.796875 0.140625 7.71875 1.703125 
L 7.71875 11.625 
Q 12.109375 9.234375 16.796875 8.0625 
Q 21.484375 6.890625 26.703125 6.890625 
Q 35.15625 6.890625 40.078125 11.328125 
Q 45.015625 15.765625 45.015625 23.390625 
Q 45.015625 31 40.078125 35.4375 
Q 35.15625 39.890625 26.703125 39.890625 
Q 22.75 39.890625 18.8125 39.015625 
Q 14.890625 38.140625 10.796875 36.28125 
z
" id="DejaVuSans-35"/>
      </defs>
      <g transform="translate(110.418619 266.598437)scale(0.1 -0.1)">
       <use xlink:href="#DejaVuSans-35"/>
       <use x="63.623047" xlink:href="#DejaVuSans-30"/>
       <use x="127.246094" xlink:href="#DejaVuSans-30"/>
      </g>
     </g>
    </g>
    <g id="xtick_3">
     <g id="line2d_5">
      <path clip-path="url(#p5063b466b7)" d="M 170.706557 252 
L 170.706557 34.56 
" style="fill:none;stroke:#b0b0b0;stroke-linecap:square;stroke-width:0.8;"/>
     </g>
     <g id="line2d_6">
      <g>
       <use style="stroke:#000000;stroke-width:0.8;" x="170.706557" xlink:href="#m2b3bcc6a31" y="252"/>
      </g>
     </g>
     <g id="text_3">
      <!-- 1000 -->
      <defs>
       <path d="M 12.40625 8.296875 
L 28.515625 8.296875 
L 28.515625 63.921875 
L 10.984375 60.40625 
L 10.984375 69.390625 
L 28.421875 72.90625 
L 38.28125 72.90625 
L 38.28125 8.296875 
L 54.390625 8.296875 
L 54.390625 0 
L 12.40625 0 
z
" id="DejaVuSans-31"/>
      </defs>
      <g transform="translate(157.981557 266.598437)scale(0.1 -0.1)">
       <use xlink:href="#DejaVuSans-31"/>
       <use x="63.623047" xlink:href="#DejaVuSans-30"/>
       <use x="127.246094" xlink:href="#DejaVuSans-30"/>
       <use x="190.869141" xlink:href="#DejaVuSans-30"/>
      </g>
     </g>
    </g>
    <g id="xtick_4">
     <g id="line2d_7">
      <path clip-path="url(#p5063b466b7)" d="M 221.450744 252 
L 221.450744 34.56 
" style="fill:none;stroke:#b0b0b0;stroke-linecap:square;stroke-width:0.8;"/>
     </g>
     <g id="line2d_8">
      <g>
       <use style="stroke:#000000;stroke-width:0.8;" x="221.450744" xlink:href="#m2b3bcc6a31" y="252"/>
      </g>
     </g>
     <g id="text_4">
      <!-- 1500 -->
      <g transform="translate(208.725744 266.598437)scale(0.1 -0.1)">
       <use xlink:href="#DejaVuSans-31"/>
       <use x="63.623047" xlink:href="#DejaVuSans-35"/>
       <use x="127.246094" xlink:href="#DejaVuSans-30"/>
       <use x="190.869141" xlink:href="#DejaVuSans-30"/>
      </g>
     </g>
    </g>
    <g id="xtick_5">
     <g id="line2d_9">
      <path clip-path="url(#p5063b466b7)" d="M 272.194932 252 
L 272.194932 34.56 
" style="fill:none;stroke:#b0b0b0;stroke-linecap:square;stroke-width:0.8;"/>
     </g>
     <g id="line2d_10">
      <g>
       <use style="stroke:#000000;stroke-width:0.8;" x="272.194932" xlink:href="#m2b3bcc6a31" y="252"/>
      </g>
     </g>
     <g id="text_5">
      <!-- 2000 -->
      <defs>
       <path d="M 19.1875 8.296875 
L 53.609375 8.296875 
L 53.609375 0 
L 7.328125 0 
L 7.328125 8.296875 
Q 12.9375 14.109375 22.625 23.890625 
Q 32.328125 33.6875 34.8125 36.53125 
Q 39.546875 41.84375 41.421875 45.53125 
Q 43.3125 49.21875 43.3125 52.78125 
Q 43.3125 58.59375 39.234375 62.25 
Q 35.15625 65.921875 28.609375 65.921875 
Q 23.96875 65.921875 18.8125 64.3125 
Q 13.671875 62.703125 7.8125 59.421875 
L 7.8125 69.390625 
Q 13.765625 71.78125 18.9375 73 
Q 24.125 74.21875 28.421875 74.21875 
Q 39.75 74.21875 46.484375 68.546875 
Q 53.21875 62.890625 53.21875 53.421875 
Q 53.21875 48.921875 51.53125 44.890625 
Q 49.859375 40.875 45.40625 35.40625 
Q 44.1875 33.984375 37.640625 27.21875 
Q 31.109375 20.453125 19.1875 8.296875 
" id="DejaVuSans-32"/>
      </defs>
      <g transform="translate(259.469932 266.598437)scale(0.1 -0.1)">
       <use xlink:href="#DejaVuSans-32"/>
       <use x="63.623047" xlink:href="#DejaVuSans-30"/>
       <use x="127.246094" xlink:href="#DejaVuSans-30"/>
       <use x="190.869141" xlink:href="#DejaVuSans-30"/>
      </g>
     </g>
    </g>
    <g id="xtick_6">
     <g id="line2d_11">
      <path clip-path="url(#p5063b466b7)" d="M 322.939119 252 
L 322.939119 34.56 
" style="fill:none;stroke:#b0b0b0;stroke-linecap:square;stroke-width:0.8;"/>
     </g>
     <g id="line2d_12">
      <g>
       <use style="stroke:#000000;stroke-width:0.8;" x="322.939119" xlink:href="#m2b3bcc6a31" y="252"/>
      </g>
     </g>
     <g id="text_6">
      <!-- 2500 -->
      <g transform="translate(310.214119 266.598437)scale(0.1 -0.1)">
       <use xlink:href="#DejaVuSans-32"/>
       <use x="63.623047" xlink:href="#DejaVuSans-35"/>
       <use x="127.246094" xlink:href="#DejaVuSans-30"/>
       <use x="190.869141" xlink:href="#DejaVuSans-30"/>
      </g>
     </g>
    </g>
    <g id="xtick_7">
     <g id="line2d_13">
      <path clip-path="url(#p5063b466b7)" d="M 373.683307 252 
L 373.683307 34.56 
" style="fill:none;stroke:#b0b0b0;stroke-linecap:square;stroke-width:0.8;"/>
     </g>
     <g id="line2d_14">
      <g>
       <use style="stroke:#000000;stroke-width:0.8;" x="373.683307" xlink:href="#m2b3bcc6a31" y="252"/>
      </g>
     </g>
     <g id="text_7">
      <!-- 3000 -->
      <defs>
       <path d="M 40.578125 39.3125 
Q 47.65625 37.796875 51.625 33 
Q 55.609375 28.21875 55.609375 21.1875 
Q 55.609375 10.40625 48.1875 4.484375 
Q 40.765625 -1.421875 27.09375 -1.421875 
Q 22.515625 -1.421875 17.65625 -0.515625 
Q 12.796875 0.390625 7.625 2.203125 
L 7.625 11.71875 
Q 11.71875 9.328125 16.59375 8.109375 
Q 21.484375 6.890625 26.8125 6.890625 
Q 36.078125 6.890625 40.9375 10.546875 
Q 45.796875 14.203125 45.796875 21.1875 
Q 45.796875 27.640625 41.28125 31.265625 
Q 36.765625 34.90625 28.71875 34.90625 
L 20.21875 34.90625 
L 20.21875 43.015625 
L 29.109375 43.015625 
Q 36.375 43.015625 40.234375 45.921875 
Q 44.09375 48.828125 44.09375 54.296875 
Q 44.09375 59.90625 40.109375 62.90625 
Q 36.140625 65.921875 28.71875 65.921875 
Q 24.65625 65.921875 20.015625 65.03125 
Q 15.375 64.15625 9.8125 62.3125 
L 9.8125 71.09375 
Q 15.4375 72.65625 20.34375 73.4375 
Q 25.25 74.21875 29.59375 74.21875 
Q 40.828125 74.21875 47.359375 69.109375 
Q 53.90625 64.015625 53.90625 55.328125 
Q 53.90625 49.265625 50.4375 45.09375 
Q 46.96875 40.921875 40.578125 39.3125 
" id="DejaVuSans-33"/>
      </defs>
      <g transform="translate(360.958307 266.598437)scale(0.1 -0.1)">
       <use xlink:href="#DejaVuSans-33"/>
       <use x="63.623047" xlink:href="#DejaVuSans-30"/>
       <use x="127.246094" xlink:href="#DejaVuSans-30"/>
       <use x="190.869141" xlink:href="#DejaVuSans-30"/>
      </g>
     </g>
    </g>
    <g id="text_8">
     <!-- seconds -->
     <defs>
      <path d="M 44.28125 53.078125 
L 44.28125 44.578125 
Q 40.484375 46.53125 36.375 47.5 
Q 32.28125 48.484375 27.875 48.484375 
Q 21.1875 48.484375 17.84375 46.4375 
Q 14.5 44.390625 14.5 40.28125 
Q 14.5 37.15625 16.890625 35.375 
Q 19.28125 33.59375 26.515625 31.984375 
L 29.59375 31.296875 
Q 39.15625 29.25 43.1875 25.515625 
Q 47.21875 21.78125 47.21875 15.09375 
Q 47.21875 7.46875 41.1875 3.015625 
Q 35.15625 -1.421875 24.609375 -1.421875 
Q 20.21875 -1.421875 15.453125 -0.5625 
Q 10.6875 0.296875 5.421875 2 
L 5.421875 11.28125 
Q 10.40625 8.6875 15.234375 7.390625 
Q 20.0625 6.109375 24.8125 6.109375 
Q 31.15625 6.109375 34.5625 8.28125 
Q 37.984375 10.453125 37.984375 14.40625 
Q 37.984375 18.0625 35.515625 20.015625 
Q 33.0625 21.96875 24.703125 23.78125 
L 21.578125 24.515625 
Q 13.234375 26.265625 9.515625 29.90625 
Q 5.8125 33.546875 5.8125 39.890625 
Q 5.8125 47.609375 11.28125 51.796875 
Q 16.75 56 26.8125 56 
Q 31.78125 56 36.171875 55.265625 
Q 40.578125 54.546875 44.28125 53.078125 
" id="DejaVuSans-73"/>
      <path d="M 56.203125 29.59375 
L 56.203125 25.203125 
L 14.890625 25.203125 
Q 15.484375 15.921875 20.484375 11.0625 
Q 25.484375 6.203125 34.421875 6.203125 
Q 39.59375 6.203125 44.453125 7.46875 
Q 49.3125 8.734375 54.109375 11.28125 
L 54.109375 2.78125 
Q 49.265625 0.734375 44.1875 -0.34375 
Q 39.109375 -1.421875 33.890625 -1.421875 
Q 20.796875 -1.421875 13.15625 6.1875 
Q 5.515625 13.8125 5.515625 26.8125 
Q 5.515625 40.234375 12.765625 48.109375 
Q 20.015625 56 32.328125 56 
Q 43.359375 56 49.78125 48.890625 
Q 56.203125 41.796875 56.203125 29.59375 
M 47.21875 32.234375 
Q 47.125 39.59375 43.09375 43.984375 
Q 39.0625 48.390625 32.421875 48.390625 
Q 24.90625 48.390625 20.390625 44.140625 
Q 15.875 39.890625 15.1875 32.171875 
z
" id="DejaVuSans-65"/>
      <path d="M 48.78125 52.59375 
L 48.78125 44.1875 
Q 44.96875 46.296875 41.140625 47.34375 
Q 37.3125 48.390625 33.40625 48.390625 
Q 24.65625 48.390625 19.8125 42.84375 
Q 14.984375 37.3125 14.984375 27.296875 
Q 14.984375 17.28125 19.8125 11.734375 
Q 24.65625 6.203125 33.40625 6.203125 
Q 37.3125 6.203125 41.140625 7.25 
Q 44.96875 8.296875 48.78125 10.40625 
L 48.78125 2.09375 
Q 45.015625 0.34375 40.984375 -0.53125 
Q 36.96875 -1.421875 32.421875 -1.421875 
Q 20.0625 -1.421875 12.78125 6.34375 
Q 5.515625 14.109375 5.515625 27.296875 
Q 5.515625 40.671875 12.859375 48.328125 
Q 20.21875 56 33.015625 56 
Q 37.15625 56 41.109375 55.140625 
Q 45.0625 54.296875 48.78125 52.59375 
" id="DejaVuSans-63"/>
      <path d="M 30.609375 48.390625 
Q 23.390625 48.390625 19.1875 42.75 
Q 14.984375 37.109375 14.984375 27.296875 
Q 14.984375 17.484375 19.15625 11.84375 
Q 23.34375 6.203125 30.609375 6.203125 
Q 37.796875 6.203125 41.984375 11.859375 
Q 46.1875 17.53125 46.1875 27.296875 
Q 46.1875 37.015625 41.984375 42.703125 
Q 37.796875 48.390625 30.609375 48.390625 
M 30.609375 56 
Q 42.328125 56 49.015625 48.375 
Q 55.71875 40.765625 55.71875 27.296875 
Q 55.71875 13.875 49.015625 6.21875 
Q 42.328125 -1.421875 30.609375 -1.421875 
Q 18.84375 -1.421875 12.171875 6.21875 
Q 5.515625 13.875 5.515625 27.296875 
Q 5.515625 40.765625 12.171875 48.375 
Q 18.84375 56 30.609375 56 
" id="DejaVuSans-6f"/>
      <path d="M 54.890625 33.015625 
L 54.890625 0 
L 45.90625 0 
L 45.90625 32.71875 
Q 45.90625 40.484375 42.875 44.328125 
Q 39.84375 48.1875 33.796875 48.1875 
Q 26.515625 48.1875 22.3125 43.546875 
Q 18.109375 38.921875 18.109375 30.90625 
L 18.109375 0 
L 9.078125 0 
L 9.078125 54.6875 
L 18.109375 54.6875 
L 18.109375 46.1875 
Q 21.34375 51.125 25.703125 53.5625 
Q 30.078125 56 35.796875 56 
Q 45.21875 56 50.046875 50.171875 
Q 54.890625 44.34375 54.890625 33.015625 
" id="DejaVuSans-6e"/>
      <path d="M 45.40625 46.390625 
L 45.40625 75.984375 
L 54.390625 75.984375 
L 54.390625 0 
L 45.40625 0 
L 45.40625 8.203125 
Q 42.578125 3.328125 38.25 0.953125 
Q 33.9375 -1.421875 27.875 -1.421875 
Q 17.96875 -1.421875 11.734375 6.484375 
Q 5.515625 14.40625 5.515625 27.296875 
Q 5.515625 40.1875 11.734375 48.09375 
Q 17.96875 56 27.875 56 
Q 33.9375 56 38.25 53.625 
Q 42.578125 51.265625 45.40625 46.390625 
M 14.796875 27.296875 
Q 14.796875 17.390625 18.875 11.75 
Q 22.953125 6.109375 30.078125 6.109375 
Q 37.203125 6.109375 41.296875 11.75 
Q 45.40625 17.390625 45.40625 27.296875 
Q 45.40625 37.203125 41.296875 42.84375 
Q 37.203125 48.484375 30.078125 48.484375 
Q 22.953125 48.484375 18.875 42.84375 
Q 14.796875 37.203125 14.796875 27.296875 
" id="DejaVuSans-64"/>
     </defs>
     <g transform="translate(200.9625 280.276563)scale(0.1 -0.1)">
      <use xlink:href="#DejaVuSans-73"/>
      <use x="52.099609" xlink:href="#DejaVuSans-65"/>
      <use x="113.623047" xlink:href="#DejaVuSans-63"/>
      <use x="168.603516" xlink:href="#DejaVuSans-6f"/>
      <use x="229.785156" xlink:href="#DejaVuSans-6e"/>
      <use x="293.164062" xlink:href="#DejaVuSans-64"/>
      <use x="356.640625" xlink:href="#DejaVuSans-73"/>
     </g>
    </g>
   </g>
   <g id="matplotlib.axis_2">
    <g id="ytick_1">
     <g id="line2d_15">
      <path clip-path="url(#p5063b466b7)" d="M 54 246.826285 
L 388.8 246.826285 
" style="fill:none;stroke:#b0b0b0;stroke-linecap:square;stroke-width:0.8;"/>
     </g>
     <g id="line2d_16">
      <defs>
       <path d="M 0 0 
L -3.5 0 
" id="m59dd8d7523" style="stroke:#000000;stroke-width:0.8;"/>
      </defs>
      <g>
       <use style="stroke:#000000;stroke-width:0.8;" x="54" xlink:href="#m59dd8d7523" y="246.826285"/>
      </g>
     </g>
     <g id="text_9">
      <!-- 0 -->
      <g transform="translate(40.6375 250.625504)scale(0.1 -0.1)">
       <use xlink:href="#DejaVuSans-30"/>
      </g>
     </g>
    </g>
    <g id="ytick_2">
     <g id="line2d_17">
      <path clip-path="url(#p5063b466b7)" d="M 54 211.893074 
L 388.8 211.893074 
" style="fill:none;stroke:#b0b0b0;stroke-linecap:square;stroke-width:0.8;"/>
     </g>
     <g id="line2d_18">
      <g>
       <use style="stroke:#000000;stroke-width:0.8;" x="54" xlink:href="#m59dd8d7523" y="211.893074"/>
      </g>
     </g>
     <g id="text_10">
      <!-- 10 -->
      <g transform="translate(34.275 215.692293)scale(0.1 -0.1)">
       <use xlink:href="#DejaVuSans-31"/>
       <use x="63.623047" xlink:href="#DejaVuSans-30"/>
      </g>
     </g>
    </g>
    <g id="ytick_3">
     <g id="line2d_19">
      <path clip-path="url(#p5063b466b7)" d="M 54 176.959863 
L 388.8 176.959863 
" style="fill:none;stroke:#b0b0b0;stroke-linecap:square;stroke-width:0.8;"/>
     </g>
     <g id="line2d_20">
      <g>
       <use style="stroke:#000000;stroke-width:0.8;" x="54" xlink:href="#m59dd8d7523" y="176.959863"/>
      </g>
     </g>
     <g id="text_11">
      <!-- 20 -->
      <g transform="translate(34.275 180.759082)scale(0.1 -0.1)">
       <use xlink:href="#DejaVuSans-32"/>
       <use x="63.623047" xlink:href="#DejaVuSans-30"/>
      </g>
     </g>
    </g>
    <g id="ytick_4">
     <g id="line2d_21">
      <path clip-path="url(#p5063b466b7)" d="M 54 142.026652 
L 388.8 142.026652 
" style="fill:none;stroke:#b0b0b0;stroke-linecap:square;stroke-width:0.8;"/>
     </g>
     <g id="line2d_22">
      <g>
       <use style="stroke:#000000;stroke-width:0.8;" x="54" xlink:href="#m59dd8d7523" y="142.026652"/>
      </g>
     </g>
     <g id="text_12">
      <!-- 30 -->
      <g transform="translate(34.275 145.825871)scale(0.1 -0.1)">
       <use xlink:href="#DejaVuSans-33"/>
       <use x="63.623047" xlink:href="#DejaVuSans-30"/>
      </g>
     </g>
    </g>
    <g id="ytick_5">
     <g id="line2d_23">
      <path clip-path="url(#p5063b466b7)" d="M 54 107.093441 
L 388.8 107.093441 
" style="fill:none;stroke:#b0b0b0;stroke-linecap:square;stroke-width:0.8;"/>
     </g>
     <g id="line2d_24">
      <g>
       <use style="stroke:#000000;stroke-width:0.8;" x="54" xlink:href="#m59dd8d7523" y="107.093441"/>
      </g>
     </g>
     <g id="text_13">
      <!-- 40 -->
      <defs>
       <path d="M 37.796875 64.3125 
L 12.890625 25.390625 
L 37.796875 25.390625 
z
M 35.203125 72.90625 
L 47.609375 72.90625 
L 47.609375 25.390625 
L 58.015625 25.390625 
L 58.015625 17.1875 
L 47.609375 17.1875 
L 47.609375 0 
L 37.796875 0 
L 37.796875 17.1875 
L 4.890625 17.1875 
L 4.890625 26.703125 
z
" id="DejaVuSans-34"/>
      </defs>
      <g transform="translate(34.275 110.892659)scale(0.1 -0.1)">
       <use xlink:href="#DejaVuSans-34"/>
       <use x="63.623047" xlink:href="#DejaVuSans-30"/>
      </g>
     </g>
    </g>
    <g id="ytick_6">
     <g id="line2d_25">
      <path clip-path="url(#p5063b466b7)" d="M 54 72.16023 
L 388.8 72.16023 
" style="fill:none;stroke:#b0b0b0;stroke-linecap:square;stroke-width:0.8;"/>
     </g>
     <g id="line2d_26">
      <g>
       <use style="stroke:#000000;stroke-width:0.8;" x="54" xlink:href="#m59dd8d7523" y="72.16023"/>
      </g>
     </g>
     <g id="text_14">
      <!-- 50 -->
      <g transform="translate(34.275 75.959448)scale(0.1 -0.1)">
       <use xlink:href="#DejaVuSans-35"/>
       <use x="63.623047" xlink:href="#DejaVuSans-30"/>
      </g>
     </g>
    </g>
    <g id="ytick_7">
     <g id="line2d_27">
      <path clip-path="url(#p5063b466b7)" d="M 54 37.227018 
L 388.8 37.227018 
" style="fill:none;stroke:#b0b0b0;stroke-linecap:square;stroke-width:0.8;"/>
     </g>
     <g id="line2d_28">
      <g>
       <use style="stroke:#000000;stroke-width:0.8;" x="54" xlink:href="#m59dd8d7523" y="37.227018"/>
      </g>
     </g>
     <g id="text_15">
      <!-- 60 -->
      <defs>
       <path d="M 33.015625 40.375 
Q 26.375 40.375 22.484375 35.828125 
Q 18.609375 31.296875 18.609375 23.390625 
Q 18.609375 15.53125 22.484375 10.953125 
Q 26.375 6.390625 33.015625 6.390625 
Q 39.65625 6.390625 43.53125 10.953125 
Q 47.40625 15.53125 47.40625 23.390625 
Q 47.40625 31.296875 43.53125 35.828125 
Q 39.65625 40.375 33.015625 40.375 
M 52.59375 71.296875 
L 52.59375 62.3125 
Q 48.875 64.0625 45.09375 64.984375 
Q 41.3125 65.921875 37.59375 65.921875 
Q 27.828125 65.921875 22.671875 59.328125 
Q 17.53125 52.734375 16.796875 39.40625 
Q 19.671875 43.65625 24.015625 45.921875 
Q 28.375 48.1875 33.59375 48.1875 
Q 44.578125 48.1875 50.953125 41.515625 
Q 57.328125 34.859375 57.328125 23.390625 
Q 57.328125 12.15625 50.6875 5.359375 
Q 44.046875 -1.421875 33.015625 -1.421875 
Q 20.359375 -1.421875 13.671875 8.265625 
Q 6.984375 17.96875 6.984375 36.375 
Q 6.984375 53.65625 15.1875 63.9375 
Q 23.390625 74.21875 37.203125 74.21875 
Q 40.921875 74.21875 44.703125 73.484375 
Q 48.484375 72.75 52.59375 71.296875 
" id="DejaVuSans-36"/>
      </defs>
      <g transform="translate(34.275 41.026237)scale(0.1 -0.1)">
       <use xlink:href="#DejaVuSans-36"/>
       <use x="63.623047" xlink:href="#DejaVuSans-30"/>
      </g>
     </g>
    </g>
    <g id="text_16">
     <!-- Kilowatts  -->
     <defs>
      <path d="M 9.8125 72.90625 
L 19.671875 72.90625 
L 19.671875 42.09375 
L 52.390625 72.90625 
L 65.09375 72.90625 
L 28.90625 38.921875 
L 67.671875 0 
L 54.6875 0 
L 19.671875 35.109375 
L 19.671875 0 
L 9.8125 0 
z
" id="DejaVuSans-4b"/>
      <path d="M 9.421875 54.6875 
L 18.40625 54.6875 
L 18.40625 0 
L 9.421875 0 
z
M 9.421875 75.984375 
L 18.40625 75.984375 
L 18.40625 64.59375 
L 9.421875 64.59375 
z
" id="DejaVuSans-69"/>
      <path d="M 9.421875 75.984375 
L 18.40625 75.984375 
L 18.40625 0 
L 9.421875 0 
z
" id="DejaVuSans-6c"/>
      <path d="M 4.203125 54.6875 
L 13.1875 54.6875 
L 24.421875 12.015625 
L 35.59375 54.6875 
L 46.1875 54.6875 
L 57.421875 12.015625 
L 68.609375 54.6875 
L 77.59375 54.6875 
L 63.28125 0 
L 52.6875 0 
L 40.921875 44.828125 
L 29.109375 0 
L 18.5 0 
z
" id="DejaVuSans-77"/>
      <path d="M 34.28125 27.484375 
Q 23.390625 27.484375 19.1875 25 
Q 14.984375 22.515625 14.984375 16.5 
Q 14.984375 11.71875 18.140625 8.90625 
Q 21.296875 6.109375 26.703125 6.109375 
Q 34.1875 6.109375 38.703125 11.40625 
Q 43.21875 16.703125 43.21875 25.484375 
L 43.21875 27.484375 
z
M 52.203125 31.203125 
L 52.203125 0 
L 43.21875 0 
L 43.21875 8.296875 
Q 40.140625 3.328125 35.546875 0.953125 
Q 30.953125 -1.421875 24.3125 -1.421875 
Q 15.921875 -1.421875 10.953125 3.296875 
Q 6 8.015625 6 15.921875 
Q 6 25.140625 12.171875 29.828125 
Q 18.359375 34.515625 30.609375 34.515625 
L 43.21875 34.515625 
L 43.21875 35.40625 
Q 43.21875 41.609375 39.140625 45 
Q 35.0625 48.390625 27.6875 48.390625 
Q 23 48.390625 18.546875 47.265625 
Q 14.109375 46.140625 10.015625 43.890625 
L 10.015625 52.203125 
Q 14.9375 54.109375 19.578125 55.046875 
Q 24.21875 56 28.609375 56 
Q 40.484375 56 46.34375 49.84375 
Q 52.203125 43.703125 52.203125 31.203125 
" id="DejaVuSans-61"/>
      <path d="M 18.3125 70.21875 
L 18.3125 54.6875 
L 36.8125 54.6875 
L 36.8125 47.703125 
L 18.3125 47.703125 
L 18.3125 18.015625 
Q 18.3125 11.328125 20.140625 9.421875 
Q 21.96875 7.515625 27.59375 7.515625 
L 36.8125 7.515625 
L 36.8125 0 
L 27.59375 0 
Q 17.1875 0 13.234375 3.875 
Q 9.28125 7.765625 9.28125 18.015625 
L 9.28125 47.703125 
L 2.6875 47.703125 
L 2.6875 54.6875 
L 9.28125 54.6875 
L 9.28125 70.21875 
z
" id="DejaVuSans-74"/>
      <path id="DejaVuSans-20"/>
     </defs>
     <g transform="translate(28.195312 167.663594)rotate(-90)scale(0.1 -0.1)">
      <use xlink:href="#DejaVuSans-4b"/>
      <use x="65.576172" xlink:href="#DejaVuSans-69"/>
      <use x="93.359375" xlink:href="#DejaVuSans-6c"/>
      <use x="121.142578" xlink:href="#DejaVuSans-6f"/>
      <use x="182.324219" xlink:href="#DejaVuSans-77"/>
      <use x="264.111328" xlink:href="#DejaVuSans-61"/>
      <use x="325.390625" xlink:href="#DejaVuSans-74"/>
      <use x="364.599609" xlink:href="#DejaVuSans-74"/>
      <use x="403.808594" xlink:href="#DejaVuSans-73"/>
      <use x="455.908203" xlink:href="#DejaVuSans-20"/>
     </g>
    </g>
   </g>
   <g id="line2d_29">
    <path clip-path="url(#p5063b466b7)" d="M 69.218182 241.633636 
L 69.827112 241.604673 
L 71.146461 241.247455 
L 71.450926 242.116364 
L 71.755391 241.672255 
L 72.059856 241.5564 
L 73.480694 241.508127 
L 73.68367 241.372964 
L 73.988135 241.421236 
L 77.337252 241.411582 
L 77.540229 241.228145 
L 77.641717 241.430891 
L 77.844694 240.793691 
L 78.352136 241.2378 
L 79.265531 241.160564 
L 79.671484 241.141255 
L 81.80274 241.035055 
L 82.817624 240.890236 
L 83.020601 240.9192 
L 84.136973 240.774382 
L 84.33995 240.793691 
L 86.572694 240.571636 
L 86.775671 240.426818 
L 86.877159 240.581291 
L 87.080136 240.475091 
L 87.486089 240.320618 
L 87.587578 240.6006 
L 87.689066 240.339927 
L 87.790554 240.639218 
L 87.892043 240.417164 
L 87.993531 240.4944 
L 88.09502 240.851618 
L 88.297996 240.561982 
L 88.399485 240.716455 
L 88.805438 240.378545 
L 89.414368 240.310964 
L 91.444136 240.030982 
L 94.082834 239.731691 
L 94.28581 239.683418 
L 94.387299 239.693073 
L 94.488787 239.557909 
L 94.590276 239.635145 
L 94.691764 239.5386 
L 94.793252 239.6448 
L 94.894741 239.5386 
L 94.996229 239.615836 
L 95.300694 239.480673 
L 95.503671 239.499982 
L 95.605159 239.422745 
L 95.706648 239.490327 
L 95.909624 239.374473 
L 96.011113 239.451709 
L 96.112601 239.287582 
L 96.315578 239.297236 
L 96.518555 239.306891 
L 96.721531 239.258618 
L 97.025997 239.22 
L 97.127485 239.123455 
L 97.228973 239.268273 
L 97.43195 239.094491 
L 97.939392 239.084836 
L 98.04088 238.949673 
L 98.142369 239.075182 
L 98.345345 238.959327 
L 102.810834 238.003527 
L 103.724229 237.762164 
L 104.33316 237.617345 
L 104.536136 237.569073 
L 105.348043 237.337364 
L 105.55102 237.347018 
L 105.753997 237.279436 
L 106.565904 237.067036 
L 107.276322 236.4588 
L 107.479299 236.651891 
L 107.682276 236.642236 
L 109.204602 236.149854 
L 109.30609 236.304327 
L 109.509067 236.091927 
L 110.726927 235.638164 
L 111.741811 235.223018 
L 111.944788 235.020273 
L 112.046276 234.991309 
L 112.350741 235.638164 
L 112.655206 234.972 
L 113.771578 234.5472 
L 113.974555 234.363764 
L 114.177532 234.325145 
L 115.090927 233.987236 
L 115.598369 233.832764 
L 115.902834 233.678291 
L 116.207299 233.678291 
L 116.511765 233.234182 
L 116.714741 232.674218 
L 117.019206 233.089364 
L 117.526648 232.799727 
L 118.03409 232.558364 
L 118.135579 232.7418 
L 118.338555 232.471473 
L 120.165346 231.303273 
L 120.469811 231.0426 
L 120.5713 230.975018 
L 120.875765 231.583254 
L 121.078741 230.849509 
L 121.890648 230.376436 
L 122.804044 229.710273 
L 123.412974 229.382018 
L 124.123393 229.015145 
L 124.224881 229.034454 
L 124.529346 228.628963 
L 124.732323 227.711782 
L 124.9353 228.291054 
L 126.457625 227.315945 
L 126.965067 226.862182 
L 127.168044 226.727018 
L 127.472509 226.466345 
L 127.776974 226.292563 
L 127.979951 226.099473 
L 128.081439 226.080163 
L 128.385904 225.713291 
L 129.096323 225.143673 
L 129.197811 225.027818 
L 129.2993 225.249873 
L 129.400788 225.008509 
L 129.502277 225.259527 
L 129.705253 225.134018 
L 129.90823 224.612673 
L 131.227579 223.5024 
L 131.532044 223.280345 
L 131.633532 222.990709 
L 131.735021 223.038982 
L 134.475207 220.577072 
L 134.678184 220.2102 
L 134.88116 219.553691 
L 135.084137 219.746782 
L 138.0273 215.662909 
L 138.940695 214.253345 
L 139.143672 214.446436 
L 139.245161 214.388509 
L 139.651114 213.345818 
L 139.955579 212.959636 
L 140.665998 211.897636 
L 140.868975 211.482491 
L 142.797254 208.354418 
L 143.00023 207.987545 
L 144.015114 206.269036 
L 144.218091 205.709072 
L 144.421068 205.0236 
L 144.522556 205.11049 
L 145.131486 204.125727 
L 146.14637 202.233436 
L 146.450835 201.702436 
L 147.161254 200.341145 
L 147.871672 198.748145 
L 148.683579 196.662763 
L 148.785068 196.527599 
L 148.988044 196.653109 
L 149.089533 196.633799 
L 149.393998 195.369054 
L 149.799951 194.316709 
L 152.743114 186.573763 
L 153.250556 184.845599 
L 154.26544 181.900963 
L 154.366928 181.756145 
L 154.975859 179.94109 
L 155.381812 178.56049 
L 155.686277 177.150927 
L 156.498184 174.264217 
L 156.701161 173.298763 
L 156.904138 172.265726 
L 157.005626 172.285036 
L 157.614556 169.359708 
L 158.933905 164.088326 
L 159.948789 160.18789 
L 161.369626 154.626872 
L 161.674091 152.879399 
L 162.080045 151.595344 
L 162.38451 149.732017 
L 167.35744 127.198308 
L 167.458929 127.401053 
L 167.661905 127.005217 
L 168.473812 124.263326 
L 168.676789 123.490962 
L 168.981254 124.205399 
L 169.89465 122.332417 
L 170.402092 120.98078 
L 171.518464 117.862362 
L 172.736324 114.087435 
L 174.360138 108.816053 
L 176.795859 100.851053 
L 180.043487 90.298635 
L 182.073255 83.839744 
L 182.580697 82.632925 
L 182.885162 81.590235 
L 182.98665 81.619198 
L 183.189627 82.574998 
L 183.798557 81.802635 
L 184.813441 80.30618 
L 185.320883 79.388998 
L 185.422371 79.282798 
L 185.726836 78.645598 
L 186.031301 78.346307 
L 186.437255 77.516016 
L 188.162557 74.194853 
L 189.075953 71.945343 
L 189.380418 71.288834 
L 190.49679 68.566253 
L 190.902743 67.919398 
L 191.410185 66.92498 
L 191.71465 66.577416 
L 192.526557 65.370598 
L 193.135488 64.714089 
L 193.947395 63.710016 
L 194.353348 63.217634 
L 194.657813 63.043852 
L 194.962278 62.715598 
L 195.266743 62.435616 
L 195.774185 62.001162 
L 195.977162 61.981852 
L 196.687581 61.518434 
L 196.890557 61.460507 
L 197.600976 60.968125 
L 197.905441 60.832962 
L 198.108418 60.755725 
L 198.311395 60.726762 
L 199.22479 59.954398 
L 199.529255 60.350234 
L 199.83372 60.253689 
L 200.138185 60.456434 
L 200.747116 60.301962 
L 201.051581 60.272998 
L 201.761999 60.041289 
L 202.066465 59.993016 
L 202.269441 59.80958 
L 202.37093 59.925434 
L 202.776883 59.635798 
L 202.878372 59.664762 
L 203.081348 59.49098 
L 203.385813 59.394434 
L 204.603674 58.737925 
L 204.705162 58.979289 
L 204.806651 58.670343 
L 204.908139 58.757234 
L 205.009627 58.631725 
L 205.111116 58.766889 
L 205.618558 58.409671 
L 205.821534 58.284162 
L 206.227488 58.033143 
L 206.430465 58.081416 
L 206.73493 58.206925 
L 207.039395 58.168307 
L 208.155767 57.637307 
L 208.663209 57.415252 
L 209.170651 57.231816 
L 209.373628 57.26078 
L 210.084046 57.038725 
L 210.895953 56.700816 
L 211.809349 56.256707 
L 212.113814 56.816671 
L 212.621256 56.893907 
L 214.346558 56.807016 
L 214.448046 56.884252 
L 214.651023 56.720125 
L 215.056977 56.749089 
L 215.564418 56.739434 
L 216.579302 56.864943 
L 216.985256 56.855289 
L 217.188232 56.864943 
L 217.391209 56.797362 
L 217.695674 56.382216 
L 217.898651 56.691162 
L 218.101628 56.633234 
L 218.304605 56.700816 
L 218.406093 56.575307 
L 218.507581 56.652543 
L 218.60907 56.565652 
L 218.710558 56.633234 
L 219.319488 56.073271 
L 221.450744 54.779561 
L 223.379023 53.958925 
L 224.19093 53.910652 
L 224.292419 53.96858 
L 224.596884 56.469107 
L 224.901349 58.419325 
L 225.510279 60.002671 
L 225.611768 60.137834 
L 225.814744 59.27858 
L 226.017721 59.317198 
L 226.423675 58.564143 
L 226.72814 58.564143 
L 226.931116 58.477252 
L 227.235582 58.496562 
L 227.540047 58.332434 
L 227.743023 57.540762 
L 228.250465 56.922871 
L 228.453442 55.764325 
L 228.757907 55.262289 
L 229.163861 54.518889 
L 229.366837 53.794798 
L 229.874279 53.54378 
L 230.280233 53.621016 
L 230.381721 53.350689 
L 230.48321 53.534125 
L 230.787675 52.983816 
L 231.295117 52.684525 
L 232.107024 52.771416 
L 232.512977 52.974161 
L 232.715954 53.041743 
L 232.918931 53.070707 
L 233.223396 53.43758 
L 233.426372 53.601707 
L 233.527861 53.514816 
L 233.832326 53.717561 
L 234.238279 53.75618 
L 234.948698 54.045816 
L 235.050186 53.900998 
L 235.354652 52.626598 
L 235.45614 52.597634 
L 235.659117 52.703834 
L 235.760605 52.48178 
L 235.963582 51.912161 
L 236.369535 50.985325 
L 236.471024 51.033598 
L 236.674 50.67638 
L 237.181442 51.004634 
L 237.587396 50.975671 
L 237.688884 51.31358 
L 237.790373 51.178416 
L 237.993349 51.574252 
L 238.196326 51.796307 
L 239.008233 52.317652 
L 239.414187 52.887271 
L 239.82014 53.186561 
L 240.023117 53.466543 
L 240.226094 53.572743 
L 240.42907 53.736871 
L 240.632047 53.727216 
L 240.835024 53.823761 
L 241.038001 53.852725 
L 241.443954 53.75618 
L 242.052884 53.920307 
L 242.154373 53.775489 
L 242.357349 53.814107 
L 242.763303 53.910652 
L 243.067768 54.045816 
L 243.169256 53.958925 
L 243.57521 54.71198 
L 243.778187 54.296834 
L 244.082652 53.843071 
L 244.894559 53.466543 
L 245.300512 53.167252 
L 245.503489 53.032089 
L 245.909443 52.829343 
L 246.619861 52.472125 
L 246.924326 52.221107 
L 247.025815 52.336961 
L 247.228791 52.134216 
L 247.431768 51.931471 
L 247.634745 51.574252 
L 248.142187 50.03918 
L 248.243675 50.386743 
L 248.54814 50.232271 
L 248.649629 50.232271 
L 248.852605 50.35778 
L 249.055582 50.406052 
L 249.563024 50.792234 
L 249.664512 50.985325 
L 249.867489 50.801889 
L 250.273443 50.78258 
L 250.780885 50.647416 
L 251.69428 50.492943 
L 251.998745 50.792234 
L 252.506187 51.245998 
L 253.115117 51.52598 
L 253.825536 51.796307 
L 253.927024 51.989398 
L 254.535954 51.545289 
L 254.637443 51.709416 
L 254.738931 51.477707 
L 254.84042 51.979743 
L 255.043396 51.535634 
L 255.44935 51.381161 
L 255.753815 51.448743 
L 257.580606 51.516325 
L 257.783582 51.390816 
L 257.986559 51.439089 
L 259.711862 51.361852 
L 260.320792 51.381161 
L 260.42228 51.342543 
L 260.625257 51.091525 
L 260.726745 51.062561 
L 260.929722 50.879125 
L 261.132699 50.898434 
L 261.335676 50.78258 
L 262.655024 50.560525 
L 262.756513 50.348125 
L 262.858001 50.396398 
L 262.95949 50.116416 
L 263.060978 50.444671 
L 263.263955 50.319161 
L 263.466931 50.425361 
L 263.56842 50.377089 
L 263.771397 50.46398 
L 264.583304 50.222616 
L 264.78628 50.135725 
L 265.090745 50.35778 
L 265.293722 50.435016 
L 266.613071 49.952289 
L 267.222001 50.396398 
L 267.830932 50.35778 
L 268.642839 50.203307 
L 269.353257 49.875052 
L 269.454746 49.971598 
L 269.759211 49.768852 
L 269.860699 49.807471 
L 269.962187 49.652998 
L 270.469629 49.981252 
L 270.774094 50.377089 
L 270.875583 50.454325 
L 271.07856 50.087452 
L 272.093443 50.290198 
L 272.29642 50.319161 
L 272.397908 50.155034 
L 272.600885 50.35778 
L 273.006839 50.46398 
L 273.209815 50.444671 
L 273.615769 50.03918 
L 273.818746 50.019871 
L 274.021722 49.961943 
L 274.326188 50.068143 
L 274.529164 49.961943 
L 275.036606 50.203307 
L 275.138095 50.077798 
L 275.341071 50.164689 
L 275.44256 49.701271 
L 275.645536 49.971598 
L 275.848513 50.299852 
L 276.05149 50.25158 
L 276.558932 49.894361 
L 276.761909 49.846089 
L 276.863397 50.029525 
L 277.066374 49.904016 
L 277.472327 49.942634 
L 278.791676 49.875052 
L 278.994653 50.367434 
L 279.096141 50.222616 
L 279.299118 49.817125 
L 279.603583 49.836434 
L 280.009537 49.797816 
L 280.111025 49.575761 
L 280.314002 49.701271 
L 280.618467 49.672307 
L 281.633351 49.643343 
L 281.836327 49.691616 
L 282.039304 49.237852 
L 282.140792 48.76478 
L 282.343769 49.363361 
L 282.648234 49.18958 
L 283.460141 49.073725 
L 283.663118 48.899943 
L 284.272048 49.247507 
L 284.982467 49.006143 
L 285.185444 49.633689 
L 285.286932 49.517834 
L 285.489909 49.131652 
L 285.794374 49.121998 
L 286.707769 48.726161 
L 287.012234 48.899943 
L 287.215211 49.054416 
L 288.128607 49.179925 
L 288.331583 49.276471 
L 288.636048 48.55238 
L 288.839025 49.006143 
L 289.244979 48.996489 
L 289.447955 49.015798 
L 289.549444 48.996489 
L 289.650932 49.276471 
L 289.853909 49.093034 
L 290.056886 49.141307 
L 290.361351 49.150961 
L 290.665816 49.112343 
L 290.868793 49.131652 
L 290.970281 49.035107 
L 291.173258 49.141307 
L 291.579211 49.121998 
L 291.6807 49.324743 
L 291.782188 49.807471 
L 292.188142 49.179925 
L 292.797072 49.102689 
L 292.89856 48.842016 
L 293.101537 48.957871 
L 293.710467 49.035107 
L 293.811956 48.967525 
L 293.913444 49.093034 
L 294.116421 49.025452 
L 294.420886 49.257161 
L 294.522374 49.121998 
L 294.623862 49.179925 
L 294.826839 48.484798 
L 295.029816 49.044761 
L 295.334281 49.044761 
L 295.537258 49.044761 
L 295.740235 48.87098 
L 296.247676 48.726161 
L 296.856607 48.697198 
L 297.059583 48.697198 
L 297.161072 48.842016 
L 297.26256 48.562034 
L 297.364049 48.851671 
L 297.567025 48.735816 
L 297.668514 48.793743 
L 297.972979 48.629616 
L 298.480421 49.440598 
L 298.784886 48.735816 
L 299.393816 48.706852 
L 302.235491 47.876561 
L 302.844421 48.475143 
L 303.047398 48.44618 
L 303.757816 48.697198 
L 303.859305 48.542725 
L 304.062281 48.735816 
L 304.366746 48.368943 
L 304.468235 48.475143 
L 304.671212 48.204816 
L 305.077165 48.253089 
L 306.802467 47.664161 
L 307.005444 47.615889 
L 307.512886 47.886216 
L 307.715863 47.818634 
L 307.91884 47.953798 
L 308.121816 47.828289 
L 308.629258 47.770361 
L 309.1367 47.664161 
L 309.542654 47.528998 
L 309.847119 47.500034 
L 310.151584 47.741398 
L 310.659026 47.693125 
L 311.369444 47.654507 
L 313.399212 47.731743 
L 313.602189 47.722089 
L 313.805165 47.741398 
L 313.906654 47.828289 
L 314.008142 47.712434 
L 314.211119 47.80898 
L 314.617072 47.828289 
L 314.718561 47.944143 
L 314.921537 47.857252 
L 315.631956 47.944143 
L 316.139398 47.567616 
L 316.240886 47.693125 
L 316.443863 47.567616 
L 316.748328 47.68347 
L 316.849817 47.403489 
L 317.052793 47.693125 
L 318.575119 47.78967 
L 319.082561 47.780016 
L 319.285538 47.615889 
L 320.604886 47.644852 
L 320.807863 47.49038 
L 321.112328 47.461416 
L 321.924235 47.567616 
L 323.345073 47.615889 
L 323.751026 47.287634 
L 324.562933 47.017307 
L 324.76591 46.872489 
L 324.968887 46.862834 
L 325.37484 46.679398 
L 325.882282 46.969034 
L 328.216515 46.891798 
L 328.318003 46.824216 
L 328.419491 46.891798 
L 328.52098 46.689052 
L 328.622468 46.843525 
L 328.723956 46.476652 
L 328.825445 46.553889 
L 329.028422 46.341489 
L 329.231398 46.631125 
L 329.637352 46.679398 
L 330.144794 46.679398 
L 330.956701 46.814561 
L 331.261166 46.814561 
L 331.464143 46.978689 
L 331.667119 46.882143 
L 332.783491 46.882143 
L 333.392422 46.83387 
L 333.595398 46.83387 
L 334.001352 46.766289 
L 334.305817 46.756634 
L 334.610282 46.602161 
L 335.422189 46.312525 
L 335.625166 46.21598 
L 335.828143 46.244943 
L 336.132608 46.495961 
L 336.234096 46.62147 
L 336.335585 46.544234 
L 336.538561 46.553889 
L 337.046003 46.51527 
L 337.147492 46.42838 
L 337.350468 46.53458 
L 337.756422 46.660089 
L 337.85791 46.177361 
L 337.959399 46.457343 
L 338.568329 46.177361 
L 338.771306 46.293216 
L 339.075771 46.524925 
L 341.308515 46.418725 
L 341.714468 46.351143 
L 341.815957 46.273907 
L 342.120422 46.399416 
L 343.744236 46.351143 
L 344.556143 46.438034 
L 344.75912 46.466998 
L 345.469538 46.911107 
L 345.571027 46.804907 
L 345.672515 46.988343 
L 345.97698 45.98427 
L 346.078469 46.273907 
L 346.281445 46.312525 
L 346.687399 46.225634 
L 347.194841 46.21598 
L 347.296329 46.457343 
L 347.499306 46.312525 
L 348.108236 46.312525 
L 348.412701 46.264252 
L 349.021631 46.225634 
L 349.326097 46.013234 
L 349.529073 46.505616 
L 349.630562 46.920761 
L 349.833538 46.21598 
L 350.442469 46.10978 
L 350.746934 46.022889 
L 350.848422 45.849107 
L 351.051399 45.89738 
L 352.269259 45.588434 
L 352.776701 46.00358 
L 352.979678 46.167707 
L 353.284143 45.520852 
L 353.48712 46.022889 
L 353.791585 45.964961 
L 354.603492 46.051852 
L 354.70498 46.187016 
L 354.907957 46.129089 
L 355.516887 46.254598 
L 356.024329 46.273907 
L 356.227306 46.100125 
L 356.430283 45.781525 
L 356.531771 45.810489 
L 356.63326 45.656016 
L 356.836236 46.19667 
L 356.937725 46.737325 
L 357.140701 46.022889 
L 357.952608 46.244943 
L 358.663027 45.964961 
L 358.967492 45.907034 
L 359.271957 45.935998 
L 359.373446 45.87807 
L 359.474934 45.993925 
L 359.576422 45.839452 
L 359.880888 46.100125 
L 360.083864 45.829798 
L 360.286841 45.327761 
L 360.591306 45.820143 
L 360.99726 45.858761 
L 361.707678 46.187016 
L 362.316609 45.79118 
L 362.621074 45.733252 
L 363.230004 45.627052 
L 363.331492 45.752561 
L 363.534469 45.55947 
L 363.635957 45.607743 
L 363.737446 45.530507 
L 363.838934 45.607743 
L 363.940423 45.482234 
L 364.244888 46.138743 
L 364.549353 45.598089 
L 366.071678 45.540161 
L 366.477632 45.627052 
L 367.391027 45.849107 
L 367.492516 45.964961 
L 367.594004 45.762216 
L 367.796981 45.955307 
L 367.999958 45.945652 
L 368.304423 45.694634 
L 368.507399 45.607743 
L 368.608888 45.04778 
L 368.811865 45.173289 
L 369.014841 45.385689 
L 369.319306 45.269834 
L 370.131213 44.960889 
L 370.232702 45.173289 
L 370.435679 44.931925 
L 370.94312 45.192598 
L 371.755027 45.211907 
L 372.160981 45.192598 
L 372.262469 45.144325 
L 372.363958 45.231216 
L 372.465446 45.067089 
L 372.668423 45.221561 
L 372.972888 45.77187 
L 373.175865 45.395343 
L 373.48033 45.385689 
L 373.581818 45.404998 
L 373.581818 45.404998 
" style="fill:none;stroke:#ff0000;stroke-linecap:square;stroke-width:0.3;"/>
   </g>
   <g id="line2d_30">
    <path clip-path="url(#p5063b466b7)" d="M 69.218182 240.793223 
L 69.522647 240.813392 
L 69.827112 240.7773 
L 71.044973 240.578794 
L 71.146461 240.337826 
L 71.450926 241.446066 
L 71.85688 240.7635 
L 72.161345 240.716793 
L 72.770275 240.711485 
L 73.480694 240.676455 
L 73.68367 240.528902 
L 73.886647 240.600024 
L 77.337252 240.589409 
L 77.540229 240.328272 
L 77.641717 240.602147 
L 77.844694 239.747614 
L 78.352136 240.405764 
L 79.062554 240.304918 
L 82.005717 240.226365 
L 82.208694 240.204073 
L 82.817624 240.09155 
L 82.919112 240.162673 
L 83.223578 240.080935 
L 83.629531 240.083058 
L 84.136973 239.958859 
L 84.33995 239.985397 
L 86.065252 239.852705 
L 86.268229 239.76566 
L 86.775671 239.588384 
L 86.877159 239.781583 
L 87.080136 239.670122 
L 87.486089 239.4196 
L 87.587578 239.803875 
L 87.689066 239.525753 
L 87.790554 239.88349 
L 87.892043 239.622353 
L 87.993531 239.700906 
L 88.09502 240.173288 
L 88.196508 239.785829 
L 88.297996 239.819798 
L 88.399485 240.024674 
L 88.70395 239.64146 
L 89.008415 239.534246 
L 89.414368 239.516199 
L 90.327764 239.415354 
L 90.936694 239.345293 
L 91.038182 239.328308 
L 91.139671 239.163771 
L 91.444136 239.234893 
L 93.778369 238.94191 
L 93.981345 238.929172 
L 94.387299 238.91431 
L 94.488787 238.792234 
L 94.590276 238.860172 
L 94.691764 238.758265 
L 94.793252 238.91431 
L 94.894741 238.756142 
L 94.996229 238.849557 
L 95.199206 238.781619 
L 95.402183 238.738096 
L 95.706648 238.729604 
L 95.909624 238.603281 
L 96.011113 238.725358 
L 96.112601 238.482267 
L 96.21409 238.583112 
L 96.417066 238.568251 
L 97.127485 238.376113 
L 97.228973 238.559758 
L 97.43195 238.363375 
L 98.04088 238.208391 
L 98.142369 238.359129 
L 98.345345 238.173361 
L 98.649811 238.172299 
L 98.954276 238.082069 
L 99.258741 238.086315 
L 99.563206 237.956808 
L 99.867671 237.926023 
L 104.33316 236.944106 
L 104.536136 236.87086 
L 104.637625 236.833706 
L 104.739113 236.936675 
L 104.94209 236.744537 
L 105.043578 236.789122 
L 105.145067 236.693584 
L 105.246555 236.773199 
L 105.348043 236.629892 
L 105.55102 236.720122 
L 105.652508 236.560892 
L 105.855485 236.624584 
L 106.261439 236.624584 
L 106.464415 236.409093 
L 106.667392 236.325232 
L 106.768881 236.287017 
L 106.870369 235.980234 
L 107.073346 236.052418 
L 107.174834 235.588528 
L 107.682276 236.005711 
L 108.189718 235.805081 
L 109.204602 235.47176 
L 109.30609 235.664959 
L 109.509067 235.448406 
L 110.929904 234.939932 
L 111.031392 234.829532 
L 111.132881 234.924009 
L 111.335857 234.672426 
L 111.437346 234.798748 
L 111.640323 234.542919 
L 111.741811 234.567334 
L 111.944788 234.372012 
L 112.046276 234.318935 
L 112.350741 235.248838 
L 112.655206 234.367766 
L 113.06116 234.278597 
L 113.771578 233.939968 
L 113.974555 233.743584 
L 114.177532 233.731908 
L 114.481997 233.587539 
L 115.192416 233.406017 
L 115.395392 233.258464 
L 115.598369 233.289248 
L 115.902834 233.162926 
L 116.410276 232.983527 
L 116.714741 231.910317 
L 116.917718 232.533437 
L 117.628137 232.196931 
L 118.03409 231.99524 
L 118.135579 232.207547 
L 118.338555 231.931548 
L 119.150462 231.432628 
L 119.556416 231.220321 
L 120.368323 230.392326 
L 120.469811 230.487864 
L 120.5713 230.413556 
L 120.875765 231.284013 
L 121.078741 230.36048 
L 122.093625 229.744791 
L 122.296602 229.511253 
L 123.108509 229.08664 
L 123.514462 228.842488 
L 123.920416 228.662027 
L 124.123393 228.619566 
L 124.224881 228.651412 
L 124.529346 228.173722 
L 124.732323 226.963575 
L 124.9353 227.812801 
L 125.950183 227.112189 
L 126.051672 227.260804 
L 126.254649 226.97419 
L 127.776974 225.870196 
L 127.878463 225.594198 
L 128.081439 225.65789 
L 128.385904 225.254507 
L 128.588881 225.1802 
L 128.791858 224.946663 
L 129.197811 224.553896 
L 129.2993 224.904201 
L 129.400788 224.596357 
L 129.502277 224.989124 
L 129.705253 224.851125 
L 129.90823 224.22482 
L 130.212695 223.948822 
L 130.618649 223.662208 
L 131.227579 223.120826 
L 131.532044 222.897904 
L 131.633532 222.59006 
L 131.735021 222.643137 
L 132.851393 221.719603 
L 133.257346 221.379913 
L 133.6633 221.082684 
L 133.866277 220.902223 
L 133.967765 220.902223 
L 134.27223 220.520071 
L 134.373719 220.47761 
L 134.678184 219.851306 
L 134.88116 219.065771 
L 135.084137 219.416077 
L 135.591579 218.747311 
L 135.794556 218.481928 
L 136.200509 217.983008 
L 137.012416 216.985167 
L 138.940695 213.959799 
L 139.143672 214.341951 
L 139.245161 214.310105 
L 139.549626 213.280418 
L 140.158556 212.399346 
L 140.463021 211.964117 
L 142.086835 209.27844 
L 142.289812 209.002441 
L 143.101719 207.654294 
L 143.609161 206.773222 
L 143.710649 206.773222 
L 144.421068 204.650157 
L 144.522556 204.851848 
L 144.92851 204.395389 
L 147.668696 199.23634 
L 147.973161 198.291576 
L 148.176138 197.877578 
L 148.480603 197.102659 
L 148.785068 196.348971 
L 148.988044 196.731123 
L 149.089533 196.741738 
L 149.29251 195.531591 
L 150.002928 193.748216 
L 150.814835 191.529612 
L 151.322277 190.277004 
L 152.235672 187.888555 
L 152.438649 187.495788 
L 152.844603 186.041488 
L 153.047579 185.054262 
L 153.149068 185.033032 
L 153.555021 183.865346 
L 155.381812 178.547067 
L 155.686277 177.124613 
L 156.295207 175.054624 
L 156.904138 172.31587 
L 157.005626 172.464484 
L 157.614556 169.417885 
L 161.268138 155.257039 
L 163.500882 144.482481 
L 163.805347 143.134335 
L 167.255952 127.338728 
L 167.35744 127.296266 
L 167.458929 127.529804 
L 167.560417 127.413035 
L 168.473812 124.408897 
L 168.676789 123.580902 
L 168.879766 124.037361 
L 168.981254 124.355821 
L 169.184231 123.984284 
L 169.285719 123.920592 
L 169.488696 123.432287 
L 169.590185 123.474749 
L 169.89465 122.476908 
L 170.300603 121.468452 
L 171.011022 119.419693 
L 172.228882 115.821097 
L 182.276231 83.550502 
L 182.37772 83.370042 
L 182.682185 82.340355 
L 182.783673 82.393432 
L 182.885162 81.650359 
L 182.98665 81.735281 
L 183.189627 82.701276 
L 184.914929 80.174828 
L 185.523859 79.049604 
L 185.625348 79.155757 
L 185.828325 78.62499 
L 186.031301 78.433915 
L 186.437255 77.616534 
L 187.95958 74.729165 
L 189.075953 72.043487 
L 189.380418 71.427798 
L 189.989348 69.803653 
L 190.090836 69.718731 
L 190.293813 69.230426 
L 190.598278 68.540429 
L 191.004232 67.754895 
L 191.613162 66.820746 
L 192.628046 65.31337 
L 192.729534 65.377062 
L 193.236976 64.602143 
L 193.439953 64.35799 
L 193.642929 64.156299 
L 193.947395 63.763532 
L 194.454836 63.190304 
L 194.556325 63.20092 
L 195.672697 61.990772 
L 195.875674 62.033234 
L 196.07865 61.895235 
L 196.484604 61.534313 
L 196.992046 61.385699 
L 197.600976 60.961086 
L 197.803953 60.971701 
L 198.108418 60.738164 
L 198.311395 60.727549 
L 199.22479 59.97386 
L 199.529255 60.324166 
L 199.935209 60.334781 
L 200.138185 60.409089 
L 202.066465 59.920784 
L 202.269441 59.740323 
L 202.37093 59.910168 
L 202.573906 59.708477 
L 202.878372 59.6554 
L 203.081348 59.400633 
L 203.182837 59.47494 
L 203.385813 59.326325 
L 204.400697 58.891097 
L 204.502186 58.954789 
L 204.603674 58.65756 
L 204.705162 59.018481 
L 204.806651 58.604483 
L 204.908139 58.763713 
L 205.009627 58.593868 
L 205.111116 58.81679 
L 206.126 57.956948 
L 206.430465 57.999409 
L 206.73493 58.158639 
L 207.140883 58.073717 
L 207.749814 57.808334 
L 208.460232 57.415566 
L 209.272139 57.182029 
L 209.678093 57.097107 
L 210.49 56.789262 
L 211.809349 56.141727 
L 212.113814 56.746801 
L 212.824232 56.778647 
L 213.433163 56.746801 
L 214.24507 56.661878 
L 214.549535 56.651263 
L 214.752511 56.608802 
L 216.680791 56.704339 
L 217.391209 56.619417 
L 217.695674 56.152342 
L 217.898651 56.56634 
L 218.000139 56.438956 
L 218.304605 56.619417 
L 218.406093 56.396495 
L 218.507581 56.56634 
L 218.60907 56.428341 
L 218.710558 56.555725 
L 219.015023 56.141727 
L 219.218 56.035574 
L 219.420977 55.865729 
L 219.522465 55.897575 
L 219.725442 55.653422 
L 219.928419 55.568499 
L 220.029907 55.4305 
L 220.131395 55.536653 
L 220.334372 55.313732 
L 220.638837 55.080194 
L 220.841814 54.963426 
L 221.552233 54.549428 
L 223.176047 53.79574 
L 223.784977 53.721432 
L 224.089442 53.700202 
L 224.292419 53.753278 
L 224.596884 56.258496 
L 224.901349 58.190485 
L 225.510279 59.772169 
L 225.611768 59.888938 
L 225.814744 59.039711 
L 226.017721 59.092788 
L 226.423675 58.3391 
L 226.72814 58.370946 
L 226.931116 58.275408 
L 227.235582 58.328485 
L 227.33707 58.158639 
L 227.438558 58.264793 
L 227.540047 58.116178 
L 227.844512 57.235106 
L 228.148977 56.980338 
L 228.250465 56.661878 
L 228.453442 55.504807 
L 228.656419 55.165117 
L 229.163861 54.262814 
L 229.468326 53.434819 
L 229.671303 53.286204 
L 229.975768 53.360511 
L 230.077256 53.243743 
L 230.280233 53.519741 
L 230.381721 53.190666 
L 230.48321 53.466665 
L 230.787675 52.744822 
L 230.990651 52.628054 
L 231.193628 52.458209 
L 231.396605 52.50067 
L 231.599582 52.34144 
L 231.904047 52.468824 
L 232.208512 52.638669 
L 232.411489 52.766053 
L 232.918931 52.84036 
L 233.426372 53.371127 
L 233.527861 53.275589 
L 233.832326 53.47728 
L 234.339768 53.572818 
L 234.644233 53.732048 
L 235.050186 53.678971 
L 235.354652 52.383901 
L 235.45614 52.362671 
L 235.659117 52.447593 
L 235.760605 52.267133 
L 235.963582 51.672674 
L 236.268047 50.982678 
L 236.674 50.441296 
L 236.978466 50.70668 
L 237.079954 50.685449 
L 237.282931 50.791602 
L 237.485907 50.844679 
L 237.587396 50.600526 
L 237.688884 51.025139 
L 237.790373 50.770371 
L 237.993349 51.290523 
L 238.399303 51.757597 
L 239.008233 52.054826 
L 239.414187 52.628054 
L 239.82014 52.914668 
L 240.023117 53.201281 
L 240.226094 53.275589 
L 240.42907 53.466665 
L 240.530559 53.392357 
L 240.936512 53.615279 
L 241.545442 53.487895 
L 241.849908 53.657741 
L 241.951396 53.594049 
L 242.052884 53.689586 
L 242.255861 53.540972 
L 242.560326 53.583433 
L 242.661815 53.668356 
L 242.763303 53.583433 
L 243.067768 53.753278 
L 243.169256 53.647125 
L 243.57521 54.602505 
L 243.676698 54.443275 
L 243.981163 53.668356 
L 244.285629 53.551587 
L 244.894559 53.233127 
L 245.199024 52.787284 
L 245.300512 52.904052 
L 246.518373 52.245902 
L 246.822838 52.129133 
L 246.924326 51.969903 
L 247.025815 52.086672 
L 247.33028 51.800058 
L 247.634745 51.354214 
L 247.93921 50.430681 
L 248.142187 49.560224 
L 248.243675 50.090991 
L 248.649629 49.942376 
L 248.852605 50.06976 
L 249.055582 50.090991 
L 249.563024 50.504988 
L 249.664512 50.749141 
L 249.867489 50.515604 
L 250.171954 50.526219 
L 250.983861 50.282066 
L 251.389815 50.186528 
L 251.592792 50.133452 
L 252.100233 50.611142 
L 252.404699 50.88714 
L 252.607675 50.982678 
L 252.709164 50.940217 
L 252.91214 51.163139 
L 253.115117 51.226831 
L 253.825536 51.460368 
L 253.927024 51.672674 
L 254.535954 51.216215 
L 254.637443 51.481598 
L 254.738931 51.216215 
L 254.84042 51.86375 
L 255.043396 51.279907 
L 255.246373 51.152523 
L 255.753815 51.141908 
L 257.276141 51.194985 
L 258.392513 51.067601 
L 259.407396 51.067601 
L 260.523769 50.865909 
L 260.828234 50.621757 
L 261.03121 50.558065 
L 261.132699 50.600526 
L 261.437164 50.462527 
L 261.843117 50.335143 
L 262.046094 50.38822 
L 262.147583 50.335143 
L 262.249071 50.430681 
L 262.350559 50.197144 
L 262.655024 50.260836 
L 262.756513 50.027299 
L 262.858001 50.122836 
L 262.95949 49.698223 
L 263.060978 50.133452 
L 263.263955 49.91053 
L 263.466931 50.06976 
L 263.56842 49.995453 
L 263.771397 50.144067 
L 264.989257 49.931761 
L 265.293722 50.101606 
L 265.699676 50.006068 
L 266.613071 49.602685 
L 267.120513 50.037914 
L 267.526466 50.090991 
L 268.54135 49.857453 
L 269.048792 49.772531 
L 269.353257 49.517763 
L 269.454746 49.634531 
L 269.556234 49.507148 
L 269.657722 49.560224 
L 269.962187 49.284226 
L 270.469629 49.655762 
L 270.672606 50.25022 
L 270.774094 50.175913 
L 270.875583 50.239605 
L 271.07856 49.814992 
L 271.383025 49.857453 
L 271.68749 49.952991 
L 271.890467 49.931761 
L 272.29642 50.006068 
L 272.397908 49.772531 
L 272.600885 50.016683 
L 273.006839 50.122836 
L 273.108327 50.154682 
L 273.818746 49.645147 
L 274.224699 49.613301 
L 274.326188 49.719454 
L 274.529164 49.645147 
L 275.036606 49.868069 
L 275.138095 49.708839 
L 275.341071 49.825607 
L 275.44256 49.167457 
L 275.544048 49.284226 
L 275.848513 49.942376 
L 276.254467 49.719454 
L 276.66042 49.496532 
L 276.761909 49.485917 
L 276.863397 49.698223 
L 277.066374 49.570839 
L 277.979769 49.602685 
L 278.182746 49.549609 
L 278.487211 49.538993 
L 278.791676 49.43284 
L 278.994653 50.260836 
L 279.299118 49.475302 
L 279.603583 49.485917 
L 280.009537 49.422225 
L 280.111025 49.178072 
L 280.314002 49.305456 
L 281.02442 49.316072 
L 281.227397 49.337302 
L 281.430374 49.294841 
L 281.734839 49.43284 
L 281.836327 49.400994 
L 282.039304 48.785305 
L 282.140792 48.169616 
L 282.343769 48.976381 
L 283.054188 48.742844 
L 283.155676 48.902074 
L 283.358653 48.700383 
L 283.56163 48.626075 
L 283.663118 48.572999 
L 284.272048 48.891459 
L 284.880979 48.626075 
L 284.982467 48.583614 
L 285.185444 49.517763 
L 285.286932 49.294841 
L 285.489909 48.77469 
L 285.692886 48.764075 
L 286.098839 48.657921 
L 286.707769 48.339462 
L 287.012234 48.541153 
L 287.215211 48.700383 
L 287.722653 48.689767 
L 287.92563 48.77469 
L 288.331583 48.976381 
L 288.636048 47.999771 
L 288.839025 48.647306 
L 289.244979 48.626075 
L 289.549444 48.61546 
L 289.650932 48.902074 
L 289.853909 48.764075 
L 290.158374 48.806536 
L 290.564328 48.710998 
L 290.868793 48.732229 
L 290.970281 48.626075 
L 291.173258 48.742844 
L 291.274746 48.710998 
L 291.477723 48.488076 
L 291.6807 49.018842 
L 291.782188 49.655762 
L 292.188142 48.795921 
L 292.797072 48.689767 
L 292.89856 48.424384 
L 293.101537 48.572999 
L 293.811956 48.594229 
L 293.913444 48.77469 
L 294.116421 48.647306 
L 294.217909 48.795921 
L 294.319397 48.732229 
L 294.420886 48.976381 
L 294.522374 48.785305 
L 294.623862 48.859613 
L 294.826839 47.914848 
L 295.029816 48.679152 
L 295.232793 48.583614 
L 295.435769 48.679152 
L 296.0447 48.350077 
L 296.552142 48.350077 
L 297.059583 48.307616 
L 297.161072 48.45623 
L 297.26256 48.127155 
L 297.364049 48.434999 
L 297.567025 48.328846 
L 297.668514 48.392538 
L 297.87149 48.286385 
L 297.972979 48.169616 
L 298.480421 49.220534 
L 298.683397 48.488076 
L 298.886374 48.392538 
L 299.596793 48.297 
L 300.002746 48.233308 
L 300.104235 48.212078 
L 300.205723 47.97854 
L 300.4087 48.095309 
L 302.235491 47.511466 
L 302.945909 48.042232 
L 303.757816 48.392538 
L 303.859305 48.148386 
L 304.062281 48.424384 
L 304.366746 47.893618 
L 304.468235 48.031617 
L 304.671212 47.713157 
L 304.874188 47.829926 
L 305.584607 47.734388 
L 306.396514 47.426543 
L 307.005444 47.224852 
L 307.411398 47.500851 
L 308.020328 47.47962 
L 309.847119 47.108084 
L 310.253072 47.352236 
L 311.064979 47.277929 
L 311.267956 47.256698 
L 312.688793 47.362851 
L 312.790282 47.277929 
L 312.993258 47.331005 
L 313.297723 47.32039 
L 313.703677 47.352236 
L 313.805165 47.331005 
L 313.906654 47.47962 
L 314.008142 47.288544 
L 314.211119 47.415928 
L 314.312607 47.384082 
L 314.414096 47.511466 
L 314.515584 47.277929 
L 314.718561 47.596389 
L 314.921537 47.47962 
L 315.428979 47.511466 
L 315.530468 47.681311 
L 315.834933 47.405313 
L 315.936421 47.352236 
L 316.03791 47.055007 
L 316.240886 47.394697 
L 316.443863 47.16116 
L 316.64684 47.500851 
L 316.748328 47.362851 
L 316.849817 46.9807 
L 317.052793 47.352236 
L 317.154282 47.362851 
L 317.25577 47.193006 
L 317.357258 47.309775 
L 317.458747 47.224852 
L 317.661724 47.256698 
L 318.169165 47.299159 
L 318.372142 47.352236 
L 319.082561 47.384082 
L 319.285538 47.256698 
L 320.503398 47.309775 
L 320.604886 47.277929 
L 320.807863 47.097468 
L 322.2287 47.193006 
L 322.634654 47.256698 
L 322.939119 47.277929 
L 323.345073 47.246083 
L 323.649538 46.938238 
L 324.562933 46.66224 
L 324.76591 46.481779 
L 324.968887 46.460549 
L 325.476328 46.354395 
L 325.679305 46.587932 
L 326.491212 46.577317 
L 327.100142 46.524241 
L 327.201631 46.577317 
L 327.404608 46.492395 
L 327.607584 46.50301 
L 327.912049 46.471164 
L 328.419491 46.556087 
L 328.52098 46.280088 
L 328.622468 46.50301 
L 328.723956 46.004089 
L 328.825445 46.110243 
L 329.028422 45.834244 
L 329.231398 46.237627 
L 329.535863 46.269473 
L 330.043305 46.248242 
L 331.362654 46.492395 
L 331.464143 46.587932 
L 331.667119 46.449933 
L 332.377538 46.492395 
L 334.813259 46.152704 
L 335.016236 45.993474 
L 335.219212 46.046551 
L 335.523678 45.749322 
L 335.726654 45.791783 
L 335.929631 45.86609 
L 336.234096 46.216396 
L 336.335585 46.099627 
L 336.437073 46.195165 
L 336.64005 46.110243 
L 336.843026 46.173935 
L 336.944515 46.248242 
L 337.147492 45.982859 
L 337.350468 46.163319 
L 337.553445 46.311934 
L 337.654933 46.195165 
L 337.756422 46.354395 
L 337.85791 45.738706 
L 337.959399 46.142089 
L 338.46684 45.781168 
L 338.771306 45.908552 
L 339.075771 46.131473 
L 341.207027 46.004089 
L 341.511492 46.014705 
L 341.714468 45.972244 
L 341.917445 45.940398 
L 342.323399 45.972244 
L 342.932329 45.951013 
L 343.439771 45.929782 
L 344.962096 46.195165 
L 345.469538 46.609163 
L 345.571027 46.386241 
L 345.672515 46.651624 
L 345.97698 45.335324 
L 346.179957 45.908552 
L 346.382934 45.876706 
L 346.687399 45.802398 
L 347.194841 45.802398 
L 347.296329 46.067781 
L 347.499306 45.897936 
L 348.209724 45.86609 
L 349.021631 45.781168 
L 349.224608 45.568861 
L 349.326097 45.483938 
L 349.529073 46.248242 
L 349.630562 46.789624 
L 349.833538 45.813014 
L 350.543957 45.717476 
L 350.746934 45.590092 
L 350.848422 45.430862 
L 351.051399 45.483938 
L 351.761818 45.36717 
L 352.269259 45.197325 
L 352.472236 45.335324 
L 352.675213 45.738706 
L 352.776701 45.632553 
L 352.979678 45.834244 
L 353.284143 44.953172 
L 353.48712 45.621938 
L 353.791585 45.558246 
L 354.603492 45.664399 
L 354.70498 45.823629 
L 354.806469 45.696245 
L 355.110934 45.791783 
L 355.922841 45.929782 
L 356.227306 45.664399 
L 356.430283 45.345939 
L 356.531771 45.3884 
L 356.63326 45.165479 
L 356.836236 45.919167 
L 356.937725 46.641009 
L 357.140701 45.643168 
L 357.952608 45.86609 
L 358.561539 45.5264 
L 358.663027 45.579476 
L 358.764515 45.505169 
L 358.866004 45.579476 
L 358.967492 45.505169 
L 359.068981 45.600707 
L 359.373446 45.473323 
L 359.474934 45.632553 
L 359.576422 45.462708 
L 359.880888 45.823629 
L 360.286841 44.70902 
L 360.489818 45.409631 
L 361.200236 45.537015 
L 361.707678 45.813014 
L 362.418097 45.335324 
L 362.621074 45.335324 
L 362.82405 45.292863 
L 363.027027 45.335324 
L 363.128516 45.314093 
L 363.230004 45.176094 
L 363.331492 45.356555 
L 363.534469 45.123017 
L 363.635957 45.186709 
L 363.737446 45.091171 
L 363.838934 45.20794 
L 363.940423 45.006249 
L 364.244888 45.982859 
L 364.447864 45.303478 
L 364.650841 45.20794 
L 365.36126 45.197325 
L 365.665725 45.165479 
L 365.767213 44.963787 
L 365.97019 45.154863 
L 366.680609 45.239786 
L 367.391027 45.430862 
L 367.492516 45.611322 
L 367.594004 45.377785 
L 367.796981 45.579476 
L 367.999958 45.600707 
L 368.304423 45.335324 
L 368.405911 45.3884 
L 368.507399 45.229171 
L 368.608888 44.443636 
L 369.11633 44.942557 
L 369.72526 44.73025 
L 370.131213 44.592251 
L 370.232702 44.825788 
L 370.435679 44.57102 
L 370.94312 44.857634 
L 371.349074 44.836403 
L 371.450562 44.868249 
L 371.552051 44.740866 
L 371.958004 44.857634 
L 372.262469 44.70902 
L 372.363958 44.804557 
L 372.465446 44.613482 
L 372.769911 45.080556 
L 372.8714 45.611322 
L 372.972888 45.590092 
L 373.175865 45.038095 
L 373.378841 44.995633 
L 373.581818 45.059325 
L 373.581818 45.059325 
" style="fill:none;stroke:#ffa500;stroke-linecap:square;stroke-width:0.3;"/>
   </g>
   <g id="patch_3">
    <path d="M 54 252 
L 54 34.56 
" style="fill:none;stroke:#000000;stroke-linecap:square;stroke-linejoin:miter;stroke-width:0.8;"/>
   </g>
   <g id="patch_4">
    <path d="M 388.8 252 
L 388.8 34.56 
" style="fill:none;stroke:#000000;stroke-linecap:square;stroke-linejoin:miter;stroke-width:0.8;"/>
   </g>
   <g id="patch_5">
    <path d="M 54 252 
L 388.8 252 
" style="fill:none;stroke:#000000;stroke-linecap:square;stroke-linejoin:miter;stroke-width:0.8;"/>
   </g>
   <g id="patch_6">
    <path d="M 54 34.56 
L 388.8 34.56 
" style="fill:none;stroke:#000000;stroke-linecap:square;stroke-linejoin:miter;stroke-width:0.8;"/>
   </g>
   <g id="text_17">
    <!-- SPGD Detectors TP2 Testing S2 Lineup Post Map  -->
    <defs>
     <path d="M 53.515625 70.515625 
L 53.515625 60.890625 
Q 47.90625 63.578125 42.921875 64.890625 
Q 37.9375 66.21875 33.296875 66.21875 
Q 25.25 66.21875 20.875 63.09375 
Q 16.5 59.96875 16.5 54.203125 
Q 16.5 49.359375 19.40625 46.890625 
Q 22.3125 44.4375 30.421875 42.921875 
L 36.375 41.703125 
Q 47.40625 39.59375 52.65625 34.296875 
Q 57.90625 29 57.90625 20.125 
Q 57.90625 9.515625 50.796875 4.046875 
Q 43.703125 -1.421875 29.984375 -1.421875 
Q 24.8125 -1.421875 18.96875 -0.25 
Q 13.140625 0.921875 6.890625 3.21875 
L 6.890625 13.375 
Q 12.890625 10.015625 18.65625 8.296875 
Q 24.421875 6.59375 29.984375 6.59375 
Q 38.421875 6.59375 43.015625 9.90625 
Q 47.609375 13.234375 47.609375 19.390625 
Q 47.609375 24.75 44.3125 27.78125 
Q 41.015625 30.8125 33.5 32.328125 
L 27.484375 33.5 
Q 16.453125 35.6875 11.515625 40.375 
Q 6.59375 45.0625 6.59375 53.421875 
Q 6.59375 63.09375 13.40625 68.65625 
Q 20.21875 74.21875 32.171875 74.21875 
Q 37.3125 74.21875 42.625 73.28125 
Q 47.953125 72.359375 53.515625 70.515625 
" id="DejaVuSans-53"/>
     <path d="M 19.671875 64.796875 
L 19.671875 37.40625 
L 32.078125 37.40625 
Q 38.96875 37.40625 42.71875 40.96875 
Q 46.484375 44.53125 46.484375 51.125 
Q 46.484375 57.671875 42.71875 61.234375 
Q 38.96875 64.796875 32.078125 64.796875 
z
M 9.8125 72.90625 
L 32.078125 72.90625 
Q 44.34375 72.90625 50.609375 67.359375 
Q 56.890625 61.8125 56.890625 51.125 
Q 56.890625 40.328125 50.609375 34.8125 
Q 44.34375 29.296875 32.078125 29.296875 
L 19.671875 29.296875 
L 19.671875 0 
L 9.8125 0 
z
" id="DejaVuSans-50"/>
     <path d="M 59.515625 10.40625 
L 59.515625 29.984375 
L 43.40625 29.984375 
L 43.40625 38.09375 
L 69.28125 38.09375 
L 69.28125 6.78125 
Q 63.578125 2.734375 56.6875 0.65625 
Q 49.8125 -1.421875 42 -1.421875 
Q 24.90625 -1.421875 15.25 8.5625 
Q 5.609375 18.5625 5.609375 36.375 
Q 5.609375 54.25 15.25 64.234375 
Q 24.90625 74.21875 42 74.21875 
Q 49.125 74.21875 55.546875 72.453125 
Q 61.96875 70.703125 67.390625 67.28125 
L 67.390625 56.78125 
Q 61.921875 61.421875 55.765625 63.765625 
Q 49.609375 66.109375 42.828125 66.109375 
Q 29.4375 66.109375 22.71875 58.640625 
Q 16.015625 51.171875 16.015625 36.375 
Q 16.015625 21.625 22.71875 14.15625 
Q 29.4375 6.6875 42.828125 6.6875 
Q 48.046875 6.6875 52.140625 7.59375 
Q 56.25 8.5 59.515625 10.40625 
" id="DejaVuSans-47"/>
     <path d="M 19.671875 64.796875 
L 19.671875 8.109375 
L 31.59375 8.109375 
Q 46.6875 8.109375 53.6875 14.9375 
Q 60.6875 21.78125 60.6875 36.53125 
Q 60.6875 51.171875 53.6875 57.984375 
Q 46.6875 64.796875 31.59375 64.796875 
z
M 9.8125 72.90625 
L 30.078125 72.90625 
Q 51.265625 72.90625 61.171875 64.09375 
Q 71.09375 55.28125 71.09375 36.53125 
Q 71.09375 17.671875 61.125 8.828125 
Q 51.171875 0 30.078125 0 
L 9.8125 0 
z
" id="DejaVuSans-44"/>
     <path d="M 41.109375 46.296875 
Q 39.59375 47.171875 37.8125 47.578125 
Q 36.03125 48 33.890625 48 
Q 26.265625 48 22.1875 43.046875 
Q 18.109375 38.09375 18.109375 28.8125 
L 18.109375 0 
L 9.078125 0 
L 9.078125 54.6875 
L 18.109375 54.6875 
L 18.109375 46.1875 
Q 20.953125 51.171875 25.484375 53.578125 
Q 30.03125 56 36.53125 56 
Q 37.453125 56 38.578125 55.875 
Q 39.703125 55.765625 41.0625 55.515625 
z
" id="DejaVuSans-72"/>
     <path d="M -0.296875 72.90625 
L 61.375 72.90625 
L 61.375 64.59375 
L 35.5 64.59375 
L 35.5 0 
L 25.59375 0 
L 25.59375 64.59375 
L -0.296875 64.59375 
z
" id="DejaVuSans-54"/>
     <path d="M 45.40625 27.984375 
Q 45.40625 37.75 41.375 43.109375 
Q 37.359375 48.484375 30.078125 48.484375 
Q 22.859375 48.484375 18.828125 43.109375 
Q 14.796875 37.75 14.796875 27.984375 
Q 14.796875 18.265625 18.828125 12.890625 
Q 22.859375 7.515625 30.078125 7.515625 
Q 37.359375 7.515625 41.375 12.890625 
Q 45.40625 18.265625 45.40625 27.984375 
M 54.390625 6.78125 
Q 54.390625 -7.171875 48.1875 -13.984375 
Q 42 -20.796875 29.203125 -20.796875 
Q 24.46875 -20.796875 20.265625 -20.09375 
Q 16.0625 -19.390625 12.109375 -17.921875 
L 12.109375 -9.1875 
Q 16.0625 -11.328125 19.921875 -12.34375 
Q 23.78125 -13.375 27.78125 -13.375 
Q 36.625 -13.375 41.015625 -8.765625 
Q 45.40625 -4.15625 45.40625 5.171875 
L 45.40625 9.625 
Q 42.625 4.78125 38.28125 2.390625 
Q 33.9375 0 27.875 0 
Q 17.828125 0 11.671875 7.65625 
Q 5.515625 15.328125 5.515625 27.984375 
Q 5.515625 40.671875 11.671875 48.328125 
Q 17.828125 56 27.875 56 
Q 33.9375 56 38.28125 53.609375 
Q 42.625 51.21875 45.40625 46.390625 
L 45.40625 54.6875 
L 54.390625 54.6875 
z
" id="DejaVuSans-67"/>
     <path d="M 9.8125 72.90625 
L 19.671875 72.90625 
L 19.671875 8.296875 
L 55.171875 8.296875 
L 55.171875 0 
L 9.8125 0 
z
" id="DejaVuSans-4c"/>
     <path d="M 8.5 21.578125 
L 8.5 54.6875 
L 17.484375 54.6875 
L 17.484375 21.921875 
Q 17.484375 14.15625 20.5 10.265625 
Q 23.53125 6.390625 29.59375 6.390625 
Q 36.859375 6.390625 41.078125 11.03125 
Q 45.3125 15.671875 45.3125 23.6875 
L 45.3125 54.6875 
L 54.296875 54.6875 
L 54.296875 0 
L 45.3125 0 
L 45.3125 8.40625 
Q 42.046875 3.421875 37.71875 1 
Q 33.40625 -1.421875 27.6875 -1.421875 
Q 18.265625 -1.421875 13.375 4.4375 
Q 8.5 10.296875 8.5 21.578125 
M 31.109375 56 
z
" id="DejaVuSans-75"/>
     <path d="M 18.109375 8.203125 
L 18.109375 -20.796875 
L 9.078125 -20.796875 
L 9.078125 54.6875 
L 18.109375 54.6875 
L 18.109375 46.390625 
Q 20.953125 51.265625 25.265625 53.625 
Q 29.59375 56 35.59375 56 
Q 45.5625 56 51.78125 48.09375 
Q 58.015625 40.1875 58.015625 27.296875 
Q 58.015625 14.40625 51.78125 6.484375 
Q 45.5625 -1.421875 35.59375 -1.421875 
Q 29.59375 -1.421875 25.265625 0.953125 
Q 20.953125 3.328125 18.109375 8.203125 
M 48.6875 27.296875 
Q 48.6875 37.203125 44.609375 42.84375 
Q 40.53125 48.484375 33.40625 48.484375 
Q 26.265625 48.484375 22.1875 42.84375 
Q 18.109375 37.203125 18.109375 27.296875 
Q 18.109375 17.390625 22.1875 11.75 
Q 26.265625 6.109375 33.40625 6.109375 
Q 40.53125 6.109375 44.609375 11.75 
Q 48.6875 17.390625 48.6875 27.296875 
" id="DejaVuSans-70"/>
     <path d="M 9.8125 72.90625 
L 24.515625 72.90625 
L 43.109375 23.296875 
L 61.8125 72.90625 
L 76.515625 72.90625 
L 76.515625 0 
L 66.890625 0 
L 66.890625 64.015625 
L 48.09375 14.015625 
L 38.1875 14.015625 
L 19.390625 64.015625 
L 19.390625 0 
L 9.8125 0 
z
" id="DejaVuSans-4d"/>
    </defs>
    <g transform="translate(73.812188 28.56)scale(0.12 -0.12)">
     <use xlink:href="#DejaVuSans-53"/>
     <use x="63.476562" xlink:href="#DejaVuSans-50"/>
     <use x="123.779297" xlink:href="#DejaVuSans-47"/>
     <use x="201.269531" xlink:href="#DejaVuSans-44"/>
     <use x="278.271484" xlink:href="#DejaVuSans-20"/>
     <use x="310.058594" xlink:href="#DejaVuSans-44"/>
     <use x="387.060547" xlink:href="#DejaVuSans-65"/>
     <use x="448.583984" xlink:href="#DejaVuSans-74"/>
     <use x="487.792969" xlink:href="#DejaVuSans-65"/>
     <use x="549.316406" xlink:href="#DejaVuSans-63"/>
     <use x="604.296875" xlink:href="#DejaVuSans-74"/>
     <use x="643.505859" xlink:href="#DejaVuSans-6f"/>
     <use x="704.6875" xlink:href="#DejaVuSans-72"/>
     <use x="745.800781" xlink:href="#DejaVuSans-73"/>
     <use x="797.900391" xlink:href="#DejaVuSans-20"/>
     <use x="829.6875" xlink:href="#DejaVuSans-54"/>
     <use x="890.771484" xlink:href="#DejaVuSans-50"/>
     <use x="951.074219" xlink:href="#DejaVuSans-32"/>
     <use x="1014.697266" xlink:href="#DejaVuSans-20"/>
     <use x="1046.484375" xlink:href="#DejaVuSans-54"/>
     <use x="1107.302734" xlink:href="#DejaVuSans-65"/>
     <use x="1168.826172" xlink:href="#DejaVuSans-73"/>
     <use x="1220.925781" xlink:href="#DejaVuSans-74"/>
     <use x="1260.134766" xlink:href="#DejaVuSans-69"/>
     <use x="1287.917969" xlink:href="#DejaVuSans-6e"/>
     <use x="1351.296875" xlink:href="#DejaVuSans-67"/>
     <use x="1414.773438" xlink:href="#DejaVuSans-20"/>
     <use x="1446.560547" xlink:href="#DejaVuSans-53"/>
     <use x="1510.037109" xlink:href="#DejaVuSans-32"/>
     <use x="1573.660156" xlink:href="#DejaVuSans-20"/>
     <use x="1605.447266" xlink:href="#DejaVuSans-4c"/>
     <use x="1661.160156" xlink:href="#DejaVuSans-69"/>
     <use x="1688.943359" xlink:href="#DejaVuSans-6e"/>
     <use x="1752.322266" xlink:href="#DejaVuSans-65"/>
     <use x="1813.845703" xlink:href="#DejaVuSans-75"/>
     <use x="1877.224609" xlink:href="#DejaVuSans-70"/>
     <use x="1940.701172" xlink:href="#DejaVuSans-20"/>
     <use x="1972.488281" xlink:href="#DejaVuSans-50"/>
     <use x="2032.744141" xlink:href="#DejaVuSans-6f"/>
     <use x="2093.925781" xlink:href="#DejaVuSans-73"/>
     <use x="2146.025391" xlink:href="#DejaVuSans-74"/>
     <use x="2185.234375" xlink:href="#DejaVuSans-20"/>
     <use x="2217.021484" xlink:href="#DejaVuSans-4d"/>
     <use x="2303.300781" xlink:href="#DejaVuSans-61"/>
     <use x="2364.580078" xlink:href="#DejaVuSans-70"/>
     <use x="2428.056641" xlink:href="#DejaVuSans-20"/>
    </g>
   </g>
  </g>
 </g>
 <defs>
  <clipPath id="p5063b466b7">
   <rect height="217.44" width="334.8" x="54" y="34.56"/>
  </clipPath>
 </defs>
</svg>
