<?xml version="1.0" encoding="utf-8" standalone="no"?>
<!DOCTYPE svg PUBLIC "-//W3C//DTD SVG 1.1//EN"
  "http://www.w3.org/Graphics/SVG/1.1/DTD/svg11.dtd">
<!-- Created with matplotlib (http://matplotlib.org/) -->
<svg height="288pt" version="1.1" viewBox="0 0 432 288" width="432pt" xmlns="http://www.w3.org/2000/svg" xmlns:xlink="http://www.w3.org/1999/xlink">
 <defs>
  <style type="text/css">
*{stroke-linecap:butt;stroke-linejoin:round;}
  </style>
 </defs>
 <g id="figure_1">
  <g id="patch_1">
   <path d="M 0 288 
L 432 288 
L 432 0 
L 0 0 
z
" style="fill:#ffffff;"/>
  </g>
  <g id="axes_1">
   <g id="patch_2">
    <path d="M 54 252 
L 388.8 252 
L 388.8 34.56 
L 54 34.56 
z
" style="fill:#ffffff;"/>
   </g>
   <g id="matplotlib.axis_1">
    <g id="xtick_1">
     <g id="line2d_1">
      <defs>
       <path d="M 0 0 
L 0 3.5 
" id="m8271e2bced" style="stroke:#000000;stroke-width:0.8;"/>
      </defs>
      <g>
       <use style="stroke:#000000;stroke-width:0.8;" x="69.218182" xlink:href="#m8271e2bced" y="252"/>
      </g>
     </g>
     <g id="text_1">
      <!-- 0 -->
      <defs>
       <path d="M 31.78125 66.40625 
Q 24.171875 66.40625 20.328125 58.90625 
Q 16.5 51.421875 16.5 36.375 
Q 16.5 21.390625 20.328125 13.890625 
Q 24.171875 6.390625 31.78125 6.390625 
Q 39.453125 6.390625 43.28125 13.890625 
Q 47.125 21.390625 47.125 36.375 
Q 47.125 51.421875 43.28125 58.90625 
Q 39.453125 66.40625 31.78125 66.40625 
M 31.78125 74.21875 
Q 44.046875 74.21875 50.515625 64.515625 
Q 56.984375 54.828125 56.984375 36.375 
Q 56.984375 17.96875 50.515625 8.265625 
Q 44.046875 -1.421875 31.78125 -1.421875 
Q 19.53125 -1.421875 13.0625 8.265625 
Q 6.59375 17.96875 6.59375 36.375 
Q 6.59375 54.828125 13.0625 64.515625 
Q 19.53125 74.21875 31.78125 74.21875 
" id="DejaVuSans-30"/>
      </defs>
      <g transform="translate(66.036932 266.598437)scale(0.1 -0.1)">
       <use xlink:href="#DejaVuSans-30"/>
      </g>
     </g>
    </g>
    <g id="xtick_2">
     <g id="line2d_2">
      <g>
       <use style="stroke:#000000;stroke-width:0.8;" x="109.827073" xlink:href="#m8271e2bced" y="252"/>
      </g>
     </g>
     <g id="text_2">
      <!-- 200 -->
      <defs>
       <path d="M 19.1875 8.296875 
L 53.609375 8.296875 
L 53.609375 0 
L 7.328125 0 
L 7.328125 8.296875 
Q 12.9375 14.109375 22.625 23.890625 
Q 32.328125 33.6875 34.8125 36.53125 
Q 39.546875 41.84375 41.421875 45.53125 
Q 43.3125 49.21875 43.3125 52.78125 
Q 43.3125 58.59375 39.234375 62.25 
Q 35.15625 65.921875 28.609375 65.921875 
Q 23.96875 65.921875 18.8125 64.3125 
Q 13.671875 62.703125 7.8125 59.421875 
L 7.8125 69.390625 
Q 13.765625 71.78125 18.9375 73 
Q 24.125 74.21875 28.421875 74.21875 
Q 39.75 74.21875 46.484375 68.546875 
Q 53.21875 62.890625 53.21875 53.421875 
Q 53.21875 48.921875 51.53125 44.890625 
Q 49.859375 40.875 45.40625 35.40625 
Q 44.1875 33.984375 37.640625 27.21875 
Q 31.109375 20.453125 19.1875 8.296875 
" id="DejaVuSans-32"/>
      </defs>
      <g transform="translate(100.283323 266.598437)scale(0.1 -0.1)">
       <use xlink:href="#DejaVuSans-32"/>
       <use x="63.623047" xlink:href="#DejaVuSans-30"/>
       <use x="127.246094" xlink:href="#DejaVuSans-30"/>
      </g>
     </g>
    </g>
    <g id="xtick_3">
     <g id="line2d_3">
      <g>
       <use style="stroke:#000000;stroke-width:0.8;" x="150.435963" xlink:href="#m8271e2bced" y="252"/>
      </g>
     </g>
     <g id="text_3">
      <!-- 400 -->
      <defs>
       <path d="M 37.796875 64.3125 
L 12.890625 25.390625 
L 37.796875 25.390625 
z
M 35.203125 72.90625 
L 47.609375 72.90625 
L 47.609375 25.390625 
L 58.015625 25.390625 
L 58.015625 17.1875 
L 47.609375 17.1875 
L 47.609375 0 
L 37.796875 0 
L 37.796875 17.1875 
L 4.890625 17.1875 
L 4.890625 26.703125 
z
" id="DejaVuSans-34"/>
      </defs>
      <g transform="translate(140.892213 266.598437)scale(0.1 -0.1)">
       <use xlink:href="#DejaVuSans-34"/>
       <use x="63.623047" xlink:href="#DejaVuSans-30"/>
       <use x="127.246094" xlink:href="#DejaVuSans-30"/>
      </g>
     </g>
    </g>
    <g id="xtick_4">
     <g id="line2d_4">
      <g>
       <use style="stroke:#000000;stroke-width:0.8;" x="191.044854" xlink:href="#m8271e2bced" y="252"/>
      </g>
     </g>
     <g id="text_4">
      <!-- 600 -->
      <defs>
       <path d="M 33.015625 40.375 
Q 26.375 40.375 22.484375 35.828125 
Q 18.609375 31.296875 18.609375 23.390625 
Q 18.609375 15.53125 22.484375 10.953125 
Q 26.375 6.390625 33.015625 6.390625 
Q 39.65625 6.390625 43.53125 10.953125 
Q 47.40625 15.53125 47.40625 23.390625 
Q 47.40625 31.296875 43.53125 35.828125 
Q 39.65625 40.375 33.015625 40.375 
M 52.59375 71.296875 
L 52.59375 62.3125 
Q 48.875 64.0625 45.09375 64.984375 
Q 41.3125 65.921875 37.59375 65.921875 
Q 27.828125 65.921875 22.671875 59.328125 
Q 17.53125 52.734375 16.796875 39.40625 
Q 19.671875 43.65625 24.015625 45.921875 
Q 28.375 48.1875 33.59375 48.1875 
Q 44.578125 48.1875 50.953125 41.515625 
Q 57.328125 34.859375 57.328125 23.390625 
Q 57.328125 12.15625 50.6875 5.359375 
Q 44.046875 -1.421875 33.015625 -1.421875 
Q 20.359375 -1.421875 13.671875 8.265625 
Q 6.984375 17.96875 6.984375 36.375 
Q 6.984375 53.65625 15.1875 63.9375 
Q 23.390625 74.21875 37.203125 74.21875 
Q 40.921875 74.21875 44.703125 73.484375 
Q 48.484375 72.75 52.59375 71.296875 
" id="DejaVuSans-36"/>
      </defs>
      <g transform="translate(181.501104 266.598437)scale(0.1 -0.1)">
       <use xlink:href="#DejaVuSans-36"/>
       <use x="63.623047" xlink:href="#DejaVuSans-30"/>
       <use x="127.246094" xlink:href="#DejaVuSans-30"/>
      </g>
     </g>
    </g>
    <g id="xtick_5">
     <g id="line2d_5">
      <g>
       <use style="stroke:#000000;stroke-width:0.8;" x="231.653745" xlink:href="#m8271e2bced" y="252"/>
      </g>
     </g>
     <g id="text_5">
      <!-- 800 -->
      <defs>
       <path d="M 31.78125 34.625 
Q 24.75 34.625 20.71875 30.859375 
Q 16.703125 27.09375 16.703125 20.515625 
Q 16.703125 13.921875 20.71875 10.15625 
Q 24.75 6.390625 31.78125 6.390625 
Q 38.8125 6.390625 42.859375 10.171875 
Q 46.921875 13.96875 46.921875 20.515625 
Q 46.921875 27.09375 42.890625 30.859375 
Q 38.875 34.625 31.78125 34.625 
M 21.921875 38.8125 
Q 15.578125 40.375 12.03125 44.71875 
Q 8.5 49.078125 8.5 55.328125 
Q 8.5 64.0625 14.71875 69.140625 
Q 20.953125 74.21875 31.78125 74.21875 
Q 42.671875 74.21875 48.875 69.140625 
Q 55.078125 64.0625 55.078125 55.328125 
Q 55.078125 49.078125 51.53125 44.71875 
Q 48 40.375 41.703125 38.8125 
Q 48.828125 37.15625 52.796875 32.3125 
Q 56.78125 27.484375 56.78125 20.515625 
Q 56.78125 9.90625 50.3125 4.234375 
Q 43.84375 -1.421875 31.78125 -1.421875 
Q 19.734375 -1.421875 13.25 4.234375 
Q 6.78125 9.90625 6.78125 20.515625 
Q 6.78125 27.484375 10.78125 32.3125 
Q 14.796875 37.15625 21.921875 38.8125 
M 18.3125 54.390625 
Q 18.3125 48.734375 21.84375 45.5625 
Q 25.390625 42.390625 31.78125 42.390625 
Q 38.140625 42.390625 41.71875 45.5625 
Q 45.3125 48.734375 45.3125 54.390625 
Q 45.3125 60.0625 41.71875 63.234375 
Q 38.140625 66.40625 31.78125 66.40625 
Q 25.390625 66.40625 21.84375 63.234375 
Q 18.3125 60.0625 18.3125 54.390625 
" id="DejaVuSans-38"/>
      </defs>
      <g transform="translate(222.109995 266.598437)scale(0.1 -0.1)">
       <use xlink:href="#DejaVuSans-38"/>
       <use x="63.623047" xlink:href="#DejaVuSans-30"/>
       <use x="127.246094" xlink:href="#DejaVuSans-30"/>
      </g>
     </g>
    </g>
    <g id="xtick_6">
     <g id="line2d_6">
      <g>
       <use style="stroke:#000000;stroke-width:0.8;" x="272.262636" xlink:href="#m8271e2bced" y="252"/>
      </g>
     </g>
     <g id="text_6">
      <!-- 1000 -->
      <defs>
       <path d="M 12.40625 8.296875 
L 28.515625 8.296875 
L 28.515625 63.921875 
L 10.984375 60.40625 
L 10.984375 69.390625 
L 28.421875 72.90625 
L 38.28125 72.90625 
L 38.28125 8.296875 
L 54.390625 8.296875 
L 54.390625 0 
L 12.40625 0 
z
" id="DejaVuSans-31"/>
      </defs>
      <g transform="translate(259.537636 266.598437)scale(0.1 -0.1)">
       <use xlink:href="#DejaVuSans-31"/>
       <use x="63.623047" xlink:href="#DejaVuSans-30"/>
       <use x="127.246094" xlink:href="#DejaVuSans-30"/>
       <use x="190.869141" xlink:href="#DejaVuSans-30"/>
      </g>
     </g>
    </g>
    <g id="xtick_7">
     <g id="line2d_7">
      <g>
       <use style="stroke:#000000;stroke-width:0.8;" x="312.871526" xlink:href="#m8271e2bced" y="252"/>
      </g>
     </g>
     <g id="text_7">
      <!-- 1200 -->
      <g transform="translate(300.146526 266.598437)scale(0.1 -0.1)">
       <use xlink:href="#DejaVuSans-31"/>
       <use x="63.623047" xlink:href="#DejaVuSans-32"/>
       <use x="127.246094" xlink:href="#DejaVuSans-30"/>
       <use x="190.869141" xlink:href="#DejaVuSans-30"/>
      </g>
     </g>
    </g>
    <g id="xtick_8">
     <g id="line2d_8">
      <g>
       <use style="stroke:#000000;stroke-width:0.8;" x="353.480417" xlink:href="#m8271e2bced" y="252"/>
      </g>
     </g>
     <g id="text_8">
      <!-- 1400 -->
      <g transform="translate(340.755417 266.598437)scale(0.1 -0.1)">
       <use xlink:href="#DejaVuSans-31"/>
       <use x="63.623047" xlink:href="#DejaVuSans-34"/>
       <use x="127.246094" xlink:href="#DejaVuSans-30"/>
       <use x="190.869141" xlink:href="#DejaVuSans-30"/>
      </g>
     </g>
    </g>
    <g id="text_9">
     <!-- seconds -->
     <defs>
      <path d="M 44.28125 53.078125 
L 44.28125 44.578125 
Q 40.484375 46.53125 36.375 47.5 
Q 32.28125 48.484375 27.875 48.484375 
Q 21.1875 48.484375 17.84375 46.4375 
Q 14.5 44.390625 14.5 40.28125 
Q 14.5 37.15625 16.890625 35.375 
Q 19.28125 33.59375 26.515625 31.984375 
L 29.59375 31.296875 
Q 39.15625 29.25 43.1875 25.515625 
Q 47.21875 21.78125 47.21875 15.09375 
Q 47.21875 7.46875 41.1875 3.015625 
Q 35.15625 -1.421875 24.609375 -1.421875 
Q 20.21875 -1.421875 15.453125 -0.5625 
Q 10.6875 0.296875 5.421875 2 
L 5.421875 11.28125 
Q 10.40625 8.6875 15.234375 7.390625 
Q 20.0625 6.109375 24.8125 6.109375 
Q 31.15625 6.109375 34.5625 8.28125 
Q 37.984375 10.453125 37.984375 14.40625 
Q 37.984375 18.0625 35.515625 20.015625 
Q 33.0625 21.96875 24.703125 23.78125 
L 21.578125 24.515625 
Q 13.234375 26.265625 9.515625 29.90625 
Q 5.8125 33.546875 5.8125 39.890625 
Q 5.8125 47.609375 11.28125 51.796875 
Q 16.75 56 26.8125 56 
Q 31.78125 56 36.171875 55.265625 
Q 40.578125 54.546875 44.28125 53.078125 
" id="DejaVuSans-73"/>
      <path d="M 56.203125 29.59375 
L 56.203125 25.203125 
L 14.890625 25.203125 
Q 15.484375 15.921875 20.484375 11.0625 
Q 25.484375 6.203125 34.421875 6.203125 
Q 39.59375 6.203125 44.453125 7.46875 
Q 49.3125 8.734375 54.109375 11.28125 
L 54.109375 2.78125 
Q 49.265625 0.734375 44.1875 -0.34375 
Q 39.109375 -1.421875 33.890625 -1.421875 
Q 20.796875 -1.421875 13.15625 6.1875 
Q 5.515625 13.8125 5.515625 26.8125 
Q 5.515625 40.234375 12.765625 48.109375 
Q 20.015625 56 32.328125 56 
Q 43.359375 56 49.78125 48.890625 
Q 56.203125 41.796875 56.203125 29.59375 
M 47.21875 32.234375 
Q 47.125 39.59375 43.09375 43.984375 
Q 39.0625 48.390625 32.421875 48.390625 
Q 24.90625 48.390625 20.390625 44.140625 
Q 15.875 39.890625 15.1875 32.171875 
z
" id="DejaVuSans-65"/>
      <path d="M 48.78125 52.59375 
L 48.78125 44.1875 
Q 44.96875 46.296875 41.140625 47.34375 
Q 37.3125 48.390625 33.40625 48.390625 
Q 24.65625 48.390625 19.8125 42.84375 
Q 14.984375 37.3125 14.984375 27.296875 
Q 14.984375 17.28125 19.8125 11.734375 
Q 24.65625 6.203125 33.40625 6.203125 
Q 37.3125 6.203125 41.140625 7.25 
Q 44.96875 8.296875 48.78125 10.40625 
L 48.78125 2.09375 
Q 45.015625 0.34375 40.984375 -0.53125 
Q 36.96875 -1.421875 32.421875 -1.421875 
Q 20.0625 -1.421875 12.78125 6.34375 
Q 5.515625 14.109375 5.515625 27.296875 
Q 5.515625 40.671875 12.859375 48.328125 
Q 20.21875 56 33.015625 56 
Q 37.15625 56 41.109375 55.140625 
Q 45.0625 54.296875 48.78125 52.59375 
" id="DejaVuSans-63"/>
      <path d="M 30.609375 48.390625 
Q 23.390625 48.390625 19.1875 42.75 
Q 14.984375 37.109375 14.984375 27.296875 
Q 14.984375 17.484375 19.15625 11.84375 
Q 23.34375 6.203125 30.609375 6.203125 
Q 37.796875 6.203125 41.984375 11.859375 
Q 46.1875 17.53125 46.1875 27.296875 
Q 46.1875 37.015625 41.984375 42.703125 
Q 37.796875 48.390625 30.609375 48.390625 
M 30.609375 56 
Q 42.328125 56 49.015625 48.375 
Q 55.71875 40.765625 55.71875 27.296875 
Q 55.71875 13.875 49.015625 6.21875 
Q 42.328125 -1.421875 30.609375 -1.421875 
Q 18.84375 -1.421875 12.171875 6.21875 
Q 5.515625 13.875 5.515625 27.296875 
Q 5.515625 40.765625 12.171875 48.375 
Q 18.84375 56 30.609375 56 
" id="DejaVuSans-6f"/>
      <path d="M 54.890625 33.015625 
L 54.890625 0 
L 45.90625 0 
L 45.90625 32.71875 
Q 45.90625 40.484375 42.875 44.328125 
Q 39.84375 48.1875 33.796875 48.1875 
Q 26.515625 48.1875 22.3125 43.546875 
Q 18.109375 38.921875 18.109375 30.90625 
L 18.109375 0 
L 9.078125 0 
L 9.078125 54.6875 
L 18.109375 54.6875 
L 18.109375 46.1875 
Q 21.34375 51.125 25.703125 53.5625 
Q 30.078125 56 35.796875 56 
Q 45.21875 56 50.046875 50.171875 
Q 54.890625 44.34375 54.890625 33.015625 
" id="DejaVuSans-6e"/>
      <path d="M 45.40625 46.390625 
L 45.40625 75.984375 
L 54.390625 75.984375 
L 54.390625 0 
L 45.40625 0 
L 45.40625 8.203125 
Q 42.578125 3.328125 38.25 0.953125 
Q 33.9375 -1.421875 27.875 -1.421875 
Q 17.96875 -1.421875 11.734375 6.484375 
Q 5.515625 14.40625 5.515625 27.296875 
Q 5.515625 40.1875 11.734375 48.09375 
Q 17.96875 56 27.875 56 
Q 33.9375 56 38.25 53.625 
Q 42.578125 51.265625 45.40625 46.390625 
M 14.796875 27.296875 
Q 14.796875 17.390625 18.875 11.75 
Q 22.953125 6.109375 30.078125 6.109375 
Q 37.203125 6.109375 41.296875 11.75 
Q 45.40625 17.390625 45.40625 27.296875 
Q 45.40625 37.203125 41.296875 42.84375 
Q 37.203125 48.484375 30.078125 48.484375 
Q 22.953125 48.484375 18.875 42.84375 
Q 14.796875 37.203125 14.796875 27.296875 
" id="DejaVuSans-64"/>
     </defs>
     <g transform="translate(200.9625 280.276563)scale(0.1 -0.1)">
      <use xlink:href="#DejaVuSans-73"/>
      <use x="52.099609" xlink:href="#DejaVuSans-65"/>
      <use x="113.623047" xlink:href="#DejaVuSans-63"/>
      <use x="168.603516" xlink:href="#DejaVuSans-6f"/>
      <use x="229.785156" xlink:href="#DejaVuSans-6e"/>
      <use x="293.164062" xlink:href="#DejaVuSans-64"/>
      <use x="356.640625" xlink:href="#DejaVuSans-73"/>
     </g>
    </g>
   </g>
   <g id="matplotlib.axis_2">
    <g id="ytick_1">
     <g id="line2d_9">
      <defs>
       <path d="M 0 0 
L -3.5 0 
" id="m1846853a1e" style="stroke:#000000;stroke-width:0.8;"/>
      </defs>
      <g>
       <use style="stroke:#000000;stroke-width:0.8;" x="54" xlink:href="#m1846853a1e" y="250.848568"/>
      </g>
     </g>
     <g id="text_10">
      <!-- 0.85 -->
      <defs>
       <path d="M 10.6875 12.40625 
L 21 12.40625 
L 21 0 
L 10.6875 0 
z
" id="DejaVuSans-2e"/>
       <path d="M 10.796875 72.90625 
L 49.515625 72.90625 
L 49.515625 64.59375 
L 19.828125 64.59375 
L 19.828125 46.734375 
Q 21.96875 47.46875 24.109375 47.828125 
Q 26.265625 48.1875 28.421875 48.1875 
Q 40.625 48.1875 47.75 41.5 
Q 54.890625 34.8125 54.890625 23.390625 
Q 54.890625 11.625 47.5625 5.09375 
Q 40.234375 -1.421875 26.90625 -1.421875 
Q 22.3125 -1.421875 17.546875 -0.640625 
Q 12.796875 0.140625 7.71875 1.703125 
L 7.71875 11.625 
Q 12.109375 9.234375 16.796875 8.0625 
Q 21.484375 6.890625 26.703125 6.890625 
Q 35.15625 6.890625 40.078125 11.328125 
Q 45.015625 15.765625 45.015625 23.390625 
Q 45.015625 31 40.078125 35.4375 
Q 35.15625 39.890625 26.703125 39.890625 
Q 22.75 39.890625 18.8125 39.015625 
Q 14.890625 38.140625 10.796875 36.28125 
z
" id="DejaVuSans-35"/>
      </defs>
      <g transform="translate(24.734375 254.647786)scale(0.1 -0.1)">
       <use xlink:href="#DejaVuSans-30"/>
       <use x="63.623047" xlink:href="#DejaVuSans-2e"/>
       <use x="95.410156" xlink:href="#DejaVuSans-38"/>
       <use x="159.033203" xlink:href="#DejaVuSans-35"/>
      </g>
     </g>
    </g>
    <g id="ytick_2">
     <g id="line2d_10">
      <g>
       <use style="stroke:#000000;stroke-width:0.8;" x="54" xlink:href="#m1846853a1e" y="210.233666"/>
      </g>
     </g>
     <g id="text_11">
      <!-- 0.90 -->
      <defs>
       <path d="M 10.984375 1.515625 
L 10.984375 10.5 
Q 14.703125 8.734375 18.5 7.8125 
Q 22.3125 6.890625 25.984375 6.890625 
Q 35.75 6.890625 40.890625 13.453125 
Q 46.046875 20.015625 46.78125 33.40625 
Q 43.953125 29.203125 39.59375 26.953125 
Q 35.25 24.703125 29.984375 24.703125 
Q 19.046875 24.703125 12.671875 31.3125 
Q 6.296875 37.9375 6.296875 49.421875 
Q 6.296875 60.640625 12.9375 67.421875 
Q 19.578125 74.21875 30.609375 74.21875 
Q 43.265625 74.21875 49.921875 64.515625 
Q 56.59375 54.828125 56.59375 36.375 
Q 56.59375 19.140625 48.40625 8.859375 
Q 40.234375 -1.421875 26.421875 -1.421875 
Q 22.703125 -1.421875 18.890625 -0.6875 
Q 15.09375 0.046875 10.984375 1.515625 
M 30.609375 32.421875 
Q 37.25 32.421875 41.125 36.953125 
Q 45.015625 41.5 45.015625 49.421875 
Q 45.015625 57.28125 41.125 61.84375 
Q 37.25 66.40625 30.609375 66.40625 
Q 23.96875 66.40625 20.09375 61.84375 
Q 16.21875 57.28125 16.21875 49.421875 
Q 16.21875 41.5 20.09375 36.953125 
Q 23.96875 32.421875 30.609375 32.421875 
" id="DejaVuSans-39"/>
      </defs>
      <g transform="translate(24.734375 214.032884)scale(0.1 -0.1)">
       <use xlink:href="#DejaVuSans-30"/>
       <use x="63.623047" xlink:href="#DejaVuSans-2e"/>
       <use x="95.410156" xlink:href="#DejaVuSans-39"/>
       <use x="159.033203" xlink:href="#DejaVuSans-30"/>
      </g>
     </g>
    </g>
    <g id="ytick_3">
     <g id="line2d_11">
      <g>
       <use style="stroke:#000000;stroke-width:0.8;" x="54" xlink:href="#m1846853a1e" y="169.618764"/>
      </g>
     </g>
     <g id="text_12">
      <!-- 0.95 -->
      <g transform="translate(24.734375 173.417983)scale(0.1 -0.1)">
       <use xlink:href="#DejaVuSans-30"/>
       <use x="63.623047" xlink:href="#DejaVuSans-2e"/>
       <use x="95.410156" xlink:href="#DejaVuSans-39"/>
       <use x="159.033203" xlink:href="#DejaVuSans-35"/>
      </g>
     </g>
    </g>
    <g id="ytick_4">
     <g id="line2d_12">
      <g>
       <use style="stroke:#000000;stroke-width:0.8;" x="54" xlink:href="#m1846853a1e" y="129.003862"/>
      </g>
     </g>
     <g id="text_13">
      <!-- 1.00 -->
      <g transform="translate(24.734375 132.803081)scale(0.1 -0.1)">
       <use xlink:href="#DejaVuSans-31"/>
       <use x="63.623047" xlink:href="#DejaVuSans-2e"/>
       <use x="95.410156" xlink:href="#DejaVuSans-30"/>
       <use x="159.033203" xlink:href="#DejaVuSans-30"/>
      </g>
     </g>
    </g>
    <g id="ytick_5">
     <g id="line2d_13">
      <g>
       <use style="stroke:#000000;stroke-width:0.8;" x="54" xlink:href="#m1846853a1e" y="88.38896"/>
      </g>
     </g>
     <g id="text_14">
      <!-- 1.05 -->
      <g transform="translate(24.734375 92.188179)scale(0.1 -0.1)">
       <use xlink:href="#DejaVuSans-31"/>
       <use x="63.623047" xlink:href="#DejaVuSans-2e"/>
       <use x="95.410156" xlink:href="#DejaVuSans-30"/>
       <use x="159.033203" xlink:href="#DejaVuSans-35"/>
      </g>
     </g>
    </g>
    <g id="ytick_6">
     <g id="line2d_14">
      <g>
       <use style="stroke:#000000;stroke-width:0.8;" x="54" xlink:href="#m1846853a1e" y="47.774058"/>
      </g>
     </g>
     <g id="text_15">
      <!-- 1.10 -->
      <g transform="translate(24.734375 51.573277)scale(0.1 -0.1)">
       <use xlink:href="#DejaVuSans-31"/>
       <use x="63.623047" xlink:href="#DejaVuSans-2e"/>
       <use x="95.410156" xlink:href="#DejaVuSans-31"/>
       <use x="159.033203" xlink:href="#DejaVuSans-30"/>
      </g>
     </g>
    </g>
    <g id="text_16">
     <!-- Picoamps  -->
     <defs>
      <path d="M 19.671875 64.796875 
L 19.671875 37.40625 
L 32.078125 37.40625 
Q 38.96875 37.40625 42.71875 40.96875 
Q 46.484375 44.53125 46.484375 51.125 
Q 46.484375 57.671875 42.71875 61.234375 
Q 38.96875 64.796875 32.078125 64.796875 
z
M 9.8125 72.90625 
L 32.078125 72.90625 
Q 44.34375 72.90625 50.609375 67.359375 
Q 56.890625 61.8125 56.890625 51.125 
Q 56.890625 40.328125 50.609375 34.8125 
Q 44.34375 29.296875 32.078125 29.296875 
L 19.671875 29.296875 
L 19.671875 0 
L 9.8125 0 
z
" id="DejaVuSans-50"/>
      <path d="M 9.421875 54.6875 
L 18.40625 54.6875 
L 18.40625 0 
L 9.421875 0 
z
M 9.421875 75.984375 
L 18.40625 75.984375 
L 18.40625 64.59375 
L 9.421875 64.59375 
z
" id="DejaVuSans-69"/>
      <path d="M 34.28125 27.484375 
Q 23.390625 27.484375 19.1875 25 
Q 14.984375 22.515625 14.984375 16.5 
Q 14.984375 11.71875 18.140625 8.90625 
Q 21.296875 6.109375 26.703125 6.109375 
Q 34.1875 6.109375 38.703125 11.40625 
Q 43.21875 16.703125 43.21875 25.484375 
L 43.21875 27.484375 
z
M 52.203125 31.203125 
L 52.203125 0 
L 43.21875 0 
L 43.21875 8.296875 
Q 40.140625 3.328125 35.546875 0.953125 
Q 30.953125 -1.421875 24.3125 -1.421875 
Q 15.921875 -1.421875 10.953125 3.296875 
Q 6 8.015625 6 15.921875 
Q 6 25.140625 12.171875 29.828125 
Q 18.359375 34.515625 30.609375 34.515625 
L 43.21875 34.515625 
L 43.21875 35.40625 
Q 43.21875 41.609375 39.140625 45 
Q 35.0625 48.390625 27.6875 48.390625 
Q 23 48.390625 18.546875 47.265625 
Q 14.109375 46.140625 10.015625 43.890625 
L 10.015625 52.203125 
Q 14.9375 54.109375 19.578125 55.046875 
Q 24.21875 56 28.609375 56 
Q 40.484375 56 46.34375 49.84375 
Q 52.203125 43.703125 52.203125 31.203125 
" id="DejaVuSans-61"/>
      <path d="M 52 44.1875 
Q 55.375 50.25 60.0625 53.125 
Q 64.75 56 71.09375 56 
Q 79.640625 56 84.28125 50.015625 
Q 88.921875 44.046875 88.921875 33.015625 
L 88.921875 0 
L 79.890625 0 
L 79.890625 32.71875 
Q 79.890625 40.578125 77.09375 44.375 
Q 74.3125 48.1875 68.609375 48.1875 
Q 61.625 48.1875 57.5625 43.546875 
Q 53.515625 38.921875 53.515625 30.90625 
L 53.515625 0 
L 44.484375 0 
L 44.484375 32.71875 
Q 44.484375 40.625 41.703125 44.40625 
Q 38.921875 48.1875 33.109375 48.1875 
Q 26.21875 48.1875 22.15625 43.53125 
Q 18.109375 38.875 18.109375 30.90625 
L 18.109375 0 
L 9.078125 0 
L 9.078125 54.6875 
L 18.109375 54.6875 
L 18.109375 46.1875 
Q 21.1875 51.21875 25.484375 53.609375 
Q 29.78125 56 35.6875 56 
Q 41.65625 56 45.828125 52.96875 
Q 50 49.953125 52 44.1875 
" id="DejaVuSans-6d"/>
      <path d="M 18.109375 8.203125 
L 18.109375 -20.796875 
L 9.078125 -20.796875 
L 9.078125 54.6875 
L 18.109375 54.6875 
L 18.109375 46.390625 
Q 20.953125 51.265625 25.265625 53.625 
Q 29.59375 56 35.59375 56 
Q 45.5625 56 51.78125 48.09375 
Q 58.015625 40.1875 58.015625 27.296875 
Q 58.015625 14.40625 51.78125 6.484375 
Q 45.5625 -1.421875 35.59375 -1.421875 
Q 29.59375 -1.421875 25.265625 0.953125 
Q 20.953125 3.328125 18.109375 8.203125 
M 48.6875 27.296875 
Q 48.6875 37.203125 44.609375 42.84375 
Q 40.53125 48.484375 33.40625 48.484375 
Q 26.265625 48.484375 22.1875 42.84375 
Q 18.109375 37.203125 18.109375 27.296875 
Q 18.109375 17.390625 22.1875 11.75 
Q 26.265625 6.109375 33.40625 6.109375 
Q 40.53125 6.109375 44.609375 11.75 
Q 48.6875 17.390625 48.6875 27.296875 
" id="DejaVuSans-70"/>
      <path id="DejaVuSans-20"/>
     </defs>
     <g transform="translate(18.654687 168.793281)rotate(-90)scale(0.1 -0.1)">
      <use xlink:href="#DejaVuSans-50"/>
      <use x="60.271484" xlink:href="#DejaVuSans-69"/>
      <use x="88.054688" xlink:href="#DejaVuSans-63"/>
      <use x="143.035156" xlink:href="#DejaVuSans-6f"/>
      <use x="204.216797" xlink:href="#DejaVuSans-61"/>
      <use x="265.496094" xlink:href="#DejaVuSans-6d"/>
      <use x="362.908203" xlink:href="#DejaVuSans-70"/>
      <use x="426.384766" xlink:href="#DejaVuSans-73"/>
      <use x="478.484375" xlink:href="#DejaVuSans-20"/>
     </g>
    </g>
    <g id="text_17">
     <!-- 1e−9 -->
     <defs>
      <path d="M 10.59375 35.5 
L 73.1875 35.5 
L 73.1875 27.203125 
L 10.59375 27.203125 
z
" id="DejaVuSans-2212"/>
     </defs>
     <g transform="translate(54 31.56)scale(0.1 -0.1)">
      <use xlink:href="#DejaVuSans-31"/>
      <use x="63.623047" xlink:href="#DejaVuSans-65"/>
      <use x="125.146484" xlink:href="#DejaVuSans-2212"/>
      <use x="208.935547" xlink:href="#DejaVuSans-39"/>
     </g>
    </g>
   </g>
   <g id="line2d_15">
    <path clip-path="url(#p7156decd8f)" d="M 69.218182 66.294454 
L 69.421226 66.375683 
L 70.03036 66.213224 
L 70.842537 66.456913 
L 71.045582 66.131994 
L 71.451671 66.294454 
L 71.654715 66.213224 
L 72.263849 66.375683 
L 72.466893 66.294454 
L 72.872982 66.538143 
L 73.076026 67.187981 
L 73.279071 67.187981 
L 73.888204 65.888305 
L 74.091249 65.888305 
L 74.700382 66.294454 
L 74.903427 66.213224 
L 75.106471 66.294454 
L 75.309515 66.213224 
L 75.51256 66.375683 
L 75.715604 66.131994 
L 75.918649 66.294454 
L 76.324738 66.050764 
L 76.730827 66.375683 
L 76.933871 66.131994 
L 77.136916 66.294454 
L 77.33996 66.050764 
L 77.543004 66.456913 
L 77.746049 66.131994 
L 78.152138 66.294454 
L 78.355182 66.213224 
L 78.558227 66.294454 
L 78.761271 66.131994 
L 78.964316 66.375683 
L 79.776493 66.050764 
L 79.979538 66.213224 
L 80.182582 65.969534 
L 80.385627 66.131994 
L 80.588671 66.050764 
L 80.99476 66.131994 
L 81.197805 65.725845 
L 81.603894 66.050764 
L 81.806938 65.888305 
L 82.213027 66.131994 
L 82.416071 65.807075 
L 82.82216 66.294454 
L 83.025205 65.969534 
L 83.634338 66.213224 
L 84.040427 66.131994 
L 84.446516 66.375683 
L 84.64956 66.050764 
L 84.852605 66.294454 
L 85.055649 66.294454 
L 85.258694 66.131994 
L 85.461738 66.213224 
L 85.664783 66.131994 
L 85.867827 66.213224 
L 86.070871 66.050764 
L 86.47696 66.375683 
L 86.883049 66.294454 
L 87.086094 66.213224 
L 87.695227 66.375683 
L 88.101316 66.294454 
L 88.30436 66.050764 
L 89.522627 65.969534 
L 89.928716 64.913547 
L 90.131761 66.863062 
L 90.334805 65.563385 
L 90.537849 65.644615 
L 90.740894 65.238466 
L 90.943938 63.938789 
L 91.146983 65.725845 
L 91.350027 65.076007 
L 91.553072 64.832317 
L 91.756116 63.6951 
L 91.959161 66.863062 
L 92.162205 64.182479 
L 92.568294 66.131994 
L 92.771338 67.67536 
L 92.974383 65.319696 
L 93.177427 66.375683 
L 93.380472 65.969534 
L 93.583516 65.888305 
L 93.786561 66.213224 
L 93.989605 64.588628 
L 94.19265 68.650118 
L 94.395694 65.319696 
L 94.598739 66.619373 
L 94.801783 63.126491 
L 95.004827 68.243969 
L 95.207872 65.482156 
L 95.410916 66.456913 
L 95.613961 65.563385 
L 95.817005 68.162739 
L 96.02005 65.807075 
L 96.223094 67.512901 
L 96.426139 66.375683 
L 96.629183 67.106752 
L 96.832228 64.994777 
L 97.035272 67.187981 
L 97.238316 66.131994 
L 97.441361 67.269211 
L 97.644405 65.400926 
L 98.050494 66.619373 
L 98.253539 67.187981 
L 98.456583 65.888305 
L 98.659628 66.700603 
L 98.862672 65.644615 
L 99.065717 67.106752 
L 99.268761 66.050764 
L 99.471805 66.863062 
L 99.67485 66.375683 
L 99.877894 66.538143 
L 100.080939 66.944292 
L 100.283983 66.619373 
L 100.487028 66.863062 
L 100.690072 65.969534 
L 100.893117 66.131994 
L 101.096161 66.538143 
L 101.50225 66.619373 
L 101.705294 66.294454 
L 101.908339 67.269211 
L 102.111383 66.131994 
L 102.314428 66.944292 
L 102.517472 65.644615 
L 102.720517 65.888305 
L 103.126606 67.106752 
L 103.32965 66.131994 
L 103.532695 65.807075 
L 103.938783 66.456913 
L 104.141828 67.431671 
L 104.344872 65.563385 
L 104.547917 67.106752 
L 104.750961 65.563385 
L 104.954006 67.350441 
L 105.15705 65.400926 
L 105.360095 66.456913 
L 105.766184 66.050764 
L 105.969228 66.456913 
L 106.172272 66.131994 
L 106.375317 66.700603 
L 106.578361 65.725845 
L 106.98445 66.375683 
L 107.593584 66.294454 
L 107.796628 66.213224 
L 107.999673 66.619373 
L 108.405761 65.888305 
L 108.608806 66.863062 
L 108.81185 65.725845 
L 109.014895 66.538143 
L 109.217939 66.050764 
L 109.624028 66.700603 
L 109.827073 66.538143 
L 110.030117 65.400926 
L 110.233162 67.187981 
L 110.436206 65.969534 
L 110.842295 66.213224 
L 111.045339 65.888305 
L 111.248384 66.538143 
L 111.451428 66.213224 
L 111.654473 66.213224 
L 112.060562 66.700603 
L 112.263606 66.619373 
L 112.46665 65.807075 
L 112.872739 66.456913 
L 113.075784 66.456913 
L 113.278828 66.294454 
L 113.481873 65.969534 
L 113.684917 66.538143 
L 113.887962 66.050764 
L 114.294051 66.294454 
L 114.700139 66.456913 
L 114.903184 65.888305 
L 115.106228 66.538143 
L 115.512317 66.213224 
L 115.715362 65.563385 
L 115.918406 66.294454 
L 116.121451 66.213224 
L 116.52754 66.863062 
L 116.730584 65.888305 
L 116.933628 66.213224 
L 117.136673 66.863062 
L 117.339717 66.050764 
L 117.542762 65.969534 
L 117.745806 66.619373 
L 117.948851 66.375683 
L 118.35494 66.294454 
L 118.557984 66.131994 
L 118.761029 66.538143 
L 118.964073 66.213224 
L 119.167117 66.538143 
L 119.370162 65.888305 
L 119.573206 66.213224 
L 119.776251 66.213224 
L 119.979295 66.538143 
L 120.385384 66.131994 
L 120.588429 66.213224 
L 120.791473 65.888305 
L 120.994518 66.538143 
L 121.197562 66.294454 
L 121.400606 65.725845 
L 121.603651 66.375683 
L 121.806695 66.294454 
L 122.00974 66.619373 
L 122.212784 66.375683 
L 122.618873 66.456913 
L 122.821918 66.050764 
L 123.024962 66.700603 
L 123.228007 66.050764 
L 123.431051 66.456913 
L 123.634095 66.294454 
L 123.83714 66.456913 
L 124.040184 66.294454 
L 124.243229 66.863062 
L 124.446273 66.050764 
L 124.649318 66.375683 
L 125.055407 65.969534 
L 125.258451 66.781832 
L 125.461496 65.969534 
L 125.66454 66.375683 
L 125.867584 66.131994 
L 126.070629 66.781832 
L 126.273673 65.888305 
L 126.476718 65.969534 
L 126.679762 66.863062 
L 126.882807 65.807075 
L 127.085851 66.131994 
L 127.288896 66.131994 
L 127.49194 66.619373 
L 127.694985 66.456913 
L 127.898029 65.725845 
L 128.101073 66.375683 
L 128.304118 65.969534 
L 128.507162 66.456913 
L 128.710207 66.375683 
L 128.913251 65.969534 
L 129.116296 66.700603 
L 129.31934 65.725845 
L 129.522385 65.644615 
L 129.725429 66.538143 
L 129.928474 66.375683 
L 130.131518 66.050764 
L 130.537607 66.375683 
L 130.740651 66.050764 
L 131.349785 66.375683 
L 131.552829 66.131994 
L 131.755874 66.131994 
L 131.958918 65.807075 
L 132.161963 65.888305 
L 132.365007 66.700603 
L 132.568051 65.888305 
L 132.771096 65.969534 
L 132.97414 66.538143 
L 133.177185 66.213224 
L 133.380229 66.781832 
L 133.786318 65.807075 
L 133.989363 65.969534 
L 134.192407 66.619373 
L 134.395452 66.538143 
L 134.598496 65.807075 
L 134.80154 66.456913 
L 135.410674 66.131994 
L 135.613718 66.538143 
L 136.019807 66.050764 
L 136.222852 66.213224 
L 136.628941 66.294454 
L 136.831985 66.375683 
L 137.035029 66.050764 
L 137.441118 66.375683 
L 137.644163 66.050764 
L 137.847207 66.294454 
L 138.050252 66.050764 
L 138.659385 66.375683 
L 138.862429 66.213224 
L 139.065474 66.456913 
L 139.471563 66.131994 
L 139.674607 66.294454 
L 140.080696 65.969534 
L 140.486785 66.619373 
L 140.68983 66.213224 
L 141.095918 66.375683 
L 141.298963 65.888305 
L 141.502007 66.375683 
L 141.705052 66.213224 
L 141.908096 66.294454 
L 142.111141 66.050764 
L 142.720274 66.294454 
L 142.923319 66.131994 
L 143.126363 66.294454 
L 143.735496 66.213224 
L 143.938541 66.050764 
L 144.141585 66.131994 
L 144.34463 66.456913 
L 144.750719 66.213224 
L 145.156808 66.375683 
L 145.765941 66.131994 
L 145.968985 66.294454 
L 146.375074 65.238466 
L 146.984208 66.700603 
L 147.187252 66.050764 
L 147.390297 66.294454 
L 147.593341 66.294454 
L 147.796385 66.456913 
L 148.811608 66.538143 
L 149.014652 66.781832 
L 150.232919 66.375683 
L 150.639008 66.375683 
L 150.842052 66.538143 
L 151.045097 66.456913 
L 151.248141 66.050764 
L 151.451186 66.619373 
L 151.65423 65.969534 
L 152.060319 66.619373 
L 152.263363 66.213224 
L 152.466408 66.294454 
L 152.669452 66.944292 
L 152.872497 66.863062 
L 153.278586 69.056267 
L 153.48163 65.400926 
L 153.684675 68.162739 
L 153.887719 67.91905 
L 154.090764 69.868565 
L 154.293808 66.944292 
L 154.496852 67.75659 
L 154.699897 66.213224 
L 154.902941 67.91905 
L 155.105986 64.913547 
L 155.30903 65.969534 
L 155.512075 64.913547 
L 155.715119 67.106752 
L 155.918164 65.482156 
L 156.121208 66.294454 
L 156.527297 65.807075 
L 156.730341 64.832317 
L 157.13643 65.807075 
L 157.339475 65.563385 
L 157.542519 65.644615 
L 157.745564 65.400926 
L 157.948608 66.213224 
L 158.151653 65.888305 
L 158.354697 64.913547 
L 158.557742 65.725845 
L 158.760786 65.482156 
L 158.96383 66.050764 
L 159.166875 65.725845 
L 159.776008 66.456913 
L 159.979053 65.969534 
L 160.182097 66.375683 
L 160.385142 66.050764 
L 160.588186 66.456913 
L 160.791231 65.725845 
L 160.994275 66.375683 
L 161.400364 66.131994 
L 161.603408 66.375683 
L 161.806453 66.294454 
L 162.009497 66.619373 
L 162.212542 65.969534 
L 162.415586 66.538143 
L 162.618631 66.294454 
L 162.821675 66.619373 
L 163.02472 66.375683 
L 163.227764 66.456913 
L 163.430808 66.375683 
L 163.633853 66.619373 
L 164.242986 66.456913 
L 164.649075 66.375683 
L 164.85212 66.213224 
L 165.055164 67.431671 
L 165.258209 67.187981 
L 165.461253 66.213224 
L 165.664297 66.213224 
L 165.867342 66.863062 
L 166.070386 66.538143 
L 166.476475 66.294454 
L 166.882564 65.725845 
L 167.085609 65.807075 
L 167.288653 65.644615 
L 167.694742 65.888305 
L 167.897786 65.888305 
L 168.100831 66.131994 
L 168.303875 66.050764 
L 168.913009 66.213224 
L 169.116053 66.050764 
L 169.319098 66.375683 
L 169.522142 66.050764 
L 169.928231 66.294454 
L 170.131275 65.807075 
L 170.33432 65.644615 
L 170.537364 63.857559 
L 170.740409 65.644615 
L 171.146498 62.476653 
L 171.349542 69.624876 
L 171.552587 63.938789 
L 171.755631 64.913547 
L 171.958675 61.908044 
L 172.16172 67.187981 
L 172.364764 65.563385 
L 172.567809 66.863062 
L 172.770853 64.344938 
L 172.973898 67.59413 
L 173.176942 66.700603 
L 173.379987 66.781832 
L 173.583031 67.75659 
L 173.786076 66.456913 
L 173.98912 66.213224 
L 174.192164 67.431671 
L 174.395209 67.025522 
L 174.598253 67.431671 
L 174.801298 66.538143 
L 175.004342 66.944292 
L 175.207387 66.863062 
L 175.410431 67.431671 
L 175.613476 66.781832 
L 176.019565 66.863062 
L 176.222609 66.944292 
L 176.425653 66.375683 
L 176.628698 67.025522 
L 176.831742 66.538143 
L 177.034787 67.431671 
L 177.237831 66.619373 
L 177.440876 66.375683 
L 177.64392 66.538143 
L 178.253054 66.456913 
L 178.456098 66.131994 
L 178.862187 66.700603 
L 179.065231 66.538143 
L 179.268276 66.700603 
L 179.47132 66.131994 
L 179.674365 66.456913 
L 179.877409 66.538143 
L 180.080454 66.375683 
L 180.283498 66.375683 
L 180.486543 66.538143 
L 180.689587 66.213224 
L 180.892631 66.538143 
L 181.095676 66.050764 
L 181.29872 66.213224 
L 181.501765 66.131994 
L 181.704809 66.700603 
L 181.907854 66.294454 
L 182.313943 66.456913 
L 182.516987 66.213224 
L 182.720032 66.375683 
L 182.923076 66.294454 
L 183.329165 66.375683 
L 183.532209 66.131994 
L 183.735254 66.294454 
L 183.938298 66.294454 
L 184.141343 66.131994 
L 184.344387 66.619373 
L 184.750476 66.131994 
L 185.156565 66.456913 
L 185.562654 66.213224 
L 185.765698 66.213224 
L 185.968743 66.456913 
L 186.171787 66.375683 
L 186.577876 66.050764 
L 186.780921 66.213224 
L 187.593098 66.213224 
L 187.796143 66.375683 
L 187.999187 66.131994 
L 188.811365 66.213224 
L 189.01441 66.375683 
L 189.420499 66.131994 
L 189.623543 66.375683 
L 189.826587 66.213224 
L 190.029632 66.375683 
L 190.84181 65.807075 
L 191.247899 65.969534 
L 191.450943 65.888305 
L 191.653988 66.050764 
L 192.060076 66.131994 
L 192.466165 66.213224 
L 192.66921 66.050764 
L 192.872254 66.294454 
L 193.481388 66.213224 
L 193.684432 66.131994 
L 193.887476 66.213224 
L 194.090521 66.050764 
L 194.293565 66.131994 
L 194.49661 66.050764 
L 194.699654 66.294454 
L 194.902699 66.050764 
L 195.105743 66.213224 
L 196.120965 66.131994 
L 196.527054 66.538143 
L 196.730099 66.213224 
L 196.933143 66.456913 
L 197.339232 66.131994 
L 197.745321 66.375683 
L 197.948366 66.213224 
L 198.15141 66.294454 
L 198.354454 66.131994 
L 198.557499 66.375683 
L 198.760543 66.213224 
L 198.963588 66.294454 
L 199.166632 66.213224 
L 199.369677 66.375683 
L 199.775766 66.294454 
L 200.181855 66.375683 
L 200.587943 66.294454 
L 200.790988 66.213224 
L 200.994032 66.456913 
L 201.197077 66.294454 
L 202.009255 66.294454 
L 202.212299 66.131994 
L 202.415344 66.131994 
L 202.618388 66.294454 
L 204.242744 66.375683 
L 204.445788 66.456913 
L 204.648833 66.294454 
L 205.054921 66.375683 
L 205.867099 66.375683 
L 206.070144 66.538143 
L 206.273188 66.294454 
L 206.476233 66.538143 
L 206.679277 66.213224 
L 206.882322 66.375683 
L 207.085366 66.375683 
L 207.28841 66.213224 
L 207.491455 66.375683 
L 207.694499 66.375683 
L 207.897544 66.213224 
L 208.100588 66.375683 
L 208.303633 66.213224 
L 208.506677 66.538143 
L 208.709722 66.375683 
L 208.912766 66.538143 
L 209.115811 66.375683 
L 209.318855 66.538143 
L 209.521899 66.213224 
L 209.724944 66.294454 
L 209.927988 66.213224 
L 210.740166 66.456913 
L 210.943211 66.213224 
L 211.146255 66.538143 
L 211.3493 66.294454 
L 211.552344 66.538143 
L 211.755388 66.294454 
L 211.958433 66.456913 
L 212.364522 66.375683 
L 212.567566 66.294454 
L 212.770611 66.375683 
L 212.973655 66.213224 
L 213.1767 66.375683 
L 213.379744 66.213224 
L 213.582789 66.294454 
L 213.785833 66.213224 
L 213.988877 66.294454 
L 214.191922 66.131994 
L 214.394966 66.294454 
L 214.598011 66.050764 
L 215.613233 66.375683 
L 216.222366 66.375683 
L 216.425411 65.969534 
L 216.628455 66.294454 
L 217.034544 66.131994 
L 217.237589 66.213224 
L 217.440633 66.131994 
L 217.846722 66.294454 
L 218.252811 66.213224 
L 218.455855 66.375683 
L 218.6589 66.131994 
L 218.861944 66.131994 
L 219.064989 66.294454 
L 219.268033 66.131994 
L 219.674122 66.456913 
L 219.877167 66.131994 
L 220.080211 66.538143 
L 220.283256 66.131994 
L 220.4863 66.456913 
L 220.689344 65.969534 
L 220.892389 66.294454 
L 221.095433 66.213224 
L 221.298478 66.538143 
L 221.501522 66.131994 
L 221.704567 66.619373 
L 221.907611 66.213224 
L 222.110656 66.619373 
L 222.3137 65.888305 
L 222.516744 66.375683 
L 222.922833 66.294454 
L 223.125878 66.456913 
L 223.328922 66.294454 
L 223.531967 66.538143 
L 223.735011 66.050764 
L 223.938056 66.213224 
L 224.1411 66.213224 
L 224.344145 66.538143 
L 224.547189 66.375683 
L 224.953278 66.863062 
L 225.156322 66.781832 
L 225.359367 69.787335 
L 225.562411 66.050764 
L 225.765456 65.888305 
L 226.171545 68.487658 
L 226.374589 67.106752 
L 226.577634 67.350441 
L 226.780678 66.863062 
L 226.983722 67.91905 
L 227.186767 67.91905 
L 227.389811 68.406428 
L 227.592856 65.644615 
L 227.7959 64.669857 
L 227.998945 67.187981 
L 228.201989 65.482156 
L 228.405034 68.000279 
L 228.811123 65.725845 
L 229.217211 66.213224 
L 229.420256 65.238466 
L 229.6233 65.482156 
L 229.826345 65.319696 
L 230.029389 66.050764 
L 230.232434 65.482156 
L 230.435478 66.456913 
L 230.841567 64.913547 
L 231.044612 65.969534 
L 231.247656 65.725845 
L 231.4507 66.131994 
L 231.653745 65.563385 
L 231.856789 66.131994 
L 232.262878 65.725845 
L 232.465923 65.969534 
L 232.668967 65.319696 
L 232.872012 66.050764 
L 233.075056 65.807075 
L 233.278101 66.131994 
L 233.481145 66.131994 
L 233.684189 66.294454 
L 234.090278 66.050764 
L 234.293323 66.213224 
L 234.496367 66.131994 
L 234.902456 66.294454 
L 235.308545 65.969534 
L 235.51159 66.375683 
L 235.714634 66.131994 
L 235.917678 66.131994 
L 236.120723 66.375683 
L 236.323767 66.131994 
L 237.33899 66.456913 
L 237.948123 66.294454 
L 238.354212 66.294454 
L 238.557256 66.456913 
L 238.760301 66.213224 
L 238.963345 66.213224 
L 239.16639 66.456913 
L 239.369434 66.294454 
L 239.572479 66.375683 
L 239.775523 66.294454 
L 240.181612 66.538143 
L 240.384656 67.106752 
L 240.587701 67.187981 
L 240.790745 66.294454 
L 240.99379 65.969534 
L 241.196834 66.050764 
L 241.602923 66.456913 
L 241.805968 66.213224 
L 242.415101 66.213224 
L 242.618145 65.969534 
L 242.82119 65.969534 
L 243.024234 65.807075 
L 243.633368 65.969534 
L 244.242501 66.050764 
L 244.445546 66.131994 
L 244.64859 66.050764 
L 245.054679 66.294454 
L 245.460768 65.969534 
L 245.663812 66.131994 
L 245.866857 66.131994 
L 246.272946 65.888305 
L 246.47599 66.213224 
L 246.882079 65.807075 
L 247.288168 66.131994 
L 247.491212 65.888305 
L 247.694257 66.294454 
L 248.100346 65.400926 
L 248.30339 65.888305 
L 248.506435 65.807075 
L 248.709479 64.669857 
L 248.912524 64.344938 
L 249.115568 64.669857 
L 249.318612 66.050764 
L 249.521657 63.61387 
L 249.724701 64.588628 
L 249.927746 66.294454 
L 250.13079 64.832317 
L 250.333835 64.426168 
L 250.536879 66.944292 
L 250.739924 65.319696 
L 250.942968 65.807075 
L 251.146012 66.781832 
L 251.349057 65.157236 
L 251.552101 66.781832 
L 251.755146 67.350441 
L 251.95819 66.781832 
L 252.161235 65.725845 
L 252.567324 66.863062 
L 252.770368 66.863062 
L 252.973413 67.106752 
L 253.379501 67.187981 
L 253.582546 66.944292 
L 253.78559 66.131994 
L 253.988635 67.431671 
L 254.191679 66.294454 
L 254.394724 67.350441 
L 254.597768 66.619373 
L 254.800813 66.781832 
L 255.003857 66.213224 
L 255.206902 66.944292 
L 255.409946 66.213224 
L 255.61299 66.863062 
L 255.816035 66.863062 
L 256.019079 66.050764 
L 256.222124 67.106752 
L 256.425168 66.131994 
L 256.628213 66.213224 
L 256.831257 66.538143 
L 257.034302 65.969534 
L 257.237346 65.969534 
L 257.440391 66.538143 
L 257.643435 66.538143 
L 257.846479 66.375683 
L 258.049524 65.725845 
L 258.252568 66.456913 
L 258.455613 66.619373 
L 258.658657 66.375683 
L 259.064746 66.375683 
L 259.267791 66.213224 
L 259.470835 66.456913 
L 259.67388 66.456913 
L 259.876924 66.131994 
L 260.079968 66.131994 
L 260.283013 66.456913 
L 260.689102 66.538143 
L 260.892146 66.050764 
L 261.298235 66.131994 
L 261.704324 66.131994 
L 261.907369 66.294454 
L 262.110413 66.050764 
L 262.313457 66.213224 
L 262.516502 66.050764 
L 262.719546 66.375683 
L 262.922591 66.294454 
L 263.125635 66.375683 
L 263.32868 66.050764 
L 263.531724 66.294454 
L 263.734769 66.050764 
L 263.937813 66.213224 
L 264.140858 65.888305 
L 264.546946 66.213224 
L 265.562169 66.294454 
L 265.765213 65.888305 
L 265.968258 66.294454 
L 266.171302 66.131994 
L 266.374347 66.213224 
L 266.577391 65.969534 
L 266.780435 66.131994 
L 267.186524 66.050764 
L 267.592613 65.644615 
L 267.795658 65.725845 
L 267.998702 65.644615 
L 268.404791 66.294454 
L 268.607836 66.131994 
L 268.81088 66.294454 
L 269.013924 66.050764 
L 269.216969 66.294454 
L 269.623058 66.213224 
L 269.826102 66.375683 
L 270.232191 66.213224 
L 270.435236 66.456913 
L 270.841325 66.375683 
L 271.044369 66.538143 
L 271.247413 66.456913 
L 271.450458 66.538143 
L 271.653502 66.375683 
L 271.856547 66.456913 
L 272.059591 66.375683 
L 272.262636 66.456913 
L 272.46568 66.213224 
L 272.668725 66.456913 
L 273.074814 66.294454 
L 273.277858 66.538143 
L 273.480902 66.050764 
L 273.683947 66.375683 
L 274.496125 66.375683 
L 274.902214 66.131994 
L 275.105258 66.538143 
L 275.511347 66.131994 
L 275.714391 66.375683 
L 275.917436 66.213224 
L 276.12048 66.375683 
L 276.526569 66.294454 
L 276.729614 66.375683 
L 277.135703 66.050764 
L 277.338747 66.294454 
L 278.963103 66.375683 
L 279.166147 66.131994 
L 279.572236 66.456913 
L 279.978325 66.213224 
L 280.587458 66.375683 
L 280.790503 66.213224 
L 280.993547 66.375683 
L 281.196592 66.131994 
L 281.399636 66.294454 
L 282.008769 66.294454 
L 282.211814 66.131994 
L 282.820947 66.294454 
L 284.039214 66.213224 
L 284.242258 66.131994 
L 284.445303 66.213224 
L 284.648347 66.538143 
L 284.851392 66.050764 
L 285.257481 66.375683 
L 285.460525 66.456913 
L 285.866614 66.375683 
L 286.069659 66.538143 
L 286.272703 66.294454 
L 286.475747 66.375683 
L 286.881836 66.050764 
L 287.084881 66.619373 
L 287.287925 66.213224 
L 287.49097 66.294454 
L 287.694014 66.213224 
L 287.897059 66.456913 
L 288.303148 66.213224 
L 288.506192 66.131994 
L 288.709236 66.456913 
L 288.912281 66.538143 
L 289.115325 66.050764 
L 289.31837 66.700603 
L 289.521414 66.050764 
L 289.724459 66.294454 
L 289.927503 66.294454 
L 290.333592 66.538143 
L 290.536637 66.213224 
L 290.739681 66.538143 
L 291.14577 66.131994 
L 291.551859 66.456913 
L 291.754903 66.538143 
L 291.957948 66.375683 
L 292.160992 66.456913 
L 292.567081 66.294454 
L 292.770126 66.456913 
L 293.176214 66.538143 
L 293.379259 66.131994 
L 293.785348 66.700603 
L 293.988392 66.131994 
L 294.191437 66.619373 
L 294.394481 66.131994 
L 294.597526 66.700603 
L 294.80057 66.131994 
L 295.003615 66.538143 
L 295.206659 66.294454 
L 295.612748 66.781832 
L 295.815792 65.888305 
L 296.221881 66.619373 
L 296.424926 66.213224 
L 296.62797 66.863062 
L 296.831015 66.131994 
L 297.034059 66.456913 
L 297.237104 66.050764 
L 297.440148 66.456913 
L 297.643192 66.375683 
L 297.846237 65.807075 
L 298.049281 66.944292 
L 298.252326 67.025522 
L 298.45537 65.563385 
L 298.658415 67.91905 
L 298.861459 65.319696 
L 299.064504 67.106752 
L 299.267548 65.969534 
L 299.470593 67.59413 
L 299.673637 65.238466 
L 299.876681 66.944292 
L 300.079726 66.944292 
L 300.485815 66.375683 
L 300.688859 66.944292 
L 300.891904 65.888305 
L 301.094948 66.538143 
L 301.297993 65.563385 
L 301.704082 67.350441 
L 301.907126 66.294454 
L 302.11017 66.375683 
L 302.313215 66.781832 
L 302.516259 67.75659 
L 302.719304 65.807075 
L 303.125393 67.025522 
L 303.328437 65.563385 
L 303.531482 68.000279 
L 303.734526 65.400926 
L 303.937571 64.994777 
L 304.140615 66.700603 
L 304.343659 66.619373 
L 304.546704 65.888305 
L 304.749748 67.025522 
L 304.952793 64.507398 
L 305.155837 66.456913 
L 305.358882 65.563385 
L 305.764971 66.375683 
L 305.968015 66.050764 
L 306.171059 66.213224 
L 306.374104 70.599633 
L 306.780193 64.588628 
L 306.983237 65.725845 
L 307.186282 63.53264 
L 307.389326 67.269211 
L 307.592371 65.807075 
L 307.795415 66.294454 
L 307.99846 66.050764 
L 308.201504 66.538143 
L 308.404548 72.06177 
L 308.607593 60.608367 
L 308.810637 65.969534 
L 309.013682 68.000279 
L 309.216726 65.482156 
L 309.419771 67.67536 
L 309.622815 64.263708 
L 309.82586 66.538143 
L 310.028904 65.888305 
L 310.231949 65.725845 
L 310.434993 66.700603 
L 310.638037 65.644615 
L 310.841082 66.213224 
L 311.044126 66.050764 
L 311.247171 66.294454 
L 311.450215 66.294454 
L 311.65326 65.807075 
L 311.856304 66.619373 
L 312.059349 66.863062 
L 312.262393 68.812577 
L 312.465438 67.67536 
L 312.668482 65.725845 
L 312.871526 61.826814 
L 313.074571 72.386689 
L 313.277615 64.507398 
L 313.48066 63.53264 
L 313.683704 64.263708 
L 314.089793 66.700603 
L 314.292838 65.888305 
L 314.698927 66.131994 
L 314.901971 67.269211 
L 315.105015 67.512901 
L 315.30806 61.176976 
L 315.511104 61.501895 
L 315.714149 76.04203 
L 315.917193 63.857559 
L 316.120238 67.91905 
L 316.323282 63.207721 
L 316.526327 62.232963 
L 316.729371 66.050764 
L 316.932416 66.944292 
L 317.13546 70.762093 
L 317.338504 66.375683 
L 317.541549 65.725845 
L 317.744593 63.45141 
L 317.947638 66.294454 
L 318.150682 66.456913 
L 318.353727 66.375683 
L 318.556771 66.863062 
L 318.759816 67.025522 
L 318.96286 64.020019 
L 319.165905 66.700603 
L 319.368949 63.288951 
L 319.571993 70.762093 
L 319.775038 59.796069 
L 319.978082 70.112254 
L 320.181127 67.67536 
L 320.384171 67.350441 
L 320.587216 64.507398 
L 320.79026 66.050764 
L 320.993305 65.400926 
L 321.399394 67.106752 
L 322.008527 65.725845 
L 322.211571 67.91905 
L 322.414616 66.375683 
L 322.61766 65.888305 
L 322.820705 65.076007 
L 323.023749 66.944292 
L 323.226794 66.050764 
L 323.429838 66.294454 
L 323.632883 65.400926 
L 323.835927 66.538143 
L 324.038971 66.213224 
L 324.242016 66.456913 
L 324.44506 66.456913 
L 324.648105 64.344938 
L 325.054194 67.269211 
L 325.257238 65.725845 
L 325.460283 68.081509 
L 325.663327 66.294454 
L 325.866372 67.512901 
L 326.069416 64.426168 
L 326.27246 64.426168 
L 326.475505 69.137497 
L 326.678549 69.624876 
L 326.881594 67.75659 
L 327.084638 64.832317 
L 327.490727 65.807075 
L 327.693772 64.913547 
L 327.896816 66.456913 
L 328.099861 64.832317 
L 328.302905 64.426168 
L 328.505949 58.090243 
L 328.708994 71.89931 
L 329.115083 60.445908 
L 329.318127 73.036527 
L 329.521172 66.213224 
L 329.724216 69.624876 
L 330.130305 62.964032 
L 330.33335 62.314193 
L 330.739438 68.081509 
L 330.942483 76.20449 
L 331.348572 62.395423 
L 331.551616 70.599633 
L 331.754661 64.507398 
L 332.16075 67.67536 
L 332.363794 64.669857 
L 332.566838 67.350441 
L 332.769883 65.969534 
L 332.972927 65.807075 
L 333.175972 67.350441 
L 333.379016 66.538143 
L 333.582061 64.101249 
L 333.98815 68.812577 
L 334.191194 66.619373 
L 334.394239 65.807075 
L 334.597283 63.61387 
L 335.003372 67.67536 
L 335.206416 64.182479 
L 335.409461 65.725845 
L 335.612505 64.832317 
L 336.018594 69.218726 
L 336.424683 64.507398 
L 336.627728 65.076007 
L 336.830772 70.355944 
L 337.236861 64.913547 
L 337.439905 66.375683 
L 337.64295 66.863062 
L 337.845994 66.538143 
L 338.049039 60.039759 
L 338.252083 72.711608 
L 338.455128 63.61387 
L 338.861217 69.137497 
L 339.064261 63.370181 
L 339.267305 66.538143 
L 339.47035 65.482156 
L 339.673394 62.395423 
L 339.876439 71.411931 
L 340.282528 64.832317 
L 340.485572 66.213224 
L 340.688617 66.213224 
L 340.891661 66.863062 
L 341.094706 65.725845 
L 341.29775 71.005782 
L 341.500794 64.751087 
L 341.703839 62.557883 
L 341.906883 68.081509 
L 342.109928 65.482156 
L 342.312972 66.213224 
L 342.516017 61.258206 
L 342.719061 70.762093 
L 342.922106 68.568888 
L 343.12515 63.288951 
L 343.531239 68.568888 
L 343.734283 66.700603 
L 343.937328 66.619373 
L 344.140372 64.344938 
L 344.343417 64.588628 
L 344.546461 74.173745 
L 344.749506 66.700603 
L 344.95255 63.77633 
L 345.155595 69.706105 
L 345.358639 69.381186 
L 345.561684 62.882802 
L 345.764728 70.599633 
L 345.967772 64.913547 
L 346.170817 44.443636 
L 346.373861 63.77633 
L 346.576906 66.781832 
L 346.77995 66.294454 
L 346.982995 67.59413 
L 347.186039 65.076007 
L 347.389084 66.619373 
L 347.592128 66.294454 
L 347.795173 65.157236 
L 347.998217 67.187981 
L 348.201261 65.076007 
L 348.404306 69.218726 
L 348.810395 65.563385 
L 349.013439 67.350441 
L 349.216484 65.888305 
L 349.419528 66.619373 
L 349.622573 66.456913 
L 349.825617 66.538143 
L 350.028662 66.375683 
L 350.231706 66.375683 
L 350.43475 66.863062 
L 350.637795 66.131994 
L 350.840839 66.213224 
L 351.043884 66.781832 
L 351.246928 66.213224 
L 351.449973 66.294454 
L 351.856062 66.700603 
L 352.059106 66.700603 
L 352.465195 66.294454 
L 352.668239 66.294454 
L 353.074328 66.538143 
L 353.277373 66.619373 
L 353.480417 66.294454 
L 353.683462 66.538143 
L 353.886506 66.538143 
L 354.089551 66.213224 
L 354.292595 66.294454 
L 354.49564 66.619373 
L 354.698684 66.700603 
L 354.901728 66.131994 
L 355.104773 66.456913 
L 355.307817 66.538143 
L 355.510862 66.294454 
L 355.713906 66.456913 
L 355.916951 66.131994 
L 356.119995 66.375683 
L 356.729129 66.213224 
L 356.932173 66.375683 
L 357.135217 66.294454 
L 357.338262 66.538143 
L 357.744351 66.294454 
L 357.947395 66.538143 
L 358.15044 66.131994 
L 358.353484 66.700603 
L 358.759573 66.131994 
L 359.165662 66.619373 
L 359.368706 66.050764 
L 359.571751 66.294454 
L 359.774795 66.781832 
L 360.383929 65.563385 
L 360.586973 66.944292 
L 360.790018 65.888305 
L 360.993062 68.487658 
L 361.196106 66.375683 
L 361.399151 66.456913 
L 361.602195 65.969534 
L 361.80524 66.131994 
L 362.211329 66.131994 
L 362.414373 66.294454 
L 362.617418 66.294454 
L 363.023507 65.969534 
L 363.226551 66.131994 
L 363.429595 65.888305 
L 363.63264 65.888305 
L 363.835684 66.050764 
L 364.241773 65.969534 
L 364.850907 66.131994 
L 365.053951 65.888305 
L 365.256996 65.969534 
L 365.46004 65.725845 
L 365.866129 65.807075 
L 366.069173 66.050764 
L 366.475262 65.644615 
L 366.678307 66.050764 
L 366.881351 66.131994 
L 367.084396 65.807075 
L 367.28744 65.807075 
L 367.693529 66.050764 
L 367.896573 65.482156 
L 368.099618 66.375683 
L 368.302662 66.456913 
L 368.505707 66.131994 
L 368.708751 65.563385 
L 368.911796 65.969534 
L 369.11484 65.888305 
L 369.317885 66.213224 
L 369.723974 63.45141 
L 369.927018 64.994777 
L 370.130062 60.283448 
L 370.333107 61.420665 
L 370.536151 60.283448 
L 370.739196 58.496392 
L 370.94224 60.770827 
L 371.145285 60.933287 
L 371.348329 67.75659 
L 371.551374 65.807075 
L 371.957463 67.431671 
L 372.160507 67.269211 
L 372.363551 66.294454 
L 372.566596 69.624876 
L 372.76964 64.913547 
L 372.972685 71.655621 
L 373.175729 67.106752 
L 373.378774 69.543646 
L 373.581818 67.91905 
L 373.581818 67.91905 
" style="fill:none;stroke:#ff0000;stroke-linecap:square;stroke-width:1.5;"/>
   </g>
   <g id="line2d_16">
    <path clip-path="url(#p7156decd8f)" d="M 69.218182 220.71231 
L 69.421226 220.501113 
L 69.827315 220.590466 
L 70.233404 220.557974 
L 70.842537 220.541728 
L 71.045582 220.728556 
L 71.248626 220.614835 
L 71.451671 220.752925 
L 71.654715 220.509236 
L 71.85776 220.476744 
L 72.060804 220.752925 
L 72.466893 220.801663 
L 72.669938 220.728556 
L 72.872982 221.045353 
L 73.076026 221.605838 
L 73.279071 221.540854 
L 73.888204 220.452375 
L 74.091249 220.371145 
L 74.903427 220.891016 
L 76.527782 220.647327 
L 76.730827 220.736679 
L 77.33996 220.541728 
L 77.543004 220.71231 
L 77.746049 220.338653 
L 77.949093 220.622958 
L 78.152138 220.525482 
L 78.355182 220.622958 
L 78.558227 220.501113 
L 78.761271 220.582343 
L 78.964316 220.49299 
L 79.16736 220.671695 
L 79.370405 220.49299 
L 79.573449 220.663572 
L 79.979538 220.606712 
L 80.385627 220.606712 
L 80.588671 220.671695 
L 80.791716 220.525482 
L 81.197805 220.622958 
L 81.400849 220.354899 
L 81.603894 220.606712 
L 82.416071 220.403637 
L 82.82216 220.566097 
L 83.431294 220.582343 
L 83.837382 220.436129 
L 84.243471 220.614835 
L 84.446516 220.436129 
L 84.64956 220.436129 
L 84.852605 220.809786 
L 85.055649 220.541728 
L 85.258694 220.57422 
L 85.461738 220.736679 
L 86.273916 220.452375 
L 86.47696 220.606712 
L 86.680005 220.452375 
L 86.883049 220.704187 
L 87.086094 220.704187 
L 87.289138 220.541728 
L 87.492183 220.679818 
L 87.695227 220.468621 
L 87.898272 220.622958 
L 88.507405 220.549851 
L 88.710449 220.639204 
L 88.913494 220.306161 
L 89.116538 220.403637 
L 89.319583 220.216809 
L 89.522627 220.314284 
L 89.725672 219.599462 
L 89.928716 219.412634 
L 90.131761 221.459625 
L 90.334805 219.851274 
L 90.537849 219.818783 
L 90.740894 219.258297 
L 90.943938 217.966743 
L 91.146983 220.078718 
L 91.350027 219.201436 
L 91.553072 219.055222 
L 91.756116 217.893636 
L 91.959161 221.25655 
L 92.162205 218.494737 
L 92.568294 220.41176 
L 92.771338 222.223185 
L 92.974383 219.599462 
L 93.177427 220.899139 
L 93.380472 220.49299 
L 93.583516 220.338653 
L 93.786561 220.720433 
L 93.989605 218.72218 
L 94.19265 223.344156 
L 94.395694 219.575093 
L 94.598739 221.191566 
L 94.801783 216.89451 
L 95.004827 222.905515 
L 95.207872 219.916258 
L 95.410916 221.142828 
L 95.613961 219.908135 
L 95.817005 222.694318 
L 96.02005 220.176194 
L 96.223094 222.296292 
L 96.426139 220.696064 
L 96.629183 221.589592 
L 96.832228 219.10396 
L 97.035272 221.703314 
L 97.238316 220.395514 
L 97.441361 221.768298 
L 97.644405 219.558847 
L 98.050494 221.053476 
L 98.253539 221.833282 
L 98.456583 220.11121 
L 98.659628 221.305288 
L 98.862672 220.038103 
L 99.065717 221.906388 
L 99.268761 220.509236 
L 99.471805 221.305288 
L 99.67485 220.744802 
L 99.877894 220.842278 
L 100.080939 221.475871 
L 100.283983 220.947877 
L 100.487028 221.215935 
L 100.690072 220.151825 
L 101.096161 220.980369 
L 101.299206 220.834155 
L 101.50225 220.915385 
L 101.705294 220.501113 
L 101.908339 221.784544 
L 102.111383 220.647327 
L 102.314428 221.394641 
L 102.517472 220.224932 
L 102.720517 220.306161 
L 103.126606 221.703314 
L 103.32965 220.419883 
L 103.532695 220.387391 
L 103.938783 220.87477 
L 104.141828 221.906388 
L 104.344872 219.786291 
L 104.547917 221.654576 
L 104.750961 220.19244 
L 104.954006 222.141955 
L 105.15705 219.640077 
L 105.360095 220.752925 
L 105.563139 220.761048 
L 105.766184 220.549851 
L 105.969228 221.077844 
L 106.172272 220.533605 
L 106.375317 221.305288 
L 106.578361 220.241178 
L 106.781406 220.525482 
L 107.187495 220.65545 
L 107.390539 221.029107 
L 107.593584 220.614835 
L 107.796628 220.598589 
L 107.999673 221.118459 
L 108.202717 220.468621 
L 108.405761 220.346776 
L 108.608806 221.386518 
L 108.81185 220.062472 
L 109.014895 221.004738 
L 109.217939 220.525482 
L 109.624028 220.923508 
L 109.827073 220.899139 
L 110.030117 219.72943 
L 110.233162 221.581469 
L 110.436206 220.614835 
L 110.63925 220.354899 
L 110.842295 220.752925 
L 111.045339 220.233055 
L 111.248384 220.57422 
L 111.654473 220.452375 
L 111.857517 220.923508 
L 112.060562 220.728556 
L 112.263606 220.980369 
L 112.46665 220.046226 
L 112.669695 220.647327 
L 112.872739 220.834155 
L 113.278828 220.785417 
L 113.481873 220.452375 
L 113.684917 221.159074 
L 113.887962 220.517359 
L 114.294051 220.663572 
L 114.497095 220.622958 
L 114.700139 220.988492 
L 114.903184 220.005611 
L 115.106228 220.817909 
L 115.309273 220.566097 
L 115.512317 220.65545 
L 115.715362 219.786291 
L 115.918406 220.866647 
L 116.324495 220.41176 
L 116.52754 221.03723 
L 116.730584 220.19244 
L 116.933628 220.444252 
L 117.136673 221.272796 
L 117.339717 220.476744 
L 117.542762 220.314284 
L 117.745806 220.891016 
L 118.151895 220.541728 
L 118.35494 220.509236 
L 118.557984 220.354899 
L 118.761029 220.915385 
L 118.964073 220.639204 
L 119.167117 221.069722 
L 119.370162 220.484867 
L 119.573206 220.728556 
L 119.776251 220.525482 
L 119.979295 220.988492 
L 120.791473 220.314284 
L 120.994518 220.980369 
L 121.197562 220.736679 
L 121.400606 220.314284 
L 121.603651 220.752925 
L 121.806695 220.525482 
L 122.00974 220.931631 
L 122.212784 220.647327 
L 122.415829 220.801663 
L 122.618873 220.744802 
L 122.821918 220.127456 
L 123.024962 220.939754 
L 123.228007 220.281792 
L 123.431051 220.842278 
L 123.634095 220.65545 
L 123.83714 221.045353 
L 124.040184 220.57422 
L 124.243229 221.110336 
L 124.446273 220.298038 
L 124.649318 220.931631 
L 124.852362 220.322407 
L 125.055407 220.224932 
L 125.258451 221.150951 
L 125.461496 220.387391 
L 125.66454 220.850401 
L 125.867584 220.566097 
L 126.070629 221.207812 
L 126.273673 220.281792 
L 126.476718 220.224932 
L 126.679762 221.321534 
L 126.882807 220.395514 
L 127.085851 220.541728 
L 127.288896 220.338653 
L 127.49194 221.09409 
L 127.694985 220.834155 
L 127.898029 220.103087 
L 128.101073 220.606712 
L 128.304118 220.403637 
L 128.507162 220.947877 
L 128.710207 220.777294 
L 128.913251 220.159948 
L 129.116296 221.500239 
L 129.31934 220.200563 
L 129.522385 220.338653 
L 129.725429 221.215935 
L 129.928474 220.907262 
L 130.131518 220.387391 
L 130.537607 220.744802 
L 130.943696 220.501113 
L 131.14674 220.533605 
L 131.349785 220.696064 
L 131.552829 220.57422 
L 131.755874 220.590466 
L 131.958918 220.354899 
L 132.161963 220.379268 
L 132.365007 221.17532 
L 132.568051 220.346776 
L 132.771096 220.379268 
L 132.97414 220.785417 
L 133.177185 220.533605 
L 133.380229 220.882893 
L 133.583274 220.777294 
L 133.786318 220.11121 
L 133.989363 220.354899 
L 134.192407 221.159074 
L 134.395452 220.87477 
L 134.598496 220.094964 
L 134.80154 220.809786 
L 135.004585 220.87477 
L 135.410674 220.436129 
L 135.816763 220.785417 
L 136.425896 220.143702 
L 136.628941 220.65545 
L 136.831985 220.752925 
L 137.035029 220.346776 
L 137.238074 220.744802 
L 137.441118 220.696064 
L 137.644163 220.49299 
L 137.847207 220.679818 
L 138.050252 220.289915 
L 138.253296 220.49299 
L 138.659385 220.444252 
L 139.065474 220.882893 
L 139.268518 220.338653 
L 139.471563 220.289915 
L 139.674607 220.525482 
L 140.080696 220.184317 
L 140.283741 220.679818 
L 140.486785 220.744802 
L 140.68983 220.200563 
L 141.095918 220.696064 
L 141.298963 220.379268 
L 141.502007 220.79354 
L 141.705052 220.631081 
L 141.908096 220.696064 
L 142.111141 220.468621 
L 142.314185 220.647327 
L 142.923319 220.582343 
L 143.126363 220.671695 
L 143.735496 220.265546 
L 144.34463 220.704187 
L 144.547674 220.541728 
L 144.953763 220.582343 
L 145.156808 220.436129 
L 145.562896 220.590466 
L 145.765941 220.428006 
L 145.968985 220.49299 
L 146.17203 220.371145 
L 146.375074 219.615708 
L 146.578119 219.973119 
L 146.984208 221.09409 
L 147.187252 220.533605 
L 147.593341 220.614835 
L 147.796385 220.980369 
L 147.99943 220.858524 
L 148.405519 221.142828 
L 148.608563 221.272796 
L 148.811608 221.03723 
L 149.217697 221.118459 
L 149.623786 220.834155 
L 149.82683 221.134705 
L 150.029874 220.907262 
L 150.232919 220.931631 
L 150.435963 220.817909 
L 150.639008 221.077844 
L 150.842052 220.728556 
L 151.045097 220.996615 
L 151.248141 220.687941 
L 151.451186 221.305288 
L 151.65423 220.501113 
L 152.060319 221.09409 
L 152.263363 220.752925 
L 152.466408 220.801663 
L 152.669452 221.500239 
L 152.872497 221.313411 
L 153.278586 223.652829 
L 153.48163 219.761922 
L 153.684675 222.767424 
L 153.887719 222.499366 
L 154.090764 224.895645 
L 154.293808 221.443379 
L 154.496852 222.2638 
L 154.699897 220.679818 
L 154.902941 222.791793 
L 155.105986 219.030853 
L 155.30903 220.444252 
L 155.512075 219.290789 
L 155.715119 221.662699 
L 155.918164 219.794414 
L 156.121208 220.720433 
L 156.324253 220.387391 
L 156.527297 220.33053 
L 156.730341 219.258297 
L 156.933386 219.859397 
L 157.13643 220.11121 
L 157.339475 220.038103 
L 157.542519 220.094964 
L 157.745564 219.761922 
L 157.948608 220.525482 
L 158.151653 220.306161 
L 158.354697 219.217682 
L 158.557742 220.054349 
L 158.760786 219.875643 
L 158.96383 220.598589 
L 159.166875 220.289915 
L 159.572964 220.419883 
L 159.776008 220.65545 
L 159.979053 220.289915 
L 160.182097 220.826032 
L 160.385142 220.452375 
L 160.588186 220.71231 
L 160.791231 219.900012 
L 160.994275 220.647327 
L 161.197319 220.622958 
L 161.400364 220.273669 
L 161.603408 220.720433 
L 161.806453 220.71231 
L 162.009497 220.891016 
L 162.212542 220.346776 
L 162.415586 220.777294 
L 162.618631 220.639204 
L 162.821675 220.761048 
L 163.02472 220.598589 
L 163.227764 220.704187 
L 163.430808 220.549851 
L 163.633853 220.866647 
L 164.039942 220.834155 
L 164.242986 220.931631 
L 164.446031 220.582343 
L 164.85212 220.614835 
L 165.055164 221.88202 
L 165.258209 221.540854 
L 165.461253 220.379268 
L 165.664297 220.452375 
L 165.867342 221.17532 
L 166.070386 220.501113 
L 166.273431 220.622958 
L 166.476475 220.41176 
L 166.67952 220.57422 
L 166.882564 220.103087 
L 167.085609 220.070595 
L 167.288653 219.924381 
L 167.491697 220.176194 
L 167.897786 220.038103 
L 168.100831 220.371145 
L 168.303875 220.444252 
L 168.50692 220.184317 
L 168.709964 220.614835 
L 168.913009 220.322407 
L 169.116053 220.281792 
L 169.319098 220.468621 
L 169.725186 220.363022 
L 169.928231 220.41176 
L 170.33432 219.72943 
L 170.537364 217.836775 
L 170.740409 219.631954 
L 171.146498 216.358393 
L 171.349542 224.197069 
L 171.552587 218.112957 
L 171.755631 219.038976 
L 171.958675 215.619202 
L 172.16172 221.703314 
L 172.364764 219.794414 
L 172.567809 221.280919 
L 172.770853 218.543475 
L 172.973898 221.955126 
L 173.176942 221.142828 
L 173.379987 221.102213 
L 173.583031 222.206939 
L 173.786076 220.817909 
L 173.98912 220.419883 
L 174.192164 221.80079 
L 174.395209 221.329657 
L 174.598253 221.890143 
L 174.801298 220.663572 
L 175.004342 221.305288 
L 175.207387 221.134705 
L 175.410431 221.695191 
L 175.613476 221.159074 
L 175.81652 221.297165 
L 176.019565 221.248427 
L 176.222609 221.386518 
L 176.425653 220.622958 
L 176.628698 221.272796 
L 176.831742 220.923508 
L 177.034787 221.865774 
L 177.237831 220.622958 
L 177.440876 220.541728 
L 177.846965 220.826032 
L 178.050009 220.809786 
L 178.253054 220.956 
L 178.456098 220.541728 
L 178.659142 220.964123 
L 178.862187 220.956 
L 179.065231 220.817909 
L 179.268276 220.956 
L 179.47132 220.566097 
L 179.877409 220.87477 
L 180.080454 220.533605 
L 180.283498 220.79354 
L 180.486543 220.679818 
L 180.689587 220.395514 
L 180.892631 220.899139 
L 181.095676 220.468621 
L 181.501765 220.606712 
L 181.704809 220.850401 
L 181.907854 220.468621 
L 182.110898 220.484867 
L 182.313943 220.663572 
L 182.516987 220.501113 
L 182.720032 220.736679 
L 183.12612 220.33053 
L 183.329165 220.687941 
L 183.532209 220.403637 
L 183.735254 220.49299 
L 183.938298 220.387391 
L 184.141343 220.468621 
L 184.344387 220.419883 
L 184.750476 220.557974 
L 185.156565 220.444252 
L 185.765698 220.428006 
L 185.968743 220.549851 
L 186.577876 220.395514 
L 186.780921 220.468621 
L 186.983965 220.387391 
L 187.18701 220.639204 
L 187.593098 220.460498 
L 187.796143 220.533605 
L 188.202232 220.484867 
L 188.405276 220.606712 
L 188.608321 220.468621 
L 189.01441 220.663572 
L 189.420499 220.517359 
L 189.623543 220.769171 
L 190.029632 220.582343 
L 190.435721 220.476744 
L 190.84181 220.224932 
L 191.247899 220.428006 
L 191.450943 220.436129 
L 191.653988 220.647327 
L 192.060076 220.501113 
L 192.263121 220.752925 
L 192.466165 220.639204 
L 192.66921 220.687941 
L 192.872254 221.126582 
L 193.075299 220.468621 
L 193.278343 220.891016 
L 193.684432 220.663572 
L 194.090521 220.671695 
L 194.293565 220.606712 
L 194.699654 220.817909 
L 194.902699 220.65545 
L 195.511832 220.663572 
L 195.714877 220.533605 
L 195.917921 220.582343 
L 196.120965 220.49299 
L 196.527054 220.720433 
L 196.730099 220.541728 
L 196.933143 220.736679 
L 197.339232 220.639204 
L 197.542277 220.801663 
L 198.15141 220.777294 
L 198.354454 220.598589 
L 198.760543 220.736679 
L 198.963588 220.679818 
L 199.369677 220.79354 
L 199.775766 220.557974 
L 199.97881 220.809786 
L 200.181855 220.696064 
L 200.384899 220.939754 
L 200.587943 220.704187 
L 201.197077 220.79354 
L 201.400121 220.541728 
L 201.603166 220.71231 
L 201.80621 220.476744 
L 202.009255 220.671695 
L 202.212299 220.517359 
L 202.618388 220.834155 
L 202.821432 220.533605 
L 203.024477 220.842278 
L 203.430566 220.687941 
L 203.63361 220.842278 
L 203.836655 220.720433 
L 204.242744 220.801663 
L 204.445788 220.614835 
L 204.648833 220.785417 
L 205.054921 220.834155 
L 205.257966 220.939754 
L 205.664055 220.744802 
L 205.867099 220.882893 
L 206.070144 220.671695 
L 206.476233 220.687941 
L 206.882322 220.826032 
L 207.28841 220.639204 
L 207.491455 220.899139 
L 207.694499 220.631081 
L 207.897544 220.582343 
L 208.100588 220.752925 
L 208.303633 220.65545 
L 208.709722 220.842278 
L 209.115811 220.696064 
L 209.318855 220.866647 
L 209.521899 220.395514 
L 209.724944 220.720433 
L 209.927988 220.549851 
L 210.740166 220.639204 
L 210.943211 220.639204 
L 211.146255 220.801663 
L 211.3493 220.566097 
L 211.552344 220.826032 
L 211.958433 220.679818 
L 212.161477 220.679818 
L 212.364522 220.49299 
L 212.567566 220.71231 
L 213.1767 220.566097 
L 213.379744 220.720433 
L 213.582789 220.671695 
L 213.785833 220.826032 
L 214.191922 220.679818 
L 214.394966 220.817909 
L 214.801055 220.679818 
L 215.0041 220.850401 
L 215.207144 220.614835 
L 215.613233 220.79354 
L 215.816278 220.549851 
L 216.222366 220.769171 
L 216.425411 220.557974 
L 216.628455 220.826032 
L 217.034544 220.57422 
L 217.440633 220.704187 
L 218.049767 220.663572 
L 218.252811 220.65545 
L 218.455855 220.842278 
L 218.6589 220.533605 
L 218.861944 220.663572 
L 219.471078 220.606712 
L 219.674122 220.622958 
L 219.877167 220.509236 
L 220.080211 220.809786 
L 220.283256 220.582343 
L 220.4863 220.850401 
L 220.689344 220.395514 
L 220.892389 220.777294 
L 221.095433 220.598589 
L 221.298478 221.061599 
L 221.501522 220.501113 
L 221.704567 220.850401 
L 221.907611 220.631081 
L 222.110656 220.899139 
L 222.3137 220.306161 
L 222.516744 220.671695 
L 223.125878 220.842278 
L 223.328922 220.671695 
L 223.531967 220.801663 
L 223.735011 220.501113 
L 223.938056 220.704187 
L 224.1411 220.614835 
L 224.344145 220.947877 
L 224.547189 220.79354 
L 224.750233 221.199689 
L 224.953278 221.142828 
L 225.156322 221.25655 
L 225.359367 224.619464 
L 225.562411 220.687941 
L 225.765456 220.419883 
L 226.171545 223.514739 
L 226.374589 221.622084 
L 226.577634 222.060725 
L 226.780678 221.443379 
L 226.983722 222.531858 
L 227.186767 222.726809 
L 227.389811 223.206065 
L 227.592856 219.908135 
L 227.7959 218.990239 
L 227.998945 221.979495 
L 228.201989 219.916258 
L 228.405034 222.759301 
L 228.811123 220.200563 
L 229.217211 220.476744 
L 229.420256 219.583216 
L 229.6233 219.778168 
L 229.826345 219.48574 
L 230.029389 220.338653 
L 230.232434 219.550724 
L 230.435478 220.671695 
L 230.841567 219.10396 
L 231.044612 220.2493 
L 231.247656 219.916258 
L 231.4507 220.41176 
L 231.653745 219.672569 
L 231.856789 220.49299 
L 232.059834 220.005611 
L 232.262878 220.281792 
L 232.465923 220.273669 
L 232.668967 219.640077 
L 232.872012 220.566097 
L 233.075056 220.200563 
L 233.278101 220.541728 
L 233.481145 220.371145 
L 233.684189 220.57422 
L 233.887234 220.241178 
L 234.293323 220.566097 
L 234.496367 220.71231 
L 235.105501 220.436129 
L 235.308545 220.436129 
L 235.51159 220.639204 
L 235.714634 220.428006 
L 235.917678 220.49299 
L 236.120723 220.79354 
L 236.323767 220.566097 
L 236.932901 220.834155 
L 237.135945 220.696064 
L 237.948123 220.663572 
L 238.151167 220.87477 
L 238.354212 220.525482 
L 238.557256 220.79354 
L 239.369434 220.761048 
L 239.572479 220.720433 
L 239.775523 220.858524 
L 239.978568 220.606712 
L 240.181612 220.842278 
L 240.384656 221.597715 
L 240.587701 221.703314 
L 240.790745 220.557974 
L 240.99379 220.557974 
L 241.196834 220.403637 
L 241.399879 220.817909 
L 241.602923 220.704187 
L 241.805968 220.720433 
L 242.009012 220.346776 
L 242.212057 220.566097 
L 243.633368 220.184317 
L 243.836412 220.533605 
L 244.242501 220.379268 
L 244.445546 220.501113 
L 244.64859 220.428006 
L 244.851634 220.541728 
L 245.054679 220.419883 
L 245.257723 220.484867 
L 245.460768 220.33053 
L 245.663812 220.71231 
L 245.866857 220.549851 
L 246.069901 220.720433 
L 246.272946 220.41176 
L 246.47599 221.020984 
L 246.882079 220.371145 
L 247.085123 220.444252 
L 247.288168 220.720433 
L 247.491212 220.314284 
L 247.694257 220.826032 
L 248.100346 219.875643 
L 248.30339 220.525482 
L 248.506435 220.298038 
L 248.912524 218.462245 
L 249.115568 219.120206 
L 249.318612 220.476744 
L 249.521657 217.820529 
L 249.927746 220.631081 
L 250.13079 219.038976 
L 250.333835 218.600335 
L 250.536879 221.532731 
L 250.739924 219.802537 
L 250.942968 220.2493 
L 251.146012 221.33778 
L 251.349057 219.591339 
L 251.755146 222.190693 
L 252.161235 220.070595 
L 252.567324 221.378395 
L 252.770368 221.402764 
L 252.973413 221.711437 
L 253.176457 221.630207 
L 253.379501 222.068848 
L 253.78559 220.931631 
L 253.988635 222.336906 
L 254.191679 220.858524 
L 254.394724 221.971372 
L 254.597768 220.931631 
L 254.800813 221.354026 
L 255.003857 220.639204 
L 255.206902 221.622084 
L 255.409946 220.460498 
L 255.61299 221.370272 
L 255.816035 221.402764 
L 256.019079 220.549851 
L 256.222124 221.727683 
L 256.425168 220.834155 
L 256.831257 221.004738 
L 257.034302 220.541728 
L 257.237346 220.736679 
L 257.440391 221.102213 
L 257.846479 220.891016 
L 258.049524 220.062472 
L 258.252568 220.826032 
L 258.455613 221.061599 
L 258.861702 220.744802 
L 259.064746 220.533605 
L 259.67388 220.752925 
L 259.876924 220.566097 
L 260.283013 220.728556 
L 260.486057 220.598589 
L 260.689102 220.777294 
L 260.892146 220.11121 
L 261.095191 220.533605 
L 261.298235 220.687941 
L 261.907369 220.769171 
L 262.110413 220.533605 
L 262.313457 220.696064 
L 262.516502 220.533605 
L 262.719546 220.834155 
L 262.922591 220.891016 
L 263.32868 220.501113 
L 263.531724 220.87477 
L 263.734769 220.590466 
L 263.937813 220.744802 
L 264.343902 220.509236 
L 264.546946 220.557974 
L 264.749991 220.761048 
L 265.15608 220.671695 
L 265.562169 220.882893 
L 265.765213 220.517359 
L 265.968258 220.744802 
L 267.186524 220.809786 
L 267.389569 220.663572 
L 267.592613 220.338653 
L 267.795658 220.241178 
L 268.607836 220.947877 
L 268.81088 220.939754 
L 269.013924 220.614835 
L 269.216969 220.785417 
L 269.420013 220.582343 
L 269.826102 220.809786 
L 271.247413 221.061599 
L 271.450458 220.915385 
L 271.653502 220.964123 
L 271.856547 220.809786 
L 272.059591 220.988492 
L 272.262636 220.785417 
L 272.46568 220.996615 
L 272.668725 220.988492 
L 272.871769 220.769171 
L 273.277858 221.159074 
L 273.480902 220.79354 
L 273.683947 220.87477 
L 274.090036 220.777294 
L 274.29308 220.720433 
L 274.699169 220.882893 
L 274.902214 220.785417 
L 275.105258 220.931631 
L 275.308303 220.801663 
L 275.511347 220.809786 
L 275.714391 221.012861 
L 275.917436 220.826032 
L 276.12048 220.980369 
L 276.526569 220.809786 
L 277.541791 220.696064 
L 278.150925 221.012861 
L 278.353969 220.834155 
L 278.557014 220.964123 
L 278.760058 220.769171 
L 278.963103 221.077844 
L 279.166147 220.777294 
L 279.369192 221.03723 
L 279.572236 221.085967 
L 279.978325 220.744802 
L 280.181369 220.850401 
L 280.384414 220.777294 
L 280.587458 220.939754 
L 280.790503 220.777294 
L 281.602681 220.939754 
L 282.414858 220.71231 
L 282.617903 220.598589 
L 283.227036 220.834155 
L 284.039214 220.728556 
L 284.242258 221.004738 
L 284.445303 220.980369 
L 284.648347 221.134705 
L 284.851392 220.614835 
L 285.054436 220.996615 
L 285.257481 220.907262 
L 285.460525 220.980369 
L 285.66357 220.761048 
L 285.866614 220.956 
L 286.069659 220.769171 
L 286.272703 220.817909 
L 286.475747 221.012861 
L 286.881836 220.533605 
L 287.084881 221.207812 
L 287.287925 220.590466 
L 287.49097 220.826032 
L 287.694014 220.850401 
L 287.897059 221.045353 
L 288.303148 220.65545 
L 288.506192 220.907262 
L 288.709236 220.858524 
L 288.912281 220.996615 
L 289.115325 220.452375 
L 289.31837 221.118459 
L 289.521414 220.549851 
L 289.927503 220.931631 
L 290.130548 221.09409 
L 290.536637 220.631081 
L 290.739681 221.061599 
L 291.14577 220.761048 
L 291.348814 221.012861 
L 291.551859 220.947877 
L 291.754903 220.728556 
L 291.957948 220.736679 
L 292.160992 220.87477 
L 292.364037 220.736679 
L 292.770126 220.972246 
L 292.97317 220.842278 
L 293.176214 221.118459 
L 293.379259 220.663572 
L 293.582303 220.801663 
L 293.785348 221.118459 
L 293.988392 220.622958 
L 294.191437 221.142828 
L 294.394481 220.57422 
L 294.597526 221.280919 
L 294.80057 220.622958 
L 295.003615 220.939754 
L 295.206659 220.728556 
L 295.409703 221.029107 
L 295.612748 221.110336 
L 295.815792 220.233055 
L 296.018837 220.817909 
L 296.221881 220.996615 
L 296.424926 220.590466 
L 296.62797 221.345903 
L 296.831015 220.696064 
L 297.034059 220.817909 
L 297.237104 220.387391 
L 297.440148 220.956 
L 297.643192 220.956 
L 297.846237 220.395514 
L 298.049281 221.508362 
L 298.252326 221.711437 
L 298.45537 219.900012 
L 298.658415 222.775547 
L 298.861459 219.615708 
L 299.064504 222.02011 
L 299.267548 220.354899 
L 299.470593 222.491243 
L 299.673637 219.688815 
L 299.876681 221.760175 
L 300.079726 221.857651 
L 300.485815 220.882893 
L 300.688859 221.467748 
L 300.891904 220.257423 
L 301.094948 221.004738 
L 301.297993 219.851274 
L 301.704082 222.109463 
L 301.907126 220.761048 
L 302.11017 220.744802 
L 302.313215 221.183443 
L 302.516259 222.629334 
L 302.719304 220.094964 
L 303.125393 221.654576 
L 303.328437 220.11121 
L 303.531482 221.841405 
L 303.734526 219.891889 
L 303.937571 220.038103 
L 304.140615 221.126582 
L 304.546704 220.882893 
L 304.749748 221.215935 
L 304.952793 220.208686 
L 305.155837 221.17532 
L 305.358882 219.900012 
L 305.764971 221.272796 
L 305.968015 220.371145 
L 306.171059 220.436129 
L 306.374104 224.286422 
L 306.577148 223.043606 
L 306.780193 218.437876 
L 306.983237 219.94875 
L 307.186282 217.698685 
L 307.389326 222.361275 
L 307.592371 219.891889 
L 307.795415 220.882893 
L 307.99846 220.168071 
L 308.201504 220.980369 
L 308.404548 225.740435 
L 308.607593 215.789784 
L 309.013682 222.40189 
L 309.216726 219.745676 
L 309.419771 222.515612 
L 309.622815 218.445999 
L 309.82586 221.25655 
L 310.028904 220.135579 
L 310.231949 220.354899 
L 310.434993 221.443379 
L 310.638037 219.940627 
L 310.841082 220.57422 
L 311.044126 220.525482 
L 311.450215 220.801663 
L 311.65326 219.908135 
L 311.856304 221.362149 
L 312.059349 221.297165 
L 312.262393 223.449755 
L 312.668482 220.281792 
L 312.871526 216.853895 
L 313.074571 227.048235 
L 313.277615 218.770918 
L 313.48066 218.283539 
L 313.683704 218.194186 
L 314.089793 221.370272 
L 314.292838 220.143702 
L 314.698927 220.696064 
L 314.901971 222.093217 
L 315.105015 222.64558 
L 315.30806 214.636321 
L 315.511104 213.872761 
L 315.714149 233.286684 
L 315.917193 218.072342 
L 316.120238 222.678072 
L 316.323282 216.805157 
L 316.526327 216.122826 
L 316.729371 220.403637 
L 316.932416 221.678945 
L 317.13546 225.301794 
L 317.541549 220.021857 
L 317.744593 217.048846 
L 317.947638 220.647327 
L 318.150682 221.053476 
L 318.353727 220.947877 
L 318.759816 221.914511 
L 318.96286 217.65807 
L 319.165905 221.451502 
L 319.368949 216.26904 
L 319.571993 227.559983 
L 319.775038 213.499104 
L 319.978082 224.814415 
L 320.181127 222.873023 
L 320.384171 222.036356 
L 320.587216 219.047099 
L 320.79026 220.606712 
L 320.993305 219.81066 
L 321.399394 222.076971 
L 322.008527 220.086841 
L 322.211571 222.198816 
L 322.820705 219.461371 
L 323.023749 221.467748 
L 323.226794 220.671695 
L 323.429838 220.720433 
L 323.632883 219.981242 
L 323.835927 221.102213 
L 324.038971 220.834155 
L 324.242016 220.964123 
L 324.44506 220.956 
L 324.648105 218.770918 
L 324.851149 220.728556 
L 325.054194 221.077844 
L 325.257238 222.312537 
L 325.460283 220.054349 
L 325.663327 220.752925 
L 325.866372 223.945257 
L 326.27246 217.016354 
L 326.475505 225.659205 
L 327.084638 219.095837 
L 327.490727 220.346776 
L 327.693772 219.26642 
L 327.896816 223.530985 
L 328.099861 216.829526 
L 328.302905 218.12108 
L 328.505949 211.687679 
L 328.708994 227.844287 
L 329.115083 212.88988 
L 329.318127 227.462507 
L 329.521172 220.606712 
L 329.724216 222.215062 
L 329.927261 221.947003 
L 330.130305 216.260917 
L 330.33335 218.299785 
L 330.536394 212.296903 
L 330.739438 222.954253 
L 330.942483 219.737553 
L 331.145527 226.382151 
L 331.348572 211.573957 
L 331.551616 227.55186 
L 331.754661 219.006484 
L 331.957705 221.678945 
L 332.16075 220.379268 
L 332.363794 220.79354 
L 332.566838 220.346776 
L 332.769883 221.93888 
L 332.972927 218.835902 
L 333.175972 223.571599 
L 333.379016 219.047099 
L 333.582061 217.918005 
L 333.785105 222.18257 
L 333.98815 222.206939 
L 334.191194 221.695191 
L 334.597283 218.827779 
L 334.800327 219.477617 
L 335.003372 223.677198 
L 335.206416 217.349396 
L 335.409461 219.631954 
L 335.612505 219.355773 
L 336.018594 224.083347 
L 336.424683 219.136452 
L 336.627728 219.323281 
L 336.830772 225.789173 
L 337.033816 221.646453 
L 337.236861 220.395514 
L 337.439905 220.151825 
L 337.64295 221.118459 
L 337.845994 221.09409 
L 338.049039 208.812144 
L 338.252083 226.16283 
L 338.455128 219.363896 
L 338.658172 219.932504 
L 338.861217 226.114092 
L 339.064261 212.629945 
L 339.267305 222.905515 
L 339.47035 219.680692 
L 339.673394 212.735544 
L 339.876439 242.116364 
L 340.079483 223.563476 
L 340.282528 219.469494 
L 340.688617 221.012861 
L 340.891661 221.25655 
L 341.094706 220.306161 
L 341.29775 225.602345 
L 341.703839 216.447746 
L 341.906883 222.556227 
L 342.109928 221.029107 
L 342.312972 223.482247 
L 342.516017 213.65344 
L 342.719061 226.065354 
L 342.922106 222.962376 
L 343.12515 217.438749 
L 343.328195 220.265546 
L 343.531239 221.532731 
L 343.734283 220.996615 
L 343.937328 221.345903 
L 344.140372 217.471241 
L 344.343417 218.673442 
L 344.546461 230.289304 
L 344.749506 220.208686 
L 344.95255 218.454122 
L 345.155595 225.69982 
L 345.358639 224.034609 
L 345.561684 217.056969 
L 345.764728 226.690824 
L 345.967772 218.015481 
L 346.170817 225.846034 
L 346.373861 224.903768 
L 346.77995 220.119333 
L 346.982995 222.613088 
L 347.186039 219.380142 
L 347.389084 220.834155 
L 347.592128 220.606712 
L 347.795173 219.006484 
L 347.998217 221.053476 
L 348.201261 219.225805 
L 348.404306 223.206065 
L 348.810395 220.054349 
L 349.013439 221.792667 
L 349.216484 220.02998 
L 349.419528 220.866647 
L 349.622573 221.183443 
L 349.825617 221.118459 
L 350.231706 220.850401 
L 350.43475 221.313411 
L 350.637795 220.631081 
L 350.840839 220.663572 
L 351.043884 221.215935 
L 351.653017 220.850401 
L 352.059106 221.061599 
L 352.262151 221.020984 
L 352.465195 220.598589 
L 352.668239 220.972246 
L 352.871284 220.842278 
L 353.074328 221.004738 
L 353.683462 220.850401 
L 353.886506 221.045353 
L 354.292595 220.696064 
L 354.49564 221.167197 
L 354.698684 221.150951 
L 354.901728 220.606712 
L 355.104773 221.061599 
L 355.307817 220.777294 
L 355.510862 220.687941 
L 355.713906 221.012861 
L 355.916951 220.777294 
L 356.119995 221.232181 
L 356.32304 221.03723 
L 356.526084 220.687941 
L 356.932173 220.988492 
L 357.338262 220.777294 
L 357.541306 220.988492 
L 357.947395 220.988492 
L 358.15044 221.183443 
L 358.353484 220.907262 
L 358.556529 221.492116 
L 358.759573 220.71231 
L 358.962618 221.09409 
L 359.165662 221.207812 
L 359.368706 220.687941 
L 359.571751 221.069722 
L 359.774795 220.720433 
L 359.97784 221.077844 
L 360.383929 220.444252 
L 360.586973 221.516485 
L 360.790018 220.980369 
L 360.993062 222.206939 
L 361.602195 220.907262 
L 362.008284 220.533605 
L 362.414373 220.988492 
L 363.023507 220.468621 
L 363.226551 220.71231 
L 363.429595 220.354899 
L 363.835684 220.33053 
L 364.038729 220.517359 
L 364.241773 220.306161 
L 364.647862 220.720433 
L 364.850907 220.371145 
L 365.053951 220.541728 
L 365.663084 220.265546 
L 365.866129 220.257423 
L 366.069173 220.614835 
L 366.475262 220.013734 
L 366.678307 220.744802 
L 366.881351 220.744802 
L 367.084396 220.419883 
L 367.490485 220.468621 
L 367.693529 220.79354 
L 367.896573 220.02998 
L 368.099618 220.915385 
L 368.302662 220.899139 
L 368.505707 220.631081 
L 368.708751 219.989365 
L 368.911796 220.557974 
L 369.11484 220.354899 
L 369.317885 220.858524 
L 369.723974 217.812406 
L 369.927018 219.323281 
L 370.130062 213.702178 
L 370.333107 215.1237 
L 370.536151 213.962114 
L 370.739196 211.712048 
L 370.94224 214.530722 
L 371.145285 214.335771 
L 371.348329 222.580596 
L 371.551374 220.289915 
L 371.957463 222.215062 
L 372.160507 222.109463 
L 372.363551 220.891016 
L 372.566596 224.781924 
L 372.76964 219.26642 
L 372.972685 227.316293 
L 373.175729 221.922634 
L 373.378774 224.725063 
L 373.581818 222.743055 
L 373.581818 222.743055 
" style="fill:none;stroke:#ffa500;stroke-linecap:square;stroke-width:1.5;"/>
   </g>
   <g id="patch_3">
    <path d="M 54 252 
L 54 34.56 
" style="fill:none;stroke:#000000;stroke-linecap:square;stroke-linejoin:miter;stroke-width:0.8;"/>
   </g>
   <g id="patch_4">
    <path d="M 388.8 252 
L 388.8 34.56 
" style="fill:none;stroke:#000000;stroke-linecap:square;stroke-linejoin:miter;stroke-width:0.8;"/>
   </g>
   <g id="patch_5">
    <path d="M 54 252 
L 388.8 252 
" style="fill:none;stroke:#000000;stroke-linecap:square;stroke-linejoin:miter;stroke-width:0.8;"/>
   </g>
   <g id="patch_6">
    <path d="M 54 34.56 
L 388.8 34.56 
" style="fill:none;stroke:#000000;stroke-linecap:square;stroke-linejoin:miter;stroke-width:0.8;"/>
   </g>
   <g id="text_18">
    <!-- SPGD Detectors TP3 Testing Lineup In PicoAmps  -->
    <defs>
     <path d="M 53.515625 70.515625 
L 53.515625 60.890625 
Q 47.90625 63.578125 42.921875 64.890625 
Q 37.9375 66.21875 33.296875 66.21875 
Q 25.25 66.21875 20.875 63.09375 
Q 16.5 59.96875 16.5 54.203125 
Q 16.5 49.359375 19.40625 46.890625 
Q 22.3125 44.4375 30.421875 42.921875 
L 36.375 41.703125 
Q 47.40625 39.59375 52.65625 34.296875 
Q 57.90625 29 57.90625 20.125 
Q 57.90625 9.515625 50.796875 4.046875 
Q 43.703125 -1.421875 29.984375 -1.421875 
Q 24.8125 -1.421875 18.96875 -0.25 
Q 13.140625 0.921875 6.890625 3.21875 
L 6.890625 13.375 
Q 12.890625 10.015625 18.65625 8.296875 
Q 24.421875 6.59375 29.984375 6.59375 
Q 38.421875 6.59375 43.015625 9.90625 
Q 47.609375 13.234375 47.609375 19.390625 
Q 47.609375 24.75 44.3125 27.78125 
Q 41.015625 30.8125 33.5 32.328125 
L 27.484375 33.5 
Q 16.453125 35.6875 11.515625 40.375 
Q 6.59375 45.0625 6.59375 53.421875 
Q 6.59375 63.09375 13.40625 68.65625 
Q 20.21875 74.21875 32.171875 74.21875 
Q 37.3125 74.21875 42.625 73.28125 
Q 47.953125 72.359375 53.515625 70.515625 
" id="DejaVuSans-53"/>
     <path d="M 59.515625 10.40625 
L 59.515625 29.984375 
L 43.40625 29.984375 
L 43.40625 38.09375 
L 69.28125 38.09375 
L 69.28125 6.78125 
Q 63.578125 2.734375 56.6875 0.65625 
Q 49.8125 -1.421875 42 -1.421875 
Q 24.90625 -1.421875 15.25 8.5625 
Q 5.609375 18.5625 5.609375 36.375 
Q 5.609375 54.25 15.25 64.234375 
Q 24.90625 74.21875 42 74.21875 
Q 49.125 74.21875 55.546875 72.453125 
Q 61.96875 70.703125 67.390625 67.28125 
L 67.390625 56.78125 
Q 61.921875 61.421875 55.765625 63.765625 
Q 49.609375 66.109375 42.828125 66.109375 
Q 29.4375 66.109375 22.71875 58.640625 
Q 16.015625 51.171875 16.015625 36.375 
Q 16.015625 21.625 22.71875 14.15625 
Q 29.4375 6.6875 42.828125 6.6875 
Q 48.046875 6.6875 52.140625 7.59375 
Q 56.25 8.5 59.515625 10.40625 
" id="DejaVuSans-47"/>
     <path d="M 19.671875 64.796875 
L 19.671875 8.109375 
L 31.59375 8.109375 
Q 46.6875 8.109375 53.6875 14.9375 
Q 60.6875 21.78125 60.6875 36.53125 
Q 60.6875 51.171875 53.6875 57.984375 
Q 46.6875 64.796875 31.59375 64.796875 
z
M 9.8125 72.90625 
L 30.078125 72.90625 
Q 51.265625 72.90625 61.171875 64.09375 
Q 71.09375 55.28125 71.09375 36.53125 
Q 71.09375 17.671875 61.125 8.828125 
Q 51.171875 0 30.078125 0 
L 9.8125 0 
z
" id="DejaVuSans-44"/>
     <path d="M 18.3125 70.21875 
L 18.3125 54.6875 
L 36.8125 54.6875 
L 36.8125 47.703125 
L 18.3125 47.703125 
L 18.3125 18.015625 
Q 18.3125 11.328125 20.140625 9.421875 
Q 21.96875 7.515625 27.59375 7.515625 
L 36.8125 7.515625 
L 36.8125 0 
L 27.59375 0 
Q 17.1875 0 13.234375 3.875 
Q 9.28125 7.765625 9.28125 18.015625 
L 9.28125 47.703125 
L 2.6875 47.703125 
L 2.6875 54.6875 
L 9.28125 54.6875 
L 9.28125 70.21875 
z
" id="DejaVuSans-74"/>
     <path d="M 41.109375 46.296875 
Q 39.59375 47.171875 37.8125 47.578125 
Q 36.03125 48 33.890625 48 
Q 26.265625 48 22.1875 43.046875 
Q 18.109375 38.09375 18.109375 28.8125 
L 18.109375 0 
L 9.078125 0 
L 9.078125 54.6875 
L 18.109375 54.6875 
L 18.109375 46.1875 
Q 20.953125 51.171875 25.484375 53.578125 
Q 30.03125 56 36.53125 56 
Q 37.453125 56 38.578125 55.875 
Q 39.703125 55.765625 41.0625 55.515625 
z
" id="DejaVuSans-72"/>
     <path d="M -0.296875 72.90625 
L 61.375 72.90625 
L 61.375 64.59375 
L 35.5 64.59375 
L 35.5 0 
L 25.59375 0 
L 25.59375 64.59375 
L -0.296875 64.59375 
z
" id="DejaVuSans-54"/>
     <path d="M 40.578125 39.3125 
Q 47.65625 37.796875 51.625 33 
Q 55.609375 28.21875 55.609375 21.1875 
Q 55.609375 10.40625 48.1875 4.484375 
Q 40.765625 -1.421875 27.09375 -1.421875 
Q 22.515625 -1.421875 17.65625 -0.515625 
Q 12.796875 0.390625 7.625 2.203125 
L 7.625 11.71875 
Q 11.71875 9.328125 16.59375 8.109375 
Q 21.484375 6.890625 26.8125 6.890625 
Q 36.078125 6.890625 40.9375 10.546875 
Q 45.796875 14.203125 45.796875 21.1875 
Q 45.796875 27.640625 41.28125 31.265625 
Q 36.765625 34.90625 28.71875 34.90625 
L 20.21875 34.90625 
L 20.21875 43.015625 
L 29.109375 43.015625 
Q 36.375 43.015625 40.234375 45.921875 
Q 44.09375 48.828125 44.09375 54.296875 
Q 44.09375 59.90625 40.109375 62.90625 
Q 36.140625 65.921875 28.71875 65.921875 
Q 24.65625 65.921875 20.015625 65.03125 
Q 15.375 64.15625 9.8125 62.3125 
L 9.8125 71.09375 
Q 15.4375 72.65625 20.34375 73.4375 
Q 25.25 74.21875 29.59375 74.21875 
Q 40.828125 74.21875 47.359375 69.109375 
Q 53.90625 64.015625 53.90625 55.328125 
Q 53.90625 49.265625 50.4375 45.09375 
Q 46.96875 40.921875 40.578125 39.3125 
" id="DejaVuSans-33"/>
     <path d="M 45.40625 27.984375 
Q 45.40625 37.75 41.375 43.109375 
Q 37.359375 48.484375 30.078125 48.484375 
Q 22.859375 48.484375 18.828125 43.109375 
Q 14.796875 37.75 14.796875 27.984375 
Q 14.796875 18.265625 18.828125 12.890625 
Q 22.859375 7.515625 30.078125 7.515625 
Q 37.359375 7.515625 41.375 12.890625 
Q 45.40625 18.265625 45.40625 27.984375 
M 54.390625 6.78125 
Q 54.390625 -7.171875 48.1875 -13.984375 
Q 42 -20.796875 29.203125 -20.796875 
Q 24.46875 -20.796875 20.265625 -20.09375 
Q 16.0625 -19.390625 12.109375 -17.921875 
L 12.109375 -9.1875 
Q 16.0625 -11.328125 19.921875 -12.34375 
Q 23.78125 -13.375 27.78125 -13.375 
Q 36.625 -13.375 41.015625 -8.765625 
Q 45.40625 -4.15625 45.40625 5.171875 
L 45.40625 9.625 
Q 42.625 4.78125 38.28125 2.390625 
Q 33.9375 0 27.875 0 
Q 17.828125 0 11.671875 7.65625 
Q 5.515625 15.328125 5.515625 27.984375 
Q 5.515625 40.671875 11.671875 48.328125 
Q 17.828125 56 27.875 56 
Q 33.9375 56 38.28125 53.609375 
Q 42.625 51.21875 45.40625 46.390625 
L 45.40625 54.6875 
L 54.390625 54.6875 
z
" id="DejaVuSans-67"/>
     <path d="M 9.8125 72.90625 
L 19.671875 72.90625 
L 19.671875 8.296875 
L 55.171875 8.296875 
L 55.171875 0 
L 9.8125 0 
z
" id="DejaVuSans-4c"/>
     <path d="M 8.5 21.578125 
L 8.5 54.6875 
L 17.484375 54.6875 
L 17.484375 21.921875 
Q 17.484375 14.15625 20.5 10.265625 
Q 23.53125 6.390625 29.59375 6.390625 
Q 36.859375 6.390625 41.078125 11.03125 
Q 45.3125 15.671875 45.3125 23.6875 
L 45.3125 54.6875 
L 54.296875 54.6875 
L 54.296875 0 
L 45.3125 0 
L 45.3125 8.40625 
Q 42.046875 3.421875 37.71875 1 
Q 33.40625 -1.421875 27.6875 -1.421875 
Q 18.265625 -1.421875 13.375 4.4375 
Q 8.5 10.296875 8.5 21.578125 
M 31.109375 56 
z
" id="DejaVuSans-75"/>
     <path d="M 9.8125 72.90625 
L 19.671875 72.90625 
L 19.671875 0 
L 9.8125 0 
z
" id="DejaVuSans-49"/>
     <path d="M 34.1875 63.1875 
L 20.796875 26.90625 
L 47.609375 26.90625 
z
M 28.609375 72.90625 
L 39.796875 72.90625 
L 67.578125 0 
L 57.328125 0 
L 50.6875 18.703125 
L 17.828125 18.703125 
L 11.1875 0 
L 0.78125 0 
z
" id="DejaVuSans-41"/>
    </defs>
    <g transform="translate(74.063438 28.56)scale(0.12 -0.12)">
     <use xlink:href="#DejaVuSans-53"/>
     <use x="63.476562" xlink:href="#DejaVuSans-50"/>
     <use x="123.779297" xlink:href="#DejaVuSans-47"/>
     <use x="201.269531" xlink:href="#DejaVuSans-44"/>
     <use x="278.271484" xlink:href="#DejaVuSans-20"/>
     <use x="310.058594" xlink:href="#DejaVuSans-44"/>
     <use x="387.060547" xlink:href="#DejaVuSans-65"/>
     <use x="448.583984" xlink:href="#DejaVuSans-74"/>
     <use x="487.792969" xlink:href="#DejaVuSans-65"/>
     <use x="549.316406" xlink:href="#DejaVuSans-63"/>
     <use x="604.296875" xlink:href="#DejaVuSans-74"/>
     <use x="643.505859" xlink:href="#DejaVuSans-6f"/>
     <use x="704.6875" xlink:href="#DejaVuSans-72"/>
     <use x="745.800781" xlink:href="#DejaVuSans-73"/>
     <use x="797.900391" xlink:href="#DejaVuSans-20"/>
     <use x="829.6875" xlink:href="#DejaVuSans-54"/>
     <use x="890.771484" xlink:href="#DejaVuSans-50"/>
     <use x="951.074219" xlink:href="#DejaVuSans-33"/>
     <use x="1014.697266" xlink:href="#DejaVuSans-20"/>
     <use x="1046.484375" xlink:href="#DejaVuSans-54"/>
     <use x="1107.302734" xlink:href="#DejaVuSans-65"/>
     <use x="1168.826172" xlink:href="#DejaVuSans-73"/>
     <use x="1220.925781" xlink:href="#DejaVuSans-74"/>
     <use x="1260.134766" xlink:href="#DejaVuSans-69"/>
     <use x="1287.917969" xlink:href="#DejaVuSans-6e"/>
     <use x="1351.296875" xlink:href="#DejaVuSans-67"/>
     <use x="1414.773438" xlink:href="#DejaVuSans-20"/>
     <use x="1446.560547" xlink:href="#DejaVuSans-4c"/>
     <use x="1502.273438" xlink:href="#DejaVuSans-69"/>
     <use x="1530.056641" xlink:href="#DejaVuSans-6e"/>
     <use x="1593.435547" xlink:href="#DejaVuSans-65"/>
     <use x="1654.958984" xlink:href="#DejaVuSans-75"/>
     <use x="1718.337891" xlink:href="#DejaVuSans-70"/>
     <use x="1781.814453" xlink:href="#DejaVuSans-20"/>
     <use x="1813.601562" xlink:href="#DejaVuSans-49"/>
     <use x="1843.09375" xlink:href="#DejaVuSans-6e"/>
     <use x="1906.472656" xlink:href="#DejaVuSans-20"/>
     <use x="1938.259766" xlink:href="#DejaVuSans-50"/>
     <use x="1998.53125" xlink:href="#DejaVuSans-69"/>
     <use x="2026.314453" xlink:href="#DejaVuSans-63"/>
     <use x="2081.294922" xlink:href="#DejaVuSans-6f"/>
     <use x="2142.476562" xlink:href="#DejaVuSans-41"/>
     <use x="2210.884766" xlink:href="#DejaVuSans-6d"/>
     <use x="2308.296875" xlink:href="#DejaVuSans-70"/>
     <use x="2371.773438" xlink:href="#DejaVuSans-73"/>
     <use x="2423.873047" xlink:href="#DejaVuSans-20"/>
    </g>
   </g>
   <g id="legend_1">
    <g id="patch_7">
     <path d="M 320.117188 159.458125 
L 381.8 159.458125 
Q 383.8 159.458125 383.8 157.458125 
L 383.8 129.101875 
Q 383.8 127.101875 381.8 127.101875 
L 320.117188 127.101875 
Q 318.117188 127.101875 318.117188 129.101875 
L 318.117188 157.458125 
Q 318.117188 159.458125 320.117188 159.458125 
z
" style="fill:#ffffff;opacity:0.8;stroke:#cccccc;stroke-linejoin:miter;"/>
    </g>
    <g id="line2d_17">
     <path d="M 322.117188 135.200312 
L 342.117188 135.200312 
" style="fill:none;stroke:#ff0000;stroke-linecap:square;stroke-width:1.5;"/>
    </g>
    <g id="line2d_18"/>
    <g id="text_19">
     <!-- CEA 1 -->
     <defs>
      <path d="M 64.40625 67.28125 
L 64.40625 56.890625 
Q 59.421875 61.53125 53.78125 63.8125 
Q 48.140625 66.109375 41.796875 66.109375 
Q 29.296875 66.109375 22.65625 58.46875 
Q 16.015625 50.828125 16.015625 36.375 
Q 16.015625 21.96875 22.65625 14.328125 
Q 29.296875 6.6875 41.796875 6.6875 
Q 48.140625 6.6875 53.78125 8.984375 
Q 59.421875 11.28125 64.40625 15.921875 
L 64.40625 5.609375 
Q 59.234375 2.09375 53.4375 0.328125 
Q 47.65625 -1.421875 41.21875 -1.421875 
Q 24.65625 -1.421875 15.125 8.703125 
Q 5.609375 18.84375 5.609375 36.375 
Q 5.609375 53.953125 15.125 64.078125 
Q 24.65625 74.21875 41.21875 74.21875 
Q 47.75 74.21875 53.53125 72.484375 
Q 59.328125 70.75 64.40625 67.28125 
" id="DejaVuSans-43"/>
      <path d="M 9.8125 72.90625 
L 55.90625 72.90625 
L 55.90625 64.59375 
L 19.671875 64.59375 
L 19.671875 43.015625 
L 54.390625 43.015625 
L 54.390625 34.71875 
L 19.671875 34.71875 
L 19.671875 8.296875 
L 56.78125 8.296875 
L 56.78125 0 
L 9.8125 0 
z
" id="DejaVuSans-45"/>
     </defs>
     <g transform="translate(350.117188 138.700312)scale(0.1 -0.1)">
      <use xlink:href="#DejaVuSans-43"/>
      <use x="69.824219" xlink:href="#DejaVuSans-45"/>
      <use x="133.007812" xlink:href="#DejaVuSans-41"/>
      <use x="201.416016" xlink:href="#DejaVuSans-20"/>
      <use x="233.203125" xlink:href="#DejaVuSans-31"/>
     </g>
    </g>
    <g id="line2d_19">
     <path d="M 322.117188 149.878437 
L 342.117188 149.878437 
" style="fill:none;stroke:#ffa500;stroke-linecap:square;stroke-width:1.5;"/>
    </g>
    <g id="line2d_20"/>
    <g id="text_20">
     <!-- CEA 2 -->
     <g transform="translate(350.117188 153.378437)scale(0.1 -0.1)">
      <use xlink:href="#DejaVuSans-43"/>
      <use x="69.824219" xlink:href="#DejaVuSans-45"/>
      <use x="133.007812" xlink:href="#DejaVuSans-41"/>
      <use x="201.416016" xlink:href="#DejaVuSans-20"/>
      <use x="233.203125" xlink:href="#DejaVuSans-32"/>
     </g>
    </g>
   </g>
  </g>
 </g>
 <defs>
  <clipPath id="p7156decd8f">
   <rect height="217.44" width="334.8" x="54" y="34.56"/>
  </clipPath>
 </defs>
</svg>
